<?xml version="1.0" encoding="utf-8"?>
<!-- Generator: Adobe Illustrator 24.3.0, SVG Export Plug-In . SVG Version: 6.00 Build 0)  -->
<svg version="1.1" xmlns="http://www.w3.org/2000/svg" xmlns:xlink="http://www.w3.org/1999/xlink" x="0px" y="0px"
	 viewBox="0 0 1142.9 623.4" style="enable-background:new 0 0 1142.9 623.4;" xml:space="preserve">
<style type="text/css">
	.st0{fill:#FDEFCC;}
	.st1{fill:#FFFFFF;}
	.st2{fill:#FFD1C2;}
	.st3{fill:#853C2B;}
	.st4{fill:#1C2021;}
	.st5{fill:#F78271;}
	.st6{fill:#D69241;}
	.st7{fill:#6CBFAD;}
	.st8{fill:#FECA9A;}
	.st9{fill:#F1748A;}
	.st10{fill:#257BA0;}
	.st11{fill:#FBB87B;}
	.st12{fill:#FCD570;}
	.st13{fill:#F17389;}
	.st14{fill:none;stroke:#1C2021;stroke-width:2.7296;stroke-miterlimit:10;}
	.st15{clip-path:url(#SVGID_2_);}
	.st16{clip-path:url(#SVGID_4_);}
	.st17{clip-path:url(#SVGID_6_);}
	.st18{fill:none;stroke:#1C2021;stroke-width:1.4616;stroke-miterlimit:10;}
	.st19{clip-path:url(#SVGID_8_);}
	.st20{clip-path:url(#SVGID_10_);}
	.st21{clip-path:url(#SVGID_12_);}
	.st22{clip-path:url(#SVGID_14_);}
	.st23{clip-path:url(#SVGID_16_);}
	.st24{clip-path:url(#SVGID_18_);}
	.st25{clip-path:url(#SVGID_20_);}
	.st26{clip-path:url(#SVGID_22_);}
	.st27{fill:none;stroke:#1C2021;stroke-width:3.8694;stroke-miterlimit:10;}
	.st28{clip-path:url(#SVGID_24_);}
	.st29{clip-path:url(#SVGID_26_);}
	.st30{clip-path:url(#SVGID_28_);}
	.st31{clip-path:url(#SVGID_30_);}
	.st32{clip-path:url(#SVGID_32_);}
	.st33{clip-path:url(#SVGID_34_);}
	.st34{clip-path:url(#SVGID_36_);}
	.st35{clip-path:url(#SVGID_38_);}
	.st36{clip-path:url(#SVGID_40_);}
	.st37{clip-path:url(#SVGID_42_);}
	.st38{fill:none;stroke:#1C2021;stroke-width:2.1527;stroke-miterlimit:10;}
	.st39{fill:none;stroke:#1C2021;stroke-width:1.596;stroke-miterlimit:10;}
	.st40{fill:none;stroke:#FDEFCC;stroke-miterlimit:10;}
	.st41{fill:none;stroke:#1C2021;stroke-width:2.9956;stroke-miterlimit:10;}
	.st42{fill:none;stroke:#1C2021;stroke-width:1.9216;stroke-miterlimit:10;}
	.st43{clip-path:url(#SVGID_44_);fill:#1C2021;}
	.st44{clip-path:url(#SVGID_44_);}
	.st45{fill:#FFB260;}
	.st46{fill:#FFEEDA;}
	.st47{fill:#0094B9;}
	.st48{clip-path:url(#SVGID_46_);}
	.st49{clip-path:url(#SVGID_46_);fill:#FFD1C2;}
	.st50{clip-path:url(#SVGID_46_);fill:#F78271;}
	.st51{clip-path:url(#SVGID_48_);fill:#1C2021;}
	.st52{clip-path:url(#SVGID_48_);}
	.st53{clip-path:url(#SVGID_50_);}
	.st54{clip-path:url(#SVGID_50_);fill:#FFD1C2;}
	.st55{clip-path:url(#SVGID_50_);fill:#F78271;}
	.st56{fill:none;stroke:#1C2021;stroke-width:1.6065;stroke-miterlimit:10;}
	.st57{fill:none;stroke:#1C2021;stroke-width:8;stroke-miterlimit:10;}
	.st58{fill:none;stroke:#FDD56F;stroke-width:0.8835;stroke-miterlimit:10;}
</style>
<g id="Fondo">
</g>
<g id="Imagenes">
</g>
<g id="Tipografia">
	<g>
		<g>
			<g>
				<g>
					<g>
						<path class="st8" d="M124.2,319.9c0,0,6.2,45.5-4.1,75c-10.3,29.5,51.2,45,51.2,45l41.4,77.4l23.8-71.2l33.6-52.8
							c0,0-8.8-4.7-11.9-31.6C255,334.9,124.2,319.9,124.2,319.9z"/>
					</g>
				</g>
				<g>
					<g>
						<path class="st1" d="M189.9,426c-14-1.5-51.1-15.4-72.4-31.1L1.4,431.6l34.5,188.3c36.7,10.9,333.1-25.9,336.7-34.1
							c3.6-8.3,15-54.8,15-77.6c0-13.3-4.1-88.4-4.1-88.4c-20.2-19.1-91.8-21.6-108.3-21.3l-31.6,31.1
							C229.9,438.1,204.9,427.7,189.9,426z"/>
					</g>
				</g>
				<g>
					<g>
						<path class="st8" d="M132.7,84.1c0,0-45,11.9-45,63.1s3.1,61.6,3.1,61.6s-21.2-25.3-20.7-4.7c0.5,20.7,12.9,45,26.9,60
							s19.1,25.9,20.2,37.2c1,11.4,12.9,32.1,12.9,32.1l83.8,2.6c0,0,53.3-10.3,49.7-12.4c-3.6-2.1-1.6-32.1,0-41.4
							c1.6-9.3,10.3-0.5,17.6-17.6c7.2-17.1,30-75.5,20.7-77.6c-9.3-2.1-19.1,7.8-19.1,7.8s23.3-40.9,16.6-51.7
							c-6.7-10.9-33.6-67.8-75.5-70.3S132.7,84.1,132.7,84.1z"/>
					</g>
				</g>
				<g>
					<g>
						<path class="st4" d="M269.5,269.4l-0.3,0c-0.9-0.1-1.5-1-1.4-1.9c0-0.3,1.2-7.7,10.9-16.8c8.6-8.2,11.4-22.1,6-29.8
							c-9.4-13.3-4.5-26.2-4.3-26.7c0.3-0.9,1.3-1.3,2.2-0.9c0.9,0.3,1.3,1.3,1,2.2c-0.2,0.5-4.4,11.8,3.9,23.6
							c6.5,9.1,3.6,24.8-6.4,34.2c-8.7,8.2-9.8,14.8-9.8,14.8C271.1,268.8,270.3,269.4,269.5,269.4z"/>
					</g>
				</g>
				<g>
					<g>
						<path class="st4" d="M263.3,309.5c-0.1,0-0.2,0-0.3,0c-0.9-0.2-1.5-1.1-1.3-2c0.1-0.5,0.2-2.8,0.3-5.2
							c0.3-8.1,0.7-21.6,3.5-27.3c3.5-6.9,9.1-38,9.2-38.3c0.2-0.9,1-1.5,2-1.4c0.9,0.2,1.5,1,1.4,2c-0.2,1.3-5.8,31.9-9.5,39.3
							c-2.5,5-2.9,18.6-3.2,25.9c-0.1,3.4-0.2,5-0.3,5.8C264.8,309,264.1,309.5,263.3,309.5z"/>
					</g>
				</g>
				<g>
					<g>
						<path class="st4" d="M101.9,249.5c-0.4,0-0.8-0.1-1.1-0.4c-17.7-14.8-14-22.1-8.9-32.2c0.6-1.1,1.2-2.3,1.7-3.5
							c5.5-11.4,5.5-25.5,5.5-25.7c0-0.9,0.8-1.7,1.7-1.7s1.7,0.8,1.7,1.7c0,0.6-0.1,15-5.9,27.1c-0.6,1.2-1.2,2.4-1.8,3.6
							c-4.9,9.7-7.6,15,8.1,28c0.7,0.6,0.8,1.7,0.2,2.4C102.9,249.3,102.4,249.5,101.9,249.5z"/>
					</g>
				</g>
				<g>
					<g>
						<path class="st4" d="M119,317.8c-0.1,0-0.2,0-0.3,0c-0.9-0.2-1.5-1-1.4-1.9c0.6-3.9-1.3-12.6-3.9-24.8
							c-1.3-6-2.8-12.9-4.3-20.7c-4.6-23.6-5.2-30.9-5.2-31.2c-0.1-0.9,0.6-1.7,1.6-1.8c1,0,1.7,0.6,1.8,1.6c0,0,0.6,7.5,5.1,30.8
							c1.5,7.7,3,14.6,4.3,20.6c2.8,13,4.7,21.5,4,26C120.5,317.2,119.8,317.8,119,317.8z"/>
					</g>
				</g>
				<g>
					<g>
						<path class="st4" d="M192.7,279.4c-4.5,0-7.1-2.2-10-4.8c-1.9-1.6-4-3.5-7.1-5.2c-5.5-3-9.4-1.3-13.2,0.4
							c-2.1,0.9-4.1,1.8-6.1,1.8c-2.3,0-4.1-1.1-4.9-3c-1.3-3.2,0.4-8,4.2-11.8c2.1-2.1,4.3-5.5,7.3-10.1c3.9-5.9,9.2-14,17.4-23.9
							c13.6-16.5,4.6-31.5,4.5-31.7c-0.5-0.8-0.2-1.8,0.6-2.3c0.8-0.5,1.8-0.2,2.3,0.6c0.1,0.2,10.3,17.3-4.8,35.6
							c-8.1,9.8-13.3,17.8-17.2,23.6c-3.1,4.8-5.4,8.2-7.8,10.6c-3,3-4.1,6.5-3.5,8.1c0.1,0.2,0.4,0.9,1.8,0.9
							c1.4,0,2.9-0.7,4.8-1.5c3.9-1.8,9.3-4.2,16.2-0.3c3.4,1.9,5.7,3.9,7.7,5.5c3.6,3.1,5.5,4.8,10.8,3.6c4.4-1,7.6-3.5,10.8-6
							c3.2-2.5,6.2-4.9,9.8-4.9c2.9,0,6.1,1.6,9.3,3.1c2.7,1.3,6,2.8,7.2,2.3c0.1,0,0.3-0.1,0.5-0.6c1.5-4.1-3.8-10.1-8.4-15.5
							l-3-3.5c-8.2-9.7-15-18.1-15-22.3c0-0.9,0.8-1.7,1.7-1.7s1.7,0.8,1.7,1.7c0,3.3,9.6,14.6,14.2,20.1l3,3.5
							c5.5,6.4,11.2,12.9,9,18.9c-0.6,1.6-1.6,2.3-2.4,2.6c-2.6,1.1-6-0.5-9.9-2.4c-2.9-1.3-5.8-2.7-7.9-2.7c-2.5,0-4.9,1.9-7.7,4.2
							c-3.3,2.6-7,5.5-12.1,6.7C195,279.3,193.8,279.4,192.7,279.4z"/>
					</g>
				</g>
				<g>
					<g>
						<path class="st4" d="M114.8,292.5c-3,0-4.7-3.1-7-7.4c-1.7-3-3.7-6.8-6.7-10.2c-5.7-6.5-19.6-23.7-26.2-41.9
							c-6.3-17.4-10.5-30.1-7.2-35.2c0.9-1.4,2.3-2.1,4-2.3c8.4-0.6,18.5,14.6,19.6,16.3c0.5,0.8,0.3,1.8-0.5,2.3
							c-0.8,0.5-1.8,0.3-2.3-0.5c-3.8-5.9-11.8-15-16.6-14.8c-0.9,0.1-1.2,0.4-1.4,0.7c-2.7,4.1,3.5,21,7.5,32.2
							c6.4,17.7,20,34.5,25.6,40.9c3.2,3.7,5.3,7.6,7.1,10.8c1.4,2.5,3.1,5.7,4.1,5.7c0.9,0,1.7,0.8,1.7,1.7
							S115.8,292.5,114.8,292.5z"/>
					</g>
				</g>
				<g>
					<g>
						<path class="st4" d="M270,277.5c-0.6,0-1.2-0.3-1.5-0.9c-0.4-0.8-0.1-1.8,0.7-2.3c8.8-4.4,11.1-6.4,13.6-16.5
							c2.2-9,6.7-19.7,10.3-28.3l1.7-4c4.7-11.5,10.7-31,8.4-36.3c-0.3-0.7-0.6-0.8-0.7-0.8c-4.1-1.6-11.9,7.6-15.1,12.3
							c-0.5,0.8-1.6,1-2.3,0.5c-0.8-0.5-1-1.6-0.5-2.3c1.1-1.7,11.3-16.5,19.1-13.6c0.8,0.3,1.9,1,2.6,2.7c3.9,9-8.3,38.6-8.4,38.9
							l-1.7,4c-3.5,8.5-8,19.1-10.1,27.8c-2.8,11-5.7,13.9-15.4,18.7C270.5,277.4,270.3,277.5,270,277.5z"/>
					</g>
				</g>
				<g>
					<g>
						<g>
							<path class="st1" d="M162.9,198.1c-11.2-5.4-29.5-8.2-38.3,1.5s24.3,9,31,5.2C162.4,201.1,166,199.6,162.9,198.1z"/>
						</g>
					</g>
					<g>
						<g>
							<path class="st4" d="M138.1,209.9c-7.5,0-14.7-1.3-16.3-5.3c-0.5-1.3-0.9-3.9,1.8-6.9c9.7-10.8,29.2-7,39.8-1.9
								c0.6,0.3,2.2,1.1,2.3,3.4c0,2.7-1.9,3.8-7,6.6l-2.4,1.3C153.8,208.5,145.8,209.9,138.1,209.9z M142.1,195.6
								c-6.6,0-12.6,1.7-16.4,5.9c-0.7,0.8-0.8,1.2-0.8,1.2c1.8,2.9,24.2,3.2,30.2-0.2l2.5-1.3c1-0.6,2.1-1.1,3-1.7
								C154.8,197.1,148.2,195.6,142.1,195.6z"/>
						</g>
					</g>
				</g>
				<g>
					<g>
						<path class="st4" d="M142.3,192.8c0,0-8.3,14.3,2.6,14.3S152.1,192,142.3,192.8z"/>
					</g>
				</g>
				<g>
					<g>
						<path class="st4" d="M141.2,187.3c16-0.8,24.3-1.6,31,2.1c6.7,3.6,9.3-1,4.1-8.3c-5.2-7.2-21.7-10.9-36.2-9.8
							c-14.5,1-12.4-1-25.9,9.3c-13.4,10.3-9.3,20.2-4.1,15.5C115.3,191.5,130.3,187.8,141.2,187.3z"/>
					</g>
				</g>
				<g>
					<g>
						<path class="st4" d="M189.3,186.4c-0.4,0-0.8-0.1-1.1-0.4c-6.4-5.8-2.7-20.7-2.6-21.3c0.2-0.9,1.1-1.4,2-1.2
							c0.9,0.2,1.4,1.1,1.2,2c-0.9,3.8-2.5,14.3,1.6,18c0.7,0.6,0.7,1.7,0.1,2.4C190.2,186.2,189.8,186.4,189.3,186.4z"/>
					</g>
				</g>
				<g>
					<g>
						<path class="st4" d="M196,187.4c-0.6,0-1.2-0.4-1.5-1c-2.4-5.1-3.1-9.1-1.9-12.1c0.9-2.3,2.6-3.1,2.8-3.1
							c0.9-0.3,1.8,0.1,2.2,0.9c0.3,0.8-0.1,1.8-0.9,2.2c-1.2,0.6-2.5,3.6,0.8,10.7c0.4,0.8,0,1.8-0.8,2.2
							C196.5,187.4,196.3,187.4,196,187.4z"/>
					</g>
				</g>
				<g>
					<g>
						<path class="st4" d="M206.4,186.8c0,0-2.1-9.8,16.6-15.5c18.6-5.7,24.3-6.2,34.7,1.6c10.3,7.8,19.1,22.2,15,22.2
							s-12.9-9.8-23.3-9.8c-10.3,0-16,0-25.3,3.1C214.7,191.5,205.9,194,206.4,186.8z"/>
					</g>
				</g>
				<g>
					<g>
						<g>
							<path class="st1" d="M215.7,198.9c-2.5-1,19.5-8.8,32.1-6c9.7,2.2,2.6,12.7-11.4,14.9C222.4,210.1,220.4,200.8,215.7,198.9z"
								/>
						</g>
					</g>
					<g>
						<g>
							<path class="st4" d="M232.3,210.6c-7.5,0-11.1-3.8-13.8-6.6c-1.2-1.3-2.2-2.3-3.3-2.8c-0.9-0.4-1.6-1.9-1.4-3.1
								c0.8-5.1,24.9-9.7,34.2-7.6c5.2,1.2,5.9,4.6,5.9,6.6c-0.1,5.9-7.5,11.6-17.3,13.2C235,210.5,233.6,210.6,232.3,210.6z
								 M219.5,198.9c0.4,0.4,0.7,0.7,1.1,1.1c3,3.2,6.5,6.8,15.7,5.4c7.2-1.2,12.5-4.7,14-7.6c0.3-0.5,0.3-0.9,0.3-0.9
								c0-0.2-0.7-1.2-3.1-1.7C238.9,193.4,225.4,196.7,219.5,198.9z"/>
						</g>
					</g>
				</g>
				<g>
					<g>
						<path class="st4" d="M225.5,195.9c0,0-3.6,14.2,7.8,10.5C244.7,202.6,235.4,187.6,225.5,195.9z"/>
					</g>
				</g>
				<g>
					<g>
						<path class="st4" d="M133.2,298.4c0,0-2.2,0.7-3.2,1.1c-1.3,0.4-2.5,1.3-3.2,2.5c-0.7,1.2-1,2.9-0.5,4.2
							c0.1,0.3,0.2,0.5,0.3,0.7c-1,0.3-2.1,1.1-3.4,2.5c-5.2,5.7-7.2,34.1-2.1,41.3c0.5,0.7,1,1.6,1.6,2.7c-0.9,0.5-1.7,1.1-2.4,1.9
							c-2.3,2.2-3,5.7-1.8,8.6c1.2,2.8,3.8,4.8,6.8,5.2c1.8,0.2,3.5,0,5.2-0.6c-0.8,2.9-1.1,5.9,0.5,8.6c1.2,2,3,3.1,4.9,3.7
							c-2.1,4.3-2.8,8.9,0.8,12.5c2.2,2.2,4.7,3.1,7.2,3.1c0,0.2,0,0.3,0,0.5c0.2,3.5,2.3,6.9,5.4,8.7c3.3,1.8,6.1,1.6,8.7,0.4
							c0.7,1.3,1.7,2.4,2.9,3.2c5.3,3.6,11.4,1.1,15.1-3.4c-0.1,5.9,3.3,11.4,10.1,12.5c4.9,0.8,9.3-1.8,11.5-5.6
							c4.4,1,8.7,0.3,12-3.5c1.5,3.8,6,4.9,10,4.9c4.5,0,8.9,0,12.3-3.4c0.5-0.5,1-1.1,1.4-1.7c0.5,0.1,1,0.2,1.5,0.2
							c4.7,0.3,9.4-3.2,10.4-7.6c2.2-0.5,4.2-1.7,5.9-3.1c1.6-1.4,2.7-3.3,3-5.3c2.6-0.9,5-2.5,6.4-5c2.1-3.7,1.9-8.4-1.2-11.5
							c-1-1-2.1-1.6-3.3-2c0.2-0.4,0.3-0.9,0.4-1.3c5.4-0.2,10.7-2.7,13.4-7.8c2.8-5.2,1.8-11-1.5-14.7c4.2-2.8,7.8-33.1,5.7-38.4
							c-1.9-4.6-6.6-5.9-11.1-6.3c-0.8-0.1-1.6,0.1-2.3,0.5c-0.5-1-1.2-1.8-1.8-2.7c1.7-1.7,2.1-4.3,0.9-6.6c-0.2-0.3-0.4-0.7-0.5-1
							c-1.3-2.5-5.1-3.5-7.4-1.9c-0.1,0.1-0.3,0.2-0.4,0.3c0.7-3.1-1-6.8-5.1-6.8c-0.5,0-0.9,0.1-1.3,0.1c-4.5-6.9-9-14.3-13.2-16.4
							c0,0-9.8-8.3-17.6-4.7c-7.8,3.6-12.4,12.4-21.2,10.9c-8.8-1.6-13.4-12.4-21.2-11.9c-7.8,0.5-10.9,4.7-10.9,4.7
							s-7.2,1.6-16,15.5c-1.6,2.5-2.9,4.3-4,5.6C135.1,288.4,133.2,298.4,133.2,298.4z"/>
					</g>
				</g>
				<g>
					<g>
						<g>
							<path class="st5" d="M165,308.4c0,0-9.3,8.3,13.4,13.4s45-4.7,46.6-6.2c1.6-1.6,11.9-11.4-5.2-14
								C202.8,299.1,169.7,302.7,165,308.4z"/>
						</g>
					</g>
					<g>
						<g>
							<path class="st4" d="M192.1,325c-4.5,0-9.2-0.4-14-1.5c-10-2.3-15.4-5.4-16.5-9.6c-0.9-3.4,1.6-6.1,2.2-6.6
								c5.5-6.4,39.1-9.8,56.3-7.2c6.3,1,9.8,2.9,10.8,6.1c1,3-0.6,6.6-4.6,10.6C224.8,318.1,209.9,325,192.1,325z M166.1,309.6
								c-0.1,0.1-1.7,1.6-1.2,3.4c0.4,1.6,2.8,4.6,13.9,7.2c21.3,4.8,42.9-4,45-5.8c4.1-4.1,4.2-6.3,3.9-7.3
								c-0.6-1.8-3.5-3.1-8.1-3.8c-18.1-2.8-49.5,1.5-53.3,6.1L166.1,309.6z"/>
						</g>
					</g>
				</g>
				<g>
					<g>
						<g>
							<path class="st5" d="M158.3,302.2c11-1.1,21.2-6.7,30-7.2c8.8-0.5,25.3,1.6,33.6,2.6c8.3,1,18.1-5.2,16-0.5
								c-2.1,4.7-10.3,7.8-29,8.3c-18.6,0.5-24.8-0.5-33.6,0.5C166.6,306.8,147.9,303.2,158.3,302.2z"/>
						</g>
					</g>
					<g>
						<g>
							<path class="st4" d="M171.9,307.6c-6.7,0-16.5-1.4-18-3.4l-0.6-0.8l0.3-1.2c0.5-1.2,2-1.6,4.4-1.8c5.4-0.5,10.6-2.2,15.7-3.8
								c5.1-1.6,9.8-3.1,14.4-3.4c9-0.5,25.8,1.6,33.9,2.6c3.6,0.4,7.7-0.6,10.6-1.4c3.4-0.9,5.4-1.4,6.6,0c0.7,0.8,0.7,1.9,0.1,3.2
								c-2.6,5.8-12.3,8.8-30.5,9.3c-8.4,0.2-14.3,0.2-19.1,0.1c-5.6-0.1-9.7-0.1-14.4,0.4C174.5,307.6,173.3,307.6,171.9,307.6z
								 M161.7,303.4c4,0.7,9.6,1.2,13.5,0.7c4.9-0.6,9.1-0.5,14.9-0.4c4.7,0.1,10.6,0.1,18.9-0.1c18.5-0.5,25-3.7,27-6.5
								c-0.7,0.2-1.6,0.4-2.3,0.6c-3.3,0.8-7.7,2-11.9,1.5c-8-1-24.7-3.1-33.3-2.6c-4.1,0.2-8.7,1.7-13.6,3.3
								C170.6,301.2,166.2,302.6,161.7,303.4z"/>
						</g>
					</g>
				</g>
				<g>
					<g>
						<path class="st4" d="M122.6,401.6c-0.1,0-0.2,0-0.3,0c-0.9-0.2-1.5-1.1-1.3-2c0-0.1,2.1-11,3.6-22.7
							c1.5-11.5-0.5-22.6-0.5-22.8c-0.2-0.9,0.4-1.8,1.4-2c1-0.1,1.8,0.4,2,1.4c0.1,0.5,2.1,11.8,0.5,23.8
							c-1.5,11.8-3.6,22.7-3.6,22.9C124.1,401,123.4,401.6,122.6,401.6z"/>
					</g>
				</g>
				<g>
					<g>
						<path class="st4" d="M265.4,388.7c-0.5,0-0.9-0.2-1.3-0.6c-4.5-5-3.6-22.1-3.5-24c0.1-0.9,0.7-1.7,1.8-1.6
							c0.9,0.1,1.6,0.8,1.6,1.8c-0.4,6.7,0,18.5,2.7,21.6c0.6,0.7,0.6,1.8-0.1,2.4C266.2,388.5,265.8,388.7,265.4,388.7z"/>
					</g>
				</g>
				<g>
					<g>
						<g>
							<path class="st1" d="M108.1,401c-0.5-11.9,5.7-23.8,11.4-25.9c0,0-8.8,7.2-0.5,18.1c8.3,10.9,11.4,9.8,20.7,16
								c9.3,6.2,19.1,12.4,29,14c9.8,1.6,21.2,1.6,25.9,4.7"/>
						</g>
					</g>
					<g>
						<g>
							<path class="st4" d="M208.1,430.4c1.8,1.1,22,5.3,24.9,4.2c3-1.1,7.3-6.1,10.4-9.9c3.1-3.8,7.4-3.5,4.1,1.2
								c-3.3,4.8-3.5,6-11,11.4c-7.5,5.3-36.4-5.8-42.9-8c-3.3-1.1-9.1-2.6-15.8-3.2c-3.1-0.3-6.4-0.7-9.4-1.1
								c-10-1.6-19.7-7.6-29.6-14.2c-2.7-1.8-4.9-3-6.9-4.1c-4.8-2.6-8.2-4.5-14.2-12.4c-3-4-4-7.6-3.9-10.6
								c-2.4,4.5-5.6,7.9-5.3,14.4l-3.4,0.1c-0.6-12.9,7.5-22.4,13.8-24.7c0.8-0.3,1.6,0,2,0.7c0.4,0.7,0.2,1.6-0.4,2.1
								c-0.3,0.3-7.4,6.4-0.3,15.8c5.6,7.3,8.6,9,13.2,11.4c2,1.1,4.3,2.3,7.1,4.2c9.6,6.4,18.9,12.2,28.3,13.7
								c3,0.5,6.2,0.8,9.3,1.1c7.4,0.8,11.3,1.8,15.5,2.8C199.1,426.8,206.3,429.3,208.1,430.4z"/>
						</g>
					</g>
				</g>
				<g>
					<g>
						<g>
							<path class="st1" d="M244.7,425.8c10.3-12.4,23.8-26.9,22.8-40.3c0,0,13.4,2.1,14.5,6.2"/>
						</g>
					</g>
					<g>
						<g>
							<path class="st4" d="M243.4,424.7l2.9-3.4c9.6-11.3,20.4-24.2,19.5-35.7c0-0.5,0.2-1,0.5-1.4c0.4-0.3,0.9-0.5,1.4-0.4
								c3.4,0.5,14.6,2.6,15.9,7.5c0,0,1.9,8.8,0.8,9.9s-6,4.1-4.6,0.4c1.4-3.8,2.7-5.1,0.6-9.4c-0.7-1.5-5.8-3.6-11.1-4.6
								c-0.3,12.2-10.9,24.8-20.3,36l-2.9,3.4C245.1,428.2,240.5,428.1,243.4,424.7z"/>
						</g>
					</g>
				</g>
				<g>
					<g>
						<path class="st4" d="M102.5,401.4c-0.1,0.1-1,0-3.9,0.3c-7.7,0.8-28.4,4.2-54.7,18.9c-25.1,14.1-41.8,11.2-42.5,11
							c-0.9-0.2-1.5-1-1.3-2c0.2-0.9,1.1-1.5,2-1.3c0.2,0,16.3,2.8,40.3-10.7c25.9-14.5,46.2-18.4,56-19.3c3.8-0.4,5.7-0.3,6.9,1
							L102.5,401.4z"/>
					</g>
				</g>
				<g>
					<g>
						<path class="st4" d="M101.4,401.6c-0.6,0-1.1-0.3-1.4-0.8c-0.5-0.8-0.3-1.8,0.5-2.3l5.7-3.6c0.8-0.5,1.8-0.3,2.3,0.5
							c0.5,0.8,0.3,1.8-0.5,2.3l-5.7,3.6C102,401.5,101.7,401.6,101.4,401.6z"/>
					</g>
				</g>
				<g>
					<g>
						<path class="st4" d="M281.3,403.6c-1.1-1.2-1.9-2.1-1.7-3.4c0.2-0.8,0.7-1.4,1.6-1.8c4-1.7,14.7,0.2,16,0.4
							c0,0,18.3,1.6,36.2,4.7c4.3,0.7,9,1.5,13.8,2.3c15.3,2.5,31,5.1,36.7,7.1c0.9,0.3,1.3,1.3,1,2.2c-0.3,0.9-1.3,1.3-2.2,1
							c-5.4-1.9-21-4.5-36.1-6.9c-4.8-0.8-9.5-1.5-13.8-2.3c-17.8-3.1-35.9-4.6-36.1-4.6c-3.8-0.7-10.1-1.4-13.1-0.9l0.1,0.1
							L281.3,403.6z"/>
					</g>
				</g>
				<g>
					<g>
						<path class="st1" d="M151.5,196.2c-3,0-3,7.8,0,7.8C154.5,204,154.5,196.2,151.5,196.2z"/>
					</g>
				</g>
				<g>
					<g>
						<path class="st1" d="M236.9,196.2c-3,0-3,7.8,0,7.8C239.9,204,239.9,196.2,236.9,196.2z"/>
					</g>
				</g>
			</g>
			<g>
				<g>
					<path class="st57" d="M91.4,211.8c0,0-5.5-48.4,4.2-82.8s38-56.6,95.4-56.6s93.5,25.3,96.7,70.7s0.3,53.1,0.3,53.1"/>
				</g>
			</g>
			<g>
				<g>
					<path class="st4" d="M279.4,245.1l-4.8-3.3c0,0-18.6,56.5-24,62.4c-13,14.3,19.2,15.5,19.2,15.5s5-10.1,2.6-14.1
						c-2.4-4.1,3.1-3.6,1.4-9.3c-1.7-5.8,3.4-5.8,2.2-10.2c-1.2-4.4,3.5-12.6,1.9-15.6C276.3,267.4,277.7,246.8,279.4,245.1z"/>
				</g>
			</g>
			<g>
				<g>
					<path class="st4" d="M103.4,239.9l4.8-3.3c0,0,18.6,56.5,24,62.4c13,14.3-11.4,25.9-11.4,25.9s-12.8-20.4-10.4-24.5
						s-3.1-3.6-1.4-9.3c1.7-5.8-3.4-5.8-2.2-10.2c1.2-4.4-3.5-12.6-1.9-15.6S105.1,241.6,103.4,239.9z"/>
				</g>
			</g>
			<g>
				<g>
					<g>
						<path class="st4" d="M114.4,110.6c1.3,0,2.6-1.1,2.5-2.5c-0.1-1.4-1.1-2.5-2.5-2.5c-1.3,0-2.6,1.1-2.5,2.5
							C112,109.4,113,110.6,114.4,110.6L114.4,110.6z"/>
					</g>
				</g>
			</g>
			<g>
				<g>
					<g>
						<path class="st4" d="M122,105.6c1.3,0,2.6-1.1,2.5-2.5c-0.1-1.4-1.1-2.5-2.5-2.5c-1.3,0-2.6,1.1-2.5,2.5
							C119.6,104.5,120.6,105.6,122,105.6L122,105.6z"/>
					</g>
				</g>
			</g>
			<g>
				<g>
					<g>
						<path class="st4" d="M104.9,124.3c1.3,0,2.6-1.1,2.5-2.5c-0.1-1.4-1.1-2.5-2.5-2.5c-1.3,0-2.6,1.1-2.5,2.5
							C102.4,123.1,103.5,124.3,104.9,124.3L104.9,124.3z"/>
					</g>
				</g>
			</g>
			<g>
				<g>
					<g>
						<path class="st4" d="M101.5,146.5c1.3,0,2.6-1.1,2.5-2.5c-0.1-1.4-1.1-2.5-2.5-2.5c-1.3,0-2.6,1.1-2.5,2.5
							C99,145.4,100.1,146.5,101.5,146.5L101.5,146.5z"/>
					</g>
				</g>
			</g>
			<g>
				<g>
					<g>
						<path class="st4" d="M93.8,175.7c1.3,0,2.6-1.1,2.5-2.5c-0.1-1.4-1.1-2.5-2.5-2.5c-1.3,0-2.6,1.1-2.5,2.5
							C91.4,174.5,92.4,175.7,93.8,175.7L93.8,175.7z"/>
					</g>
				</g>
			</g>
			<g>
				<g>
					<g>
						<path class="st4" d="M95.7,163.1c1.3,0,2.6-1.1,2.5-2.5c-0.1-1.4-1.1-2.5-2.5-2.5c-1.3,0-2.6,1.1-2.5,2.5
							C93.3,162,94.3,163.1,95.7,163.1L95.7,163.1z"/>
					</g>
				</g>
			</g>
			<g>
				<g>
					<g>
						<path class="st4" d="M95,168.8c1.3,0,2.6-1.1,2.5-2.5c-0.1-1.4-1.1-2.5-2.5-2.5c-1.3,0-2.6,1.1-2.5,2.5
							C92.5,167.7,93.6,168.8,95,168.8L95,168.8z"/>
					</g>
				</g>
			</g>
			<g>
				<g>
					<g>
						<path class="st4" d="M98,160.4c1.3,0,2.6-1.1,2.5-2.5c-0.1-1.4-1.1-2.5-2.5-2.5c-1.3,0-2.6,1.1-2.5,2.5
							C95.6,159.3,96.6,160.4,98,160.4L98,160.4z"/>
					</g>
				</g>
			</g>
			<g>
				<g>
					<g>
						<path class="st4" d="M98.8,155.5c1.3,0,2.6-1.1,2.5-2.5c-0.1-1.4-1.1-2.5-2.5-2.5c-1.3,0-2.6,1.1-2.5,2.5
							C96.4,154.4,97.4,155.5,98.8,155.5L98.8,155.5z"/>
					</g>
				</g>
			</g>
			<g>
				<g>
					<g>
						<path class="st4" d="M95.4,157c1.3,0,2.6-1.1,2.5-2.5c-0.1-1.4-1.1-2.5-2.5-2.5c-1.3,0-2.6,1.1-2.5,2.5
							C92.9,155.9,94,157,95.4,157L95.4,157z"/>
					</g>
				</g>
			</g>
			<g>
				<g>
					<g>
						<path class="st4" d="M96.9,150.2c1.3,0,2.6-1.1,2.5-2.5c-0.1-1.4-1.1-2.5-2.5-2.5c-1.3,0-2.6,1.1-2.5,2.5
							C94.5,149,95.5,150.2,96.9,150.2L96.9,150.2z"/>
					</g>
				</g>
			</g>
			<g>
				<g>
					<g>
						<path class="st4" d="M99.9,152.1c1.3,0,2.6-1.1,2.5-2.5c-0.1-1.4-1.1-2.5-2.5-2.5c-1.3,0-2.6,1.1-2.5,2.5
							C97.5,150.9,98.5,152.1,99.9,152.1L99.9,152.1z"/>
					</g>
				</g>
			</g>
			<g>
				<g>
					<g>
						<path class="st4" d="M105.6,142.9c1.3,0,2.6-1.1,2.5-2.5c-0.1-1.4-1.1-2.5-2.5-2.5c-1.3,0-2.6,1.1-2.5,2.5
							C103.2,141.8,104.2,142.9,105.6,142.9L105.6,142.9z"/>
					</g>
				</g>
			</g>
			<g>
				<g>
					<g>
						<path class="st4" d="M101.5,140.3c1.3,0,2.6-1.1,2.5-2.5c-0.1-1.4-1.1-2.5-2.5-2.5c-1.3,0-2.6,1.1-2.5,2.5
							C99,139.1,100.1,140.3,101.5,140.3L101.5,140.3z"/>
					</g>
				</g>
			</g>
			<g>
				<g>
					<g>
						<path class="st4" d="M104.1,131.9c1.3,0,2.6-1.1,2.5-2.5c-0.1-1.4-1.1-2.5-2.5-2.5c-1.3,0-2.6,1.1-2.5,2.5
							C101.7,130.7,102.7,131.9,104.1,131.9L104.1,131.9z"/>
					</g>
				</g>
			</g>
			<g>
				<g>
					<g>
						<path class="st4" d="M104.9,137.6c1.3,0,2.6-1.1,2.5-2.5c-0.1-1.4-1.1-2.5-2.5-2.5c-1.3,0-2.6,1.1-2.5,2.5
							C102.4,136.5,103.5,137.6,104.9,137.6L104.9,137.6z"/>
					</g>
				</g>
			</g>
			<g>
				<g>
					<g>
						<path class="st4" d="M109.5,133c1.3,0,2.6-1.1,2.5-2.5c-0.1-1.4-1.1-2.5-2.5-2.5c-1.3,0-2.6,1.1-2.5,2.5
							C107,131.9,108.1,133,109.5,133L109.5,133z"/>
					</g>
				</g>
			</g>
			<g>
				<g>
					<g>
						<path class="st4" d="M100.7,134.2c1.3,0,2.6-1.1,2.5-2.5c-0.1-1.4-1.1-2.5-2.5-2.5c-1.3,0-2.6,1.1-2.5,2.5
							C98.3,133,99.3,134.2,100.7,134.2L100.7,134.2z"/>
					</g>
				</g>
			</g>
			<g>
				<g>
					<g>
						<path class="st4" d="M98,144.1c1.3,0,2.6-1.1,2.5-2.5c-0.1-1.4-1.1-2.5-2.5-2.5c-1.3,0-2.6,1.1-2.5,2.5
							C95.6,142.9,96.6,144.1,98,144.1L98,144.1z"/>
					</g>
				</g>
			</g>
			<g>
				<g>
					<g>
						<path class="st4" d="M109.5,126.9c1.3,0,2.6-1.1,2.5-2.5c-0.1-1.4-1.1-2.5-2.5-2.5c-1.3,0-2.6,1.1-2.5,2.5
							C107,125.8,108.1,126.9,109.5,126.9L109.5,126.9z"/>
					</g>
				</g>
			</g>
			<g>
				<g>
					<g>
						<path class="st4" d="M109.8,117.4c1.3,0,2.6-1.1,2.5-2.5c-0.1-1.4-1.1-2.5-2.5-2.5c-1.3,0-2.6,1.1-2.5,2.5
							C107.4,116.3,108.4,117.4,109.8,117.4L109.8,117.4z"/>
					</g>
				</g>
			</g>
			<g>
				<g>
					<g>
						<path class="st4" d="M106,118.9c1.3,0,2.6-1.1,2.5-2.5c-0.1-1.4-1.1-2.5-2.5-2.5c-1.3,0-2.6,1.1-2.5,2.5
							C103.6,117.8,104.6,118.9,106,118.9L106,118.9z"/>
					</g>
				</g>
			</g>
			<g>
				<g>
					<g>
						<path class="st4" d="M112.1,120.5c1.3,0,2.6-1.1,2.5-2.5c-0.1-1.4-1.1-2.5-2.5-2.5c-1.3,0-2.6,1.1-2.5,2.5
							C109.7,119.3,110.7,120.5,112.1,120.5L112.1,120.5z"/>
					</g>
				</g>
			</g>
			<g>
				<g>
					<g>
						<path class="st4" d="M119,115.5c1.3,0,2.6-1.1,2.5-2.5c-0.1-1.4-1.1-2.5-2.5-2.5c-1.3,0-2.6,1.1-2.5,2.5
							C116.5,114.4,117.6,115.5,119,115.5L119,115.5z"/>
					</g>
				</g>
			</g>
			<g>
				<g>
					<g>
						<path class="st4" d="M130,97.6c1.3,0,2.6-1.1,2.5-2.5c-0.1-1.4-1.1-2.5-2.5-2.5c-1.3,0-2.6,1.1-2.5,2.5
							C127.6,96.5,128.6,97.6,130,97.6L130,97.6z"/>
					</g>
				</g>
			</g>
			<g>
				<g>
					<g>
						<path class="st4" d="M135.7,90.4c1.3,0,2.6-1.1,2.5-2.5c-0.1-1.4-1.1-2.5-2.5-2.5c-1.3,0-2.6,1.1-2.5,2.5
							C133.3,89.2,134.3,90.4,135.7,90.4L135.7,90.4z"/>
					</g>
				</g>
			</g>
			<g>
				<g>
					<g>
						<path class="st4" d="M171.5,84.3c1.3,0,2.6-1.1,2.5-2.5c-0.1-1.4-1.1-2.5-2.5-2.5c-1.3,0-2.6,1.1-2.5,2.5
							C169.1,83.1,170.1,84.3,171.5,84.3L171.5,84.3z"/>
					</g>
				</g>
			</g>
			<g>
				<g>
					<g>
						<path class="st4" d="M180.7,87.3c1.3,0,2.6-1.1,2.5-2.5c-0.1-1.4-1.1-2.5-2.5-2.5c-1.3,0-2.6,1.1-2.5,2.5
							C178.2,86.2,179.3,87.3,180.7,87.3L180.7,87.3z"/>
					</g>
				</g>
			</g>
			<g>
				<g>
					<g>
						<path class="st4" d="M189.8,90c1.3,0,2.6-1.1,2.5-2.5c-0.1-1.4-1.1-2.5-2.5-2.5c-1.3,0-2.6,1.1-2.5,2.5
							C187.4,88.9,188.4,90,189.8,90L189.8,90z"/>
					</g>
				</g>
			</g>
			<g>
				<g>
					<g>
						<path class="st4" d="M198.9,87.3c1.3,0,2.6-1.1,2.5-2.5c-0.1-1.4-1.1-2.5-2.5-2.5c-1.3,0-2.6,1.1-2.5,2.5
							C196.5,86.2,197.5,87.3,198.9,87.3L198.9,87.3z"/>
					</g>
				</g>
			</g>
			<g>
				<g>
					<g>
						<path class="st4" d="M208.5,83.5c1.3,0,2.6-1.1,2.5-2.5c-0.1-1.4-1.1-2.5-2.5-2.5c-1.3,0-2.6,1.1-2.5,2.5
							C206,82.4,207.1,83.5,208.5,83.5L208.5,83.5z"/>
					</g>
				</g>
			</g>
			<g>
				<g>
					<g>
						<path class="st4" d="M216.1,82.8c1.3,0,2.6-1.1,2.5-2.5c-0.1-1.4-1.1-2.5-2.5-2.5c-1.3,0-2.6,1.1-2.5,2.5
							C213.6,81.6,214.7,82.8,216.1,82.8L216.1,82.8z"/>
					</g>
				</g>
			</g>
			<g>
				<g>
					<g>
						<path class="st4" d="M240.1,89.2c1.3,0,2.6-1.1,2.5-2.5c-0.1-1.4-1.1-2.5-2.5-2.5c-1.3,0-2.6,1.1-2.5,2.5
							C237.6,88.1,238.7,89.2,240.1,89.2L240.1,89.2z"/>
					</g>
				</g>
			</g>
			<g>
				<g>
					<g>
						<path class="st4" d="M246.5,92.7c1.3,0,2.6-1.1,2.5-2.5c-0.1-1.4-1.1-2.5-2.5-2.5c-1.3,0-2.6,1.1-2.5,2.5
							C244.1,91.5,245.1,92.7,246.5,92.7L246.5,92.7z"/>
					</g>
				</g>
			</g>
			<g>
				<g>
					<g>
						<path class="st4" d="M256,98.8c1.3,0,2.6-1.1,2.5-2.5c-0.1-1.4-1.1-2.5-2.5-2.5c-1.3,0-2.6,1.1-2.5,2.5
							C253.6,97.6,254.6,98.8,256,98.8L256,98.8z"/>
					</g>
				</g>
			</g>
			<g>
				<g>
					<g>
						<path class="st4" d="M264.4,107.9c1.3,0,2.6-1.1,2.5-2.5c-0.1-1.4-1.1-2.5-2.5-2.5c-1.3,0-2.6,1.1-2.5,2.5
							C262,106.8,263,107.9,264.4,107.9L264.4,107.9z"/>
					</g>
				</g>
			</g>
			<g>
				<g>
					<g>
						<path class="st4" d="M271.3,115.5c1.3,0,2.6-1.1,2.5-2.5c-0.1-1.4-1.1-2.5-2.5-2.5c-1.3,0-2.6,1.1-2.5,2.5
							C268.8,114.4,269.9,115.5,271.3,115.5L271.3,115.5z"/>
					</g>
				</g>
			</g>
			<g>
				<g>
					<g>
						<path class="st4" d="M271.7,128.8c1.3,0,2.6-1.1,2.5-2.5c-0.1-1.4-1.1-2.5-2.5-2.5c-1.3,0-2.6,1.1-2.5,2.5
							C269.2,127.7,270.3,128.8,271.7,128.8L271.7,128.8z"/>
					</g>
				</g>
			</g>
			<g>
				<g>
					<g>
						<path class="st4" d="M271.7,137.2c1.3,0,2.6-1.1,2.5-2.5c-0.1-1.4-1.1-2.5-2.5-2.5c-1.3,0-2.6,1.1-2.5,2.5
							C269.2,136.1,270.3,137.2,271.7,137.2L271.7,137.2z"/>
					</g>
				</g>
			</g>
			<g>
				<g>
					<g>
						<path class="st4" d="M273.9,150.5c1.3,0,2.6-1.1,2.5-2.5c-0.1-1.4-1.1-2.5-2.5-2.5c-1.3,0-2.6,1.1-2.5,2.5
							C271.5,149.4,272.5,150.5,273.9,150.5L273.9,150.5z"/>
					</g>
				</g>
			</g>
			<g>
				<g>
					<g>
						<path class="st4" d="M276.6,160.8c1.3,0,2.6-1.1,2.5-2.5c-0.1-1.4-1.1-2.5-2.5-2.5c-1.3,0-2.6,1.1-2.5,2.5
							C274.2,159.7,275.2,160.8,276.6,160.8L276.6,160.8z"/>
					</g>
				</g>
			</g>
			<g>
				<g>
					<g>
						<path class="st4" d="M280,169.2c1.3,0,2.6-1.1,2.5-2.5c-0.1-1.4-1.1-2.5-2.5-2.5c-1.3,0-2.6,1.1-2.5,2.5
							C277.6,168.1,278.6,169.2,280,169.2L280,169.2z"/>
					</g>
				</g>
			</g>
			<g>
				<g>
					<g>
						<path class="st4" d="M280.8,180.6c1.3,0,2.6-1.1,2.5-2.5c-0.1-1.4-1.1-2.5-2.5-2.5c-1.3,0-2.6,1.1-2.5,2.5
							C278.4,179.5,279.4,180.6,280.8,180.6L280.8,180.6z"/>
					</g>
				</g>
			</g>
			<g>
				<g>
					<g>
						<path class="st4" d="M282.3,189c1.3,0,2.6-1.1,2.5-2.5c-0.1-1.4-1.1-2.5-2.5-2.5c-1.3,0-2.6,1.1-2.5,2.5
							C279.9,187.9,280.9,189,282.3,189L282.3,189z"/>
					</g>
				</g>
			</g>
			<g>
				<g>
					<g>
						<path class="st4" d="M284.2,183.3c1.3,0,2.6-1.1,2.5-2.5c-0.1-1.4-1.1-2.5-2.5-2.5c-1.3,0-2.6,1.1-2.5,2.5
							C281.8,182.1,282.8,183.3,284.2,183.3L284.2,183.3z"/>
					</g>
				</g>
			</g>
			<g>
				<g>
					<g>
						<path class="st4" d="M283.5,174.9c1.3,0,2.6-1.1,2.5-2.5c-0.1-1.4-1.1-2.5-2.5-2.5c-1.3,0-2.6,1.1-2.5,2.5
							C281,173.8,282.1,174.9,283.5,174.9L283.5,174.9z"/>
					</g>
				</g>
			</g>
			<g>
				<g>
					<g>
						<path class="st4" d="M284.2,167.7c1.3,0,2.6-1.1,2.5-2.5c-0.1-1.4-1.1-2.5-2.5-2.5c-1.3,0-2.6,1.1-2.5,2.5
							C281.8,166.5,282.8,167.7,284.2,167.7L284.2,167.7z"/>
					</g>
				</g>
			</g>
			<g>
				<g>
					<g>
						<path class="st4" d="M280.4,163.1c1.3,0,2.6-1.1,2.5-2.5c-0.1-1.4-1.1-2.5-2.5-2.5c-1.3,0-2.6,1.1-2.5,2.5
							C278,162,279,163.1,280.4,163.1L280.4,163.1z"/>
					</g>
				</g>
			</g>
			<g>
				<g>
					<g>
						<path class="st4" d="M284.6,156.3c1.3,0,2.6-1.1,2.5-2.5c-0.1-1.4-1.1-2.5-2.5-2.5c-1.3,0-2.6,1.1-2.5,2.5
							C282.2,155.1,283.2,156.3,284.6,156.3L284.6,156.3z"/>
					</g>
				</g>
			</g>
			<g>
				<g>
					<g>
						<path class="st4" d="M278.5,155.1c1.3,0,2.6-1.1,2.5-2.5c-0.1-1.4-1.1-2.5-2.5-2.5c-1.3,0-2.6,1.1-2.5,2.5
							C276.1,154,277.1,155.1,278.5,155.1L278.5,155.1z"/>
					</g>
				</g>
			</g>
			<g>
				<g>
					<g>
						<path class="st4" d="M282.7,149c1.3,0,2.6-1.1,2.5-2.5c-0.1-1.4-1.1-2.5-2.5-2.5c-1.3,0-2.6,1.1-2.5,2.5
							C280.3,147.9,281.3,149,282.7,149L282.7,149z"/>
					</g>
				</g>
			</g>
			<g>
				<g>
					<g>
						<path class="st4" d="M276.6,146.4c1.3,0,2.6-1.1,2.5-2.5c-0.1-1.4-1.1-2.5-2.5-2.5c-1.3,0-2.6,1.1-2.5,2.5
							C274.2,145.2,275.2,146.4,276.6,146.4L276.6,146.4z"/>
					</g>
				</g>
			</g>
			<g>
				<g>
					<g>
						<path class="st4" d="M277.4,140.3c1.3,0,2.6-1.1,2.5-2.5c-0.1-1.4-1.1-2.5-2.5-2.5c-1.3,0-2.6,1.1-2.5,2.5
							C274.9,139.1,276,140.3,277.4,140.3L277.4,140.3z"/>
					</g>
				</g>
			</g>
			<g>
				<g>
					<g>
						<path class="st4" d="M281.9,143.7c1.3,0,2.6-1.1,2.5-2.5c-0.1-1.4-1.1-2.5-2.5-2.5c-1.3,0-2.6,1.1-2.5,2.5
							C279.5,142.5,280.5,143.7,281.9,143.7L281.9,143.7z"/>
					</g>
				</g>
			</g>
			<g>
				<g>
					<g>
						<path class="st4" d="M282.3,135.7c1.3,0,2.6-1.1,2.5-2.5c-0.1-1.4-1.1-2.5-2.5-2.5c-1.3,0-2.6,1.1-2.5,2.5
							C279.9,134.6,280.9,135.7,282.3,135.7L282.3,135.7z"/>
					</g>
				</g>
			</g>
			<g>
				<g>
					<g>
						<path class="st4" d="M276.2,132.3c1.3,0,2.6-1.1,2.5-2.5c-0.1-1.4-1.1-2.5-2.5-2.5c-1.3,0-2.6,1.1-2.5,2.5
							C273.8,131.1,274.8,132.3,276.2,132.3L276.2,132.3z"/>
					</g>
				</g>
			</g>
			<g>
				<g>
					<g>
						<path class="st4" d="M271.7,120.8c1.3,0,2.6-1.1,2.5-2.5c-0.1-1.4-1.1-2.5-2.5-2.5c-1.3,0-2.6,1.1-2.5,2.5
							C269.2,119.7,270.3,120.8,271.7,120.8L271.7,120.8z"/>
					</g>
				</g>
			</g>
			<g>
				<g>
					<g>
						<path class="st4" d="M276.6,125.4c1.3,0,2.6-1.1,2.5-2.5c-0.1-1.4-1.1-2.5-2.5-2.5c-1.3,0-2.6,1.1-2.5,2.5
							C274.2,124.3,275.2,125.4,276.6,125.4L276.6,125.4z"/>
					</g>
				</g>
			</g>
			<g>
				<g>
					<g>
						<path class="st4" d="M279.7,129.2c1.3,0,2.6-1.1,2.5-2.5c-0.1-1.4-1.1-2.5-2.5-2.5c-1.3,0-2.6,1.1-2.5,2.5
							C277.2,128.1,278.3,129.2,279.7,129.2L279.7,129.2z"/>
					</g>
				</g>
			</g>
			<g>
				<g>
					<g>
						<path class="st4" d="M268.6,109.8c1.3,0,2.6-1.1,2.5-2.5c-0.1-1.4-1.1-2.5-2.5-2.5c-1.3,0-2.6,1.1-2.5,2.5
							C266.2,108.7,267.2,109.8,268.6,109.8L268.6,109.8z"/>
					</g>
				</g>
			</g>
			<g>
				<g>
					<g>
						<path class="st4" d="M261.8,99.9c1.3,0,2.6-1.1,2.5-2.5c-0.1-1.4-1.1-2.5-2.5-2.5c-1.3,0-2.6,1.1-2.5,2.5
							C259.3,98.8,260.4,99.9,261.8,99.9L261.8,99.9z"/>
					</g>
				</g>
			</g>
			<g>
				<g>
					<g>
						<path class="st4" d="M252.6,93.1c1.3,0,2.6-1.1,2.5-2.5c-0.1-1.4-1.1-2.5-2.5-2.5c-1.3,0-2.6,1.1-2.5,2.5
							C250.2,91.9,251.2,93.1,252.6,93.1L252.6,93.1z"/>
					</g>
				</g>
			</g>
			<g>
				<g>
					<g>
						<path class="st4" d="M275.5,118.9c1.3,0,2.6-1.1,2.5-2.5c-0.1-1.4-1.1-2.5-2.5-2.5c-1.3,0-2.6,1.1-2.5,2.5
							C273,117.8,274.1,118.9,275.5,118.9L275.5,118.9z"/>
					</g>
				</g>
			</g>
			<g>
				<g>
					<g>
						<path class="st4" d="M201.6,80.9c1.3,0,2.6-1.1,2.5-2.5c-0.1-1.4-1.1-2.5-2.5-2.5c-1.3,0-2.6,1.1-2.5,2.5
							C199.2,79.7,200.2,80.9,201.6,80.9L201.6,80.9z"/>
					</g>
				</g>
			</g>
			<g>
				<g>
					<g>
						<path class="st4" d="M195.5,83.9c1.3,0,2.6-1.1,2.5-2.5c-0.1-1.4-1.1-2.5-2.5-2.5c-1.3,0-2.6,1.1-2.5,2.5
							C193.1,82.8,194.1,83.9,195.5,83.9L195.5,83.9z"/>
					</g>
				</g>
			</g>
			<g>
				<g>
					<g>
						<path class="st4" d="M189,85.1c1.3,0,2.6-1.1,2.5-2.5c-0.1-1.4-1.1-2.5-2.5-2.5c-1.3,0-2.6,1.1-2.5,2.5
							C186.6,83.9,187.6,85.1,189,85.1L189,85.1z"/>
					</g>
				</g>
			</g>
			<g>
				<g>
					<g>
						<path class="st4" d="M182.2,83.5c1.3,0,2.6-1.1,2.5-2.5c-0.1-1.4-1.1-2.5-2.5-2.5c-1.3,0-2.6,1.1-2.5,2.5
							C179.7,82.4,180.8,83.5,182.2,83.5L182.2,83.5z"/>
					</g>
				</g>
			</g>
			<g>
				<g>
					<g>
						<path class="st4" d="M175.7,80.9c1.3,0,2.6-1.1,2.5-2.5c-0.1-1.4-1.1-2.5-2.5-2.5c-1.3,0-2.6,1.1-2.5,2.5
							C173.3,79.7,174.3,80.9,175.7,80.9L175.7,80.9z"/>
					</g>
				</g>
			</g>
			<g>
				<g>
					<g>
						<path class="st4" d="M184.5,80.1c1.3,0,2.6-1.1,2.5-2.5c-0.1-1.4-1.1-2.5-2.5-2.5c-1.3,0-2.6,1.1-2.5,2.5
							C182,79,183.1,80.1,184.5,80.1L184.5,80.1z"/>
					</g>
				</g>
			</g>
			<g>
				<g>
					<g>
						<path class="st4" d="M191.3,80.1c1.3,0,2.6-1.1,2.5-2.5c-0.1-1.4-1.1-2.5-2.5-2.5c-1.3,0-2.6,1.1-2.5,2.5
							C188.9,79,189.9,80.1,191.3,80.1L191.3,80.1z"/>
					</g>
				</g>
			</g>
			<g>
				<g>
					<g>
						<path class="st4" d="M195.9,79.3c1.3,0,2.6-1.1,2.5-2.5c-0.1-1.4-1.1-2.5-2.5-2.5c-1.3,0-2.6,1.1-2.5,2.5
							C193.4,78.2,194.5,79.3,195.9,79.3L195.9,79.3z"/>
					</g>
				</g>
			</g>
			<g>
				<g>
					<g>
						<path class="st4" d="M166.2,82.4c1.3,0,2.6-1.1,2.5-2.5c-0.1-1.4-1.1-2.5-2.5-2.5c-1.3,0-2.6,1.1-2.5,2.5
							C163.7,81.2,164.8,82.4,166.2,82.4L166.2,82.4z"/>
					</g>
				</g>
			</g>
			<g>
				<g>
					<g>
						<path class="st4" d="M129.6,92.7c1.3,0,2.6-1.1,2.5-2.5c-0.1-1.4-1.1-2.5-2.5-2.5c-1.3,0-2.6,1.1-2.5,2.5
							C127.2,91.5,128.2,92.7,129.6,92.7L129.6,92.7z"/>
					</g>
				</g>
			</g>
			<g>
				<g>
					<g>
						<path class="st4" d="M124.3,99.5c1.3,0,2.6-1.1,2.5-2.5c-0.1-1.4-1.1-2.5-2.5-2.5c-1.3,0-2.6,1.1-2.5,2.5
							C121.9,98.4,122.9,99.5,124.3,99.5L124.3,99.5z"/>
					</g>
				</g>
			</g>
			<g>
				<g>
					<g>
						<path class="st4" d="M117.1,103.3c1.3,0,2.6-1.1,2.5-2.5c-0.1-1.4-1.1-2.5-2.5-2.5c-1.3,0-2.6,1.1-2.5,2.5
							C114.6,102.2,115.7,103.3,117.1,103.3L117.1,103.3z"/>
					</g>
				</g>
			</g>
			<g>
				<g>
					<g>
						<path class="st4" d="M118.6,109c1.3,0,2.6-1.1,2.5-2.5c-0.1-1.4-1.1-2.5-2.5-2.5c-1.3,0-2.6,1.1-2.5,2.5
							C116.2,107.9,117.2,109,118.6,109L118.6,109z"/>
					</g>
				</g>
			</g>
		</g>
		<g>
			<g>
				<path class="st1" d="M850.3,560.2c0,0,55.5-76.4,39.5-100.2c-7-10.5-78.6-17.5-100.9-27c-22.3-9.5-17.9-13.9-17.9-13.9
					l-7.5-11.6c0,0-11.6-11.1-12.9-9.9c-1.4,1.2-0.2,10.7-2.2,26.2c-2,15.5-6,25.4-15.5,31c-9.5,5.6-11,7.9-5.1,11.9
					c5.9,4,1.5,6,2.7,15.9c1.2,9.9,2.8,36.2,0,37.4c-2.8,1.2-0.8-15.5-10.3-29.4c-9.5-13.9-19.5-19.9-19.5-19.9s3.2,3.2,7.2-3.2
					c4-6.4,5.2-7.9-7.2-10.7c-12.3-2.8-13.1-7.9-24.6-23.4c-11.5-15.5-14.3-18.7-14.3-18.7s-6.4,1.2-8.3,6.4
					c-2,5.2-0.8,7.2-10.7,10.7c-9.9,3.6-47.1,11.9-97.8,36.6c-5.2,2.5-16.4,16.2-10.1,17.4c6.4,1.2,128.1,29.4,173,39.7
					C752.8,535.9,850.3,560.2,850.3,560.2z"/>
			</g>
			<g>
				<g>
					<path class="st2" d="M680.7,133.3c0,0-7.5,16.1-35.2,31.3c-27.7,15.2-35.2,34.3-36.7,48c-1.5,13.7,5.7,29.2,5.7,29.2
						s-15.5-8-15.2,1.8c0.3,9.8,16.4,23.8,25.9,29.2c0,0,31.7,49.3,44.6,58.9c0.3,0.3,0.7,0.5,1,0.7c0,0,4.2-0.9,5.1,11.9
						c0.9,12.8,8.6,47.4,4.5,59.3c-4.2,11.9-10.1,20-10.1,20s5.4,7.2,10.4,18.5c5.1,11.3,10.4,13.7,17.6,14.9
						c7.2,1.2,12.5-1.4,12.1,3.6c-0.5,5-5.8,14.6-5.8,14.6s3.6,6,11.6,12.8c8,6.9,14.6,25.3,14.6,28.6c0,3.3,2.7-15.2,1.5-23.2
						c-1.2-8,1.2-15.8,1.2-15.8s1.2-4.8-5.7-10.7c-6.9-6-2.4-7.5,3.3-10.7c5.7-3.3,9.8-0.9,11.3-23.5c1.5-22.7,5.1-28.3,1.2-31
						c-3.9-2.7-8.3-5.7-8.9-20s0.3-45.9,0.3-45.9s16.4-9.2,21.5-24.7C761.5,295.4,774,262,774,262s8-6.3,12.2-10.1
						c4.2-3.9,12.5-27.4,2.1-24.1c-10.4,3.3-6.6-2.4-7.5-7.2c-0.9-4.8-4.8-33.4-10.4-33.4c-5.7,0-45.9,5.1-66.5-14.3
						C683.4,153.5,680.7,133.3,680.7,133.3z"/>
				</g>
				<g>
					<path class="st3" d="M800.8,221.8c0,0,10.1-24.4-2.4-41.7c-12.5-17.3-28.6-38.7-46.5-50.1c-17.9-11.3-19.7-13.1-19.7-13.1
						s28.6,14.3,44.1,26.2c15.5,11.9,18.5,20.9,18.5,20.9s4.2-29.2-15.5-54.8c-19.7-25.6-37-38.1-53.1-50.1
						c-16.1-11.9,10.1-1.8,19.1,2.4c0,0-13.9-0.5-14.9-5.2c-0.4-1.8,5.4,2.2,11.9-13.9c6.6-16.1-10.5-28.6-17.1-17.3
						c0,0-18.7-16.1-32.4-18.5c-13.7-2.4-45.3,25-45.3,25s22.1-20.3,8.9-24.4c-13.1-4.2-35.8,22.7-31,30.4
						c4.8,7.7,23.2,27.4,23.2,27.4s-31,10.1-47.7,69.7c0,0-13.1,26.8-8.3,39.9c4.8,13.1,11.9,3,11.9,3S585,197.9,587.4,214
						c2.4,16.1,2.4,34.6,11.9,48.3c0,0-16.1-39.9-1.8-57.8c14.3-17.9,29.2-28.6,39.3-32.8c10.1-4.2,34-29.2,37.6-53.6
						c0,0,17.3,35.2,34.6,46.5c17.3,11.3,57.2,13.7,64.4,20.9C780.5,192.6,799.6,190.2,800.8,221.8z"/>
				</g>
				<g>
					<g>
						<g>
							<path class="st4" d="M736.2,59.9c-0.2,0-0.5,0-0.7,0c-0.9-0.1-1.6-0.9-1.6-1.9c0.1-0.9,0.9-1.6,1.9-1.6
								c3.9,0.4,8.8-5.9,10.8-14.7c1.9-8.2,1.2-18.1-4.9-20.4c-11.7-4.5-15.3,1.7-15.5,2c-0.5,0.8-1.5,1.1-2.3,0.7
								c-0.8-0.4-1.2-1.5-0.7-2.3c0.2-0.4,5-9.2,19.8-3.6c8,3.1,9.3,14.5,7,24.4C747.9,51.3,742.9,59.9,736.2,59.9z"/>
						</g>
						<g>
							<g>
								<path class="st5" d="M712.5,294.2c-1.3,2-4-1.9-5.7-2.6c-2.7-1.1-5.5-1.3-9.9,1.8c-4.4,3.1-7.3,6.2-7.3,6.2s3.9,7,9.8,12.2
									c6,5.2,18.4,4.7,23.6-1c5.2-5.7,8.5-12.7,8.5-12.7s-2.3-2.6-6.2-5.7C721.5,289.3,716.9,287.5,712.5,294.2z"/>
							</g>
							<g>
								<path class="st4" d="M710.6,317.1c-4.6,0-9.1-1.3-12.2-4c-6.1-5.3-10.1-12.3-10.2-12.6c-0.4-0.6-0.3-1.5,0.2-2
									c0.1-0.1,3-3.3,7.5-6.5c5.2-3.7,8.6-3.1,11.5-2c0.9,0.3,1.6,1,2.5,1.7c0.4,0.3,1,0.9,1.4,1.1c2-2.9,4.2-4.5,6.7-4.9
									c3.5-0.6,6.5,1.5,8.5,3.1c3.9,3.2,6.3,5.8,6.4,5.9c0.5,0.5,0.6,1.3,0.3,1.9c-0.1,0.3-3.5,7.3-8.8,13.1
									C721.3,315.3,715.9,317.1,710.6,317.1z M691.8,299.9c1.3,2.1,4.5,6.9,8.8,10.6c5.3,4.6,16.6,4.1,21.2-0.9
									c3.8-4.2,6.6-9.1,7.7-11.2c-1-1-2.8-2.7-5.2-4.7c-2.3-1.9-4.2-2.6-5.8-2.4c-1.6,0.3-3.1,1.5-4.6,3.8c-0.6,1-1.4,1.3-2,1.3
									c-1.7,0.2-3-1-4.3-2.1c-0.5-0.4-1.2-1-1.4-1.1c-2-0.8-4.2-1.2-8.3,1.6C695.1,296.8,693,298.8,691.8,299.9z M711.1,293.3
									L711.1,293.3l1.4,0.9L711.1,293.3z"/>
							</g>
						</g>
						<g>
							<path class="st4" d="M664.6,419.9c-0.5,0-0.9-0.2-1.3-0.6c-0.6-0.7-0.6-1.8,0.2-2.4c4.7-4.2,13-14.6,13.7-26.9
								c0.8-12.6-4.6-55.3-4.6-55.8c-0.1-0.9,0.6-1.8,1.5-1.9c1-0.1,1.8,0.6,1.9,1.5c0.2,1.8,5.4,43.5,4.6,56.4
								c-0.8,13.4-9.8,24.7-14.9,29.2C665.4,419.8,665,419.9,664.6,419.9z"/>
						</g>
						<g>
							<path class="st4" d="M747.7,401.5c-0.4,0-0.7-0.1-1-0.3c-8.1-6.2-8.6-12.2-9.7-25.4c-0.2-2.5-0.4-5.2-0.7-8.3
								c-1.9-19.4,1-33.4,1.1-33.9c0.2-0.9,1.1-1.5,2-1.3c0.9,0.2,1.5,1.1,1.3,2c0,0.1-2.9,14.1-1,32.9c0.3,3.1,0.5,5.9,0.7,8.3
								c1.1,12.9,1.5,17.7,8.4,23c0.8,0.6,0.9,1.7,0.3,2.4C748.7,401.3,748.2,401.5,747.7,401.5z"/>
						</g>
						<g>
							<path class="st4" d="M729.8,525.7l-0.3,0c-0.8-0.1-1.5-0.9-1.5-1.7c0-0.2-0.1-16.7-6.3-26.5c-3.2-4.9-7.9-10-11.7-14.1
								c-4.5-4.9-7-7.6-7.5-9.7c-0.6-0.5-2.8-2.3-6-4.2c-1.3-0.8-2.5-1.7-3.7-2.6c-2.5-1.9-5.1-3.9-9.3-4.8l-2.1-0.4
								c-5.9-1.2-11.5-2.3-16.1-9.7c-4.7-7.6-15.1-24.8-15.1-24.8c-0.1-0.2-0.2-0.4-0.2-0.7c-0.4-3.2,6.2-11.5,10.3-12.8
								c1.9-0.6,3.5,0,4.4,1.6c0.9,1.6,2.8,4.2,5.1,7.3c3.7,5,8.4,11.1,11.5,17.1c5.1,9.7,7.7,12.9,14.6,15.2c3,1,5.5,1.1,7.7,1.2
								c3.2,0.1,6.3,0.3,8.1,3.6c2.6,4.8-3.7,11.6-5.8,13.6c0.7,1.4,3.9,4.9,6.5,7.7c3.9,4.2,8.7,9.4,12,14.6c3.2,5,4.9,11.5,5.9,17
								c0.6-3.9,1-8.4,0.6-12.7c-0.9-12.4-0.7-21.9,0.6-25.6c0-0.7-2-2.9-3.3-4.3c-3-3.2-7-7.6-3.8-11.3c1.7-2,4.1-3.2,6.7-4.4
								c3.7-1.8,7.5-3.7,9.4-8.1c3.5-7.8,5.9-21.8,6.5-31.7c0.2-3.6-0.2-6.9-0.5-9.6c-0.4-3.7-0.7-6.4,0.8-8
								c0.7-0.8,1.8-1.2,3.1-1.1c3.7,0.2,7,3.2,9.6,5.6c1.2,1.1,2.3,2.1,3.1,2.6c4,2.3,3.1,7.9,3,8.1c-0.1,0.9-3.6,22.2-9.4,34
								c-5.1,10.3-12.8,24.3-20.7,27.3c-0.4,0.1-0.8,0.1-1.2,0c0.1,0.6,0.1,1.3-0.1,1.9c-1.1,3.1-1.3,12.6-0.4,24.2
								c0.9,11.7-3,24.3-3.1,24.8C731.2,525.2,730.6,525.7,729.8,525.7z M750.5,399.4c-0.8,0.5-0.5,3.2-0.2,5.2
								c0.3,2.8,0.7,6.3,0.5,10.2c-0.6,10.2-3.2,24.7-6.8,32.9c-2.5,5.5-7,7.8-11,9.8c-2.2,1.1-4.3,2.2-5.6,3.6
								c-1.1,1.3,0.9,3.7,3.7,6.7c1.2,1.3,2.3,2.5,3.1,3.6c0.2-0.5,0.5-0.8,1-1c5-1.9,11.4-10.5,18.8-25.6c5.6-11.3,9.1-32.8,9.1-33
								c0,0,0.5-3.5-1.4-4.6c-1.2-0.7-2.4-1.8-3.7-3C755.6,402,753,399.5,750.5,399.4z M653.5,425.9c1.7,2.8,10.5,17.5,14.8,24.3
								c3.8,6.1,8.2,7,13.8,8.1l2.2,0.4c5,1.1,8,3.4,10.7,5.4c1.1,0.8,2.2,1.7,3.4,2.4c2.7,1.5,4.6,3,5.8,3.9
								c2.7-2.8,5.8-7.2,4.8-9.1c-0.8-1.5-1.9-1.7-5.2-1.8c-2.3-0.1-5.2-0.2-8.6-1.4c-8.4-2.8-11.5-7.3-16.6-16.8
								c-3-5.7-7.6-11.8-11.2-16.7c-2.5-3.3-4.4-5.9-5.4-7.7c0,0-0.6-0.1-2.2,1.2C656.7,420.5,654,424.5,653.5,425.9z"/>
						</g>
						<g>
							<path class="st4" d="M555.6,465.2c-0.8,0-1.5-0.6-1.7-1.4c-0.2-0.9,0.5-1.8,1.4-2c0.1,0,13.2-2.4,34.1-10.2
								c17.4-6.6,26.3-12.3,32.8-16.4c1.4-0.9,2.6-1.7,3.9-2.4c7.2-4.3,24.7-7.9,25.4-8c0.9-0.2,1.8,0.4,2,1.4
								c0.2,0.9-0.4,1.8-1.4,2c-0.2,0-17.6,3.6-24.3,7.6c-1.2,0.7-2.4,1.5-3.8,2.4c-6.6,4.2-15.7,10-33.5,16.7
								c-21.2,8-34.1,10.3-34.7,10.4C555.8,465.2,555.7,465.2,555.6,465.2z"/>
						</g>
						<g>
							<path class="st4" d="M710.8,431.4c-4.5,0-10.1-4.8-10.8-5.4c-0.7-0.6-0.8-1.7-0.2-2.4c0.6-0.7,1.7-0.8,2.4-0.2
								c2.1,1.8,6.4,4.7,8.7,4.5c0.6,0,0.9-0.3,1.1-0.5c0.6-0.7,1.7-0.8,2.4-0.2c0.7,0.6,0.8,1.7,0.2,2.4c-0.9,1-2.1,1.6-3.4,1.7
								C711.1,431.4,711,431.4,710.8,431.4z"/>
						</g>
						<g>
							<path class="st4" d="M810.9,438.4l-0.2,0c-0.5-0.1-12.7-1.3-20.9-4.5c-6.5-2.5-20.1-9.3-20.5-14.6c-0.2-2.1-3.7-4.8-5.5-5.8
								c-0.8-0.5-1.1-1.5-0.6-2.4c0.5-0.8,1.5-1.1,2.4-0.6c0.7,0.4,6.8,4.1,7.2,8.5c0.2,2.1,9.1,8.1,18.3,11.7
								c7.8,3,19.9,4.3,20.1,4.3c0.9,0.1,1.6,0.9,1.5,1.9C812.6,437.7,811.8,438.4,810.9,438.4z"/>
						</g>
						<g>
							<path class="st4" d="M710.7,349c-10.9,0-20.1-5.5-24.7-8.2c-0.7-0.4-1.4-0.8-1.9-1.1c-0.7-0.4-1.7-0.7-3-1
								c-7.7-2.1-23.6-6.5-51.5-52.9c-32.6-54.3-21.6-120.7-21.5-121.3c0.2-0.9,1-1.6,2-1.4c0.9,0.2,1.6,1.1,1.4,2
								c-0.1,0.7-10.9,65.8,21,119c27.2,45.3,42.2,49.4,49.4,51.4c1.5,0.4,2.7,0.7,3.8,1.3c0.5,0.3,1.2,0.7,2,1.2
								c7.6,4.6,25.5,15.2,43.6-0.7c4.6-4.1,7.8-5.5,10.6-6.8c4.1-1.9,7.3-3.3,13.9-13.2c6.9-10.3,22.6-54.4,23.1-77.3
								c0.7-29,0.9-62.9-0.5-71.1c-0.2-0.9,0.5-1.8,1.4-2c0.9-0.1,1.8,0.5,2,1.4c1.8,10.7,0.9,57.6,0.5,71.8
								c-0.5,23.5-16.6,68.7-23.7,79.2c-7.2,10.7-11,12.4-15.4,14.4c-2.7,1.2-5.5,2.5-9.8,6.3C725.8,346.7,717.8,349,710.7,349z"/>
						</g>
						<g>
							<path class="st4" d="M612.4,239.7c-0.2,0-0.3,0-0.5-0.1c-0.4-0.1-10.4-3.5-10.4-25.7c0-21.1,20.7-35.3,44.7-51.7l3.7-2.5
								c23.9-16.4,25.7-33,25.7-33.2c0.1-0.9,0.9-1.6,1.9-1.6c0.9,0.1,1.6,0.9,1.6,1.9c-0.1,0.7-2,18.4-27.2,35.7l-3.7,2.5
								c-23.2,15.9-43.2,29.6-43.2,48.9c0,19.4,8,22.4,8,22.4c0.9,0.3,1.4,1.3,1.1,2.2C613.8,239.3,613.1,239.7,612.4,239.7z"/>
						</g>
						<g>
							<path class="st4" d="M636.9,281.5L636.9,281.5c-40.8-2.2-53.5-35.6-52-63.5c1.7-32.3,28.3-54.5,56.7-73.8
								c24.8-16.9,25.4-30.7,25.4-30.8c0-0.9,0.8-1.7,1.7-1.7c1,0.2,1.7,0.8,1.7,1.7c0,0.6-0.3,15.6-26.9,33.6
								c-27.7,18.8-53.5,40.4-55.2,71.2c-1.4,26.3,10.5,57.8,48.6,59.9c0.9,0,1.7,0.9,1.6,1.8C638.6,280.8,637.8,281.5,636.9,281.5z
								"/>
						</g>
						<g>
							<path class="st4" d="M622.9,271.6l-0.1,0c-5.3-0.4-22.1-12.5-25.4-22c-1.5-4.3,0-6.9,1.6-8.4c2.3-2.1,4.7-3,7.3-2.5
								c6.4,1.2,11,10.2,11.5,11.3c0.4,0.9,0.1,1.9-0.8,2.3c-0.8,0.4-1.9,0.1-2.3-0.8c-1.1-2.4-5-8.6-9-9.4
								c-1.5-0.3-2.9,0.2-4.3,1.6c-0.8,0.7-1.7,2-0.7,4.8c2.9,8.4,18.7,19.4,22.5,19.7c0.9,0.1,1.6,0.9,1.6,1.9
								C624.5,270.9,623.8,271.6,622.9,271.6z"/>
						</g>
						<g>
							<path class="st4" d="M597.5,188.2c-0.1,0-0.2,0-0.3,0c-1.8-0.3-7.6-3.5-5.6-32.4c3.2-46,32.4-76.5,35.7-79.8
								c11.1-11.1,43.9-28.4,66.4-29.5c20.7-0.9,47.5,11.7,59.6,20c11.4,7.8,31.6,28.3,36.9,49.7c7.2,28.8,8.3,44.3,3,46.1
								c-0.9,0.3-1.9-0.2-2.2-1.1c-0.3-0.9,0.2-1.9,1.1-2.2c1.2-0.9,2.7-10.2-5.3-42c-5.1-20.5-24.5-40.1-35.6-47.7
								c-11.7-8-37.6-20.4-57.5-19.4c-21.4,1-53.6,18-64.1,28.5c-11.7,11.7-32.2,41.2-34.7,77.6c-1.8,26,2.9,28.8,2.9,28.8
								c0.9,0.1,1.5,1,1.3,1.9C599.2,187.6,598.4,188.2,597.5,188.2z"/>
						</g>
						<g>
							<path class="st4" d="M793.3,225.9c-0.4,0-0.7-0.1-1-0.3c-0.8-0.6-0.9-1.6-0.3-2.4c5.8-7.8,6.4-14.6,1.9-22.3
								c-4.4-7.6-20.6-13.4-46.9-16.8c-15-1.9-50-6.4-67.1-46.6c-16.9-39.7,7.6-56.3,7.9-56.5c0.8-0.5,1.9-0.3,2.4,0.5
								c0.5,0.8,0.3,1.9-0.5,2.4c-0.9,0.6-22.4,15.3-6.6,52.3c16.4,38.3,48.8,42.5,64.4,44.5c27.8,3.6,44.4,9.8,49.4,18.5
								c5.2,8.9,4.5,17.2-2.1,26.1C794.3,225.7,793.8,225.9,793.3,225.9z"/>
						</g>
						<g>
							<path class="st4" d="M794.3,199.1c-0.6,0-1.3-0.4-1.6-1c-4.4-9.3-14.1-18-27.5-24.5c-3.1-1.5-6.2-2.9-9.2-4.3
								c-12.4-5.7-25.3-11.7-47.2-28c-35.3-26.3-24.7-56.8-24.5-57.1c0.3-0.9,1.3-1.3,2.2-1c0.9,0.3,1.4,1.3,1,2.2
								c-0.4,1.2-9.8,28.5,23.4,53.2c21.6,16.1,34.3,22,46.6,27.7c3,1.4,6.1,2.8,9.3,4.4c14.1,6.9,24.4,16.2,29.1,26.1
								c0.4,0.9,0,1.9-0.8,2.3C794.8,199,794.5,199.1,794.3,199.1z"/>
						</g>
						<g>
							<path class="st4" d="M795.7,227c-0.5,0-1-0.2-1.4-0.7c-0.6-0.7-0.5-1.8,0.3-2.4c15-11.8,11.5-35.8,7.5-43.8
								c-16.5-33-43.3-49.3-62.8-57.2c-44.4-18-38.6-40.5-38.3-41.4c0.3-0.9,1.2-1.4,2.1-1.2c0.9,0.3,1.4,1.2,1.2,2.1
								c-0.1,0.2-5,20.6,36.3,37.3c20.1,8.1,47.7,25,64.6,58.9c4.4,8.8,8.2,35-8.4,48C796.4,226.8,796.1,227,795.7,227z"/>
						</g>
						<g>
							<path class="st4" d="M778.4,263.2c-0.4,0-0.9-0.2-1.2-0.5c-0.7-0.7-0.6-1.8,0-2.4c9.8-9.6,23.3-26.9,17.9-32.8
								c-2.2-2.4-4.2-3.4-6-3c-3.5,0.8-6,6.8-6.6,8.9c-0.3,0.9-1.2,1.4-2.1,1.1c-0.9-0.3-1.4-1.2-1.1-2.1c0.3-1,3.1-9.9,9.2-11.2
								c3-0.7,6.2,0.6,9.3,4c9.5,10.3-15.2,34.9-18,37.6C779.3,263,778.9,263.2,778.4,263.2z"/>
						</g>
						<g>
							<path class="st4" d="M695.6,277.5c-1.2,0-2.4-0.5-3.3-2.1c-1.4-2.5-0.3-4.5,1.1-7.2c1.5-2.9,3.8-7.2,4.9-15.1
								c2-14.5-3.5-32.2-3.6-32.4c-0.3-0.9,0.2-1.9,1.1-2.2c0.9-0.3,1.9,0.2,2.2,1.1c0.2,0.8,5.8,18.7,3.7,33.9
								c-1.2,8.5-3.6,13.2-5.3,16.3c-1.3,2.5-1.6,3.1-1.1,3.9c0.3,0.4,0.3,0.6,2.7-0.6c1.7-0.9,3.9-1.9,6.1-1.3
								c3,0.9,4.2,0.5,7.5-0.4c2.4-0.7,4.5,0,6.4,0.7c0.6,0.2,1.5,0.5,2.1,0.6c0,0,0-0.1,0-0.2c0-0.9,0.8-1.7,1.7-1.7
								s1.7,0.8,1.7,1.7c0,1.4-0.4,2.5-1.3,3.1c-1.5,1.1-3.3,0.4-5.3-0.2c-1.4-0.5-3-1-4-0.7c-3.9,1.1-5.8,1.6-9.7,0.5
								c-0.9-0.3-2.3,0.4-3.6,1.1C698.5,276.7,697,277.5,695.6,277.5z"/>
						</g>
						<g>
							<path class="st4" d="M706.4,303.8c-1.3,0-2.6,0-3.9-0.1c-14.3-1.1-19.3-4.3-19.5-4.4c-0.8-0.5-1-1.6-0.5-2.4
								c0.5-0.8,1.6-1,2.4-0.5c0.1,0.1,4.7,2.9,17.8,3.9c13.4,1,29.8-3.8,34.5-5.6c0.9-0.3,1.9,0.1,2.2,1c0.3,0.9-0.1,1.9-1,2.2
								C734,299.6,719.5,303.8,706.4,303.8z"/>
						</g>
						<g>
							<g>
								<path class="st1" d="M681.6,220.9c-1,0.9,0.9,5.1-15.8,9.3c-14.8,3.8-20.5-3.6-20.5-3.6s3.9-9.1,17.3-10.6
									C676.2,214.5,681.6,220.9,681.6,220.9z"/>
							</g>
							<g>
								<path class="st4" d="M657.9,233.1c-9.7,0-13.7-5.1-13.9-5.4c-0.4-0.5-0.5-1.2-0.2-1.7c0.2-0.4,4.4-10,18.7-11.6
									c14.2-1.6,20.2,5.2,20.4,5.5c0.5,0.6,0.5,1.5,0,2.2c-1.1,3.4-3.9,6.7-16.7,9.9C663.1,232.7,660.3,233.1,657.9,233.1z
									 M647.5,226.3c1.8,1.6,7.2,5,17.9,2.3c12.2-3.1,13.7-6,14.2-7.2c-1.8-1.5-6.9-4.7-16.6-3.6
									C653.2,218.9,648.9,224.1,647.5,226.3z"/>
							</g>
						</g>
						<g>
							<path class="st4" d="M688.8,212.3c0,0-7.2-8.8-18.4-8c-11.1,0.8-17.1,0-27.2,5.4c-10.1,5.4-10.4,7.8-10.1,5.4
								c0.3-2.3,9.3-8.5,16.6-11.7c7.3-3.1,16.8-4.9,25.1-3.1C683.1,202.2,689.8,209.5,688.8,212.3z"/>
						</g>
						<g>
							<path class="st4" d="M657.8,216.8c0,0-7,9.8,0.5,12.4c7.5,2.6,15-1.3,13.7-7c-1.3-5.7-4.7-6.5-7.8-6.2
								C661.2,216.3,657.8,216.8,657.8,216.8z"/>
						</g>
						<g>
							<g>
								<path class="st1" d="M721.4,219.4c1.7,2.8,1.5,6.4,16.7,7.6c15.2,1.2,20-5.8,20-5.8s-4.8-8.6-18.4-8.7
									C726.1,212.4,721.4,219.4,721.4,219.4z"/>
							</g>
							<g>
								<path class="st4" d="M741.6,228.9c-1.1,0-2.4,0-3.6-0.2c-13.3-1.1-15.7-3.9-17.5-7.5c-0.2-0.3-0.3-0.6-0.5-0.9
									c-0.3-0.6-0.3-1.3,0-1.9c0.2-0.3,5.3-7.7,19.4-7.7c0.1,0,0.2,0,0.3,0c14.4,0.1,19.6,9.2,19.9,9.6c0.3,0.6,0.3,1.3-0.1,1.8
									C759.3,222.5,754.8,228.9,741.6,228.9z M723.5,219.6L723.5,219.6c1.1,2.2,2.4,4.7,14.8,5.7c10.9,0.9,15.9-2.5,17.6-4.2
									c-1.6-2.1-6.4-6.8-16.2-6.9c-0.1,0-0.2,0-0.3,0C729.7,214.2,725.1,217.9,723.5,219.6z"/>
							</g>
						</g>
						<g>
							<path class="st4" d="M715.1,210.8c0,0,6.3-9.5,17.4-9.9c11.2-0.4,17-1.8,27.6,2.5c10.6,4.3,11.1,6.6,10.6,4.3
								c-0.5-2.3-10.2-7.5-17.7-9.8c-7.5-2.3-17.3-3.1-25.3-0.4S713.8,208.1,715.1,210.8z"/>
						</g>
						<g>
							<path class="st4" d="M744.6,212.7c0,0,8,9,0.8,12.4c-7.2,3.4-15.1,0.3-14.4-5.5c0.7-5.8,3.9-6.9,7.1-7
								C741.2,212.6,744.6,212.7,744.6,212.7z"/>
						</g>
						<g>
							<path class="st4" d="M645.9,65.7c-0.3,0-0.6-0.1-0.8-0.2c-0.5-0.3-13.5-7.7-21.2-20c-8.3-13.2,3.8-29.4,19.5-39.6
								c5-3.2,9.9-4.4,14.6-3.3c5.4,1.2,9,4.9,10.6,6.9c8.8-5.8,18.2-10.1,25-9.3c12.6,1.5,32.1,15.7,33.6,24.5
								c1.5,8.3-3.5,23.2-6.6,28.2c-0.5,0.8-1.6,1.1-2.4,0.6c-0.8-0.5-1.1-1.6-0.6-2.4c2.8-4.6,7.4-18.7,6.1-25.8
								c-1.2-6.7-19.1-20.4-30.6-21.7c-10.5-1.2-29.9,12.5-40,23C643.4,36.6,641,41,641.8,47.1c1,6.9,5.5,16,5.6,16.1
								c0.3,0.7,0.2,1.5-0.3,2C646.7,65.6,646.3,65.7,645.9,65.7z M654.5,5.6c-3,0-6.1,1.1-9.3,3.1c-13.8,9-25.5,23.8-18.5,34.9
								c4.4,7,10.8,12.4,15.1,15.6c-1.4-3.4-2.9-7.8-3.5-11.7c-1.2-8.1,2.8-13.8,12.2-23.5c3.8-4,9.2-8.6,15-12.7
								c-1.4-1.6-4.3-4.6-8.5-5.5C656.3,5.7,655.4,5.6,654.5,5.6z"/>
						</g>
						<g>
							<path class="st4" d="M655,60.9c-0.6,0-1.1-0.3-1.5-0.8c-0.5-0.7-2.8-4.9,3.8-14.7c5.6-8.4,19.2-21.5,32.3-21.5
								c0.2,0,0.4,0,0.6,0c7.2,0.2,15.5,5.2,20.1,12c3.2,4.9,4.1,9.9,2.5,14.1c-0.3,0.9-1.3,1.3-2.2,1c-0.9-0.3-1.3-1.3-1-2.2
								c1.2-3.2,0.4-7.1-2.2-11c-4-6-11.1-10.3-17.3-10.5c-11.3-0.2-24.3,11.5-29.9,19.9c-5.3,7.9-3.8,10.9-3.8,10.9
								c0.5,0.8,0.3,1.8-0.5,2.4C655.7,60.8,655.4,60.9,655,60.9z"/>
						</g>
					</g>
					<g>
						<path class="st1" d="M673.3,224.7c0,1.6-1.5,3-3.3,3c-1.8,0-3.3-1.3-3.3-3c0-1.6,1.5-3,3.3-3
							C671.8,221.7,673.3,223,673.3,224.7z"/>
					</g>
					<g>
						<path class="st1" d="M749.2,223c0,1.6-1.5,3-3.3,3c-1.8,0-3.3-1.3-3.3-3c0-1.6,1.5-3,3.3-3C747.7,220,749.2,221.3,749.2,223z"
							/>
					</g>
				</g>
			</g>
		</g>
		<g>
			<g>
				<g>
					<path class="st2" d="M1117,499.3c16.1-25.4,25.9-41.9,25.9-41.9s-118.7-49.2-135-49.2c-1.8,0-2.8,0-3.5,0
						c2.7,0.3,10.8,2.4-31.7,13c-60.2,15.1-113.8,9.6-113.8,9.6s-33.9,7.9-42.7,24.7c-8.8,16.7-6,172.3,74.7,165.1
						c49.6-4.4,125.4,30,186.2-60.3L1117,499.3z"/>
				</g>
				<g>
					<path class="st8" d="M863.2,331.1c0,0,14.2,79.9,9.6,94.6c-4.6,14.6,46.4,20.9,46.4,20.9s20.1,2.9,28.9,52.3
						c0,0-1-21.2-0.3-30.2c0.7-9.1-1.4-20.8,10.3-20.8c11.7,0,33.1-31.8,33.5-33.1c0.4-1.3,0-78.7,0-78.7L863.2,331.1z"/>
				</g>
				<g>
					<g>
						<g>
							<path class="st8" d="M830.5,220.7c0,0-5.7-31.7-20.8-17.6c-15.1,14.1,3.2,50.1,13.3,53.6C833,260.2,833,240.5,830.5,220.7z"
								/>
						</g>
						<g>
							<path class="st4" d="M825.1,258.8c-0.8,0-1.7-0.1-2.8-0.5c-7.1-2.5-16.3-17.4-19.2-31.2c-1.6-7.7-2-18.4,5.3-25.2
								c3.9-3.6,7.6-4.8,11.1-3.6c8.8,2.9,12.2,20.2,12.5,22.2l0,0.1c2.6,20.6,1.6,33.1-3.2,36.9
								C828.2,258.1,826.9,258.8,825.1,258.8z M817.1,201.2c-1.9,0-4,1.1-6.2,3.2c-6.2,5.8-5.8,15.2-4.3,22.1
								c2.9,13.6,11.6,26.8,17,28.7c1.9,0.7,2.9,0.1,3.4-0.3c1.7-1.4,5.3-7.5,1.9-33.8c-0.9-4.8-4.4-17.6-10.3-19.6
								C818.1,201.2,817.6,201.2,817.1,201.2z"/>
						</g>
					</g>
					<g>
						<g>
							<path class="st8" d="M1017.3,215.6c0,0-3.2-24,15.1-18.3c18.3,5.7-1.9,65-12,58.1c-10.1-6.9-3.8-37.2-3.8-37.2L1017.3,215.6z
								"/>
						</g>
						<g>
							<path class="st4" d="M1022.2,257.6c-1,0-1.9-0.3-2.7-0.9c-10.7-7.4-5.1-35.7-4.5-39l0.6-2.3c-0.2-2.1-1.1-13.4,4.8-18.4
								c3.1-2.6,7.3-3.1,12.5-1.4c3.2,1,7.2,4,8.3,12.6c1.9,15.5-7.2,43-16,48.3C1024.2,257.3,1023.2,257.6,1022.2,257.6z
								 M1027.3,198.1c-1.9,0-3.5,0.5-4.8,1.6c-4.2,3.5-4,12.5-3.6,15.7c0,0.2,0,0.4,0,0.6l-0.6,2.5c-1.7,8.1-4.4,30.3,3.1,35.4
								c0.3,0.2,0.8,0.6,2.1-0.2c7-4.3,16.2-30.1,14.4-45c-0.7-5.5-2.7-8.8-6-9.8C1030.2,198.4,1028.7,198.1,1027.3,198.1z"/>
						</g>
					</g>
					<g>
						<g>
							<path class="st8" d="M823.6,219.4c0-22.7-16.4-61.8-3.8-85.8c12.6-24,53-84.6,107.9-68.1c54.9,16.4,95.3,59.3,95.3,86.4
								c0,27.1-3.2,56.2-2.5,69.4c0.6,13.3,6.9,82-12,111.1c-18.9,29-64.4,53.6-102.2,39.8c-37.9-13.9-68.1-48.6-75.7-79.5
								C822.9,261.7,823.6,219.4,823.6,219.4z"/>
						</g>
						<g>
							<path class="st4" d="M929.1,377.7c-8,0-15.9-1.3-23.5-4c-36.3-13.3-68.6-47.2-76.8-80.7c-7.5-30.6-7-72.7-7-73.6
								c0-7.5-1.8-16.9-3.8-26.9c-4-20.3-8.4-43.2,0.2-59.6c7.7-14.7,49.4-87,109.9-69c55.2,16.5,96.5,60.1,96.5,88.1
								c0,14-0.8,28.4-1.6,41.1c-0.7,11.8-1.3,21.9-1,28.3c0.1,1.2,0.2,2.8,0.3,4.8c1.2,19.9,5,80.4-12.5,107.3
								C993.9,357.8,960.9,377.7,929.1,377.7z M909,64.3c-48.1,0-81,57.3-87.7,70c-8.1,15.4-3.7,37.7,0.1,57.4
								c2,10.2,3.9,19.8,3.9,27.6l0,0c0,0.4-0.5,42.4,6.9,72.8c7.9,32.4,39.3,65.4,74.7,78.3c36.1,13.2,81-9.5,100.2-39.1
								c16.9-26,13.2-85.6,12-105.3c-0.1-2-0.2-3.6-0.3-4.8c-0.3-6.5,0.3-16.8,1-28.6c0.7-12.6,1.6-27,1.6-40.9
								c0-26.8-40.2-68.7-94.1-84.8C920.9,65.2,914.8,64.3,909,64.3z M823.6,219.4L823.6,219.4L823.6,219.4z"/>
						</g>
					</g>
					<g>
						<g>
							<path class="st3" d="M963.6,175.9c14.5,0.6,24,5.7,31.5,6.3c7.6,0.6,8.8-4.4,1.3-12c-7.6-7.6-20.2-12-34.1-5.7
								c-13.9,6.3-12.6,16.4-7.6,15.1S963.6,175.9,963.6,175.9z"/>
						</g>
						<g>
							<path class="st4" d="M996.4,183.9c-0.4,0-0.9,0-1.3-0.1c-3.2-0.3-6.6-1.2-10.5-2.4c-5.7-1.6-12.2-3.5-20.5-3.9
								c-1.2,0.7-4.6,2.6-8.9,3.7c-2.3,0.6-4.5-0.5-5.3-2.8c-1.2-3.5,0.9-10.6,11.8-15.5c15.2-6.9,28.5-1.4,36,6
								c4.7,4.7,6.5,8.9,5.1,11.8C1002.2,182,1000.7,183.9,996.4,183.9z M963.6,174.2L963.6,174.2c9,0.4,16.1,2.4,21.9,4.1
								c3.7,1.1,7,2,9.8,2.2c2.3,0.2,4-0.2,4.4-1.1c0.6-1.2-0.6-4.2-4.5-8c-6.6-6.6-18.6-11.5-32.2-5.3c-9,4.1-10.6,9.5-10,11.3
								c0.2,0.6,0.6,0.8,1.3,0.6c4.7-1.2,8.3-3.6,8.3-3.6C963,174.3,963.3,174.2,963.6,174.2z"/>
						</g>
					</g>
					<g>
						<g>
							<path class="st1" d="M952.3,203.6c9.9-5.5,22.1-11.4,34.1-6.9c12,4.4,11.4,10.7,6.3,13.3c-5,2.5-10.1,7.6-25.2,5.7
								C952.3,213.7,946.6,206.8,952.3,203.6z"/>
						</g>
						<g>
							<path class="st4" d="M973.6,217.7c-1.9,0-4-0.1-6.4-0.4c-10.5-1.3-17.8-5.1-18.7-9.8c-0.4-2.1,0.7-4.1,2.9-5.4l0,0
								c11.3-6.3,23.4-11.5,35.5-7.1c9.1,3.4,10.7,7.6,10.8,9.8c0.1,2.6-1.5,5.1-4.3,6.5c-0.8,0.4-1.6,0.9-2.4,1.4
								C987.3,214.9,982.5,217.7,973.6,217.7z M953.1,205.1c-1.5,0.8-1.3,1.6-1.3,1.8c0.4,2.2,5.6,5.8,15.8,7.1
								c12.1,1.5,17.4-1.6,21.7-4.1c0.9-0.5,1.8-1,2.6-1.5c0.8-0.4,2.6-1.5,2.5-3.3c-0.1-2.4-3.4-4.9-8.6-6.9
								C974.5,194.1,963,199.6,953.1,205.1z"/>
						</g>
					</g>
					<g>
						<path class="st4" d="M984.3,196c-7.8-2.1-15.5-0.2-22.7,2.9c-1.3,3.7-0.4,8,7.1,11.6C981,216.5,985.8,204.2,984.3,196z"/>
					</g>
					<g>
						<g>
							<path class="st3" d="M886.5,175.9c-14.5,0.6-24,5.7-31.5,6.3c-7.6,0.6-8.8-4.4-1.3-12c7.6-7.6,20.2-12,34.1-5.7
								c13.9,6.3,12.6,16.4,7.6,15.1C890.3,178.4,886.5,175.9,886.5,175.9z"/>
						</g>
						<g>
							<path class="st4" d="M853.8,183.9c-4.3,0-5.8-1.9-6.4-3.1c-1.4-2.9,0.5-7.1,5.1-11.8c7.4-7.4,20.8-12.9,36-6
								c10.9,4.9,13,12,11.8,15.5c-0.8,2.3-2.9,3.4-5.3,2.8c-4.3-1.1-7.7-3-8.9-3.7c-8.3,0.4-14.8,2.3-20.5,3.9
								c-3.9,1.1-7.3,2.1-10.5,2.4C854.6,183.9,854.2,183.9,853.8,183.9z M874.5,163.2c-8.2,0-15.1,3.7-19.6,8.2
								c-3.9,3.9-5,6.8-4.5,8c0.4,0.9,2.1,1.3,4.4,1.1c2.8-0.2,6.1-1.2,9.8-2.2c5.7-1.6,12.9-3.7,21.8-4.1c0.4,0,0.7,0.1,1,0.3
								c0,0,3.6,2.4,8.3,3.6c0.7,0.2,1.1,0,1.3-0.6c0.6-1.8-1-7.3-10-11.3C882.7,164,878.5,163.2,874.5,163.2z"/>
						</g>
					</g>
					<g>
						<g>
							<path class="st1" d="M897.9,203.6c-9.9-5.5-22.1-11.4-34.1-6.9c-12,4.4-11.4,10.7-6.3,13.3s10.1,7.6,25.2,5.7
								C897.9,213.7,903.6,206.8,897.9,203.6z"/>
						</g>
						<g>
							<path class="st4" d="M876.5,217.7c-8.9,0-13.7-2.8-17.4-4.9c-0.8-0.5-1.6-1-2.4-1.4c-2.9-1.4-4.5-3.9-4.3-6.5
								c0.1-2.2,1.7-6.5,10.8-9.8c12-4.4,24.2,0.8,35.5,7.1l0,0c2.3,1.3,3.4,3.2,2.9,5.4c-0.9,4.6-8.2,8.4-18.7,9.8
								C880.6,217.6,878.5,217.7,876.5,217.7z M872.7,196.8c-2.8,0-5.6,0.4-8.3,1.5c-5.3,1.9-8.5,4.5-8.6,6.9
								c-0.1,1.8,1.7,2.9,2.5,3.3c0.9,0.4,1.7,0.9,2.6,1.5c4.3,2.5,9.6,5.6,21.6,4.1c10.2-1.3,15.4-4.9,15.8-7.1
								c0-0.2,0.2-1-1.3-1.8C889.6,201,881.2,196.8,872.7,196.8z"/>
						</g>
					</g>
					<g>
						<path class="st4" d="M872.4,196.2c8-0.8,15.4,2.3,21.9,6.5c0.7,3.9-0.9,8-8.8,10.4C872.4,216.9,869.7,204,872.4,196.2z"/>
					</g>
					<g>
						<path class="st4" d="M935.8,288.1c-3.8,0-8.2-1.1-12.8-4.2c-5.1-3.3-9.2-2.9-12.8-2.4c-3.5,0.4-7.1,0.8-9.8-3
							c-1.3-1.8-1.6-4-0.9-6.2c1.8-5.9,10.6-11.4,16.2-13.4c2.7-1,2.7-2.6,2.3-7.3c-0.3-3-0.7-6.6,0.5-10.5
							c1.9-6.8,1.5-18.6,1.3-25.7c-0.1-1.9-0.1-3.6-0.1-4.7c0-0.9,0.8-1.7,1.7-1.7c0.9,0,1.7,0.8,1.7,1.7c0,1.1,0.1,2.7,0.1,4.6
							c0.3,7.8,0.6,19.5-1.4,26.8c-0.9,3.3-0.6,6.5-0.3,9.3c0.4,4.3,0.9,8.8-4.5,10.8c-5,1.8-12.7,6.8-14.1,11.3
							c-0.4,1.2-0.2,2.2,0.4,3.2c1.5,2.1,3.1,2,6.6,1.6c3.7-0.4,8.9-1,15,3c9.7,6.3,17.6,3.2,20.5-0.3c2.3-2.8,7.9-3.1,13.2-3.4
							c2.9-0.2,6-0.3,7.2-0.9c0.6-0.3,0.7-1.2,0.7-1.6c-0.2-2.5-3.4-8.2-14.7-12.2c-0.9-0.3-1.3-1.3-1-2.1c0.3-0.9,1.3-1.3,2.1-1
							c12,4.3,16.6,10.8,16.9,15.1c0.1,2.2-0.8,4-2.5,4.8c-1.8,0.9-4.9,1.1-8.5,1.3c-4,0.2-9.4,0.5-10.8,2.2
							C945.7,285.6,941.3,288.1,935.8,288.1z"/>
					</g>
					<g>
						<g>
							<path class="st2" d="M918.2,311.5c0,0-20.2-2.5-10.7,12c9.5,14.5,28.4,13.3,43.5,6.9c15.1-6.3,16.4-17.7,5.7-20.2
								C946,307.8,918.2,311.5,918.2,311.5z"/>
						</g>
						<g>
							<path class="st4" d="M930.5,336.6c-9.6,0-18.7-3.3-24.4-12.1c-2.9-4.5-3.6-8.1-1.9-10.8c3-4.8,12.2-4,14-3.8
								c2.8-0.4,28.4-3.7,38.9-1.2c4.9,1.1,8,4.2,8.3,8.1c0.5,5.7-4.8,11.6-13.7,15.3C945.1,334.8,937.6,336.6,930.5,336.6z
								 M915.1,313c-3,0-6.9,0.5-8.1,2.4c-1.1,1.8,0.4,4.9,1.9,7.2c8.9,13.7,27.3,12.2,41.5,6.3c8.4-3.5,11.9-8.5,11.7-11.9
								c-0.2-2.4-2.3-4.3-5.7-5.1c-10.3-2.4-37.6,1.3-37.9,1.3c-0.1,0-0.3,0-0.4,0C917.3,313.1,916.3,313,915.1,313z"/>
						</g>
					</g>
					<g>
						<path class="st4" d="M871.2,442c-0.1,0-0.2,0-0.3,0c-0.9-0.2-1.5-1.1-1.3-2c3.7-17.2-8.7-92-8.8-92.8
							c-0.2-0.9,0.5-1.8,1.4-1.9c0.9-0.1,1.8,0.5,1.9,1.4c0.5,3.1,12.6,76.2,8.8,94C872.7,441.4,872,442,871.2,442z"/>
					</g>
					<g>
						<path class="st4" d="M995.2,411.7c-0.8,0-1.5-0.6-1.7-1.4c-1.3-7.6-1.3-58.1-1.3-60.2c0-0.9,0.8-1.7,1.7-1.7
							c0.9,0,1.7,0.8,1.7,1.7c0,0.5,0,52.3,1.2,59.7c0.2,0.9-0.5,1.8-1.4,1.9C995.4,411.6,995.3,411.7,995.2,411.7z"/>
					</g>
					<g>
						<g>
							<path class="st2" d="M923.3,445.9c7.2,5.4-53-29.7-59.9-31.5c-6.9-1.9-8.8,17-8.8,17s12.6,13.3,22.1,29.7
								c9.5,16.4,31.5,59.3,32.8,64.4s1.9-7.6,3.8-27.8C915.1,477.5,920.7,444,923.3,445.9z"/>
						</g>
						<g>
							<path class="st4" d="M909.9,528.2c-1.5,0-2-1.7-2.1-2.4c-1.2-4.8-23.3-47.7-32.6-63.9c-9.2-16-21.7-29.2-21.8-29.3
								c-0.3-0.4-0.5-0.8-0.5-1.3c0.1-1.4,1.6-14.3,6.6-17.7c1.3-0.9,2.8-1.2,4.3-0.8c3.7,1,19.3,9.6,39.3,20.7
								c8.1,4.5,16.4,9.1,19.7,10.8c0.6,0,1.1,0.1,1.5,0.4c0.5,0.3,1.9,1.4,1,2.8c-0.4,0.6-0.6,1-1.8,0.6
								c-2.3,5.2-6.8,30.9-8.6,49.8c-0.4,4.4-0.8,8.4-1.1,12c-1.5,17.6-1.7,18.2-3.7,18.4L909.9,528.2z M856.2,430.8
								c2.5,2.7,13.4,14.9,21.8,29.4c7.6,13.2,25.7,47.9,31.3,60.6c0.3-3,0.7-7.1,1.1-11.3c0.3-3.6,0.7-7.6,1.1-12
								c0.5-5.6,4.7-41,9-50.8c-3.2-1.6-8.8-4.7-19-10.4c-14.8-8.2-35-19.4-38.6-20.4c-0.6-0.2-1.1-0.1-1.6,0.3
								C858.6,418.2,856.8,425.9,856.2,430.8z"/>
						</g>
					</g>
					<g>
						<g>
							<path class="st2" d="M952.9,449.7c7.6-3.8,39.8-37.2,42.9-48.6c0,0,6.9,1.9,13.3,3.2c6.3,1.3,15.1,0,6.9,15.8
								c-8.2,15.8-32.8,92.1-31.5,97.2s-16.4-33.4-20.2-47.3C960.5,456,952.9,449.7,952.9,449.7z"/>
						</g>
						<g>
							<path class="st4" d="M984.3,519.4c-1.3,0-2.7-2.2-10.5-20c-2.6-6.1-9-21-11.2-29.1c-3.6-13.2-10.7-19.3-10.8-19.3
								c-0.4-0.4-0.7-0.9-0.6-1.5c0.1-0.6,0.4-1.1,0.9-1.3c7-3.5,39-36.4,42-47.5c0.2-0.9,1.1-1.4,2.1-1.2c0,0,7,1.9,13.1,3.1
								c0.8,0.2,1.6,0.3,2.4,0.4c3.2,0.5,6.9,1,8.5,4c1.5,2.9,0.6,7.2-2.8,13.8c-8.4,16.2-32.1,90.7-31.4,96
								c0.5,1.9-0.9,2.4-1.2,2.4C984.7,519.4,984.5,519.4,984.3,519.4z M955.6,450c2.5,2.7,7.4,9,10.3,19.5
								c2.8,10.4,12.9,33.3,17.6,42.8c3.9-19.3,24.5-80.4,31.1-93c3.5-6.6,3.4-9.5,2.8-10.7c-0.8-1.5-3.3-1.9-6-2.2
								c-0.9-0.1-1.8-0.3-2.6-0.4c-4.5-0.9-9.4-2.2-11.9-2.8C991.9,415.4,965.2,443.2,955.6,450z"/>
						</g>
					</g>
					<g>
						<path class="st4" d="M817.9,453.9c-0.5,0-1-0.2-1.4-0.7c-0.5-0.8-0.4-1.8,0.4-2.3c1-0.7,25-17.9,37.1-21.1
							c0.9-0.2,1.8,0.3,2,1.2c0.2,0.9-0.3,1.8-1.2,2c-11.6,3-35.8,20.4-36,20.6C818.6,453.8,818.2,453.9,817.9,453.9z"/>
					</g>
					<g>
						<path class="st4" d="M1060.2,424.3c-5.8,0-36.7-9.7-40.3-10.8c-0.9-0.3-1.4-1.2-1.1-2.1c0.3-0.9,1.2-1.4,2.1-1.1
							c9.4,3,34.8,10.6,39.2,10.6c0.9,0,1.7,0.8,1.7,1.7C1061.9,423.5,1061.1,424.3,1060.2,424.3z"/>
					</g>
					<g>
						<path class="st4" d="M949.1,501.9c-0.8,0-1.6-0.6-1.7-1.5c0-0.1-2-14.5-9.4-32.4c-7.1-17.2-15.4-20.5-15.4-20.5
							c-0.9-0.3-1.3-1.3-1-2.1c0.3-0.9,1.3-1.3,2.1-1c0.4,0.1,9.6,3.6,17.4,22.4c2.9,7.1,5,13.6,6.5,19c-0.1-5.2-0.5-11.2-1.5-16.8
							c-2.7-15.5,5.5-20.5,5.9-20.7c0.8-0.5,1.8-0.2,2.3,0.6c0.5,0.8,0.2,1.8-0.6,2.3c-0.3,0.2-6.5,4.2-4.2,17.2
							c2.5,14.6,1.3,31.3,1.3,32C950.7,501.2,950,501.9,949.1,501.9L949.1,501.9z"/>
					</g>
					<g>
						<path class="st4" d="M941.6,437.5c-0.2,0-0.3,0-0.5-0.1c-0.9-0.3-1.4-1.2-1.2-2.1c5-17.4,10-53.7,10-54c0.1-0.9,1-1.5,1.9-1.4
							c0.9,0.1,1.6,1,1.4,1.9c0,0.4-5.1,36.9-10.1,54.5C943,437,942.3,437.5,941.6,437.5z"/>
					</g>
					<g>
						<g>
							<path class="st2" d="M898.6,314.7c11.3-4.5,13.3-5.7,20.2-8.2c6.9-2.5,13.9-2.5,21.5-1.9c7.6,0.6,18.9,5.7,24,5.7
								s14.5,3.2-2.5,5C944.7,317.2,892.3,317.2,898.6,314.7z"/>
						</g>
						<g>
							<path class="st4" d="M922.4,318.3c-13.5,0-25.3-0.6-25.9-2.8c-0.1-0.4-0.3-1.7,1.5-2.4c5-2,8.2-3.4,10.8-4.4
								c3.3-1.4,5.6-2.4,9.5-3.8c7.5-2.7,15.1-2.6,22.2-2c4,0.3,8.9,1.8,13.6,3.2c4.1,1.3,8.1,2.4,10.3,2.4c0,0,8.7,0.2,8.9,3.8
								c0.1,2.4-2.9,3.6-11.2,4.6C959.2,317.3,939.4,318.3,922.4,318.3z M903.7,314.5c12.1,0.8,44.2,0.7,57.9-0.8
								c3.5-0.4,5.6-0.8,6.8-1.1c-1.2-0.3-2.7-0.6-4.1-0.6c-2.7,0-6.7-1.2-11.3-2.6c-4.3-1.3-9.2-2.8-12.9-3.1
								c-7.7-0.6-14.2-0.6-20.7,1.8c-3.8,1.4-6.1,2.4-9.3,3.7C908.4,312.5,906.3,313.4,903.7,314.5z"/>
						</g>
					</g>
					<g>
						<ellipse class="st1" cx="889.6" cy="208.5" rx="4.7" ry="4"/>
					</g>
					<g>
						<ellipse class="st1" cx="979.5" cy="207.5" rx="4.7" ry="4"/>
					</g>
				</g>
			</g>
			<g>
				<path class="st4" d="M856.7,123.2c-0.6,0-1.1-0.3-1.4-0.8c-0.5-0.8-0.2-1.8,0.6-2.3c0.9-0.5,22.5-13.1,42.2-12.1
					c8.5,0.4,13.4,1.4,17.3,2.1c5.1,1,8.4,1.6,16.4,0.5c4.4-0.6,8.3-1.3,11.9-1.9c8.5-1.5,15.3-2.6,21.9-2.2
					c9.4,0.5,16.6,2.6,16.9,2.6c0.9,0.3,1.4,1.2,1.1,2.1c-0.3,0.9-1.2,1.4-2.1,1.2c0,0-7.2-2-16.1-2.5c-6.3-0.4-12.9,0.8-21.2,2.2
					c-3.7,0.6-7.6,1.3-12,1.9c-8.5,1.2-12.3,0.5-17.5-0.5c-3.8-0.7-8.6-1.6-16.8-2.1c-18.9-1-40.1,11.5-40.3,11.6
					C857.3,123.1,857,123.2,856.7,123.2z"/>
			</g>
			<g>
				<path class="st4" d="M859.3,110.3c-0.8,0-1.5-0.6-1.7-1.4c-0.2-0.9,0.4-1.8,1.4-1.9c0,0,8.8-1.6,21.5-5.6
					c14.4-4.6,24.5-3.4,30.4-1.6c1.1,0.3,2.4,0.8,3.7,1.3c6.8,2.4,16,5.6,24.1,2.4c0.9-0.3,1.8,0.1,2.2,0.9c0.3,0.9-0.1,1.8-0.9,2.2
					c-9.2,3.7-19.6,0.1-26.4-2.3c-1.3-0.5-2.5-0.9-3.6-1.2c-5.5-1.7-14.9-2.8-28.4,1.5c-12.9,4.1-21.5,5.7-21.9,5.7
					C859.5,110.3,859.4,110.3,859.3,110.3z"/>
			</g>
			<g>
				<path class="st4" d="M879,223.9c-2.3,0-4.4-0.2-6.2-0.5c-10.2-2.1-14.1-6-14.3-6.1c-0.7-0.7-0.7-1.7,0-2.4
					c0.7-0.7,1.7-0.7,2.4,0c0,0,3.5,3.3,12.6,5.2c10.1,2.1,27.6-2.9,28.5-5.7c0.3-0.9,1.2-1.3,2.1-1c0.9,0.3,1.3,1.3,1,2.1
					C903.5,220.2,889.4,223.9,879,223.9z"/>
			</g>
			<g>
				<path class="st4" d="M950.1,214.6c0-0.7,1-0.9,1.6-0.8c0.7,0.1,1.2,0.5,1.4,1.1c0,0,2.1,5.2,14.1,6.6c8.7,1,16.6-2.1,20.5-5.6
					c1.5-1.4,1.9-2.3,1.9-2.5c0-0.6-0.2-0.7-0.2-0.7c-0.5-0.4-1.8-0.3-2.4-0.2c-0.9,0.2-1.8-0.4-2-1.3c-0.2-0.9,0.4-1.8,1.3-2
					c0.3-0.1,3.3-0.7,5.2,0.9c0.7,0.5,1.5,1.6,1.5,3.4c0,1.9-1.6,3.8-3,5c-4.5,4-13.4,7.6-23.1,6.5c-7.7-0.9-12-3.3-14.3-5.4
					C950.6,217.5,950.1,215.9,950.1,214.6z"/>
			</g>
		</g>
		<g>
			<g>
				<path class="st2" d="M566.7,384.3c0,0-5.8,62.1-12.2,88.2s-41.8,70.8-63.8,80.6c0,0-11,8.1-11.6-20.3
					c-0.6-28.4,2.9-74.8,2.9-74.8s-2.3-3.5,2.3-13.9c4.6-10.4,14.5-41.2,22-54c7.5-12.8,0-13.9,10.4-13.9
					C527.3,376.2,533.1,390.1,566.7,384.3z"/>
			</g>
			<g>
				<path class="st2" d="M348,393.6c0,0,28.4-2.9,28.4-4.6c0-1.7-5.8-4.1,5.8-9.9c11.6-5.8,20.9-9.9,20.9-9.9s-7-8.1,2.3,24.4
					c9.3,32.5,22,55.1,22,55.1s10.4,20.9,9.3,30.7c-1.2,9.9,4.6,27.3,2.9,51.1c-1.7,23.8,0.6,26.1-29.6,10.4
					c-30.2-15.7-51.6-66.1-56.3-92.2C349.2,422.6,348,393.6,348,393.6z"/>
			</g>
			<g>
				<path class="st3" d="M437,82c0,0-11.6-23.2-46.4-12.8c0,0-34.4,1.9-73.5,94.8c-39.1,92.8,40.6,142.3,40.6,142.3l23.6,9.3
					c0,0,23.2,14.3,14.3,6.6c-8.9-7.7-23.6-17.8-28.2-39.1c-4.6-21.3-3.1-77.4,3.1-93.2s27.5-31.7,31.3-34.8
					c3.9-3.1,28.2-16.2,34.8-29.8c6.6-13.5,5.8-20,5.8-20s13.6,23.5,34.5,41.7c20.9,18.2,47.6,40.6,54.1,73.1
					c6.6,32.5-2.7,70.4-15.1,83.5c-12.4,13.2,2.3,3.5,2.3,3.5s-1.2,10.1,19.7-1.5c20.9-11.6,12.4-7.7,12.4-7.7s-1.5,7,9.3,0
					c10.8-7,35.6-43.7,26.3-87.8c-9.3-44.1-22.4-87-55.7-111.4c-33.3-24.4-61.5-35.2-78.1-26.3S437,82,437,82z"/>
			</g>
			<g>
				<path class="st8" d="M442,109.9c0,0,10.4,4.4-16.5,35.1c-27,30.7-49.6,27.8-53.7,65.6c-4.1,37.7,9,59.5,20.6,71.7
					c11.6,12.2,22.3,22.9,24.4,27.8c2,4.9,7.3,28.4,4.1,50.5c-3.2,22-14.8,30.2-14.8,30.2s10.7,31.9,18.6,42.4
					c7.8,10.4,12.8,21.5,13.3,43.8c0.6,22.3,2,27.8,2,27.8s4.4,10.2,14.8,10.2c10.4,0,24.4,2.3,24.1-7.3c-0.3-9.6-4.4-45-4.4-51.3
					s11.9-38.6,16.2-53.1c4.4-14.5,4.4-8.1-2.3-35.4c-6.7-27.3-0.3-61.5-0.3-61.5s25.2-33.6,27.8-57.7c2.6-24.1-0.6-54.5-0.6-54.5
					s-10.4-17.7-22.6-26.1c-12.2-8.4-26.7-24.1-33.9-28.7C451.6,134.5,442,109.9,442,109.9z"/>
			</g>
			<g>
				<path class="st1" d="M488.1,205.3c0,0-33.4,2.6-15.1,9.6c18.3,7,30.5-5.8,23.2-8.1C489,204.4,488.1,205.3,488.1,205.3z"/>
			</g>
			<g>
				<path class="st1" d="M422.3,207.9c0,0-39.2,0.3-22,9.3c17.1,9,26.7-4.6,26.7-4.6S427.8,208.8,422.3,207.9z"/>
			</g>
			<g>
				<g>
					<path class="st4" d="M454.7,330.1c-6.8,0-13.8-1.6-19.6-4.9c-7.2-4-13.3-9.7-19.2-15.3c-2.4-2.3-4.8-4.5-7.3-6.7
						c-8.3-7.2-14.9-13.4-20.7-20.8c-18.7-24-22-53.8-23.6-80c-0.1-0.9,0.6-1.6,1.5-1.7c0.9-0.1,1.6,0.6,1.7,1.5
						c1.6,25.6,4.8,54.9,22.9,78.2c5.6,7.2,12.2,13.4,20.3,20.4c2.5,2.2,4.9,4.5,7.4,6.8c5.7,5.4,11.6,11,18.5,14.8
						c10,5.6,24.2,6,33.7,0.9c6.1-3.3,11.1-9.8,15.9-16.1c1.8-2.4,3.6-4.7,5.4-6.8c18.9-21.8,28.9-43.3,30.6-65.6
						c1.2-15.1,0.1-30.4-2-48.8l-0.2-2c-1.2-10.5-2.3-21.4-6.1-31c-0.3-0.8,0.1-1.7,0.9-2.1c0.8-0.3,1.7,0.1,2.1,0.9
						c3.9,10,5.1,21.1,6.3,31.8l0.2,2c2,18.5,3.2,34,2,49.4c-1.8,23-12,45.1-31.4,67.5c-1.8,2-3.5,4.3-5.3,6.7
						c-5,6.5-10.2,13.3-16.9,16.9C466.8,328.8,460.8,330.1,454.7,330.1z"/>
				</g>
				<g>
					<path class="st4" d="M403,329.4c-0.3,0-0.6-0.1-0.8-0.2c-0.4-0.3-11-6.7-22.7-24.3c-11.6-17.4-14.4-42.1-10.4-91.1
						c3.1-38.5,20.6-51.3,39.1-64.7c4.7-3.4,9.5-6.9,14.2-10.9c22-18.8,18.5-32.2,18.4-32.3c-0.2-0.8,0.2-1.7,1.1-2
						c0.8-0.2,1.7,0.2,2,1.1c0.2,0.6,4.4,15.4-19.4,35.7c-4.8,4.1-9.7,7.7-14.4,11.1c-18.7,13.6-34.8,25.3-37.8,62.4
						c-3.9,48.2-1.2,72.4,9.9,89.1c11.3,16.9,21.6,23.3,21.7,23.3c0.8,0.5,1,1.4,0.5,2.2C404,329.2,403.5,329.4,403,329.4z"/>
				</g>
				<g>
					<path class="st4" d="M403.1,329.4c-0.1,0-0.3,0-0.5-0.1c-1.3-0.4-31.9-9.8-48.9-44.4c-17-34.4-18.4-66.2-4.4-100.1
						c10.1-24.5,38.6-39.4,57.4-49.3c6.9-3.6,13-6.8,16.2-9.4c12.1-9.7,15.9-23.9,15.9-24c0.2-0.8,1.1-1.4,1.9-1.1
						c0.9,0.2,1.4,1.1,1.1,1.9c-0.2,0.6-4.2,15.3-17,25.7c-3.5,2.9-9.7,6.1-16.8,9.8c-18.4,9.6-46.3,24.2-55.9,47.7
						c-13.6,33-12.2,64,4.3,97.5c16.4,33.3,46.7,42.7,47,42.8c0.8,0.3,1.3,1.1,1.1,2C404.4,328.9,403.8,329.4,403.1,329.4z"/>
				</g>
				<g>
					<path class="st4" d="M375.9,317.3c-0.2,0-0.5,0-0.7-0.2c-3.3-1.6-6.5-3.4-9.6-5.4c-0.1,0-0.2,0-0.3-0.1
						c-38.1-11.9-66.3-64.2-62.8-98.8c3.9-37.4,17.7-76,38.8-108.5c14.4-22.2,40.5-39.1,64.9-42c11.5-1.4,22,2.7,28.3,10.4
						c0.9,0.4,2.2,1.9,4.3,7.6l0,0l0,0l0,0l0,0l0,0l0,0c0.1,0.2,0.1,0.5,0.1,0.8l0,0l0,0l0,0l0,0l0,0l0,0l0,0c0,0.2-0.1,0.4-0.2,0.5
						l0,0l0,0l0,0l0,0c-0.1,0.2-0.3,0.3-0.4,0.5l-0.1,0l0,0l0,0l0,0l0,0l0,0l0,0l0,0l-0.1,0l0,0l0,0c-0.2,0.1-0.5,0.2-0.8,0.2h0
						c-0.1,0-0.3,0-0.4-0.1l0,0l0,0l0,0l0,0c-0.1,0-0.3-0.1-0.4-0.2l0,0l0,0l0,0c-9.7-6.5-17.6-7.6-23.4-3.3
						c-10.5,9.6-20.3,18.9-29.9,27.9c-9.5,9.1-19.4,18.4-30.1,28.2c-28.9,27-30.4,71.5-28.5,107.2c3.7,29.9,24.6,58.9,51.9,72.1
						c0.8,0.4,1.1,1.3,0.7,2.1C377.1,316.9,376.5,317.3,375.9,317.3z M410.6,65.1c-1.3,0-2.6,0.1-3.9,0.2
						c-23.5,2.9-48.7,19.2-62.7,40.6c-20.9,32.1-34.5,70.2-38.3,107.1c-3.1,30,18.5,73.8,49.6,90.7c-18-15.6-30.8-38.2-33.7-61.4
						c-1.9-36.6-0.3-82,29.6-109.9c10.7-9.7,20.5-19.1,30.1-28.1c9.5-9,19.4-18.4,30-28.1c5.7-4.3,12.7-4.4,21-0.5
						c-0.1-0.5-0.2-1-0.2-1.5C426.7,68,418.4,65.1,410.6,65.1z"/>
				</g>
				<g>
					<path class="st4" d="M404,378.8c-0.6,0-1.2-0.4-1.5-1c-0.3-0.8,0-1.7,0.8-2.1l0.7-0.3c3.7-1.4,11.3-4.4,10.4-29.2
						c-0.9-27.1-6.6-43.9-6.7-44.1c-0.3-0.8,0.2-1.7,1-2c0.8-0.3,1.7,0.2,2,1c0.2,0.7,5.9,17.5,6.9,45c0.9,27-8.4,30.7-12.4,32.3
						l-0.7,0.3C404.5,378.7,404.3,378.8,404,378.8z"/>
				</g>
				<g>
					<path class="st4" d="M405.6,477.9c-0.5,0-1-0.2-1.4-0.7c-0.8-1.1-0.2-2.4,1.4-4c-0.6-2.1-2.7-8.4-8.7-17
						c-12.3-17.7-18.9-32.4-19.7-43.9c-1-14.6-4.4-30.7-5.2-32.3c-0.3-0.6-0.3-1.3-0.1-1.9c0.7-1.9,3.8-3.2,9.7-5.5
						c1.7-0.7,3.5-1.4,5.2-2.1c1.4-0.6,2.8-1.5,4.1-2.4c2.8-1.9,5.6-3.9,9.1-3.1c3,0.7,5.8,3.4,8.7,8.6c0.4,0.7,0.2,1.5-0.4,2
						c-0.6,0.5-1.4,0.5-2,0c-1.7-1.4-3.9-2.7-4.8-2.8c0,0.1,0,0.4,0.1,0.8c0.9,6.1,3.3,12.3,8.6,25.8c2,5.1,6.3,14.1,10.9,23.7
						c9.1,19.1,15.6,32.9,15.9,37.3c0,0.7-0.4,1.4-1.1,1.6c-0.7,0.2-1.4,0-1.8-0.6c0,0-1.3-1.9-3.7-2.3c-2.1-0.4-4.5,0.4-7.1,2.3
						c-4.7,3.4-7.3,6.9-9.5,9.8c-1.9,2.5-3.4,4.6-5.7,5.8C407.5,477.3,406.5,477.9,405.6,477.9z M375.2,379c1.3,3.6,4.3,19.1,5.3,33
						c0.7,10.9,7.2,25.1,19.1,42.3c6.4,9.2,8.6,15.8,9.2,18.1c0.8-0.9,1.6-2,2.6-3.2c2.3-3,5.1-6.8,10.2-10.5
						c3.4-2.4,6.6-3.4,9.6-2.8c0.6,0.1,1.2,0.3,1.7,0.5c-2.6-7.2-9-20.7-14.4-32c-4.6-9.6-8.9-18.6-11-23.9
						c-5.4-13.7-7.8-20.1-8.8-26.5c-0.3-2,0.1-3.4,1.4-4.1c0.6-0.3,1.3-0.4,2.1-0.3c-0.9-0.9-1.8-1.4-2.6-1.6
						c-2.1-0.5-4.1,0.9-6.5,2.6c-1.5,1-3,2-4.6,2.7c-1.7,0.7-3.6,1.5-5.3,2.1C380,376.6,376.2,378.1,375.2,379z"/>
				</g>
				<g>
					<path class="st4" d="M442.3,574c-0.8,0-1.4-0.5-1.6-1.3c-0.1-0.3-5.8-34.4-3.4-59.5c2.4-24.7-3.3-52-3.4-52.3
						c-0.2-0.9,0.4-1.7,1.2-1.9c0.8-0.2,1.7,0.4,1.9,1.2c0.1,0.3,5.8,28.1,3.4,53.3c-2.4,24.7,3.3,58.3,3.4,58.7
						c0.1,0.9-0.4,1.7-1.3,1.8C442.5,574,442.4,574,442.3,574z"/>
				</g>
				<g>
					<path class="st4" d="M504.5,376.7c-0.2,0-0.3,0-0.5-0.1l-0.7-0.2c-4.1-1.3-13.7-4.2-14.8-31.2c-1.1-27.5,3.3-44.7,3.4-45.4
						c0.2-0.8,1.1-1.4,1.9-1.1c0.9,0.2,1.4,1.1,1.1,1.9c0,0.2-4.4,17.5-3.3,44.5c1,24.8,8.8,27.2,12.6,28.3l0.8,0.2
						c0.8,0.3,1.3,1.2,1,2C505.8,376.3,505.2,376.7,504.5,376.7z"/>
				</g>
				<g>
					<path class="st4" d="M507.7,474.6c-0.3,0-0.6-0.1-0.8-0.2c-1.8-1.1-3.3-2.8-5.1-4.8c-2.4-2.7-5.3-6-10.2-9
						c-2.8-1.7-5.2-2.3-7.3-1.7c-2.4,0.6-3.5,2.6-3.5,2.6c-0.4,0.6-1.1,0.9-1.8,0.8c-0.7-0.2-1.2-0.8-1.2-1.5
						c0-4.5,5.4-18.7,13-38.4c3.8-9.9,7.4-19.2,9.1-24.4c3.8-12.4,4-15.4,4.4-20.4l0.1-1.8c0.1-1.5-0.2-2-0.3-2.2
						c-0.4-0.3-1.7,0.1-2.3,0.5c-0.6,0.3-1.3,0.3-1.8-0.2c-0.5-0.4-0.7-1.2-0.4-1.8c3.3-8.3,12.4-5,19-2.6c0.9,0.3,1.8,0.7,2.6,0.9
						c3.2,1.1,6.8,1.3,9.6,1.5c3.2,0.2,5,0.3,5.8,1.6c0.4,0.6,0.4,1.3,0.1,1.9c-0.7,1.7-2.8,18-2.7,32.6
						c0.1,11.5-5.4,26.8-16.3,45.3c-3.6,6.1-5.5,10.9-6.4,13.9l-0.1,0.2c-0.9,1.9-1.5,3.9-1.8,5.9c-0.1,0.5-0.4,1-0.9,1.2
						C508.1,474.5,507.9,474.6,507.7,474.6z M485.9,455.4c2.3,0,4.8,0.8,7.4,2.4c5.3,3.2,8.4,6.8,10.9,9.6c0.9,1,1.7,1.9,2.5,2.7
						c0.4-1.4,0.9-2.8,1.5-4.1c1-3.1,3-8.2,6.7-14.4c10.6-18,15.9-32.7,15.8-43.6c-0.1-13.3,1.6-28.3,2.6-32.8
						c-0.7-0.1-1.9-0.2-2.9-0.3c-2.9-0.2-6.8-0.5-10.4-1.7c-0.9-0.3-1.8-0.6-2.7-1c-5.4-2-9.7-3.3-12.5-2c0.3,0.1,0.6,0.2,0.9,0.4
						c1.4,0.9,2,2.6,1.8,5.1l-0.1,1.8c-0.4,5.2-0.6,8.4-4.5,21.1c-1.7,5.4-5.3,14.8-9.1,24.7c-4.5,11.7-9.9,25.6-12,33
						c0.5-0.2,1-0.5,1.6-0.6C484.2,455.5,485,455.4,485.9,455.4z M509.7,466.7L509.7,466.7L509.7,466.7z"/>
				</g>
				<g>
					<path class="st4" d="M482.9,575.3c-0.5,0-1-0.1-1.4-0.4c-2.5-1.7-2.8-7.3-3.9-33.5c-1-25,0.2-80.3,0.2-80.8
						c0-0.9,0.7-1.6,1.6-1.6l0,0c0.9,0,1.6,0.7,1.6,1.6c0,0.6-1.2,55.7-0.2,80.6c0.7,17.2,1.1,28.8,2.3,30.8c0.8,0,1.5,0.4,1.7,1.1
						c0.3,0.8-0.1,1.7-0.9,1.9C483.6,575.2,483.2,575.3,482.9,575.3z"/>
				</g>
				<g>
					<path class="st4" d="M466.8,517c-15.9,0-28.1-9-28.3-9.2c-0.7-0.5-0.8-1.5-0.3-2.2c0.5-0.7,1.5-0.8,2.2-0.3
						c1,0.8,25.1,18.4,49,1c0.7-0.5,1.7-0.4,2.2,0.3c0.5,0.7,0.4,1.7-0.3,2.2C482.8,514.9,474.4,517,466.8,517z"/>
				</g>
				<g>
					<path class="st4" d="M549.6,303.3c-0.7,0-1.4-0.5-1.5-1.2c-0.2-0.9,0.3-1.7,1.1-1.9c29.5-7.8,35.9-43.1,39.8-64.3
						c2.9-16.1-0.9-46-9.6-76.5c-0.9-1.7-1.9-4.2-2.9-6.6c-0.9-2.4-1.9-4.8-2.9-6.7c-24.7-42.7-57.2-70.5-93.9-80.6
						c-9.1-2-31.3-4.5-40.8,15.9c-0.4,0.8-1.3,1.2-2.1,0.8c-0.8-0.4-1.1-1.3-0.8-2.1c7.3-15.6,23.9-22.2,44.5-17.6
						c37.6,10.3,70.8,38.7,96,82.1c1,2.1,2,4.6,3,7c0.9,2.4,1.9,4.8,2.9,6.7c6.8,23.8,13.4,58.2,9.8,77.9
						c-4,22.2-10.7,58.9-42.2,67.1C549.8,303.3,549.7,303.3,549.6,303.3z"/>
				</g>
				<g>
					<path class="st4" d="M529.5,311.4c-0.6,0-1.3-0.4-1.5-1c-0.3-0.8,0.1-1.7,0.9-2c19.3-7.3,31-21,35.9-42.1
						c2.6-11.2,4-25,4.2-42.2c0.3-22-5.2-40.2-17.9-58.9c-13.9-20.5-32.5-36.4-50.4-51.9c-9.5-8.2-19.4-16.6-28.5-25.7
						c-0.6-0.6-0.6-1.6,0-2.3c0.6-0.6,1.6-0.6,2.3,0c9.1,9,18.9,17.4,28.4,25.6c18.1,15.6,36.9,31.7,51,52.5
						c13,19.3,18.7,38,18.4,60.7c-0.2,17.4-1.6,31.4-4.3,42.8c-5.1,22.2-17.5,36.7-37.9,44.3C529.9,311.4,529.7,311.4,529.5,311.4z"
						/>
				</g>
				<g>
					<path class="st4" d="M501.7,317.2c-0.7,0-1.4-0.5-1.6-1.3c-0.2-0.9,0.4-1.7,1.2-1.9c9.6-2,26.7-14.3,32.9-34.5
						c12.9-41.6,2.4-89-26.7-120.8c-8.1-8.8-19-15.2-29.5-21.5c-15.4-9.1-31.3-18.5-39.2-35.5c-0.4-0.8,0-1.7,0.8-2.1
						c0.8-0.4,1.7,0,2.1,0.8c7.4,16.1,22.2,24.9,37.9,34.1c10.7,6.3,21.8,12.9,30.2,22.1c29.9,32.7,40.6,81.3,27.4,123.9
						c-6.7,21.7-24.7,34.5-35.4,36.7C501.9,317.2,501.8,317.2,501.7,317.2z"/>
				</g>
				<g>
					<path class="st4" d="M451.5,265.9c-2.2,0-3.8-0.7-5.1-1.3c-1.8-0.8-2.8-1.1-4.3-0.4c-2.3,1.1-3.6,0.6-4.4,0
						c-1.6-1.3-1.7-4.1-0.3-8.7c0.2-0.8,0.5-1.6,0.9-2.5c1.9-5,4.7-12.5,1.9-30.2c-3.2-20.1-10.6-25.2-10.7-25.2
						c-0.7-0.5-0.9-1.5-0.5-2.2c0.5-0.7,1.4-1,2.2-0.5c0.4,0.2,8.7,5.7,12.2,27.4c2.9,18.5-0.2,26.8-2.1,31.8
						c-0.3,0.9-0.6,1.6-0.8,2.3c-1,3.4-0.9,4.9-0.7,5.3c0,0,0.4-0.1,0.9-0.4c2.9-1.5,5.1-0.5,7,0.3c1.2,0.5,2.4,1,3.9,1
						c1.6,0,2.4-0.5,3.3-1c1.2-0.7,2.6-1.6,5.3-0.9c1.2,0.3,1.9-0.1,2.1-0.5c0.3-0.6-0.1-1.3-1-2c-0.7-0.5-0.9-1.5-0.4-2.2
						c0.5-0.7,1.5-0.9,2.2-0.4c2.5,1.8,2.8,4.2,2,5.9c-0.8,1.7-2.8,3-5.8,2.3c-1.4-0.3-1.9-0.1-2.9,0.5
						C455.4,265.1,454,265.9,451.5,265.9z"/>
				</g>
				<g>
					<path class="st4" d="M431.9,200.1c0,0-7-5.6-20.2-3.4c-14.8,2.4-25,6.6-27.2,9.5c0,0,4.9-8.2,14.8-12.1
						C409.2,190.2,437.4,185.6,431.9,200.1z"/>
				</g>
				<g>
					<path class="st4" d="M463,197.2c0,0,7-5.6,20.2-3.4c14.8,2.4,25,6.6,27.2,9.5c0,0-4.9-8.2-14.8-12.1
						C485.8,187.3,457.5,182.7,463,197.2z"/>
				</g>
				<g>
					<path class="st4" d="M465.3,212.9c-0.4,0-0.8-0.2-1.1-0.5c-0.6-0.6-0.6-1.6,0-2.3c2.3-2.3,19.1-12.7,37.9-3.2
						c0.8,0.4,1.1,1.4,0.7,2.1c-0.4,0.8-1.4,1.1-2.1,0.7c-17.1-8.7-32.5,0.9-34.2,2.6C466.1,212.7,465.7,212.9,465.3,212.9z"/>
				</g>
				<g>
					<path class="st4" d="M482.5,218.8c-2.9,0-5.6-0.4-7.6-1.2c-8.3-3.2-8.5-7.3-8.5-7.8c0-0.9,0.7-1.6,1.6-1.6
						c0.9,0,1.5,0.7,1.6,1.5c0,0.2,0.6,2.6,6.5,4.9c5.1,2,14.4,0.9,18.8-2.2c1.7-1.2,2.6-2.7,2.6-4.2c0-0.9,0.7-1.6,1.5-1.6
						c1,0,1.6,0.7,1.6,1.5c0.1,2.7-1.3,5.1-3.9,6.9C493,217.6,487.5,218.8,482.5,218.8z M469.6,209.8L469.6,209.8L469.6,209.8z"/>
				</g>
				<g>
					<path class="st4" d="M477.9,205.7c0,0-6.1,3.6-0.5,9c5.6,5.3,12.6,0.5,12.4-4.1C489.5,206,486.2,203.3,477.9,205.7z"/>
				</g>
				<g>
					<path class="st4" d="M393.7,215.8c-0.4,0-0.8-0.2-1.1-0.5c-0.6-0.6-0.6-1.6,0-2.3c2.3-2.3,19.1-12.7,37.9-3.2
						c0.8,0.4,1.1,1.4,0.7,2.1c-0.4,0.8-1.4,1.1-2.1,0.7c-17.1-8.7-32.5,0.9-34.2,2.6C394.5,215.6,394.1,215.8,393.7,215.8z"/>
				</g>
				<g>
					<path class="st4" d="M410.8,221.7c-2.8,0-5.4-0.4-7.5-1.2c-8.3-3.2-8.5-7.3-8.5-7.8c0-0.9,0.7-1.6,1.6-1.6
						c0.9,0,1.5,0.7,1.6,1.5c0,0.2,0.6,2.6,6.5,4.9c5.1,2,14.4,0.9,18.8-2.2c1.7-1.2,2.6-2.7,2.6-4.2c0-0.9,0.7-1.6,1.5-1.6
						c0.9,0,1.6,0.7,1.6,1.5c0.1,2.7-1.3,5.1-3.9,6.9C421.6,220.3,416,221.7,410.8,221.7z M397.9,212.7L397.9,212.7L397.9,212.7z"/>
				</g>
				<g>
					<path class="st4" d="M406.3,208.6c0,0-6.1,3.6-0.5,9c5.6,5.3,12.6,0.5,12.4-4.1C417.9,208.8,414.5,206.2,406.3,208.6z"/>
				</g>
				<g>
					<g>
						<path class="st5" d="M434.2,283.9c0,0-5.1-0.7-3.3,2c1.8,2.8,5.8,6.6,11.6,8.8c5.7,2.2,20.3,1.3,23.9-2.9c3.6-4.2,5-8.8,5-8.8
							L434.2,283.9z"/>
					</g>
					<g>
						<path class="st4" d="M451,297.5c-3.6,0-6.9-0.4-9.1-1.3c-6.1-2.3-10.3-6.4-12.3-9.4c-1-1.5-0.6-2.7-0.3-3.2
							c1-1.6,3.5-1.5,5-1.3l37-1c0.5,0,1,0.2,1.3,0.6c0.3,0.4,0.4,0.9,0.3,1.4c-0.1,0.2-1.5,5-5.3,9.4
							C464.8,296,457.5,297.5,451,297.5z M432.5,285.4c1.9,2.6,5.6,5.9,10.5,7.8c5.4,2.1,19.1,1,22.1-2.5c1.9-2.2,3.1-4.5,3.8-6.1
							l-34.7,0.9c-0.1,0-0.2,0-0.3,0C433.5,285.4,433,285.4,432.5,285.4z"/>
					</g>
				</g>
				<g>
					<path class="st4" d="M446.7,279.7c-0.2,0-0.4,0-0.6-0.1c-0.8-0.3-1.2-1.3-0.9-2.1c2-4.9,1.1-13.3,1.1-13.3
						c-0.1-0.9,0.5-1.7,1.4-1.7c0.9-0.1,1.7,0.5,1.7,1.4c0,0.4,0.9,9.2-1.4,14.8C447.9,279.3,447.3,279.7,446.7,279.7z"/>
				</g>
				<g>
					<path class="st4" d="M454.4,279.5c-0.5,0-1-0.2-1.3-0.7c-1.2-1.8-1.2-5.1-1.2-5.7c0-0.9,0.7-1.6,1.6-1.6l0,0
						c0.9,0,1.6,0.7,1.6,1.6c0,1.2,0.2,3.2,0.7,4c0.5,0.7,0.3,1.7-0.4,2.2C455,279.4,454.7,279.5,454.4,279.5z"/>
				</g>
				<g>
					<path class="st4" d="M500.9,317.5c-0.6,0-1.2-0.3-1.5-0.9c-0.4-0.8,0-1.7,0.8-2.1c20.3-9.1,30-43.4,30.5-58.9
						c0.5-14.8,0.9-27.4-7.6-47c-8.8-20.4-36.1-45.9-56.7-61.6c-22.7-17.3-22-36.2-21.9-37c0-0.9,0.8-1.5,1.7-1.5
						c0.9,0,1.6,0.8,1.5,1.7c0,0.2-0.6,18.1,20.7,34.3c21.9,16.7,48.6,42,57.7,62.9c8.8,20.3,8.4,33.2,7.9,48.1
						c-0.4,13.1-8.9,51.4-32.4,62C501.4,317.5,501.2,317.5,500.9,317.5z"/>
				</g>
				<g>
					<g>
						<path class="st5" d="M430.6,283c4.3-1.1,7.9-2.1,10.6-3.6c2.7-1.6,4.4-1.5,7.1-0.6c2.6,0.8,3.8,0.7,5.6-0.2
							c1.7-0.9,2-1.4,6.8,0.3c4.8,1.7,7.9,3,10.8,2.9c2.9-0.1,6.5,1-3.7,2.3c-10.2,1.2-11,1.7-15.1,2c-3.9,0.3-11.2,0.5-16-0.2
							C431.7,285,421.5,285.3,430.6,283z"/>
					</g>
					<g>
						<path class="st4" d="M445.2,287.8c-3,0-6.2-0.1-8.9-0.5c-1.2-0.2-2.8-0.3-4.3-0.4c-4.6-0.3-6.5-0.5-6.7-2.3
							c-0.1-1.7,1.7-2.3,4.8-3.1c4.6-1.1,7.8-2.1,10.2-3.5c3.3-1.9,5.4-1.7,8.3-0.8c2.3,0.7,3.1,0.5,4.4-0.1c2.4-1.3,3.6-1.3,8,0.2
							l2.3,0.8c3.3,1.2,5.7,2.1,7.9,2c2.1-0.1,4.6,0.2,4.7,2.1c0.1,1.8-1.6,2.6-8.2,3.4c-5.2,0.6-7.9,1-9.9,1.3
							c-2,0.3-3.2,0.5-5.3,0.6C451,287.7,448.2,287.8,445.2,287.8z M433.8,283.8c1.1,0.1,2.1,0.2,2.9,0.3c4.7,0.7,11.9,0.5,15.6,0.2
							c2-0.2,3.2-0.3,5.1-0.6c1.9-0.3,4.4-0.7,9-1.2c-1.2-0.4-2.6-0.9-4-1.4l-2.3-0.8c-3.8-1.3-4.1-1.2-5.1-0.6l-0.4,0.2
							c-2.3,1.2-4,1.2-6.8,0.3c-2.3-0.7-3.5-0.8-5.8,0.5C439.7,282.1,436.8,283,433.8,283.8z"/>
					</g>
				</g>
				<g>
					<path class="st4" d="M444,263.5c-0.2,0-0.3,0-0.5-0.1c-0.8-0.3-1.3-1.1-1.1-2c0-0.1,3.7-12.5,1.2-29.8
						c-2.6-17.3-8.2-26-8.2-26.1c-0.5-0.7-0.3-1.7,0.5-2.2c0.7-0.5,1.7-0.3,2.2,0.5c0.2,0.4,6,9.3,8.7,27.4
						c2.7,18.1-1.1,30.7-1.3,31.2C445.4,263,444.7,263.5,444,263.5z"/>
				</g>
				<g>
					<path class="st1" d="M418.4,216.1c0,1.6-1.3,2.9-2.9,2.9c-1.6,0-2.9-1.3-2.9-2.9c0-1.6,1.3-2.9,2.9-2.9
						C417.1,213.2,418.4,214.5,418.4,216.1z"/>
				</g>
				<g>
					<path class="st1" d="M488.9,213c0,1.6-1.3,2.9-2.9,2.9c-1.6,0-2.9-1.3-2.9-2.9c0-1.6,1.3-2.9,2.9-2.9
						C487.6,210.1,488.9,211.4,488.9,213z"/>
				</g>
				<g>
					<path class="st4" d="M343.5,396c-0.7,0-1.3-0.4-1.5-1.1c-0.3-0.8,0.2-1.7,1.1-2c16.5-5.1,30.4-10.6,30.6-10.6
						c0.8-0.3,1.7,0.1,2.1,0.9c0.3,0.8-0.1,1.7-0.9,2.1c-0.1,0.1-14.1,5.6-30.8,10.7C343.8,395.9,343.7,396,343.5,396z"/>
				</g>
				<g>
					<path class="st4" d="M567.3,385.5c-13,0-32.3-4.2-33.2-4.4c-0.9-0.2-1.4-1-1.2-1.9c0.2-0.9,1-1.4,1.9-1.2
						c0.2,0.1,24.7,5.4,36.6,4.2c0.9-0.1,1.7,0.5,1.8,1.4c0.1,0.9-0.5,1.7-1.4,1.8C570.3,385.4,568.9,385.5,567.3,385.5z"/>
				</g>
			</g>
		</g>
	</g>
</g>
<g id="Artboard_type">
</g>
<g id="RULERS">
</g>
</svg>
