<?xml version="1.0" encoding="utf-8"?>
<!-- Generator: Adobe Illustrator 24.3.0, SVG Export Plug-In . SVG Version: 6.00 Build 0)  -->
<svg version="1.1" xmlns="http://www.w3.org/2000/svg" xmlns:xlink="http://www.w3.org/1999/xlink" x="0px" y="0px"
	 viewBox="0 0 1142.9 623.4" style="enable-background:new 0 0 1142.9 623.4;" xml:space="preserve">
<style type="text/css">
	.st0{fill:#FDEFCC;}
	.st1{fill:#FFFFFF;}
	.st2{fill:#FFD1C2;}
	.st3{fill:#853C2B;}
	.st4{fill:#1C2021;}
	.st5{fill:#F78271;}
	.st6{fill:#D69241;}
	.st7{fill:#6CBFAD;}
	.st8{fill:#FECA9A;}
	.st9{fill:#F1748A;}
	.st10{fill:#257BA0;}
	.st11{fill:#FBB87B;}
	.st12{fill:#FCD570;}
	.st13{fill:#F17389;}
	.st14{fill:none;stroke:#1C2021;stroke-width:2.7296;stroke-miterlimit:10;}
	.st15{clip-path:url(#SVGID_2_);}
	.st16{clip-path:url(#SVGID_4_);}
	.st17{clip-path:url(#SVGID_6_);}
	.st18{fill:none;stroke:#1C2021;stroke-width:1.4616;stroke-miterlimit:10;}
	.st19{clip-path:url(#SVGID_8_);}
	.st20{clip-path:url(#SVGID_10_);}
	.st21{clip-path:url(#SVGID_12_);}
	.st22{clip-path:url(#SVGID_14_);}
	.st23{clip-path:url(#SVGID_16_);}
	.st24{clip-path:url(#SVGID_18_);}
	.st25{clip-path:url(#SVGID_20_);}
	.st26{clip-path:url(#SVGID_22_);}
	.st27{fill:none;stroke:#1C2021;stroke-width:3.8694;stroke-miterlimit:10;}
	.st28{clip-path:url(#SVGID_24_);}
	.st29{clip-path:url(#SVGID_26_);}
	.st30{clip-path:url(#SVGID_28_);}
	.st31{clip-path:url(#SVGID_30_);}
	.st32{clip-path:url(#SVGID_32_);}
	.st33{clip-path:url(#SVGID_34_);}
	.st34{clip-path:url(#SVGID_36_);}
	.st35{clip-path:url(#SVGID_38_);}
	.st36{clip-path:url(#SVGID_40_);}
	.st37{clip-path:url(#SVGID_42_);}
	.st38{fill:none;stroke:#1C2021;stroke-width:2.1527;stroke-miterlimit:10;}
	.st39{fill:none;stroke:#1C2021;stroke-width:1.596;stroke-miterlimit:10;}
	.st40{fill:none;stroke:#FDEFCC;stroke-miterlimit:10;}
	.st41{fill:none;stroke:#1C2021;stroke-width:2.9956;stroke-miterlimit:10;}
	.st42{fill:none;stroke:#1C2021;stroke-width:1.9216;stroke-miterlimit:10;}
	.st43{clip-path:url(#SVGID_44_);fill:#1C2021;}
	.st44{clip-path:url(#SVGID_44_);}
	.st45{fill:#FFB260;}
	.st46{fill:#FFEEDA;}
	.st47{fill:#0094B9;}
	.st48{clip-path:url(#SVGID_46_);}
	.st49{clip-path:url(#SVGID_46_);fill:#FFD1C2;}
	.st50{clip-path:url(#SVGID_46_);fill:#F78271;}
	.st51{clip-path:url(#SVGID_48_);fill:#1C2021;}
	.st52{clip-path:url(#SVGID_48_);}
	.st53{clip-path:url(#SVGID_50_);}
	.st54{clip-path:url(#SVGID_50_);fill:#FFD1C2;}
	.st55{clip-path:url(#SVGID_50_);fill:#F78271;}
	.st56{fill:none;stroke:#1C2021;stroke-width:1.6065;stroke-miterlimit:10;}
	.st57{fill:none;stroke:#1C2021;stroke-width:8;stroke-miterlimit:10;}
	.st58{fill:none;stroke:#FDD56F;stroke-width:0.8835;stroke-miterlimit:10;}
</style>
<g id="Fondo">
</g>
<g id="Imagenes">
</g>
<g id="Tipografia">
	<g>
		<g>
			<g>
				<g>
					<g>
						<path class="st8" d="M126.2,319.9c0,0,6.2,45.5-4.1,75c-10.3,29.5,51.2,45,51.2,45l41.4,77.4l23.8-71.2l33.6-52.8
							c0,0-8.8-4.7-11.9-31.6C257,334.9,126.2,319.9,126.2,319.9z"/>
					</g>
				</g>
				<g>
					<g>
						<path class="st1" d="M191.9,426c-14-1.5-51.1-15.4-72.4-31.1L3.4,431.6l34.5,188.3c36.7,10.9,333.1-25.9,336.7-34.1
							c3.6-8.3,15-54.8,15-77.6c0-13.3-4.1-88.4-4.1-88.4c-20.2-19.1-91.8-21.6-108.3-21.3l-31.6,31.1
							C231.9,438.1,206.9,427.7,191.9,426z"/>
					</g>
				</g>
				<g>
					<g>
						<path class="st8" d="M134.7,84.1c0,0-45,11.9-45,63.1s3.1,61.6,3.1,61.6s-21.2-25.3-20.7-4.7c0.5,20.7,12.9,45,26.9,60
							s19.1,25.9,20.2,37.2c1,11.4,12.9,32.1,12.9,32.1l83.8,2.6c0,0,53.3-10.3,49.7-12.4c-3.6-2.1-1.6-32.1,0-41.4
							c1.6-9.3,10.3-0.5,17.6-17.6c7.2-17.1,30-75.5,20.7-77.6c-9.3-2.1-19.1,7.8-19.1,7.8s23.3-40.9,16.6-51.7
							c-6.7-10.9-33.6-67.8-75.5-70.3S134.7,84.1,134.7,84.1z"/>
					</g>
				</g>
				<g>
					<g>
						<path class="st4" d="M271.5,269.4l-0.3,0c-0.9-0.1-1.5-1-1.4-1.9c0-0.3,1.2-7.7,10.9-16.8c8.6-8.2,11.4-22.1,6-29.8
							c-9.4-13.3-4.5-26.2-4.3-26.7c0.3-0.9,1.3-1.3,2.2-0.9c0.9,0.3,1.3,1.3,1,2.2c-0.2,0.5-4.4,11.8,3.9,23.6
							c6.5,9.1,3.6,24.8-6.4,34.2c-8.7,8.2-9.8,14.8-9.8,14.8C273.1,268.8,272.3,269.4,271.5,269.4z"/>
					</g>
				</g>
				<g>
					<g>
						<path class="st4" d="M265.3,309.5c-0.1,0-0.2,0-0.3,0c-0.9-0.2-1.5-1.1-1.3-2c0.1-0.5,0.2-2.8,0.3-5.2
							c0.3-8.1,0.7-21.6,3.5-27.3c3.5-6.9,9.1-38,9.2-38.3c0.2-0.9,1-1.5,2-1.4c0.9,0.2,1.5,1,1.4,2c-0.2,1.3-5.8,31.9-9.5,39.3
							c-2.5,5-2.9,18.6-3.2,25.9c-0.1,3.4-0.2,5-0.3,5.8C266.8,309,266.1,309.5,265.3,309.5z"/>
					</g>
				</g>
				<g>
					<g>
						<path class="st4" d="M103.9,249.5c-0.4,0-0.8-0.1-1.1-0.4c-17.7-14.8-14-22.1-8.9-32.2c0.6-1.1,1.2-2.3,1.7-3.5
							c5.5-11.4,5.5-25.5,5.5-25.7c0-0.9,0.8-1.7,1.7-1.7s1.7,0.8,1.7,1.7c0,0.6-0.1,15-5.9,27.1c-0.6,1.2-1.2,2.4-1.8,3.6
							c-4.9,9.7-7.6,15,8.1,28c0.7,0.6,0.8,1.7,0.2,2.4C104.9,249.3,104.4,249.5,103.9,249.5z"/>
					</g>
				</g>
				<g>
					<g>
						<path class="st4" d="M121,317.8c-0.1,0-0.2,0-0.3,0c-0.9-0.2-1.5-1-1.4-1.9c0.6-3.9-1.3-12.6-3.9-24.8
							c-1.3-6-2.8-12.9-4.3-20.7c-4.6-23.6-5.2-30.9-5.2-31.2c-0.1-0.9,0.6-1.7,1.6-1.8c1,0,1.7,0.6,1.8,1.6c0,0,0.6,7.5,5.1,30.8
							c1.5,7.7,3,14.6,4.3,20.6c2.8,13,4.7,21.5,4,26C122.5,317.2,121.8,317.8,121,317.8z"/>
					</g>
				</g>
				<g>
					<g>
						<path class="st4" d="M194.7,279.4c-4.5,0-7.1-2.2-10-4.8c-1.9-1.6-4-3.5-7.1-5.2c-5.5-3-9.4-1.3-13.2,0.4
							c-2.1,0.9-4.1,1.8-6.1,1.8c-2.3,0-4.1-1.1-4.9-3c-1.3-3.2,0.4-8,4.2-11.8c2.1-2.1,4.3-5.5,7.3-10.1c3.9-5.9,9.2-14,17.4-23.9
							c13.6-16.5,4.6-31.5,4.5-31.7c-0.5-0.8-0.2-1.8,0.6-2.3c0.8-0.5,1.8-0.2,2.3,0.6c0.1,0.2,10.3,17.3-4.8,35.6
							c-8.1,9.8-13.3,17.8-17.2,23.6c-3.1,4.8-5.4,8.2-7.8,10.6c-3,3-4.1,6.5-3.5,8.1c0.1,0.2,0.4,0.9,1.8,0.9
							c1.4,0,2.9-0.7,4.8-1.5c3.9-1.8,9.3-4.2,16.2-0.3c3.4,1.9,5.7,3.9,7.7,5.5c3.6,3.1,5.5,4.8,10.8,3.6c4.4-1,7.6-3.5,10.8-6
							c3.2-2.5,6.2-4.9,9.8-4.9c2.9,0,6.1,1.6,9.3,3.1c2.7,1.3,6,2.8,7.2,2.3c0.1,0,0.3-0.1,0.5-0.6c1.5-4.1-3.8-10.1-8.4-15.5
							l-3-3.5c-8.2-9.7-15-18.1-15-22.3c0-0.9,0.8-1.7,1.7-1.7s1.7,0.8,1.7,1.7c0,3.3,9.6,14.6,14.2,20.1l3,3.5
							c5.5,6.4,11.2,12.9,9,18.9c-0.6,1.6-1.6,2.3-2.4,2.6c-2.6,1.1-6-0.5-9.9-2.4c-2.9-1.3-5.8-2.7-7.9-2.7c-2.5,0-4.9,1.9-7.7,4.2
							c-3.3,2.6-7,5.5-12.1,6.7C197,279.3,195.8,279.4,194.7,279.4z"/>
					</g>
				</g>
				<g>
					<g>
						<path class="st4" d="M116.8,292.5c-3,0-4.7-3.1-7-7.4c-1.7-3-3.7-6.8-6.7-10.2c-5.7-6.5-19.6-23.7-26.2-41.9
							c-6.3-17.4-10.5-30.1-7.2-35.2c0.9-1.4,2.3-2.1,4-2.3c8.4-0.6,18.5,14.6,19.6,16.3c0.5,0.8,0.3,1.8-0.5,2.3
							c-0.8,0.5-1.8,0.3-2.3-0.5c-3.8-5.9-11.8-15-16.6-14.8c-0.9,0.1-1.2,0.4-1.4,0.7c-2.7,4.1,3.5,21,7.5,32.2
							c6.4,17.7,20,34.5,25.6,40.9c3.2,3.7,5.3,7.6,7.1,10.8c1.4,2.5,3.1,5.7,4.1,5.7c0.9,0,1.7,0.8,1.7,1.7
							S117.8,292.5,116.8,292.5z"/>
					</g>
				</g>
				<g>
					<g>
						<path class="st4" d="M272,277.5c-0.6,0-1.2-0.3-1.5-0.9c-0.4-0.8-0.1-1.8,0.7-2.3c8.8-4.4,11.1-6.4,13.6-16.5
							c2.2-9,6.7-19.7,10.3-28.3l1.7-4c4.7-11.5,10.7-31,8.4-36.3c-0.3-0.7-0.6-0.8-0.7-0.8c-4.1-1.6-11.9,7.6-15.1,12.3
							c-0.5,0.8-1.6,1-2.3,0.5c-0.8-0.5-1-1.6-0.5-2.3c1.1-1.7,11.3-16.5,19.1-13.6c0.8,0.3,1.9,1,2.6,2.7c3.9,9-8.3,38.6-8.4,38.9
							l-1.7,4c-3.5,8.5-8,19.1-10.1,27.8c-2.8,11-5.7,13.9-15.4,18.7C272.5,277.4,272.3,277.5,272,277.5z"/>
					</g>
				</g>
				<g>
					<g>
						<g>
							<path class="st1" d="M164.9,198.1c-11.2-5.4-29.5-8.2-38.3,1.5s24.3,9,31,5.2C164.4,201.1,168,199.6,164.9,198.1z"/>
						</g>
					</g>
					<g>
						<g>
							<path class="st4" d="M140.1,209.9c-7.5,0-14.7-1.3-16.3-5.3c-0.5-1.3-0.9-3.9,1.8-6.9c9.7-10.8,29.2-7,39.8-1.9
								c0.6,0.3,2.2,1.1,2.3,3.4c0,2.7-1.9,3.8-7,6.6l-2.4,1.3C155.8,208.5,147.8,209.9,140.1,209.9z M144.1,195.6
								c-6.6,0-12.6,1.7-16.4,5.9c-0.7,0.8-0.8,1.2-0.8,1.2c1.8,2.9,24.2,3.2,30.2-0.2l2.5-1.3c1-0.6,2.1-1.1,3-1.7
								C156.8,197.1,150.2,195.6,144.1,195.6z"/>
						</g>
					</g>
				</g>
				<g>
					<g>
						<path class="st4" d="M144.3,192.8c0,0-8.3,14.3,2.6,14.3S154.1,192,144.3,192.8z"/>
					</g>
				</g>
				<g>
					<g>
						<path class="st4" d="M143.2,187.3c16-0.8,24.3-1.6,31,2.1c6.7,3.6,9.3-1,4.1-8.3c-5.2-7.2-21.7-10.9-36.2-9.8
							c-14.5,1-12.4-1-25.9,9.3c-13.4,10.3-9.3,20.2-4.1,15.5C117.3,191.5,132.3,187.8,143.2,187.3z"/>
					</g>
				</g>
				<g>
					<g>
						<path class="st4" d="M191.3,186.4c-0.4,0-0.8-0.1-1.1-0.4c-6.4-5.8-2.7-20.7-2.6-21.3c0.2-0.9,1.1-1.4,2-1.2
							c0.9,0.2,1.4,1.1,1.2,2c-0.9,3.8-2.5,14.3,1.6,18c0.7,0.6,0.7,1.7,0.1,2.4C192.2,186.2,191.8,186.4,191.3,186.4z"/>
					</g>
				</g>
				<g>
					<g>
						<path class="st4" d="M198,187.4c-0.6,0-1.2-0.4-1.5-1c-2.4-5.1-3.1-9.1-1.9-12.1c0.9-2.3,2.6-3.1,2.8-3.1
							c0.9-0.3,1.8,0.1,2.2,0.9c0.3,0.8-0.1,1.8-0.9,2.2c-1.2,0.6-2.5,3.6,0.8,10.7c0.4,0.8,0,1.8-0.8,2.2
							C198.5,187.4,198.3,187.4,198,187.4z"/>
					</g>
				</g>
				<g>
					<g>
						<path class="st4" d="M208.4,186.8c0,0-2.1-9.8,16.6-15.5c18.6-5.7,24.3-6.2,34.7,1.6c10.3,7.8,19.1,22.2,15,22.2
							s-12.9-9.8-23.3-9.8c-10.3,0-16,0-25.3,3.1C216.7,191.5,207.9,194,208.4,186.8z"/>
					</g>
				</g>
				<g>
					<g>
						<g>
							<path class="st1" d="M217.7,198.9c-2.5-1,19.5-8.8,32.1-6c9.7,2.2,2.6,12.7-11.4,14.9C224.4,210.1,222.4,200.8,217.7,198.9z"
								/>
						</g>
					</g>
					<g>
						<g>
							<path class="st4" d="M234.3,210.6c-7.5,0-11.1-3.8-13.8-6.6c-1.2-1.3-2.2-2.3-3.3-2.8c-0.9-0.4-1.6-1.9-1.4-3.1
								c0.8-5.1,24.9-9.7,34.2-7.6c5.2,1.2,5.9,4.6,5.9,6.6c-0.1,5.9-7.5,11.6-17.3,13.2C237,210.5,235.6,210.6,234.3,210.6z
								 M221.5,198.9c0.4,0.4,0.7,0.7,1.1,1.1c3,3.2,6.5,6.8,15.7,5.4c7.2-1.2,12.5-4.7,14-7.6c0.3-0.5,0.3-0.9,0.3-0.9
								c0-0.2-0.7-1.2-3.1-1.7C240.9,193.4,227.4,196.7,221.5,198.9z"/>
						</g>
					</g>
				</g>
				<g>
					<g>
						<path class="st4" d="M227.5,195.9c0,0-3.6,14.2,7.8,10.5C246.7,202.6,237.4,187.6,227.5,195.9z"/>
					</g>
				</g>
				<g>
					<g>
						<path class="st4" d="M135.2,298.4c0,0-2.2,0.7-3.2,1.1c-1.3,0.4-2.5,1.3-3.2,2.5c-0.7,1.2-1,2.9-0.5,4.2
							c0.1,0.3,0.2,0.5,0.3,0.7c-1,0.3-2.1,1.1-3.4,2.5c-5.2,5.7-7.2,34.1-2.1,41.3c0.5,0.7,1,1.6,1.6,2.7c-0.9,0.5-1.7,1.1-2.4,1.9
							c-2.3,2.2-3,5.7-1.8,8.6c1.2,2.8,3.8,4.8,6.8,5.2c1.8,0.2,3.5,0,5.2-0.6c-0.8,2.9-1.1,5.9,0.5,8.6c1.2,2,3,3.1,4.9,3.7
							c-2.1,4.3-2.8,8.9,0.8,12.5c2.2,2.2,4.7,3.1,7.2,3.1c0,0.2,0,0.3,0,0.5c0.2,3.5,2.3,6.9,5.4,8.7c3.3,1.8,6.1,1.6,8.7,0.4
							c0.7,1.3,1.7,2.4,2.9,3.2c5.3,3.6,11.4,1.1,15.1-3.4c-0.1,5.9,3.3,11.4,10.1,12.5c4.9,0.8,9.3-1.8,11.5-5.6
							c4.4,1,8.7,0.3,12-3.5c1.5,3.8,6,4.9,10,4.9c4.5,0,8.9,0,12.3-3.4c0.5-0.5,1-1.1,1.4-1.7c0.5,0.1,1,0.2,1.5,0.2
							c4.7,0.3,9.4-3.2,10.4-7.6c2.2-0.5,4.2-1.7,5.9-3.1c1.6-1.4,2.7-3.3,3-5.3c2.6-0.9,5-2.5,6.4-5c2.1-3.7,1.9-8.4-1.2-11.5
							c-1-1-2.1-1.6-3.3-2c0.2-0.4,0.3-0.9,0.4-1.3c5.4-0.2,10.7-2.7,13.4-7.8c2.8-5.2,1.8-11-1.5-14.7c4.2-2.8,7.8-33.1,5.7-38.4
							c-1.9-4.6-6.6-5.9-11.1-6.3c-0.8-0.1-1.6,0.1-2.3,0.5c-0.5-1-1.2-1.8-1.8-2.7c1.7-1.7,2.1-4.3,0.9-6.6c-0.2-0.3-0.4-0.7-0.5-1
							c-1.3-2.5-5.1-3.5-7.4-1.9c-0.1,0.1-0.3,0.2-0.4,0.3c0.7-3.1-1-6.8-5.1-6.8c-0.5,0-0.9,0.1-1.3,0.1c-4.5-6.9-9-14.3-13.2-16.4
							c0,0-9.8-8.3-17.6-4.7c-7.8,3.6-12.4,12.4-21.2,10.9c-8.8-1.6-13.4-12.4-21.2-11.9c-7.8,0.5-10.9,4.7-10.9,4.7
							s-7.2,1.6-16,15.5c-1.6,2.5-2.9,4.3-4,5.6C137.1,288.4,135.2,298.4,135.2,298.4z"/>
					</g>
				</g>
				<g>
					<g>
						<g>
							<path class="st5" d="M167,308.4c0,0-9.3,8.3,13.4,13.4s45-4.7,46.6-6.2c1.6-1.6,11.9-11.4-5.2-14
								C204.8,299.1,171.7,302.7,167,308.4z"/>
						</g>
					</g>
					<g>
						<g>
							<path class="st4" d="M194.1,325c-4.5,0-9.2-0.4-14-1.5c-10-2.3-15.4-5.4-16.5-9.6c-0.9-3.4,1.6-6.1,2.2-6.6
								c5.5-6.4,39.1-9.8,56.3-7.2c6.3,1,9.8,2.9,10.8,6.1c1,3-0.6,6.6-4.6,10.6C226.8,318.1,211.9,325,194.1,325z M168.1,309.6
								c-0.1,0.1-1.7,1.6-1.2,3.4c0.4,1.6,2.8,4.6,13.9,7.2c21.3,4.8,42.9-4,45-5.8c4.1-4.1,4.2-6.3,3.9-7.3
								c-0.6-1.8-3.5-3.1-8.1-3.8c-18.1-2.8-49.5,1.5-53.3,6.1L168.1,309.6z"/>
						</g>
					</g>
				</g>
				<g>
					<g>
						<g>
							<path class="st5" d="M160.3,302.2c11-1.1,21.2-6.7,30-7.2c8.8-0.5,25.3,1.6,33.6,2.6c8.3,1,18.1-5.2,16-0.5
								c-2.1,4.7-10.3,7.8-29,8.3c-18.6,0.5-24.8-0.5-33.6,0.5C168.6,306.8,149.9,303.2,160.3,302.2z"/>
						</g>
					</g>
					<g>
						<g>
							<path class="st4" d="M173.9,307.6c-6.7,0-16.5-1.4-18-3.4l-0.6-0.8l0.3-1.2c0.5-1.2,2-1.6,4.4-1.8c5.4-0.5,10.6-2.2,15.7-3.8
								c5.1-1.6,9.8-3.1,14.4-3.4c9-0.5,25.8,1.6,33.9,2.6c3.6,0.4,7.7-0.6,10.6-1.4c3.4-0.9,5.4-1.4,6.6,0c0.7,0.8,0.7,1.9,0.1,3.2
								c-2.6,5.8-12.3,8.8-30.5,9.3c-8.4,0.2-14.3,0.2-19.1,0.1c-5.6-0.1-9.7-0.1-14.4,0.4C176.5,307.6,175.3,307.6,173.9,307.6z
								 M163.7,303.4c4,0.7,9.6,1.2,13.5,0.7c4.9-0.6,9.1-0.5,14.9-0.4c4.7,0.1,10.6,0.1,18.9-0.1c18.5-0.5,25-3.7,27-6.5
								c-0.7,0.2-1.6,0.4-2.3,0.6c-3.3,0.8-7.7,2-11.9,1.5c-8-1-24.7-3.1-33.3-2.6c-4.1,0.2-8.7,1.7-13.6,3.3
								C172.6,301.2,168.2,302.6,163.7,303.4z"/>
						</g>
					</g>
				</g>
				<g>
					<g>
						<path class="st4" d="M124.6,401.6c-0.1,0-0.2,0-0.3,0c-0.9-0.2-1.5-1.1-1.3-2c0-0.1,2.1-11,3.6-22.7
							c1.5-11.5-0.5-22.6-0.5-22.8c-0.2-0.9,0.4-1.8,1.4-2c1-0.1,1.8,0.4,2,1.4c0.1,0.5,2.1,11.8,0.5,23.8
							c-1.5,11.8-3.6,22.7-3.6,22.9C126.1,401,125.4,401.6,124.6,401.6z"/>
					</g>
				</g>
				<g>
					<g>
						<path class="st4" d="M267.4,388.7c-0.5,0-0.9-0.2-1.3-0.6c-4.5-5-3.6-22.1-3.5-24c0.1-0.9,0.7-1.7,1.8-1.6
							c0.9,0.1,1.6,0.8,1.6,1.8c-0.4,6.7,0,18.5,2.7,21.6c0.6,0.7,0.6,1.8-0.1,2.4C268.2,388.5,267.8,388.7,267.4,388.7z"/>
					</g>
				</g>
				<g>
					<g>
						<g>
							<path class="st1" d="M110.1,401c-0.5-11.9,5.7-23.8,11.4-25.9c0,0-8.8,7.2-0.5,18.1c8.3,10.9,11.4,9.8,20.7,16
								c9.3,6.2,19.1,12.4,29,14c9.8,1.6,21.2,1.6,25.9,4.7"/>
						</g>
					</g>
					<g>
						<g>
							<path class="st4" d="M210.1,430.4c1.8,1.1,22,5.3,24.9,4.2c3-1.1,7.3-6.1,10.4-9.9c3.1-3.8,7.4-3.5,4.1,1.2
								c-3.3,4.8-3.5,6-11,11.4c-7.5,5.3-36.4-5.8-42.9-8c-3.3-1.1-9.1-2.6-15.8-3.2c-3.1-0.3-6.4-0.7-9.4-1.1
								c-10-1.6-19.7-7.6-29.6-14.2c-2.7-1.8-4.9-3-6.9-4.1c-4.8-2.6-8.2-4.5-14.2-12.4c-3-4-4-7.6-3.9-10.6
								c-2.4,4.5-5.6,7.9-5.3,14.4l-3.4,0.1c-0.6-12.9,7.5-22.4,13.8-24.7c0.8-0.3,1.6,0,2,0.7c0.4,0.7,0.2,1.6-0.4,2.1
								c-0.3,0.3-7.4,6.4-0.3,15.8c5.6,7.3,8.6,9,13.2,11.4c2,1.1,4.3,2.3,7.1,4.2c9.6,6.4,18.9,12.2,28.3,13.7
								c3,0.5,6.2,0.8,9.3,1.1c7.4,0.8,11.3,1.8,15.5,2.8C201.1,426.8,208.3,429.3,210.1,430.4z"/>
						</g>
					</g>
				</g>
				<g>
					<g>
						<g>
							<path class="st1" d="M246.7,425.8c10.3-12.4,23.8-26.9,22.8-40.3c0,0,13.4,2.1,14.5,6.2"/>
						</g>
					</g>
					<g>
						<g>
							<path class="st4" d="M245.4,424.7l2.9-3.4c9.6-11.3,20.4-24.2,19.5-35.7c0-0.5,0.2-1,0.5-1.4c0.4-0.3,0.9-0.5,1.4-0.4
								c3.4,0.5,14.6,2.6,15.9,7.5c0,0,1.9,8.8,0.8,9.9s-6,4.1-4.6,0.4c1.4-3.8,2.7-5.1,0.6-9.4c-0.7-1.5-5.8-3.6-11.1-4.6
								c-0.3,12.2-10.9,24.8-20.3,36l-2.9,3.4C247.1,428.2,242.5,428.1,245.4,424.7z"/>
						</g>
					</g>
				</g>
				<g>
					<g>
						<path class="st4" d="M104.5,401.4c-0.1,0.1-1,0-3.9,0.3c-7.7,0.8-28.4,4.2-54.7,18.9c-25.1,14.1-41.8,11.2-42.5,11
							c-0.9-0.2-1.5-1-1.3-2c0.2-0.9,1.1-1.5,2-1.3c0.2,0,16.3,2.8,40.3-10.7c25.9-14.5,46.2-18.4,56-19.3c3.8-0.4,5.7-0.3,6.9,1
							L104.5,401.4z"/>
					</g>
				</g>
				<g>
					<g>
						<path class="st4" d="M103.4,401.6c-0.6,0-1.1-0.3-1.4-0.8c-0.5-0.8-0.3-1.8,0.5-2.3l5.7-3.6c0.8-0.5,1.8-0.3,2.3,0.5
							c0.5,0.8,0.3,1.8-0.5,2.3l-5.7,3.6C104,401.5,103.7,401.6,103.4,401.6z"/>
					</g>
				</g>
				<g>
					<g>
						<path class="st4" d="M283.3,403.6c-1.1-1.2-1.9-2.1-1.7-3.4c0.2-0.8,0.7-1.4,1.6-1.8c4-1.7,14.7,0.2,16,0.4
							c0,0,18.3,1.6,36.2,4.7c4.3,0.7,9,1.5,13.8,2.3c15.3,2.5,31,5.1,36.7,7.1c0.9,0.3,1.3,1.3,1,2.2c-0.3,0.9-1.3,1.3-2.2,1
							c-5.4-1.9-21-4.5-36.1-6.9c-4.8-0.8-9.5-1.5-13.8-2.3c-17.8-3.1-35.9-4.6-36.1-4.6c-3.8-0.7-10.1-1.4-13.1-0.9l0.1,0.1
							L283.3,403.6z"/>
					</g>
				</g>
				<g>
					<g>
						<path class="st1" d="M153.5,196.2c-3,0-3,7.8,0,7.8C156.5,204,156.5,196.2,153.5,196.2z"/>
					</g>
				</g>
				<g>
					<g>
						<path class="st1" d="M238.9,196.2c-3,0-3,7.8,0,7.8C241.9,204,241.9,196.2,238.9,196.2z"/>
					</g>
				</g>
			</g>
			<g>
				<g>
					<path class="st57" d="M93.4,211.8c0,0-5.5-48.4,4.2-82.8s38-56.6,95.4-56.6s93.5,25.3,96.7,70.7s0.3,53.1,0.3,53.1"/>
				</g>
			</g>
			<g>
				<g>
					<path class="st4" d="M281.4,245.1l-4.8-3.3c0,0-18.6,56.5-24,62.4c-13,14.3,19.2,15.5,19.2,15.5s5-10.1,2.6-14.1
						c-2.4-4.1,3.1-3.6,1.4-9.3c-1.7-5.8,3.4-5.8,2.2-10.2c-1.2-4.4,3.5-12.6,1.9-15.6C278.3,267.4,279.7,246.8,281.4,245.1z"/>
				</g>
			</g>
			<g>
				<g>
					<path class="st4" d="M105.4,239.9l4.8-3.3c0,0,18.6,56.5,24,62.4c13,14.3-11.4,25.9-11.4,25.9s-12.8-20.4-10.4-24.5
						s-3.1-3.6-1.4-9.3c1.7-5.8-3.4-5.8-2.2-10.2c1.2-4.4-3.5-12.6-1.9-15.6S107.1,241.6,105.4,239.9z"/>
				</g>
			</g>
			<g>
				<g>
					<g>
						<path class="st4" d="M116.4,110.6c1.3,0,2.6-1.1,2.5-2.5c-0.1-1.4-1.1-2.5-2.5-2.5c-1.3,0-2.6,1.1-2.5,2.5
							C114,109.4,115,110.6,116.4,110.6L116.4,110.6z"/>
					</g>
				</g>
			</g>
			<g>
				<g>
					<g>
						<path class="st4" d="M124,105.6c1.3,0,2.6-1.1,2.5-2.5c-0.1-1.4-1.1-2.5-2.5-2.5c-1.3,0-2.6,1.1-2.5,2.5
							C121.6,104.5,122.6,105.6,124,105.6L124,105.6z"/>
					</g>
				</g>
			</g>
			<g>
				<g>
					<g>
						<path class="st4" d="M106.9,124.3c1.3,0,2.6-1.1,2.5-2.5c-0.1-1.4-1.1-2.5-2.5-2.5c-1.3,0-2.6,1.1-2.5,2.5
							C104.4,123.1,105.5,124.3,106.9,124.3L106.9,124.3z"/>
					</g>
				</g>
			</g>
			<g>
				<g>
					<g>
						<path class="st4" d="M103.5,146.5c1.3,0,2.6-1.1,2.5-2.5c-0.1-1.4-1.1-2.5-2.5-2.5c-1.3,0-2.6,1.1-2.5,2.5
							C101,145.4,102.1,146.5,103.5,146.5L103.5,146.5z"/>
					</g>
				</g>
			</g>
			<g>
				<g>
					<g>
						<path class="st4" d="M95.8,175.7c1.3,0,2.6-1.1,2.5-2.5c-0.1-1.4-1.1-2.5-2.5-2.5c-1.3,0-2.6,1.1-2.5,2.5
							C93.4,174.5,94.4,175.7,95.8,175.7L95.8,175.7z"/>
					</g>
				</g>
			</g>
			<g>
				<g>
					<g>
						<path class="st4" d="M97.7,163.1c1.3,0,2.6-1.1,2.5-2.5c-0.1-1.4-1.1-2.5-2.5-2.5c-1.3,0-2.6,1.1-2.5,2.5
							C95.3,162,96.3,163.1,97.7,163.1L97.7,163.1z"/>
					</g>
				</g>
			</g>
			<g>
				<g>
					<g>
						<path class="st4" d="M97,168.8c1.3,0,2.6-1.1,2.5-2.5c-0.1-1.4-1.1-2.5-2.5-2.5c-1.3,0-2.6,1.1-2.5,2.5
							C94.5,167.7,95.6,168.8,97,168.8L97,168.8z"/>
					</g>
				</g>
			</g>
			<g>
				<g>
					<g>
						<path class="st4" d="M100,160.4c1.3,0,2.6-1.1,2.5-2.5c-0.1-1.4-1.1-2.5-2.5-2.5c-1.3,0-2.6,1.1-2.5,2.5
							C97.6,159.3,98.6,160.4,100,160.4L100,160.4z"/>
					</g>
				</g>
			</g>
			<g>
				<g>
					<g>
						<path class="st4" d="M100.8,155.5c1.3,0,2.6-1.1,2.5-2.5c-0.1-1.4-1.1-2.5-2.5-2.5c-1.3,0-2.6,1.1-2.5,2.5
							C98.4,154.4,99.4,155.5,100.8,155.5L100.8,155.5z"/>
					</g>
				</g>
			</g>
			<g>
				<g>
					<g>
						<path class="st4" d="M97.4,157c1.3,0,2.6-1.1,2.5-2.5c-0.1-1.4-1.1-2.5-2.5-2.5c-1.3,0-2.6,1.1-2.5,2.5
							C94.9,155.9,96,157,97.4,157L97.4,157z"/>
					</g>
				</g>
			</g>
			<g>
				<g>
					<g>
						<path class="st4" d="M98.9,150.2c1.3,0,2.6-1.1,2.5-2.5c-0.1-1.4-1.1-2.5-2.5-2.5c-1.3,0-2.6,1.1-2.5,2.5
							C96.5,149,97.5,150.2,98.9,150.2L98.9,150.2z"/>
					</g>
				</g>
			</g>
			<g>
				<g>
					<g>
						<path class="st4" d="M101.9,152.1c1.3,0,2.6-1.1,2.5-2.5c-0.1-1.4-1.1-2.5-2.5-2.5c-1.3,0-2.6,1.1-2.5,2.5
							C99.5,150.9,100.5,152.1,101.9,152.1L101.9,152.1z"/>
					</g>
				</g>
			</g>
			<g>
				<g>
					<g>
						<path class="st4" d="M107.6,142.9c1.3,0,2.6-1.1,2.5-2.5c-0.1-1.4-1.1-2.5-2.5-2.5c-1.3,0-2.6,1.1-2.5,2.5
							C105.2,141.8,106.2,142.9,107.6,142.9L107.6,142.9z"/>
					</g>
				</g>
			</g>
			<g>
				<g>
					<g>
						<path class="st4" d="M103.5,140.3c1.3,0,2.6-1.1,2.5-2.5c-0.1-1.4-1.1-2.5-2.5-2.5c-1.3,0-2.6,1.1-2.5,2.5
							C101,139.1,102.1,140.3,103.5,140.3L103.5,140.3z"/>
					</g>
				</g>
			</g>
			<g>
				<g>
					<g>
						<path class="st4" d="M106.1,131.9c1.3,0,2.6-1.1,2.5-2.5c-0.1-1.4-1.1-2.5-2.5-2.5c-1.3,0-2.6,1.1-2.5,2.5
							C103.7,130.7,104.7,131.9,106.1,131.9L106.1,131.9z"/>
					</g>
				</g>
			</g>
			<g>
				<g>
					<g>
						<path class="st4" d="M106.9,137.6c1.3,0,2.6-1.1,2.5-2.5c-0.1-1.4-1.1-2.5-2.5-2.5c-1.3,0-2.6,1.1-2.5,2.5
							C104.4,136.5,105.5,137.6,106.9,137.6L106.9,137.6z"/>
					</g>
				</g>
			</g>
			<g>
				<g>
					<g>
						<path class="st4" d="M111.5,133c1.3,0,2.6-1.1,2.5-2.5c-0.1-1.4-1.1-2.5-2.5-2.5c-1.3,0-2.6,1.1-2.5,2.5
							C109,131.9,110.1,133,111.5,133L111.5,133z"/>
					</g>
				</g>
			</g>
			<g>
				<g>
					<g>
						<path class="st4" d="M102.7,134.2c1.3,0,2.6-1.1,2.5-2.5c-0.1-1.4-1.1-2.5-2.5-2.5c-1.3,0-2.6,1.1-2.5,2.5
							C100.3,133,101.3,134.2,102.7,134.2L102.7,134.2z"/>
					</g>
				</g>
			</g>
			<g>
				<g>
					<g>
						<path class="st4" d="M100,144.1c1.3,0,2.6-1.1,2.5-2.5c-0.1-1.4-1.1-2.5-2.5-2.5c-1.3,0-2.6,1.1-2.5,2.5
							C97.6,142.9,98.6,144.1,100,144.1L100,144.1z"/>
					</g>
				</g>
			</g>
			<g>
				<g>
					<g>
						<path class="st4" d="M111.5,126.9c1.3,0,2.6-1.1,2.5-2.5c-0.1-1.4-1.1-2.5-2.5-2.5c-1.3,0-2.6,1.1-2.5,2.5
							C109,125.8,110.1,126.9,111.5,126.9L111.5,126.9z"/>
					</g>
				</g>
			</g>
			<g>
				<g>
					<g>
						<path class="st4" d="M111.8,117.4c1.3,0,2.6-1.1,2.5-2.5c-0.1-1.4-1.1-2.5-2.5-2.5c-1.3,0-2.6,1.1-2.5,2.5
							C109.4,116.3,110.4,117.4,111.8,117.4L111.8,117.4z"/>
					</g>
				</g>
			</g>
			<g>
				<g>
					<g>
						<path class="st4" d="M108,118.9c1.3,0,2.6-1.1,2.5-2.5c-0.1-1.4-1.1-2.5-2.5-2.5c-1.3,0-2.6,1.1-2.5,2.5
							C105.6,117.8,106.6,118.9,108,118.9L108,118.9z"/>
					</g>
				</g>
			</g>
			<g>
				<g>
					<g>
						<path class="st4" d="M114.1,120.5c1.3,0,2.6-1.1,2.5-2.5c-0.1-1.4-1.1-2.5-2.5-2.5c-1.3,0-2.6,1.1-2.5,2.5
							C111.7,119.3,112.7,120.5,114.1,120.5L114.1,120.5z"/>
					</g>
				</g>
			</g>
			<g>
				<g>
					<g>
						<path class="st4" d="M121,115.5c1.3,0,2.6-1.1,2.5-2.5c-0.1-1.4-1.1-2.5-2.5-2.5c-1.3,0-2.6,1.1-2.5,2.5
							C118.5,114.4,119.6,115.5,121,115.5L121,115.5z"/>
					</g>
				</g>
			</g>
			<g>
				<g>
					<g>
						<path class="st4" d="M132,97.6c1.3,0,2.6-1.1,2.5-2.5c-0.1-1.4-1.1-2.5-2.5-2.5c-1.3,0-2.6,1.1-2.5,2.5
							C129.6,96.5,130.6,97.6,132,97.6L132,97.6z"/>
					</g>
				</g>
			</g>
			<g>
				<g>
					<g>
						<path class="st4" d="M137.7,90.4c1.3,0,2.6-1.1,2.5-2.5c-0.1-1.4-1.1-2.5-2.5-2.5c-1.3,0-2.6,1.1-2.5,2.5
							C135.3,89.2,136.3,90.4,137.7,90.4L137.7,90.4z"/>
					</g>
				</g>
			</g>
			<g>
				<g>
					<g>
						<path class="st4" d="M173.5,84.3c1.3,0,2.6-1.1,2.5-2.5c-0.1-1.4-1.1-2.5-2.5-2.5c-1.3,0-2.6,1.1-2.5,2.5
							C171.1,83.1,172.1,84.3,173.5,84.3L173.5,84.3z"/>
					</g>
				</g>
			</g>
			<g>
				<g>
					<g>
						<path class="st4" d="M182.7,87.3c1.3,0,2.6-1.1,2.5-2.5c-0.1-1.4-1.1-2.5-2.5-2.5c-1.3,0-2.6,1.1-2.5,2.5
							C180.2,86.2,181.3,87.3,182.7,87.3L182.7,87.3z"/>
					</g>
				</g>
			</g>
			<g>
				<g>
					<g>
						<path class="st4" d="M191.8,90c1.3,0,2.6-1.1,2.5-2.5c-0.1-1.4-1.1-2.5-2.5-2.5c-1.3,0-2.6,1.1-2.5,2.5
							C189.4,88.9,190.4,90,191.8,90L191.8,90z"/>
					</g>
				</g>
			</g>
			<g>
				<g>
					<g>
						<path class="st4" d="M200.9,87.3c1.3,0,2.6-1.1,2.5-2.5c-0.1-1.4-1.1-2.5-2.5-2.5c-1.3,0-2.6,1.1-2.5,2.5
							C198.5,86.2,199.5,87.3,200.9,87.3L200.9,87.3z"/>
					</g>
				</g>
			</g>
			<g>
				<g>
					<g>
						<path class="st4" d="M210.5,83.5c1.3,0,2.6-1.1,2.5-2.5c-0.1-1.4-1.1-2.5-2.5-2.5c-1.3,0-2.6,1.1-2.5,2.5
							C208,82.4,209.1,83.5,210.5,83.5L210.5,83.5z"/>
					</g>
				</g>
			</g>
			<g>
				<g>
					<g>
						<path class="st4" d="M218.1,82.8c1.3,0,2.6-1.1,2.5-2.5c-0.1-1.4-1.1-2.5-2.5-2.5c-1.3,0-2.6,1.1-2.5,2.5
							C215.6,81.6,216.7,82.8,218.1,82.8L218.1,82.8z"/>
					</g>
				</g>
			</g>
			<g>
				<g>
					<g>
						<path class="st4" d="M242.1,89.2c1.3,0,2.6-1.1,2.5-2.5c-0.1-1.4-1.1-2.5-2.5-2.5c-1.3,0-2.6,1.1-2.5,2.5
							C239.6,88.1,240.7,89.2,242.1,89.2L242.1,89.2z"/>
					</g>
				</g>
			</g>
			<g>
				<g>
					<g>
						<path class="st4" d="M248.5,92.7c1.3,0,2.6-1.1,2.5-2.5c-0.1-1.4-1.1-2.5-2.5-2.5c-1.3,0-2.6,1.1-2.5,2.5
							C246.1,91.5,247.1,92.7,248.5,92.7L248.5,92.7z"/>
					</g>
				</g>
			</g>
			<g>
				<g>
					<g>
						<path class="st4" d="M258,98.8c1.3,0,2.6-1.1,2.5-2.5c-0.1-1.4-1.1-2.5-2.5-2.5c-1.3,0-2.6,1.1-2.5,2.5
							C255.6,97.6,256.6,98.8,258,98.8L258,98.8z"/>
					</g>
				</g>
			</g>
			<g>
				<g>
					<g>
						<path class="st4" d="M266.4,107.9c1.3,0,2.6-1.1,2.5-2.5c-0.1-1.4-1.1-2.5-2.5-2.5c-1.3,0-2.6,1.1-2.5,2.5
							C264,106.8,265,107.9,266.4,107.9L266.4,107.9z"/>
					</g>
				</g>
			</g>
			<g>
				<g>
					<g>
						<path class="st4" d="M273.3,115.5c1.3,0,2.6-1.1,2.5-2.5c-0.1-1.4-1.1-2.5-2.5-2.5c-1.3,0-2.6,1.1-2.5,2.5
							C270.8,114.4,271.9,115.5,273.3,115.5L273.3,115.5z"/>
					</g>
				</g>
			</g>
			<g>
				<g>
					<g>
						<path class="st4" d="M273.7,128.8c1.3,0,2.6-1.1,2.5-2.5c-0.1-1.4-1.1-2.5-2.5-2.5c-1.3,0-2.6,1.1-2.5,2.5
							C271.2,127.7,272.3,128.8,273.7,128.8L273.7,128.8z"/>
					</g>
				</g>
			</g>
			<g>
				<g>
					<g>
						<path class="st4" d="M273.7,137.2c1.3,0,2.6-1.1,2.5-2.5c-0.1-1.4-1.1-2.5-2.5-2.5c-1.3,0-2.6,1.1-2.5,2.5
							C271.2,136.1,272.3,137.2,273.7,137.2L273.7,137.2z"/>
					</g>
				</g>
			</g>
			<g>
				<g>
					<g>
						<path class="st4" d="M275.9,150.5c1.3,0,2.6-1.1,2.5-2.5c-0.1-1.4-1.1-2.5-2.5-2.5c-1.3,0-2.6,1.1-2.5,2.5
							C273.5,149.4,274.5,150.5,275.9,150.5L275.9,150.5z"/>
					</g>
				</g>
			</g>
			<g>
				<g>
					<g>
						<path class="st4" d="M278.6,160.8c1.3,0,2.6-1.1,2.5-2.5c-0.1-1.4-1.1-2.5-2.5-2.5c-1.3,0-2.6,1.1-2.5,2.5
							C276.2,159.7,277.2,160.8,278.6,160.8L278.6,160.8z"/>
					</g>
				</g>
			</g>
			<g>
				<g>
					<g>
						<path class="st4" d="M282,169.2c1.3,0,2.6-1.1,2.5-2.5c-0.1-1.4-1.1-2.5-2.5-2.5c-1.3,0-2.6,1.1-2.5,2.5
							C279.6,168.1,280.6,169.2,282,169.2L282,169.2z"/>
					</g>
				</g>
			</g>
			<g>
				<g>
					<g>
						<path class="st4" d="M282.8,180.6c1.3,0,2.6-1.1,2.5-2.5c-0.1-1.4-1.1-2.5-2.5-2.5c-1.3,0-2.6,1.1-2.5,2.5
							C280.4,179.5,281.4,180.6,282.8,180.6L282.8,180.6z"/>
					</g>
				</g>
			</g>
			<g>
				<g>
					<g>
						<path class="st4" d="M284.3,189c1.3,0,2.6-1.1,2.5-2.5c-0.1-1.4-1.1-2.5-2.5-2.5c-1.3,0-2.6,1.1-2.5,2.5
							C281.9,187.9,282.9,189,284.3,189L284.3,189z"/>
					</g>
				</g>
			</g>
			<g>
				<g>
					<g>
						<path class="st4" d="M286.2,183.3c1.3,0,2.6-1.1,2.5-2.5c-0.1-1.4-1.1-2.5-2.5-2.5c-1.3,0-2.6,1.1-2.5,2.5
							C283.8,182.1,284.8,183.3,286.2,183.3L286.2,183.3z"/>
					</g>
				</g>
			</g>
			<g>
				<g>
					<g>
						<path class="st4" d="M285.5,174.9c1.3,0,2.6-1.1,2.5-2.5c-0.1-1.4-1.1-2.5-2.5-2.5c-1.3,0-2.6,1.1-2.5,2.5
							C283,173.8,284.1,174.9,285.5,174.9L285.5,174.9z"/>
					</g>
				</g>
			</g>
			<g>
				<g>
					<g>
						<path class="st4" d="M286.2,167.7c1.3,0,2.6-1.1,2.5-2.5c-0.1-1.4-1.1-2.5-2.5-2.5c-1.3,0-2.6,1.1-2.5,2.5
							C283.8,166.5,284.8,167.7,286.2,167.7L286.2,167.7z"/>
					</g>
				</g>
			</g>
			<g>
				<g>
					<g>
						<path class="st4" d="M282.4,163.1c1.3,0,2.6-1.1,2.5-2.5c-0.1-1.4-1.1-2.5-2.5-2.5c-1.3,0-2.6,1.1-2.5,2.5
							C280,162,281,163.1,282.4,163.1L282.4,163.1z"/>
					</g>
				</g>
			</g>
			<g>
				<g>
					<g>
						<path class="st4" d="M286.6,156.3c1.3,0,2.6-1.1,2.5-2.5c-0.1-1.4-1.1-2.5-2.5-2.5c-1.3,0-2.6,1.1-2.5,2.5
							C284.2,155.1,285.2,156.3,286.6,156.3L286.6,156.3z"/>
					</g>
				</g>
			</g>
			<g>
				<g>
					<g>
						<path class="st4" d="M280.5,155.1c1.3,0,2.6-1.1,2.5-2.5c-0.1-1.4-1.1-2.5-2.5-2.5c-1.3,0-2.6,1.1-2.5,2.5
							C278.1,154,279.1,155.1,280.5,155.1L280.5,155.1z"/>
					</g>
				</g>
			</g>
			<g>
				<g>
					<g>
						<path class="st4" d="M284.7,149c1.3,0,2.6-1.1,2.5-2.5c-0.1-1.4-1.1-2.5-2.5-2.5c-1.3,0-2.6,1.1-2.5,2.5
							C282.3,147.9,283.3,149,284.7,149L284.7,149z"/>
					</g>
				</g>
			</g>
			<g>
				<g>
					<g>
						<path class="st4" d="M278.6,146.4c1.3,0,2.6-1.1,2.5-2.5c-0.1-1.4-1.1-2.5-2.5-2.5c-1.3,0-2.6,1.1-2.5,2.5
							C276.2,145.2,277.2,146.4,278.6,146.4L278.6,146.4z"/>
					</g>
				</g>
			</g>
			<g>
				<g>
					<g>
						<path class="st4" d="M279.4,140.3c1.3,0,2.6-1.1,2.5-2.5c-0.1-1.4-1.1-2.5-2.5-2.5c-1.3,0-2.6,1.1-2.5,2.5
							C276.9,139.1,278,140.3,279.4,140.3L279.4,140.3z"/>
					</g>
				</g>
			</g>
			<g>
				<g>
					<g>
						<path class="st4" d="M283.9,143.7c1.3,0,2.6-1.1,2.5-2.5c-0.1-1.4-1.1-2.5-2.5-2.5c-1.3,0-2.6,1.1-2.5,2.5
							C281.5,142.5,282.5,143.7,283.9,143.7L283.9,143.7z"/>
					</g>
				</g>
			</g>
			<g>
				<g>
					<g>
						<path class="st4" d="M284.3,135.7c1.3,0,2.6-1.1,2.5-2.5c-0.1-1.4-1.1-2.5-2.5-2.5c-1.3,0-2.6,1.1-2.5,2.5
							C281.9,134.6,282.9,135.7,284.3,135.7L284.3,135.7z"/>
					</g>
				</g>
			</g>
			<g>
				<g>
					<g>
						<path class="st4" d="M278.2,132.3c1.3,0,2.6-1.1,2.5-2.5c-0.1-1.4-1.1-2.5-2.5-2.5c-1.3,0-2.6,1.1-2.5,2.5
							C275.8,131.1,276.8,132.3,278.2,132.3L278.2,132.3z"/>
					</g>
				</g>
			</g>
			<g>
				<g>
					<g>
						<path class="st4" d="M273.7,120.8c1.3,0,2.6-1.1,2.5-2.5c-0.1-1.4-1.1-2.5-2.5-2.5c-1.3,0-2.6,1.1-2.5,2.5
							C271.2,119.7,272.3,120.8,273.7,120.8L273.7,120.8z"/>
					</g>
				</g>
			</g>
			<g>
				<g>
					<g>
						<path class="st4" d="M278.6,125.4c1.3,0,2.6-1.1,2.5-2.5c-0.1-1.4-1.1-2.5-2.5-2.5c-1.3,0-2.6,1.1-2.5,2.5
							C276.2,124.3,277.2,125.4,278.6,125.4L278.6,125.4z"/>
					</g>
				</g>
			</g>
			<g>
				<g>
					<g>
						<path class="st4" d="M281.7,129.2c1.3,0,2.6-1.1,2.5-2.5c-0.1-1.4-1.1-2.5-2.5-2.5c-1.3,0-2.6,1.1-2.5,2.5
							C279.2,128.1,280.3,129.2,281.7,129.2L281.7,129.2z"/>
					</g>
				</g>
			</g>
			<g>
				<g>
					<g>
						<path class="st4" d="M270.6,109.8c1.3,0,2.6-1.1,2.5-2.5c-0.1-1.4-1.1-2.5-2.5-2.5c-1.3,0-2.6,1.1-2.5,2.5
							C268.2,108.7,269.2,109.8,270.6,109.8L270.6,109.8z"/>
					</g>
				</g>
			</g>
			<g>
				<g>
					<g>
						<path class="st4" d="M263.8,99.9c1.3,0,2.6-1.1,2.5-2.5c-0.1-1.4-1.1-2.5-2.5-2.5c-1.3,0-2.6,1.1-2.5,2.5
							C261.3,98.8,262.4,99.9,263.8,99.9L263.8,99.9z"/>
					</g>
				</g>
			</g>
			<g>
				<g>
					<g>
						<path class="st4" d="M254.6,93.1c1.3,0,2.6-1.1,2.5-2.5c-0.1-1.4-1.1-2.5-2.5-2.5c-1.3,0-2.6,1.1-2.5,2.5
							C252.2,91.9,253.2,93.1,254.6,93.1L254.6,93.1z"/>
					</g>
				</g>
			</g>
			<g>
				<g>
					<g>
						<path class="st4" d="M277.5,118.9c1.3,0,2.6-1.1,2.5-2.5c-0.1-1.4-1.1-2.5-2.5-2.5c-1.3,0-2.6,1.1-2.5,2.5
							C275,117.8,276.1,118.9,277.5,118.9L277.5,118.9z"/>
					</g>
				</g>
			</g>
			<g>
				<g>
					<g>
						<path class="st4" d="M203.6,80.9c1.3,0,2.6-1.1,2.5-2.5c-0.1-1.4-1.1-2.5-2.5-2.5c-1.3,0-2.6,1.1-2.5,2.5
							C201.2,79.7,202.2,80.9,203.6,80.9L203.6,80.9z"/>
					</g>
				</g>
			</g>
			<g>
				<g>
					<g>
						<path class="st4" d="M197.5,83.9c1.3,0,2.6-1.1,2.5-2.5c-0.1-1.4-1.1-2.5-2.5-2.5c-1.3,0-2.6,1.1-2.5,2.5
							C195.1,82.8,196.1,83.9,197.5,83.9L197.5,83.9z"/>
					</g>
				</g>
			</g>
			<g>
				<g>
					<g>
						<path class="st4" d="M191,85.1c1.3,0,2.6-1.1,2.5-2.5c-0.1-1.4-1.1-2.5-2.5-2.5c-1.3,0-2.6,1.1-2.5,2.5
							C188.6,83.9,189.6,85.1,191,85.1L191,85.1z"/>
					</g>
				</g>
			</g>
			<g>
				<g>
					<g>
						<path class="st4" d="M184.2,83.5c1.3,0,2.6-1.1,2.5-2.5c-0.1-1.4-1.1-2.5-2.5-2.5c-1.3,0-2.6,1.1-2.5,2.5
							C181.7,82.4,182.8,83.5,184.2,83.5L184.2,83.5z"/>
					</g>
				</g>
			</g>
			<g>
				<g>
					<g>
						<path class="st4" d="M177.7,80.9c1.3,0,2.6-1.1,2.5-2.5c-0.1-1.4-1.1-2.5-2.5-2.5c-1.3,0-2.6,1.1-2.5,2.5
							C175.3,79.7,176.3,80.9,177.7,80.9L177.7,80.9z"/>
					</g>
				</g>
			</g>
			<g>
				<g>
					<g>
						<path class="st4" d="M186.5,80.1c1.3,0,2.6-1.1,2.5-2.5c-0.1-1.4-1.1-2.5-2.5-2.5c-1.3,0-2.6,1.1-2.5,2.5
							C184,79,185.1,80.1,186.5,80.1L186.5,80.1z"/>
					</g>
				</g>
			</g>
			<g>
				<g>
					<g>
						<path class="st4" d="M193.3,80.1c1.3,0,2.6-1.1,2.5-2.5c-0.1-1.4-1.1-2.5-2.5-2.5c-1.3,0-2.6,1.1-2.5,2.5
							C190.9,79,191.9,80.1,193.3,80.1L193.3,80.1z"/>
					</g>
				</g>
			</g>
			<g>
				<g>
					<g>
						<path class="st4" d="M197.9,79.3c1.3,0,2.6-1.1,2.5-2.5c-0.1-1.4-1.1-2.5-2.5-2.5c-1.3,0-2.6,1.1-2.5,2.5
							C195.4,78.2,196.5,79.3,197.9,79.3L197.9,79.3z"/>
					</g>
				</g>
			</g>
			<g>
				<g>
					<g>
						<path class="st4" d="M168.2,82.4c1.3,0,2.6-1.1,2.5-2.5c-0.1-1.4-1.1-2.5-2.5-2.5c-1.3,0-2.6,1.1-2.5,2.5
							C165.7,81.2,166.8,82.4,168.2,82.4L168.2,82.4z"/>
					</g>
				</g>
			</g>
			<g>
				<g>
					<g>
						<path class="st4" d="M131.6,92.7c1.3,0,2.6-1.1,2.5-2.5c-0.1-1.4-1.1-2.5-2.5-2.5c-1.3,0-2.6,1.1-2.5,2.5
							C129.2,91.5,130.2,92.7,131.6,92.7L131.6,92.7z"/>
					</g>
				</g>
			</g>
			<g>
				<g>
					<g>
						<path class="st4" d="M126.3,99.5c1.3,0,2.6-1.1,2.5-2.5c-0.1-1.4-1.1-2.5-2.5-2.5c-1.3,0-2.6,1.1-2.5,2.5
							C123.9,98.4,124.9,99.5,126.3,99.5L126.3,99.5z"/>
					</g>
				</g>
			</g>
			<g>
				<g>
					<g>
						<path class="st4" d="M119.1,103.3c1.3,0,2.6-1.1,2.5-2.5c-0.1-1.4-1.1-2.5-2.5-2.5c-1.3,0-2.6,1.1-2.5,2.5
							C116.6,102.2,117.7,103.3,119.1,103.3L119.1,103.3z"/>
					</g>
				</g>
			</g>
			<g>
				<g>
					<g>
						<path class="st4" d="M120.6,109c1.3,0,2.6-1.1,2.5-2.5c-0.1-1.4-1.1-2.5-2.5-2.5c-1.3,0-2.6,1.1-2.5,2.5
							C118.2,107.9,119.2,109,120.6,109L120.6,109z"/>
					</g>
				</g>
			</g>
		</g>
		<g>
			<g>
				<path class="st1" d="M876,582.2c0,0,57.2-78.8,40.7-103.3c-7.3-10.8-81.1-18-104-27.8c-23-9.8-18.5-14.3-18.5-14.3l-7.8-11.9
					c0,0-11.9-11.4-13.3-10.2c-1.4,1.2-0.2,11-2.2,27c-2,16-6.1,26.2-16,32c-9.8,5.7-11.4,8.2-5.3,12.3c6.1,4.1,1.6,6.1,2.8,16.4
					c1.2,10.2,2.9,37.3,0,38.5c-2.9,1.2-0.8-16-10.7-30.3c-9.8-14.3-20.1-20.5-20.1-20.5s3.3,3.3,7.4-3.3c4.1-6.6,5.3-8.2-7.4-11.1
					c-12.7-2.9-13.5-8.2-25.4-24.2c-11.9-16-14.8-19.3-14.8-19.3s-6.6,1.2-8.6,6.6c-2,5.3-0.8,7.4-11.1,11.1
					c-10.2,3.7-48.6,12.2-100.9,37.7c-5.4,2.6-16.9,16.8-10.4,18c6.6,1.2,132.1,30.3,178.5,41C775.4,557.2,876,582.2,876,582.2z"/>
			</g>
			<g>
				<g>
					<path class="st2" d="M701.1,141.9c0,0-7.7,16.6-36.3,32.3c-28.6,15.7-36.3,35.3-37.8,49.5c-1.5,14.1,5.8,30.1,5.8,30.1
						s-16-8.3-15.7,1.8c0.3,10.1,16.9,24.6,26.7,30.1c0,0,32.7,50.8,46,60.8c0.3,0.3,0.7,0.5,1,0.7c0,0,4.3-0.9,5.2,12.3
						s8.9,48.9,4.6,61.2c-4.3,12.3-10.5,20.6-10.5,20.6s5.5,7.4,10.8,19.1c5.2,11.7,10.8,14.1,18.1,15.4c7.4,1.2,12.9-1.5,12.5,3.7
						c-0.5,5.2-6,15-6,15s3.7,6.1,12,13.2s15.1,26.1,15.1,29.5c0,3.4,2.8-15.7,1.5-24c-1.2-8.3,1.2-16.3,1.2-16.3s1.2-4.9-5.8-11.1
						c-7.1-6.1-2.5-7.7,3.4-11.1c5.8-3.4,10.1-0.9,11.7-24.3c1.5-23.4,5.2-29.2,1.2-32c-4-2.8-8.6-5.8-9.2-20.6
						c-0.6-14.8,0.3-47.3,0.3-47.3s16.9-9.5,22.1-25.5c5.2-16,18.1-50.4,18.1-50.4s8.3-6.5,12.6-10.5c4.3-4,12.9-28.3,2.2-24.9
						s-6.8-2.5-7.7-7.4c-0.9-4.9-4.9-34.4-10.8-34.4c-5.8,0-47.3,5.2-68.5-14.8C703.8,162.8,701.1,141.9,701.1,141.9z"/>
				</g>
				<g>
					<path class="st3" d="M824.9,233.2c0,0,10.5-25.2-2.5-43c-12.9-17.8-29.5-40-47.9-51.6c-18.4-11.7-20.3-13.5-20.3-13.5
						s29.5,14.8,45.5,27c16,12.3,19.1,21.5,19.1,21.5s4.3-30.1-16-56.6c-20.3-26.4-38.1-39.3-54.7-51.6
						c-16.6-12.3,10.5-1.8,19.7,2.5c0,0-14.3-0.5-15.4-5.3c-0.4-1.8,5.5,2.3,12.3-14.3c6.8-16.6-10.9-29.5-17.6-17.8
						c0,0-19.3-16.6-33.4-19.1c-14.1-2.5-46.7,25.8-46.7,25.8s22.7-20.9,9.2-25.2c-13.5-4.3-36.9,23.4-32,31.4
						c4.9,8,24,28.3,24,28.3s-32,10.5-49.2,71.9c0,0-13.5,27.7-8.6,41.2c4.9,13.5,12.3,3.1,12.3,3.1s-20.3,20.9-17.8,37.5
						c2.5,16.6,2.5,35.7,12.3,49.8c0,0-16.6-41.2-1.8-59.6c14.8-18.4,30.1-29.5,40.6-33.8c10.5-4.3,35-30.1,38.7-55.3
						c0,0,17.8,36.3,35.7,47.9c17.8,11.7,59,14.1,66.4,21.5C804,203.1,823.7,200.6,824.9,233.2z"/>
				</g>
				<g>
					<g>
						<g>
							<path class="st4" d="M758.3,66.2c-0.2,0-0.5,0-0.7,0c-1-0.1-1.7-0.9-1.6-1.9c0.1-1,0.9-1.7,1.9-1.6c4,0.4,9-6.1,11.1-15.1
								c2-8.5,1.2-18.6-5-21c-12.1-4.7-15.8,1.8-16,2c-0.5,0.9-1.5,1.2-2.4,0.7c-0.9-0.5-1.2-1.5-0.7-2.4c0.2-0.4,5.2-9.5,20.4-3.7
								c8.3,3.2,9.6,14.9,7.2,25.1C770.3,57.4,765.2,66.2,758.3,66.2z"/>
						</g>
						<g>
							<g>
								<path class="st5" d="M733.9,307.9c-1.4,2.1-4.1-2-5.9-2.7c-2.8-1.1-5.6-1.3-10.2,1.9c-4.5,3.2-7.5,6.4-7.5,6.4
									s4,7.2,10.1,12.6c6.1,5.3,19,4.8,24.3-1.1c5.3-5.9,8.8-13.1,8.8-13.1s-2.4-2.7-6.4-5.9C743.2,302.8,738.4,300.9,733.9,307.9
									z"/>
							</g>
							<g>
								<path class="st4" d="M731.9,331.5c-4.7,0-9.4-1.3-12.6-4.1c-6.3-5.5-10.4-12.7-10.5-13c-0.4-0.7-0.3-1.5,0.2-2.1
									c0.1-0.1,3.1-3.4,7.8-6.7c5.4-3.8,8.9-3.2,11.8-2.1c0.9,0.3,1.7,1,2.5,1.8c0.4,0.4,1,0.9,1.5,1.2c2-3,4.3-4.7,6.9-5.1
									c3.6-0.6,6.7,1.5,8.8,3.2c4.1,3.3,6.5,6,6.6,6.1c0.5,0.5,0.6,1.3,0.3,2c-0.1,0.3-3.6,7.5-9.1,13.5
									C742.9,329.7,737.4,331.5,731.9,331.5z M712.5,313.8c1.4,2.2,4.7,7.1,9.1,10.9c5.5,4.8,17.1,4.3,21.8-0.9
									c3.9-4.3,6.8-9.4,8-11.6c-1-1-2.9-2.8-5.4-4.8c-2.4-1.9-4.3-2.7-6-2.4c-1.6,0.3-3.2,1.6-4.7,3.9c-0.6,1-1.5,1.3-2.1,1.4
									c-1.8,0.2-3.1-1-4.4-2.2c-0.5-0.4-1.2-1-1.5-1.2c-2.1-0.8-4.3-1.3-8.5,1.7C715.9,310.6,713.7,312.6,712.5,313.8z
									 M732.4,306.9L732.4,306.9l1.5,1L732.4,306.9z"/>
							</g>
						</g>
						<g>
							<path class="st4" d="M684.5,437.5c-0.5,0-1-0.2-1.3-0.6c-0.6-0.7-0.6-1.9,0.2-2.5c4.9-4.3,13.4-15,14.2-27.7
								c0.8-13-4.7-57.1-4.8-57.5c-0.1-1,0.6-1.9,1.5-2c1-0.1,1.9,0.6,2,1.5c0.2,1.8,5.6,44.8,4.8,58.2
								c-0.9,13.9-10.1,25.5-15.4,30.2C685.3,437.4,684.9,437.5,684.5,437.5z"/>
						</g>
						<g>
							<path class="st4" d="M770.2,418.5c-0.4,0-0.8-0.1-1.1-0.4c-8.4-6.4-8.9-12.6-10-26.2c-0.2-2.5-0.4-5.4-0.8-8.5
								c-2-20,1-34.4,1.1-35c0.2-1,1.2-1.6,2.1-1.4c1,0.2,1.6,1.1,1.4,2.1c0,0.1-3,14.5-1.1,33.9c0.3,3.2,0.6,6,0.8,8.6
								c1.1,13.3,1.5,18.3,8.6,23.7c0.8,0.6,0.9,1.7,0.3,2.5C771.2,418.3,770.7,418.5,770.2,418.5z"/>
						</g>
						<g>
							<path class="st4" d="M751.7,546.6l-0.3,0c-0.9-0.1-1.5-0.9-1.5-1.8c0-0.2-0.1-17.3-6.5-27.3c-3.3-5.1-8.1-10.3-12-14.6
								c-4.6-5-7.2-7.9-7.7-10c-0.6-0.6-2.9-2.4-6.2-4.3c-1.3-0.8-2.6-1.7-3.8-2.7c-2.6-2-5.3-4-9.6-4.9l-2.2-0.4
								c-6.1-1.2-11.8-2.4-16.6-10c-4.9-7.8-15.6-25.6-15.6-25.6c-0.1-0.2-0.2-0.4-0.2-0.7c-0.5-3.3,6.4-11.8,10.7-13.2
								c1.9-0.6,3.6,0,4.5,1.6c0.9,1.6,2.9,4.3,5.3,7.5c3.8,5.1,8.6,11.5,11.9,17.7c5.3,10,7.9,13.3,15.1,15.7
								c3.1,1,5.7,1.1,7.9,1.2c3.3,0.2,6.5,0.3,8.3,3.7c2.7,5-3.8,11.9-6,14.1c0.7,1.5,4,5.1,6.7,8c4,4.3,9,9.7,12.4,15
								c3.3,5.2,5.1,11.8,6,17.5c0.6-4,1-8.7,0.7-13.1c-0.9-12.8-0.7-22.6,0.6-26.4c0-0.7-2.1-3-3.4-4.4c-3.1-3.3-7.3-7.8-3.9-11.6
								c1.8-2,4.3-3.3,6.9-4.6c3.8-1.9,7.7-3.8,9.7-8.4c3.6-8,6.1-22.5,6.7-32.7c0.2-3.7-0.2-7.1-0.5-9.9c-0.4-3.8-0.8-6.6,0.8-8.2
								c0.8-0.8,1.8-1.2,3.2-1.1c3.8,0.2,7.2,3.3,9.9,5.8c1.2,1.1,2.4,2.2,3.2,2.7c4.1,2.4,3.2,8.2,3.1,8.4
								c-0.1,0.9-3.7,22.9-9.7,35.1c-5.2,10.6-13.2,25.1-21.4,28.1c-0.4,0.1-0.8,0.1-1.2,0c0.1,0.7,0.1,1.3-0.1,2
								c-1.1,3.2-1.3,13-0.4,24.9c0.9,12-3,25.1-3.2,25.6C753.2,546.1,752.5,546.6,751.7,546.6z M773,416.3
								c-0.8,0.5-0.5,3.3-0.2,5.4c0.3,2.9,0.7,6.5,0.5,10.5c-0.6,10.5-3.3,25.5-7,33.9c-2.6,5.7-7.2,8-11.4,10.1
								c-2.3,1.2-4.5,2.2-5.8,3.7c-1.1,1.3,1,3.8,3.8,6.9c1.2,1.3,2.3,2.5,3.1,3.7c0.2-0.5,0.5-0.9,1.1-1
								c5.2-1.9,11.7-10.8,19.4-26.4c5.8-11.7,9.4-33.8,9.4-34.1c0,0,0.5-3.6-1.4-4.7c-1.2-0.7-2.5-1.9-3.8-3.1
								C778.3,419,775.6,416.5,773,416.3z M673.1,443.7c1.8,2.9,10.8,18,15.2,25.1c3.9,6.3,8.5,7.2,14.3,8.4l2.2,0.5
								c5.1,1.1,8.2,3.5,11,5.6c1.1,0.9,2.3,1.7,3.5,2.4c2.7,1.6,4.8,3.1,5.9,4c2.8-2.9,6-7.4,4.9-9.4c-0.8-1.6-2-1.7-5.4-1.9
								c-2.4-0.1-5.4-0.2-8.9-1.4c-8.7-2.9-11.9-7.5-17.1-17.4c-3.1-5.9-7.8-12.2-11.6-17.2c-2.5-3.4-4.6-6.1-5.6-7.9
								c0,0-0.7-0.1-2.3,1.2C676.3,438.1,673.5,442.2,673.1,443.7z"/>
						</g>
						<g>
							<path class="st4" d="M572,484.2c-0.8,0-1.6-0.6-1.7-1.5c-0.2-1,0.5-1.9,1.4-2.1c0.1,0,13.6-2.5,35.1-10.6
								c18-6.8,27.2-12.7,33.9-16.9c1.4-0.9,2.7-1.7,4-2.5c7.4-4.5,25.5-8.1,26.2-8.3c0.9-0.2,1.9,0.4,2.1,1.4
								c0.2,1-0.4,1.9-1.4,2.1c-0.2,0-18.2,3.7-25.1,7.8c-1.2,0.7-2.5,1.6-3.9,2.5c-6.8,4.4-16.2,10.4-34.5,17.3
								c-21.8,8.2-35.2,10.6-35.8,10.7C572.2,484.2,572.1,484.2,572,484.2z"/>
						</g>
						<g>
							<path class="st4" d="M732.1,449.4c-4.7,0-10.5-5-11.1-5.6c-0.7-0.6-0.8-1.8-0.2-2.5c0.7-0.7,1.8-0.8,2.5-0.2
								c2.2,1.9,6.6,4.9,9,4.7c0.6,0,0.9-0.3,1.1-0.5c0.6-0.7,1.8-0.8,2.5-0.2c0.7,0.6,0.8,1.8,0.2,2.5c-0.9,1-2.1,1.7-3.6,1.8
								C732.4,449.4,732.3,449.4,732.1,449.4z"/>
						</g>
						<g>
							<path class="st4" d="M835.4,456.6l-0.2,0c-0.5-0.1-13.1-1.4-21.6-4.6c-6.7-2.6-20.7-9.6-21.2-15.1c-0.2-2.1-3.9-4.9-5.6-6
								c-0.8-0.5-1.1-1.6-0.6-2.4c0.5-0.9,1.6-1.1,2.4-0.6c0.7,0.4,7,4.2,7.4,8.7c0.2,2.2,9.4,8.4,18.9,12
								c8.1,3.1,20.6,4.4,20.7,4.4c1,0.1,1.7,1,1.6,1.9C837.1,455.9,836.3,456.6,835.4,456.6z"/>
						</g>
						<g>
							<path class="st4" d="M732,364.4c-11.3,0-20.7-5.6-25.4-8.5c-0.8-0.5-1.4-0.8-1.9-1.1c-0.7-0.4-1.8-0.7-3.1-1.1
								c-7.9-2.2-24.3-6.7-53.1-54.6c-33.6-56-22.2-124.4-22.1-125.1c0.2-1,1-1.6,2-1.4c1,0.2,1.6,1.1,1.4,2
								c-0.1,0.7-11.2,67.8,21.7,122.7c28,46.7,43.5,51,51,53c1.5,0.4,2.8,0.8,3.9,1.4c0.5,0.3,1.2,0.7,2,1.2
								c7.8,4.7,26.2,15.7,44.9-0.7c4.8-4.2,8.1-5.7,10.9-7c4.2-1.9,7.5-3.4,14.4-13.6c7.1-10.6,23.3-56.1,23.9-79.8
								c0.7-29.9,0.9-64.9-0.5-73.4c-0.2-1,0.5-1.9,1.5-2c1-0.1,1.9,0.5,2,1.5c1.8,11,0.9,59.4,0.6,74
								c-0.6,24.2-17.2,70.8-24.5,81.7c-7.4,11.1-11.3,12.8-15.9,14.9c-2.8,1.3-5.7,2.6-10.1,6.5C747.5,362,739.4,364.4,732,364.4z"
								/>
						</g>
						<g>
							<path class="st4" d="M630.6,251.7c-0.2,0-0.3,0-0.5-0.1c-0.4-0.1-10.7-3.6-10.7-26.5c0-21.7,21.4-36.4,46.1-53.3l3.8-2.6
								c24.7-17,26.5-34.1,26.5-34.2c0.1-1,0.9-1.7,1.9-1.6c1,0.1,1.7,1,1.6,1.9c-0.1,0.8-2,18.9-28,36.8l-3.8,2.6
								c-23.9,16.4-44.6,30.5-44.6,50.4c0,20,8.3,23.1,8.3,23.1c0.9,0.3,1.4,1.3,1.1,2.2C632,251.2,631.3,251.7,630.6,251.7z"/>
						</g>
						<g>
							<path class="st4" d="M655.9,294.8L655.9,294.8c-42.1-2.3-55.2-36.7-53.6-65.5c1.8-33.3,29.1-56.3,58.4-76.1
								c25.6-17.4,26.1-31.6,26.1-31.8c0-1,0.8-1.8,1.8-1.8c1,0.2,1.8,0.8,1.8,1.8c0,0.6-0.3,16.1-27.7,34.7
								c-28.6,19.4-55.2,41.7-56.9,73.4c-1.5,27.2,10.8,59.6,50.2,61.8c1,0.1,1.7,0.9,1.7,1.9C657.6,294.1,656.8,294.8,655.9,294.8z
								"/>
						</g>
						<g>
							<path class="st4" d="M641.4,284.6l-0.1,0c-5.5-0.5-22.8-12.9-26.2-22.7c-1.5-4.4,0.1-7.2,1.7-8.7c2.3-2.2,4.9-3,7.5-2.5
								c6.6,1.2,11.3,10.5,11.8,11.6c0.4,0.9,0.1,1.9-0.8,2.4c-0.9,0.4-1.9,0.1-2.4-0.8c-1.2-2.4-5.1-8.9-9.3-9.7
								c-1.5-0.3-3,0.2-4.4,1.6c-0.8,0.7-1.7,2.1-0.7,4.9c3,8.6,19.2,20,23.2,20.3c1,0.1,1.7,0.9,1.6,1.9
								C643.1,283.9,642.3,284.6,641.4,284.6z"/>
						</g>
						<g>
							<path class="st4" d="M615.3,198.6c-0.1,0-0.2,0-0.3,0c-1.9-0.3-7.8-3.6-5.8-33.4c3.3-47.5,33.4-78.9,36.8-82.3
								c11.5-11.5,45.3-29.3,68.5-30.4c21.4-1,49,12.1,61.4,20.6c11.8,8.1,32.6,29.2,38.1,51.2c7.5,29.7,8.5,45.7,3.1,47.5
								c-1,0.3-1.9-0.2-2.2-1.1c-0.3-0.9,0.2-1.9,1.1-2.2c1.2-0.9,2.8-10.6-5.4-43.3c-5.3-21.1-25.3-41.4-36.7-49.2
								c-12-8.3-38.7-21.1-59.3-20c-22,1.1-55.3,18.6-66.1,29.4c-12.1,12.1-33.2,42.5-35.8,80c-1.8,26.9,3,29.7,3,29.7
								c1,0.2,1.5,1,1.3,2C617,198,616.1,198.6,615.3,198.6z"/>
						</g>
						<g>
							<path class="st4" d="M817.2,237.5c-0.4,0-0.7-0.1-1.1-0.4c-0.8-0.6-0.9-1.7-0.4-2.5c6-8,6.6-15.1,2-23
								c-4.6-7.8-21.3-13.8-48.4-17.3c-15.4-2-51.6-6.6-69.2-48.1c-17.5-41,7.9-58.1,8.1-58.3c0.8-0.5,1.9-0.3,2.5,0.5
								c0.5,0.8,0.3,1.9-0.5,2.5c-1,0.6-23.1,15.8-6.8,53.9c16.9,39.5,50.3,43.9,66.4,45.9c28.6,3.7,45.8,10.1,51,19
								c5.4,9.2,4.7,17.8-2.2,26.9C818.2,237.2,817.7,237.5,817.2,237.5z"/>
						</g>
						<g>
							<path class="st4" d="M818.2,209.8c-0.7,0-1.3-0.4-1.6-1c-4.5-9.5-14.6-18.5-28.3-25.3c-3.2-1.6-6.4-3-9.5-4.5
								c-12.8-5.9-26.1-12-48.7-28.9c-36.4-27.1-25.4-58.6-25.3-58.9c0.3-0.9,1.3-1.4,2.3-1.1c0.9,0.3,1.4,1.4,1.1,2.3
								c-0.4,1.2-10.1,29.4,24.1,54.9c22.3,16.6,35.4,22.7,48.1,28.5c3.1,1.5,6.3,2.9,9.5,4.5c14.5,7.1,25.1,16.7,30,26.9
								c0.4,0.9,0,1.9-0.9,2.4C818.7,209.7,818.5,209.8,818.2,209.8z"/>
						</g>
						<g>
							<path class="st4" d="M819.7,238.5c-0.5,0-1-0.2-1.4-0.7c-0.6-0.8-0.5-1.9,0.3-2.5c15.5-12.1,11.8-36.9,7.7-45.2
								c-17-34-44.6-50.9-64.8-59c-45.8-18.5-39.8-41.7-39.5-42.7c0.3-0.9,1.3-1.5,2.2-1.2c0.9,0.3,1.5,1.2,1.2,2.2
								c-0.1,0.2-5.2,21.2,37.4,38.5c20.8,8.4,49.2,25.8,66.7,60.7c4.5,9,8.4,36.1-8.7,49.5C820.4,238.4,820.1,238.5,819.7,238.5z"
								/>
						</g>
						<g>
							<path class="st4" d="M801.9,275.9c-0.5,0-0.9-0.2-1.3-0.5c-0.7-0.7-0.7-1.8,0-2.5c10.1-9.9,24.1-27.8,18.5-33.8
								c-2.3-2.5-4.4-3.5-6.2-3.1c-3.6,0.8-6.2,7-6.8,9.2c-0.3,0.9-1.3,1.5-2.2,1.2c-0.9-0.3-1.5-1.3-1.2-2.2
								c0.3-1,3.2-10.2,9.4-11.6c3.1-0.7,6.4,0.7,9.6,4.1c9.8,10.6-15.6,35.9-18.6,38.8C802.8,275.8,802.3,275.9,801.9,275.9z"/>
						</g>
						<g>
							<path class="st4" d="M716.4,290.6c-1.2,0-2.5-0.5-3.4-2.1c-1.5-2.5-0.3-4.7,1.1-7.4c1.6-3,3.9-7.4,5.1-15.6
								c2.1-14.9-3.6-33.2-3.7-33.4c-0.3-0.9,0.2-1.9,1.2-2.2c0.9-0.3,1.9,0.2,2.2,1.2c0.2,0.8,6,19.3,3.8,35
								c-1.2,8.8-3.8,13.6-5.4,16.8c-1.3,2.5-1.6,3.2-1.2,4c0.3,0.5,0.4,0.7,2.8-0.6c1.8-0.9,4-2,6.3-1.3c3.1,0.9,4.4,0.5,7.7-0.4
								c2.4-0.7,4.6,0,6.6,0.7c0.7,0.2,1.6,0.5,2.1,0.6c0,0,0-0.2,0-0.2c0-1,0.8-1.8,1.8-1.8c1,0,1.8,0.8,1.8,1.8
								c0,1.5-0.5,2.6-1.4,3.2c-1.5,1.1-3.4,0.5-5.5-0.2c-1.4-0.5-3.1-1-4.1-0.8c-4,1.1-6,1.7-10,0.5c-1-0.3-2.4,0.4-3.7,1.1
								C719.4,289.9,717.9,290.6,716.4,290.6z"/>
						</g>
						<g>
							<path class="st4" d="M727.6,317.8c-1.4,0-2.7,0-4-0.1c-14.7-1.1-19.9-4.4-20.1-4.6c-0.8-0.5-1-1.6-0.5-2.5
								c0.5-0.8,1.6-1,2.4-0.5c0.1,0.1,4.9,3,18.4,4c13.8,1,30.7-3.9,35.6-5.8c0.9-0.3,1.9,0.1,2.3,1c0.3,0.9-0.1,1.9-1,2.3
								C756,313.4,741,317.8,727.6,317.8z"/>
						</g>
						<g>
							<g>
								<path class="st1" d="M702,232.3c-1,0.9,0.9,5.3-16.3,9.6c-15.3,3.9-21.1-3.7-21.1-3.7s4-9.3,17.9-10.9
									C696.4,225.6,702,232.3,702,232.3z"/>
							</g>
							<g>
								<path class="st4" d="M677.6,244.8c-10,0-14.1-5.3-14.3-5.5c-0.4-0.5-0.5-1.2-0.2-1.8c0.2-0.4,4.6-10.3,19.3-12
									c14.7-1.7,20.8,5.4,21.1,5.7c0.5,0.7,0.5,1.6,0,2.2c-1.1,3.5-4,6.9-17.2,10.2C682.9,244.5,680.1,244.8,677.6,244.8z
									 M666.8,237.9c1.9,1.6,7.5,5.1,18.5,2.3c12.6-3.2,14.2-6.2,14.6-7.5c-1.8-1.5-7.1-4.9-17.2-3.7
									C672.7,230.2,668.3,235.6,666.8,237.9z"/>
							</g>
						</g>
						<g>
							<path class="st4" d="M709.4,223.4c0,0-7.5-9.1-19-8.3c-11.5,0.8-17.6,0-28,5.6c-10.4,5.6-10.7,8-10.4,5.6
								c0.3-2.4,9.6-8.8,17.1-12c7.5-3.2,17.4-5.1,25.9-3.2C703.6,213,710.5,220.5,709.4,223.4z"/>
						</g>
						<g>
							<path class="st4" d="M677.5,228.1c0,0-7.2,10.1,0.5,12.8c7.7,2.7,15.5-1.3,14.2-7.2c-1.3-5.9-4.8-6.7-8-6.4
								C680.9,227.5,677.5,228.1,677.5,228.1z"/>
						</g>
						<g>
							<g>
								<path class="st1" d="M743,230.7c1.8,2.9,1.5,6.6,17.2,7.8c15.7,1.3,20.6-6,20.6-6s-5-8.9-19-9
									C747.9,223.5,743,230.7,743,230.7z"/>
							</g>
							<g>
								<path class="st4" d="M763.9,240.5c-1.2,0-2.4-0.1-3.8-0.2c-13.7-1.1-16.2-4-18.1-7.7c-0.2-0.3-0.3-0.7-0.5-1
									c-0.4-0.6-0.3-1.3,0-1.9c0.2-0.3,5.5-7.9,20-7.9c0.1,0,0.2,0,0.4,0c14.8,0.1,20.3,9.5,20.5,9.9c0.3,0.6,0.3,1.3-0.1,1.9
									C782.1,233.9,777.5,240.5,763.9,240.5z M745.2,230.9L745.2,230.9c1.2,2.3,2.4,4.8,15.2,5.8c11.2,0.9,16.4-2.6,18.2-4.3
									c-1.7-2.2-6.6-7-16.7-7.1c-0.1,0-0.2,0-0.3,0C751.6,225.4,746.8,229.2,745.2,230.9z"/>
							</g>
						</g>
						<g>
							<path class="st4" d="M736.6,221.9c0,0,6.5-9.8,18-10.2c11.5-0.4,17.5-1.9,28.5,2.6c11,4.5,11.5,6.8,11,4.5
								c-0.5-2.4-10.5-7.7-18.3-10.1c-7.8-2.4-17.8-3.2-26.1-0.4C741.3,210.9,735.2,219,736.6,221.9z"/>
						</g>
						<g>
							<path class="st4" d="M767,223.9c0,0,8.2,9.3,0.8,12.8c-7.4,3.5-15.5,0.3-14.8-5.7c0.7-6,4.1-7.1,7.3-7.2
								C763.5,223.7,767,223.9,767,223.9z"/>
						</g>
						<g>
							<path class="st4" d="M665.1,72.3c-0.3,0-0.6-0.1-0.9-0.2c-0.6-0.3-13.9-7.9-21.9-20.6c-8.6-13.6,3.9-30.3,20.1-40.9
								c5.1-3.3,10.2-4.5,15-3.4c5.6,1.2,9.3,5.1,11,7.1c9.1-6,18.8-10.4,25.8-9.6c13,1.5,33.1,16.2,34.6,25.3
								c1.5,8.6-3.6,23.9-6.8,29.1c-0.5,0.8-1.6,1.1-2.4,0.6c-0.8-0.5-1.1-1.6-0.6-2.4c2.9-4.7,7.6-19.2,6.3-26.6
								c-1.2-6.9-19.6-21-31.6-22.4C703.1,6.8,683,21,672.6,31.8c-10,10.4-12.5,15-11.6,21.3c1,7.1,5.7,16.5,5.7,16.6
								c0.4,0.7,0.2,1.5-0.4,2.1C666,72.1,665.6,72.3,665.1,72.3z M674.1,10.3c-3.1,0-6.3,1.1-9.6,3.2c-14.2,9.3-26.3,24.5-19,36
								c4.6,7.2,11.1,12.8,15.6,16.1c-1.4-3.5-3-8-3.6-12.1c-1.2-8.4,2.9-14.2,12.6-24.3c4-4.1,9.5-8.9,15.5-13.1
								c-1.4-1.7-4.5-4.7-8.8-5.6C675.9,10.4,675,10.3,674.1,10.3z"/>
						</g>
						<g>
							<path class="st4" d="M674.6,67.2c-0.6,0-1.2-0.3-1.5-0.8c-0.5-0.8-2.8-5.1,3.9-15.2c5.8-8.7,19.8-22.2,33.3-22.2
								c0.2,0,0.4,0,0.6,0c7.5,0.2,16,5.3,20.7,12.4c3.3,5,4.3,10.2,2.6,14.6c-0.3,0.9-1.4,1.4-2.3,1c-0.9-0.3-1.4-1.4-1-2.3
								c1.2-3.3,0.4-7.3-2.2-11.3c-4.1-6.2-11.5-10.6-17.9-10.8c-11.6-0.2-25,11.8-30.9,20.6c-5.4,8.1-3.9,11.3-3.9,11.3
								c0.6,0.8,0.3,1.9-0.5,2.4C675.3,67.1,674.9,67.2,674.6,67.2z"/>
						</g>
					</g>
					<g>
						<path class="st1" d="M693.4,236.2c0,1.7-1.5,3.1-3.4,3.1c-1.9,0-3.4-1.4-3.4-3.1c0-1.7,1.5-3.1,3.4-3.1
							C691.9,233.1,693.4,234.5,693.4,236.2z"/>
					</g>
					<g>
						<path class="st1" d="M771.7,234.4c0,1.7-1.5,3.1-3.4,3.1c-1.9,0-3.4-1.4-3.4-3.1c0-1.7,1.5-3.1,3.4-3.1
							C770.2,231.3,771.7,232.7,771.7,234.4z"/>
					</g>
				</g>
			</g>
		</g>
		<g>
			<g>
				<g>
					<path class="st2" d="M1135,499.3c16.1-25.4,25.9-41.9,25.9-41.9s-118.7-49.2-135-49.2c-1.8,0-2.8,0-3.5,0
						c2.7,0.3,10.8,2.4-31.7,13c-60.2,15.1-113.8,9.6-113.8,9.6s-33.9,7.9-42.7,24.7c-8.8,16.7-6,172.3,74.7,165.1
						c49.6-4.4,125.4,30,186.2-60.3L1135,499.3z"/>
				</g>
				<g>
					<path class="st8" d="M881.2,331.1c0,0,14.2,79.9,9.6,94.6c-4.6,14.6,46.4,20.9,46.4,20.9s20.1,2.9,28.9,52.3
						c0,0-1-21.2-0.3-30.2c0.7-9.1-1.4-20.8,10.3-20.8c11.7,0,33.1-31.8,33.5-33.1c0.4-1.3,0-78.7,0-78.7L881.2,331.1z"/>
				</g>
				<g>
					<g>
						<g>
							<path class="st8" d="M848.5,220.7c0,0-5.7-31.7-20.8-17.6c-15.1,14.1,3.2,50.1,13.3,53.6C851,260.2,851,240.5,848.5,220.7z"
								/>
						</g>
						<g>
							<path class="st4" d="M843.1,258.8c-0.8,0-1.7-0.1-2.8-0.5c-7.1-2.5-16.3-17.4-19.2-31.2c-1.6-7.7-2-18.4,5.3-25.2
								c3.9-3.6,7.6-4.8,11.1-3.6c8.8,2.9,12.2,20.2,12.5,22.2l0,0.1c2.6,20.6,1.6,33.1-3.2,36.9
								C846.2,258.1,844.9,258.8,843.1,258.8z M835.1,201.2c-1.9,0-4,1.1-6.2,3.2c-6.2,5.8-5.8,15.2-4.3,22.1
								c2.9,13.6,11.6,26.8,17,28.7c1.9,0.7,2.9,0.1,3.4-0.3c1.7-1.4,5.3-7.5,1.9-33.8c-0.9-4.8-4.4-17.6-10.3-19.6
								C836.1,201.2,835.6,201.2,835.1,201.2z"/>
						</g>
					</g>
					<g>
						<g>
							<path class="st8" d="M1035.3,215.6c0,0-3.2-24,15.1-18.3c18.3,5.7-1.9,65-12,58.1c-10.1-6.9-3.8-37.2-3.8-37.2L1035.3,215.6z
								"/>
						</g>
						<g>
							<path class="st4" d="M1040.2,257.6c-1,0-1.9-0.3-2.7-0.9c-10.7-7.4-5.1-35.7-4.5-39l0.6-2.3c-0.2-2.1-1.1-13.4,4.8-18.4
								c3.1-2.6,7.3-3.1,12.5-1.4c3.2,1,7.2,4,8.3,12.6c1.9,15.5-7.2,43-16,48.3C1042.2,257.3,1041.2,257.6,1040.2,257.6z
								 M1045.3,198.1c-1.9,0-3.5,0.5-4.8,1.6c-4.2,3.5-4,12.5-3.6,15.7c0,0.2,0,0.4,0,0.6l-0.6,2.5c-1.7,8.1-4.4,30.3,3.1,35.4
								c0.3,0.2,0.8,0.6,2.1-0.2c7-4.3,16.2-30.1,14.4-45c-0.7-5.5-2.7-8.8-6-9.8C1048.2,198.4,1046.7,198.1,1045.3,198.1z"/>
						</g>
					</g>
					<g>
						<g>
							<path class="st8" d="M841.6,219.4c0-22.7-16.4-61.8-3.8-85.8c12.6-24,53-84.6,107.9-68.1c54.9,16.4,95.3,59.3,95.3,86.4
								c0,27.1-3.2,56.2-2.5,69.4c0.6,13.3,6.9,82-12,111.1c-18.9,29-64.4,53.6-102.2,39.8c-37.9-13.9-68.1-48.6-75.7-79.5
								C840.9,261.7,841.6,219.4,841.6,219.4z"/>
						</g>
						<g>
							<path class="st4" d="M947.1,377.7c-8,0-15.9-1.3-23.5-4c-36.3-13.3-68.6-47.2-76.8-80.7c-7.5-30.6-7-72.7-7-73.6
								c0-7.5-1.8-16.9-3.8-26.9c-4-20.3-8.4-43.2,0.2-59.6c7.7-14.7,49.4-87,109.9-69c55.2,16.5,96.5,60.1,96.5,88.1
								c0,14-0.8,28.4-1.6,41.1c-0.7,11.8-1.3,21.9-1,28.3c0.1,1.2,0.2,2.8,0.3,4.8c1.2,19.9,5,80.4-12.5,107.3
								C1011.9,357.8,978.9,377.7,947.1,377.7z M927,64.3c-48.1,0-81,57.3-87.7,70c-8.1,15.4-3.7,37.7,0.1,57.4
								c2,10.2,3.9,19.8,3.9,27.6l0,0c0,0.4-0.5,42.4,6.9,72.8c7.9,32.4,39.3,65.4,74.7,78.3c36.1,13.2,81-9.5,100.2-39.1
								c16.9-26,13.2-85.6,12-105.3c-0.1-2-0.2-3.6-0.3-4.8c-0.3-6.5,0.3-16.8,1-28.6c0.7-12.6,1.6-27,1.6-40.9
								c0-26.8-40.2-68.7-94.1-84.8C938.9,65.2,932.8,64.3,927,64.3z M841.6,219.4L841.6,219.4L841.6,219.4z"/>
						</g>
					</g>
					<g>
						<g>
							<path class="st3" d="M981.6,175.9c14.5,0.6,24,5.7,31.5,6.3c7.6,0.6,8.8-4.4,1.3-12c-7.6-7.6-20.2-12-34.1-5.7
								c-13.9,6.3-12.6,16.4-7.6,15.1S981.6,175.9,981.6,175.9z"/>
						</g>
						<g>
							<path class="st4" d="M1014.4,183.9c-0.4,0-0.9,0-1.3-0.1c-3.2-0.3-6.6-1.2-10.5-2.4c-5.7-1.6-12.2-3.5-20.5-3.9
								c-1.2,0.7-4.6,2.6-8.9,3.7c-2.3,0.6-4.5-0.5-5.3-2.8c-1.2-3.5,0.9-10.6,11.8-15.5c15.2-6.9,28.5-1.4,36,6
								c4.7,4.7,6.5,8.9,5.1,11.8C1020.2,182,1018.7,183.9,1014.4,183.9z M981.6,174.2L981.6,174.2c9,0.4,16.1,2.4,21.9,4.1
								c3.7,1.1,7,2,9.8,2.2c2.3,0.2,4-0.2,4.4-1.1c0.6-1.2-0.6-4.2-4.5-8c-6.6-6.6-18.6-11.5-32.2-5.3c-9,4.1-10.6,9.5-10,11.3
								c0.2,0.6,0.6,0.8,1.3,0.6c4.7-1.2,8.3-3.6,8.3-3.6C981,174.3,981.3,174.2,981.6,174.2z"/>
						</g>
					</g>
					<g>
						<g>
							<path class="st1" d="M970.3,203.6c9.9-5.5,22.1-11.4,34.1-6.9c12,4.4,11.4,10.7,6.3,13.3c-5,2.5-10.1,7.6-25.2,5.7
								C970.3,213.7,964.6,206.8,970.3,203.6z"/>
						</g>
						<g>
							<path class="st4" d="M991.6,217.7c-1.9,0-4-0.1-6.4-0.4c-10.5-1.3-17.8-5.1-18.7-9.8c-0.4-2.1,0.7-4.1,2.9-5.4l0,0
								c11.3-6.3,23.4-11.5,35.5-7.1c9.1,3.4,10.7,7.6,10.8,9.8c0.1,2.6-1.5,5.1-4.3,6.5c-0.8,0.4-1.6,0.9-2.4,1.4
								C1005.3,214.9,1000.5,217.7,991.6,217.7z M971.1,205.1c-1.5,0.8-1.3,1.6-1.3,1.8c0.4,2.2,5.6,5.8,15.8,7.1
								c12.1,1.5,17.4-1.6,21.7-4.1c0.9-0.5,1.8-1,2.6-1.5c0.8-0.4,2.6-1.5,2.5-3.3c-0.1-2.4-3.4-4.9-8.6-6.9
								C992.5,194.1,981,199.6,971.1,205.1z"/>
						</g>
					</g>
					<g>
						<path class="st4" d="M1002.3,196c-7.8-2.1-15.5-0.2-22.7,2.9c-1.3,3.7-0.4,8,7.1,11.6C999,216.5,1003.8,204.2,1002.3,196z"/>
					</g>
					<g>
						<g>
							<path class="st3" d="M904.5,175.9c-14.5,0.6-24,5.7-31.5,6.3c-7.6,0.6-8.8-4.4-1.3-12c7.6-7.6,20.2-12,34.1-5.7
								c13.9,6.3,12.6,16.4,7.6,15.1C908.3,178.4,904.5,175.9,904.5,175.9z"/>
						</g>
						<g>
							<path class="st4" d="M871.8,183.9c-4.3,0-5.8-1.9-6.4-3.1c-1.4-2.9,0.5-7.1,5.1-11.8c7.4-7.4,20.8-12.9,36-6
								c10.9,4.9,13,12,11.8,15.5c-0.8,2.3-2.9,3.4-5.3,2.8c-4.3-1.1-7.7-3-8.9-3.7c-8.3,0.4-14.8,2.3-20.5,3.9
								c-3.9,1.1-7.3,2.1-10.5,2.4C872.6,183.9,872.2,183.9,871.8,183.9z M892.5,163.2c-8.2,0-15.1,3.7-19.6,8.2
								c-3.9,3.9-5,6.8-4.5,8c0.4,0.9,2.1,1.3,4.4,1.1c2.8-0.2,6.1-1.2,9.8-2.2c5.7-1.6,12.9-3.7,21.8-4.1c0.4,0,0.7,0.1,1,0.3
								c0,0,3.6,2.4,8.3,3.6c0.7,0.2,1.1,0,1.3-0.6c0.6-1.8-1-7.3-10-11.3C900.7,164,896.5,163.2,892.5,163.2z"/>
						</g>
					</g>
					<g>
						<g>
							<path class="st1" d="M915.9,203.6c-9.9-5.5-22.1-11.4-34.1-6.9c-12,4.4-11.4,10.7-6.3,13.3s10.1,7.6,25.2,5.7
								C915.9,213.7,921.6,206.8,915.9,203.6z"/>
						</g>
						<g>
							<path class="st4" d="M894.5,217.7c-8.9,0-13.7-2.8-17.4-4.9c-0.8-0.5-1.6-1-2.4-1.4c-2.9-1.4-4.5-3.9-4.3-6.5
								c0.1-2.2,1.7-6.5,10.8-9.8c12-4.4,24.2,0.8,35.5,7.1l0,0c2.3,1.3,3.4,3.2,2.9,5.4c-0.9,4.6-8.2,8.4-18.7,9.8
								C898.6,217.6,896.5,217.7,894.5,217.7z M890.7,196.8c-2.8,0-5.6,0.4-8.3,1.5c-5.3,1.9-8.5,4.5-8.6,6.9
								c-0.1,1.8,1.7,2.9,2.5,3.3c0.9,0.4,1.7,0.9,2.6,1.5c4.3,2.5,9.6,5.6,21.6,4.1c10.2-1.3,15.4-4.9,15.8-7.1
								c0-0.2,0.2-1-1.3-1.8C907.6,201,899.2,196.8,890.7,196.8z"/>
						</g>
					</g>
					<g>
						<path class="st4" d="M890.4,196.2c8-0.8,15.4,2.3,21.9,6.5c0.7,3.9-0.9,8-8.8,10.4C890.4,216.9,887.7,204,890.4,196.2z"/>
					</g>
					<g>
						<path class="st4" d="M953.8,288.1c-3.8,0-8.2-1.1-12.8-4.2c-5.1-3.3-9.2-2.9-12.8-2.4c-3.5,0.4-7.1,0.8-9.8-3
							c-1.3-1.8-1.6-4-0.9-6.2c1.8-5.9,10.6-11.4,16.2-13.4c2.7-1,2.7-2.6,2.3-7.3c-0.3-3-0.7-6.6,0.5-10.5
							c1.9-6.8,1.5-18.6,1.3-25.7c-0.1-1.9-0.1-3.6-0.1-4.7c0-0.9,0.8-1.7,1.7-1.7c0.9,0,1.7,0.8,1.7,1.7c0,1.1,0.1,2.7,0.1,4.6
							c0.3,7.8,0.6,19.5-1.4,26.8c-0.9,3.3-0.6,6.5-0.3,9.3c0.4,4.3,0.9,8.8-4.5,10.8c-5,1.8-12.7,6.8-14.1,11.3
							c-0.4,1.2-0.2,2.2,0.4,3.2c1.5,2.1,3.1,2,6.6,1.6c3.7-0.4,8.9-1,15,3c9.7,6.3,17.6,3.2,20.5-0.3c2.3-2.8,7.9-3.1,13.2-3.4
							c2.9-0.2,6-0.3,7.2-0.9c0.6-0.3,0.7-1.2,0.7-1.6c-0.2-2.5-3.4-8.2-14.7-12.2c-0.9-0.3-1.3-1.3-1-2.1c0.3-0.9,1.3-1.3,2.1-1
							c12,4.3,16.6,10.8,16.9,15.1c0.1,2.2-0.8,4-2.5,4.8c-1.8,0.9-4.9,1.1-8.5,1.3c-4,0.2-9.4,0.5-10.8,2.2
							C963.7,285.6,959.3,288.1,953.8,288.1z"/>
					</g>
					<g>
						<g>
							<path class="st2" d="M936.2,311.5c0,0-20.2-2.5-10.7,12c9.5,14.5,28.4,13.3,43.5,6.9c15.1-6.3,16.4-17.7,5.7-20.2
								C964,307.8,936.2,311.5,936.2,311.5z"/>
						</g>
						<g>
							<path class="st4" d="M948.5,336.6c-9.6,0-18.7-3.3-24.4-12.1c-2.9-4.5-3.6-8.1-1.9-10.8c3-4.8,12.2-4,14-3.8
								c2.8-0.4,28.4-3.7,38.9-1.2c4.9,1.1,8,4.2,8.3,8.1c0.5,5.7-4.8,11.6-13.7,15.3C963.1,334.8,955.6,336.6,948.5,336.6z
								 M933.1,313c-3,0-6.9,0.5-8.1,2.4c-1.1,1.8,0.4,4.9,1.9,7.2c8.9,13.7,27.3,12.2,41.5,6.3c8.4-3.5,11.9-8.5,11.7-11.9
								c-0.2-2.4-2.3-4.3-5.7-5.1c-10.3-2.4-37.6,1.3-37.9,1.3c-0.1,0-0.3,0-0.4,0C935.3,313.1,934.3,313,933.1,313z"/>
						</g>
					</g>
					<g>
						<path class="st4" d="M889.2,442c-0.1,0-0.2,0-0.3,0c-0.9-0.2-1.5-1.1-1.3-2c3.7-17.2-8.7-92-8.8-92.8
							c-0.2-0.9,0.5-1.8,1.4-1.9c0.9-0.1,1.8,0.5,1.9,1.4c0.5,3.1,12.6,76.2,8.8,94C890.7,441.4,890,442,889.2,442z"/>
					</g>
					<g>
						<path class="st4" d="M1013.2,411.7c-0.8,0-1.5-0.6-1.7-1.4c-1.3-7.6-1.3-58.1-1.3-60.2c0-0.9,0.8-1.7,1.7-1.7
							c0.9,0,1.7,0.8,1.7,1.7c0,0.5,0,52.3,1.2,59.7c0.2,0.9-0.5,1.8-1.4,1.9C1013.4,411.6,1013.3,411.7,1013.2,411.7z"/>
					</g>
					<g>
						<g>
							<path class="st2" d="M941.3,445.9c7.2,5.4-53-29.7-59.9-31.5c-6.9-1.9-8.8,17-8.8,17s12.6,13.3,22.1,29.7
								c9.5,16.4,31.5,59.3,32.8,64.4s1.9-7.6,3.8-27.8C933.1,477.5,938.7,444,941.3,445.9z"/>
						</g>
						<g>
							<path class="st4" d="M927.9,528.2c-1.5,0-2-1.7-2.1-2.4c-1.2-4.8-23.3-47.7-32.6-63.9c-9.2-16-21.7-29.2-21.8-29.3
								c-0.3-0.4-0.5-0.8-0.5-1.3c0.1-1.4,1.6-14.3,6.6-17.7c1.3-0.9,2.8-1.2,4.3-0.8c3.7,1,19.3,9.6,39.3,20.7
								c8.1,4.5,16.4,9.1,19.7,10.8c0.6,0,1.1,0.1,1.5,0.4c0.5,0.3,1.9,1.4,1,2.8c-0.4,0.6-0.6,1-1.8,0.6
								c-2.3,5.2-6.8,30.9-8.6,49.8c-0.4,4.4-0.8,8.4-1.1,12c-1.5,17.6-1.7,18.2-3.7,18.4L927.9,528.2z M874.2,430.8
								c2.5,2.7,13.4,14.9,21.8,29.4c7.6,13.2,25.7,47.9,31.3,60.6c0.3-3,0.7-7.1,1.1-11.3c0.3-3.6,0.7-7.6,1.1-12
								c0.5-5.6,4.7-41,9-50.8c-3.2-1.6-8.8-4.7-19-10.4c-14.8-8.2-35-19.4-38.6-20.4c-0.6-0.2-1.1-0.1-1.6,0.3
								C876.6,418.2,874.8,425.9,874.2,430.8z"/>
						</g>
					</g>
					<g>
						<g>
							<path class="st2" d="M970.9,449.7c7.6-3.8,39.8-37.2,42.9-48.6c0,0,6.9,1.9,13.3,3.2c6.3,1.3,15.1,0,6.9,15.8
								c-8.2,15.8-32.8,92.1-31.5,97.2s-16.4-33.4-20.2-47.3C978.5,456,970.9,449.7,970.9,449.7z"/>
						</g>
						<g>
							<path class="st4" d="M1002.3,519.4c-1.3,0-2.7-2.2-10.5-20c-2.6-6.1-9-21-11.2-29.1c-3.6-13.2-10.7-19.3-10.8-19.3
								c-0.4-0.4-0.7-0.9-0.6-1.5c0.1-0.6,0.4-1.1,0.9-1.3c7-3.5,39-36.4,42-47.5c0.2-0.9,1.1-1.4,2.1-1.2c0,0,7,1.9,13.1,3.1
								c0.8,0.2,1.6,0.3,2.4,0.4c3.2,0.5,6.9,1,8.5,4c1.5,2.9,0.6,7.2-2.8,13.8c-8.4,16.2-32.1,90.7-31.4,96
								c0.5,1.9-0.9,2.4-1.2,2.4C1002.7,519.4,1002.5,519.4,1002.3,519.4z M973.6,450c2.5,2.7,7.4,9,10.3,19.5
								c2.8,10.4,12.9,33.3,17.6,42.8c3.9-19.3,24.5-80.4,31.1-93c3.4-6.6,3.4-9.5,2.8-10.7c-0.8-1.5-3.3-1.9-6-2.2
								c-0.9-0.1-1.8-0.3-2.6-0.4c-4.5-0.9-9.4-2.2-11.9-2.8C1009.9,415.4,983.2,443.2,973.6,450z"/>
						</g>
					</g>
					<g>
						<path class="st4" d="M835.9,453.9c-0.5,0-1-0.2-1.4-0.7c-0.5-0.8-0.4-1.8,0.4-2.3c1-0.7,25-17.9,37.1-21.1
							c0.9-0.2,1.8,0.3,2,1.2c0.2,0.9-0.3,1.8-1.2,2c-11.6,3-35.8,20.4-36,20.6C836.6,453.8,836.2,453.9,835.9,453.9z"/>
					</g>
					<g>
						<path class="st4" d="M1078.2,424.3c-5.8,0-36.7-9.7-40.3-10.8c-0.9-0.3-1.4-1.2-1.1-2.1c0.3-0.9,1.2-1.4,2.1-1.1
							c9.4,3,34.8,10.6,39.2,10.6c0.9,0,1.7,0.8,1.7,1.7C1079.9,423.5,1079.1,424.3,1078.2,424.3z"/>
					</g>
					<g>
						<path class="st4" d="M967.1,501.9c-0.8,0-1.6-0.6-1.7-1.5c0-0.1-2-14.5-9.4-32.4c-7.1-17.2-15.4-20.5-15.4-20.5
							c-0.9-0.3-1.3-1.3-1-2.1c0.3-0.9,1.3-1.3,2.1-1c0.4,0.1,9.6,3.6,17.4,22.4c2.9,7.1,5,13.6,6.5,19c-0.1-5.2-0.5-11.2-1.5-16.8
							c-2.7-15.5,5.5-20.5,5.9-20.7c0.8-0.5,1.8-0.2,2.3,0.6c0.5,0.8,0.2,1.8-0.6,2.3c-0.3,0.2-6.5,4.2-4.2,17.2
							c2.5,14.6,1.3,31.3,1.3,32C968.7,501.2,968,501.9,967.1,501.9L967.1,501.9z"/>
					</g>
					<g>
						<path class="st4" d="M959.6,437.5c-0.2,0-0.3,0-0.5-0.1c-0.9-0.3-1.4-1.2-1.2-2.1c5-17.4,10-53.7,10-54c0.1-0.9,1-1.5,1.9-1.4
							c0.9,0.1,1.6,1,1.4,1.9c0,0.4-5.1,36.9-10.1,54.5C961,437,960.3,437.5,959.6,437.5z"/>
					</g>
					<g>
						<g>
							<path class="st2" d="M916.6,314.7c11.3-4.5,13.3-5.7,20.2-8.2c6.9-2.5,13.9-2.5,21.5-1.9c7.6,0.6,18.9,5.7,24,5.7
								s14.5,3.2-2.5,5C962.7,317.2,910.3,317.2,916.6,314.7z"/>
						</g>
						<g>
							<path class="st4" d="M940.4,318.3c-13.5,0-25.3-0.6-25.9-2.8c-0.1-0.4-0.3-1.7,1.5-2.4c5-2,8.2-3.4,10.8-4.4
								c3.3-1.4,5.6-2.4,9.5-3.8c7.5-2.7,15.1-2.6,22.2-2c4,0.3,8.9,1.8,13.6,3.2c4.1,1.3,8.1,2.4,10.3,2.4c0,0,8.7,0.2,8.9,3.8
								c0.1,2.4-2.9,3.6-11.2,4.6C977.2,317.3,957.4,318.3,940.4,318.3z M921.7,314.5c12.1,0.8,44.2,0.7,57.9-0.8
								c3.5-0.4,5.6-0.8,6.8-1.1c-1.2-0.3-2.7-0.6-4.1-0.6c-2.7,0-6.7-1.2-11.3-2.6c-4.3-1.3-9.2-2.8-12.9-3.1
								c-7.7-0.6-14.2-0.6-20.7,1.8c-3.8,1.4-6.1,2.4-9.3,3.7C926.4,312.5,924.3,313.4,921.7,314.5z"/>
						</g>
					</g>
					<g>
						<ellipse class="st1" cx="907.6" cy="208.5" rx="4.7" ry="4"/>
					</g>
					<g>
						<ellipse class="st1" cx="997.5" cy="207.5" rx="4.7" ry="4"/>
					</g>
				</g>
			</g>
			<g>
				<path class="st4" d="M874.7,123.2c-0.6,0-1.1-0.3-1.4-0.8c-0.5-0.8-0.2-1.8,0.6-2.3c0.9-0.5,22.5-13.1,42.2-12.1
					c8.5,0.4,13.4,1.4,17.3,2.1c5.1,1,8.4,1.6,16.4,0.5c4.4-0.6,8.3-1.3,11.9-1.9c8.5-1.5,15.3-2.6,21.9-2.2
					c9.4,0.5,16.6,2.6,16.9,2.6c0.9,0.3,1.4,1.2,1.1,2.1c-0.3,0.9-1.2,1.4-2.1,1.2c0,0-7.2-2-16.1-2.5c-6.3-0.4-12.9,0.8-21.2,2.2
					c-3.7,0.6-7.6,1.3-12,1.9c-8.5,1.2-12.3,0.5-17.5-0.5c-3.8-0.7-8.6-1.6-16.8-2.1c-18.9-1-40.1,11.5-40.3,11.6
					C875.3,123.1,875,123.2,874.7,123.2z"/>
			</g>
			<g>
				<path class="st4" d="M877.3,110.3c-0.8,0-1.5-0.6-1.7-1.4c-0.2-0.9,0.4-1.8,1.4-1.9c0,0,8.8-1.6,21.5-5.6
					c14.4-4.6,24.5-3.4,30.4-1.6c1.1,0.3,2.4,0.8,3.7,1.3c6.8,2.4,16,5.6,24.1,2.4c0.9-0.3,1.8,0.1,2.2,0.9c0.3,0.9-0.1,1.8-0.9,2.2
					c-9.2,3.7-19.6,0.1-26.4-2.3c-1.3-0.5-2.5-0.9-3.6-1.2c-5.5-1.7-14.9-2.8-28.4,1.5c-12.9,4.1-21.5,5.7-21.9,5.7
					C877.5,110.3,877.4,110.3,877.3,110.3z"/>
			</g>
			<g>
				<path class="st4" d="M897,223.9c-2.3,0-4.4-0.2-6.2-0.5c-10.2-2.1-14.1-6-14.3-6.1c-0.7-0.7-0.7-1.7,0-2.4
					c0.7-0.7,1.7-0.7,2.4,0c0,0,3.5,3.3,12.6,5.2c10.1,2.1,27.6-2.9,28.5-5.7c0.3-0.9,1.2-1.3,2.1-1c0.9,0.3,1.3,1.3,1,2.1
					C921.5,220.2,907.4,223.9,897,223.9z"/>
			</g>
			<g>
				<path class="st4" d="M968.1,214.6c0-0.7,1-0.9,1.6-0.8c0.7,0.1,1.2,0.5,1.4,1.1c0,0,2.1,5.2,14.1,6.6c8.7,1,16.6-2.1,20.5-5.6
					c1.5-1.4,1.9-2.3,1.9-2.5c0-0.6-0.2-0.7-0.2-0.7c-0.5-0.4-1.8-0.3-2.4-0.2c-0.9,0.2-1.8-0.4-2-1.3c-0.2-0.9,0.4-1.8,1.3-2
					c0.3-0.1,3.3-0.7,5.2,0.9c0.7,0.5,1.5,1.6,1.5,3.4c0,1.9-1.6,3.8-3,5c-4.5,4-13.4,7.6-23.1,6.5c-7.7-0.9-12-3.3-14.3-5.4
					C968.6,217.5,968.1,215.9,968.1,214.6z"/>
			</g>
		</g>
		<g>
			<g>
				<path class="st2" d="M592.1,411.5c0,0-6.4,68.2-13.4,96.9c-7,28.7-45.9,77.8-70.1,88.6c0,0-12.1,8.9-12.8-22.3
					c-0.6-31.2,3.2-82.3,3.2-82.3s-2.6-3.8,2.6-15.3c5.1-11.5,15.9-45.3,24.2-59.3c8.3-14,0-15.3,11.5-15.3
					C548.8,402.5,555.1,417.9,592.1,411.5z"/>
			</g>
			<g>
				<path class="st2" d="M351.7,421.7c0,0,31.2-3.2,31.2-5.1c0-1.9-6.4-4.5,6.4-10.8c12.8-6.4,23-10.8,23-10.8s-7.7-8.9,2.6,26.8
					c10.2,35.7,24.2,60.6,24.2,60.6s11.5,23,10.2,33.8c-1.3,10.8,5.1,30,3.2,56.1c-1.9,26.1,0.6,28.7-32.5,11.5
					c-33.2-17.2-56.8-72.7-61.9-101.4C353,453.6,351.7,421.7,351.7,421.7z"/>
			</g>
			<g>
				<path class="st3" d="M449.5,79.3c0,0-12.8-25.5-51-14c0,0-37.8,2.1-80.8,104.2c-42.9,102,44.6,156.4,44.6,156.4l25.9,10.2
					c0,0,25.5,15.7,15.7,7.2c-9.8-8.5-25.9-19.6-31-42.9c-5.1-23.4-3.4-85,3.4-102.5s30.2-34.9,34.4-38.3c4.3-3.4,31-17.9,38.3-32.7
					c7.2-14.9,6.3-22,6.3-22s14.9,25.8,37.9,45.8c23,20,52.3,44.6,59.5,80.3c7.2,35.7-3,77.4-16.6,91.8c-13.6,14.5,2.6,3.8,2.6,3.8
					s-1.3,11.1,21.7-1.7c23-12.8,13.6-8.5,13.6-8.5s-1.7,7.7,10.2,0c11.9-7.7,39.1-48,28.9-96.5C603,171.5,588.5,124.3,552,97.5
					c-36.6-26.8-67.6-38.7-85.9-28.9C447.8,78.4,449.5,79.3,449.5,79.3z"/>
			</g>
			<g>
				<path class="st8" d="M455,109.9c0,0,11.5,4.8-18.2,38.6c-29.7,33.8-54.5,30.6-59,72.1c-4.5,41.4,9.9,65.4,22.6,78.8
					c12.8,13.4,24.6,25.2,26.8,30.6s8,31.2,4.5,55.5c-3.5,24.2-16.3,33.2-16.3,33.2s11.8,35.1,20.4,46.5c8.6,11.5,14,23.6,14.7,48.1
					c0.6,24.6,2.2,30.6,2.2,30.6s4.8,11.2,16.3,11.2c11.5,0,26.8,2.6,26.5-8c-0.3-10.5-4.8-49.4-4.8-56.4c0-7,13.1-42.4,17.9-58.3
					c4.8-15.9,4.8-8.9-2.6-38.9c-7.3-30-0.3-67.6-0.3-67.6s27.7-37,30.6-63.4c2.9-26.5-0.6-59.9-0.6-59.9s-11.5-19.4-24.9-28.7
					c-13.4-9.2-29.3-26.5-37.3-31.6C465.6,137,455,109.9,455,109.9z"/>
			</g>
			<g>
				<path class="st1" d="M505.7,214.8c0,0-36.7,2.9-16.6,10.5c20.1,7.7,33.5-6.4,25.5-8.9C506.7,213.8,505.7,214.8,505.7,214.8z"/>
			</g>
			<g>
				<path class="st1" d="M433.4,217.6c0,0-43,0.3-24.2,10.2c18.8,9.9,29.3-5.1,29.3-5.1S439.4,218.6,433.4,217.6z"/>
			</g>
			<g>
				<g>
					<path class="st4" d="M468.9,351.9c-7.5,0-15.1-1.8-21.5-5.4c-7.9-4.4-14.6-10.7-21-16.8c-2.6-2.5-5.3-5-8-7.3
						c-9.1-7.9-16.4-14.8-22.8-22.9c-20.6-26.3-24.2-59.2-26-87.9c-0.1-1,0.7-1.8,1.6-1.9c1-0.1,1.8,0.7,1.9,1.6
						c1.7,28.2,5.3,60.4,25.2,85.9c6.2,7.9,13.4,14.7,22.3,22.4c2.8,2.4,5.4,4.9,8.1,7.4c6.3,5.9,12.8,12,20.4,16.3
						c11,6.2,26.6,6.6,37,0.9c6.7-3.6,12.2-10.8,17.5-17.7c2-2.6,4-5.2,6-7.5c20.7-24,31.7-47.6,33.6-72.1
						c1.3-16.6,0.1-33.5-2.2-53.6l-0.2-2.2c-1.3-11.6-2.6-23.5-6.7-34.1c-0.3-0.9,0.1-1.9,1-2.3c0.9-0.4,1.9,0.1,2.3,1
						c4.3,11,5.6,23.2,6.9,35l0.2,2.2c2.2,20.3,3.5,37.4,2.2,54.3c-2,25.3-13.2,49.6-34.5,74.2c-1.9,2.2-3.9,4.7-5.8,7.3
						c-5.5,7.2-11.2,14.6-18.6,18.6C482.3,350.5,475.7,351.9,468.9,351.9z"/>
				</g>
				<g>
					<path class="st4" d="M412.1,351.2c-0.3,0-0.6-0.1-0.9-0.3c-0.5-0.3-12.1-7.4-24.9-26.7c-12.8-19.1-15.9-46.3-11.5-100.1
						c3.5-42.3,22.7-56.3,43-71.2c5.1-3.7,10.5-7.6,15.6-12c24.2-20.7,20.3-35.4,20.3-35.5c-0.3-0.9,0.3-1.9,1.2-2.2
						c0.9-0.3,1.9,0.2,2.2,1.2c0.2,0.7,4.8,16.9-21.3,39.2c-5.3,4.5-10.6,8.4-15.8,12.2c-20.5,14.9-38.3,27.9-41.6,68.6
						c-4.3,53-1.4,79.5,10.9,97.9c12.4,18.6,23.7,25.6,23.8,25.6c0.8,0.5,1.1,1.6,0.6,2.4C413.3,350.9,412.7,351.2,412.1,351.2z"/>
				</g>
				<g>
					<path class="st4" d="M412.2,351.1c-0.2,0-0.3,0-0.5-0.1c-1.4-0.4-35-10.8-53.8-48.8c-18.6-37.8-20.2-72.8-4.8-110.1
						c11.1-27,42.4-43.3,63.1-54.1c7.6-4,14.2-7.4,17.9-10.4c13.2-10.7,17.5-26.3,17.5-26.4c0.2-0.9,1.2-1.5,2.1-1.2
						c0.9,0.2,1.5,1.2,1.2,2.1c-0.2,0.7-4.6,16.8-18.7,28.2c-3.9,3.1-10.6,6.7-18.4,10.7c-20.3,10.6-50.9,26.6-61.5,52.4
						c-14.9,36.3-13.4,70.3,4.7,107.2c18.1,36.6,51.3,46.9,51.6,47c0.9,0.3,1.5,1.2,1.2,2.2C413.7,350.6,413,351.1,412.2,351.1z"/>
				</g>
				<g>
					<path class="st4" d="M382.4,337.8c-0.3,0-0.5-0.1-0.8-0.2c-3.6-1.8-7.2-3.8-10.6-6c-0.1,0-0.2,0-0.3-0.1
						c-41.9-13-72.9-70.6-69-108.6c4.3-41.2,19.4-83.5,42.7-119.3c15.8-24.4,44.5-43,71.4-46.2C428.5,55.9,440,60.4,447,69
						c1,0.4,2.4,2.1,4.8,8.3l0,0l0,0l0,0l0,0l0,0l0,0c0.1,0.3,0.1,0.6,0.1,0.9l0,0l0,0l0,0l0,0l0,0l0,0l0,0c0,0.2-0.1,0.4-0.2,0.6
						l0,0l0,0l0,0l0,0c-0.1,0.2-0.3,0.4-0.5,0.5l-0.1,0l0,0l0,0l0,0l0,0l0,0l0,0l0,0l-0.1,0.1l0,0l0,0c-0.3,0.2-0.6,0.3-0.9,0.3H450
						c-0.1,0-0.3,0-0.4-0.1l0,0l0,0l0,0l0,0c-0.2,0-0.3-0.1-0.5-0.2l0,0l0,0l0,0c-10.7-7.1-19.3-8.4-25.7-3.6
						c-11.6,10.5-22.4,20.8-32.8,30.7c-10.5,10-21.3,20.3-33.1,30.9c-31.7,29.6-33.4,78.6-31.4,117.9c4.1,32.8,27,64.7,57,79.2
						c0.9,0.4,1.2,1.5,0.8,2.3C383.7,337.4,383.1,337.8,382.4,337.8z M420.5,60.7c-1.4,0-2.8,0.1-4.2,0.3
						c-25.9,3.1-53.6,21.1-68.9,44.6c-23,35.3-37.9,77.1-42.1,117.8c-3.4,32.9,20.4,81.1,54.5,99.7c-19.8-17.2-33.9-42-37-67.5
						c-2.1-40.2-0.3-90.1,32.5-120.8c11.7-10.7,22.6-21,33-30.9c10.5-9.9,21.3-20.2,33-30.9c6.3-4.7,14-4.9,23.1-0.5
						c-0.2-0.6-0.2-1.1-0.2-1.6C438.2,63.8,429.1,60.7,420.5,60.7z"/>
				</g>
				<g>
					<path class="st4" d="M413.3,405.4c-0.7,0-1.3-0.4-1.6-1.1c-0.4-0.9,0-1.9,0.9-2.3l0.8-0.3c4-1.6,12.4-4.9,11.4-32.1
						c-1-29.7-7.3-48.3-7.4-48.5c-0.3-0.9,0.2-1.9,1.1-2.2c0.9-0.3,1.9,0.2,2.2,1.1c0.3,0.8,6.5,19.2,7.6,49.5
						c1,29.7-9.3,33.7-13.7,35.5l-0.7,0.3C413.8,405.4,413.5,405.4,413.3,405.4z"/>
				</g>
				<g>
					<path class="st4" d="M415.1,514.3c-0.6,0-1.1-0.2-1.5-0.8c-0.9-1.2-0.2-2.6,1.6-4.4c-0.7-2.3-3-9.2-9.6-18.7
						c-13.5-19.4-20.8-35.6-21.6-48.3c-1.1-16-4.8-33.8-5.7-35.5c-0.3-0.7-0.4-1.4-0.1-2.1c0.8-2.1,4.2-3.5,10.7-6
						c1.9-0.7,3.9-1.5,5.7-2.3c1.5-0.7,3-1.7,4.5-2.7c3-2.1,6.2-4.2,10-3.4c3.3,0.8,6.4,3.8,9.6,9.5c0.4,0.7,0.2,1.7-0.4,2.2
						c-0.6,0.5-1.6,0.5-2.2,0c-1.9-1.6-4.3-2.9-5.3-3.1c0,0.1,0,0.4,0.1,0.9c1,6.7,3.6,13.5,9.5,28.4c2.2,5.6,6.9,15.5,12,26
						c10,21,17.1,36.2,17.4,41.1c0.1,0.8-0.4,1.5-1.2,1.8c-0.8,0.2-1.6,0-2-0.7c0,0-1.4-2.1-4.1-2.6c-2.3-0.4-4.9,0.4-7.8,2.5
						c-5.1,3.7-8.1,7.6-10.4,10.8c-2,2.7-3.8,5-6.2,6.4C417.1,513.7,416,514.3,415.1,514.3z M381.6,405.6c1.4,4,4.8,21,5.8,36.3
						c0.8,12,7.9,27.6,21,46.5c7,10.1,9.5,17.4,10.2,19.9c0.9-1,1.8-2.2,2.8-3.5c2.5-3.3,5.6-7.5,11.2-11.5
						c3.7-2.7,7.3-3.7,10.6-3.1c0.7,0.1,1.3,0.3,1.8,0.5c-2.8-7.9-9.9-22.7-15.8-35.1c-5-10.5-9.8-20.5-12.1-26.3
						c-5.9-15.1-8.6-22.1-9.7-29.1c-0.3-2.3,0.2-3.8,1.5-4.5c0.7-0.4,1.4-0.5,2.3-0.4c-1-0.9-2-1.5-2.9-1.7c-2.3-0.5-4.5,1-7.2,2.8
						c-1.6,1.1-3.3,2.2-5.1,3c-1.9,0.8-3.9,1.6-5.8,2.3C386.9,403,382.7,404.6,381.6,405.6z"/>
				</g>
				<g>
					<path class="st4" d="M455.4,620c-0.8,0-1.6-0.6-1.7-1.5c-0.1-0.4-6.4-37.8-3.7-65.4c2.6-27.1-3.6-57.2-3.7-57.5
						c-0.2-0.9,0.4-1.9,1.4-2.1c0.9-0.2,1.9,0.4,2.1,1.4c0.1,0.3,6.4,30.9,3.8,58.6c-2.6,27.1,3.6,64.1,3.7,64.5
						c0.2,1-0.5,1.9-1.4,2C455.6,620,455.5,620,455.4,620z"/>
				</g>
				<g>
					<path class="st4" d="M523.7,403.2c-0.2,0-0.4,0-0.6-0.1l-0.7-0.2c-4.5-1.4-15.1-4.6-16.3-34.3c-1.2-30.3,3.6-49.1,3.8-49.9
						c0.2-0.9,1.2-1.5,2.1-1.3c0.9,0.2,1.5,1.2,1.3,2.1c0,0.2-4.9,19.2-3.7,48.9c1.1,27.2,9.7,29.8,13.8,31.1l0.9,0.3
						c0.9,0.3,1.4,1.3,1.1,2.2C525.1,402.7,524.4,403.2,523.7,403.2z"/>
				</g>
				<g>
					<path class="st4" d="M527.2,510.7c-0.3,0-0.6-0.1-0.9-0.3c-2-1.2-3.7-3.1-5.6-5.3c-2.6-3-5.8-6.6-11.2-9.9
						c-3-1.9-5.7-2.5-8-1.9c-2.6,0.7-3.9,2.9-3.9,2.9c-0.4,0.7-1.2,1-2,0.8c-0.8-0.2-1.3-0.9-1.3-1.7c0-4.9,5.9-20.6,14.3-42.2
						c4.2-10.8,8.2-21.1,10-26.9c4.2-13.6,4.4-16.9,4.8-22.5l0.1-2c0.1-1.6-0.2-2.3-0.4-2.4c-0.5-0.3-1.9,0.2-2.6,0.6
						c-0.6,0.4-1.5,0.3-2-0.2c-0.6-0.5-0.8-1.3-0.5-2c3.7-9.1,13.6-5.5,20.9-2.8c1,0.4,1.9,0.7,2.9,1c3.5,1.2,7.4,1.5,10.6,1.7
						c3.5,0.2,5.5,0.4,6.3,1.8c0.4,0.6,0.4,1.4,0.2,2.1c-0.8,1.9-3.1,19.8-3,35.9c0.1,12.7-5.9,29.4-17.9,49.8
						c-3.9,6.7-6,12-7.1,15.2l-0.1,0.2c-0.9,2.1-1.6,4.3-2,6.5c-0.1,0.6-0.5,1.1-1,1.3C527.7,510.6,527.5,510.7,527.2,510.7z
						 M503.2,489.6c2.5,0,5.2,0.9,8.1,2.6c5.8,3.6,9.3,7.5,12,10.6c1,1.1,1.9,2.1,2.8,3c0.4-1.5,1-3,1.6-4.5c1.1-3.5,3.3-9,7.3-15.9
						c11.7-19.8,17.5-35.9,17.4-48c-0.1-14.7,1.8-31.1,2.9-36c-0.8-0.1-2.1-0.2-3.2-0.3c-3.2-0.2-7.5-0.5-11.5-1.9
						c-0.9-0.3-1.9-0.7-2.9-1c-5.9-2.2-10.7-3.6-13.7-2.3c0.3,0.1,0.6,0.2,1,0.4c1.5,1,2.2,2.9,2,5.6l-0.1,1.9
						c-0.4,5.8-0.7,9.2-5,23.2c-1.8,5.9-5.8,16.2-10,27.1c-5,12.8-10.9,28.1-13.1,36.2c0.5-0.3,1.1-0.5,1.8-0.7
						C501.4,489.7,502.3,489.6,503.2,489.6z M529.4,502L529.4,502L529.4,502z"/>
				</g>
				<g>
					<path class="st4" d="M499.9,621.4c-0.6,0-1.1-0.2-1.6-0.5c-2.8-1.8-3.1-8-4.2-36.8c-1.1-27.5,0.3-88.2,0.3-88.8
						c0-1,0.8-1.7,1.8-1.7l0,0c1,0,1.8,0.8,1.7,1.8c0,0.6-1.3,61.2-0.3,88.6c0.7,18.9,1.2,31.7,2.6,33.9c0.9,0,1.6,0.4,1.9,1.2
						c0.3,0.9-0.1,1.8-1,2.1C500.7,621.3,500.3,621.4,499.9,621.4z"/>
				</g>
				<g>
					<path class="st4" d="M482.3,557.3c-17.5,0-30.9-9.9-31.1-10.1c-0.8-0.6-0.9-1.7-0.3-2.5c0.6-0.8,1.7-0.9,2.5-0.3
						c1.1,0.8,27.5,20.3,53.8,1.1c0.8-0.6,1.9-0.4,2.4,0.4c0.6,0.8,0.4,1.9-0.4,2.4C499.9,555,490.6,557.3,482.3,557.3z"/>
				</g>
				<g>
					<path class="st4" d="M573.3,322.4c-0.8,0-1.5-0.5-1.7-1.3c-0.2-0.9,0.3-1.9,1.2-2.1c32.4-8.5,39.5-47.4,43.7-70.6
						c3.2-17.7-0.9-50.5-10.5-84.1c-1-1.9-2.1-4.6-3.1-7.3c-1-2.6-2.1-5.3-3.1-7.3c-27.1-46.9-62.9-77.5-103.2-88.5
						c-10-2.2-34.4-5-44.8,17.4c-0.4,0.9-1.4,1.3-2.3,0.8c-0.9-0.4-1.3-1.4-0.8-2.3c8-17.1,26.2-24.4,48.9-19.4
						c41.4,11.3,77.8,42.5,105.5,90.3c1.1,2.3,2.2,5,3.3,7.7c1,2.6,2.1,5.3,3.1,7.3c7.5,26.1,14.7,64,10.8,85.6
						c-4.4,24.5-11.8,64.7-46.4,73.8C573.5,322.4,573.4,322.4,573.3,322.4z"/>
				</g>
				<g>
					<path class="st4" d="M551.2,331.4c-0.7,0-1.4-0.4-1.6-1.1c-0.3-0.9,0.1-1.9,1-2.3c21.2-8,34.1-23.1,39.4-46.2
						c2.8-12.4,4.4-27.5,4.6-46.3c0.3-24.2-5.7-44.2-19.6-64.7c-15.2-22.5-35.7-40-55.4-57c-10.5-9-21.3-18.3-31.4-28.3
						c-0.7-0.7-0.7-1.8,0-2.5c0.7-0.7,1.8-0.7,2.5,0c10,9.9,20.8,19.2,31.2,28.1c19.9,17.1,40.6,34.8,56.1,57.7
						c14.3,21.2,20.6,41.7,20.2,66.7c-0.2,19.1-1.8,34.5-4.7,47.1c-5.6,24.4-19.2,40.3-41.6,48.7
						C551.7,331.4,551.5,331.4,551.2,331.4z"/>
				</g>
				<g>
					<path class="st4" d="M520.6,337.8c-0.8,0-1.5-0.6-1.7-1.4c-0.2-0.9,0.4-1.9,1.4-2.1c10.5-2.2,29.3-15.7,36.2-37.9
						c14.2-45.7,2.6-97.8-29.4-132.8c-8.9-9.7-20.8-16.8-32.4-23.6c-16.9-10-34.4-20.3-43-39.1c-0.4-0.9,0-1.9,0.9-2.3
						c0.9-0.4,1.9,0,2.3,0.9c8.2,17.7,24.4,27.4,41.6,37.5c11.8,7,24,14.2,33.2,24.3c32.8,35.9,44.7,89.4,30.2,136.2
						c-7.4,23.8-27.2,37.9-38.9,40.3C520.9,337.8,520.7,337.8,520.6,337.8z"/>
				</g>
				<g>
					<path class="st4" d="M465.5,281.4c-2.4,0-4.2-0.8-5.6-1.4c-2-0.9-3-1.2-4.7-0.4c-2.5,1.3-4,0.7-4.8,0c-1.7-1.4-1.8-4.5-0.3-9.5
						c0.3-0.9,0.6-1.8,1-2.8c2.1-5.5,5.2-13.8,2.1-33.1c-3.5-22.1-11.7-27.7-11.8-27.8c-0.8-0.5-1-1.6-0.5-2.4
						c0.5-0.8,1.6-1,2.4-0.5c0.4,0.2,9.6,6.2,13.4,30.2c3.2,20.3-0.2,29.5-2.3,34.9c-0.4,0.9-0.7,1.8-0.9,2.6
						c-1.1,3.7-1,5.4-0.8,5.8c0,0,0.4-0.1,1-0.4c3.2-1.6,5.6-0.6,7.7,0.3c1.3,0.6,2.6,1.1,4.3,1.1c1.8,0,2.6-0.5,3.6-1.1
						c1.3-0.8,2.9-1.7,5.8-1c1.3,0.3,2.1-0.1,2.3-0.6c0.3-0.6-0.1-1.5-1.1-2.1c-0.8-0.6-1-1.7-0.4-2.4c0.6-0.8,1.7-1,2.4-0.4
						c2.7,1.9,3.1,4.6,2.2,6.5c-0.8,1.8-3.1,3.3-6.4,2.5c-1.6-0.4-2.1-0.1-3.2,0.6C469.8,280.4,468.2,281.4,465.5,281.4z"/>
				</g>
				<g>
					<path class="st4" d="M444,209c0,0-7.7-6.1-22.2-3.7c-16.3,2.7-27.5,7.2-29.9,10.4c0,0,5.4-9.1,16.3-13.3
						C419,198.2,450,193.1,444,209z"/>
				</g>
				<g>
					<path class="st4" d="M478.1,205.9c0,0,7.7-6.1,22.2-3.7c16.3,2.7,27.5,7.2,29.9,10.4c0,0-5.4-9.1-16.3-13.3
						C503.1,195,472.1,189.9,478.1,205.9z"/>
				</g>
				<g>
					<path class="st4" d="M480.7,223.1c-0.4,0-0.9-0.2-1.2-0.5c-0.7-0.7-0.7-1.8,0-2.5c2.5-2.5,21-14,41.7-3.5
						c0.9,0.4,1.2,1.5,0.8,2.4c-0.4,0.9-1.5,1.2-2.4,0.8c-18.8-9.5-35.7,1-37.6,2.9C481.6,222.9,481.1,223.1,480.7,223.1z"/>
				</g>
				<g>
					<path class="st4" d="M499.6,229.6c-3.2,0-6.1-0.5-8.4-1.3c-9.1-3.5-9.4-8-9.4-8.6c0-1,0.8-1.8,1.8-1.8c0.9,0,1.7,0.7,1.7,1.7
						c0,0.2,0.6,2.8,7.1,5.4c5.6,2.2,15.8,1,20.6-2.4c1.9-1.4,2.9-2.9,2.8-4.7c0-1,0.7-1.8,1.7-1.8c1.1,0,1.8,0.7,1.8,1.7
						c0.1,2.9-1.4,5.6-4.3,7.6C511.1,228.3,505,229.6,499.6,229.6z M485.4,219.7L485.4,219.7L485.4,219.7z"/>
				</g>
				<g>
					<path class="st4" d="M494.5,215.2c0,0-6.7,4-0.5,9.8c6.1,5.9,13.8,0.5,13.6-4.5C507.3,215.5,503.6,212.5,494.5,215.2z"/>
				</g>
				<g>
					<path class="st4" d="M401.9,226.2c-0.4,0-0.9-0.2-1.2-0.5c-0.7-0.7-0.7-1.8,0-2.5c2.5-2.5,21-14,41.7-3.5
						c0.9,0.4,1.2,1.5,0.8,2.4c-0.4,0.9-1.5,1.2-2.4,0.8c-18.8-9.5-35.7,1-37.6,2.9C402.8,226.1,402.4,226.2,401.9,226.2z"/>
				</g>
				<g>
					<path class="st4" d="M420.7,232.8c-3,0-5.9-0.4-8.3-1.3c-9.1-3.5-9.4-8-9.4-8.6c0-1,0.8-1.8,1.8-1.8c0.9,0,1.7,0.7,1.7,1.7
						c0,0.2,0.6,2.8,7.1,5.4c5.6,2.2,15.8,1,20.6-2.4c1.9-1.4,2.9-2.9,2.8-4.7c0-1,0.7-1.8,1.7-1.8c1,0,1.8,0.7,1.8,1.7
						c0.1,2.9-1.4,5.6-4.3,7.6C432.6,231.3,426.4,232.8,420.7,232.8z M406.6,222.9L406.6,222.9L406.6,222.9z"/>
				</g>
				<g>
					<path class="st4" d="M415.7,218.4c0,0-6.7,4-0.5,9.8c6.1,5.9,13.8,0.5,13.6-4.5C428.5,218.6,424.8,215.7,415.7,218.4z"/>
				</g>
				<g>
					<g>
						<path class="st5" d="M446.4,301.1c0,0-5.6-0.8-3.6,2.2c2,3,6.4,7.2,12.7,9.6c6.3,2.4,22.3,1.4,26.3-3.2
							c3.9-4.6,5.5-9.7,5.5-9.7L446.4,301.1z"/>
					</g>
					<g>
						<path class="st4" d="M464.9,316c-3.9,0-7.6-0.5-10-1.4c-6.7-2.6-11.4-7-13.5-10.3c-1.1-1.7-0.7-2.9-0.3-3.5
							c1.1-1.7,3.8-1.7,5.5-1.4l40.7-1.1c0.5-0.1,1.1,0.2,1.4,0.7c0.3,0.4,0.4,1,0.3,1.6c-0.1,0.2-1.7,5.5-5.8,10.3
							C480.1,314.4,472,316,464.9,316z M444.6,302.8c2.1,2.9,6.1,6.5,11.6,8.6c6,2.3,21,1.1,24.3-2.7c2-2.4,3.4-4.9,4.2-6.7l-38.2,1
							c-0.1,0-0.2,0-0.3,0C445.7,302.8,445.1,302.8,444.6,302.8z"/>
					</g>
				</g>
				<g>
					<path class="st4" d="M460.2,296.5c-0.2,0-0.4,0-0.6-0.1c-0.9-0.4-1.3-1.4-1-2.3c2.2-5.4,1.3-14.6,1.3-14.6
						c-0.1-1,0.6-1.8,1.6-1.9c1-0.1,1.8,0.6,1.9,1.6c0,0.4,1,10.1-1.5,16.3C461.5,296.1,460.9,296.5,460.2,296.5z"/>
				</g>
				<g>
					<path class="st4" d="M468.7,296.3c-0.6,0-1.1-0.3-1.5-0.8c-1.3-1.9-1.4-5.6-1.4-6.3c0-1,0.8-1.8,1.7-1.8l0,0
						c1,0,1.7,0.8,1.8,1.8c0,1.3,0.2,3.6,0.8,4.3c0.5,0.8,0.3,1.9-0.5,2.4C469.4,296.2,469,296.3,468.7,296.3z"/>
				</g>
				<g>
					<path class="st4" d="M519.8,338.1c-0.7,0-1.3-0.4-1.6-1c-0.4-0.9,0-1.9,0.9-2.3c22.3-10,33-47.7,33.6-64.8
						c0.5-16.3,1-30.1-8.4-51.7c-9.7-22.4-39.6-50.5-62.3-67.7c-24.9-19-24.2-39.7-24.1-40.6c0.1-1,0.9-1.6,1.8-1.7
						c1,0,1.7,0.9,1.7,1.8c0,0.2-0.6,19.9,22.7,37.6c24.1,18.3,53.4,46.1,63.4,69.1c9.7,22.3,9.2,36.5,8.7,52.9
						c-0.5,14.4-9.8,56.5-35.7,68.2C520.3,338,520,338.1,519.8,338.1z"/>
				</g>
				<g>
					<g>
						<path class="st5" d="M442.5,300.2c4.7-1.2,8.6-2.3,11.6-4c3-1.7,4.9-1.6,7.8-0.7c2.9,0.9,4.2,0.7,6.1-0.3
							c1.9-1,2.2-1.5,7.4,0.3c5.2,1.8,8.6,3.3,11.8,3.2c3.2-0.1,7.1,1.1-4.1,2.5c-11.3,1.3-12.1,1.8-16.6,2.2
							c-4.3,0.3-12.3,0.5-17.6-0.3C443.7,302.4,432.5,302.6,442.5,300.2z"/>
					</g>
					<g>
						<path class="st4" d="M458.5,305.4c-3.3,0-6.9-0.1-9.8-0.6c-1.3-0.2-3-0.3-4.7-0.4c-5.1-0.4-7.2-0.5-7.3-2.5
							c-0.2-1.9,1.9-2.6,5.3-3.4c5.1-1.3,8.5-2.3,11.2-3.8c3.6-2.1,6-1.9,9.2-0.9c2.5,0.8,3.4,0.6,4.8-0.1c2.7-1.4,3.9-1.5,8.8,0.3
							l2.6,0.9c3.7,1.3,6.3,2.3,8.6,2.2c2.3-0.1,5,0.2,5.2,2.3c0.2,2-1.8,2.8-9,3.7c-5.7,0.7-8.7,1.1-10.9,1.5
							c-2.2,0.3-3.5,0.5-5.8,0.7C464.9,305.3,461.9,305.4,458.5,305.4z M446,301.1c1.2,0.1,2.3,0.2,3.2,0.3
							c5.2,0.8,13.1,0.6,17.2,0.3c2.2-0.2,3.5-0.4,5.6-0.7c2.1-0.3,4.8-0.7,9.9-1.3c-1.3-0.4-2.8-0.9-4.4-1.5l-2.5-0.9
							c-4.1-1.4-4.5-1.3-5.7-0.7l-0.4,0.2c-2.5,1.3-4.4,1.4-7.5,0.4c-2.5-0.8-3.9-0.8-6.4,0.6C452.4,299.2,449.4,300.2,446,301.1z"
							/>
					</g>
				</g>
				<g>
					<path class="st4" d="M457.3,278.7c-0.2,0-0.3,0-0.5-0.1c-0.9-0.3-1.4-1.3-1.2-2.2c0-0.1,4.1-13.7,1.3-32.8
						c-2.8-19-9-28.6-9-28.7c-0.5-0.8-0.3-1.9,0.5-2.4c0.8-0.5,1.9-0.3,2.4,0.5c0.3,0.4,6.6,10.2,9.6,30.1c3,19.9-1.2,33.7-1.4,34.3
						C458.7,278.2,458,278.7,457.3,278.7z"/>
				</g>
				<g>
					<path class="st1" d="M429.1,226.6c0,1.8-1.4,3.2-3.2,3.2c-1.8,0-3.2-1.4-3.2-3.2c0-1.8,1.4-3.2,3.2-3.2
						C427.6,223.4,429.1,224.9,429.1,226.6z"/>
				</g>
				<g>
					<path class="st1" d="M506.5,223.2c0,1.8-1.4,3.2-3.2,3.2c-1.8,0-3.2-1.4-3.2-3.2c0-1.8,1.4-3.2,3.2-3.2
						C505.1,220,506.5,221.4,506.5,223.2z"/>
				</g>
				<g>
					<path class="st4" d="M346.8,424.3c-0.7,0-1.4-0.5-1.7-1.2c-0.3-0.9,0.2-1.9,1.2-2.2c18.2-5.6,33.4-11.6,33.6-11.7
						c0.9-0.3,1.9,0.1,2.3,1c0.4,0.9-0.1,1.9-1,2.3c-0.2,0.1-15.5,6.1-33.8,11.8C347.1,424.3,347,424.3,346.8,424.3z"/>
				</g>
				<g>
					<path class="st4" d="M592.7,412.8c-14.3,0-35.5-4.6-36.5-4.9c-0.9-0.2-1.5-1.1-1.3-2.1c0.2-0.9,1.1-1.5,2.1-1.3
						c0.3,0.1,27.2,5.9,40.3,4.6c1-0.1,1.8,0.6,1.9,1.6c0.1,1-0.6,1.8-1.6,1.9C596.1,412.7,594.4,412.8,592.7,412.8z"/>
				</g>
			</g>
		</g>
	</g>
</g>
<g id="Artboard_type">
</g>
<g id="RULERS">
</g>
</svg>
