<?xml version="1.0" encoding="utf-8"?>
<!-- Generator: Adobe Illustrator 24.3.0, SVG Export Plug-In . SVG Version: 6.00 Build 0)  -->
<svg version="1.1" xmlns="http://www.w3.org/2000/svg" xmlns:xlink="http://www.w3.org/1999/xlink" x="0px" y="0px"
	 viewBox="0 0 224.1 252" style="enable-background:new 0 0 224.1 252;" xml:space="preserve">
<style type="text/css">
	.st0{clip-path:url(#SVGID_2_);}
	.st1{clip-path:url(#SVGID_4_);fill:#1A1B2F;}
	.st2{clip-path:url(#SVGID_6_);}
	.st3{clip-path:url(#SVGID_8_);fill:#F1748A;}
	.st4{fill:#F1748A;}
	.st5{fill:#FDD56F;}
	.st6{fill:#EC4796;}
	.st7{clip-path:url(#SVGID_10_);}
	.st8{clip-path:url(#SVGID_12_);fill:#F1748A;}
	.st9{fill:#FFFFFF;}
	.st10{fill:none;stroke:#EC4796;stroke-width:2;stroke-miterlimit:10;}
	.st11{fill:none;stroke:#F1748A;stroke-width:2;stroke-miterlimit:10;}
	.st12{fill:none;stroke:#FFFFFF;stroke-width:1.9929;stroke-miterlimit:10;}
	.st13{fill:none;stroke:#1A1B2F;stroke-width:2.2288;stroke-miterlimit:10;}
	.st14{fill:#1A1B2F;}
	.st15{clip-path:url(#SVGID_14_);}
	.st16{fill:#FFD1C2;}
	.st17{fill:#D69241;}
	.st18{fill:#6CBFAD;}
	.st19{fill:#1C2021;}
	.st20{fill:#F78271;}
	.st21{clip-path:url(#SVGID_16_);}
	.st22{fill:#853C2B;}
	.st23{clip-path:url(#SVGID_18_);}
	.st24{fill:#FECA9A;}
	.st25{clip-path:url(#SVGID_20_);}
	.st26{fill:none;stroke:#1C2021;stroke-width:3.8694;stroke-miterlimit:10;}
	.st27{clip-path:url(#SVGID_22_);}
	.st28{clip-path:url(#SVGID_24_);}
	.st29{clip-path:url(#SVGID_26_);}
	.st30{clip-path:url(#SVGID_28_);}
	.st31{clip-path:url(#SVGID_30_);}
	.st32{clip-path:url(#SVGID_32_);}
	.st33{clip-path:url(#SVGID_34_);}
	.st34{clip-path:url(#SVGID_36_);fill:#FDD56F;}
	.st35{fill:none;stroke:#1C2021;stroke-width:5.7091;stroke-miterlimit:10;}
	.st36{fill:#ED4462;}
	.st37{fill:#00BDFF;}
	.st38{fill:#FFA630;}
	.st39{display:none;}
	.st40{display:inline;fill:#606060;}
</style>
<g id="Layer_1">
	<g>
		<g>
			<defs>
				<circle id="SVGID_23_" cx="112" cy="112" r="110"/>
			</defs>
			<use xlink:href="#SVGID_23_"  style="overflow:visible;fill:#FFFFFF;"/>
			<clipPath id="SVGID_2_">
				<use xlink:href="#SVGID_23_"  style="overflow:visible;"/>
			</clipPath>
			<g class="st0">
				<path class="st16" d="M104,38.3c0,0,2.4,7.5-2.9,8.7c-5.3,1.2-10.2,1.5-11.4,2.9c-1.2,1.5,1.5,4.4,1.5,6.3
					c0,1.9,0.2,6.3-3.9,6.5c-4.1,0.2-9.2-2.2-12.1-0.7c-2.9,1.5-2.7,4.4,0,7c2.7,2.7,2.7,4.1,1.5,5.6c-1.2,1.5-0.2,5.6,0.5,8.7
					c0.7,3.1,1.5,3.4-2.2,2.2c-3.6-1.2-6-4.8-2.2,6.5c3.9,11.4,10.6,10.4,10.6,10.4s11.1,19.1,13.6,20.3c2.4,1.2,2.9,4.8,2.9,4.8
					s2.9,5.6,2.2,16.9c-0.7,11.4-7.3,18.9-7.3,18.9c-0.7,0.5,5.3,4.4,5.8,7.7c0.5,3.4-2.7,9-2.7,9s4.6,12.1,13.3,14.3
					c8.7,2.2,9.7,3.4,9.7,3.4s2.9-2.9,6.8-4.6c3.9-1.7,11.8-10.1,13.9-13.5c2.1-3.4,12.7-16.3,8.6-25.9
					c-4.1-9.7-23.2-20.8-23.2-20.8l-0.7-6.6c0,0,7-12,10.1-21.5c3.1-9.4,5.8-23.5,7.5-28.6s-0.5-18.4-4.4-20.8s-14.8-2.9-22.3-7.3
					C109.8,43.9,104,38.3,104,38.3z"/>
				<path class="st16" d="M145.1,84.1c0,0,4.3-3.8,5.4-3c1.1,0.8-0.8,8.8-3.7,11.2c-2.9,2.4-5.6,6.8-5.6,6.8S144.6,86.3,145.1,84.1z
					"/>
				<path class="st17" d="M96.9,28.7c0,0-8.5-5.8-14.3-4.1c-5.8,1.7-6,10.6-6,10.6s1.2,3.9-5.6,4.1c-6.8,0.2-14.8,3.1-16.7,7.7
					c-1.9,4.6,0.7,7.7,2.7,9.2c1.9,1.5,3.6,4.4-1,8.7c-4.6,4.4-10.6,5.3-10.6,11.1c0,5.8,7.3,5.6,8,8.7c0.7,3.1,0.7,5.6-4.8,9.9
					s-7.7,5.3-6.8,9.7c1,4.4,6.5,4.6,8.5,9c1.9,4.4-2.4,6-2.9,9.7c-0.5,3.6,1,7,4.1,11.9s1.5,4.8-1.5,8.7s0,5.1,2.4,10.4
					c2.4,5.3,3.6,8,1.7,13.1c-1.9,5.1-0.5,14,3.6,17.4c4.1,3.4,6.5,3.6,8,7.5c1.5,3.9,0.5,16,5.1,20.6c4.6,4.6,5.8,3.9,5.8,3.9
					s-4.8-2.7-2.9-8.7c1.9-6,4.6-8.4,4.6-8.4s0.5,8.8,7,10.1c6.5,1.2,8-2.7,8-2.7s-10.2-1.2-8.7-9.7c1.5-8.5,5.6-14.5,9-18.1
					c3.4-3.6,1-12.8-1.7-14.5c-2.7-1.7-1.5-2.9-1.5-2.9s9-3.1,9.9-9.9c1-6.8-0.5-24-0.5-24s-4.1-5.1-8.2-11.6
					c-4.1-6.5-11.4-17.7-11.4-17.7s-7.3-6.8-7.7-9.4c-0.5-2.7-1-6,2.4-3.4c3.4,2.7,3.9,5.1,3.9,5.1l-3.7-14.3c0,0,2.2-3.4,0-7.2
					c-2.2-3.9-2.7-5.6,1-6.8c3.6-1.2,8.7,0.2,10.9-1.9s0.5-9,0.2-11.1c-0.2-2.2,6.5-1.9,8.7-3.4c2.2-1.5,5.1-5.3,5.6-8.2
					c0.5-2.9,1-4.8,1-4.8s4.1,9,11.4,9.7c7.3,0.7,10,1.4,10,1.4s3.5,6.3,7.9,6.6c4.4,0.2,15.5,12.6,15,15.2
					C146.3,68.4,145,81,145,81s-1.1,5,1.8,2.4c2.9-2.7,3.9-3.9,4.1-0.7c0.2,3.1-2.9,10.4-5.3,12.3c-2.4,1.9-4.4,4.1-4.4,4.1
					s-3.9,15.5-8.7,20.6c-4.8,5.1-7,7.5-7,7.5s-3.1,24,5.3,27.8c8.5,3.9,12.5,5.9,12.5,5.9s-5.5,6.7-5.7,11.1c-0.2,4.4,4,7.8,4,7.8
					s2.1,7,4.7,9.1c2.7,2.2,3.3,2.5,3.3,2.5s-3.5,16.1,3.3,18.8c6.8,2.7,7.3,2,7.3,2s-5.1-2.7-3.4-6.4c1.7-3.6,2.7-4.6,2.7-4.6
					s4.1,4.1,7,4.1c0,0-6.8-7.5-5.3-13.1c1.5-5.6,6.8-6.5,7.3-8c0.5-1.5-2.2-8.5,0-14.3c2.2-5.8,7.3-11.1,7.3-14.8s-3.6-6-3.9-13.6
					c-0.2-7.5-0.5-11.4,0.7-15.7c1.2-4.4-0.4-10.7-0.9-15.2c-0.5-4.4-1.5-5.9,1.2-12.9c2.7-7-4.2-10.8-5.8-16.9
					c-1.7-6.1,1.5-13.4,2-17.2c0.5-3.9-8.2-6.5-9.2-11.4c-1-4.8,0.2-9.2-3.4-12.6c-3.6-3.4-7.3-8.5-9.2-12.1
					c-1.9-3.6-13.6-2.2-13.6-2.2s-6,3.1-13.1-1.9c-7-5.1-13.6-4.4-16-2.9C102,22.1,96.9,28.7,96.9,28.7z"/>
				<g>
					<path class="st18" d="M88.3,209.6c0,0,9.1,46.3,31.5,42.2c22.4-4,29.3-45.7,29.3-45.7s0-3.8,0.4-7.5c0.4-3.6,1.1-6.3,0.1-7.3
						c-1-1-7.6-6.4-7.6-7.8c0-1.4-0.5-2-0.5-2s-2.1,14-14.9,18.3c-12.7,4.2-23.5-7.9-23.5-7.9l-6.2-8.7c0,0-0.3-1.8-1.3-1.2
						c-1,0.6-10.4,8.2-9.4,15.2c1,7,4.3,6.9,5.3,7.5s3.2,1.5,3.2,1.5S90.3,208.9,88.3,209.6z"/>
					<g>
						<path class="st19" d="M86.6,210.3c-1.6,0-3.1-0.4-4.4-1.4c-4.3-2.4-4.4-6.5-4.6-10.3c-0.1-2.3-0.2-4.7-1.2-6.8
							c-0.3-0.8-1.5-1.2-2.8-1.5c-2.3-0.6-5.4-1.4-4.7-5.5c0.4-1.9,1.6-3.5,2.8-5.1c2.3-3,3.5-5,1.1-7.4c-1.2-0.9-2.9-1.5-4.7-2.2
							c-3.1-1.1-6.3-2.3-7.6-5.5c-1.3-3.3,1-6.1,3-8.6c1.2-1.4,2.3-2.8,2.6-4c1.3-3.2-1.5-5.5-4.1-7.7c-0.8-0.7-1.6-1.3-2.2-1.9
							c-2.2-2.2-3-5.4-2-8.2c0.7-2.2,2.5-4,4.3-5.8c3.2-3.3,6-6.1,3.3-10.4c-1.3-1.6-3.2-2.9-5-4.2c-3.3-2.3-6.7-4.7-7.3-9.2
							c-0.6-5,2.1-7.2,4.7-9.3c2.1-1.7,4.3-3.5,5-6.8c1.3-6.2,4.2-9.4,10.6-11.6c0.1,0,0.1,0,0.2,0c0.4-0.3,0.9-0.6,1.3-0.9
							c0.9-0.9,1.7-2.5,1.6-3.1c-0.2-1-0.9-1.9-1.7-2.9c-1.3-1.5-2.7-3.3-2-5.8c1.2-2.4,4.7-3.7,6.9-2.6c2.4,1.4,5.4,1.7,7.7,0.6
							c1.8-0.9,3-2.5,3.2-4.5c0.3-2.1-0.2-2.8-0.8-3.6c-0.5-0.7-1.1-1.4-1.1-2.9c0-1.4,1.6-2.6,2.6-2.6c5.3,0,8.8-1.1,10.7-3.5
							c1.3-1.6,2.2-3,1.4-6.6c-0.1-0.4-0.2-0.8-0.3-1.2c-0.1-0.4,0.2-0.7,0.5-0.8c0.4-0.1,0.7,0.1,0.8,0.5c0.1,0.4,0.2,0.8,0.3,1.1
							c0.9,2.9,3.4,4.9,4.2,5.3c3.1,1.4,5.6,1.7,9.1,1.3c0.7-0.1,1.4-0.3,2.2-0.6c1.3-0.5,2.7-0.9,4-0.7c2.7,0.4,2.9,2.9,3,4.7
							c0,0.3,0.1,0.6,0.1,0.9c0.4,3.1,1.8,4.3,5.2,4.5c1,0.1,2.3-0.2,3.8-0.4c2.6-0.4,5.2-0.9,7,0.1c0.8,0.5,1.3,1.1,1.5,1.8
							c0.2,1.2-0.7,2.3-1.4,3.2c-0.2,0.3-0.5,0.6-0.6,0.8c-2.5,3.6-0.1,5.8,2.6,8.4c2.4,2.3,5.1,4.9,2.9,8.4c-0.2,0.3-0.6,0.4-1,0.2
							c-0.3-0.2-0.4-0.6-0.2-1c1.5-2.4,0-4.1-2.7-6.6c-2.6-2.5-5.9-5.7-2.7-10.2c0.2-0.3,0.4-0.6,0.7-0.9c0.6-0.7,1.3-1.5,1.1-2.1
							c-0.1-0.3-0.3-0.5-0.8-0.8c-1.4-0.8-3.9-0.3-6.1,0.1c-1.5,0.3-2.9,0.5-4.1,0.4c-4.1-0.3-6-2-6.5-5.8c0-0.3-0.1-0.6-0.1-1
							c-0.2-1.9-0.3-3.1-1.8-3.4c-0.9-0.2-2.1,0.3-3.3,0.7c-0.8,0.3-1.7,0.6-2.5,0.7c-3.9,0.5-6.5,0.1-9.9-1.4
							c-0.7-0.3-2.1-1.3-3.3-3c-0.2,1.9-1,3.1-2,4.3c-2.2,2.7-6.1,4-11.8,4c-0.3,0-1.2,0.7-1.2,1.2c0,1,0.3,1.4,0.8,2
							c0.7,0.9,1.5,1.9,1.1,4.6c-0.3,2.5-1.8,4.5-4,5.6c-2.7,1.3-6.2,1.1-9-0.6c-0.6-0.3-1.7-0.3-2.7,0.1c-1,0.4-1.8,1-2.2,1.8
							c-0.4,1.7,0.6,3,1.8,4.4c0.9,1.1,1.8,2.2,2,3.6c0.2,1.3-1.1,3.4-2.1,4.4c-0.7,0.6-1.4,1-2,1.5c-2.9,2.1-5.3,3.7-5.3,6.5
							c0,6.1,4.2,9.4,8.7,12.9c2.7,2.1,5.4,4.2,7.3,7c2.2,3.3,0.7,6.4-0.8,9.3c-0.9,1.7-1.8,3.5-2.1,5.5c0,2.4,0.8,4,2.4,4.9
							c7,2,11.2,4.6,12.7,7.9c1,2.1,0.9,4.5-0.2,7c-1,2.5-3.1,4.4-5.4,6.4c-2.2,2-4.5,4-5.9,6.7c-1.2,1.9-1.4,4-0.6,5.8
							c0.7,1.7,2.2,3,3.9,3.4h0.1c6,0,8.9,3.2,11.6,6.8c3.5,5.8-0.9,11.1-2.9,13.1c-5.7,4.7-12.7,11.9-9.2,19.8
							c1.6,2.4,4.1,3.3,6.9,4.1c0.1,0,0.2,0.1,0.3,0.2c0.1,0.1,0.2,0.2,0.2,0.4c0,0,0,0.1,0,0.1c0,0.1,0,0.2-0.1,0.3
							c-0.1,0.2-0.3,0.5-0.6,0.6C92.4,208.9,89.5,210.3,86.6,210.3z M68.5,80.6c-2.5,1.8-3.8,4.3-4.6,8c-0.8,3.8-3.3,5.9-5.4,7.7
							c-2.5,2.1-4.7,3.8-4.2,8c0.5,3.8,3.5,5.9,6.7,8.2c1.9,1.3,3.9,2.7,5.3,4.5c3.4,5.4-0.2,9-3.4,12.3c-1.7,1.8-3.4,3.4-4,5.2
							c-0.8,2.3-0.1,4.9,1.7,6.8c0.6,0.6,1.3,1.2,2.1,1.9c2.8,2.3,6.2,5.1,4.6,9.2c-0.4,1.5-1.6,2.9-2.8,4.5
							c-1.9,2.4-3.8,4.6-2.8,7.1c1.1,2.6,3.8,3.6,6.7,4.7c1.8,0.7,3.7,1.4,5.2,2.5c3.5,3.5,1.2,6.6-0.9,9.3c-1.1,1.5-2.3,3-2.6,4.5
							c-0.4,2.6,1.1,3.1,3.7,3.8c1.6,0.4,3.3,0.9,3.8,2.4c1.1,2.2,1.2,4.8,1.3,7.3c0.2,3.8,0.3,7.1,4,9.2c3.1,2.3,7.1,0.9,10.1-1.1
							c-2.5-0.8-4.7-1.9-6.4-4.4c-4-8.9,3.5-16.6,9.5-21.5c1.7-1.7,5.6-6.4,2.7-11.2c-3-4-5.6-6.2-10.6-6.2c-2.3-0.6-4.2-2.2-5-4.3
							c-0.9-2.3-0.7-4.8,0.7-7.1c1.4-2.9,3.8-5,6.2-7.1c2.1-1.9,4.2-3.7,5-5.9c1-2.2,1.1-4.1,0.3-5.9c-1.4-2.9-5.3-5.3-12-7.2
							c-2.2-1.1-3.3-3.2-3.3-6.3c0.4-2.3,1.3-4.2,2.2-6c1.5-2.9,2.7-5.3,0.9-7.9c-1.7-2.6-4.4-4.7-7-6.7c-4.6-3.5-9.3-7.2-9.3-14.1
							C66.9,83.1,67.6,81.8,68.5,80.6z"/>
						<path class="st19" d="M77.9,219c-3.3,0-9.4-1.4-11.8-4.5c-2.3-3-1.8-5.9-1.4-8.5c0.1-0.7,0.2-1.4,0.3-2
							c0.3-3.3,0.1-7.3-0.5-10.1c-0.6-2.8-2.1-4.5-6.2-7.2c-0.6-0.4-1.2-0.7-1.7-1.1c-3.3-2.1-5.3-3.3-7-6.9c-2.1-4.3-0.4-8,1.6-11
							c1.8-2.7,1.5-5.2,1.1-8.9l-0.1-0.7c-0.2-1.9-1.8-2.8-3.7-3.7c-1.7-0.9-3.5-1.8-4.2-3.7c-1.8-4.7,1-8,1.9-8.9
							c0.2-0.2,0.5-0.5,0.7-0.7c1.4-1.3,2.7-2.5,2.7-4.7c0-1.3-0.9-2.1-2-3.1c-1-0.9-2.2-1.9-3-3.6c-1.9-3.8-0.6-9,1.7-11.1
							c0.7-0.6,1.3-1,1.8-1.4c1.2-0.8,1.5-1,1.1-2.6c-0.5-2.5-4.1-3.8-6.7-4.6c-2.3-0.7-6-1.8-6.2-6.9c-0.2-4.8,2.7-8.6,5.4-10
							c1-0.5,2-0.6,3-0.7c1.9-0.2,3.8-0.3,6.6-3.3c1.1-1.2,1.6-2.1,1.4-2.8c-0.3-1-2.1-1.6-3.6-2.1c-0.6-0.2-1.1-0.4-1.6-0.5
							L47,83.3c-2.6-1-6.4-2.6-5.8-6.8c0.7-4.3,2-7,7.1-9.4c4.8-2.2,6.8-3.6,8.6-6.6c1.3-2.1,0-3.2-3.3-5.2l-0.6-0.4
							c-3.4-2.2-3.9-4-2.1-7.9c2.1-4.7,6.3-7.8,11.3-8.4c2.4-0.3,3.7,0,4.7,0.2c1.2,0.3,2.1,0.5,4.7-0.5c3.2-1.2,3.1-1.7,2.7-4.2
							c-0.1-0.9-0.3-2-0.4-3.5c-0.1-4.8,4.1-7.6,12.6-8.2c4.6-0.4,7.3,1.5,9.3,2.9c0.6,0.4,1,0.7,1.5,1c1.2-2.4,5.8-10.1,16.6-7.9
							c7.1,1.5,10.4,3.4,12.7,4.9c1.6,1,2.7,1.6,4.3,1.6c1.6,0,3.3-0.6,5.2-1.2c2.8-1,6-2.1,9.5-1.1c6,1.7,6.4,4.9,6.4,9.6
							c0,3.9,1,4.3,3.5,5.3l0.6,0.2c3.1,1.3,5,4.8,5,7.4c0,0.7-0.2,1.4-0.5,2.3c-0.7,2.3-1.4,4.8,1.2,7.2c1.6,1.4,3.1,1.8,4.5,2.2
							c2,0.6,3.9,1.1,5.2,4.3c1.6,3.9,0.1,7.9-4.1,11.3c-0.7,0.6-1.3,1.8-1.4,3.4c-0.1,1.9,0.3,3.7,1.1,4.6c0.6,0.7,1.9,1.2,3.3,1.8
							c2.3,1,4.8,2,6.2,4.4c2.2,3.8,1.3,9.1-2.2,13.4c-3.1,3.9-4.4,5.5-2.4,10.3c0.7,1.7,1.8,3,2.9,4.2c1.9,2.3,3.8,4.4,2,8.3
							c-0.9,1.9-1.2,3.5-1.4,4.9c-0.5,2.5-0.9,4.6-4.3,7.1l-0.5,0.4c-4.7,3.4-7.8,5.6-8.5,11.9c-0.7,5.7,0.1,9.2,1.2,13.5
							c0.2,0.7,0.4,1.5,0.5,2.3c0.3,1.4,0.6,2.5,1,3.5c0.9,3.1,1.5,5.1-1,7.9c-1.2,1.4-2.6,2.1-3.8,2.7c-1.8,1-3.3,1.8-4,4.4
							c-1.4,5.2,2.2,10.4,3.3,11.9c2.4,3.1,0.9,5.9-1.1,8.9c-1,1.6-1.2,4-0.6,6c0.5,1.5,1.4,2.5,2.5,3c0.3,0.1,0.5,0.4,0.5,0.8
							c0,0.3-0.3,0.6-0.6,0.6c-0.2,0-5.7,0.6-9.1-2.6c-1.9-1.7-2.8-4.1-2.7-7.2c0.1-4.3,0.5-6.7,0.8-8.2c0.4-2.1,0.5-2.3-1.1-4.1
							c-0.9-0.9-1.8-1.7-2.7-2.5c-2.4-2-4.6-3.8-4.5-7.8c0.1-1.7-0.6-2.1-1.6-2.7c-1.9-1.1-3.4-2.4-2.6-7.7c0.7-4.6,3.2-6.5,5.3-8.2
							c2.3-1.8,4-3.1,3.2-7.1c-0.8-4.1-2.7-5.5-4.6-6.9c-1.8-1.3-3.7-2.7-3.8-6.2c-0.2-3.3,2-5.7,4-8.1c2.5-2.9,4.8-5.6,4-9.8
							c-0.4-2.2-1-4.3-1.6-6.3c-1.6-5.3-3.2-10.8-1.2-19.9c0.1-0.4,0.5-0.6,0.9-0.5c0.4,0.1,0.6,0.5,0.5,0.9
							c-2,8.8-0.5,13.8,1.1,19.2c0.6,2,1.2,4.1,1.7,6.4c0.9,4.9-1.9,8.1-4.3,10.9c-1.9,2.3-3.8,4.4-3.6,7.1c0.1,2.8,1.5,3.8,3.3,5.1
							c1.9,1.4,4.3,3.1,5.2,7.8c0.9,4.8-1.5,6.7-3.8,8.5c-2.1,1.6-4.2,3.3-4.8,7.3c-0.7,4.7,0.5,5.5,1.9,6.2c1.1,0.6,2.4,1.4,2.3,4
							c-0.1,3.3,1.7,4.8,4,6.7c1,0.8,1.9,1.6,2.9,2.6c2,2.2,1.9,2.9,1.5,5.3c-0.3,1.5-0.8,3.8-0.8,8c0,2.7,0.7,4.7,2.3,6.1
							c1.7,1.6,4.1,2.1,5.8,2.2c-0.6-0.7-1.1-1.5-1.4-2.5c-0.8-2.4-0.5-5.3,0.7-7.2c2.1-3.3,2.8-5.1,1.1-7.3
							c-1.2-1.6-5.1-7.2-3.6-13.1c0.8-3.3,2.8-4.3,4.7-5.3c1.2-0.6,2.4-1.3,3.4-2.5c2-2.2,1.5-3.5,0.7-6.5c-0.3-1-0.7-2.2-1-3.6
							c-0.2-0.8-0.4-1.6-0.5-2.3c-1-4.5-1.9-8-1.2-14c0.8-6.9,4.3-9.4,9.1-12.9l0.5-0.4c2.9-2.1,3.2-3.7,3.7-6.2
							c0.3-1.5,0.6-3.2,1.5-5.2c1.4-3.1,0.2-4.6-1.7-6.8c-1.1-1.3-2.3-2.7-3.1-4.6c-2.4-5.6-0.6-7.8,2.6-11.8
							c3.1-3.9,4-8.5,2.1-11.8c-1.1-1.9-3.4-2.9-5.5-3.8c-1.5-0.6-2.9-1.2-3.8-2.2c-1.1-1.2-1.7-3.4-1.5-5.7
							c0.2-1.9,0.9-3.5,1.9-4.4c2.6-2.1,5.4-5.4,3.7-9.6c-1-2.5-2.4-2.9-4.3-3.4c-1.5-0.4-3.3-0.9-5.1-2.5c-3.3-3-2.3-6.4-1.7-8.6
							c0.2-0.7,0.4-1.4,0.4-1.9c0-1.7-1.3-4.9-4.1-6l-0.6-0.2c-2.6-1.1-4.4-1.8-4.4-6.7c0-4.7-0.5-6.8-5.4-8.2
							c-3.1-0.9-5.9,0.1-8.7,1.1c-1.9,0.7-3.8,1.3-5.6,1.3c-2.1,0-3.4-0.8-5.1-1.9c-2.3-1.4-5.3-3.3-12.2-4.7
							c-11.4-2.3-15.1,7.2-15.3,7.7c-0.1,0.2-0.2,0.3-0.4,0.4c-0.2,0.1-0.4,0.1-0.5,0c-0.8-0.3-1.6-0.8-2.4-1.4
							c-1.9-1.3-4.4-3-8.4-2.7c-7.6,0.6-11.4,2.9-11.3,6.8c0,1.3,0.2,2.4,0.3,3.3c0.4,2.9,0.5,4.2-3.6,5.7c-3,1.1-4.2,0.9-5.5,0.6
							c-1-0.2-2-0.5-4.3-0.2c-4.4,0.5-8.2,3.3-10.1,7.5c-1.6,3.4-1,4.4,1.6,6.1l0.6,0.4c2.7,1.7,5.8,3.7,3.7,7.2
							c-2,3.4-4.4,4.9-9.2,7.1c-4.6,2.1-5.7,4.4-6.3,8.4c-0.5,2.8,1.8,4,4.9,5.2l0.6,0.2c0.4,0.2,0.9,0.3,1.5,0.5
							c1.9,0.6,4.1,1.3,4.6,3.1c0.3,1.2-0.3,2.5-1.8,4.1c-3.2,3.4-5.6,3.6-7.5,3.8c-0.9,0.1-1.7,0.2-2.5,0.6
							c-2.4,1.3-4.8,4.5-4.7,8.7c0.1,3.8,2.4,4.8,5.2,5.6c3,0.9,7,2.4,7.7,5.7c0.5,2.5-0.3,3.2-1.7,4.1c-0.5,0.3-1,0.7-1.6,1.2
							c-1.9,1.8-3,6.3-1.4,9.5c0.7,1.4,1.7,2.3,2.7,3.2c1.3,1.1,2.5,2.2,2.5,4.2c0,2.8-1.6,4.4-3.1,5.8c-0.2,0.2-0.5,0.4-0.7,0.7
							c-0.7,0.7-3.1,3.5-1.6,7.3c0.5,1.4,2,2.2,3.6,3c1.9,1,4.1,2.2,4.4,4.8l0.1,0.7c0.4,3.9,0.8,6.7-1.3,9.9
							c-1.8,2.8-3.3,5.9-1.5,9.6c1.5,3.2,3.2,4.2,6.5,6.3c0.5,0.3,1.1,0.7,1.7,1.1c4.5,2.9,6.2,4.9,6.9,8.1
							c0.6,2.9,0.8,7.1,0.5,10.5c-0.1,0.7-0.2,1.4-0.3,2.1c-0.4,2.5-0.8,4.9,1.1,7.4c1.8,2.3,6.4,3.6,9.5,3.9
							c-1.4-0.9-2.9-2.4-3.4-4.5c-0.9-3.9,0-6.7,1.6-10c1-2,2.8-4,2.8-4.1c0.3-0.3,0.7-0.3,1-0.1c0.3,0.3,0.3,0.7,0.1,1
							c0,0-1.7,2-2.6,3.7c-1.5,3-2.3,5.5-1.5,9c0.7,3.2,4.8,4.8,4.9,4.8c0.3,0.1,0.5,0.4,0.5,0.7c0,0.3-0.2,0.6-0.5,0.7
							C79.1,218.9,78.6,219,77.9,219z"/>
						<path class="st19" d="M121.4,201.3c-2.9,0-6.1-0.7-9.4-2c-10.3-4.1-16.1-17-16.3-17.5c-0.2-0.4,0-0.8,0.4-0.9
							c0.4-0.2,0.8,0,0.9,0.4c0.1,0.1,5.8,12.9,15.5,16.8c8.9,3.6,15.9,2.2,22-4.2c5.7-6,6.4-12.8,6.4-12.8c0-0.4,0.4-0.7,0.8-0.6
							c0.4,0,0.7,0.4,0.6,0.8c0,0.3-0.7,7.3-6.7,13.7C131.4,199.1,126.7,201.3,121.4,201.3z"/>
						<path class="st19" d="M120.5,201.2c-0.3,0-0.6-0.2-0.7-0.4c-0.7-1.7-0.4-5.9-0.4-6.4c0-0.4,0.3-0.7,0.8-0.7
							c0.4,0,0.7,0.4,0.7,0.8c-0.1,1.2-0.2,4.6,0.3,5.8c0.1,0.4,0,0.8-0.4,0.9C120.7,201.2,120.6,201.2,120.5,201.2z"/>
						<path class="st19" d="M99.9,153.1l-0.1,0c-0.4-0.1-0.7-0.4-0.6-0.8c0-0.1,0.8-5,0.8-11.3c0-6.3-1.7-15.4-1.7-15.5
							c-0.1-0.4,0.2-0.8,0.6-0.8c0.4-0.1,0.8,0.2,0.8,0.6c0.1,0.4,1.7,9.3,1.7,15.7c0,6.4-0.8,11.4-0.8,11.5
							C100.6,152.9,100.3,153.1,99.9,153.1z"/>
						<path class="st19" d="M88.7,163c-0.3,0-0.6-0.2-0.7-0.5c-0.1-0.4,0.1-0.8,0.5-0.9c0,0,3.5-1.1,6.4-3c2.7-1.9,3.9-5.7,3.9-5.7
							c0.1-0.4,0.5-0.6,0.9-0.5c0.4,0.1,0.6,0.5,0.5,0.9c-0.1,0.2-1.4,4.3-4.5,6.5c-3,2.1-6.6,3.2-6.7,3.2
							C88.8,163,88.8,163,88.7,163z"/>
						<path class="st19" d="M143.3,161.6c-0.1,0-0.1,0-0.2,0c-0.4-0.1-10.9-2.6-15.1-8.9c-4.1-6.2-2.5-25.5-2.5-26.4
							c0-0.4,0.4-0.7,0.8-0.7c0.4,0,0.7,0.4,0.7,0.8c0,0.2-1.7,19.6,2.2,25.4c3.8,5.8,14.1,8.3,14.2,8.3c0.4,0.1,0.6,0.5,0.5,0.9
							C143.9,161.3,143.6,161.6,143.3,161.6z"/>
						<path class="st20" d="M99.3,149c-1.4-2.1-6.2,1.7-3.6,4.1S102.1,153.1,99.3,149z"/>
						<path class="st20" d="M105.1,154.5c-2.3-3.5-4.2-2-5.8-0.6c-1.6,1.4-0.9,5.6,2.8,6.1S106.5,156.6,105.1,154.5z"/>
						<path class="st20" d="M111,157.3c-3.2-0.4-4.4-0.2-5.6,1.6s2.8,6.4,6.7,5.5C116,163.3,113.8,157.6,111,157.3z"/>
						<path class="st20" d="M119,158.7c-2.3-0.3-4.7,0.9-4.5,3.4c0.2,2.5,4.7,3.7,6.4,2.2C122.5,162.7,121.3,159,119,158.7z"/>
						<path class="st20" d="M125.8,155.5c-2.3,1.2-5.8,1.7-4.5,5.3c1.2,3.6,6.2,2,7.3-0.5C129.7,157.9,127.1,154.9,125.8,155.5z"/>
						<path class="st20" d="M131.3,152.9c-1.7-1.6-5.3,2-3,4.1C130.7,159,134.1,155.5,131.3,152.9z"/>
						<path class="st20" d="M130.8,148.8c-1-0.2-3.6,3.4-0.4,3.8C133.6,152.9,132.8,149.2,130.8,148.8z"/>
						<path class="st19" d="M102.4,78c-1.3-2.3-4.2-4.2-9.5-4.1c-5.3,0.2-9.8,3.6-11.7,5c-1.9,1.4,3.3-1.6,5.1-2.3
							c1.9-0.8,4.7,0.2,7.3,0.9C96.3,78.3,103,79.1,102.4,78z"/>
						<g>
							<path class="st9" d="M84.9,85.2c1.9-0.9,7-2.8,10-2.8c3,0,6.9,1.9,6.9,1.9s-0.9,0.6-2.5,2c-1.6,1.4-3,2.3-9,1.1
								C84.2,86.1,84.9,85.2,84.9,85.2z"/>
							<path class="st19" d="M94.9,88.7c-1.2,0-2.8-0.2-4.8-0.6c-4.8-1-5.6-1.8-5.8-2.4c-0.1-0.4,0-0.7,0.1-0.9
								c0.1-0.1,0.1-0.1,0.2-0.2c2.1-1,7.3-2.9,10.3-2.9c3.1,0,7,1.9,7.2,1.9c0.2,0.1,0.4,0.3,0.4,0.6c0,0.3-0.1,0.5-0.3,0.6
								c0,0-0.9,0.6-2.4,2C98.6,87.9,97.4,88.7,94.9,88.7z M86.1,85.4c0.6,0.3,1.8,0.7,4.3,1.2c6,1.2,7.1,0.2,8.4-0.9
								c0.6-0.6,1.1-1,1.6-1.3c-1.3-0.5-3.6-1.3-5.4-1.3C92.5,83.1,88.4,84.5,86.1,85.4z"/>
						</g>
						<path class="st19" d="M96.7,83.8c0.6,1.1,0.7,4.2-3,3.9c-3.7-0.4-3.5-4.4-2.5-4.7C92.3,82.6,95.7,82,96.7,83.8z"/>
						<path class="st19" d="M119.1,77.4c1.2-2.3,4.1-4.3,9.4-4.3c5.3,0,9.9,3.3,11.8,4.6c1.9,1.3-3.3-1.5-5.2-2.2
							c-1.9-0.7-4.7,0.3-7.3,1.2C125.2,77.5,118.5,78.5,119.1,77.4z"/>
						<g>
							<path class="st9" d="M136.8,84.1c-1.9-0.9-7.1-2.6-10.1-2.5c-3,0.1-6.8,2.1-6.8,2.1s1,0.6,2.6,2s3,2.3,9.1,0.8
								C137.6,85,136.8,84.1,136.8,84.1z"/>
							<path class="st19" d="M126.6,87.8c-2.3,0-3.4-0.7-4.6-1.7c-1.5-1.3-2.5-1.9-2.5-1.9c-0.2-0.1-0.3-0.4-0.3-0.6
								c0-0.3,0.2-0.5,0.4-0.6c0.2-0.1,4-2.1,7.1-2.2c2.9-0.1,8.3,1.6,10.4,2.6c0.1,0,0.2,0.1,0.2,0.2c0.2,0.2,0.3,0.5,0.2,0.9
								c-0.2,0.6-1,1.5-5.8,2.6C129.5,87.6,127.9,87.8,126.6,87.8z M121.4,83.8c0.4,0.3,1,0.7,1.6,1.3c1.3,1.1,2.5,2.1,8.5,0.7
								c2.5-0.6,3.7-1.1,4.2-1.4c-2.3-0.9-6.4-2.1-8.9-2.1C124.9,82.3,122.7,83.2,121.4,83.8z"/>
						</g>
						<path class="st19" d="M125.1,83c-0.6,1.1-0.6,4.2,3.1,3.7c3.6-0.5,3.3-4.4,2.3-4.8C129.4,81.7,126.1,81.3,125.1,83z"/>
						<path class="st19" d="M111.9,104.9c-1.3,0-2.7-0.3-3.9-0.8c-0.8-0.4-1.6-0.1-2.3,0c-0.9,0.2-2.1,0.5-2.8-0.7
							c-0.6-1.1,0.2-2.8,1.6-5.6c0.7-1.5,1.5-3,1.8-4.1c0.6-2.8,0.3-8.6-0.4-10.7c-0.1-0.4,0.1-0.8,0.5-0.9c0.4-0.1,0.8,0.1,0.9,0.5
							c0.9,2.6,1.1,8.7,0.5,11.5c-0.3,1.3-1.1,2.9-1.9,4.4c-0.7,1.4-1.9,3.8-1.6,4.3c0.1,0.2,0.2,0.2,1.2,0c0.9-0.2,2.1-0.5,3.3,0
							c1.9,0.9,4.6,0.8,5.6,0.2c1-0.6,1.9-0.5,2.6-0.3c0.4,0.1,0.8,0.1,1.3,0.1c0.4,0,0.7-0.2,0.7-0.5c0.1-0.3-0.1-0.8-0.5-1.3
							c-0.3-0.3-0.3-0.7,0-1c0.3-0.3,0.7-0.3,1,0c0.9,0.9,1.2,1.9,0.9,2.8c-0.3,0.8-1,1.3-1.9,1.4c-0.6,0.1-1.2,0-1.7-0.1
							c-0.7-0.1-1.1-0.2-1.6,0.2C114.2,104.7,113.1,104.9,111.9,104.9z"/>
						<g>
							<path class="st20" d="M119.5,111.8c0,0,1.8,2.6-1.9,5.6c-3.7,3-7.4,3-11.1,0.2c-3.7-2.7-4.4-5.1-2.7-5.7
								C105.4,111.3,119.5,111.8,119.5,111.8z"/>
							<path class="st19" d="M111.9,120.4c-1.9,0-3.9-0.7-5.9-2.2c-2.7-1.9-4.1-3.9-3.8-5.4c0.1-0.7,0.6-1.3,1.3-1.6
								c1.7-0.6,13.6-0.2,16-0.2c0.2,0,0.4,0.1,0.6,0.3c0,0,2.1,3.2-2.1,6.5C116,119.6,114,120.4,111.9,120.4z M109.7,112.4
								c-2.8,0-5.1,0.1-5.7,0.3c-0.3,0.1-0.4,0.3-0.4,0.4c-0.1,0.5,0.5,2,3.3,4c3.5,2.6,6.9,2.5,10.3-0.2c2.5-2,2.2-3.7,1.9-4.3
								C116.3,112.4,112.7,112.4,109.7,112.4z"/>
						</g>
						<path class="st19" d="M82.1,100.7c-0.1,0-0.1,0-0.2,0c-1.7-0.5-9.7-9.3-10.8-13.5c-0.3-1-0.2-1.8,0.3-2.4
							c0.5-0.6,1.2-0.9,2-0.8c2.4,0.2,5.1,3.7,5.4,4.1c0.2,0.3,0.2,0.8-0.2,1c-0.3,0.2-0.8,0.2-1-0.2c-1-1.3-3-3.5-4.3-3.5
							c-0.3,0-0.6,0.1-0.8,0.3c-0.1,0.1-0.1,0.5,0,0.9c0.9,3.8,8.8,12.3,9.9,12.7c0.4,0.1,0.6,0.5,0.4,0.9
							C82.7,100.5,82.4,100.7,82.1,100.7z"/>
						<path class="st19" d="M141.5,99c-0.3,0-0.5-0.2-0.7-0.4c-0.2-0.4,0-0.8,0.4-0.9c3.1-1.4,8.3-10.6,8.9-14.7
							c0.1-1-0.1-1.2-0.1-1.2c-0.2-0.1-0.4-0.2-0.6-0.2c-1.3,0.2-3.3,2.4-4.3,3.8c-0.2,0.3-0.7,0.4-1,0.2c-0.3-0.2-0.4-0.7-0.2-1
							c0.3-0.4,3-4.1,5.3-4.4c0.6-0.1,1.2,0.1,1.7,0.5c0.5,0.5,0.7,1.3,0.6,2.5c-0.6,4.3-5.9,14.1-9.8,15.8
							C141.6,99,141.6,99,141.5,99z"/>
						<path class="st19" d="M114.7,132.1c-11.1,0-16.6-5-26.1-18.7c-9.8-14.2-14.1-36.7-14.2-36.9c-0.1-0.4,0.2-0.8,0.6-0.8
							c0.4-0.1,0.8,0.2,0.8,0.6c0,0.2,4.3,22.5,13.9,36.4c10.2,14.7,15.2,18.3,25.5,18.1c10.9-0.2,19.9-15.8,22.6-23.4
							c2.8-8,5.6-16.8,6.5-26.4c0.9-9.3,0.8-11.6,0.8-11.6c-0.3-12.4-8.8-15.1-21.7-19.3c-1.5-0.5-3-1-4.6-1.5
							c-9.2-3-11.9-8.6-12.6-12.7c-0.5-3.1,0.2-6.3,0.8-6.8c0.3-0.2,0.8-0.2,1,0.1c0.2,0.3,0.2,0.7-0.1,0.9c-0.3,0.5-1.2,4,0.2,7.7
							c1.5,4.3,5.3,7.5,11.1,9.4c1.6,0.5,3.1,1,4.6,1.5c13,4.2,22.4,7.1,22.7,20.6c0,0.1,0.1,2.3-0.8,11.8c-1,9.7-3.7,18.6-6.6,26.7
							c-2.8,7.9-12.3,24.2-23.9,24.3C115,132.1,114.9,132.1,114.7,132.1z"/>
						<path class="st19" d="M141.6,180.4L141.6,180.4c-0.5-0.1-0.8-0.4-0.7-0.8c0-0.1,0.4-3,2.6-6.4c0.7-1.1,1.9-2.1,3.1-3.1
							c2.5-2.1,5.3-4.5,6-9.4c0.6-4-0.5-6-1.5-7.9c-0.8-1.6-1.7-3.3-1.3-5.8c0.4-2.8,1.6-3.6,3-4.5c1.3-0.9,2.8-1.9,4.4-5.3
							c3.1-6.9,0.6-10.9-0.6-12.9c-0.3-0.5-1-1-1.7-1.5c-1.6-1.1-3.7-2.5-2-5.5c0.8-1.5,2.5-2.5,4.3-3.5c3-1.8,6-3.6,6.1-7.8
							c0.1-4-2.3-6.8-4.4-9.2c-1.5-1.8-3-3.5-3.3-5.5c-0.4-2.8,1.4-4.4,3.1-6c1.3-1.2,2.6-2.4,3.3-4.2c1.5-4.1-1.9-7.7-4.7-9.1
							c-3.2-1.7-4.8-4.4-4.6-7.8c0.1-1.2,0.9-2.5,1.8-4c1.8-2.9,3.9-6.1,0.9-9.2c-2.5-2.6-4-2.8-5.7-3.2c-1.6-0.3-3.2-0.6-5.5-2.7
							c-2.3-2.1-1.9-4.3-1.5-6.5c0.4-2.5,0.9-5-2.7-8.2c-3.8-3.4-8-1.7-11.7-0.3c-2.8,1.1-5.5,2.2-7.5,0.7c-1.6-1.2-2.8-2.5-4-3.9
							c-2-2.2-3.6-4-6.2-4.4c-8.7-1.4-12.3,5-12.3,5c-0.2,0.3-0.6,0.5-1,0.3c-0.3-0.2-0.5-0.6-0.3-1c0-0.1,4.1-7.3,13.8-5.7
							c3,0.5,5,2.6,7,4.9c1.2,1.3,2.4,2.6,3.8,3.7c1.4,1,3.6,0.1,6.1-0.9c3.9-1.5,8.8-3.4,13.2,0.5c4.2,3.7,3.6,6.9,3.1,9.5
							c-0.4,2-0.6,3.6,1.1,5.2c2,1.8,3.4,2.1,4.8,2.4c1.8,0.3,3.7,0.7,6.4,3.6c3.8,3.9,1.2,8-0.7,11c-0.8,1.3-1.6,2.5-1.6,3.3
							c-0.1,2.9,1.1,5.1,3.8,6.5c3.2,1.7,7.2,5.9,5.3,10.9c-0.8,2.1-2.3,3.5-3.7,4.7c-1.6,1.5-2.9,2.7-2.7,4.7
							c0.2,1.6,1.5,3.1,3,4.8c2.2,2.6,4.8,5.6,4.7,10.2c-0.1,5.1-3.8,7.3-6.8,9c-1.6,1-3.1,1.9-3.8,3c-1,1.8-0.1,2.4,1.6,3.6
							c0.8,0.6,1.7,1.1,2.2,1.9c1.2,2,4.1,6.7,0.7,14.2c-1.8,3.8-3.6,5.1-4.9,5.9c-1.3,0.8-2,1.3-2.3,3.5c-0.3,2.1,0.3,3.4,1.2,5
							c1.1,2,2.3,4.3,1.6,8.7c-0.8,5.5-4,8.2-6.5,10.3c-1.2,1-2.2,1.8-2.8,2.8c-2,3.1-2.4,5.8-2.4,5.8
							C142.2,180.2,141.9,180.4,141.6,180.4z"/>
						<path class="st19" d="M165.9,206.2c-4,0-6.5-3.6-7.4-5.8c-0.1-0.4,0-0.8,0.4-0.9c0.4-0.1,0.8,0,0.9,0.4
							c0.1,0.2,1.8,4.3,5.4,4.8c-1.1-1.3-2.2-3.8-2.5-8.7c-0.4-5.3,2.2-7,4.6-8.6c1.9-1.3,3.4-2.3,3.4-5c0-2.8-0.6-4.3-1.1-5.7
							c-0.7-2-1.4-3.7,0-7.8c1-2.9,3-4.4,4.7-5.8c2.5-1.9,4.4-3.4,3.7-8.4c-0.8-5-2.1-6.7-3.2-8.1c-1-1.3-1.9-2.5-2.3-5.1
							c-0.8-5.7-0.2-8.7-0.1-8.8c0.1-0.4,0.5-0.6,0.8-0.6c0.4,0.1,0.6,0.5,0.6,0.8c0,0-0.6,2.9,0.2,8.3c0.3,2.3,1,3.2,2,4.4
							c1.2,1.5,2.7,3.5,3.5,8.8c0.9,5.9-1.7,7.8-4.2,9.7c-1.7,1.3-3.4,2.6-4.3,5.1c-1.3,3.6-0.8,5-0.1,6.9c0.5,1.4,1.2,3.1,1.2,6.2
							c0,3.5-2.1,5-4,6.2c-2.2,1.5-4.2,2.8-3.9,7.3c0.6,8.1,3.3,8.7,3.3,8.7c0.3,0.1,0.6,0.3,0.6,0.7c0,0.3-0.2,0.6-0.5,0.7
							C166.9,206.1,166.4,206.2,165.9,206.2z"/>
						<g>
							<path class="st20" d="M101.1,111.3c1.4,0.5,3-0.7,5.1-1.3c2.1-0.6,1.9-0.4,4.4,0.4c2.5,0.8,3.6-1,5.2-0.8s4.8,2.2,6.1,1.2
								c1.3-0.9,0.4,1.9-2.9,2.2c-3.2,0.3-2.4,0.2-3.8,0.8c-1.3,0.6-3.8,1.3-5.7,0.5c-1.9-0.8-3.8-2.1-5.4-1.8
								C102.7,112.8,101.1,111.3,101.1,111.3z"/>
							<path class="st19" d="M111.6,115.4c-0.8,0-1.5-0.1-2.2-0.4c-0.5-0.2-1.1-0.5-1.6-0.8c-1.3-0.6-2.4-1.2-3.3-1
								c-1.9,0.4-3.6-1.2-3.8-1.4c-0.2-0.2-0.3-0.6-0.1-0.9c0.2-0.3,0.5-0.4,0.8-0.3c0.7,0.2,1.6-0.1,2.7-0.6c0.6-0.2,1.3-0.5,2-0.7
								c1.9-0.5,2.2-0.5,3.7,0c0.3,0.1,0.7,0.2,1.1,0.4c1.2,0.4,2.1,0,2.9-0.3c0.7-0.3,1.3-0.6,2.1-0.5c0.6,0.1,1.5,0.4,2.3,0.7
								c1.1,0.4,2.7,1,3.3,0.7c0.6-0.5,1.1-0.3,1.3-0.2c0.3,0.2,0.4,0.6,0.3,1c-0.2,0.9-1.7,2.4-4,2.6l-0.3,0
								c-2.2,0.2-2.2,0.2-2.7,0.5c-0.1,0.1-0.3,0.2-0.6,0.3C114.5,114.9,113,115.4,111.6,115.4z M104.7,111.7c1.2,0,2.4,0.6,3.6,1.2
								c0.5,0.2,1,0.5,1.5,0.7c1.7,0.7,4,0,5.1-0.5c0.2-0.1,0.4-0.2,0.5-0.3c0.7-0.4,0.8-0.4,3.2-0.6l0.3,0c0.7-0.1,1.3-0.3,1.7-0.5
								c-0.9-0.1-2-0.5-3-0.8c-0.7-0.3-1.5-0.6-1.9-0.6c-0.4,0-0.9,0.1-1.4,0.4c-1,0.4-2.2,0.9-3.9,0.4c-0.5-0.1-0.9-0.3-1.2-0.4
								c-1.3-0.4-1.3-0.5-2.9,0c-0.7,0.2-1.3,0.4-1.9,0.7c-0.4,0.2-0.8,0.3-1.1,0.4c0.3,0.1,0.5,0.1,0.8,0
								C104.3,111.8,104.5,111.7,104.7,111.7z"/>
						</g>
						<path class="st9" d="M96.7,86.3c0,0.7-0.6,1.2-1.3,1.2c-0.7,0-1.3-0.6-1.3-1.2c0-0.7,0.6-1.2,1.3-1.2
							C96.1,85,96.7,85.6,96.7,86.3z"/>
						<path class="st9" d="M131.3,85.1c0,0.7-0.6,1.2-1.3,1.2s-1.3-0.5-1.3-1.2s0.6-1.2,1.3-1.2S131.3,84.4,131.3,85.1z"/>
					</g>
				</g>
			</g>
			<use xlink:href="#SVGID_23_"  style="overflow:visible;fill:none;stroke:#F1748A;stroke-width:4;stroke-miterlimit:10;"/>
		</g>
	</g>
	<g>
		<g>
			<defs>
				<circle id="SVGID_29_" cx="328" cy="310" r="110"/>
			</defs>
			<use xlink:href="#SVGID_29_"  style="overflow:visible;fill:#FFFFFF;"/>
			<clipPath id="SVGID_4_">
				<use xlink:href="#SVGID_29_"  style="overflow:visible;"/>
			</clipPath>
			<use xlink:href="#SVGID_29_"  style="overflow:visible;fill:none;stroke:#F1748A;stroke-width:4;stroke-miterlimit:10;"/>
		</g>
	</g>
	<g>
		<g>
			<defs>
				<circle id="SVGID_31_" cx="-103.9" cy="321.7" r="110"/>
			</defs>
			<use xlink:href="#SVGID_31_"  style="overflow:visible;fill:#FFFFFF;"/>
			<clipPath id="SVGID_6_">
				<use xlink:href="#SVGID_31_"  style="overflow:visible;"/>
			</clipPath>
			<use xlink:href="#SVGID_31_"  style="overflow:visible;fill:none;stroke:#F1748A;stroke-width:4;stroke-miterlimit:10;"/>
		</g>
	</g>
</g>
<g id="Layer_2" class="st39">
</g>
</svg>
