<?xml version="1.0" encoding="utf-8"?>
<!-- Generator: Adobe Illustrator 24.3.0, SVG Export Plug-In . SVG Version: 6.00 Build 0)  -->
<svg version="1.1" xmlns="http://www.w3.org/2000/svg" xmlns:xlink="http://www.w3.org/1999/xlink" x="0px" y="0px"
	 viewBox="0 0 224.1 241.7" style="enable-background:new 0 0 224.1 241.7;" xml:space="preserve">
<style type="text/css">
	.st0{clip-path:url(#SVGID_2_);}
	.st1{clip-path:url(#SVGID_4_);fill:#1A1B2F;}
	.st2{clip-path:url(#SVGID_6_);}
	.st3{clip-path:url(#SVGID_8_);fill:#F1748A;}
	.st4{fill:#F1748A;}
	.st5{fill:#FDD56F;}
	.st6{fill:#EC4796;}
	.st7{clip-path:url(#SVGID_10_);}
	.st8{clip-path:url(#SVGID_12_);fill:#F1748A;}
	.st9{fill:#FFFFFF;}
	.st10{fill:none;stroke:#EC4796;stroke-width:2;stroke-miterlimit:10;}
	.st11{fill:none;stroke:#F1748A;stroke-width:2;stroke-miterlimit:10;}
	.st12{fill:none;stroke:#FFFFFF;stroke-width:1.9929;stroke-miterlimit:10;}
	.st13{fill:none;stroke:#1A1B2F;stroke-width:2.2288;stroke-miterlimit:10;}
	.st14{fill:#1A1B2F;}
	.st15{clip-path:url(#SVGID_14_);}
	.st16{fill:#FFD1C2;}
	.st17{fill:#D69241;}
	.st18{fill:#6CBFAD;}
	.st19{fill:#1C2021;}
	.st20{fill:#F78271;}
	.st21{clip-path:url(#SVGID_16_);}
	.st22{fill:#853C2B;}
	.st23{clip-path:url(#SVGID_18_);}
	.st24{fill:#FECA9A;}
	.st25{clip-path:url(#SVGID_20_);}
	.st26{fill:none;stroke:#1C2021;stroke-width:3.8694;stroke-miterlimit:10;}
	.st27{clip-path:url(#SVGID_22_);}
	.st28{clip-path:url(#SVGID_24_);}
	.st29{clip-path:url(#SVGID_26_);}
	.st30{clip-path:url(#SVGID_28_);}
	.st31{clip-path:url(#SVGID_30_);}
	.st32{clip-path:url(#SVGID_32_);}
	.st33{clip-path:url(#SVGID_34_);}
	.st34{clip-path:url(#SVGID_36_);fill:#FDD56F;}
	.st35{fill:none;stroke:#1C2021;stroke-width:5.7091;stroke-miterlimit:10;}
	.st36{fill:#ED4462;}
	.st37{fill:#00BDFF;}
	.st38{fill:#FFA630;}
	.st39{display:none;}
	.st40{display:inline;fill:#606060;}
</style>
<g id="Layer_1">
	<g>
		<g>
			<defs>
				<circle id="SVGID_25_" cx="112" cy="112" r="110"/>
			</defs>
			<use xlink:href="#SVGID_25_"  style="overflow:visible;fill:#FFFFFF;"/>
			<clipPath id="SVGID_2_">
				<use xlink:href="#SVGID_25_"  style="overflow:visible;"/>
			</clipPath>
			<g class="st0">
				<path class="st9" d="M178.8,241.7c0,0,23-31.7,16.4-41.6c-2.9-4.4-32.7-7.3-41.9-11.2c-9.2-4-7.4-5.8-7.4-5.8l-3.1-4.8
					c0,0-4.8-4.6-5.4-4.1c-0.6,0.5-0.1,4.4-0.9,10.9c-0.8,6.4-2.5,10.6-6.4,12.9c-4,2.3-4.6,3.3-2.1,5c2.5,1.7,0.6,2.5,1.1,6.6
					c0.5,4.1,1.2,15,0,15.5c-1.2,0.5-0.3-6.4-4.3-12.2c-4-5.8-8.1-8.3-8.1-8.3s1.3,1.3,3-1.3c1.7-2.6,2.1-3.3-3-4.5
					c-5.1-1.2-5.4-3.3-10.2-9.7c-4.8-6.4-5.9-7.8-5.9-7.8s-2.6,0.5-3.5,2.6c-0.8,2.1-0.3,3-4.5,4.5c-4.1,1.5-19.6,4.9-40.6,15.2
					c-2.2,1.1-6.8,6.7-4.2,7.2c2.6,0.5,53.2,12.2,71.9,16.5C138.2,231.6,178.8,241.7,178.8,241.7z"/>
				<g>
					<path class="st16" d="M108.3,64.4c0,0-3.1,6.7-14.6,13c-11.5,6.3-14.6,14.2-15.2,19.9s2.4,12.1,2.4,12.1s-6.4-3.3-6.3,0.7
						c0.1,4.1,6.8,9.9,10.8,12.1c0,0,13.2,20.5,18.5,24.5c0.1,0.1,0.3,0.2,0.4,0.3c0,0,1.7-0.4,2.1,5c0.4,5.3,3.6,19.7,1.9,24.6
						c-1.7,5-4.2,8.3-4.2,8.3s2.2,3,4.3,7.7c2.1,4.7,4.3,5.7,7.3,6.2c3,0.5,5.2-0.6,5,1.5c-0.2,2.1-2.4,6.1-2.4,6.1s1.5,2.5,4.8,5.3
						c3.3,2.8,6.1,10.5,6.1,11.9s1.1-6.3,0.6-9.7c-0.5-3.3,0.5-6.6,0.5-6.6s0.5-2-2.4-4.5c-2.8-2.5-1-3.1,1.4-4.5s4.1-0.4,4.7-9.8
						c0.6-9.4,2.1-11.8,0.5-12.9c-1.6-1.1-3.5-2.4-3.7-8.3s0.1-19.1,0.1-19.1s6.8-3.8,8.9-10.3c2.1-6.4,7.3-20.3,7.3-20.3
						s3.3-2.6,5.1-4.2c1.7-1.6,5.2-11.4,0.9-10c-4.3,1.4-2.7-1-3.1-3c-0.4-2-2-13.9-4.3-13.9s-19.1,2.1-27.6-5.9
						C109.4,72.8,108.3,64.4,108.3,64.4z"/>
					<path class="st22" d="M158.2,101.2c0,0,4.2-10.2-1-17.3c-5.2-7.2-11.9-16.1-19.3-20.8c-7.4-4.7-8.2-5.4-8.2-5.4
						s11.9,5.9,18.3,10.9c6.4,5,7.7,8.7,7.7,8.7s1.7-12.1-6.4-22.8c-8.2-10.6-15.4-15.8-22-20.8c-6.7-5,4.2-0.7,7.9,1
						c0,0-5.8-0.2-6.2-2.1c-0.2-0.7,2.2,0.9,5-5.8c2.7-6.7-4.4-11.9-7.1-7.2c0,0-7.8-6.7-13.5-7.7c-5.7-1-18.8,10.4-18.8,10.4
						s9.2-8.4,3.7-10.2c-5.4-1.7-14.9,9.4-12.9,12.6c2,3.2,9.7,11.4,9.7,11.4s-12.9,4.2-19.8,29c0,0-5.4,11.1-3.5,16.6
						c2,5.4,5,1.2,5,1.2s-8.2,8.4-7.2,15.1c1,6.7,1,14.4,5,20.1c0,0-6.7-16.6-0.7-24c5.9-7.4,12.1-11.9,16.3-13.6
						c4.2-1.7,14.1-12.1,15.6-22.3c0,0,7.2,14.6,14.4,19.3c7.2,4.7,23.8,5.7,26.7,8.7C149.8,89,157.7,88,158.2,101.2z"/>
					<g>
						<g>
							<path class="st19" d="M131.3,33.9c-0.1,0-0.2,0-0.3,0c-0.4,0-0.7-0.4-0.6-0.8c0-0.4,0.4-0.7,0.8-0.6c1.6,0.2,3.6-2.5,4.5-6.1
								c0.8-3.4,0.5-7.5-2-8.5c-4.9-1.9-6.4,0.7-6.4,0.8c-0.2,0.3-0.6,0.5-1,0.3c-0.3-0.2-0.5-0.6-0.3-1c0.1-0.2,2.1-3.8,8.2-1.5
								c3.3,1.3,3.8,6,2.9,10.1C136.2,30.4,134.1,33.9,131.3,33.9z"/>
							<g>
								<path class="st20" d="M121.5,131.2c-0.6,0.8-1.7-0.8-2.4-1.1c-1.1-0.4-2.3-0.5-4.1,0.8c-1.8,1.3-3,2.6-3,2.6
									s1.6,2.9,4.1,5.1c2.5,2.2,7.6,1.9,9.8-0.4c2.2-2.4,3.5-5.3,3.5-5.3s-1-1.1-2.6-2.4C125.3,129.2,123.3,128.4,121.5,131.2z"/>
								<path class="st19" d="M120.7,140.7c-1.9,0-3.8-0.5-5.1-1.6c-2.5-2.2-4.2-5.1-4.2-5.2c-0.1-0.3-0.1-0.6,0.1-0.8
									c0.1-0.1,1.3-1.4,3.1-2.7c2.2-1.5,3.6-1.3,4.8-0.8c0.4,0.1,0.7,0.4,1,0.7c0.2,0.1,0.4,0.4,0.6,0.5c0.8-1.2,1.7-1.9,2.8-2
									c1.5-0.2,2.7,0.6,3.5,1.3c1.6,1.3,2.6,2.4,2.7,2.4c0.2,0.2,0.2,0.5,0.1,0.8c-0.1,0.1-1.5,3-3.7,5.4
									C125.2,140,122.9,140.7,120.7,140.7z M112.9,133.6c0.5,0.9,1.9,2.9,3.7,4.4c2.2,1.9,6.9,1.7,8.8-0.4
									c1.6-1.7,2.7-3.8,3.2-4.7c-0.4-0.4-1.2-1.1-2.2-1.9c-1-0.8-1.7-1.1-2.4-1c-0.6,0.1-1.3,0.6-1.9,1.6
									c-0.3,0.4-0.6,0.5-0.8,0.6c-0.7,0.1-1.2-0.4-1.8-0.9c-0.2-0.2-0.5-0.4-0.6-0.5c-0.8-0.3-1.7-0.5-3.4,0.7
									C114.3,132.3,113.4,133.2,112.9,133.6z M120.9,130.9L120.9,130.9l0.6,0.4L120.9,130.9z"/>
							</g>
							<path class="st19" d="M101.6,183.4c-0.2,0-0.4-0.1-0.5-0.2c-0.3-0.3-0.2-0.7,0.1-1c2-1.7,5.4-6.1,5.7-11.2
								c0.3-5.2-1.9-23-1.9-23.2c0-0.4,0.2-0.7,0.6-0.8c0.4-0.1,0.7,0.2,0.8,0.6c0.1,0.7,2.3,18.1,1.9,23.4
								c-0.3,5.6-4.1,10.3-6.2,12.1C102,183.4,101.8,183.4,101.6,183.4z"/>
							<path class="st19" d="M136.1,175.8c-0.2,0-0.3,0-0.4-0.1c-3.4-2.6-3.6-5.1-4-10.6c-0.1-1-0.2-2.2-0.3-3.4
								c-0.8-8,0.4-13.9,0.5-14.1c0.1-0.4,0.5-0.6,0.8-0.6c0.4,0.1,0.6,0.5,0.6,0.8c0,0.1-1.2,5.9-0.4,13.7c0.1,1.3,0.2,2.4,0.3,3.5
								c0.4,5.4,0.6,7.4,3.5,9.5c0.3,0.2,0.4,0.7,0.1,1C136.6,175.7,136.4,175.8,136.1,175.8z"/>
							<path class="st19" d="M128.7,227.4l-0.1,0c-0.3-0.1-0.6-0.4-0.6-0.7c0-0.1,0-7-2.6-11c-1.3-2-3.3-4.2-4.8-5.9
								c-1.9-2-2.9-3.2-3.1-4c-0.3-0.2-1.2-1-2.5-1.7c-0.5-0.3-1-0.7-1.5-1.1c-1-0.8-2.1-1.6-3.9-2l-0.9-0.2c-2.4-0.5-4.8-1-6.7-4
								c-2-3.1-6.3-10.3-6.3-10.3c-0.1-0.1-0.1-0.2-0.1-0.3c-0.2-1.3,2.6-4.8,4.3-5.3c0.8-0.3,1.5,0,1.8,0.7c0.4,0.7,1.2,1.8,2.1,3
								c1.5,2.1,3.5,4.6,4.8,7.1c2.1,4,3.2,5.3,6.1,6.3c1.2,0.4,2.3,0.5,3.2,0.5c1.3,0.1,2.6,0.1,3.4,1.5c1.1,2-1.5,4.8-2.4,5.7
								c0.3,0.6,1.6,2,2.7,3.2c1.6,1.7,3.6,3.9,5,6.1c1.3,2.1,2.1,4.8,2.4,7c0.2-1.6,0.4-3.5,0.3-5.3c-0.4-5.1-0.3-9.1,0.2-10.6
								c0-0.3-0.8-1.2-1.4-1.8c-1.2-1.3-2.9-3.1-1.6-4.7c0.7-0.8,1.7-1.3,2.8-1.8c1.5-0.8,3.1-1.5,3.9-3.4c1.4-3.2,2.5-9.1,2.7-13.2
								c0.1-1.5-0.1-2.9-0.2-4c-0.2-1.5-0.3-2.7,0.3-3.3c0.3-0.3,0.7-0.5,1.3-0.4c1.5,0.1,2.9,1.3,4,2.3c0.5,0.4,0.9,0.9,1.3,1.1
								c1.7,1,1.3,3.3,1.3,3.4c-0.1,0.4-1.5,9.2-3.9,14.1c-2.1,4.3-5.3,10.1-8.6,11.3c-0.2,0.1-0.3,0.1-0.5,0c0.1,0.3,0.1,0.5,0,0.8
								c-0.5,1.3-0.5,5.2-0.2,10c0.4,4.8-1.2,10.1-1.3,10.3C129.3,227.2,129,227.4,128.7,227.4z M137.3,174.9
								c-0.3,0.2-0.2,1.3-0.1,2.2c0.1,1.2,0.3,2.6,0.2,4.2c-0.3,4.2-1.3,10.3-2.8,13.7c-1,2.3-2.9,3.2-4.6,4.1
								c-0.9,0.5-1.8,0.9-2.3,1.5c-0.5,0.5,0.4,1.5,1.5,2.8c0.5,0.5,0.9,1,1.3,1.5c0.1-0.2,0.2-0.3,0.4-0.4
								c2.1-0.8,4.7-4.3,7.8-10.6c2.3-4.7,3.8-13.6,3.8-13.7c0,0,0.2-1.5-0.6-1.9c-0.5-0.3-1-0.8-1.5-1.3
								C139.4,176,138.3,175,137.3,174.9z M97,185.9c0.7,1.2,4.4,7.3,6.1,10.1c1.6,2.5,3.4,2.9,5.7,3.4l0.9,0.2
								c2.1,0.4,3.3,1.4,4.4,2.2c0.5,0.4,0.9,0.7,1.4,1c1.1,0.6,1.9,1.3,2.4,1.6c1.1-1.2,2.4-3,2-3.8c-0.3-0.6-0.8-0.7-2.2-0.8
								c-1,0-2.2-0.1-3.6-0.6c-3.5-1.2-4.8-3-6.9-7c-1.3-2.4-3.2-4.9-4.7-6.9c-1-1.4-1.8-2.5-2.2-3.2c0,0-0.3,0-0.9,0.5
								C98.3,183.7,97.2,185.4,97,185.9z"/>
							<path class="st19" d="M56.3,202.2c-0.3,0-0.6-0.2-0.7-0.6c-0.1-0.4,0.2-0.8,0.6-0.8c0.1,0,5.5-1,14.1-4.3
								c7.2-2.7,10.9-5.1,13.6-6.8c0.6-0.4,1.1-0.7,1.6-1c3-1.8,10.2-3.3,10.6-3.3c0.4-0.1,0.8,0.2,0.8,0.6c0.1,0.4-0.2,0.8-0.6,0.8
								c-0.1,0-7.3,1.5-10.1,3.2c-0.5,0.3-1,0.6-1.6,1c-2.8,1.8-6.5,4.2-13.9,7c-8.8,3.3-14.2,4.3-14.4,4.3
								C56.4,202.2,56.4,202.2,56.3,202.2z"/>
							<path class="st19" d="M120.8,188.2c-1.9,0-4.2-2-4.5-2.2c-0.3-0.3-0.3-0.7-0.1-1c0.3-0.3,0.7-0.3,1-0.1
								c0.9,0.8,2.7,2,3.6,1.9c0.3,0,0.4-0.1,0.4-0.2c0.3-0.3,0.7-0.3,1-0.1c0.3,0.3,0.3,0.7,0.1,1c-0.4,0.4-0.9,0.7-1.4,0.7
								C120.9,188.2,120.9,188.2,120.8,188.2z"/>
							<path class="st19" d="M162.4,191.1L162.4,191.1c-0.3,0-5.3-0.6-8.8-1.9c-2.7-1-8.3-3.9-8.5-6.1c-0.1-0.9-1.6-2-2.3-2.4
								c-0.3-0.2-0.5-0.6-0.3-1c0.2-0.3,0.6-0.5,1-0.3c0.3,0.2,2.8,1.7,3,3.5c0.1,0.9,3.8,3.4,7.6,4.8c3.2,1.2,8.3,1.8,8.3,1.8
								c0.4,0,0.7,0.4,0.6,0.8C163.1,190.8,162.8,191.1,162.4,191.1z"/>
							<path class="st19" d="M120.8,154c-4.5,0-8.3-2.3-10.2-3.4c-0.3-0.2-0.6-0.3-0.8-0.5c-0.3-0.2-0.7-0.3-1.3-0.4
								c-3.2-0.9-9.8-2.7-21.4-22c-13.5-22.6-9-50.1-8.9-50.4c0.1-0.4,0.4-0.7,0.8-0.6c0.4,0.1,0.6,0.4,0.6,0.8
								c0,0.3-4.5,27.3,8.7,49.4c11.3,18.8,17.5,20.5,20.5,21.3c0.6,0.2,1.1,0.3,1.6,0.6c0.2,0.1,0.5,0.3,0.8,0.5
								c3.2,1.9,10.6,6.3,18.1-0.3c1.9-1.7,3.2-2.3,4.4-2.8c1.7-0.8,3-1.4,5.8-5.5c2.9-4.3,9.4-22.6,9.6-32.1
								c0.3-12,0.4-26.1-0.2-29.5c-0.1-0.4,0.2-0.8,0.6-0.8c0.4-0.1,0.8,0.2,0.8,0.6c0.7,4.4,0.4,23.9,0.2,29.8
								c-0.2,9.8-6.9,28.5-9.9,32.9c-3,4.5-4.6,5.2-6.4,6c-1.1,0.5-2.3,1-4.1,2.6C127,153.1,123.7,154,120.8,154z"/>
							<path class="st19" d="M79.9,108.6c-0.1,0-0.1,0-0.2,0c-0.2-0.1-4.3-1.4-4.3-10.7c0-8.8,8.6-14.7,18.6-21.5l1.5-1.1
								c9.9-6.8,10.7-13.7,10.7-13.8c0-0.4,0.4-0.7,0.8-0.6c0.4,0,0.7,0.4,0.6,0.8c0,0.3-0.8,7.6-11.3,14.8l-1.5,1.1
								c-9.6,6.6-17.9,12.3-17.9,20.3c0,8.1,3.3,9.3,3.3,9.3c0.4,0.1,0.6,0.5,0.4,0.9C80.5,108.4,80.2,108.6,79.9,108.6z"/>
							<path class="st19" d="M90.1,126L90.1,126c-16.9-0.9-22.2-14.8-21.6-26.4c0.7-13.4,11.7-22.7,23.5-30.7
								c10.3-7,10.5-12.7,10.5-12.8c0-0.4,0.3-0.7,0.7-0.7c0.4,0.1,0.7,0.3,0.7,0.7c0,0.3-0.1,6.5-11.2,14
								c-11.5,7.8-22.2,16.8-22.9,29.6c-0.6,10.9,4.4,24,20.2,24.9c0.4,0,0.7,0.4,0.7,0.8C90.8,125.7,90.5,126,90.1,126z"/>
							<path class="st19" d="M84.3,121.9L84.3,121.9c-2.3-0.2-9.2-5.2-10.6-9.1c-0.6-1.8,0-2.9,0.7-3.5c0.9-0.9,2-1.2,3-1
								c2.7,0.5,4.6,4.2,4.8,4.7c0.2,0.4,0,0.8-0.3,1c-0.4,0.2-0.8,0-1-0.3c-0.5-1-2.1-3.6-3.7-3.9c-0.6-0.1-1.2,0.1-1.8,0.7
								c-0.3,0.3-0.7,0.8-0.3,2c1.2,3.5,7.8,8.1,9.3,8.2c0.4,0,0.7,0.4,0.7,0.8C85,121.6,84.7,121.9,84.3,121.9z"/>
							<path class="st19" d="M73.8,87.2c0,0-0.1,0-0.1,0c-0.8-0.1-3.1-1.4-2.3-13.4C72.6,54.6,84.8,42,86.1,40.6
								c4.6-4.6,18.2-11.8,27.6-12.3c8.6-0.4,19.7,4.9,24.7,8.3c4.7,3.3,13.1,11.7,15.3,20.6c3,12,3.4,18.4,1.3,19.1
								c-0.4,0.1-0.8-0.1-0.9-0.5c-0.1-0.4,0.1-0.8,0.5-0.9c0.5-0.4,1.1-4.3-2.2-17.4c-2.1-8.5-10.2-16.7-14.8-19.8
								c-4.8-3.3-15.6-8.5-23.9-8c-8.9,0.4-22.3,7.5-26.6,11.8c-4.9,4.9-13.4,17.1-14.4,32.2c-0.7,10.8,1.2,12,1.2,12
								c0.4,0.1,0.6,0.4,0.5,0.8C74.4,87,74.1,87.2,73.8,87.2z"/>
							<path class="st19" d="M155.1,102.9c-0.2,0-0.3,0-0.4-0.1c-0.3-0.2-0.4-0.7-0.1-1c2.4-3.2,2.7-6.1,0.8-9.3
								c-1.8-3.1-8.6-5.6-19.5-7c-6.2-0.8-20.8-2.7-27.9-19.4c-7-16.5,3.2-23.4,3.3-23.5c0.3-0.2,0.8-0.1,1,0.2
								c0.2,0.3,0.1,0.8-0.2,1c-0.4,0.3-9.3,6.4-2.7,21.7c6.8,15.9,20.3,17.7,26.8,18.5c11.5,1.5,18.4,4.1,20.5,7.7
								c2.2,3.7,1.9,7.2-0.9,10.9C155.5,102.8,155.3,102.9,155.1,102.9z"/>
							<path class="st19" d="M155.5,91.7c-0.3,0-0.5-0.2-0.6-0.4c-1.8-3.8-5.9-7.5-11.4-10.2c-1.3-0.6-2.6-1.2-3.8-1.8
								c-5.2-2.4-10.5-4.9-19.6-11.6c-14.7-10.9-10.2-23.6-10.2-23.7c0.1-0.4,0.5-0.6,0.9-0.4c0.4,0.1,0.6,0.5,0.4,0.9
								c-0.2,0.5-4.1,11.8,9.7,22.1c9,6.7,14.3,9.1,19.4,11.5c1.3,0.6,2.5,1.2,3.8,1.8c5.8,2.9,10.1,6.7,12.1,10.9
								c0.2,0.4,0,0.8-0.3,0.9C155.7,91.7,155.6,91.7,155.5,91.7z"/>
							<path class="st19" d="M156.1,103.3c-0.2,0-0.4-0.1-0.6-0.3c-0.2-0.3-0.2-0.8,0.1-1c6.2-4.9,4.8-14.9,3.1-18.2
								c-6.8-13.7-18-20.5-26.1-23.8c-18.5-7.5-16-16.8-15.9-17.2c0.1-0.4,0.5-0.6,0.9-0.5c0.4,0.1,0.6,0.5,0.5,0.9
								c0,0.1-2.1,8.5,15.1,15.5c8.4,3.4,19.8,10.4,26.8,24.5c1.8,3.6,3.4,14.6-3.5,20C156.4,103.3,156.2,103.3,156.1,103.3z"/>
							<path class="st19" d="M148.9,118.4c-0.2,0-0.4-0.1-0.5-0.2c-0.3-0.3-0.3-0.7,0-1c4.1-4,9.7-11.2,7.4-13.6
								c-0.9-1-1.8-1.4-2.5-1.2c-1.4,0.3-2.5,2.8-2.8,3.7c-0.1,0.4-0.5,0.6-0.9,0.5c-0.4-0.1-0.6-0.5-0.5-0.9
								c0.1-0.4,1.3-4.1,3.8-4.7c1.3-0.3,2.6,0.3,3.9,1.7c3.9,4.3-6.3,14.5-7.5,15.6C149.3,118.3,149.1,118.4,148.9,118.4z"/>
							<path class="st19" d="M114.5,124.3c-0.5,0-1-0.2-1.4-0.9c-0.6-1-0.1-1.9,0.5-3c0.6-1.2,1.6-3,2-6.3c0.8-6-1.5-13.4-1.5-13.5
								c-0.1-0.4,0.1-0.8,0.5-0.9c0.4-0.1,0.8,0.1,0.9,0.5c0.1,0.3,2.4,7.8,1.5,14.1c-0.5,3.5-1.5,5.5-2.2,6.8
								c-0.5,1-0.7,1.3-0.5,1.6c0.1,0.2,0.1,0.3,1.1-0.2c0.7-0.4,1.6-0.8,2.5-0.5c1.3,0.4,1.8,0.2,3.1-0.2c1-0.3,1.9,0,2.6,0.3
								c0.3,0.1,0.6,0.2,0.9,0.2c0,0,0-0.1,0-0.1c0-0.4,0.3-0.7,0.7-0.7s0.7,0.3,0.7,0.7c0,0.6-0.2,1-0.6,1.3
								c-0.6,0.4-1.4,0.2-2.2-0.1c-0.6-0.2-1.2-0.4-1.6-0.3c-1.6,0.5-2.4,0.7-4,0.2c-0.4-0.1-1,0.2-1.5,0.4
								C115.7,124,115.1,124.3,114.5,124.3z"/>
							<path class="st19" d="M119,135.2c-0.5,0-1.1,0-1.6-0.1c-5.9-0.4-8-1.8-8.1-1.8c-0.3-0.2-0.4-0.7-0.2-1c0.2-0.3,0.7-0.4,1-0.2
								c0,0,2,1.2,7.4,1.6c5.6,0.4,12.4-1.6,14.3-2.3c0.4-0.1,0.8,0,0.9,0.4c0.1,0.4-0.1,0.8-0.4,0.9
								C130.4,133.5,124.4,135.2,119,135.2z"/>
							<g>
								<path class="st9" d="M108.7,100.8c-0.4,0.4,0.4,2.1-6.6,3.9c-6.2,1.6-8.5-1.5-8.5-1.5s1.6-3.8,7.2-4.4
									C106.4,98.1,108.7,100.8,108.7,100.8z"/>
								<path class="st19" d="M98.8,105.8c-4,0-5.7-2.1-5.8-2.2c-0.2-0.2-0.2-0.5-0.1-0.7c0.1-0.2,1.8-4.2,7.8-4.8
									c5.9-0.7,8.4,2.2,8.5,2.3c0.2,0.3,0.2,0.6,0,0.9c-0.5,1.4-1.6,2.8-6.9,4.1C101,105.7,99.8,105.8,98.8,105.8z M94.5,103.1
									c0.8,0.7,3,2.1,7.4,0.9c5.1-1.3,5.7-2.5,5.9-3c-0.7-0.6-2.9-2-6.9-1.5C96.9,99.9,95.1,102.1,94.5,103.1z"/>
							</g>
							<path class="st19" d="M111.7,97.2c0,0-3-3.7-7.6-3.3c-4.6,0.3-7.1,0-11.3,2.3c-4.2,2.3-4.3,3.2-4.2,2.3
								c0.1-1,3.9-3.5,6.9-4.8c3-1.3,7-2,10.4-1.3C109.3,93,112.1,96,111.7,97.2z"/>
							<path class="st19" d="M98.8,99.1c0,0-2.9,4.1,0.2,5.2c3.1,1.1,6.2-0.5,5.7-2.9c-0.5-2.4-1.9-2.7-3.2-2.6
								C100.2,98.9,98.8,99.1,98.8,99.1z"/>
							<g>
								<path class="st9" d="M125.2,100.2c0.7,1.2,0.6,2.6,6.9,3.2c6.3,0.5,8.3-2.4,8.3-2.4s-2-3.6-7.6-3.6
									C127.2,97.3,125.2,100.2,125.2,100.2z"/>
								<path class="st19" d="M133.6,104.1c-0.5,0-1,0-1.5-0.1c-5.5-0.4-6.5-1.6-7.3-3.1c-0.1-0.1-0.1-0.3-0.2-0.4
									c-0.1-0.2-0.1-0.5,0-0.8c0.1-0.1,2.2-3.2,8-3.2c0,0,0.1,0,0.1,0c6,0.1,8.2,3.8,8.2,4c0.1,0.2,0.1,0.5,0,0.7
									C140.9,101.4,139.1,104.1,133.6,104.1z M126.1,100.3L126.1,100.3c0.5,0.9,1,1.9,6.1,2.4c4.5,0.4,6.6-1.1,7.3-1.7
									c-0.7-0.9-2.7-2.8-6.7-2.9c0,0-0.1,0-0.1,0C128.7,98,126.7,99.6,126.1,100.3z"/>
							</g>
							<path class="st19" d="M122.6,96.6c0,0,2.6-4,7.2-4.1c4.6-0.2,7.1-0.8,11.5,1c4.4,1.8,4.6,2.8,4.4,1.8c-0.2-1-4.2-3.1-7.4-4.1
								c-3.1-1-7.2-1.3-10.5-0.2S122.1,95.5,122.6,96.6z"/>
							<path class="st19" d="M134.9,97.4c0,0,3.3,3.8,0.3,5.2c-3,1.4-6.3,0.1-6-2.3c0.3-2.4,1.6-2.9,2.9-2.9
								C133.5,97.3,134.9,97.4,134.9,97.4z"/>
							<path class="st19" d="M93.8,36.3c-0.1,0-0.2,0-0.4-0.1c-0.2-0.1-5.6-3.2-8.8-8.3c-3.4-5.5,1.6-12.2,8.1-16.5
								c2.1-1.3,4.1-1.8,6.1-1.4c2.3,0.5,3.8,2,4.4,2.8c3.6-2.4,7.6-4.2,10.4-3.9c5.2,0.6,13.3,6.5,14,10.2
								c0.6,3.5-1.5,9.6-2.7,11.7c-0.2,0.3-0.7,0.4-1,0.2c-0.3-0.2-0.4-0.6-0.2-1c1.2-1.9,3.1-7.7,2.5-10.7c-0.5-2.8-7.9-8.5-12.7-9
								C109.1,10,101,15.7,96.8,20c-4,4.2-5,6-4.7,8.6c0.4,2.9,2.3,6.7,2.3,6.7c0.1,0.3,0.1,0.6-0.1,0.8
								C94.2,36.3,94,36.3,93.8,36.3z M97.4,11.4c-1.2,0-2.5,0.4-3.9,1.3c-5.7,3.7-10.6,9.9-7.7,14.5c1.8,2.9,4.5,5.2,6.3,6.5
								c-0.6-1.4-1.2-3.2-1.4-4.9c-0.5-3.4,1.2-5.7,5.1-9.8c1.6-1.7,3.8-3.6,6.2-5.3c-0.6-0.7-1.8-1.9-3.5-2.3
								C98.2,11.4,97.8,11.4,97.4,11.4z"/>
							<path class="st19" d="M97.6,34.3c-0.2,0-0.5-0.1-0.6-0.3c-0.2-0.3-1.1-2,1.6-6.1c2.3-3.5,8-8.9,13.4-8.9c0.1,0,0.2,0,0.2,0
								c3,0.1,6.4,2.1,8.3,5c1.3,2,1.7,4.1,1.1,5.9c-0.1,0.4-0.5,0.6-0.9,0.4c-0.4-0.1-0.6-0.6-0.4-0.9c0.5-1.3,0.2-2.9-0.9-4.6
								c-1.7-2.5-4.6-4.3-7.2-4.4c-4.7-0.1-10.1,4.8-12.4,8.3c-2.2,3.3-1.6,4.5-1.6,4.5c0.2,0.3,0.1,0.7-0.2,1
								C97.9,34.3,97.8,34.3,97.6,34.3z"/>
						</g>
						<path class="st9" d="M105.2,102.4c0,0.7-0.6,1.2-1.4,1.2c-0.8,0-1.4-0.6-1.4-1.2c0-0.7,0.6-1.2,1.4-1.2
							C104.6,101.1,105.2,101.7,105.2,102.4z"/>
						<path class="st9" d="M136.8,101.6c0,0.7-0.6,1.2-1.4,1.2c-0.8,0-1.4-0.6-1.4-1.2c0-0.7,0.6-1.2,1.4-1.2
							C136.1,100.4,136.8,101,136.8,101.6z"/>
					</g>
				</g>
			</g>
			<use xlink:href="#SVGID_25_"  style="overflow:visible;fill:none;stroke:#F1748A;stroke-width:4;stroke-miterlimit:10;"/>
		</g>
	</g>
</g>
<g id="Layer_2" class="st39">
</g>
</svg>
