<?xml version="1.0" standalone="no"?>
<!DOCTYPE svg PUBLIC "-//W3C//DTD SVG 20010904//EN"
 "http://www.w3.org/TR/2001/REC-SVG-20010904/DTD/svg10.dtd">
<svg version="1.0" xmlns="http://www.w3.org/2000/svg"
 width="1079.000000pt" height="1108.000000pt" viewBox="0 0 1079.000000 1108.000000"
 preserveAspectRatio="xMidYMid meet">

<g transform="translate(0.000000,1108.000000) scale(0.100000,-0.100000)"
fill="#000000" stroke="none">
<path d="M4840 10749 c-25 -5 -79 -11 -120 -14 -41 -3 -127 -19 -190 -36 -63
-17 -164 -44 -225 -60 -143 -39 -201 -48 -275 -44 -72 4 -110 25 -110 60 0 16
-6 25 -15 25 -10 0 -15 -11 -15 -35 0 -27 6 -37 28 -49 17 -10 21 -15 11 -16
-9 0 -22 -13 -29 -30 -7 -16 -16 -30 -21 -30 -5 0 -6 -6 -4 -12 4 -12 -37 -68
-49 -68 -17 0 -537 -519 -637 -635 -14 -17 -42 -43 -62 -58 -29 -22 -37 -34
-35 -56 2 -28 -29 -111 -41 -111 -4 0 -15 -23 -26 -52 -14 -36 -30 -57 -53
-71 -30 -18 -82 -104 -82 -135 0 -15 -33 -85 -44 -93 -9 -7 -54 -111 -63 -144
-2 -11 -9 -31 -15 -45 -24 -56 -28 -67 -42 -115 -41 -134 -123 -350 -160 -421
-20 -37 -36 -73 -36 -81 0 -7 -27 -93 -59 -191 -33 -97 -73 -233 -90 -302 -16
-69 -38 -161 -49 -205 -27 -108 -41 -183 -44 -225 -1 -19 -8 -44 -14 -55 -30
-48 -55 -291 -59 -585 -2 -135 -4 -245 -6 -245 -8 0 -4 -171 4 -177 6 -3 12
-55 13 -115 7 -308 11 -357 35 -398 26 -44 30 -71 16 -102 -7 -16 -6 -34 3
-62 12 -36 11 -42 -9 -67 -13 -17 -21 -41 -21 -67 0 -65 22 -221 32 -228 14
-9 13 -72 0 -77 -16 -5 -15 -31 5 -92 15 -48 15 -54 0 -83 -9 -18 -16 -48 -15
-67 1 -41 -16 -128 -43 -218 -11 -35 -16 -74 -13 -87 4 -17 0 -27 -15 -37 -25
-15 -27 -45 -5 -69 15 -17 15 -21 -3 -51 -10 -18 -24 -33 -29 -33 -6 0 -27 -9
-47 -20 -36 -19 -37 -19 -52 0 -15 20 -16 20 -31 -3 -9 -12 -25 -22 -35 -22
-18 0 -69 -20 -79 -30 -17 -19 -63 -40 -87 -40 -15 0 -41 -7 -58 -16 -16 -8
-68 -24 -115 -35 -47 -11 -114 -28 -150 -39 -36 -11 -104 -31 -152 -44 -48
-14 -100 -32 -115 -40 -16 -8 -62 -25 -103 -36 -68 -19 -204 -59 -320 -95 -25
-7 -73 -16 -108 -19 -102 -9 -165 33 -240 162 -18 32 -37 68 -43 82 -10 24
-13 253 -4 300 3 14 9 50 15 80 11 56 25 94 67 188 13 28 27 73 32 98 5 25 18
55 29 67 32 35 122 188 122 209 0 10 11 50 25 90 38 111 50 200 47 343 -2 140
14 344 29 360 5 5 9 39 9 75 0 42 6 79 16 99 9 18 19 63 21 100 3 36 7 73 10
81 4 8 5 19 4 23 -2 9 27 63 46 87 11 14 28 92 39 180 2 19 7 42 11 50 3 8 9
35 14 60 4 25 13 65 19 90 6 25 18 110 26 190 20 197 24 223 40 241 14 16 37
146 28 161 -5 8 24 135 35 153 10 17 40 138 40 165 1 32 30 160 41 181 5 9 9
40 11 70 1 30 5 59 9 64 4 6 10 45 14 88 6 66 5 77 -9 77 -9 0 -15 9 -15 24 0
43 -10 56 -45 56 -18 0 -35 5 -37 12 -3 7 -29 13 -64 15 -98 4 -174 23 -174
43 0 4 -12 11 -26 14 -14 4 -47 28 -72 54 -59 59 -116 102 -137 102 -9 0 -30
7 -47 16 -17 9 -52 22 -79 30 -27 8 -49 19 -49 24 0 6 -93 10 -235 9 l-235 0
0 -2098 0 -2098 25 -11 c14 -6 25 -16 25 -22 0 -5 6 -10 13 -10 7 0 24 -11 39
-25 15 -14 32 -25 37 -25 5 0 18 -13 28 -30 9 -16 20 -30 23 -30 4 0 26 -18
51 -40 24 -22 52 -42 62 -46 9 -3 17 -12 17 -20 0 -9 12 -29 28 -45 15 -17 35
-39 44 -49 10 -11 21 -32 24 -47 4 -16 13 -37 20 -48 36 -57 60 -254 33 -271
-5 -3 -9 -18 -9 -33 0 -16 -13 -44 -30 -66 -16 -20 -32 -44 -35 -53 -5 -16
-39 -34 -175 -93 -30 -13 -57 -26 -60 -30 -3 -3 -40 -12 -83 -19 l-77 -13 0
-1769 0 -1768 945 0 c714 1 945 3 945 12 0 9 3 9 12 0 16 -16 55 -15 61 1 4 9
6 9 6 0 1 -10 177 -13 844 -13 523 0 836 4 827 10 -12 8 -12 10 3 16 9 3 15 9
12 13 -2 4 2 8 10 8 8 0 15 -4 15 -9 0 -4 -4 -8 -10 -8 -5 0 -10 -7 -10 -15 0
-12 14 -15 69 -15 l69 0 6 38 c11 81 19 157 17 166 -1 5 2 12 8 15 8 6 40 139
61 261 5 25 15 72 23 105 22 88 36 252 41 492 4 179 2 212 -10 217 -10 4 -13
14 -9 33 l5 28 -14 -30 c-9 -16 -15 -39 -16 -49 -1 -44 -11 -3 -20 80 -5 49
-15 109 -21 134 -21 78 -49 96 -49 30 0 -22 -8 -58 -17 -80 -37 -85 -47 -37
-33 150 11 154 21 182 48 140 9 -14 35 -43 57 -65 22 -22 56 -61 74 -87 19
-27 39 -48 45 -48 17 0 57 -51 79 -100 11 -25 40 -67 63 -94 24 -26 44 -53 44
-60 1 -19 47 -106 53 -100 7 8 42 -26 50 -48 4 -10 12 -18 19 -18 7 0 24 -25
37 -54 13 -30 32 -57 41 -59 24 -6 44 -96 37 -166 -17 -158 -28 -248 -33 -263
-4 -14 -1 -16 11 -12 14 6 16 1 11 -37 -3 -24 -8 -91 -11 -149 -3 -58 -15
-142 -25 -188 -11 -46 -20 -85 -20 -88 0 -9 19 -3 33 11 13 12 16 7 28 -45 13
-60 13 -60 49 -60 20 0 41 5 48 12 7 7 12 8 12 2 0 -5 9 4 20 21 19 29 25 24
21 -17 -1 -10 4 -18 13 -18 10 0 16 14 20 43 3 23 9 69 14 102 l8 60 8 -102
c8 -101 9 -103 33 -103 l25 0 -7 93 c-4 50 -9 99 -11 109 -3 9 -1 19 5 22 10
7 17 -30 27 -146 l6 -78 99 0 c81 0 99 3 99 15 0 8 -9 77 -19 152 -11 76 -22
203 -26 283 -4 80 -11 152 -16 161 -4 9 -17 60 -28 115 -24 117 -127 431 -172
524 -33 68 -108 198 -164 286 -18 28 -60 103 -94 168 -34 64 -71 131 -84 150
-93 139 -161 245 -209 331 -31 55 -79 131 -107 168 -27 38 -53 77 -56 88 -4
10 -10 19 -14 19 -4 0 -18 20 -30 44 -13 24 -36 58 -51 75 -31 33 -47 71 -31
71 13 0 -23 100 -40 110 -10 7 -9 19 5 67 10 32 19 87 21 122 3 34 9 68 14 75
6 7 15 46 22 87 6 40 16 78 20 83 5 6 9 18 9 28 0 10 7 18 14 18 12 0 13 6 5
29 -10 29 14 152 46 231 15 37 38 171 55 309 5 46 12 86 14 89 7 7 37 -6 34
-15 -5 -19 14 -112 31 -153 37 -89 50 -125 56 -159 4 -18 16 -42 26 -52 10
-10 19 -29 19 -41 0 -13 9 -34 20 -48 11 -14 20 -31 20 -38 0 -7 4 -20 9 -30
5 -9 14 -42 19 -72 27 -141 43 -202 76 -290 19 -52 51 -155 71 -229 19 -74 43
-143 52 -153 9 -10 12 -18 7 -18 -5 -1 3 -8 19 -16 15 -8 27 -23 27 -34 0 -10
4 -21 10 -25 5 -3 7 -12 3 -20 -3 -8 -2 -26 1 -40 5 -19 13 -25 35 -25 34 0
91 -19 91 -30 0 -5 -4 -12 -10 -15 -19 -12 -10 -31 25 -49 19 -11 35 -23 35
-29 0 -5 7 -4 15 3 13 11 14 10 9 -4 -3 -9 -2 -16 3 -16 6 0 15 -11 21 -25 7
-16 20 -25 34 -25 17 0 19 -3 10 -12 -7 -7 -12 -18 -12 -25 0 -18 37 -16 44 2
5 14 9 14 34 1 16 -8 59 -20 95 -27 37 -7 67 -17 67 -24 0 -12 36 -45 50 -45
5 0 12 4 15 10 3 6 -1 7 -12 4 -16 -5 -16 -4 1 6 12 8 37 10 67 7 27 -3 49 -4
49 -2 0 3 -18 14 -40 25 -85 43 -91 126 -15 204 25 25 42 46 38 47 -5 1 -20 0
-35 -1 -15 -1 -37 4 -49 10 -12 7 -19 7 -15 2 12 -20 -68 -9 -87 12 -15 17
-21 18 -37 8 -25 -16 -30 -15 -30 3 0 9 -10 15 -27 16 -18 1 -22 3 -10 6 23 6
16 28 -9 28 -10 0 -19 5 -19 10 0 6 -14 24 -31 41 -17 16 -39 44 -49 61 -15
26 -22 30 -41 23 -26 -10 -48 9 -65 58 -7 20 -15 29 -25 25 -9 -3 -14 2 -14
16 0 12 -6 21 -15 21 -8 0 -15 5 -15 10 0 6 6 10 13 10 7 0 18 5 25 12 9 9 8
16 -5 30 -15 17 -15 18 3 19 10 1 25 1 32 0 9 -2 12 4 8 17 -4 12 4 43 20 76
21 44 31 55 44 51 11 -3 20 1 24 10 3 10 2 13 -4 10 -7 -4 -9 4 -6 20 3 15 6
28 8 29 27 11 44 27 48 44 6 28 51 82 67 82 33 0 37 84 8 160 -7 19 -18 55
-25 80 -7 25 -18 65 -25 90 -8 25 -15 75 -18 112 -4 65 -1 73 25 69 4 0 5 22
2 49 -5 47 -4 50 18 50 48 0 65 10 61 34 -4 20 0 24 36 30 23 3 41 10 41 15 0
5 11 12 25 15 37 9 59 50 56 105 -1 39 2 51 24 71 24 22 26 31 24 85 -2 33 -7
66 -12 73 -6 7 -10 31 -10 55 1 23 -4 51 -10 62 -6 11 -12 34 -14 50 -1 17 -5
39 -7 50 -4 15 2 24 24 34 17 7 30 20 30 31 0 9 6 23 14 29 23 19 104 29 149
19 51 -12 336 -13 348 -1 4 4 -4 9 -19 10 -15 1 -49 3 -77 5 -82 5 -108 42
-66 92 12 14 13 20 4 23 -7 3 -13 15 -13 28 0 13 -10 31 -22 39 -12 9 -17 16
-10 16 7 0 10 5 7 10 -10 17 5 70 21 70 11 0 14 18 14 80 0 74 -2 80 -20 80
-16 0 -19 4 -12 17 5 10 8 24 6 31 -1 7 0 8 3 2 2 -5 9 -10 14 -10 14 0 11 38
-3 44 -7 3 1 2 17 -1 27 -6 28 -4 17 10 -11 13 -10 17 4 25 10 6 15 16 11 26
-5 12 0 16 16 17 21 0 21 1 -2 10 -14 5 -36 7 -50 4 -42 -8 -125 18 -136 43
-5 12 -14 22 -20 22 -15 1 -65 71 -65 92 0 12 11 23 30 29 17 6 30 17 30 25 0
8 6 14 14 14 8 0 16 4 18 10 2 5 19 11 38 13 19 3 43 8 53 12 9 4 24 2 31 -4
10 -8 16 -9 21 -1 3 5 19 10 36 10 16 0 29 5 29 10 0 6 9 10 19 10 11 0 22 4
25 9 3 5 18 12 33 15 58 14 83 30 83 53 0 13 -5 23 -11 23 -6 0 -9 6 -6 13 2
6 11 11 21 9 19 -3 22 24 4 31 -7 2 6 7 30 11 23 4 42 11 42 15 0 3 23 12 51
18 28 7 57 20 64 29 8 11 19 15 30 10 22 -8 75 14 75 31 0 7 4 13 8 13 11 0
139 146 191 219 61 86 115 95 133 23 8 -31 30 -42 43 -21 4 6 -2 13 -14 16
-24 6 -28 28 -6 36 16 7 25 -4 40 -48 6 -16 17 -30 25 -30 8 0 16 -7 16 -15 1
-8 2 -20 3 -27 1 -15 30 -10 42 8 5 8 9 24 9 35 0 12 7 24 14 27 8 3 18 23 21
44 3 21 10 46 16 55 5 10 9 29 9 43 0 16 6 25 16 25 11 0 15 6 11 19 -3 11 0
41 5 66 8 39 7 49 -8 66 -9 10 -22 19 -28 19 -7 0 -29 18 -50 40 -21 22 -46
40 -56 40 -10 0 -25 11 -34 25 -9 14 -27 27 -41 31 -14 3 -25 12 -25 18 0 14
-41 36 -65 36 -8 0 -15 5 -15 10 0 6 -6 10 -14 10 -8 0 -16 7 -20 15 -3 8 -14
15 -25 15 -11 0 -33 14 -49 30 -17 17 -34 30 -39 30 -4 0 -13 10 -18 22 -6 12
-19 26 -30 32 -11 6 -39 23 -62 38 -23 15 -46 28 -52 28 -6 0 -11 5 -11 10 0
21 -37 9 -48 -15 -16 -34 -15 -55 1 -55 14 0 47 -35 47 -50 0 -12 34 -30 58
-30 10 0 27 -9 37 -20 10 -11 37 -31 61 -45 23 -14 53 -40 66 -58 32 -45 116
-127 131 -127 7 0 32 -18 56 -39 37 -33 42 -42 32 -54 -8 -11 -9 -17 -1 -22
19 -12 0 -24 -28 -19 -47 10 -242 -76 -242 -106 0 -10 -7 -25 -15 -34 -8 -8
-15 -26 -15 -41 0 -32 -17 -65 -42 -83 -10 -7 -18 -19 -18 -27 0 -17 -50 -65
-68 -65 -7 0 -17 -11 -22 -25 -11 -30 -54 -49 -93 -41 -23 5 -29 1 -37 -18
-10 -28 -64 -57 -109 -58 -17 -1 -31 -5 -31 -9 0 -10 -54 -25 -124 -35 -41 -6
-51 -4 -63 12 -12 17 -13 17 -13 -3 0 -15 -8 -22 -31 -27 -62 -12 -126 -7
-150 13 -22 18 -24 27 -23 101 1 67 5 85 21 101 21 21 35 23 96 13 22 -4 49
-2 60 4 32 15 146 50 191 58 21 4 68 18 105 31 36 13 95 34 131 45 36 12 74
28 85 35 11 7 27 13 37 13 10 0 18 4 18 9 0 5 -16 5 -37 0 -21 -5 -99 -14
-173 -20 -74 -6 -144 -15 -155 -20 -20 -9 95 -3 143 7 12 2 22 0 22 -4 0 -5
-39 -17 -86 -26 -80 -16 -88 -16 -105 0 -13 12 -28 15 -59 10 -22 -3 -58 -9
-81 -12 -25 -4 -56 -1 -82 9 -23 8 -66 21 -95 28 -49 12 -52 15 -52 43 1 69 0
77 -9 72 -10 -6 -20 60 -13 85 2 9 18 20 35 23 17 3 42 14 56 23 15 9 36 18
49 19 13 2 30 8 39 15 13 11 12 15 -9 31 -13 9 -27 18 -33 18 -30 2 -69 59
-78 115 -3 17 -10 48 -16 70 -11 42 -4 135 10 135 5 0 6 6 3 14 -3 8 0 17 6
21 7 4 8 11 1 18 -6 8 -5 30 4 62 14 54 11 69 -10 61 -20 -7 -26 21 -30 128
-2 52 -8 103 -14 115 -16 28 -14 34 9 28 26 -7 25 4 -1 34 -11 13 -23 36 -26
51 -3 16 -9 28 -14 28 -5 0 -9 17 -9 39 0 21 -11 58 -25 85 -13 25 -21 46 -17
46 4 0 2 4 -4 8 -13 8 -44 97 -44 126 0 12 -9 35 -20 51 -11 17 -20 24 -20 18
0 -8 -8 -5 -20 7 -11 11 -29 20 -40 20 -11 0 -20 4 -20 10 0 5 -18 13 -40 16
-24 4 -40 12 -40 20 0 8 -7 14 -15 14 -8 0 -15 -5 -15 -11 0 -7 -12 1 -26 16
-21 23 -25 35 -21 64 3 20 3 28 1 19 -6 -21 -24 -24 -24 -5 0 13 -54 50 -62
42 -3 -3 -13 4 -23 15 -22 24 -35 26 -35 5 0 -18 -11 -19 -44 -3 -22 9 -24 14
-13 26 10 13 8 15 -20 9 -26 -5 -31 -3 -26 9 3 8 2 14 -3 13 -16 -4 -61 19
-67 33 -5 15 -87 12 -87 -3 0 -5 -16 -9 -35 -9 -27 0 -35 4 -35 18 0 13 -2 14
-9 4 -6 -10 -10 -10 -21 3 -9 11 -9 15 -1 15 8 0 7 6 -3 16 -20 19 -20 29 -1
48 10 10 13 24 9 39 -3 14 -1 28 5 31 7 4 11 -1 11 -13 0 -12 5 -21 10 -21 6
0 10 10 10 23 1 88 12 213 20 221 13 13 13 56 1 56 -5 0 -19 -16 -31 -35 -24
-39 -34 -38 -44 1 -4 14 -16 35 -26 47 -11 12 -20 35 -20 53 0 18 -4 34 -9 36
-15 5 -15 48 -2 126 7 41 11 86 8 100 -3 16 1 35 9 46 11 16 11 21 2 28 -10 5
-8 11 7 22 19 13 19 15 3 21 -14 6 -18 19 -18 55 0 53 25 124 40 115 6 -3 15
5 21 19 7 14 21 26 33 28 16 2 20 9 18 28 -7 56 0 159 11 178 14 21 37 14 37
-13 0 -14 -5 -25 -12 -25 -6 0 -8 -3 -5 -6 10 -11 38 17 35 35 -2 11 6 17 30
19 27 3 32 0 32 -17 0 -12 -4 -21 -10 -21 -5 0 -10 -9 -10 -20 0 -11 5 -20 10
-20 6 0 10 7 10 16 0 8 7 22 15 30 17 18 20 34 5 34 -22 0 -8 19 21 29 17 6
33 19 36 30 3 10 14 22 25 24 11 3 17 10 13 16 -3 6 -1 11 4 11 6 0 11 10 11
23 0 13 16 40 35 62 27 29 32 40 23 47 -9 5 -6 8 10 8 16 0 22 6 22 21 0 27
48 89 68 89 9 0 26 10 37 23 19 22 52 42 66 39 4 -1 9 12 13 29 5 26 10 30 33
27 16 -2 28 2 29 7 2 28 17 44 31 36 10 -5 25 -3 40 4 18 10 31 10 53 2 29
-11 36 -9 113 29 16 8 39 11 52 8 12 -3 26 -1 29 5 11 17 111 14 126 -4 7 -9
10 -18 7 -21 -8 -8 54 -64 70 -64 7 0 10 6 7 13 -4 10 22 14 118 16 67 1 126
5 131 8 21 13 78 3 104 -17 15 -12 26 -25 23 -28 -6 -8 62 -42 73 -35 4 2 7
-1 7 -6 0 -6 -4 -11 -10 -11 -22 0 -8 -16 15 -18 16 -1 25 3 25 13 0 8 17 -2
39 -25 22 -22 48 -41 58 -41 55 -4 68 -9 84 -30 10 -13 19 -19 19 -14 0 17 80
5 80 -11 0 -8 -10 -14 -22 -15 -15 0 -18 -2 -8 -6 8 -3 20 -12 26 -20 7 -7 21
-15 32 -18 60 -11 114 -65 91 -89 -5 -6 -9 -15 -9 -21 0 -16 64 -47 82 -40 21
8 42 -27 26 -43 -17 -17 7 -39 41 -37 27 2 29 0 25 -32 -3 -27 -1 -33 15 -33
11 0 21 6 24 13 3 8 13 4 31 -12 15 -15 23 -28 17 -34 -12 -12 10 -55 32 -61
15 -4 17 -8 8 -25 -14 -26 -14 -31 2 -31 16 0 48 -36 39 -45 -4 -3 -1 -9 5
-13 17 -10 28 -62 14 -62 -9 0 -9 -6 0 -22 7 -13 15 -25 18 -28 26 -22 43 -54
46 -91 3 -30 12 -49 26 -60 14 -11 18 -19 11 -23 -14 -9 7 -46 25 -46 7 0 13
-8 13 -18 0 -9 9 -23 20 -30 19 -11 18 -39 -2 -52 -13 -10 15 -133 36 -154 13
-13 16 -21 8 -24 -20 -6 -14 -37 12 -65 13 -14 27 -41 31 -59 4 -18 15 -44 24
-57 12 -19 16 -51 17 -131 0 -89 4 -113 23 -154 28 -57 65 -96 91 -96 10 0 22
-9 25 -21 4 -12 14 -19 23 -17 20 4 79 89 89 126 8 33 45 91 59 92 26 1 34
-47 32 -182 -2 -101 0 -140 10 -150 18 -18 30 3 37 62 3 25 12 65 20 90 27 87
28 121 3 170 -15 29 -31 46 -45 48 -12 2 -24 10 -27 17 -8 23 35 65 69 68 26
2 31 -2 43 -38 13 -38 12 -118 -3 -185 -3 -14 -6 -50 -6 -80 0 -30 -13 -100
-29 -155 -16 -59 -39 -186 -54 -310 -43 -335 -77 -447 -175 -578 -23 -29 -41
-58 -41 -62 0 -5 -11 -20 -24 -34 -38 -42 -48 -107 -40 -271 6 -144 6 -149
-26 -276 -18 -71 -36 -134 -41 -139 -4 -6 -4 -16 0 -23 5 -9 16 -7 45 7 45 23
89 15 124 -24 33 -39 29 -79 -13 -121 -19 -19 -35 -39 -35 -44 0 -19 -38 -10
-43 10 -3 11 -13 20 -22 20 -20 0 -64 49 -65 73 0 9 -4 17 -8 17 -10 0 -52
-43 -52 -53 0 -4 -13 -26 -30 -49 -16 -22 -30 -47 -30 -55 0 -7 -4 -13 -9 -13
-5 0 -14 -13 -20 -30 -5 -16 -14 -30 -19 -30 -15 0 -102 -187 -102 -218 0 -57
-12 -101 -26 -95 -40 15 -77 -210 -84 -516 -2 -52 -6 -126 -11 -165 -4 -39
-10 -109 -14 -156 -3 -47 -10 -103 -15 -125 -5 -22 -10 -55 -10 -72 0 -18 -4
-33 -8 -33 -5 0 -14 -24 -21 -52 -18 -74 -42 -139 -62 -168 -9 -14 -20 -48
-24 -75 -10 -79 -36 -157 -67 -200 -15 -22 -37 -67 -48 -99 -11 -33 -27 -71
-36 -84 -15 -23 -21 -44 -28 -103 -3 -32 -15 -51 -26 -44 -13 8 -22 -31 -15
-69 7 -33 5 -35 -26 -43 -25 -7 -35 -17 -44 -42 -6 -19 -22 -43 -36 -55 -14
-11 -36 -45 -48 -75 -27 -63 -70 -131 -83 -131 -5 0 -7 -8 -3 -19 8 -26 -20
-48 -40 -31 -12 10 -15 7 -21 -14 -3 -13 -2 -31 2 -38 5 -7 11 -41 14 -76 5
-55 3 -63 -13 -68 -15 -5 -18 -14 -15 -44 2 -21 1 -37 -1 -34 -8 8 -31 -19
-31 -38 0 -15 -5 -18 -19 -13 -14 4 -21 0 -25 -13 -7 -20 -30 -34 -81 -50 -16
-5 -30 -15 -30 -23 0 -16 -32 -42 -54 -46 -44 -6 -61 -15 -61 -31 0 -26 -20
-42 -51 -42 -15 0 -29 -7 -33 -15 -3 -8 -14 -15 -25 -15 -11 0 -24 -8 -30 -17
-10 -19 -95 -42 -158 -43 -24 0 -43 -5 -43 -11 0 -5 -4 -8 -9 -5 -5 3 -11 -4
-15 -17 -6 -26 2 -67 14 -67 4 0 10 -12 13 -26 4 -23 2 -25 -18 -20 -20 5 -24
1 -30 -24 -4 -16 -11 -32 -16 -35 -16 -10 -10 -43 9 -48 14 -4 14 -6 -5 -12
-13 -4 -23 -15 -23 -24 0 -19 -38 -44 -61 -41 -27 4 -40 0 -34 -10 4 -6 10 -8
15 -5 5 3 19 1 30 -5 16 -9 25 -8 36 1 11 9 14 8 14 -9 0 -17 -5 -20 -40 -16
-22 2 -40 -1 -40 -6 0 -6 -11 -10 -25 -10 -14 0 -25 -3 -25 -8 0 -4 11 -19 25
-34 14 -15 25 -31 25 -37 0 -5 8 -12 18 -14 12 -3 13 -5 2 -6 -8 0 -21 -10
-27 -21 -13 -20 -7 -54 8 -44 5 3 14 2 21 -2 8 -5 7 -10 -4 -18 -19 -14 -34
-76 -19 -76 19 0 12 -22 -9 -27 -24 -6 -26 -28 -4 -37 12 -4 14 -13 10 -31 -4
-17 -2 -24 6 -23 7 2 12 -10 14 -29 1 -29 -1 -32 -21 -27 -15 4 -24 0 -28 -11
-8 -20 18 -31 38 -15 8 6 19 9 25 5 7 -5 0 -17 -19 -34 -17 -15 -31 -35 -31
-44 0 -9 -5 -19 -10 -22 -8 -5 -8 -11 0 -20 9 -10 6 -16 -9 -25 -15 -8 -21
-21 -21 -45 0 -21 -6 -37 -16 -43 -12 -7 -14 -14 -6 -28 12 -25 5 -44 -15 -37
-13 5 -15 1 -9 -29 4 -25 2 -39 -8 -47 -7 -6 -17 -33 -21 -58 -4 -25 -13 -56
-21 -68 -8 -12 -11 -25 -7 -28 3 -4 1 -7 -6 -7 -9 0 -12 -9 -8 -27 5 -27 -23
-121 -48 -159 -17 -26 -16 -10 -15 -259 1 -206 6 -254 42 -438 l21 -107 66 0
66 0 19 48 c11 26 24 53 29 60 14 18 68 145 129 302 12 30 35 87 53 125 17 39
44 104 60 145 15 41 34 82 42 91 14 16 35 68 102 244 55 144 96 229 157 322
30 44 54 84 54 87 0 3 28 46 63 96 78 115 112 169 150 245 17 33 39 66 49 73
10 7 30 35 43 62 14 27 34 54 45 60 11 6 23 25 28 43 5 17 14 31 21 29 8 -1 9
7 5 24 -5 19 -4 25 5 20 6 -4 14 0 18 11 15 42 80 132 137 192 33 35 70 73 81
85 12 11 43 39 70 61 27 22 60 50 73 63 14 12 30 22 35 22 6 0 19 7 29 16 16
15 18 15 24 1 6 -18 -31 -77 -48 -77 -21 0 -304 -286 -360 -365 -32 -44 -65
-90 -74 -103 -34 -46 -40 -85 -32 -203 5 -63 6 -168 3 -234 -3 -66 -10 -244
-15 -395 -6 -151 -15 -302 -20 -335 -5 -33 -10 -89 -10 -125 0 -36 -5 -94 -10
-130 -11 -78 -30 -272 -35 -355 -2 -33 -8 -73 -14 -88 -6 -16 -11 -49 -10 -75
l1 -47 13 55 c17 77 33 174 41 248 3 34 12 69 19 76 9 9 16 68 23 192 6 98 10
186 10 194 0 99 25 478 37 555 8 55 15 119 15 143 0 55 20 133 31 126 5 -3 9
2 9 10 0 9 4 16 9 16 5 0 12 -48 16 -107 4 -60 12 -123 18 -142 l12 -34 6 44
c4 24 14 71 23 104 10 33 20 89 23 125 7 64 7 65 16 28 5 -21 13 -38 18 -38
11 0 13 -101 5 -220 -5 -76 -44 -348 -55 -385 -5 -16 -12 -51 -16 -77 -3 -26
-12 -60 -20 -75 -7 -15 -21 -107 -29 -203 -9 -96 -23 -200 -31 -230 -8 -30
-21 -111 -30 -180 -9 -69 -19 -146 -22 -172 l-6 -48 206 0 c187 0 206 2 210
18 4 16 5 16 6 0 1 -16 42 -17 595 -17 459 0 596 2 599 12 4 9 6 9 6 0 1 -9
92 -12 384 -13 l382 0 1 81 c0 69 4 84 20 96 10 8 18 23 16 33 -2 11 3 30 10
42 7 13 14 50 15 83 4 78 8 108 17 123 4 7 1 15 -9 18 -10 4 -15 14 -12 25 3
11 0 19 -6 19 -24 1 150 79 191 86 23 3 45 10 48 15 3 5 21 9 40 9 24 0 34 5
34 15 0 10 -11 15 -35 15 -19 0 -35 -4 -35 -9 0 -10 -149 -56 -168 -52 -8 1
-20 -3 -28 -10 -12 -10 -13 0 -10 63 2 42 0 81 -4 88 -10 15 7 34 37 44 24 8
21 38 -5 68 -13 16 -13 18 1 24 9 3 21 2 28 -2 9 -5 11 2 6 28 -3 21 0 46 8
61 7 15 11 35 8 47 -4 14 -1 20 11 20 26 0 20 40 -6 41 -19 1 -18 3 10 15 47
21 73 47 63 63 -5 7 -13 11 -19 7 -13 -8 -44 22 -39 38 2 6 11 10 21 8 12 -2
16 5 16 25 0 15 3 38 6 49 4 15 -1 28 -16 42 l-22 20 36 24 c20 13 39 33 42
46 5 17 12 22 32 20 23 -3 27 1 34 42 17 91 19 95 29 79 5 -7 9 -27 8 -44 0
-16 -1 -41 0 -54 1 -23 2 -23 20 -7 21 19 37 7 43 -34 1 -14 7 -24 13 -22 5 2
12 -5 16 -15 6 -13 8 -10 8 14 1 38 10 63 22 63 5 0 9 -9 9 -19 0 -11 3 -27 6
-36 5 -13 9 -14 15 -3 8 11 11 11 18 -1 13 -21 34 -2 27 24 -3 13 -2 27 4 30
18 11 11 27 -9 20 -14 -4 -21 0 -26 14 -7 22 0 41 16 41 14 0 11 -28 -3 -33
-7 -3 -1 -6 14 -6 15 -1 29 3 32 8 3 5 15 7 26 4 11 -3 20 0 20 6 0 6 -12 14
-26 17 -23 6 -25 10 -19 42 9 50 33 82 61 82 19 0 26 -7 31 -31 9 -47 24 -13
18 43 -5 42 -3 47 17 54 l23 7 -23 8 c-27 10 -29 35 -2 42 20 5 29 37 10 37
-21 0 -9 26 19 42 28 15 30 15 34 0 3 -10 5 -5 6 11 2 43 25 107 38 107 13 0
29 63 19 78 -3 5 8 23 25 41 25 28 28 35 15 45 -17 13 -10 77 8 75 38 -5 56 2
56 21 0 11 4 28 9 38 5 9 16 51 26 92 10 41 21 82 25 90 4 8 18 40 30 70 12
30 28 68 36 83 7 15 17 63 20 107 5 52 11 81 20 84 8 3 11 11 8 19 -3 8 2 19
10 26 12 10 13 17 4 31 -9 14 -9 22 1 34 7 9 17 13 22 10 15 -9 35 19 43 59 4
22 13 37 21 37 8 0 15 9 15 21 0 11 5 29 10 40 9 16 7 19 -15 19 -23 0 -25 2
-14 21 9 17 13 19 20 8 8 -12 10 -12 18 0 7 11 10 9 16 -8 3 -11 10 -21 15
-21 6 0 5 -11 0 -26 -6 -14 -10 -38 -10 -53 0 -15 -3 -31 -7 -35 -13 -13 -35
-81 -43 -135 -5 -30 -22 -82 -39 -116 -17 -34 -31 -67 -31 -72 0 -19 -52 -142
-114 -268 -61 -123 -91 -207 -133 -370 -10 -38 -21 -71 -25 -73 -5 -2 -5 -15
-2 -28 4 -15 2 -24 -5 -24 -6 0 -11 -6 -11 -14 0 -8 -7 -16 -15 -20 -9 -3 -15
-18 -15 -34 0 -28 -9 -56 -46 -142 -27 -62 -32 -74 -45 -120 -7 -25 -17 -50
-22 -57 -5 -7 -6 -21 -2 -33 4 -14 1 -22 -10 -26 -9 -4 -14 -13 -11 -20 3 -8
-5 -34 -18 -57 -12 -24 -33 -78 -46 -120 -15 -49 -29 -77 -38 -77 -11 0 -12
-3 -3 -14 9 -11 8 -17 -7 -28 -11 -7 -22 -23 -26 -36 -6 -18 -11 -21 -21 -12
-11 9 -12 6 -6 -16 4 -17 2 -44 -6 -67 -7 -21 -15 -46 -16 -57 -2 -10 -8 -25
-15 -32 -6 -8 -9 -17 -6 -21 12 -11 -7 -46 -22 -40 -7 3 -14 0 -14 -6 0 -6 4
-11 10 -11 10 0 1 -63 -10 -68 -4 -1 -5 -15 -2 -30 3 -20 2 -24 -7 -16 -14 13
-32 158 -20 162 22 9 0 42 -26 42 -3 0 -4 -28 -4 -62 0 -35 0 -67 -1 -73 -1
-5 -2 -27 -1 -48 1 -30 6 -40 21 -44 11 -3 20 -12 20 -20 0 -9 -6 -13 -15 -9
-9 3 -15 0 -15 -10 0 -8 5 -12 10 -9 15 9 13 3 -30 -79 -22 -42 -40 -83 -40
-91 0 -16 -46 -22 -52 -7 -1 4 -21 3 -43 -4 -22 -7 -34 -13 -27 -13 17 -1 15
-26 -3 -41 -9 -7 -25 -13 -38 -14 -16 -1 -22 -7 -22 -23 0 -12 -10 -29 -21
-38 -12 -8 -25 -27 -29 -42 -3 -15 -11 -31 -17 -34 -6 -4 -14 -29 -19 -55 -4
-27 -14 -82 -22 -121 l-15 -73 369 0 c266 0 369 3 369 11 0 8 4 8 13 2 6 -5
47 -10 90 -11 86 -1 86 -1 62 68 -8 24 -13 45 -11 48 7 7 46 -75 46 -98 0 -15
7 -20 25 -20 16 0 25 6 25 15 0 8 5 15 10 15 6 0 10 -7 10 -17 0 -9 3 -14 6
-10 8 8 -15 104 -33 140 -8 16 -12 31 -10 34 7 6 30 -43 52 -115 11 -34 24
-62 29 -62 4 0 5 10 2 22 -4 13 -9 37 -11 53 l-5 30 11 -29 c19 -47 39 -82 39
-68 0 8 -10 45 -21 83 -12 39 -19 72 -17 74 7 7 50 -117 50 -142 0 -13 4 -23
9 -23 5 0 9 9 9 20 0 26 17 26 25 0 7 -23 21 -26 28 -7 4 9 6 9 6 0 1 -10 27
-13 96 -13 92 0 95 1 96 23 1 21 1 21 9 -3 4 -14 8 -19 9 -12 1 6 10 12 21 12
20 0 22 15 7 50 -4 8 -8 25 -10 37 -7 50 -19 34 -14 -17 7 -66 -5 -48 -23 35
-15 69 -30 92 -31 49 l-1 -29 -10 28 c-7 20 -7 32 0 39 15 15 42 2 42 -19 0
-10 5 -25 11 -33 8 -12 9 -9 5 11 -8 39 17 58 44 34 19 -17 20 -17 20 -1 0 28
20 7 21 -22 l1 -27 7 25 c7 24 7 24 19 5 l11 -20 1 20 1 20 9 -20 c7 -17 9
-18 15 -4 5 14 13 15 48 7 28 -6 43 -6 45 1 2 6 14 8 27 5 19 -5 23 -1 27 24
5 34 -5 66 -26 88 -24 23 -37 17 -30 -13 5 -19 3 -25 -4 -18 -6 6 -12 21 -15
35 -4 25 -4 25 -6 -2 -1 -36 -16 -44 -19 -11 -3 36 -12 43 -12 10 0 -17 -5
-27 -15 -27 -9 0 -12 -6 -9 -17 4 -12 3 -14 -3 -6 -4 6 -29 13 -53 15 -44 3
-45 4 -54 43 -10 50 -27 97 -33 92 -4 -5 12 -82 23 -111 5 -14 2 -16 -20 -10
-17 4 -26 2 -26 -6 0 -6 -11 -10 -27 -8 -23 2 -29 9 -31 33 -4 36 -22 59 -22
28 0 -13 -8 -24 -21 -28 -22 -7 -43 5 -21 12 15 6 16 69 1 79 -7 4 -9 -2 -7
-17 2 -18 -1 -23 -14 -21 -14 2 -15 -2 -8 -28 5 -16 5 -30 1 -30 -5 0 -11 18
-15 40 -3 23 -10 49 -15 58 -22 43 -41 95 -38 99 3 2 15 -17 27 -42 15 -30 26
-43 34 -37 19 14 37 8 51 -18 22 -39 17 -8 -9 65 -22 60 -20 88 3 48 10 -17
10 -17 11 0 0 10 4 16 9 12 5 -3 11 5 13 17 3 21 4 21 9 -4 4 -17 2 -25 -4
-21 -14 9 1 -69 17 -85 11 -11 14 -11 19 2 4 9 1 15 -6 13 -7 -1 -12 5 -12 13
0 19 35 26 46 8 12 -19 11 3 -2 41 -13 37 -4 56 9 20 9 -24 9 -24 16 6 3 17 2
46 -4 65 -13 44 -13 53 0 45 12 -7 13 15 3 42 -6 16 -8 15 -14 -7 l-6 -25 -7
30 c-4 17 -11 38 -16 47 -6 9 -7 31 -4 48 5 20 3 30 -6 30 -7 0 -10 -7 -6 -15
3 -8 1 -15 -5 -15 -11 0 -2 -49 12 -64 12 -13 11 -26 0 -26 -5 0 -14 13 -21
29 -6 17 -19 31 -27 33 -20 4 -50 87 -57 156 l-6 57 13 -40 c11 -32 15 -36 19
-20 5 16 6 15 7 -7 2 -49 21 -42 22 9 1 26 4 37 6 23 8 -47 14 -57 22 -35 6
15 14 3 38 -59 25 -64 31 -74 36 -54 4 12 5 46 3 73 -2 28 -2 38 1 23 2 -16 8
-28 12 -28 4 0 15 -19 25 -41 14 -30 21 -38 27 -28 10 16 12 84 2 117 -10 39
-21 4 -12 -37 5 -20 8 -45 8 -56 l0 -20 -9 20 c-5 11 -9 33 -9 48 -1 41 -28
88 -46 81 -10 -4 -15 0 -15 12 -1 18 -1 18 -15 0 -15 -19 -15 -19 -15 1 0 30
-20 40 -21 11 -1 -20 -2 -21 -6 -3 -7 29 -23 43 -23 19 0 -10 -4 -15 -8 -9 -4
6 -19 18 -33 27 -20 12 -29 14 -38 5 -8 -8 -11 -7 -11 4 0 22 17 42 29 35 6
-4 16 4 23 18 6 14 14 26 17 27 29 3 109 0 122 -5 12 -5 21 2 33 28 9 20 20
35 24 35 26 -4 45 5 75 36 19 19 39 35 46 35 6 0 11 7 11 15 0 8 5 15 11 15 6
0 8 13 5 31 -6 43 -16 49 -16 11 0 -18 -4 -32 -10 -32 -10 0 -14 15 -11 34 1
5 -3 22 -9 37 -8 19 -17 26 -28 23 -10 -3 -6 1 8 9 14 8 42 18 64 21 21 4 49
18 61 30 13 13 42 26 65 30 30 5 40 10 37 21 -4 8 15 34 44 64 37 38 49 57 49
80 0 24 -5 32 -24 37 -13 3 -33 1 -43 -5 -11 -5 -28 -10 -39 -10 -10 0 -37 -2
-59 -5 -22 -2 -50 -4 -62 -5 -18 -1 -23 -9 -29 -46 -3 -25 -9 -45 -13 -46 -3
0 -27 -1 -53 -2 -27 -2 -55 -10 -66 -20 -11 -10 -32 -17 -48 -16 -16 1 -36 0
-44 -2 -9 -3 -16 5 -18 19 -4 29 -31 41 -43 19 -8 -14 -13 -14 -52 1 -23 9
-46 22 -50 30 -7 10 -12 10 -23 1 -11 -9 -14 -8 -14 4 0 26 18 29 42 7 l23
-21 3 20 c5 30 52 30 52 0 0 -11 -4 -17 -10 -14 -5 3 -10 1 -10 -5 0 -7 7 -9
16 -6 9 3 18 6 20 6 2 0 4 9 4 19 0 10 7 21 15 25 9 3 15 17 14 33 l-1 28 -11
-28 c-14 -35 -24 -34 -29 3 -4 29 -2 31 37 41 28 7 47 19 55 35 10 17 19 22
35 18 18 -4 25 0 33 25 6 17 19 34 29 37 39 13 63 28 63 41 0 7 7 13 15 13 9
0 20 11 27 25 6 13 14 22 19 20 4 -3 14 1 22 10 8 8 27 16 42 19 63 12 98 54
93 114 -3 37 -4 37 -51 40 -30 2 -68 -4 -103 -17 -64 -25 -78 -26 -96 -8 -10
11 -28 12 -78 5 -36 -5 -83 -11 -104 -13 -22 -3 -43 -10 -48 -17 -5 -8 -6 -2
-2 14 6 28 0 33 -30 22 -11 -4 -13 -14 -10 -33 5 -22 -1 -34 -26 -60 -21 -21
-36 -29 -43 -22 -13 13 2 34 19 27 9 -3 14 1 14 13 0 11 3 27 6 36 6 14 -4 15
-85 13 -79 -3 -91 -5 -91 -20 0 -25 -16 -22 -24 5 l-7 22 -9 -23 c-14 -33 -33
-17 -25 21 7 30 6 31 -8 12 -11 -14 -12 -25 -6 -37 7 -13 4 -21 -11 -30 -12
-8 -20 -24 -20 -40 0 -21 -5 -28 -20 -28 -11 0 -20 6 -20 13 0 8 -4 7 -11 -3
-9 -12 -10 -12 -5 3 3 10 6 23 6 28 0 4 7 6 16 2 12 -4 15 -1 12 14 -1 11 2
31 8 44 6 13 16 36 23 51 6 16 17 28 24 28 20 0 53 40 62 75 8 28 9 28 13 7 2
-13 -2 -30 -8 -38 -10 -11 -9 -14 3 -14 8 0 18 -6 21 -12 3 -7 3 2 0 19 -5 28
-3 33 14 33 27 0 52 10 52 21 0 5 -14 9 -31 9 -17 0 -37 7 -45 15 -13 12 -12
15 7 25 16 9 28 8 52 -3 18 -8 48 -18 67 -21 19 -3 29 -3 22 0 -9 4 -7 12 8
31 27 35 25 53 -5 53 -21 0 -25 -5 -25 -30 0 -40 -25 -39 -45 1 -16 29 -17 30
-35 14 -17 -16 -19 -15 -22 7 -4 26 29 78 49 78 7 0 13 -4 13 -10 0 -6 10 -5
26 2 24 11 26 16 20 55 -3 25 -2 43 4 43 6 0 10 11 10 25 0 14 5 25 10 25 6 0
10 7 10 15 0 8 -4 15 -9 15 -15 0 1 41 18 47 27 10 50 34 45 48 -3 7 6 25 21
39 23 23 24 26 7 26 -18 0 -18 4 -9 51 7 37 17 56 38 72 26 19 29 27 29 78 0
32 4 60 9 63 5 3 8 19 7 36 -1 16 4 32 10 34 8 3 14 28 16 63 3 49 6 58 21 55
13 -2 17 4 17 31 0 18 3 37 8 41 4 4 7 43 7 87 1 88 -2 92 -73 87 -36 -3 -52
-29 -32 -53 13 -15 13 -15 -34 -29 -9 -3 -13 -13 -9 -28 4 -22 4 -22 -11 -4
-15 19 -36 14 -36 -9 0 -13 -29 -29 -38 -20 -3 3 0 5 6 5 18 0 15 23 -6 46 -9
10 -18 30 -19 44 -2 42 -22 82 -43 87 -11 3 -20 9 -20 14 0 5 -7 9 -15 9 -9 0
-20 11 -25 24 -8 21 -50 56 -50 42 0 -3 -10 5 -23 17 -13 12 -22 25 -20 28 1
4 -4 12 -12 19 -10 9 -15 9 -15 1 0 -6 -4 -11 -10 -11 -5 0 -10 7 -10 16 0 9
-9 27 -20 41 -11 14 -20 22 -20 18 0 -4 -11 0 -25 9 -13 9 -33 16 -44 16 -11
0 -24 7 -29 16 -5 10 -24 18 -43 19 -74 5 -120 18 -157 45 -21 15 -48 31 -60
34 -12 4 -26 15 -31 25 -6 10 -35 28 -66 42 -30 13 -58 31 -61 41 -2 9 -20 29
-39 44 -19 15 -46 52 -61 83 -15 31 -30 58 -34 61 -3 3 -12 21 -20 40 -8 19
-31 67 -51 107 -21 39 -41 88 -45 107 -3 20 -9 36 -13 36 -8 0 -61 103 -61
117 1 4 -14 38 -32 75 -34 68 -55 89 -63 63 -3 -8 -7 -22 -10 -30 -2 -8 -12
-15 -21 -15 -18 0 -18 -5 2 141 2 20 0 49 -7 65 -6 16 -15 52 -20 79 -17 90
-51 289 -54 320 -2 17 -8 50 -13 75 -6 25 -18 77 -26 115 -8 39 -19 81 -24 95
-5 14 -13 60 -17 103 -4 42 -10 77 -14 77 -10 0 -30 60 -37 113 -4 26 -11 47
-15 47 -5 0 -9 5 -9 12 0 6 -7 20 -16 29 -9 10 -17 27 -18 36 -1 10 -15 45
-30 78 -15 33 -34 80 -43 105 -8 25 -21 52 -28 60 -7 8 -23 51 -35 95 -13 44
-27 84 -32 90 -4 5 -8 19 -8 31 0 12 -6 27 -14 33 -22 19 -27 -52 -11 -154 8
-49 12 -99 9 -109 -6 -19 -7 -19 -20 -1 -8 10 -14 33 -14 49 0 17 -5 47 -10
67 -6 20 -12 58 -13 85 -2 27 -11 66 -20 88 -11 24 -17 66 -17 112 0 40 -4 83
-9 96 -4 13 -11 44 -15 71 -6 41 -5 47 11 47 20 0 43 -39 64 -110 7 -25 18
-48 24 -52 18 -13 27 -9 20 10 -10 27 -26 105 -26 127 1 26 -26 110 -52 161
-11 23 -17 46 -13 52 8 14 -3 42 -18 42 -17 0 -35 35 -30 57 3 12 -5 35 -19
56 -14 20 -27 57 -30 87 -4 29 -11 58 -17 65 -19 23 -50 175 -49 239 2 156 5
134 -50 377 -17 74 -31 150 -31 168 0 17 -7 48 -15 68 -8 19 -15 44 -15 54 0
10 -9 36 -20 56 -11 21 -28 73 -39 115 -11 42 -31 101 -45 130 -14 29 -27 64
-29 78 -4 24 -9 42 -28 88 -5 13 -9 32 -9 42 0 19 -23 73 -87 203 -18 37 -32
78 -31 91 3 30 -90 216 -159 320 -29 43 -53 84 -53 91 0 6 -12 22 -26 36 -14
13 -47 51 -73 84 -98 127 -309 362 -332 370 -8 3 -25 23 -38 45 -39 70 -420
442 -496 485 -27 15 -61 35 -74 44 -81 55 -117 76 -216 125 -60 30 -135 62
-165 71 -30 10 -86 30 -125 45 -107 43 -258 80 -326 80 -20 0 -52 6 -70 14
-42 17 -326 28 -389 15z m620 -948 c0 -12 -29 -23 -42 -15 -6 4 -5 10 3 15 18
11 39 11 39 0z m1107 -477 c-3 -3 -12 -4 -19 -1 -8 3 -5 6 6 6 11 1 17 -2 13
-5z m-2327 -954 c0 -5 -5 -10 -11 -10 -5 0 -7 5 -4 10 3 6 8 10 11 10 2 0 4
-4 4 -10z m2955 -397 c-8 -44 -13 -53 -26 -53 -13 0 -11 64 3 78 22 22 30 13
23 -25z m35 -13 c0 -5 -7 -10 -15 -10 -8 0 -15 5 -15 10 0 6 7 10 15 10 8 0
15 -4 15 -10z m-3042 -336 c29 1 55 -1 58 -6 3 -4 14 -8 25 -8 22 0 26 -25 5
-33 -8 -3 -31 -3 -51 0 -21 3 -46 1 -60 -7 -20 -11 -27 -11 -41 1 -13 11 -18
11 -21 2 -6 -18 -23 -16 -23 2 0 8 -11 17 -25 21 -32 8 -22 24 15 24 16 0 32
5 35 10 4 7 11 8 18 1 7 -5 36 -8 65 -7z m-131 -60 c-3 -3 -12 -4 -19 -1 -8 3
-5 6 6 6 11 1 17 -2 13 -5z m333 -8 c0 -11 -19 -15 -25 -6 -3 5 1 10 9 10 9 0
16 -2 16 -4z m114 -31 c6 -16 -10 -20 -38 -9 -24 9 -19 24 8 24 13 0 26 -7 30
-15z m67 -15 c5 0 9 -4 9 -10 0 -14 -23 -12 -45 3 -10 8 -15 19 -11 26 5 8 11
7 22 -4 9 -8 20 -15 25 -15z m44 -20 c3 -5 -1 -10 -9 -10 -9 0 -16 5 -16 10 0
6 4 10 9 10 6 0 13 -4 16 -10z m45 -14 c0 -25 -25 -37 -54 -26 -35 13 -33 23
4 15 23 -5 30 -3 30 9 0 9 5 16 10 16 6 0 10 -6 10 -14z m30 -46 c0 -5 -4 -10
-9 -10 -6 0 -13 5 -16 10 -3 6 1 10 9 10 9 0 16 -4 16 -10z m-246 -16 c20 -8
20 -28 1 -44 -18 -15 -21 -13 -30 23 -7 28 -1 32 29 21z m164 -37 c12 -11 22
-24 22 -29 0 -11 -34 -23 -89 -32 l-43 -7 7 38 c4 21 8 43 8 50 1 18 69 4 95
-20z m-3 -107 c4 -6 -5 -10 -20 -10 -15 0 -24 4 -20 10 3 6 12 10 20 10 8 0
17 -4 20 -10z m33 -36 c5 3 15 0 21 -8 21 -25 -25 -106 -61 -106 -16 0 -22
-11 -19 -32 0 -4 -22 -20 -49 -35 -28 -15 -50 -34 -50 -40 0 -7 -7 -13 -15
-13 -26 0 -14 -44 13 -46 6 -1 18 -2 26 -2 8 -1 25 -20 37 -42 13 -22 26 -40
31 -40 4 0 8 -7 8 -15 0 -8 11 -22 24 -31 41 -26 67 -122 44 -160 -4 -5 -8
-39 -9 -74 -2 -36 -8 -72 -13 -82 -6 -10 -6 -35 0 -70 14 -82 2 -173 -34 -247
-17 -36 -28 -69 -25 -74 3 -6 2 -7 -4 -4 -12 8 -47 -39 -57 -75 -3 -16 -11
-28 -16 -28 -6 0 -10 -6 -10 -14 0 -8 -10 -22 -22 -31 -18 -12 -21 -19 -12
-32 6 -10 20 -20 32 -23 25 -6 72 -66 72 -91 0 -9 7 -20 16 -23 10 -4 13 -13
9 -27 -6 -17 -3 -20 17 -19 34 3 48 1 48 -8 0 -15 -58 -12 -74 4 -15 14 -16
14 -16 -5 0 -14 6 -21 20 -21 24 0 40 -28 40 -70 0 -19 6 -33 16 -37 12 -4 14
-14 10 -36 -8 -38 -24 -57 -42 -50 -23 9 -17 -31 26 -158 45 -135 45 -133 26
-126 -16 6 -14 -8 6 -50 12 -24 2 -77 -12 -68 -6 3 -10 1 -10 -4 0 -20 -20
-11 -32 14 -7 16 -19 25 -35 25 -13 0 -23 6 -23 14 0 8 -11 28 -25 44 -14 17
-25 32 -25 35 0 14 -113 242 -121 245 -5 2 -9 15 -9 28 0 14 -4 23 -10 19 -10
-6 -50 24 -50 39 0 5 -16 24 -35 43 l-35 34 0 -36 c0 -19 4 -35 8 -35 7 0 8
-27 3 -48 -2 -6 -26 22 -51 58 -13 19 -27 37 -30 40 -10 8 -30 92 -31 130 -1
65 9 131 24 153 12 19 13 39 5 117 -15 137 -16 234 -4 243 8 6 7 10 -1 14 -15
6 -17 40 -3 45 5 2 11 48 14 103 6 126 12 159 31 189 9 13 12 26 8 29 -5 3 -7
26 -5 51 3 34 8 46 21 46 14 1 13 2 -2 11 -10 6 -27 9 -38 6 -10 -3 -22 -1
-25 5 -3 5 3 12 15 15 25 6 27 16 6 33 -8 7 -15 8 -15 3 0 -6 -13 -6 -35 1
-32 10 -33 12 -13 16 15 4 24 15 26 30 3 20 1 23 -9 13 -20 -19 -49 -16 -49 5
0 13 13 23 43 32 41 12 41 13 17 22 -14 5 -40 7 -57 3 -44 -8 -41 -1 11 30 37
22 55 25 122 25 44 -1 104 3 134 8 l55 10 -66 1 c-36 0 -87 4 -112 7 -40 6
-46 10 -43 28 2 12 10 20 20 20 12 -1 14 4 10 23 -5 19 0 31 18 48 30 28 60
28 71 0 8 -19 9 -18 23 8 17 32 70 39 77 10 3 -14 6 -12 15 10 10 24 15 26 32
17 11 -6 20 -18 20 -26 0 -8 5 -12 10 -9 6 3 10 15 10 25 0 13 11 22 36 29 19
5 41 8 48 5 7 -3 19 2 26 11 10 12 15 13 20 4 4 -6 12 -9 18 -5z m-558 -233
c-58 -18 -80 -21 -80 -12 0 11 29 18 75 19 29 0 29 0 5 -7z m3846 -115 c5 -21
4 -27 -5 -22 -6 4 -11 16 -11 26 0 10 -4 22 -10 25 -5 3 -10 11 -10 18 0 20
28 -17 36 -47z m134 -957 c0 -34 -17 -20 -24 19 -3 20 -6 44 -5 52 0 22 29
-49 29 -71z m-100 -84 c0 -8 -4 -17 -10 -20 -6 -4 -10 5 -10 20 0 15 4 24 10
20 6 -3 10 -12 10 -20z m100 -29 c0 -8 5 -16 12 -18 7 -3 8 -9 3 -18 -6 -10
-11 -9 -22 5 -15 22 -17 45 -3 45 6 0 10 -6 10 -14z m-2878 -43 c10 -11 20
-45 24 -78 l7 -60 -37 33 c-20 17 -41 32 -46 32 -14 0 -31 66 -24 94 6 24 8
25 33 12 14 -8 34 -22 43 -33z m1816 -94 c52 -18 77 -74 48 -111 -23 -31 -62
-39 -105 -22 -67 27 -76 88 -19 128 27 19 35 19 76 5z m1032 -4 c0 -2 -7 -5
-15 -9 -9 -3 -15 0 -15 9 0 9 6 12 15 9 8 -4 15 -7 15 -9z m-23 -57 c-3 -8 -6
-5 -6 6 -1 11 2 17 5 13 3 -3 4 -12 1 -19z m4 -119 c-9 -23 -10 -22 -10 11 -1
23 2 31 9 24 7 -7 7 -19 1 -35z m107 -31 c11 -65 34 -287 33 -313 -3 -58 -28
-101 -30 -52 -3 87 -18 165 -33 181 -10 10 -19 25 -19 34 -1 9 -2 33 -3 52 -2
19 -6 61 -11 93 -5 37 -4 57 2 57 13 0 23 -34 23 -82 0 -21 4 -38 8 -38 4 0 6
32 4 70 -2 39 0 70 5 70 5 0 15 -33 21 -72z m-1135 27 c-3 -8 -9 -15 -14 -15
-10 0 -12 24 -3 33 11 11 24 -3 17 -18z m-2713 -19 c0 -7 7 -19 15 -26 8 -7
15 -21 15 -30 0 -10 6 -20 13 -23 6 -2 9 -8 5 -12 -9 -9 -78 60 -78 79 0 7 3
16 7 19 11 12 23 8 23 -7z m60 -142 c0 -8 -4 -14 -10 -14 -5 0 -10 9 -10 21 0
11 5 17 10 14 6 -3 10 -13 10 -21z m2840 1 c53 -27 49 -94 -7 -130 -22 -15
-25 -14 -51 10 -15 14 -31 25 -36 25 -12 0 -35 32 -36 49 0 8 10 25 22 38 25
27 66 30 108 8z m763 -420 c-7 -21 -13 -19 -13 6 0 11 4 18 10 14 5 -3 7 -12
3 -20z m-2503 -35 c0 -5 -4 -10 -10 -10 -5 0 -10 5 -10 10 0 6 5 10 10 10 6 0
10 -4 10 -10z m2695 -40 c3 -5 1 -10 -4 -10 -6 0 -11 5 -11 10 0 6 2 10 4 10
3 0 8 -4 11 -10z m-4215 -20 c0 -25 -25 -36 -45 -20 -25 21 -18 40 15 40 23 0
30 -4 30 -20z m4310 -105 c0 -8 -4 -15 -10 -15 -5 0 -10 7 -10 15 0 8 5 15 10
15 6 0 10 -7 10 -15z m-176 -41 c4 -15 2 -32 -3 -37 -12 -12 -12 -13 -16 31
-3 39 10 43 19 6z m449 -166 c-3 -15 -9 -25 -14 -22 -11 6 -12 48 -2 58 12 12
22 -9 16 -36z m-302 -175 c-8 -14 -10 -8 -11 28 0 25 3 49 8 53 11 12 14 -62
3 -81z m350 -12 c10 -9 22 -36 25 -60 l7 -45 -34 22 c-28 17 -35 30 -42 68 -6
35 -5 49 5 55 8 6 14 3 17 -8 2 -9 12 -24 22 -32z m-361 -120 c0 -17 -18 -21
-24 -6 -3 9 0 15 9 15 8 0 15 -4 15 -9z m440 -41 c0 -5 -4 -10 -10 -10 -5 0
-10 5 -10 10 0 6 5 10 10 10 6 0 10 -4 10 -10z m-487 -45 c-10 -7 -20 -12 -21
-10 -7 7 23 33 31 28 5 -3 0 -11 -10 -18z m26 -90 c-11 -124 -31 -180 -24 -70
5 91 9 122 20 148 12 30 13 16 4 -78z m-398 24 c-9 -22 -10 -22 -10 -3 -1 11
2 24 6 27 12 12 14 0 4 -24z m25 -149 c0 -102 -13 -129 -28 -59 -7 32 -1 134
9 152 13 22 18 -3 19 -93z m-2922 -35 c-21 -16 -36 -15 -41 2 -3 7 8 13 24 15
37 5 41 1 17 -17z m4800 -491 c19 -7 22 -34 4 -34 -22 0 -41 17 -34 29 8 13 9
13 30 5z m-3024 -64 c0 -5 -15 -10 -34 -10 -19 0 -38 5 -41 10 -4 6 10 10 34
10 23 0 41 -4 41 -10z m60 -10 c0 -5 -2 -10 -4 -10 -3 0 -8 5 -11 10 -3 6 -1
10 4 10 6 0 11 -4 11 -10z m3080 -145 c0 -14 -4 -25 -10 -25 -5 0 -10 11 -10
25 0 14 5 25 10 25 6 0 10 -11 10 -25z m-5445 -4 c3 -5 1 -12 -5 -16 -5 -3
-10 1 -10 9 0 18 6 21 15 7z m425 -51 c0 -5 -2 -10 -4 -10 -3 0 -8 5 -11 10
-3 6 -1 10 4 10 6 0 11 -4 11 -10z m-1260 -50 c0 -16 -4 -30 -8 -30 -6 0 -9
47 -3 58 5 10 11 -3 11 -28z m127 -19 c2 -35 -3 -53 -14 -63 -14 -12 -16 -10
-11 17 4 20 1 33 -9 40 -20 15 -8 55 15 55 13 0 17 -11 19 -49z m-74 -21 c3
-11 1 -23 -4 -26 -5 -3 -9 6 -9 20 0 31 6 34 13 6z m4414 -72 c-2 -18 -4 -4
-4 32 0 36 2 50 4 33 2 -18 2 -48 0 -65z m660 65 c27 -31 29 -49 7 -61 -27
-15 -73 -1 -99 30 -28 34 -26 51 3 25 23 -21 36 -22 28 -2 -4 12 -2 13 13 5
16 -8 18 -7 14 10 -7 28 7 25 34 -7z m-2642 -73 c3 -5 -3 -10 -15 -10 -12 0
-18 5 -15 10 3 6 10 10 15 10 5 0 12 -4 15 -10z m-2278 -42 c-3 -7 -5 -2 -5
12 0 14 2 19 5 13 2 -7 2 -19 0 -25z m853 11 c0 -11 -4 -18 -10 -14 -5 3 -7
12 -3 20 7 21 13 19 13 -6z m1869 -22 c-14 -12 -25 -15 -27 -8 -5 15 42 53 47
38 2 -6 -7 -19 -20 -30z m88 -57 c1 -11 -1 -20 -5 -20 -4 0 -32 -23 -62 -51
-48 -44 -108 -90 -148 -113 -20 -12 28 62 67 103 37 38 110 88 124 83 4 -1 7
3 7 8 0 19 16 10 17 -10z m-1961 -16 c-4 -9 -9 -15 -11 -12 -3 3 -3 13 1 22 4
9 9 15 11 12 3 -3 3 -13 -1 -22z m1809 7 c-3 -6 -11 -11 -17 -11 -6 0 -6 6 2
15 14 17 26 13 15 -4z m165 -112 c0 -6 -22 -34 -50 -61 -27 -27 -50 -54 -50
-60 0 -5 -6 -8 -12 -6 -7 3 -17 -4 -23 -15 -5 -11 -23 -25 -40 -30 -16 -6 -47
-23 -69 -39 -73 -52 -69 -26 9 68 58 71 103 106 171 133 58 24 64 24 64 10z
m57 -89 c-1 -11 -5 -20 -9 -20 -4 0 -8 -7 -8 -15 0 -9 -11 -21 -25 -27 -14 -6
-25 -15 -25 -20 0 -4 -5 -8 -11 -8 -11 0 -99 -90 -99 -102 0 -4 -6 -5 -14 -2
-7 3 -25 -9 -39 -25 -14 -17 -33 -31 -43 -31 -9 0 -22 -6 -28 -13 -6 -8 -28
-24 -48 -36 -42 -25 -50 -14 -18 26 11 14 20 34 20 44 0 10 8 20 18 24 9 3 37
30 62 60 25 29 53 54 63 54 9 1 17 5 17 9 0 5 18 17 40 28 22 10 40 22 40 25
0 9 52 30 78 32 12 1 22 5 22 9 0 4 2 8 4 8 3 0 4 -9 3 -20z m-1847 -124 c0
-3 -4 -8 -10 -11 -5 -3 -10 -1 -10 4 0 6 5 11 10 11 6 0 10 -2 10 -4z m4940
-116 c0 -5 -4 -10 -10 -10 -5 0 -10 5 -10 10 0 6 5 10 10 10 6 0 10 -4 10 -10z
m-4733 -26 c-3 -3 -12 -4 -19 -1 -8 3 -5 6 6 6 11 1 17 -2 13 -5z m68 -30 c0
-10 -4 -19 -10 -19 -5 0 -15 -3 -21 -7 -13 -9 -24 0 -24 18 0 8 6 11 15 8 10
-4 15 0 15 11 0 9 6 15 13 13 6 -3 12 -13 12 -24z m403 -46 c16 -16 15 -48 -2
-48 -8 0 -16 13 -18 30 -5 32 1 37 20 18z m-90 -25 c-4 -22 -22 -20 -26 1 -2
10 3 16 13 16 10 0 15 -7 13 -17z m2362 -158 c0 -8 -4 -15 -10 -15 -5 0 -7 7
-4 15 4 8 8 15 10 15 2 0 4 -7 4 -15z m-2460 -55 c0 -5 -4 -10 -10 -10 -5 0
-10 5 -10 10 0 6 5 10 10 10 6 0 10 -4 10 -10z m2400 -20 c0 -5 -4 -10 -10
-10 -5 0 -10 5 -10 10 0 6 5 10 10 10 6 0 10 -4 10 -10z m2055 -100 c3 -5 1
-10 -4 -10 -6 0 -11 5 -11 10 0 6 2 10 4 10 3 0 8 -4 11 -10z m-45 -29 c0 -5
-9 -11 -20 -14 -13 -3 -20 0 -20 9 0 8 9 14 20 14 11 0 20 -4 20 -9z m-8753
-103 c-3 -8 -6 -5 -6 6 -1 11 2 17 5 13 3 -3 4 -12 1 -19z m81 -18 c-2 -7 -10
1 -17 16 -12 27 -11 28 4 12 10 -9 16 -21 13 -28z m72 8 c0 -5 -4 -8 -10 -8
-5 0 -10 10 -10 23 0 18 2 19 10 7 5 -8 10 -18 10 -22z m-324 -5 c-7 -7 -26 7
-26 19 0 6 6 6 15 -2 9 -7 13 -15 11 -17z m404 -6 c0 -5 -4 -5 -10 -2 -5 3
-10 14 -10 23 0 15 2 15 10 2 5 -8 10 -19 10 -23z m-50 -22 c7 -9 8 -15 2 -15
-5 0 -12 7 -16 15 -3 8 -4 15 -2 15 2 0 9 -7 16 -15z m4155 -17 c-11 -34 -25
-46 -25 -20 0 12 -6 22 -12 22 -17 0 13 20 30 20 9 0 11 -7 7 -22z m-4502 -5
c-7 -2 -19 -2 -25 0 -7 3 -2 5 12 5 14 0 19 -2 13 -5z m176 -68 c-3 -2 -16 10
-29 28 l-23 32 29 -27 c15 -15 26 -30 23 -33z m818 3 c-3 -8 -6 -5 -6 6 -1 11
2 17 5 13 3 -3 4 -12 1 -19z m3471 -44 c-5 -28 -28 -29 -28 -1 0 13 3 27 7 31
10 10 25 -10 21 -30z m3872 -39 c10 -12 10 -15 -4 -15 -9 0 -16 7 -16 15 0 8
2 15 4 15 2 0 9 -7 16 -15z m-7320 -5 c0 -5 -5 -10 -11 -10 -5 0 -7 5 -4 10 3
6 8 10 11 10 2 0 4 -4 4 -10z m7965 -26 c8 -20 15 -41 15 -47 0 -18 -29 27
-30 46 0 9 -4 17 -10 17 -5 0 -10 5 -10 10 0 23 21 7 35 -26z m-685 22 c0 -11
-19 -15 -25 -6 -3 5 1 10 9 10 9 0 16 -2 16 -4z m-7292 -35 c3 -8 -1 -12 -9
-9 -7 2 -15 10 -17 17 -3 8 1 12 9 9 7 -2 15 -10 17 -17z m7955 -13 c8 -30 0
-36 -18 -12 -18 24 -19 34 -1 34 7 0 16 -10 19 -22z m-670 6 c9 -10 -4 -34
-19 -34 -8 0 -14 6 -14 13 0 22 19 35 33 21z m-7317 -41 c-11 -11 -17 4 -9 23
7 18 8 18 11 1 2 -10 1 -21 -2 -24z m5041 15 c-3 -8 -6 -5 -6 6 -1 11 2 17 5
13 3 -3 4 -12 1 -19z m-5037 -77 c-1 -13 -4 -12 -15 3 -8 11 -15 27 -15 35 1
13 4 12 15 -3 8 -11 15 -27 15 -35z m5050 23 c0 -8 -4 -14 -10 -14 -5 0 -10 9
-10 21 0 11 5 17 10 14 6 -3 10 -13 10 -21z m120 -6 c-1 -28 -2 -30 -11 -15
-6 10 -8 25 -5 33 9 24 16 16 16 -18z m-5075 3 c3 -5 1 -12 -5 -16 -5 -3 -10
1 -10 9 0 18 6 21 15 7z m1915 -1 c0 -5 -4 -10 -10 -10 -5 0 -10 5 -10 10 0 6
5 10 10 10 6 0 10 -4 10 -10z m-1975 -20 c3 -5 1 -10 -4 -10 -6 0 -11 5 -11
10 0 6 2 10 4 10 3 0 8 -4 11 -10z m245 -33 c0 -6 -9 -1 -20 11 -11 12 -20 24
-20 28 0 4 9 -1 20 -11 11 -10 20 -23 20 -28z m1607 37 c-3 -3 -12 -4 -19 -1
-8 3 -5 6 6 6 11 1 17 -2 13 -5z m-1903 -59 l7 -30 -21 33 c-11 18 -17 38 -14
44 8 13 18 -4 28 -47z m144 30 c-3 -3 -9 2 -12 12 -6 14 -5 15 5 6 7 -7 10
-15 7 -18z m4904 -17 c-8 -8 -9 -4 -5 13 4 13 8 18 11 10 2 -7 -1 -18 -6 -23z
m125 -20 c-3 -7 -5 -2 -5 12 0 14 2 19 5 13 2 -7 2 -19 0 -25z m3073 -15 c0
-7 -4 -13 -10 -13 -5 0 -10 12 -10 28 0 21 2 24 10 12 5 -8 10 -21 10 -27z
m-9100 17 c0 -5 -2 -10 -4 -10 -3 0 -8 5 -11 10 -3 6 -1 10 4 10 6 0 11 -4 11
-10z m825 0 c3 -5 1 -10 -4 -10 -6 0 -11 5 -11 10 0 6 2 10 4 10 3 0 8 -4 11
-10z m2059 -39 c4 -38 -9 -50 -24 -22 -8 15 -7 26 2 40 15 24 17 23 22 -18z
m5991 18 c-4 -5 -1 -9 5 -9 6 0 8 -5 4 -11 -4 -8 -9 -7 -15 2 -12 19 -11 42 1
34 6 -4 8 -11 5 -16z m195 1 c0 -11 -4 -20 -10 -20 -5 0 -10 9 -10 20 0 11 5
20 10 20 6 0 10 -9 10 -20z m-114 -17 c-10 -10 -19 5 -10 18 6 11 8 11 12 0 2
-7 1 -15 -2 -18z m188 11 c3 -8 2 -12 -4 -9 -6 3 -10 10 -10 16 0 14 7 11 14
-7z m-8244 -4 c0 -5 -2 -10 -4 -10 -3 0 -8 5 -11 10 -3 6 -1 10 4 10 6 0 11
-4 11 -10z m45 -31 c10 -42 2 -45 -11 -3 -6 19 -8 34 -3 34 4 0 10 -14 14 -31z
m-28 -11 c-3 -8 -6 -5 -6 6 -1 11 2 17 5 13 3 -3 4 -12 1 -19z m-80 0 c5 13
23 7 23 -9 0 -6 -4 -8 -9 -5 -5 4 -12 0 -14 -6 -4 -10 -8 -9 -16 2 -6 8 -11
20 -11 25 0 6 5 3 11 -5 8 -11 12 -12 16 -2z m62 -43 c0 -5 -4 -3 -9 5 -5 8
-9 22 -9 30 0 16 17 -16 18 -35z m151 29 c0 -8 -8 -23 -17 -32 -16 -16 -16
-16 -10 1 4 10 7 25 7 33 0 8 5 14 10 14 6 0 10 -7 10 -16z m26 -21 c-11 -11
-17 4 -9 23 7 18 8 18 11 1 2 -10 1 -21 -2 -24z m418 12 c3 -8 1 -15 -4 -15
-6 0 -10 7 -10 15 0 8 2 15 4 15 2 0 6 -7 10 -15z m36 7 c0 -5 10 -14 23 -20
12 -6 17 -11 11 -11 -7 -1 -22 8 -35 19 -13 10 -18 19 -11 20 6 0 12 -4 12 -8z
m4413 -17 c4 -8 2 -17 -3 -20 -6 -4 -10 3 -10 14 0 25 6 27 13 6z m2692 -15
c3 -5 1 -10 -4 -10 -6 0 -11 5 -11 10 0 6 2 10 4 10 3 0 8 -4 11 -10z m-7818
-32 c-3 -8 -6 -5 -6 6 -1 11 2 17 5 13 3 -3 4 -12 1 -19z m160 0 c7 -6 17 -7
23 -3 5 3 10 4 10 1 0 -2 3 -11 6 -20 4 -11 -4 -10 -40 7 -25 12 -46 25 -46
29 0 8 29 -1 47 -14z m573 12 c0 -5 -4 -10 -10 -10 -5 0 -10 5 -10 10 0 6 5
10 10 10 6 0 10 -4 10 -10z m7020 -21 c0 -6 -4 -7 -10 -4 -5 3 -10 11 -10 16
0 6 5 7 10 4 6 -3 10 -11 10 -16z m-7675 -97 c3 -8 0 -10 -6 -6 -12 7 -32 51
-43 94 -6 22 34 -51 49 -88z m7638 78 c3 -11 2 -18 -3 -15 -4 3 -10 14 -13 25
-3 11 -2 18 3 15 4 -3 10 -14 13 -25z m-7623 -43 c0 -21 -18 7 -25 38 l-7 30
16 -29 c9 -15 16 -33 16 -39z m570 48 c0 -8 -2 -15 -4 -15 -2 0 -6 7 -10 15
-3 8 -1 15 4 15 6 0 10 -7 10 -15z m64 0 c11 -8 15 -15 10 -15 -6 0 -19 7 -30
15 -10 8 -14 14 -9 14 6 0 19 -6 29 -14z m6279 -5 c3 -11 1 -20 -4 -20 -5 0
-9 9 -9 20 0 11 2 20 4 20 2 0 6 -9 9 -20z m-6770 -4 c4 -10 1 -13 -8 -9 -8 3
-12 9 -9 14 7 12 11 11 17 -5z m67 -7 c0 -6 -4 -7 -10 -4 -5 3 -10 11 -10 16
0 6 5 7 10 4 6 -3 10 -11 10 -16z m4790 11 c0 -5 -4 -10 -10 -10 -5 0 -10 -8
-11 -17 0 -11 -2 -13 -6 -5 -3 7 -2 19 1 27 6 17 26 20 26 5z m-4903 -45 c7
-23 8 -33 1 -29 -7 4 -8 -9 -4 -37 4 -31 3 -36 -3 -18 -4 14 -13 35 -20 47
-11 21 -6 72 8 72 4 0 12 -16 18 -35z m90 -7 c-3 -8 -6 -5 -6 6 -1 11 2 17 5
13 3 -3 4 -12 1 -19z m83 1 c0 -6 -4 -7 -10 -4 -5 3 -10 11 -10 16 0 6 5 7 10
4 6 -3 10 -11 10 -16z m-97 -19 c3 -11 1 -20 -4 -20 -5 0 -9 4 -9 9 0 5 -3 17
-7 27 -4 11 -3 15 4 11 6 -4 13 -16 16 -27z m377 10 c0 -5 -7 -7 -15 -4 -8 4
-12 10 -9 15 6 11 24 2 24 -11z m-609 -23 c-10 -9 -11 -8 -5 6 3 10 9 15 12
12 3 -3 0 -11 -7 -18z m89 -20 c0 -16 -18 3 -23 25 -6 22 -5 22 8 4 8 -11 15
-24 15 -29z m207 21 c-3 -8 -6 -5 -6 6 -1 11 2 17 5 13 3 -3 4 -12 1 -19z
m-168 -39 c8 -24 8 -36 0 -46 -9 -10 -9 -20 0 -39 14 -31 14 -44 1 -44 -5 0
-10 7 -10 15 0 8 -4 15 -9 15 -12 0 -23 -62 -16 -86 4 -11 0 -8 -8 6 -21 36
-48 130 -37 130 5 0 16 -21 25 -47 l15 -48 -5 45 c-4 31 -2 40 4 30 6 -8 13
-11 17 -7 4 3 1 13 -5 21 -7 8 -11 23 -8 33 4 14 5 13 6 -4 0 -13 6 -23 11
-23 13 0 13 36 0 61 -6 11 -7 19 -1 19 5 0 14 -14 20 -31z m-58 -7 c6 -16 5
-22 -5 -22 -8 0 -16 11 -19 25 -5 31 13 28 24 -3z m1944 7 c5 -5 -11 -9 -42
-9 -31 0 -53 5 -56 13 -5 14 82 11 98 -4z m3715 6 c0 -8 -4 -15 -10 -15 -5 0
-10 7 -10 15 0 8 5 15 10 15 6 0 10 -7 10 -15z m38 -16 c-3 -8 -7 -3 -11 10
-4 17 -3 21 5 13 5 -5 8 -16 6 -23z m-5583 11 c3 -5 1 -10 -4 -10 -6 0 -11 5
-11 10 0 6 2 10 4 10 3 0 8 -4 11 -10z m-160 -9 c3 -6 -4 -9 -15 -8 -11 1 -20
5 -20 9 0 11 28 10 35 -1z m203 2 c0 -5 2 -16 7 -26 6 -15 10 -16 17 -5 7 9 8
7 3 -7 -4 -11 -7 -29 -7 -40 0 -17 -2 -16 -11 5 -6 14 -14 27 -18 30 -3 3 -8
15 -11 28 -4 15 -2 22 8 22 8 0 13 -3 12 -7z m112 -24 c0 -6 -4 -7 -10 -4 -5
3 -10 11 -10 16 0 6 5 7 10 4 6 -3 10 -11 10 -16z m7717 -17 c3 -23 -12 -31
-20 -9 -3 6 -6 2 -6 -10 -1 -25 -21 -33 -21 -9 0 8 -3 21 -6 29 -3 10 1 17 13
20 28 7 36 3 40 -21z m-8053 -20 c-4 -9 -7 -24 -6 -32 1 -8 -5 0 -14 19 -8 18
-13 36 -10 39 4 3 6 0 6 -6 0 -7 5 -12 10 -12 6 0 9 3 9 8 -3 16 3 26 8 14 3
-7 2 -20 -3 -30z m-47 -2 c3 -17 10 -33 14 -36 5 -3 9 -10 9 -17 0 -18 -17 4
-34 46 -8 20 -11 37 -5 37 5 0 12 -14 16 -30z m253 -2 c0 -4 -8 -4 -17 -1 -13
5 -15 2 -10 -13 7 -19 7 -19 -8 0 -17 22 -20 40 -6 31 5 -3 13 0 17 6 6 11 23
-5 24 -23z m1828 5 c-5 -25 -28 -28 -28 -4 0 12 6 21 16 21 9 0 14 -7 12 -17z
m3650 -8 c-3 -3 -9 2 -12 12 -6 14 -5 15 5 6 7 -7 10 -15 7 -18z m-5758 -6 c0
-6 -4 -7 -10 -4 -5 3 -10 11 -10 16 0 6 5 7 10 4 6 -3 10 -11 10 -16z m229
-12 c0 -21 -1 -21 -9 -2 -12 28 -12 37 0 30 6 -3 10 -16 9 -28z m7843 -9 c10
-28 12 -30 19 -12 6 17 8 17 18 -8 12 -32 26 -38 16 -8 -3 11 -2 20 3 20 11 0
56 -153 50 -172 -3 -7 -14 16 -26 52 -15 44 -21 54 -18 30 9 -69 21 -111 47
-162 5 -10 9 -23 9 -30 0 -39 -48 79 -76 185 -9 37 -19 67 -21 67 -3 0 -2 -26
1 -57 l5 -58 -16 53 c-18 59 -34 69 -30 18 1 -19 6 -32 11 -29 5 3 7 0 5 -6
-10 -29 -25 -12 -40 44 -12 44 -21 60 -33 59 -9 -1 -16 4 -16 12 0 7 6 11 13
9 6 -3 23 1 37 9 14 8 26 14 28 15 2 1 8 -13 14 -31z m-7762 -33 c0 -5 -5 -3
-10 5 -5 8 -10 20 -10 25 0 6 5 3 10 -5 5 -8 10 -19 10 -25z m-170 -50 c12
-33 29 -75 38 -93 8 -17 13 -35 9 -38 -7 -7 -30 38 -47 96 -7 25 -21 54 -30
65 -10 11 -15 26 -13 33 7 20 17 5 43 -63z m-114 11 c-2 -6 -8 0 -14 14 -5 14
-7 29 -4 34 7 12 24 -33 18 -48z m251 34 c4 -13 3 -13 -6 0 -19 27 -24 1 -7
-42 l17 -43 -20 25 c-20 26 -32 65 -23 75 10 10 35 0 39 -15z m-187 -11 c0 -5
8 -22 17 -36 22 -33 54 -123 44 -123 -7 0 -81 155 -81 171 0 6 5 7 10 4 6 -3
10 -11 10 -16z m7920 11 c0 -5 -4 -10 -10 -10 -5 0 -10 5 -10 10 0 6 5 10 10
10 6 0 10 -4 10 -10z m-7811 -45 c0 -5 -4 -3 -9 5 -5 8 -9 22 -9 30 0 16 17
-16 18 -35z m41 -13 c0 -7 -5 -10 -12 -6 -8 5 -9 0 -4 -17 4 -13 10 -35 12
-49 5 -23 4 -24 -7 -5 -7 10 -13 46 -15 80 -2 56 -1 58 11 35 8 -14 14 -31 15
-38z m160 27 c0 -6 -4 -7 -10 -4 -5 3 -10 11 -10 16 0 6 5 7 10 4 6 -3 10 -11
10 -16z m-322 -29 c-2 -10 4 -26 13 -36 20 -23 37 -90 20 -80 -6 4 -11 13 -11
20 0 8 -7 19 -15 26 -12 10 -15 9 -16 -6 0 -15 -2 -14 -10 6 -8 20 -12 22 -19
10 -5 -8 -13 -11 -17 -6 -4 5 -2 11 5 13 6 3 12 12 12 20 0 9 -6 13 -15 9 -8
-3 -15 -4 -15 -2 0 3 -3 13 -6 23 -5 15 -4 16 5 3 9 -12 13 -13 20 -2 6 10 11
5 20 -19 6 -18 14 -29 17 -26 4 3 1 20 -5 38 -15 43 -14 54 4 39 9 -7 14 -21
13 -30z m7941 8 c10 -27 2 -46 -10 -27 -10 15 -12 49 -4 49 3 0 9 -10 14 -22z
m300 -63 c0 -5 -6 5 -14 24 -8 18 -15 41 -15 50 1 9 7 -2 15 -24 8 -22 15 -44
14 -50z m-7979 59 c0 -8 -4 -12 -10 -9 -5 3 -10 10 -10 16 0 5 5 9 10 9 6 0
10 -7 10 -16z m1680 6 c0 -5 -4 -10 -9 -10 -6 0 -13 5 -16 10 -3 6 1 10 9 10
9 0 16 -4 16 -10z m-1633 -26 c12 -26 12 -26 -7 -9 -20 18 -26 35 -12 35 4 0
12 -12 19 -26z m7603 -1 c0 -21 -3 -24 -9 -14 -5 8 -7 20 -4 28 8 21 13 15 13
-14z m-3003 -5 c-3 -8 -6 -5 -6 6 -1 11 2 17 5 13 3 -3 4 -12 1 -19z m-4777
-35 c0 -7 -4 -13 -9 -13 -10 0 -21 24 -21 48 0 13 3 12 15 -4 8 -10 15 -25 15
-31z m1850 26 c0 -14 -5 -19 -17 -17 -26 5 -29 38 -4 38 15 0 21 -6 21 -21z
m5840 -33 c0 -18 -17 8 -24 34 l-7 25 15 -25 c9 -14 15 -29 16 -34z m-7900 13
c0 -5 -4 -9 -10 -9 -5 0 -10 7 -10 16 0 8 5 12 10 9 6 -3 10 -10 10 -16z
m7860 -9 c0 -11 -2 -20 -4 -20 -2 0 -6 9 -9 20 -3 11 -1 20 4 20 5 0 9 -9 9
-20z m104 4 c9 -22 -3 -32 -14 -14 -12 19 -12 30 -1 30 5 0 12 -7 15 -16z
m-1434 -3 c0 -6 -4 -13 -10 -16 -5 -3 -10 1 -10 9 0 9 5 16 10 16 6 0 10 -4
10 -9z m1510 -24 c0 -18 -2 -19 -10 -7 -13 20 -13 43 0 35 6 -3 10 -16 10 -28z
m44 -12 l7 -30 -19 30 c-11 17 -17 34 -15 38 8 13 20 -4 27 -38z m-8111 15 c3
-11 1 -18 -4 -14 -5 3 -9 12 -9 20 0 20 7 17 13 -6z m7967 -6 c0 -8 -4 -12
-10 -9 -5 3 -10 10 -10 16 0 5 5 9 10 9 6 0 10 -7 10 -16z m68 -15 c-3 -8 -7
-3 -11 10 -4 17 -3 21 5 13 5 -5 8 -16 6 -23z m-7983 -22 c10 -47 55 -158 71
-174 8 -8 14 -19 14 -24 0 -6 9 -7 20 -4 16 5 20 2 19 -17 0 -13 -3 -17 -6
-10 -10 24 -25 12 -18 -15 l7 -28 -20 25 c-11 14 -23 36 -27 50 -4 14 -11 30
-15 35 -4 6 -11 25 -15 43 -3 17 -11 32 -16 32 -11 0 -6 -22 17 -79 8 -19 12
-36 10 -39 -6 -5 -46 73 -46 91 0 7 -7 22 -16 33 -15 19 -15 18 -11 -3 7 -30
-9 -39 -17 -11 -3 15 0 26 11 32 15 8 15 10 -1 21 -10 8 -13 16 -7 19 6 4 8
13 5 21 -4 8 1 18 10 21 9 3 13 11 9 17 -3 5 -1 7 5 3 6 -3 13 -21 17 -39z
m2054 0 c-1 -31 -1 -31 -9 -7 -11 36 -11 52 0 45 6 -3 10 -21 9 -38z m-2025
24 c4 -5 7 -22 8 -38 1 -15 5 -30 9 -33 4 -3 11 -19 14 -35 7 -30 7 -30 -9 -8
-20 26 -47 123 -35 123 4 0 10 -4 13 -9z m91 -150 c28 -57 29 -95 1 -46 -14
24 -16 25 -13 8 3 -13 2 -25 -2 -28 -7 -4 -17 12 -39 57 -1 4 3 5 11 2 26 -10
29 15 7 51 -26 41 -42 94 -33 108 3 6 14 -15 24 -45 9 -30 29 -78 44 -107z
m96 149 c4 0 15 -13 24 -30 9 -17 11 -30 5 -30 -5 0 -12 11 -16 25 -3 14 -11
25 -16 25 -6 0 -8 -6 -5 -13 3 -8 1 -20 -4 -28 -7 -11 -9 -9 -9 8 0 12 -4 25
-10 28 -16 10 -11 28 6 21 9 -3 20 -6 25 -6z m1779 0 c18 -12 2 -12 -25 0 -13
6 -15 9 -5 9 8 0 22 -4 30 -9z m5958 -15 c-3 -3 -9 2 -12 12 -6 14 -5 15 5 6
7 -7 10 -15 7 -18z m-104 -1 c3 -8 2 -12 -4 -9 -6 3 -10 10 -10 16 0 14 7 11
14 -7z m336 -20 c0 -24 -17 -15 -22 11 -4 20 -3 23 8 14 8 -6 14 -18 14 -25z
m-7912 1 c-3 -3 -9 2 -12 12 -6 14 -5 15 5 6 7 -7 10 -15 7 -18z m7609 3 c-3
-8 -6 -5 -6 6 -1 11 2 17 5 13 3 -3 4 -12 1 -19z m243 -38 c0 -8 7 -26 16 -38
8 -12 11 -22 6 -22 -6 0 -18 19 -27 43 -27 65 -28 74 -11 53 9 -11 16 -27 16
-36z m-8210 36 c0 -3 -4 -8 -10 -11 -5 -3 -10 -1 -10 4 0 6 5 11 10 11 6 0 10
-2 10 -4z m230 -17 c0 -11 -4 -17 -10 -14 -5 3 -10 13 -10 21 0 8 5 14 10 14
6 0 10 -9 10 -21z m5 -93 c9 -14 15 -30 13 -36 -5 -17 -58 94 -57 121 1 18 4
13 14 -17 7 -23 21 -53 30 -68z m35 74 c0 -10 5 -22 10 -25 6 -3 10 -14 10
-23 0 -13 -2 -13 -15 4 -17 23 -20 3 -4 -27 6 -11 9 -25 7 -31 -2 -6 -14 10
-26 35 -26 56 -26 58 -6 50 12 -4 14 0 8 22 -5 20 -4 26 5 21 6 -4 11 -16 11
-26z m240 20 c0 -5 -2 -10 -4 -10 -3 0 -8 5 -11 10 -3 6 -1 10 4 10 6 0 11 -4
11 -10z m7663 -11 c4 -16 3 -18 -9 -8 -16 13 -19 29 -5 29 5 0 11 -9 14 -21z
m-6046 -30 c1 -19 1 -20 -4 -4 -3 11 -10 24 -17 28 -7 6 -6 7 4 4 8 -2 16 -14
17 -28z m6202 -1 c1 30 19 28 27 -5 5 -19 2 -30 -10 -39 -14 -9 -14 -14 -4
-20 7 -5 18 -9 23 -9 6 0 11 -11 12 -25 1 -14 0 -18 -3 -7 -3 9 -14 17 -24 17
-21 0 -44 33 -53 76 -8 42 4 52 19 17 11 -26 12 -26 13 -5z m-8351 -3 c-3 -3
-9 2 -12 12 -6 14 -5 15 5 6 7 -7 10 -15 7 -18z m7872 15 c0 -5 -2 -10 -4 -10
-3 0 -8 5 -11 10 -3 6 -1 10 4 10 6 0 11 -4 11 -10z m439 -40 c0 -10 -3 -8 -9
5 -12 27 -12 43 0 25 5 -8 9 -22 9 -30z m-6181 7 c5 -24 -15 -21 -21 4 -3 13
-1 19 6 16 7 -2 13 -11 15 -20z m5762 3 c0 -5 -2 -10 -4 -10 -3 0 -8 5 -11 10
-3 6 -1 10 4 10 6 0 11 -4 11 -10z m260 -11 c0 -5 -4 -9 -10 -9 -5 0 -10 7
-10 16 0 8 5 12 10 9 6 -3 10 -10 10 -16z m-2100 1 c0 -5 -5 -10 -11 -10 -5 0
-7 5 -4 10 3 6 8 10 11 10 2 0 4 -4 4 -10z m2250 -34 c0 -5 -7 -3 -15 4 -8 7
-15 20 -15 28 0 13 3 12 15 -4 8 -10 15 -23 15 -28z m-6133 12 c-3 -8 -6 -5
-6 6 -1 11 2 17 5 13 3 -3 4 -12 1 -19z m-2117 2 c0 -5 -4 -10 -10 -10 -5 0
-10 5 -10 10 0 6 5 10 10 10 6 0 10 -4 10 -10z m35 -10 c-3 -5 -2 -10 3 -10 5
0 12 -8 15 -17 2 -10 8 -26 12 -35 14 -36 -11 -17 -27 20 -14 34 -15 52 -2 52
3 0 2 -4 -1 -10z m7785 0 c0 -5 -2 -10 -4 -10 -3 0 -8 5 -11 10 -3 6 -1 10 4
10 6 0 11 -4 11 -10z m298 -21 c-3 -8 -7 -3 -11 10 -4 17 -3 21 5 13 5 -5 8
-16 6 -23z m32 10 c0 -6 -4 -7 -10 -4 -5 3 -10 11 -10 16 0 6 5 7 10 4 6 -3
10 -11 10 -16z m-6056 -5 c9 -8 16 -23 16 -32 0 -14 -2 -14 -9 -3 -7 11 -10 9
-16 -8 -3 -11 -3 -25 0 -31 3 -5 -1 -10 -9 -10 -15 0 -18 21 -9 73 5 32 7 32
27 11z m4400 -28 c-10 -27 -24 -18 -24 15 0 27 2 29 15 15 8 -8 12 -22 9 -30z
m481 34 c3 -5 2 -10 -4 -10 -5 0 -13 5 -16 10 -3 6 -2 10 4 10 5 0 13 -4 16
-10z m1105 0 c0 -5 -2 -10 -4 -10 -3 0 -8 5 -11 10 -3 6 -1 10 4 10 6 0 11 -4
11 -10z m150 -17 c0 -22 -2 -25 -10 -13 -13 20 -13 40 0 40 6 0 10 -12 10 -27z
m50 17 c0 -5 -4 -10 -10 -10 -5 0 -10 5 -10 10 0 6 5 10 10 10 6 0 10 -4 10
-10z m-7855 -10 c3 -5 1 -10 -4 -10 -6 0 -11 5 -11 10 0 6 2 10 4 10 3 0 8 -4
11 -10z m4572 -22 c-3 -7 -5 -2 -5 12 0 14 2 19 5 13 2 -7 2 -19 0 -25z
m-4962 -38 c2 -8 6 -24 10 -35 4 -14 2 -12 -8 5 -9 14 -13 28 -11 32 3 5 0 8
-5 8 -6 0 -11 12 -10 28 l0 27 10 -25 c6 -14 12 -32 14 -40z m8069 34 c9 -24
7 -27 -9 -10 -17 17 -19 26 -6 26 5 0 12 -7 15 -16z m-3137 -16 c-3 -8 -6 -5
-6 6 -1 11 2 17 5 13 3 -3 4 -12 1 -19z m3113 -22 c0 -6 -7 -2 -15 8 -8 11
-15 25 -15 30 0 6 7 2 15 -8 8 -11 15 -25 15 -30z m111 -3 c11 -25 18 -51 16
-56 -3 -11 -29 40 -42 81 -12 39 5 23 26 -25z m-7951 12 c14 -19 14 -19 -2 -6
-10 7 -18 18 -18 24 0 6 1 8 3 6 1 -2 9 -13 17 -24z m5730 15 c0 -5 -2 -10 -4
-10 -3 0 -8 5 -11 10 -3 6 -1 10 4 10 6 0 11 -4 11 -10z m2330 -4 c-1 -5 4
-12 11 -17 8 -4 10 -11 6 -15 -4 -4 -14 1 -22 12 -17 23 -19 37 -4 32 6 -2 10
-7 9 -12z m-255 -16 c3 -5 1 -10 -4 -10 -6 0 -11 5 -11 10 0 6 2 10 4 10 3 0
8 -4 11 -10z m121 -26 c8 -20 13 -39 10 -42 -5 -4 -36 58 -36 73 0 16 13 0 26
-31z m-1692 4 c-3 -13 -13 -30 -20 -39 -8 -9 -12 -18 -9 -21 3 -3 -1 -23 -10
-45 -9 -22 -15 -44 -14 -49 1 -5 -1 -17 -6 -27 -6 -14 -10 -15 -21 -6 -17 14
-17 9 -4 -25 5 -14 6 -28 1 -30 -6 -4 -31 56 -31 77 0 12 34 16 42 5 6 -8 8 3
4 31 -3 32 -2 41 5 30 8 -10 9 -7 6 14 -2 15 0 27 4 27 5 0 9 12 9 26 0 14 4
22 10 19 5 -3 15 3 22 15 17 26 21 25 12 -2z m-6343 -45 c15 -26 16 -33 5 -33
-14 0 -37 50 -35 79 0 14 1 14 6 1 4 -8 14 -30 24 -47z m1044 19 c-3 -3 -16 5
-28 17 l-22 23 28 -17 c15 -10 25 -20 22 -23z m-951 13 c3 -8 1 -15 -4 -15 -6
0 -10 7 -10 15 0 8 2 15 4 15 2 0 6 -7 10 -15z m206 -6 c0 -6 -4 -7 -10 -4 -5
3 -10 11 -10 16 0 6 5 7 10 4 6 -3 10 -11 10 -16z m7618 -31 c12 -28 21 -56
19 -62 -3 -6 -10 3 -16 19 -7 17 -19 43 -27 59 -16 33 -17 36 -6 36 4 0 17
-23 30 -52z m69 14 c39 -88 65 -182 52 -182 -5 0 -9 11 -9 25 0 14 -4 25 -10
25 -5 0 -10 -8 -10 -17 0 -12 -5 -9 -15 11 -20 37 -19 57 1 31 l16 -20 -5 20
c-3 11 -11 39 -16 61 -6 23 -18 47 -26 54 -18 15 -20 31 -2 25 7 -3 18 -18 24
-33z m-9207 7 c0 -5 -4 -9 -10 -9 -5 0 -10 7 -10 16 0 8 5 12 10 9 6 -3 10
-10 10 -16z m8910 -5 c0 -8 -4 -12 -10 -9 -5 3 -10 10 -10 16 0 5 5 9 10 9 6
0 10 -7 10 -16z m260 -14 c0 -11 4 -20 9 -20 11 0 25 -39 17 -47 -6 -6 -46 57
-46 75 0 6 5 12 10 12 6 0 10 -9 10 -20z m-7970 -30 c6 -21 15 -42 20 -45 12
-7 13 -25 2 -25 -7 0 -52 91 -52 105 0 3 4 5 10 5 5 0 14 -18 20 -40z m1004
25 c11 -8 15 -15 10 -15 -6 0 -19 7 -30 15 -10 8 -14 14 -9 14 6 0 19 -6 29
-14z m6906 -18 c0 -5 -4 -5 -10 -2 -5 3 -10 14 -10 23 0 15 2 15 10 2 5 -8 10
-19 10 -23z m-7982 -8 c-3 -8 -7 -3 -11 10 -4 17 -3 21 5 13 5 -5 8 -16 6 -23z
m1143 18 c-1 -12 -15 -9 -19 4 -3 6 1 10 8 8 6 -3 11 -8 11 -12z m-1173 -28
c-3 -8 -7 -3 -11 10 -4 17 -3 21 5 13 5 -5 8 -16 6 -23z m7916 -9 c-6 -5 -24
21 -24 34 0 6 6 1 14 -10 8 -10 12 -21 10 -24z m36 19 c0 -14 -17 -10 -23 5
-4 10 -1 13 9 9 7 -3 14 -9 14 -14z m-6860 -5 c0 -8 -4 -12 -10 -9 -5 3 -10
10 -10 16 0 5 5 9 10 9 6 0 10 -7 10 -16z m-912 -19 c-3 -3 -9 2 -12 12 -6 14
-5 15 5 6 7 -7 10 -15 7 -18z m-28 0 c11 -13 10 -14 -4 -9 -9 3 -16 10 -16 15
0 13 6 11 20 -6z m7837 -17 c-3 -8 -6 -5 -6 6 -1 11 2 17 5 13 3 -3 4 -12 1
-19z m38 12 c3 -5 1 -10 -4 -10 -6 0 -11 5 -11 10 0 6 2 10 4 10 3 0 8 -4 11
-10z m-8011 -16 c3 -8 2 -12 -4 -9 -6 3 -10 10 -10 16 0 14 7 11 14 -7z m75
-34 c0 -9 -4 -8 -9 5 -5 11 -9 27 -9 35 0 9 4 8 9 -5 5 -11 9 -27 9 -35z
m6278 28 c-3 -8 -6 -5 -6 6 -1 11 2 17 5 13 3 -3 4 -12 1 -19z m1603 -11 c0
-5 -4 -5 -10 -2 -5 3 -10 14 -10 23 0 15 2 15 10 2 5 -8 10 -19 10 -23z
m-7786 -45 c9 -24 12 -41 7 -38 -5 3 -16 27 -25 53 -20 57 -6 45 18 -15z m16
48 c0 -5 -4 -10 -10 -10 -5 0 -10 5 -10 10 0 6 5 10 10 10 6 0 10 -4 10 -10z
m-121 -59 c11 -30 18 -57 16 -60 -3 -2 -5 1 -5 7 0 6 -6 17 -14 25 -13 13 -36
99 -23 87 3 -3 15 -29 26 -59z m6244 33 c4 -23 3 -24 -10 -11 -9 8 -12 20 -9
26 10 16 13 14 19 -15z m1696 -24 c0 -9 -4 -8 -9 5 -5 11 -9 27 -9 35 0 9 4 8
9 -5 5 -11 9 -27 9 -35z m-7779 30 c0 -5 -2 -10 -4 -10 -3 0 -8 5 -11 10 -3 6
-1 10 4 10 6 0 11 -4 11 -10z m175 0 c3 -5 1 -10 -4 -10 -6 0 -11 5 -11 10 0
6 2 10 4 10 3 0 8 -4 11 -10z m1585 0 c0 -5 -4 -10 -10 -10 -5 0 -10 5 -10 10
0 6 5 10 10 10 6 0 10 -4 10 -10z m3050 -11 c0 -6 -4 -7 -10 -4 -5 3 -10 11
-10 16 0 6 5 7 10 4 6 -3 10 -11 10 -16z m3040 6 c0 -8 -4 -15 -9 -15 -13 0
-22 16 -14 24 11 11 23 6 23 -9z m-7866 -35 c-6 -5 -24 21 -24 34 0 6 6 1 14
-10 8 -10 12 -21 10 -24z m931 20 c10 -11 16 -20 13 -20 -3 0 -13 9 -23 20
-10 11 -16 20 -13 20 3 0 13 -9 23 -20z m35 10 c0 -5 -2 -10 -4 -10 -3 0 -8 5
-11 10 -3 6 -1 10 4 10 6 0 11 -4 11 -10z m4587 -12 c-3 -8 -6 -5 -6 6 -1 11
2 17 5 13 3 -3 4 -12 1 -19z m43 12 c0 -5 -4 -10 -10 -10 -5 0 -10 5 -10 10 0
6 5 10 10 10 6 0 10 -4 10 -10z m-5855 -80 c5 -16 4 -22 -3 -15 -5 6 -12 24
-16 40 -7 34 7 15 19 -25z m52 28 c-3 -8 -6 -5 -6 6 -1 11 2 17 5 13 3 -3 4
-12 1 -19z m49 -23 c7 -19 14 -40 14 -47 -1 -16 -39 52 -40 70 0 22 11 12 26
-23z m84 -30 c0 -17 -28 19 -35 45 -6 23 -5 23 14 -5 12 -16 21 -34 21 -40z
m18 34 c-3 -8 -7 -3 -11 10 -4 17 -3 21 5 13 5 -5 8 -16 6 -23z m6191 -17 c1
-7 -3 -10 -9 -7 -5 3 -10 18 -9 33 0 24 1 25 9 7 5 -11 9 -26 9 -33z m-6359 3
c0 -5 -5 -3 -10 5 -5 8 -10 20 -10 25 0 6 5 3 10 -5 5 -8 10 -19 10 -25z
m1115 25 c3 -5 1 -10 -4 -10 -6 0 -11 5 -11 10 0 6 2 10 4 10 3 0 8 -4 11 -10z
m7490 -20 c-3 -5 -14 -10 -23 -9 -14 0 -13 2 3 9 27 11 27 11 20 0z m-8565
-21 c0 -5 -4 -9 -10 -9 -5 0 -10 7 -10 16 0 8 5 12 10 9 6 -3 10 -10 10 -16z
m6228 -4 c-3 -3 -9 2 -12 12 -6 14 -5 15 5 6 7 -7 10 -15 7 -18z m1693 -38
c11 -22 18 -41 15 -44 -3 -3 -16 19 -30 48 -40 82 -29 79 15 -4z m-2996 44 c3
-5 1 -12 -5 -16 -5 -3 -10 1 -10 9 0 18 6 21 15 7z m3129 -7 c9 -24 7 -28 -9
-14 -17 14 -20 30 -6 30 5 0 12 -7 15 -16z m-7974 -15 c0 -5 -4 -9 -10 -9 -5
0 -10 7 -10 16 0 8 5 12 10 9 6 -3 10 -10 10 -16z m7870 -5 c0 -8 -4 -12 -10
-9 -5 3 -10 13 -10 21 0 8 5 12 10 9 6 -3 10 -13 10 -21z m178 7 c3 -8 -1 -12
-9 -9 -7 2 -15 10 -17 17 -3 8 1 12 9 9 7 -2 15 -10 17 -17z m46 -3 c3 -13 6
-27 6 -33 -1 -15 -30 27 -30 42 0 22 17 15 24 -9z m45 -62 c-1 -20 -2 -20 -6
-1 -3 11 -9 24 -14 30 -5 5 -9 20 -9 35 1 23 2 23 15 -9 8 -18 14 -43 14 -55z
m341 74 c0 -5 -7 -10 -15 -10 -8 0 -15 5 -15 10 0 6 7 10 15 10 8 0 15 -4 15
-10z m-534 -25 c3 -13 12 -29 20 -36 17 -14 18 -39 1 -39 -6 0 -17 15 -23 33
-6 17 -14 40 -19 50 -4 10 -3 17 4 17 6 0 13 -11 17 -25z m83 -20 c0 -5 -6 -1
-14 9 -8 11 -15 24 -15 30 0 5 7 1 15 -10 8 -10 14 -23 14 -29z m-8089 14 c0
-6 -4 -7 -10 -4 -5 3 -10 11 -10 16 0 6 5 7 10 4 6 -3 10 -11 10 -16z m-30 -4
c0 -8 -4 -15 -9 -15 -5 0 -11 7 -15 15 -3 9 0 15 9 15 8 0 15 -7 15 -15z
m2951 -80 c-7 -32 -9 -34 -10 -13 -1 14 -7 29 -13 32 -9 3 -8 8 5 16 9 6 18
23 19 38 1 26 1 26 5 -3 2 -16 0 -48 -6 -70z m5063 69 c3 -9 6 -22 6 -30 0 -8
9 -33 19 -54 14 -30 16 -40 6 -40 -7 0 -18 22 -25 50 -7 28 -16 53 -21 56 -12
7 -12 34 0 34 5 0 12 -7 15 -16z m96 -72 c12 -40 20 -78 18 -84 -5 -13 -38 87
-38 113 0 10 -4 21 -10 24 -5 3 -10 14 -10 23 0 32 18 -3 40 -76z m55 51 c3
-21 8 -49 11 -63 2 -14 -5 0 -16 30 -22 63 -23 70 -11 70 5 0 12 -17 16 -37z
m-8015 11 c0 -8 -5 -12 -10 -9 -6 4 -8 11 -5 16 9 14 15 11 15 -7z m6137 -38
c-6 -26 -16 -50 -23 -53 -7 -3 -11 -10 -8 -17 5 -12 -22 -43 -30 -35 -3 2 -7
18 -11 34 l-6 30 15 -25 c18 -29 21 -11 7 38 -12 39 -5 43 10 5 12 -32 23 -21
40 41 15 54 20 41 6 -18z m-6307 18 c0 -8 -4 -12 -10 -9 -5 3 -10 13 -10 21 0
8 5 12 10 9 6 -3 10 -13 10 -21z m7900 0 c0 -8 7 -26 16 -39 9 -13 14 -30 11
-37 -3 -9 -7 -6 -12 7 -3 11 -13 32 -21 47 -16 30 -18 52 -4 43 6 -3 10 -13
10 -21z m-7920 -36 c0 -5 -4 -8 -8 -8 -5 0 -9 6 -9 13 0 6 -4 21 -7 32 -5 13
-2 12 8 -5 8 -14 15 -28 16 -32z m160 42 c0 -5 -2 -10 -4 -10 -3 0 -8 5 -11
10 -3 6 -1 10 4 10 6 0 11 -4 11 -10z m7610 -11 c0 -5 -4 -9 -10 -9 -5 0 -10
7 -10 16 0 8 5 12 10 9 6 -3 10 -10 10 -16z m160 -108 c0 -9 -14 11 -30 44
-17 33 -30 66 -29 75 0 20 59 -99 59 -119z m247 106 c-2 -7 4 -33 13 -59 10
-27 16 -48 14 -48 -12 0 -19 6 -16 14 1 4 -2 13 -7 20 -16 19 -27 101 -12 92
7 -4 10 -13 8 -19z m-6086 -60 c-15 -15 -38 8 -38 38 0 17 6 25 21 27 17 2 22
-3 24 -26 2 -16 -1 -33 -7 -39z m2849 63 c0 -5 -2 -10 -4 -10 -3 0 -8 5 -11
10 -3 6 -1 10 4 10 6 0 11 -4 11 -10z m3310 -28 c0 -7 -4 -10 -10 -7 -5 3 -10
16 -10 28 0 18 2 19 10 7 5 -8 10 -21 10 -28z m-6230 24 c0 -3 -4 -8 -10 -11
-5 -3 -10 -1 -10 4 0 6 5 11 10 11 6 0 10 -2 10 -4z m-2046 -51 c7 -34 -7 -15
-19 25 -5 16 -4 22 3 15 5 -5 12 -23 16 -40z m386 14 c0 -5 -4 -9 -10 -9 -5 0
-10 7 -10 16 0 8 5 12 10 9 6 -3 10 -10 10 -16z m7490 -42 c0 -26 -6 -20 -25
29 l-16 39 21 -24 c11 -13 20 -32 20 -44z m439 23 c0 -10 -3 -8 -9 5 -12 27
-12 43 0 25 5 -8 9 -22 9 -30z m30 2 c0 -24 -1 -25 -9 -7 -12 28 -12 47 0 40
6 -3 10 -18 9 -33z m-6285 3 c16 -25 16 -25 -9 -13 -14 6 -25 17 -25 25 0 21
16 15 34 -12z m922 -27 c-19 -26 -21 -11 -4 29 9 22 12 24 15 11 3 -10 -3 -28
-11 -40z m-2913 22 c7 -26 1 -26 -13 0 -6 11 -7 20 -2 20 6 0 12 -9 15 -20z
m31 4 c3 -8 2 -12 -4 -9 -6 3 -10 10 -10 16 0 14 7 11 14 -7z m36 -5 c0 -6 -4
-7 -10 -4 -5 3 -10 11 -10 16 0 6 5 7 10 4 6 -3 10 -11 10 -16z m7710 -36 c0
-21 -8 -15 -25 17 -21 40 -19 48 5 20 11 -13 20 -29 20 -37z m-7665 37 c3 -5
1 -10 -4 -10 -6 0 -11 5 -11 10 0 6 2 10 4 10 3 0 8 -4 11 -10z m845 0 c0 -5
-4 -10 -10 -10 -5 0 -10 5 -10 10 0 6 5 10 10 10 6 0 10 -4 10 -10z m7130 -28
c0 -7 -4 -10 -10 -7 -5 3 -10 16 -10 28 0 18 2 19 10 7 5 -8 10 -21 10 -28z
m-1965 18 c3 -5 1 -10 -4 -10 -6 0 -11 5 -11 10 0 6 2 10 4 10 3 0 8 -4 11
-10z m-1185 -10 c0 -5 -5 -10 -11 -10 -5 0 -7 5 -4 10 3 6 8 10 11 10 2 0 4
-4 4 -10z m-4955 -10 c3 -5 1 -10 -4 -10 -6 0 -11 5 -11 10 0 6 2 10 4 10 3 0
8 -4 11 -10z m75 -23 c0 -4 -6 -2 -14 5 -8 7 -12 17 -9 22 5 8 23 -12 23 -27z
m1925 23 c3 -5 1 -10 -4 -10 -6 0 -11 5 -11 10 0 6 2 10 4 10 3 0 8 -4 11 -10z
m5759 -6 c4 -10 1 -14 -6 -12 -15 5 -23 28 -10 28 5 0 13 -7 16 -16z m-7814
-15 c0 -6 -4 -7 -10 -4 -5 3 -10 11 -10 16 0 6 5 7 10 4 6 -3 10 -11 10 -16z
m28 -4 c-3 -3 -9 2 -12 12 -6 14 -5 15 5 6 7 -7 10 -15 7 -18z m142 10 c0 -8
-4 -15 -10 -15 -5 0 -10 7 -10 15 0 8 5 15 10 15 6 0 10 -7 10 -15z m5967 -7
c-3 -8 -6 -5 -6 6 -1 11 2 17 5 13 3 -3 4 -12 1 -19z m141 -9 c-3 -8 -7 -3
-11 10 -4 17 -3 21 5 13 5 -5 8 -16 6 -23z"/>
<path d="M1810 1121 c0 -6 5 -13 10 -16 6 -3 10 1 10 9 0 9 -4 16 -10 16 -5 0
-10 -4 -10 -9z"/>
<path d="M1603 725 c4 -11 9 -32 13 -47 3 -16 10 -28 15 -28 13 0 -1 63 -18
80 -13 13 -15 13 -10 -5z"/>
<path d="M10720 9468 c0 -7 -18 -22 -40 -32 -23 -11 -40 -26 -40 -36 0 -9 -9
-25 -20 -35 -11 -10 -20 -23 -20 -29 0 -6 -9 -17 -20 -24 -11 -7 -20 -19 -20
-26 0 -8 -5 -16 -12 -18 -6 -2 -20 -42 -30 -89 -11 -46 -22 -93 -25 -104 -3
-11 -9 -49 -13 -84 -4 -35 -12 -66 -17 -70 -5 -3 -15 -35 -22 -71 -7 -36 -19
-72 -26 -80 -7 -8 -15 -35 -16 -60 -2 -26 -13 -59 -26 -79 -13 -19 -23 -39
-23 -46 0 -7 -7 -18 -15 -25 -8 -7 -15 -20 -15 -30 0 -10 -35 -53 -78 -97 -43
-43 -81 -86 -85 -95 -4 -10 -11 -18 -17 -18 -5 0 -17 -17 -26 -37 -21 -51 -19
-153 5 -207 18 -41 121 -156 140 -156 6 0 16 -8 23 -18 7 -10 28 -24 47 -30
19 -7 42 -18 50 -26 29 -24 114 -38 264 -44 l147 -5 0 842 0 841 -35 0 c-21 0
-35 -5 -35 -12z"/>
<path d="M6108 8145 c-6 -6 -163 -29 -235 -33 -13 -1 -23 -8 -23 -14 0 -8 -14
-13 -33 -14 -17 -1 -56 -12 -85 -25 -40 -18 -52 -28 -48 -41 5 -20 -5 -23 -21
-7 -8 8 -18 1 -38 -25 -19 -25 -35 -36 -53 -36 -23 0 -24 -1 -9 -12 16 -13 18
-52 3 -76 -4 -7 -4 -17 -1 -22 9 -14 35 7 35 27 0 8 5 11 10 8 6 -4 8 -15 5
-24 -3 -10 3 -25 14 -35 18 -17 22 -17 36 -3 8 9 15 20 15 26 0 6 11 11 25 11
15 0 24 -5 23 -12 -2 -7 5 -12 15 -12 23 2 22 -21 -3 -46 -11 -11 -20 -25 -20
-31 0 -14 -61 -69 -77 -69 -6 0 -15 -9 -18 -20 -3 -11 -13 -20 -21 -20 -8 0
-14 -6 -15 -12 0 -7 -3 -22 -5 -33 -3 -11 -5 -29 -5 -39 0 -10 -7 -32 -15 -47
-12 -25 -12 -29 0 -29 7 0 19 7 26 15 7 8 17 15 23 15 6 0 19 7 29 17 17 15
18 15 18 -4 0 -12 -13 -34 -28 -51 l-28 -30 35 -6 c53 -9 76 -13 79 -16 1 -1
7 -4 12 -5 6 -1 11 -3 13 -5 8 -6 55 -6 75 1 13 5 22 5 22 -1 0 -15 31 -12 65
6 30 15 75 12 75 -6 0 -19 22 -10 47 20 29 35 44 37 61 10 16 -26 28 -19 35
20 5 23 12 30 31 30 13 0 27 7 30 16 5 13 15 15 46 10 39 -6 40 -6 34 19 -6
23 -3 25 25 25 17 0 31 5 31 10 0 6 12 10 26 10 14 0 23 4 20 9 -7 11 59 24
83 16 10 -3 24 1 31 10 7 8 29 15 49 15 32 1 34 2 19 14 -25 18 -22 29 3 15
31 -16 52 7 24 27 -11 8 -19 24 -17 34 2 11 -2 20 -10 20 -7 0 -24 16 -37 35
-13 19 -28 35 -34 35 -5 0 -41 16 -78 35 -38 19 -78 35 -88 35 -11 0 -23 5
-27 11 -3 6 -17 9 -30 6 -13 -2 -24 -1 -24 3 0 5 -16 8 -35 8 -19 0 -35 -5
-35 -11 0 -7 -4 -7 -12 1 -7 7 -20 12 -29 12 -19 0 -51 38 -44 51 3 4 15 5 27
1 14 -3 19 -1 14 6 -4 6 14 22 44 38 27 15 47 31 43 37 -4 7 9 8 38 3 33 -5
41 -4 32 5 -6 6 -29 13 -50 14 -21 2 -51 10 -68 19 -35 18 -66 21 -62 5 3 -13
-61 -20 -69 -8 -3 5 1 9 8 9 7 0 26 7 42 15 28 15 139 29 132 16 -2 -3 16 -4
41 -2 70 5 37 22 -55 26 -44 2 -82 2 -84 0z m-1 -101 c-3 -3 -12 -4 -19 -1 -8
3 -5 6 6 6 11 1 17 -2 13 -5z m-480 -141 c1 -22 -1 -24 -8 -10 -6 9 -7 22 -4
27 9 14 10 13 12 -17z m690 -90 c-7 -7 -57 8 -57 18 0 4 14 3 31 -3 16 -6 28
-12 26 -15z m-143 -141 c8 -5 -32 -41 -46 -42 -12 0 -30 39 -23 50 6 9 48 4
69 -8z m110 12 c27 -10 18 -33 -20 -49 -20 -8 -38 -15 -40 -15 -2 0 -4 16 -4
35 0 30 3 35 24 35 13 0 31 -3 40 -6z"/>
<path d="M6240 8100 c0 -5 9 -10 21 -10 11 0 17 5 14 10 -3 6 -13 10 -21 10
-8 0 -14 -4 -14 -10z"/>
<path d="M6305 8091 c-19 -8 -19 -8 1 -19 12 -6 45 -13 75 -16 30 -2 69 -8 88
-12 25 -5 32 -4 27 4 -4 7 -18 12 -30 12 -13 0 -29 6 -35 14 -7 8 -20 14 -29
14 -9 -1 -30 1 -47 5 -16 3 -39 2 -50 -2z"/>
<path d="M6515 8059 c-10 -15 3 -25 16 -12 7 7 7 13 1 17 -6 3 -14 1 -17 -5z"/>
<path d="M7205 7484 c-8 -19 -24 -49 -36 -66 -16 -21 -22 -46 -23 -87 -1 -49
1 -56 20 -59 38 -5 53 25 86 170 6 26 8 54 5 63 -11 26 -36 16 -52 -21z"/>
<path d="M5792 7368 c6 -18 28 -21 28 -4 0 9 -7 16 -16 16 -9 0 -14 -5 -12
-12z"/>
<path d="M7110 7261 c0 -11 -6 -21 -12 -24 -10 -4 -10 -7 -1 -17 18 -19 41 4
35 35 -5 29 -22 34 -22 6z"/>
<path d="M8035 6491 c-3 -5 -1 -12 5 -16 5 -3 10 1 10 9 0 18 -6 21 -15 7z"/>
<path d="M5410 5801 c0 -5 5 -13 10 -16 6 -3 10 -2 10 4 0 5 -4 13 -10 16 -5
3 -10 2 -10 -4z"/>
<path d="M10710 5790 c0 -5 -11 -10 -24 -10 -54 0 -206 -38 -206 -52 0 -4 -9
-8 -20 -8 -11 0 -23 -6 -26 -14 -3 -8 -18 -18 -34 -21 -15 -3 -36 -15 -46 -26
-9 -10 -25 -19 -34 -19 -10 0 -23 -13 -30 -30 -7 -16 -15 -30 -19 -30 -3 0 -5
-55 -4 -123 2 -68 -2 -209 -8 -313 -6 -104 -13 -232 -16 -284 -2 -52 -8 -97
-13 -100 -4 -3 -11 -40 -15 -82 l-7 -78 26 0 c24 0 26 -3 26 -44 0 -24 7 -60
15 -80 9 -21 11 -36 5 -36 -12 0 16 -73 30 -78 6 -2 10 -21 10 -43 0 -28 4
-39 15 -39 11 0 15 -11 15 -38 0 -35 29 -134 43 -149 4 -3 7 -17 7 -30 0 -13
5 -23 10 -23 6 0 10 -32 10 -76 0 -64 3 -77 18 -80 12 -4 18 -17 20 -52 1 -26
7 -48 12 -50 6 -2 10 -17 10 -33 0 -19 5 -29 15 -29 11 0 15 -11 15 -40 0 -29
-4 -40 -15 -40 -11 0 -15 -11 -15 -40 0 -27 4 -39 13 -38 8 2 13 -12 15 -39 2
-34 0 -43 -12 -43 -12 0 -16 -10 -16 -40 l0 -40 -40 0 c-35 0 -40 -3 -40 -22
0 -14 -11 -31 -29 -42 -15 -11 -39 -36 -52 -57 -24 -40 -71 -69 -77 -50 -2 6
-8 11 -14 11 -12 0 -1 -219 12 -235 5 -5 13 -43 18 -83 11 -74 67 -207 99
-234 17 -14 181 -12 198 2 6 5 17 5 25 0 8 -6 59 -10 113 -10 l97 0 0 1560 0
1560 -40 0 c-22 0 -40 -4 -40 -10z"/>
<path d="M5285 4090 c-3 -6 6 -15 20 -20 40 -15 87 -17 92 -3 9 25 -98 46
-112 23z"/>
<path d="M5345 4000 c3 -5 2 -10 -4 -10 -6 0 -13 -15 -16 -34 -4 -19 -16 -44
-27 -56 -22 -23 -69 -163 -69 -208 -2 -66 10 -149 25 -177 9 -16 16 -40 16
-53 0 -12 7 -38 14 -57 15 -34 29 -44 40 -26 3 5 16 7 29 4 22 -4 22 -4 2 12
-16 13 -18 19 -7 35 6 11 12 26 12 34 0 8 5 16 11 18 7 2 13 32 14 70 2 37 6
71 9 76 3 6 3 12 -1 14 -5 1 -6 39 -3 83 3 47 0 100 -7 130 -10 40 -10 52 1
65 25 27 24 55 -1 58 -13 2 -23 10 -23 18 0 8 -5 14 -11 14 -5 0 -7 -4 -4 -10z"/>
<path d="M5127 3874 c-3 -4 -2 -15 4 -25 6 -13 6 -25 -1 -38 -14 -28 -12 -36
5 -21 9 7 15 29 15 51 0 36 -8 48 -23 33z"/>
<path d="M5100 3843 c0 -5 5 -15 10 -23 8 -12 10 -11 10 8 0 12 -4 22 -10 22
-5 0 -10 -3 -10 -7z"/>
<path d="M5866 3826 c-3 -14 -15 -28 -26 -31 -11 -3 -20 -11 -20 -16 0 -5 -20
-31 -45 -57 -25 -26 -48 -55 -51 -64 -3 -10 -12 -18 -20 -18 -8 0 -14 -9 -14
-21 0 -20 -49 -94 -89 -135 -12 -12 -21 -26 -21 -32 0 -6 -13 -18 -30 -27 -16
-8 -40 -27 -54 -41 -17 -19 -31 -25 -46 -21 -16 4 -24 -1 -32 -19 -14 -31 -22
-30 -38 4 -18 38 -26 10 -10 -38 9 -28 9 -42 1 -58 -6 -11 -11 -31 -11 -44 0
-13 -5 -29 -12 -36 -9 -9 -8 -12 4 -12 21 0 28 -33 16 -76 -5 -19 -6 -41 -1
-47 9 -14 8 -86 -2 -134 -6 -26 -4 -32 14 -38 12 -3 21 -11 21 -16 0 -5 9 -9
20 -9 24 0 24 1 4 -38 -18 -36 -11 -56 17 -47 23 8 26 -17 4 -35 -23 -19 -18
-28 11 -22 19 3 24 9 21 23 -3 11 0 25 7 32 6 6 16 24 23 38 9 20 21 28 52 33
32 5 41 11 41 26 0 10 5 22 11 26 6 4 8 20 5 39 -8 43 0 61 35 75 22 10 29 19
29 41 0 15 5 31 10 34 6 3 10 12 10 20 0 8 16 41 36 75 37 64 44 83 48 142 2
20 13 54 26 75 19 31 24 54 26 124 1 62 7 96 22 125 12 25 18 51 15 72 -3 20
1 41 11 57 18 27 21 65 6 65 -5 0 -7 7 -4 15 4 8 2 15 -4 15 -5 0 -13 -11 -16
-24z"/>
<path d="M5895 2850 c-3 -5 1 -10 9 -10 9 0 16 5 16 10 0 6 -4 10 -9 10 -6 0
-13 -4 -16 -10z"/>
<path d="M5693 2803 c-20 -7 -15 -23 7 -23 11 0 20 4 20 9 0 13 -12 19 -27 14z"/>
<path d="M5840 2691 c0 -6 -7 -11 -15 -11 -8 0 -15 -7 -15 -17 0 -14 3 -14 23
3 12 10 23 20 25 20 2 1 -1 5 -7 9 -6 3 -11 1 -11 -4z"/>
<path d="M9884 2663 c10 -11 36 -12 36 -2 0 5 -10 9 -22 9 -12 0 -18 -3 -14
-7z"/>
<path d="M9786 2493 c10 -42 16 -48 29 -29 17 23 7 56 -16 56 -16 0 -18 -5
-13 -27z"/>
<path d="M10111 2383 c-6 -11 -21 -17 -43 -17 -30 0 -34 -3 -30 -22 2 -13 13
-31 23 -40 18 -16 19 -16 19 4 0 16 6 22 21 22 23 0 79 30 79 42 0 8 -34 28
-49 28 -5 0 -14 -8 -20 -17z"/>
<path d="M9770 2365 c-14 -16 -10 -18 14 -9 9 3 16 10 16 15 0 14 -16 11 -30
-6z"/>
<path d="M9752 2310 c0 -14 2 -19 5 -12 2 6 2 18 0 25 -3 6 -5 1 -5 -13z"/>
<path d="M9671 2294 c0 -11 3 -14 6 -6 3 7 2 16 -1 19 -3 4 -6 -2 -5 -13z"/>
<path d="M4680 2225 c12 -15 30 -12 30 6 0 5 -10 9 -21 9 -18 0 -19 -2 -9 -15z"/>
<path d="M4775 2180 c-3 -5 1 -10 9 -10 9 0 16 5 16 10 0 6 -4 10 -9 10 -6 0
-13 -4 -16 -10z"/>
<path d="M9742 2168 c-17 -17 -15 -35 6 -40 13 -4 17 2 18 24 1 30 -5 35 -24
16z"/>
<path d="M10110 2164 c-8 -3 -40 -16 -70 -29 -30 -13 -74 -28 -97 -34 -53 -14
-58 -39 -8 -39 21 0 46 9 62 21 22 18 39 21 88 19 65 -3 105 12 105 39 0 25
-38 36 -80 23z"/>
<path d="M9640 2100 c0 -13 5 -18 14 -14 8 3 12 12 9 20 -8 21 -23 17 -23 -6z"/>
<path d="M9735 2090 c3 -5 10 -10 16 -10 5 0 9 5 9 10 0 6 -7 10 -16 10 -8 0
-12 -4 -9 -10z"/>
<path d="M9590 2059 c0 -5 5 -7 10 -4 6 3 10 8 10 11 0 2 -4 4 -10 4 -5 0 -10
-5 -10 -11z"/>
<path d="M4960 1920 c0 -5 9 -10 20 -10 11 0 20 5 20 10 0 6 -9 10 -20 10 -11
0 -20 -4 -20 -10z"/>
<path d="M10512 1896 c-6 -10 -11 -191 -15 -621 -1 -77 0 -221 2 -320 2 -99 1
-218 -3 -265 -8 -108 -27 -232 -36 -245 -14 -19 -17 -67 -8 -103 5 -20 14 -59
19 -87 6 -27 28 -77 50 -111 29 -46 39 -71 39 -102 l0 -42 115 0 115 0 0 950
0 950 -112 1 c-62 0 -123 2 -136 3 -13 2 -26 -2 -30 -8z"/>
<path d="M5033 1865 c-17 -18 -16 -35 0 -35 17 0 37 20 37 37 0 17 -22 16 -37
-2z"/>
<path d="M5010 1730 c-12 -8 -11 -10 8 -10 12 0 22 5 22 10 0 13 -11 13 -30 0z"/>
<path d="M5070 1576 c0 -10 9 -16 25 -16 16 0 25 6 25 15 0 8 -4 15 -10 15 -5
0 -10 -5 -10 -11 0 -8 -5 -8 -15 1 -12 10 -15 10 -15 -4z"/>
<path d="M8810 1376 c0 -17 14 -29 23 -20 8 8 -3 34 -14 34 -5 0 -9 -6 -9 -14z"/>
<path d="M5010 1360 c0 -13 5 -20 13 -17 6 2 12 10 12 17 0 7 -6 15 -12 18 -8
2 -13 -5 -13 -18z"/>
<path d="M8740 1329 c0 -5 5 -7 10 -4 6 3 10 8 10 11 0 2 -4 4 -10 4 -5 0 -10
-5 -10 -11z"/>
<path d="M8846 1321 c-4 -5 3 -7 14 -4 23 6 26 13 6 13 -8 0 -17 -4 -20 -9z"/>
<path d="M8910 1310 c0 -5 4 -10 9 -10 6 0 13 5 16 10 3 6 -1 10 -9 10 -9 0
-16 -4 -16 -10z"/>
<path d="M9000 1300 c0 -5 4 -10 9 -10 6 0 13 5 16 10 3 6 -1 10 -9 10 -9 0
-16 -4 -16 -10z"/>
<path d="M8857 1282 c-14 -3 -17 -9 -13 -25 4 -12 11 -49 17 -81 13 -78 21
-93 38 -72 11 13 11 19 1 31 -7 8 -14 30 -16 47 -2 18 -8 36 -13 41 -6 6 -6
19 0 35 11 29 10 30 -14 24z"/>
<path d="M5990 1255 c0 -8 -3 -15 -8 -15 -15 0 -32 -107 -32 -202 0 -104 -16
-202 -31 -192 -5 3 -9 -4 -9 -15 0 -11 -7 -24 -15 -29 -11 -6 -19 -36 -26
-103 -10 -104 -14 -125 -64 -386 -19 -100 -35 -184 -35 -187 0 -3 -7 -6 -15
-6 -9 0 -15 -9 -15 -25 0 -14 -7 -41 -14 -60 l-15 -35 79 0 c53 0 80 4 83 13
4 10 6 10 6 0 1 -7 8 -13 16 -13 10 0 15 10 15 33 1 17 7 68 15 112 8 44 22
141 30 215 8 74 22 187 31 250 12 79 16 170 14 290 -1 96 -3 219 -3 273 0 53
-2 97 -4 97 -2 0 -3 -7 -3 -15z m-61 -945 c-5 -68 -13 -127 -16 -130 -6 -6 4
176 14 228 11 65 12 24 2 -98z m-38 -236 c-6 -28 -9 -32 -10 -14 -1 30 11 79
16 64 2 -6 -1 -28 -6 -50z"/>
<path d="M8920 1090 c0 -5 5 -10 11 -10 5 0 7 5 4 10 -3 6 -8 10 -11 10 -2 0
-4 -4 -4 -10z"/>
<path d="M8725 1061 c-3 -5 -1 -12 5 -16 5 -3 10 1 10 9 0 18 -6 21 -15 7z"/>
<path d="M8880 1047 c0 -14 5 -29 10 -32 6 -4 8 -11 5 -16 -4 -5 8 -6 27 -2
40 7 49 13 20 13 -12 0 -23 8 -27 19 -3 11 -12 25 -20 31 -13 10 -15 8 -15
-13z"/>
<path d="M9922 1010 c0 -14 2 -19 5 -12 2 6 2 18 0 25 -3 6 -5 1 -5 -13z"/>
<path d="M4005 918 c-4 -24 -11 -47 -15 -53 -4 -5 -10 -28 -13 -50 -10 -71
-55 -314 -63 -337 -3 -12 -12 -63 -20 -112 -7 -50 -24 -147 -38 -216 -14 -69
-25 -131 -26 -137 0 -15 36 -18 44 -4 6 10 35 151 60 301 9 52 21 114 26 138
6 23 10 50 10 60 0 9 6 28 13 42 13 24 20 60 33 160 2 19 7 47 10 62 3 14 0
29 -5 33 -6 3 -11 11 -11 16 0 6 5 7 10 4 6 -3 10 -1 10 4 0 6 -5 11 -11 11
-8 0 -10 18 -6 60 8 69 2 80 -8 18z"/>
<path d="M9975 950 c3 -5 8 -10 11 -10 2 0 4 5 4 10 0 6 -5 10 -11 10 -5 0 -7
-4 -4 -10z"/>
<path d="M10047 903 c-4 -6 -2 -25 3 -44 13 -45 13 -49 -5 -49 -8 0 -15 -4
-15 -10 0 -18 40 -11 41 8 4 57 -11 116 -24 95z"/>
<path d="M10020 868 c0 -13 5 -30 10 -38 7 -11 10 -7 10 17 0 17 -4 35 -10 38
-6 3 -10 -4 -10 -17z"/>
<path d="M10084 844 c4 -21 12 -43 17 -48 5 -6 5 2 0 20 -4 16 -6 34 -4 41 2
6 -1 14 -8 19 -9 5 -10 -3 -5 -32z"/>
<path d="M9860 841 c0 -5 5 -13 10 -16 6 -3 10 -2 10 4 0 5 -4 13 -10 16 -5 3
-10 2 -10 -4z"/>
<path d="M9840 826 c0 -8 4 -17 9 -20 5 -4 7 3 4 14 -6 23 -13 26 -13 6z"/>
<path d="M10141 835 c1 -19 18 -51 18 -35 0 8 -4 22 -9 30 -5 8 -9 11 -9 5z"/>
<path d="M9821 794 c0 -11 3 -14 6 -6 3 7 2 16 -1 19 -3 4 -6 -2 -5 -13z"/>
<path d="M9951 774 c0 -11 3 -14 6 -6 3 7 2 16 -1 19 -3 4 -6 -2 -5 -13z"/>
<path d="M9901 755 c1 -19 18 -51 18 -35 0 8 -4 22 -9 30 -5 8 -9 11 -9 5z"/>
<path d="M10025 750 c3 -5 8 -10 11 -10 2 0 4 5 4 10 0 6 -5 10 -11 10 -5 0
-7 -4 -4 -10z"/>
<path d="M10181 744 c0 -11 3 -14 6 -6 3 7 2 16 -1 19 -3 4 -6 -2 -5 -13z"/>
<path d="M9958 742 c-10 -2 -18 -12 -18 -23 0 -23 13 -25 30 -4 15 19 10 32
-12 27z"/>
<path d="M10070 730 c0 -5 5 -10 10 -10 6 0 10 5 10 10 0 6 -4 10 -10 10 -5 0
-10 -4 -10 -10z"/>
<path d="M8600 720 c0 -5 5 -10 11 -10 5 0 7 5 4 10 -3 6 -8 10 -11 10 -2 0
-4 -4 -4 -10z"/>
<path d="M10010 700 c0 -5 5 -10 10 -10 6 0 10 5 10 10 0 6 -4 10 -10 10 -5 0
-10 -4 -10 -10z"/>
<path d="M9951 605 c0 -5 6 -19 14 -29 8 -11 15 -15 15 -10 0 6 -7 19 -15 30
-8 10 -14 15 -14 9z"/>
<path d="M9994 587 c3 -10 6 -24 6 -30 0 -8 4 -7 9 2 7 11 11 9 21 -9 6 -12
14 -20 16 -17 2 2 -2 16 -9 30 -8 15 -17 24 -21 20 -4 -4 -12 -1 -17 7 -9 12
-10 12 -5 -3z"/>
<path d="M9821 475 c0 -11 4 -29 9 -40 8 -18 9 -18 9 5 0 14 -4 32 -9 40 -8
12 -10 12 -9 -5z"/>
<path d="M10120 454 c0 -15 41 -45 56 -42 15 2 10 8 -19 25 -20 12 -37 20 -37
17z"/>
<path d="M10257 440 c-20 -24 -22 -60 -3 -60 19 0 34 21 32 47 -3 32 -10 35
-29 13z"/>
<path d="M9900 411 c0 -5 5 -13 10 -16 6 -3 10 -2 10 4 0 5 -4 13 -10 16 -5 3
-10 2 -10 -4z"/>
<path d="M9970 402 c0 -5 7 -17 16 -28 14 -17 15 -17 10 -1 -3 10 -6 23 -6 28
0 5 -4 9 -10 9 -5 0 -10 -4 -10 -8z"/>
<path d="M10028 403 c-20 -5 -24 -49 -7 -73 9 -12 10 -11 6 8 -5 23 8 31 16
10 2 -7 3 -3 1 8 -2 13 3 24 12 28 8 3 12 10 9 16 -6 10 -9 11 -37 3z"/>
<path d="M9760 386 c0 -9 5 -16 10 -16 6 0 10 4 10 9 0 6 -4 13 -10 16 -5 3
-10 -1 -10 -9z"/>
<path d="M10156 374 c-8 -22 4 -40 15 -23 7 11 9 9 9 -6 1 -18 2 -18 13 -4 13
17 47 22 47 7 0 -5 5 -6 11 -2 7 4 -3 14 -26 25 -47 23 -61 24 -69 3z"/>
<path d="M9910 361 c0 -5 5 -13 10 -16 6 -3 10 -2 10 4 0 5 -4 13 -10 16 -5 3
-10 2 -10 -4z"/>
<path d="M6042 340 c0 -14 2 -19 5 -12 2 6 2 18 0 25 -3 6 -5 1 -5 -13z"/>
<path d="M10125 350 c3 -5 8 -10 11 -10 2 0 4 5 4 10 0 6 -5 10 -11 10 -5 0
-7 -4 -4 -10z"/>
<path d="M9991 330 c-1 -14 3 -32 9 -40 15 -24 17 -8 4 30 -11 30 -13 32 -13
10z"/>
<path d="M10077 325 c-4 -8 -2 -17 3 -20 6 -4 10 3 10 14 0 25 -6 27 -13 6z"/>
<path d="M9930 310 c0 -5 5 -10 10 -10 6 0 10 5 10 10 0 6 -4 10 -10 10 -5 0
-10 -4 -10 -10z"/>
<path d="M10225 310 c3 -5 8 -10 11 -10 2 0 4 5 4 10 0 6 -5 10 -11 10 -5 0
-7 -4 -4 -10z"/>
<path d="M9900 294 c0 -8 5 -12 10 -9 6 4 8 11 5 16 -9 14 -15 11 -15 -7z"/>
<path d="M9875 290 c-3 -5 -1 -10 4 -10 6 0 11 5 11 10 0 6 -2 10 -4 10 -3 0
-8 -4 -11 -10z"/>
<path d="M9950 171 c0 -11 5 -23 10 -26 6 -3 10 3 10 14 0 11 -4 23 -10 26 -5
3 -10 -3 -10 -14z"/>
<path d="M10051 134 c0 -11 3 -14 6 -6 3 7 2 16 -1 19 -3 4 -6 -2 -5 -13z"/>
<path d="M9970 107 c0 -14 4 -28 9 -32 5 -3 8 6 7 20 -4 35 -16 44 -16 12z"/>
<path d="M10001 84 c0 -11 3 -14 6 -6 3 7 2 16 -1 19 -3 4 -6 -2 -5 -13z"/>
<path d="M10227 76 c-8 -19 1 -26 36 -26 l30 0 -26 20 c-30 24 -33 24 -40 6z"/>
<path d="M10189 48 c7 -10 23 -17 35 -17 20 1 20 2 1 6 -11 3 -27 10 -35 17
-13 10 -13 9 -1 -6z"/>
<path d="M10270 20 c0 -11 5 -20 10 -20 6 0 10 9 10 20 0 11 -4 20 -10 20 -5
0 -10 -9 -10 -20z"/>
<path d="M10160 16 c0 -9 5 -16 10 -16 6 0 10 4 10 9 0 6 -4 13 -10 16 -5 3
-10 -1 -10 -9z"/>
</g>
</svg>
