<?xml version="1.0" encoding="utf-8"?>
<!-- Generator: Adobe Illustrator 24.3.0, SVG Export Plug-In . SVG Version: 6.00 Build 0)  -->
<svg version="1.1" xmlns="http://www.w3.org/2000/svg" xmlns:xlink="http://www.w3.org/1999/xlink" x="0px" y="0px"
	 viewBox="0 0 114.5 178.2" style="enable-background:new 0 0 114.5 178.2;" xml:space="preserve">
<style type="text/css">
	.st0{clip-path:url(#SVGID_2_);}
	.st1{clip-path:url(#SVGID_4_);fill:#1A1B2F;}
	.st2{clip-path:url(#SVGID_6_);}
	.st3{clip-path:url(#SVGID_8_);fill:#F1748A;}
	.st4{fill:#F1748A;}
	.st5{fill:#FDD56F;}
	.st6{fill:#EC4796;}
	.st7{clip-path:url(#SVGID_10_);}
	.st8{clip-path:url(#SVGID_12_);fill:#F1748A;}
	.st9{fill:#FFFFFF;}
	.st10{fill:none;stroke:#EC4796;stroke-width:2;stroke-miterlimit:10;}
	.st11{fill:none;stroke:#F1748A;stroke-width:2;stroke-miterlimit:10;}
	.st12{fill:none;stroke:#FFFFFF;stroke-width:1.9929;stroke-miterlimit:10;}
	.st13{fill:none;stroke:#1A1B2F;stroke-width:2.2288;stroke-miterlimit:10;}
	.st14{fill:#1A1B2F;}
	.st15{clip-path:url(#SVGID_14_);}
	.st16{fill:#FFD1C2;}
	.st17{fill:#D69241;}
	.st18{fill:#6CBFAD;}
	.st19{fill:#1C2021;}
	.st20{fill:#F78271;}
	.st21{clip-path:url(#SVGID_16_);}
	.st22{fill:#853C2B;}
	.st23{clip-path:url(#SVGID_18_);}
	.st24{fill:#FECA9A;}
	.st25{clip-path:url(#SVGID_20_);}
	.st26{fill:none;stroke:#1C2021;stroke-width:3.8694;stroke-miterlimit:10;}
	.st27{clip-path:url(#SVGID_22_);}
	.st28{clip-path:url(#SVGID_24_);}
	.st29{clip-path:url(#SVGID_26_);}
	.st30{clip-path:url(#SVGID_28_);}
	.st31{clip-path:url(#SVGID_30_);}
	.st32{clip-path:url(#SVGID_32_);}
	.st33{clip-path:url(#SVGID_34_);}
	.st34{clip-path:url(#SVGID_36_);fill:#FDD56F;}
	.st35{fill:none;stroke:#1C2021;stroke-width:5.7091;stroke-miterlimit:10;}
	.st36{fill:#ED4462;}
	.st37{fill:#00BDFF;}
	.st38{fill:#FFA630;}
	.st39{display:none;}
	.st40{display:inline;fill:#606060;}
</style>
<g id="Layer_1">
	<g>
		<path class="st9" d="M101,178.2c0,0,17.6-24.3,12.6-31.9c-2.2-3.3-25-5.6-32.1-8.6c-7.1-3-5.7-4.4-5.7-4.4l-2.4-3.7
			c0,0-3.7-3.5-4.1-3.2c-0.4,0.4-0.1,3.4-0.7,8.3c-0.6,4.9-1.9,8.1-4.9,9.9c-3,1.8-3.5,2.5-1.6,3.8c1.9,1.3,0.5,1.9,0.9,5.1
			c0.4,3.2,0.9,11.5,0,11.9c-0.9,0.4-0.3-4.9-3.3-9.4c-3-4.4-6.2-6.3-6.2-6.3s1,1,2.3-1c1.3-2,1.6-2.5-2.3-3.4
			c-3.9-0.9-4.2-2.5-7.8-7.5c-3.7-4.9-4.6-5.9-4.6-5.9s-2,0.4-2.7,2c-0.6,1.6-0.3,2.3-3.4,3.4c-3.2,1.1-15,3.8-31.1,11.6
			c-1.7,0.8-5.2,5.2-3.2,5.5c2,0.4,40.8,9.4,55.1,12.6C69.9,170.5,101,178.2,101,178.2z"/>
		<g>
			<path class="st16" d="M47,42.4c0,0-2.4,5.1-11.2,10C27,57.2,24.6,63.3,24.2,67.6C23.7,72,26,76.9,26,76.9s-4.9-2.6-4.8,0.6
				c0.1,3.1,5.2,7.6,8.2,9.3c0,0,10.1,15.7,14.2,18.7c0.1,0.1,0.2,0.2,0.3,0.2c0,0,1.3-0.3,1.6,3.8c0.3,4.1,2.7,15.1,1.4,18.9
				c-1.3,3.8-3.2,6.4-3.2,6.4s1.7,2.3,3.3,5.9c1.6,3.6,3.3,4.4,5.6,4.7c2.3,0.4,4-0.5,3.8,1.1c-0.1,1.6-1.9,4.6-1.9,4.6
				s1.1,1.9,3.7,4.1c2.6,2.2,4.6,8.1,4.6,9.1c0,1,0.9-4.8,0.5-7.4c-0.4-2.6,0.4-5,0.4-5s0.4-1.5-1.8-3.4c-2.2-1.9-0.8-2.4,1-3.4
				c1.8-1,3.1-0.3,3.6-7.5c0.5-7.2,1.6-9,0.4-9.9c-1.2-0.9-2.7-1.8-2.8-6.4c-0.2-4.6,0.1-14.6,0.1-14.6s5.2-2.9,6.8-7.9
				c1.6-4.9,5.6-15.5,5.6-15.5s2.6-2,3.9-3.2c1.3-1.2,4-8.7,0.7-7.7c-3.3,1-2.1-0.8-2.4-2.3c-0.3-1.5-1.5-10.6-3.3-10.6
				S60.9,61.2,54.4,55C47.9,48.8,47,42.4,47,42.4z"/>
			<path class="st22" d="M85.2,70.6c0,0,3.2-7.8-0.8-13.3c-4-5.5-9.1-12.3-14.8-15.9s-6.3-4.2-6.3-4.2s9.1,4.6,14,8.3
				c4.9,3.8,5.9,6.6,5.9,6.6s1.3-9.3-4.9-17.4c-6.3-8.2-11.8-12.1-16.9-15.9c-5.1-3.8,3.2-0.6,6.1,0.8c0,0-4.4-0.2-4.7-1.6
				c-0.1-0.6,1.7,0.7,3.8-4.4c2.1-5.1-3.4-9.1-5.4-5.5c0,0-5.9-5.1-10.3-5.9c-4.4-0.8-14.4,8-14.4,8s7-6.4,2.8-7.8
				C35.2,1,28,9.5,29.5,12c1.5,2.5,7.4,8.7,7.4,8.7S27,23.9,21.7,42.9c0,0-4.2,8.5-2.7,12.7c1.5,4.2,3.8,0.9,3.8,0.9
				s-6.3,6.4-5.5,11.6c0.8,5.1,0.8,11,3.8,15.4c0,0-5.1-12.7-0.6-18.4c4.6-5.7,9.3-9.1,12.5-10.4c3.2-1.3,10.8-9.3,11.9-17.1
				c0,0,5.5,11.2,11,14.8c5.5,3.6,18.2,4.4,20.5,6.6C78.8,61.3,84.8,60.5,85.2,70.6z"/>
			<g>
				<g>
					<path class="st19" d="M64.7,19.1c-0.1,0-0.1,0-0.2,0c-0.3,0-0.5-0.3-0.5-0.6c0-0.3,0.3-0.5,0.6-0.5c1.2,0.1,2.8-1.9,3.4-4.7
						c0.6-2.6,0.4-5.8-1.5-6.5c-3.7-1.4-4.9,0.5-4.9,0.6c-0.1,0.3-0.5,0.4-0.7,0.2c-0.3-0.1-0.4-0.5-0.2-0.7
						c0.1-0.1,1.6-2.9,6.3-1.1c2.5,1,2.9,4.6,2.2,7.8C68.4,16.3,66.8,19.1,64.7,19.1z"/>
					<g>
						<path class="st20" d="M57.1,93.6c-0.4,0.7-1.3-0.6-1.8-0.8c-0.9-0.3-1.7-0.4-3.1,0.6c-1.4,1-2.3,2-2.3,2s1.2,2.2,3.1,3.9
							c1.9,1.6,5.8,1.5,7.5-0.3c1.6-1.8,2.7-4,2.7-4s-0.7-0.8-2-1.8C60,92,58.5,91.5,57.1,93.6z"/>
						<path class="st19" d="M56.5,100.9c-1.5,0-2.9-0.4-3.9-1.3c-1.9-1.7-3.2-3.9-3.3-4c-0.1-0.2-0.1-0.5,0.1-0.6c0,0,1-1,2.4-2.1
							c1.7-1.2,2.7-1,3.7-0.6c0.3,0.1,0.5,0.3,0.8,0.6c0.1,0.1,0.3,0.3,0.4,0.4c0.6-0.9,1.3-1.4,2.1-1.6c1.1-0.2,2.1,0.5,2.7,1
							c1.3,1,2,1.8,2,1.9c0.1,0.2,0.2,0.4,0.1,0.6c0,0.1-1.1,2.3-2.8,4.2C59.9,100.3,58.2,100.9,56.5,100.9z M50.6,95.4
							c0.4,0.7,1.4,2.2,2.8,3.4c1.7,1.5,5.3,1.3,6.7-0.3c1.2-1.3,2.1-2.9,2.5-3.6c-0.3-0.3-0.9-0.9-1.7-1.5
							c-0.7-0.6-1.3-0.8-1.9-0.8c-0.5,0.1-1,0.5-1.5,1.2c-0.2,0.3-0.5,0.4-0.6,0.4c-0.5,0.1-1-0.3-1.4-0.7c-0.1-0.1-0.4-0.3-0.5-0.4
							c-0.6-0.2-1.3-0.4-2.6,0.5C51.6,94.4,50.9,95.1,50.6,95.4z M56.7,93.3L56.7,93.3l0.5,0.3L56.7,93.3z"/>
					</g>
					<path class="st19" d="M41.9,133.6c-0.2,0-0.3-0.1-0.4-0.2c-0.2-0.2-0.2-0.6,0-0.8c1.5-1.3,4.1-4.6,4.4-8.6
						c0.2-4-1.5-17.6-1.5-17.7c0-0.3,0.2-0.6,0.5-0.6c0.3,0,0.6,0.2,0.6,0.5c0.1,0.6,1.7,13.8,1.5,17.9c-0.3,4.3-3.1,7.9-4.7,9.3
						C42.1,133.5,42,133.6,41.9,133.6z"/>
					<path class="st19" d="M68.3,127.7c-0.1,0-0.2,0-0.3-0.1c-2.6-2-2.7-3.9-3.1-8.1c-0.1-0.8-0.1-1.7-0.2-2.6
						c-0.6-6.2,0.3-10.6,0.3-10.8c0.1-0.3,0.4-0.5,0.6-0.4c0.3,0.1,0.5,0.4,0.4,0.6c0,0-0.9,4.5-0.3,10.5c0.1,1,0.2,1.9,0.2,2.7
						c0.3,4.1,0.5,5.6,2.7,7.3c0.2,0.2,0.3,0.5,0.1,0.8C68.7,127.7,68.5,127.7,68.3,127.7z"/>
					<path class="st19" d="M62.6,167.2L62.6,167.2c-0.3,0-0.5-0.3-0.5-0.5c0-0.1,0-5.3-2-8.4c-1-1.6-2.5-3.2-3.7-4.5
						c-1.4-1.6-2.2-2.4-2.4-3.1c-0.2-0.2-0.9-0.7-1.9-1.3c-0.4-0.2-0.8-0.5-1.2-0.8c-0.8-0.6-1.6-1.2-3-1.5l-0.7-0.1
						c-1.9-0.4-3.6-0.7-5.1-3.1c-1.5-2.4-4.8-7.9-4.8-7.9c0-0.1-0.1-0.1-0.1-0.2c-0.1-1,2-3.7,3.3-4.1c0.6-0.2,1.1,0,1.4,0.5
						c0.3,0.5,0.9,1.3,1.6,2.3c1.2,1.6,2.7,3.5,3.7,5.4c1.6,3.1,2.4,4.1,4.7,4.8c0.9,0.3,1.7,0.4,2.4,0.4c1,0,2,0.1,2.6,1.2
						c0.8,1.5-1.2,3.7-1.9,4.3c0.2,0.5,1.2,1.6,2.1,2.5c1.2,1.3,2.8,3,3.8,4.6c1,1.6,1.6,3.6,1.9,5.4c0.2-1.2,0.3-2.7,0.2-4
						c-0.3-3.9-0.2-7,0.2-8.1c0-0.2-0.6-0.9-1-1.4c-0.9-1-2.2-2.4-1.2-3.6c0.6-0.6,1.3-1,2.1-1.4c1.2-0.6,2.4-1.2,3-2.6
						c1.1-2.5,1.9-6.9,2.1-10.1c0.1-1.1-0.1-2.2-0.1-3c-0.1-1.2-0.2-2,0.2-2.5c0.2-0.3,0.6-0.4,1-0.3c1.2,0.1,2.2,1,3,1.8
						c0.4,0.3,0.7,0.7,1,0.8c1.3,0.7,1,2.5,1,2.6c0,0.3-1.2,7.1-3,10.8c-1.6,3.3-4.1,7.7-6.6,8.7c-0.1,0-0.3,0-0.4,0
						c0,0.2,0,0.4,0,0.6c-0.4,1-0.4,4-0.1,7.7c0.3,3.7-0.9,7.7-1,7.9C63.1,167.1,62.9,167.2,62.6,167.2z M69.2,127.1
						c-0.2,0.2-0.1,1-0.1,1.7c0.1,0.9,0.2,2,0.2,3.2c-0.2,3.2-1,7.9-2.2,10.5c-0.8,1.8-2.2,2.5-3.5,3.1c-0.7,0.4-1.4,0.7-1.8,1.2
						c-0.4,0.4,0.3,1.2,1.2,2.1c0.4,0.4,0.7,0.8,1,1.1c0.1-0.1,0.2-0.3,0.3-0.3c1.6-0.6,3.6-3.3,6-8.1c1.8-3.6,2.9-10.4,2.9-10.5
						c0,0,0.2-1.1-0.4-1.5c-0.4-0.2-0.8-0.6-1.2-1C70.8,127.9,70,127.1,69.2,127.1z M38.4,135.5c0.5,0.9,3.3,5.6,4.7,7.7
						c1.2,1.9,2.6,2.2,4.4,2.6l0.7,0.1c1.6,0.3,2.5,1.1,3.4,1.7c0.4,0.3,0.7,0.5,1.1,0.7c0.8,0.5,1.5,1,1.8,1.2
						c0.9-0.9,1.9-2.3,1.5-2.9c-0.3-0.5-0.6-0.5-1.7-0.6c-0.7,0-1.7-0.1-2.7-0.4c-2.7-0.9-3.7-2.3-5.3-5.4c-1-1.8-2.4-3.8-3.6-5.3
						c-0.8-1-1.4-1.9-1.7-2.4c0,0-0.2,0-0.7,0.4C39.4,133.8,38.5,135,38.4,135.5z"/>
					<path class="st19" d="M7.2,148c-0.3,0-0.5-0.2-0.5-0.5c-0.1-0.3,0.1-0.6,0.4-0.6c0,0,4.2-0.8,10.8-3.3
						c5.5-2.1,8.4-3.9,10.4-5.2c0.4-0.3,0.8-0.5,1.2-0.8c2.3-1.4,7.9-2.5,8.1-2.6c0.3-0.1,0.6,0.1,0.6,0.4c0.1,0.3-0.1,0.6-0.4,0.6
						c-0.1,0-5.6,1.1-7.7,2.4c-0.4,0.2-0.8,0.5-1.2,0.8c-2.1,1.3-5,3.2-10.6,5.3C11.6,147.2,7.5,147.9,7.2,148
						C7.3,148,7.2,148,7.2,148z"/>
					<path class="st19" d="M56.6,137.2c-1.4,0-3.2-1.5-3.4-1.7c-0.2-0.2-0.2-0.5,0-0.8c0.2-0.2,0.5-0.2,0.8,0c0.7,0.6,2,1.5,2.8,1.4
						c0.2,0,0.3-0.1,0.3-0.2c0.2-0.2,0.5-0.3,0.8-0.1c0.2,0.2,0.3,0.5,0.1,0.8c-0.3,0.3-0.7,0.5-1.1,0.5
						C56.7,137.2,56.6,137.2,56.6,137.2z"/>
					<path class="st19" d="M88.4,139.5L88.4,139.5c-0.2,0-4.1-0.4-6.7-1.4c-2.1-0.8-6.4-3-6.5-4.6c-0.1-0.7-1.2-1.5-1.7-1.8
						c-0.3-0.2-0.3-0.5-0.2-0.7c0.2-0.3,0.5-0.3,0.7-0.2c0.2,0.1,2.2,1.3,2.3,2.7c0.1,0.7,2.9,2.6,5.8,3.7c2.5,0.9,6.3,1.4,6.4,1.4
						c0.3,0,0.5,0.3,0.5,0.6C89,139.3,88.7,139.5,88.4,139.5z"/>
					<path class="st19" d="M56.6,111c-3.5,0-6.4-1.7-7.8-2.6c-0.2-0.1-0.4-0.3-0.6-0.3c-0.2-0.1-0.6-0.2-1-0.3
						c-2.4-0.7-7.5-2.1-16.4-16.8C20.4,73.6,23.9,52.5,24,52.3c0-0.3,0.3-0.5,0.6-0.4c0.3,0.1,0.5,0.3,0.4,0.6
						c0,0.2-3.5,20.9,6.7,37.8c8.6,14.4,13.4,15.7,15.7,16.3c0.5,0.1,0.9,0.2,1.2,0.4c0.2,0.1,0.4,0.2,0.6,0.4
						c2.4,1.5,8.1,4.8,13.9-0.2c1.5-1.3,2.5-1.8,3.4-2.2c1.3-0.6,2.3-1.1,4.4-4.2c2.2-3.3,7.2-17.3,7.4-24.6
						c0.2-9.2,0.3-20-0.2-22.6c0-0.3,0.2-0.6,0.5-0.6c0.3,0,0.6,0.2,0.6,0.5c0.6,3.4,0.3,18.3,0.2,22.8c-0.2,7.5-5.3,21.8-7.5,25.2
						c-2.3,3.4-3.5,4-4.9,4.6c-0.9,0.4-1.8,0.8-3.1,2C61.3,110.3,58.8,111,56.6,111z"/>
					<path class="st19" d="M25.3,76.3c-0.1,0-0.1,0-0.2,0c-0.1,0-3.3-1.1-3.3-8.2c0-6.7,6.6-11.2,14.2-16.4l1.2-0.8
						c7.6-5.2,8.2-10.5,8.2-10.6c0-0.3,0.3-0.5,0.6-0.5c0.3,0,0.5,0.3,0.5,0.6c0,0.2-0.6,5.8-8.6,11.4l-1.2,0.8
						c-7.4,5.1-13.7,9.4-13.7,15.5c0,6.2,2.5,7.1,2.5,7.1c0.3,0.1,0.4,0.4,0.3,0.7C25.7,76.1,25.5,76.3,25.3,76.3z"/>
					<path class="st19" d="M33.1,89.6L33.1,89.6c-13-0.7-17-11.3-16.5-20.2c0.5-10.3,9-17.4,18-23.5c7.9-5.4,8.1-9.8,8.1-9.8
						c0-0.3,0.2-0.5,0.5-0.5c0.3,0.1,0.5,0.2,0.5,0.5c0,0.2-0.1,5-8.5,10.7c-8.8,6-17,12.9-17.6,22.6c-0.4,8.4,3.3,18.4,15.5,19.1
						c0.3,0,0.5,0.3,0.5,0.6C33.6,89.3,33.4,89.6,33.1,89.6z"/>
					<path class="st19" d="M28.6,86.4L28.6,86.4c-1.7-0.1-7.1-4-8.1-7c-0.5-1.4,0-2.2,0.5-2.7c0.7-0.7,1.5-0.9,2.3-0.8
						c2.1,0.4,3.5,3.3,3.7,3.6c0.1,0.3,0,0.6-0.3,0.7c-0.3,0.1-0.6,0-0.7-0.3c-0.4-0.7-1.6-2.7-2.9-3c-0.5-0.1-0.9,0.1-1.4,0.5
						c-0.2,0.2-0.5,0.6-0.2,1.5c0.9,2.7,5.9,6.2,7.1,6.3c0.3,0,0.5,0.3,0.5,0.6C29.1,86.2,28.9,86.4,28.6,86.4z"/>
					<path class="st19" d="M20.5,59.9C20.5,59.9,20.5,59.9,20.5,59.9c-0.7-0.1-2.5-1.1-1.9-10.3C19.7,34.9,29,25.2,30,24.2
						c3.5-3.5,14-9,21.1-9.4c6.6-0.3,15.1,3.7,19,6.4c3.6,2.5,10,9,11.8,15.8c2.3,9.2,2.6,14.1,1,14.7c-0.3,0.1-0.6-0.1-0.7-0.3
						c-0.1-0.3,0.1-0.6,0.3-0.7c0.4-0.3,0.9-3.3-1.7-13.4c-1.6-6.5-7.8-12.8-11.3-15.2c-3.7-2.5-12-6.5-18.3-6.2
						c-6.8,0.3-17.1,5.7-20.4,9.1c-3.7,3.7-10.3,13.1-11,24.7c-0.6,8.3,0.9,9.2,0.9,9.2c0.3,0,0.5,0.3,0.4,0.6
						C21.1,59.7,20.8,59.9,20.5,59.9z"/>
					<path class="st19" d="M82.8,71.9c-0.1,0-0.2,0-0.3-0.1c-0.2-0.2-0.3-0.5-0.1-0.8c1.9-2.5,2-4.7,0.6-7.1
						c-1.4-2.4-6.6-4.3-14.9-5.3c-4.8-0.6-15.9-2.1-21.4-14.8c-5.4-12.6,2.4-17.9,2.5-18c0.3-0.2,0.6-0.1,0.8,0.2
						c0.2,0.3,0.1,0.6-0.2,0.8c-0.3,0.2-7.1,4.9-2.1,16.6c5.2,12.2,15.5,13.5,20.5,14.2c8.8,1.1,14.1,3.1,15.7,5.9
						c1.7,2.8,1.4,5.5-0.7,8.3C83.2,71.8,83,71.9,82.8,71.9z"/>
					<path class="st19" d="M83.1,63.3c-0.2,0-0.4-0.1-0.5-0.3c-1.4-2.9-4.5-5.7-8.7-7.8c-1-0.5-2-0.9-2.9-1.4c-4-1.8-8.1-3.7-15-8.9
						c-11.2-8.4-7.8-18.1-7.8-18.2c0.1-0.3,0.4-0.4,0.7-0.3c0.3,0.1,0.4,0.4,0.3,0.7c-0.1,0.4-3.1,9.1,7.4,16.9
						c6.9,5.1,10.9,7,14.8,8.8c1,0.4,1.9,0.9,2.9,1.4c4.5,2.2,7.8,5.1,9.2,8.3c0.1,0.3,0,0.6-0.3,0.7C83.3,63.3,83.2,63.3,83.1,63.3
						z"/>
					<path class="st19" d="M83.6,72.2c-0.2,0-0.3-0.1-0.4-0.2c-0.2-0.2-0.1-0.6,0.1-0.8c4.8-3.7,3.7-11.4,2.4-13.9
						c-5.2-10.5-13.8-15.7-20-18.2c-14.1-5.7-12.3-12.9-12.2-13.2c0.1-0.3,0.4-0.5,0.7-0.4c0.3,0.1,0.5,0.4,0.4,0.7
						c0,0.1-1.6,6.5,11.5,11.9c6.4,2.6,15.2,7.9,20.6,18.7c1.4,2.8,2.6,11.1-2.7,15.3C83.8,72.2,83.7,72.2,83.6,72.2z"/>
					<path class="st19" d="M78.1,83.7c-0.1,0-0.3-0.1-0.4-0.2c-0.2-0.2-0.2-0.6,0-0.8c3.1-3,7.4-8.6,5.7-10.4
						c-0.7-0.8-1.3-1.1-1.9-1c-1.1,0.3-1.9,2.2-2.1,2.8c-0.1,0.3-0.4,0.5-0.7,0.4c-0.3-0.1-0.5-0.4-0.4-0.7c0.1-0.3,1-3.1,2.9-3.6
						c1-0.2,2,0.2,3,1.3c3,3.3-4.8,11.1-5.7,12C78.4,83.7,78.2,83.7,78.1,83.7z"/>
					<path class="st19" d="M51.8,88.3c-0.4,0-0.8-0.2-1-0.7c-0.4-0.8-0.1-1.4,0.3-2.3c0.5-0.9,1.2-2.3,1.6-4.8
						c0.6-4.6-1.1-10.2-1.1-10.3c-0.1-0.3,0.1-0.6,0.4-0.7c0.3-0.1,0.6,0.1,0.7,0.4c0.1,0.2,1.8,5.9,1.2,10.8
						c-0.4,2.7-1.2,4.2-1.7,5.2c-0.4,0.8-0.5,1-0.4,1.2c0.1,0.1,0.1,0.2,0.9-0.2c0.5-0.3,1.2-0.6,1.9-0.4c1,0.3,1.3,0.2,2.4-0.1
						c0.8-0.2,1.4,0,2,0.2c0.2,0.1,0.5,0.2,0.7,0.2c0,0,0,0,0-0.1c0-0.3,0.2-0.5,0.5-0.5s0.5,0.2,0.5,0.5c0,0.5-0.1,0.8-0.4,1
						c-0.5,0.3-1.1,0.1-1.7-0.1c-0.4-0.2-0.9-0.3-1.3-0.2c-1.2,0.4-1.8,0.5-3.1,0.2c-0.3-0.1-0.7,0.1-1.2,0.3
						C52.7,88,52.2,88.3,51.8,88.3z"/>
					<path class="st19" d="M55.2,96.7c-0.4,0-0.8,0-1.2,0c-4.5-0.3-6.1-1.4-6.2-1.4c-0.3-0.2-0.3-0.5-0.2-0.8
						c0.2-0.3,0.5-0.3,0.8-0.2c0,0,1.5,0.9,5.7,1.2c4.3,0.3,9.5-1.2,11-1.8c0.3-0.1,0.6,0,0.7,0.3c0.1,0.3,0,0.6-0.3,0.7
						C64,95.3,59.3,96.7,55.2,96.7z"/>
					<g>
						<path class="st9" d="M47.3,70.3c-0.3,0.3,0.3,1.6-5,3c-4.7,1.2-6.5-1.2-6.5-1.2s1.2-2.9,5.5-3.4
							C45.6,68.2,47.3,70.3,47.3,70.3z"/>
						<path class="st19" d="M39.8,74.1c-3.1,0-4.4-1.6-4.4-1.7c-0.1-0.2-0.1-0.4-0.1-0.5c0.1-0.1,1.4-3.2,6-3.7
							c4.5-0.5,6.4,1.7,6.5,1.8c0.2,0.2,0.2,0.5,0,0.7c-0.4,1.1-1.2,2.1-5.3,3.2C41.4,74,40.5,74.1,39.8,74.1z M36.5,72
							c0.6,0.5,2.3,1.6,5.7,0.7c3.9-1,4.4-1.9,4.5-2.3c-0.6-0.5-2.2-1.5-5.3-1.2C38.2,69.6,36.9,71.3,36.5,72z"/>
					</g>
					<path class="st19" d="M49.6,67.5c0,0-2.3-2.8-5.8-2.6c-3.5,0.2-5.4,0-8.6,1.7c-3.2,1.7-3.3,2.5-3.2,1.7c0.1-0.7,3-2.7,5.3-3.7
						c2.3-1,5.4-1.6,8-1C47.8,64.3,49.9,66.6,49.6,67.5z"/>
					<path class="st19" d="M39.7,69c0,0-2.2,3.1,0.2,4c2.4,0.8,4.8-0.4,4.4-2.2c-0.4-1.8-1.5-2.1-2.5-2C40.8,68.8,39.7,69,39.7,69z"
						/>
					<g>
						<path class="st9" d="M60,69.8c0.5,0.9,0.5,2,5.3,2.4c4.8,0.4,6.3-1.8,6.3-1.8s-1.5-2.7-5.8-2.8C61.5,67.6,60,69.8,60,69.8z"/>
						<path class="st19" d="M66.4,72.8c-0.4,0-0.8,0-1.2,0c-4.2-0.3-5-1.2-5.6-2.4c-0.1-0.1-0.1-0.2-0.2-0.3c-0.1-0.2-0.1-0.4,0-0.6
							c0.1-0.1,1.7-2.4,6.2-2.4c0,0,0.1,0,0.1,0c4.6,0,6.3,2.9,6.3,3.1c0.1,0.2,0.1,0.4,0,0.6C72,70.8,70.6,72.8,66.4,72.8z
							 M60.6,69.9L60.6,69.9c0.4,0.7,0.8,1.5,4.7,1.8c3.5,0.3,5-0.8,5.6-1.3c-0.5-0.7-2-2.2-5.2-2.2c0,0-0.1,0-0.1,0
							C62.6,68.1,61.1,69.3,60.6,69.9z"/>
					</g>
					<path class="st19" d="M58,67.1c0,0,2-3,5.5-3.2s5.4-0.6,8.8,0.8c3.4,1.4,3.5,2.1,3.4,1.4c-0.2-0.7-3.2-2.4-5.6-3.1
						c-2.4-0.7-5.5-1-8.1-0.1C59.4,63.7,57.5,66.2,58,67.1z"/>
					<path class="st19" d="M67.4,67.7c0,0,2.5,2.9,0.3,3.9c-2.3,1.1-4.8,0.1-4.6-1.7c0.2-1.8,1.3-2.2,2.2-2.2
						C66.3,67.6,67.4,67.7,67.4,67.7z"/>
					<path class="st19" d="M35.9,20.9c-0.1,0-0.2,0-0.3-0.1c-0.2-0.1-4.3-2.4-6.7-6.4c-2.6-4.2,1.2-9.4,6.2-12.6
						c1.6-1,3.1-1.4,4.6-1.1c1.7,0.4,2.9,1.6,3.4,2.2c2.8-1.8,5.8-3.2,7.9-3c4,0.5,10.2,5,10.7,7.8c0.5,2.7-1.1,7.4-2.1,9
						c-0.2,0.3-0.5,0.3-0.8,0.2c-0.3-0.2-0.3-0.5-0.2-0.8c0.9-1.5,2.3-5.9,1.9-8.2c-0.4-2.1-6.1-6.5-9.7-6.9
						c-3.3-0.4-9.5,4-12.7,7.3c-3.1,3.2-3.9,4.6-3.6,6.6c0.3,2.2,1.8,5.1,1.8,5.1c0.1,0.2,0.1,0.5-0.1,0.6
						C36.2,20.9,36.1,20.9,35.9,20.9z M38.7,1.8c-1,0-1.9,0.3-3,1c-4.4,2.9-8.1,7.6-5.9,11.1c1.4,2.2,3.4,4,4.8,5
						c-0.4-1.1-0.9-2.5-1.1-3.7c-0.4-2.6,0.9-4.4,3.9-7.5c1.2-1.3,2.9-2.7,4.8-4.1c-0.4-0.5-1.4-1.4-2.7-1.7
						C39.2,1.8,39,1.8,38.7,1.8z"/>
					<path class="st19" d="M38.8,19.4c-0.2,0-0.4-0.1-0.5-0.2c-0.2-0.2-0.9-1.6,1.2-4.7c1.8-2.7,6.1-6.8,10.3-6.8c0.1,0,0.1,0,0.2,0
						c2.3,0.1,4.9,1.6,6.4,3.8c1,1.5,1.3,3.1,0.8,4.5c-0.1,0.3-0.4,0.4-0.7,0.3c-0.3-0.1-0.4-0.4-0.3-0.7c0.4-1,0.1-2.3-0.7-3.5
						C54.2,10.1,52,8.8,50,8.7c-3.6-0.1-7.7,3.6-9.5,6.3c-1.7,2.5-1.2,3.5-1.2,3.5c0.2,0.2,0.1,0.6-0.1,0.7
						C39.1,19.3,39,19.4,38.8,19.4z"/>
				</g>
				<path class="st9" d="M44.6,71.5c0,0.5-0.5,0.9-1.1,0.9c-0.6,0-1.1-0.4-1.1-0.9c0-0.5,0.5-0.9,1.1-0.9
					C44.2,70.5,44.6,71,44.6,71.5z"/>
				<path class="st9" d="M68.8,70.9c0,0.5-0.5,0.9-1.1,0.9c-0.6,0-1.1-0.4-1.1-0.9c0-0.5,0.5-0.9,1.1-0.9
					C68.3,70,68.8,70.4,68.8,70.9z"/>
			</g>
		</g>
	</g>
</g>
<g id="Layer_2" class="st39">
</g>
</svg>
