<?xml version="1.0" encoding="utf-8"?>
<!-- Generator: Adobe Illustrator 24.3.0, SVG Export Plug-In . SVG Version: 6.00 Build 0)  -->
<svg version="1.1" id="Layer_1" xmlns="http://www.w3.org/2000/svg" xmlns:xlink="http://www.w3.org/1999/xlink" x="0px" y="0px"
	 viewBox="0 0 240.2 86.5" style="enable-background:new 0 0 240.2 86.5;" xml:space="preserve">
<style type="text/css">
	.st0{fill:#00BDFF;}
	.st1{fill:#FFFFFF;}
	.st2{fill:#8B34F3;}
	.st3{fill:#EC4796;}
	.st4{fill:#FFA630;}
	.st5{fill:#ED4462;}
</style>
<g>
	<g>
		<g>
			<path class="st3" d="M145.4,0h20.8l3.9,36.6h-13.1V24.9h-2.5v11.8h-12.9L145.4,0z M152.5,15.4l0.8,1.9l5.8-2.5l-0.8-1.9
				L152.5,15.4z"/>
			<path class="st3" d="M170.6,0h11.8l4.7,14.8l0.8-0.2l-0.6-3c-0.5-2.4-1.1-5.1-1.1-7.6V0h13.1v36.6h-11.8l-4.7-14.8l-0.8,0.2
				l0.6,3c0.5,2.4,1.1,5.2,1.1,7.7v4h-13.1V0z"/>
			<path class="st3" d="M225.7,11.6h-6.1v25h-13.1v-25h-6V0h25.2V11.6z"/>
			<path class="st3" d="M227.1,0h13.1v36.6h-13.1V0z"/>
		</g>
		<g>
			<path d="M145.5,85.7c-0.4-2.1-0.7-4.9-0.7-7.5V67c0-1.1-0.4-1.9-1.3-1.9h-1.3v20.7h-5.7V37.6h7.3c2.8,0,6.4,1.4,6.4,7.6v12.3
				c0,2.3-1.1,3.7-2.6,5c1.5,1.3,2.7,2.7,2.7,5v10.2c0,3.1,0.4,5.7,0.8,8.1H145.5z M144.7,45.3c0-1.4-0.4-1.9-1-1.9h-1.4v16.2h1.4
				c0.7,0,1-0.5,1-1.9V45.3z"/>
			<path d="M159.5,86.3c-3.9,0-6.8-3.4-6.8-8.2V37.6h5.4v40.9c0,1.1,0.5,1.7,1.4,1.7c1,0,1.5-0.7,1.5-1.7V37.6h5.1v40.5
				C166.1,83,163.4,86.3,159.5,86.3z"/>
			<path d="M94.5,86.3c-3.9,0-6.9-3.4-6.9-8.2V45.3c0-4.9,3-8.2,6.9-8.2c3.9,0,6.9,3.4,6.9,8.2v11.4l-5.5-1.6V44.9
				c0-1.1-0.5-1.7-1.4-1.7s-1.4,0.7-1.4,1.7v33.7c0,1.1,0.5,1.7,1.4,1.7s1.4-0.7,1.4-1.7V68.3h5.5v9.9C101.4,83,98.4,86.3,94.5,86.3
				z"/>
			<path d="M110.8,86.3c-3.9,0-7.2-3.4-7.2-8.2V45.3c0-4.9,3.2-8.2,7.2-8.2c3.9,0,7.2,3.4,7.2,8.2v32.8
				C118,83,114.7,86.3,110.8,86.3z M112.2,44.9c0-1.1-0.5-1.7-1.4-1.7c-1,0-1.5,0.7-1.5,1.7v33.7c0,1.1,0.5,1.7,1.5,1.7
				c0.9,0,1.4-0.7,1.4-1.7V44.9z"/>
			<path d="M129.3,85.7c-0.4-2.1-0.7-4.9-0.7-7.5V67c0-1.1-0.4-1.9-1.3-1.9H126v20.7h-5.7V37.6h7.3c2.8,0,6.4,1.4,6.4,7.6v12.3
				c0,2.3-1.1,3.7-2.6,5c1.5,1.3,2.7,2.7,2.7,5v10.2c0,3.1,0.4,5.7,0.8,8.1H129.3z M128.5,45.3c0-1.4-0.4-1.9-1-1.9H126v16.2h1.4
				c0.7,0,1-0.5,1-1.9V45.3z"/>
			<path d="M175.8,65.7h-1.6v20.1h-5.7V37.6h7.3c2.8,0,6.4,1.4,6.4,7.6v12.9C182.2,64.2,178.7,65.7,175.8,65.7z M176.7,45.3
				c0-1.4-0.4-1.9-1-1.9h-1.4v16.5h1.4c0.7,0,1-0.5,1-1.9V45.3z"/>
			<path d="M190.6,86.5c-3.9,0-6.9-3.4-6.9-8.2V45.4c0-4.9,3-8.2,6.9-8.2s6.9,3.4,6.9,8.2v11.4l-5.5-1.6V45c0-1.1-0.5-1.7-1.4-1.7
				s-1.4,0.7-1.4,1.7v33.7c0,1.1,0.5,1.7,1.4,1.7s1.4-0.7,1.4-1.7V68.4h5.5v9.9C197.5,83.1,194.5,86.5,190.6,86.5z"/>
			<path d="M200.1,85.9V37.8h5.7v48.1H200.1z"/>
			<path d="M215.5,37.2c-3.9,0-7.2,3.4-7.2,8.2v32.8c0,4.9,3.2,8.2,7.2,8.2c3.9,0,7.2-3.4,7.2-8.2V45.4
				C222.6,40.5,219.4,37.2,215.5,37.2z M216.9,78.7c0,1.1-0.5,1.7-1.4,1.7c-1,0-1.5-0.7-1.5-1.7V45c0-1.1,0.5-1.7,1.5-1.7
				c0.9,0,1.4,0.7,1.4,1.7V78.7z"/>
			<polygon points="219.7,32.7 211.5,36.6 211.5,34.4 219.7,30.5 			"/>
			<path d="M235.5,85.9l-5.8-26.3v26.3H225V37.8h5.7l4.8,26.7V37.8h4.6v48.1H235.5z"/>
		</g>
		<polygon class="st3" points="240.2,85.9 235.5,85.9 87.6,43.5 87.6,37 240.2,80.7 		"/>
	</g>
	<polygon class="st3" points="139.9,26.2 0,26.2 2,9.8 141.6,9.8 	"/>
	<g>
		<path class="st1" d="M9.1,21.3c0.3,0,0.5,0,0.8-0.1c0.2-0.1,0.4-0.2,0.6-0.4s0.3-0.3,0.4-0.6c0.1-0.2,0.2-0.5,0.3-0.7l0-0.1H12
			l0,0.1c-0.1,0.4-0.2,0.8-0.4,1.1c-0.2,0.3-0.3,0.6-0.6,0.8s-0.5,0.4-0.8,0.5c-0.3,0.1-0.7,0.2-1.1,0.2c-0.3,0-0.6,0-0.9-0.1
			s-0.5-0.2-0.6-0.4c-0.2-0.2-0.3-0.4-0.4-0.6C7.1,20.7,7,20.5,7,20.2c0-0.1,0-0.3,0-0.4c0-0.2,0-0.3,0.1-0.5l0.3-1.6
			c0.2-1,0.6-1.7,1-2.2c0.5-0.5,1.2-0.7,2-0.7c0.3,0,0.6,0,0.9,0.1c0.2,0.1,0.5,0.2,0.6,0.4c0.2,0.2,0.3,0.4,0.4,0.6
			c0.1,0.2,0.1,0.5,0.1,0.7c0,0.2,0,0.4-0.1,0.7l0,0.1h-0.8l0-0.1c0-0.1,0.1-0.2,0.1-0.3s0-0.2,0-0.3c0-0.4-0.1-0.6-0.3-0.8
			c-0.2-0.2-0.5-0.3-1-0.3c-0.3,0-0.5,0.1-0.7,0.2C9.4,15.8,9.2,16,9,16.2c-0.2,0.2-0.3,0.4-0.4,0.7c-0.1,0.3-0.2,0.6-0.3,0.9
			L8,19.2c0,0.2-0.1,0.3-0.1,0.4c0,0.1,0,0.3,0,0.4c0,0.4,0.1,0.8,0.3,1S8.7,21.3,9.1,21.3z"/>
		<path class="st1" d="M14.6,17.7c0.2-0.9,0.5-1.7,1-2.1c0.5-0.5,1.2-0.7,2-0.7c0.7,0,1.1,0.2,1.5,0.6c0.3,0.4,0.5,0.9,0.5,1.5
			c0,0.1,0,0.3,0,0.4c0,0.2,0,0.3-0.1,0.5l-0.3,1.5c-0.2,0.9-0.5,1.7-1,2.1c-0.5,0.5-1.2,0.7-2,0.7c-0.7,0-1.1-0.2-1.5-0.6
			c-0.3-0.4-0.5-0.9-0.5-1.5c0-0.1,0-0.3,0-0.4c0-0.2,0-0.3,0.1-0.5L14.6,17.7z M16.3,21.4c0.3,0,0.5-0.1,0.7-0.2s0.4-0.3,0.6-0.4
			c0.2-0.2,0.3-0.4,0.4-0.7s0.2-0.6,0.3-0.9l0.3-1.5c0.1-0.3,0.1-0.5,0.1-0.7c0-0.4-0.1-0.8-0.3-1s-0.5-0.4-1-0.4
			c-0.6,0-1,0.2-1.3,0.6c-0.3,0.4-0.6,0.9-0.7,1.6l-0.3,1.5C15,19.5,15,19.8,15,20c0,0.4,0.1,0.8,0.3,1
			C15.5,21.2,15.9,21.4,16.3,21.4z"/>
		<path class="st1" d="M22.3,15h1.6l-0.6,6.7h0.1l2.2-6.7h1.6l-1.5,7H25l1.4-6.7h-0.1L24.1,22h-1.5l0.6-6.7H23L21.6,22h-0.8L22.3,15
			z"/>
		<path class="st1" d="M29.6,15h4.3v0.8h-1.8L31,21.2h1.8V22h-4.3v-0.8h1.8l1.2-5.5h-1.8V15z"/>
		<path class="st1" d="M36.3,15h5.1v0.8h-2L38,22h-0.8l1.3-6.3h-2.2V15z"/>
		<path class="st1" d="M44.2,15h4v0.8h-3.3l-0.5,2.3h3.1v0.8h-3.2l-0.5,2.4h3.2V22h-4.2L44.2,15z M47.7,13L47.7,13l-1,1.2h-0.8
			l0.9-1.2H47.7z"/>
		<path class="st1" d="M59.2,21.3c0.3,0,0.5,0,0.8-0.1c0.2-0.1,0.4-0.2,0.6-0.4s0.3-0.3,0.4-0.6c0.1-0.2,0.2-0.5,0.3-0.7l0-0.1h0.8
			l0,0.1c-0.1,0.4-0.2,0.8-0.4,1.1c-0.2,0.3-0.3,0.6-0.6,0.8s-0.5,0.4-0.8,0.5c-0.3,0.1-0.7,0.2-1.1,0.2c-0.3,0-0.6,0-0.9-0.1
			s-0.5-0.2-0.6-0.4c-0.2-0.2-0.3-0.4-0.4-0.6c-0.1-0.2-0.1-0.5-0.1-0.8c0-0.1,0-0.3,0-0.4c0-0.2,0-0.3,0.1-0.5l0.3-1.6
			c0.2-1,0.6-1.7,1-2.2c0.5-0.5,1.2-0.7,2-0.7c0.3,0,0.6,0,0.9,0.1c0.2,0.1,0.5,0.2,0.6,0.4c0.2,0.2,0.3,0.4,0.4,0.6
			c0.1,0.2,0.1,0.5,0.1,0.7c0,0.2,0,0.4-0.1,0.7l0,0.1h-0.8l0-0.1c0-0.1,0.1-0.2,0.1-0.3s0-0.2,0-0.3c0-0.4-0.1-0.6-0.3-0.8
			c-0.2-0.2-0.5-0.3-1-0.3c-0.3,0-0.5,0.1-0.7,0.2c-0.2,0.1-0.4,0.3-0.6,0.4c-0.2,0.2-0.3,0.4-0.4,0.7c-0.1,0.3-0.2,0.6-0.3,0.9
			l-0.3,1.4c0,0.2-0.1,0.3-0.1,0.4c0,0.1,0,0.3,0,0.4c0,0.4,0.1,0.8,0.3,1S58.8,21.3,59.2,21.3z"/>
		<path class="st1" d="M64.7,17.7c0.2-0.9,0.5-1.7,1-2.1c0.5-0.5,1.2-0.7,2-0.7c0.7,0,1.1,0.2,1.5,0.6c0.3,0.4,0.5,0.9,0.5,1.5
			c0,0.1,0,0.3,0,0.4c0,0.2,0,0.3-0.1,0.5l-0.3,1.5c-0.2,0.9-0.5,1.7-1,2.1c-0.5,0.5-1.2,0.7-2,0.7c-0.7,0-1.1-0.2-1.5-0.6
			c-0.3-0.4-0.5-0.9-0.5-1.5c0-0.1,0-0.3,0-0.4c0-0.2,0-0.3,0.1-0.5L64.7,17.7z M66.4,21.4c0.3,0,0.5-0.1,0.7-0.2s0.4-0.3,0.6-0.4
			c0.2-0.2,0.3-0.4,0.4-0.7s0.2-0.6,0.3-0.9l0.3-1.5c0.1-0.3,0.1-0.5,0.1-0.7c0-0.4-0.1-0.8-0.3-1s-0.5-0.4-1-0.4
			c-0.6,0-1,0.2-1.3,0.6c-0.3,0.4-0.6,0.9-0.7,1.6l-0.3,1.5c-0.1,0.3-0.1,0.5-0.1,0.7c0,0.4,0.1,0.8,0.3,1
			C65.6,21.2,66,21.4,66.4,21.4z"/>
		<path class="st1" d="M71.8,17.7c0.2-0.9,0.5-1.7,1-2.1c0.5-0.5,1.2-0.7,2-0.7c0.7,0,1.1,0.2,1.5,0.6s0.5,0.9,0.5,1.5
			c0,0.1,0,0.3,0,0.4c0,0.2,0,0.3-0.1,0.5l-0.3,1.5c-0.2,0.9-0.5,1.7-1,2.1c-0.5,0.5-1.2,0.7-2,0.7c-0.7,0-1.1-0.2-1.5-0.6
			c-0.3-0.4-0.5-0.9-0.5-1.5c0-0.1,0-0.3,0-0.4c0-0.2,0-0.3,0.1-0.5L71.8,17.7z M73.5,21.4c0.3,0,0.5-0.1,0.7-0.2
			c0.2-0.1,0.4-0.3,0.6-0.4c0.2-0.2,0.3-0.4,0.4-0.7s0.2-0.6,0.3-0.9l0.3-1.5C76,17.4,76,17.2,76,17c0-0.4-0.1-0.8-0.3-1
			s-0.5-0.4-1-0.4c-0.6,0-1,0.2-1.3,0.6s-0.6,0.9-0.7,1.6l-0.3,1.5c-0.1,0.3-0.1,0.5-0.1,0.7c0,0.4,0.1,0.8,0.3,1
			C72.8,21.2,73.1,21.4,73.5,21.4z"/>
		<path class="st1" d="M82.7,22h-0.8l0.5-2.4c0-0.1,0-0.1,0-0.2c0-0.1,0-0.2-0.1-0.3c-0.1-0.1-0.2-0.1-0.3-0.1h-2.2L79.1,22h-0.8
			l1.5-7h2.4c0.6,0,1.1,0.2,1.4,0.5c0.3,0.3,0.5,0.7,0.5,1.3c0,0.4-0.1,0.8-0.4,1.1s-0.6,0.6-1,0.7v0.1c0.2,0,0.3,0.1,0.4,0.2
			s0.1,0.2,0.1,0.4c0,0.1,0,0.1,0,0.2L82.7,22z M79.9,18.3h1.5c0.2,0,0.5,0,0.7-0.1s0.4-0.2,0.6-0.3s0.3-0.3,0.4-0.5
			c0.1-0.2,0.1-0.4,0.1-0.6c0-0.3-0.1-0.6-0.3-0.8s-0.5-0.3-0.9-0.3h-1.5L79.9,18.3z"/>
		<path class="st1" d="M86.5,15H89c0.7,0,1.2,0.2,1.6,0.5s0.5,0.8,0.5,1.4c0,0.1,0,0.3,0,0.4c0,0.1,0,0.3-0.1,0.4l-0.4,1.7
			c-0.1,0.5-0.2,0.9-0.4,1.2c-0.1,0.3-0.3,0.6-0.6,0.8c-0.2,0.2-0.5,0.4-0.8,0.5c-0.3,0.1-0.7,0.1-1.2,0.1h-2.3v-0.8H86l1.2-5.5
			h-0.7V15z M87.6,21.2c0.3,0,0.6,0,0.8-0.1s0.4-0.2,0.6-0.3s0.3-0.3,0.4-0.6c0.1-0.2,0.2-0.5,0.3-0.9l0.4-1.7
			c0-0.2,0.1-0.3,0.1-0.4c0-0.1,0-0.2,0-0.3c0-0.4-0.1-0.7-0.4-0.9c-0.2-0.2-0.6-0.2-1.1-0.2H88l-1.2,5.5H87.6z"/>
		<path class="st1" d="M94,15h4.3v0.8h-1.7l-1.2,5.5h1.7V22h-4.3v-0.8h1.7l1.2-5.5H94V15z"/>
		<path class="st1" d="M103.3,21.6h0.1l1.4-6.7h0.8l-1.5,7h-1.7l-0.4-6.7H102l-1.4,6.7h-0.8l1.5-7h1.7L103.3,21.6z"/>
		<path class="st1" d="M111.1,20.2h-2.8l-0.9,1.7h-1l3.5-7h1.6l0.5,7h-0.9L111.1,20.2z M108.6,19.5h2.4l-0.3-4.1h-0.1L108.6,19.5z"
			/>
		<path class="st1" d="M115.2,15h2.4c0.7,0,1.2,0.2,1.6,0.5s0.5,0.8,0.5,1.4c0,0.1,0,0.3,0,0.4c0,0.1,0,0.3-0.1,0.4l-0.4,1.7
			c-0.1,0.5-0.2,0.9-0.4,1.2c-0.1,0.3-0.3,0.6-0.6,0.8c-0.2,0.2-0.5,0.4-0.8,0.5c-0.3,0.1-0.7,0.1-1.2,0.1H114v-0.8h0.7l1.2-5.5
			h-0.7V15z M116.3,21.2c0.3,0,0.6,0,0.8-0.1s0.4-0.2,0.6-0.3s0.3-0.3,0.4-0.6c0.1-0.2,0.2-0.5,0.3-0.9l0.4-1.7
			c0-0.2,0.1-0.3,0.1-0.4c0-0.1,0-0.2,0-0.3c0-0.4-0.1-0.7-0.4-0.9c-0.2-0.2-0.6-0.2-1.1-0.2h-0.8l-1.2,5.5H116.3z"/>
		<path class="st1" d="M121.9,17.7c0.2-0.9,0.5-1.7,1-2.1c0.5-0.5,1.2-0.7,2-0.7c0.7,0,1.1,0.2,1.5,0.6s0.5,0.9,0.5,1.5
			c0,0.1,0,0.3,0,0.4c0,0.2,0,0.3-0.1,0.5l-0.3,1.5c-0.2,0.9-0.5,1.7-1,2.1c-0.5,0.5-1.2,0.7-2,0.7c-0.7,0-1.1-0.2-1.5-0.6
			c-0.3-0.4-0.5-0.9-0.5-1.5c0-0.1,0-0.3,0-0.4c0-0.2,0-0.3,0.1-0.5L121.9,17.7z M123.6,21.4c0.3,0,0.5-0.1,0.7-0.2
			c0.2-0.1,0.4-0.3,0.6-0.4c0.2-0.2,0.3-0.4,0.4-0.7s0.2-0.6,0.3-0.9l0.3-1.5c0.1-0.3,0.1-0.5,0.1-0.7c0-0.4-0.1-0.8-0.3-1
			s-0.5-0.4-1-0.4c-0.6,0-1,0.2-1.3,0.6s-0.6,0.9-0.7,1.6l-0.3,1.5c-0.1,0.3-0.1,0.5-0.1,0.7c0,0.4,0.1,0.8,0.3,1
			C122.9,21.2,123.2,21.4,123.6,21.4z"/>
		<path class="st1" d="M132.8,22H132l0.5-2.4c0-0.1,0-0.1,0-0.2c0-0.1,0-0.2-0.1-0.3c-0.1-0.1-0.2-0.1-0.3-0.1h-2.2l-0.6,2.9h-0.8
			l1.5-7h2.4c0.6,0,1.1,0.2,1.4,0.5c0.3,0.3,0.5,0.7,0.5,1.3c0,0.4-0.1,0.8-0.4,1.1s-0.6,0.6-1,0.7v0.1c0.2,0,0.3,0.1,0.4,0.2
			s0.1,0.2,0.1,0.4c0,0.1,0,0.1,0,0.2L132.8,22z M130,18.3h1.5c0.2,0,0.5,0,0.7-0.1s0.4-0.2,0.6-0.3s0.3-0.3,0.4-0.5
			c0.1-0.2,0.1-0.4,0.1-0.6c0-0.3-0.1-0.6-0.3-0.8s-0.5-0.3-0.9-0.3h-1.5L130,18.3z"/>
	</g>
</g>
</svg>
