<?xml version="1.0" encoding="utf-8"?>
<!-- Generator: Adobe Illustrator 24.3.0, SVG Export Plug-In . SVG Version: 6.00 Build 0)  -->
<svg version="1.1" id="Layer_1" xmlns="http://www.w3.org/2000/svg" xmlns:xlink="http://www.w3.org/1999/xlink" x="0px" y="0px"
	 viewBox="0 0 236.2 85.1" style="enable-background:new 0 0 236.2 85.1;" xml:space="preserve">
<style type="text/css">
	.st0{fill:#FFA630;}
	.st1{enable-background:new    ;}
	.st2{fill:#FFFFFF;}
	.st3{display:none;}
</style>
<g id="Layer_1_1_">
	<g>
		<g>
			<g>
				<path class="st0" d="M143,0h20.5l3.8,36h-12.9V24.5h-2.5V36h-12.7L143,0z M150,15.1l0.8,1.8l5.8-2.4l-0.8-1.8L150,15.1z"/>
				<path class="st0" d="M167.8,0h11.6l4.6,14.5l0.8-0.2l-0.6-2.9c-0.5-2.4-1.1-5.1-1.1-7.5V0H196v36h-11.6l-4.6-14.5l-0.8,0.2
					l0.6,2.9c0.5,2.4,1.1,5.1,1.1,7.5V36h-12.9V0z"/>
				<path class="st0" d="M222,11.4h-6V36h-12.9V11.4h-5.9V0H222V11.4z"/>
				<path class="st0" d="M223.4,0h12.9v36h-12.9V0z"/>
			</g>
			<g>
				<path d="M143.2,84.3c-0.4-2.1-0.7-4.8-0.7-7.3V65.9c0-1.1-0.4-1.9-1.2-1.9H140v20.3h-5.6V37h7.2c2.8,0,6.3,1.4,6.3,7.5v12.1
					c0,2.2-1.1,3.7-2.5,4.9c1.5,1.2,2.7,2.7,2.7,4.9v10.1c0,3,0.4,5.6,0.8,7.9L143.2,84.3L143.2,84.3z M142.3,44.6
					c0-1.4-0.4-1.9-1-1.9h-1.4v15.9h1.4c0.7,0,1-0.5,1-1.9V44.6z"/>
				<path d="M156.9,84.9c-3.8,0-6.7-3.3-6.7-8.1V37h5.3v40.2c0,1.1,0.5,1.7,1.4,1.7s1.5-0.7,1.5-1.7V37h5v39.8
					C163.4,81.6,160.7,84.9,156.9,84.9z"/>
				<path d="M93,84.9c-3.8,0-6.8-3.3-6.8-8.1V44.5c0-4.8,3-8.1,6.8-8.1s6.8,3.3,6.8,8.1v11.2l-5.4-1.5V44.1c0-1.1-0.5-1.7-1.4-1.7
					s-1.4,0.6-1.4,1.7v33.1c0,1.1,0.5,1.7,1.4,1.7s1.4-0.7,1.4-1.7V67.1h5.4v9.7C99.8,81.6,96.8,84.9,93,84.9z"/>
				<path d="M109,84.9c-3.8,0-7-3.3-7-8.1V44.5c0-4.8,3.2-8.1,7-8.1s7,3.3,7,8.1v32.3C116,81.6,112.8,84.9,109,84.9z M110.4,44.1
					c0-1.1-0.5-1.7-1.4-1.7s-1.5,0.6-1.5,1.7v33.1c0,1.1,0.5,1.7,1.5,1.7c0.9,0,1.4-0.7,1.4-1.7V44.1z"/>
				<path d="M127.2,84.3c-0.4-2.1-0.7-4.8-0.7-7.3V65.9c0-1.1-0.4-1.9-1.2-1.9H124v20.3h-5.6V37h7.2c2.8,0,6.3,1.4,6.3,7.5v12.1
					c0,2.2-1.1,3.7-2.5,4.9c1.5,1.2,2.7,2.7,2.7,4.9v10.1c0,3,0.4,5.6,0.8,7.9L127.2,84.3L127.2,84.3z M126.4,44.6
					c0-1.4-0.4-1.9-1-1.9H124v15.9h1.4c0.7,0,1-0.5,1-1.9V44.6z"/>
				<path d="M173,64.6h-1.6v19.8h-5.6V37h7.2c2.8,0,6.3,1.4,6.3,7.5v12.7C179.2,63.2,175.7,64.6,173,64.6z M173.8,44.6
					c0-1.4-0.4-1.9-1-1.9h-1.4v16.2h1.4c0.7,0,1-0.5,1-1.9V44.6z"/>
				<path d="M187.4,85.1c-3.8,0-6.8-3.3-6.8-8.1V44.7c0-4.8,3-8.1,6.8-8.1s6.8,3.3,6.8,8.1v11.2l-5.4-1.5V44.2
					c0-1.1-0.5-1.7-1.4-1.7s-1.4,0.6-1.4,1.7v33.1c0,1.1,0.5,1.7,1.4,1.7s1.4-0.7,1.4-1.7V67.2h5.4v9.7
					C194.2,81.7,191.3,85.1,187.4,85.1z"/>
				<path d="M196.8,84.5V37.1h5.6v47.3h-5.6V84.5z"/>
				<path d="M211.9,36.6c-3.8,0-7,3.3-7,8.1V77c0,4.8,3.2,8.1,7,8.1s7-3.3,7-8.1V44.7C219,39.9,215.8,36.6,211.9,36.6z M213.3,77.4
					c0,1.1-0.5,1.7-1.4,1.7s-1.5-0.7-1.5-1.7V44.2c0-1.1,0.5-1.7,1.5-1.7c0.9,0,1.4,0.6,1.4,1.7V77.4z"/>
				<polygon points="216.1,32.2 208,36 208,33.9 216.1,30 				"/>
				<path d="M231.6,84.5l-5.7-25.8v25.8h-4.6V37.1h5.6l4.7,26.3V37.1h4.6v47.3h-4.6V84.5z"/>
			</g>
			<polygon class="st0" points="236.2,84.5 231.6,84.5 86.2,42.8 86.2,36.4 236.2,79.4 			"/>
		</g>
		<polygon class="st0" points="137.6,25.8 0,25.8 2,9.6 139.3,9.6 		"/>
		<g class="st1">
			<path class="st2" d="M9,21c0.3,0,0.5,0,0.7-0.1c0.2-0.1,0.4-0.2,0.5-0.4c0.2-0.2,0.3-0.3,0.4-0.5c0.1-0.2,0.2-0.5,0.3-0.7l0-0.1
				h0.8l0,0.1c-0.1,0.4-0.2,0.8-0.4,1.1c-0.1,0.3-0.3,0.6-0.6,0.8c-0.2,0.2-0.5,0.4-0.8,0.5c-0.3,0.1-0.7,0.2-1.1,0.2
				c-0.3,0-0.6,0-0.9-0.1c-0.2-0.1-0.5-0.2-0.6-0.4S7.1,20.9,7,20.6c-0.1-0.2-0.1-0.5-0.1-0.8c0-0.1,0-0.3,0-0.4
				c0-0.2,0-0.3,0.1-0.5l0.3-1.5c0.2-0.9,0.5-1.6,1-2.1s1.1-0.7,1.9-0.7c0.3,0,0.6,0,0.8,0.1c0.2,0.1,0.5,0.2,0.6,0.4
				c0.2,0.2,0.3,0.4,0.4,0.6c0.1,0.2,0.1,0.5,0.1,0.7c0,0.2,0,0.4-0.1,0.7l0,0.1h-0.8l0-0.1c0-0.1,0.1-0.2,0.1-0.3
				c0-0.1,0-0.2,0-0.3c0-0.3-0.1-0.6-0.3-0.8c-0.2-0.2-0.5-0.3-1-0.3c-0.3,0-0.5,0.1-0.7,0.2c-0.2,0.1-0.4,0.3-0.6,0.4
				c-0.2,0.2-0.3,0.4-0.4,0.7c-0.1,0.3-0.2,0.5-0.3,0.9l-0.3,1.4c0,0.2-0.1,0.3-0.1,0.4s0,0.3,0,0.4c0,0.4,0.1,0.8,0.3,1
				S8.6,21,9,21z"/>
			<path class="st2" d="M13.3,17.4c0.2-0.9,0.5-1.6,1-2.1c0.5-0.5,1.1-0.7,2-0.7c0.6,0,1.1,0.2,1.5,0.5c0.3,0.4,0.5,0.9,0.5,1.5
				c0,0.1,0,0.3,0,0.4c0,0.1,0,0.3-0.1,0.4l-0.3,1.4c-0.2,0.9-0.5,1.6-1,2.1c-0.5,0.5-1.1,0.7-2,0.7c-0.6,0-1.1-0.2-1.5-0.5
				c-0.3-0.4-0.5-0.9-0.5-1.5c0-0.1,0-0.3,0-0.4c0-0.1,0-0.3,0.1-0.4L13.3,17.4z M15,21c0.3,0,0.5-0.1,0.7-0.2
				c0.2-0.1,0.4-0.2,0.6-0.4s0.3-0.4,0.4-0.7c0.1-0.3,0.2-0.6,0.3-0.9l0.3-1.5c0.1-0.3,0.1-0.5,0.1-0.7c0-0.4-0.1-0.8-0.3-1
				c-0.2-0.2-0.5-0.4-0.9-0.4c-0.5,0-1,0.2-1.3,0.6c-0.3,0.4-0.6,0.9-0.7,1.6l-0.3,1.5c-0.1,0.3-0.1,0.5-0.1,0.7
				c0,0.4,0.1,0.8,0.3,1S14.6,21,15,21z"/>
			<path class="st2" d="M19.9,14.7h1.6l-0.6,6.6h0.1l2.2-6.6h1.6l-1.5,6.9h-0.8l1.4-6.6h-0.1l-2.2,6.6h-1.5l0.6-6.6h-0.1l-1.4,6.6
				h-0.8L19.9,14.7z"/>
			<path class="st2" d="M26.1,14.7h4.3v0.8h-1.7l-1.1,5.4h1.7v0.8H25v-0.8h1.7l1.1-5.4h-1.7V14.7z"/>
			<path class="st2" d="M35.7,16.8c0-0.1,0-0.2,0-0.3c0-0.2,0-0.4-0.1-0.5c-0.1-0.1-0.2-0.3-0.3-0.4c-0.1-0.1-0.3-0.2-0.4-0.2
				s-0.3-0.1-0.5-0.1c-0.2,0-0.4,0-0.6,0.1s-0.4,0.1-0.6,0.2s-0.3,0.2-0.4,0.4s-0.2,0.3-0.2,0.5c0,0.2,0,0.4,0.1,0.5
				c0.1,0.1,0.2,0.2,0.3,0.3s0.3,0.2,0.5,0.2c0.2,0.1,0.4,0.1,0.7,0.2c0.6,0.1,1.1,0.3,1.3,0.6c0.3,0.3,0.4,0.7,0.4,1.2
				c0,0.4-0.1,0.7-0.2,1c-0.1,0.3-0.3,0.5-0.6,0.7c-0.3,0.2-0.5,0.3-0.9,0.4c-0.3,0.1-0.7,0.1-1.1,0.1c-0.4,0-0.7,0-1-0.1
				s-0.5-0.2-0.7-0.4c-0.2-0.2-0.3-0.4-0.4-0.6c-0.1-0.2-0.1-0.5-0.1-0.8c0-0.2,0-0.4,0.1-0.6l0.1-0.3h0.8l0,0.2
				c0,0.2-0.1,0.4-0.1,0.5c0,0.4,0.1,0.8,0.4,1c0.3,0.2,0.6,0.3,1.1,0.3c0.2,0,0.5,0,0.7-0.1c0.2-0.1,0.4-0.2,0.6-0.3
				c0.2-0.1,0.3-0.3,0.4-0.4c0.1-0.2,0.2-0.4,0.2-0.6c0-0.2,0-0.3-0.1-0.5c-0.1-0.1-0.1-0.2-0.3-0.3c-0.1-0.1-0.3-0.2-0.5-0.2
				c-0.2-0.1-0.4-0.1-0.7-0.2c-0.3,0-0.5-0.1-0.8-0.2s-0.4-0.2-0.6-0.3c-0.2-0.1-0.3-0.3-0.4-0.5c-0.1-0.2-0.1-0.4-0.1-0.7
				c0-0.3,0.1-0.6,0.2-0.9c0.1-0.3,0.3-0.5,0.6-0.7s0.5-0.3,0.9-0.4s0.7-0.1,1.1-0.1c0.3,0,0.6,0,0.9,0.1c0.3,0.1,0.5,0.2,0.7,0.4
				s0.3,0.3,0.4,0.6c0.1,0.2,0.1,0.4,0.1,0.7c0,0.1,0,0.1,0,0.2c0,0.1,0,0.1,0,0.2l-0.1,0.4h-0.8L35.7,16.8z"/>
			<path class="st2" d="M38.2,14.7h4.3v0.8h-1.7l-1.1,5.4h1.7v0.8h-4.3v-0.8h1.7l1.1-5.4h-1.7V14.7z"/>
			<path class="st2" d="M43.6,17.4c0.2-0.9,0.5-1.6,1-2.1c0.5-0.5,1.1-0.7,2-0.7c0.6,0,1.1,0.2,1.5,0.5c0.3,0.4,0.5,0.9,0.5,1.5
				c0,0.1,0,0.3,0,0.4c0,0.1,0,0.3-0.1,0.4l-0.3,1.4c-0.2,0.9-0.5,1.6-1,2.1c-0.5,0.5-1.1,0.7-2,0.7c-0.6,0-1.1-0.2-1.5-0.5
				c-0.3-0.4-0.5-0.9-0.5-1.5c0-0.1,0-0.3,0-0.4c0-0.1,0-0.3,0.1-0.4L43.6,17.4z M45.3,21c0.3,0,0.5-0.1,0.7-0.2
				c0.2-0.1,0.4-0.2,0.6-0.4s0.3-0.4,0.4-0.7c0.1-0.3,0.2-0.6,0.3-0.9l0.3-1.5c0.1-0.3,0.1-0.5,0.1-0.7c0-0.4-0.1-0.8-0.3-1
				c-0.2-0.2-0.5-0.4-0.9-0.4c-0.5,0-1,0.2-1.3,0.6c-0.3,0.4-0.6,0.9-0.7,1.6l-0.3,1.5c-0.1,0.3-0.1,0.5-0.1,0.7
				c0,0.4,0.1,0.8,0.3,1S44.9,21,45.3,21z M48,12.8L48,12.8L47,14h-0.8l0.9-1.2H48z"/>
			<path class="st2" d="M52.5,21.3h0.1l1.4-6.6h0.8l-1.5,6.9h-1.6l-0.4-6.6h-0.1l-1.4,6.6H49l1.5-6.9h1.6L52.5,21.3z"/>
			<path class="st2" d="M62.7,14.7h3.9v0.8h-3.2l-0.5,2.3h3v0.8h-3.2l-0.5,2.3h3.1v0.8h-4.1L62.7,14.7z"/>
			<path class="st2" d="M73.2,15.5h-0.7l-0.9,4.1c-0.1,0.3-0.2,0.6-0.3,0.9c-0.1,0.3-0.3,0.5-0.5,0.7c-0.2,0.2-0.4,0.3-0.7,0.4
				s-0.6,0.1-1,0.1c-0.6,0-1-0.2-1.4-0.5c-0.3-0.3-0.5-0.7-0.5-1.2c0-0.2,0-0.4,0.1-0.5l0.1-0.5h0.8l-0.1,0.5c0,0.2-0.1,0.3-0.1,0.5
				c0,0.6,0.4,0.9,1.1,0.9c0.5,0,0.8-0.1,1.1-0.4s0.4-0.6,0.5-1l0.9-4.1h-0.8v-0.8h2.3V15.5z"/>
			<path class="st2" d="M74.8,14.7h3.9v0.8h-3.2L75,17.8h3v0.8h-3.2l-0.5,2.3h3.1v0.8h-4.1L74.8,14.7z"/>
			<path class="st2" d="M81.6,21c0.3,0,0.5,0,0.7-0.1c0.2-0.1,0.4-0.2,0.5-0.4c0.2-0.2,0.3-0.3,0.4-0.5c0.1-0.2,0.2-0.5,0.3-0.7
				l0-0.1h0.8l0,0.1c-0.1,0.4-0.2,0.8-0.4,1.1c-0.1,0.3-0.3,0.6-0.6,0.8c-0.2,0.2-0.5,0.4-0.8,0.5c-0.3,0.1-0.7,0.2-1.1,0.2
				c-0.3,0-0.6,0-0.9-0.1c-0.2-0.1-0.5-0.2-0.6-0.4s-0.3-0.4-0.4-0.6c-0.1-0.2-0.1-0.5-0.1-0.8c0-0.1,0-0.3,0-0.4
				c0-0.2,0-0.3,0.1-0.5l0.3-1.5c0.2-0.9,0.5-1.6,1-2.1s1.1-0.7,1.9-0.7c0.3,0,0.6,0,0.8,0.1c0.2,0.1,0.5,0.2,0.6,0.4
				c0.2,0.2,0.3,0.4,0.4,0.6c0.1,0.2,0.1,0.5,0.1,0.7c0,0.2,0,0.4-0.1,0.7l0,0.1H84l0-0.1c0-0.1,0.1-0.2,0.1-0.3c0-0.1,0-0.2,0-0.3
				c0-0.3-0.1-0.6-0.3-0.8c-0.2-0.2-0.5-0.3-1-0.3c-0.3,0-0.5,0.1-0.7,0.2c-0.2,0.1-0.4,0.3-0.6,0.4c-0.2,0.2-0.3,0.4-0.4,0.7
				c-0.1,0.3-0.2,0.5-0.3,0.9l-0.3,1.4c0,0.2-0.1,0.3-0.1,0.4s0,0.3,0,0.4c0,0.4,0.1,0.8,0.3,1S81.2,21,81.6,21z"/>
			<path class="st2" d="M87.4,14.7l-1,4.6c0,0.1,0,0.2,0,0.3c0,0.1,0,0.2,0,0.3c0,0.8,0.4,1.1,1.2,1.1c0.5,0,0.9-0.1,1.2-0.4
				s0.5-0.7,0.7-1.3l1-4.6h0.8l-1,4.6c-0.2,0.8-0.5,1.4-0.9,1.9s-1.1,0.6-1.9,0.6c-0.3,0-0.5,0-0.8-0.1s-0.4-0.2-0.6-0.4
				s-0.3-0.3-0.4-0.6c-0.1-0.2-0.1-0.5-0.1-0.8c0-0.1,0-0.2,0-0.3c0-0.1,0-0.2,0.1-0.4l1-4.5H87.4z"/>
			<path class="st2" d="M92.3,14.7h5v0.8h-2l-1.3,6.1h-0.8l1.3-6.1h-2.1V14.7z"/>
			<path class="st2" d="M98.8,14.7h4.3v0.8h-1.7l-1.1,5.4h1.7v0.8h-4.3v-0.8h1.7l1.1-5.4h-1.7V14.7z"/>
			<path class="st2" d="M104.4,14.7h0.8l0.3,6.6h0.1l3.1-6.6h0.9l-3.3,6.9h-1.6L104.4,14.7z"/>
			<path class="st2" d="M113.5,19.9h-2.8l-0.8,1.7H109l3.4-6.9h1.6l0.5,6.9h-0.8L113.5,19.9z M111.1,19.1h2.4l-0.3-4.1h-0.1
				L111.1,19.1z"/>
		</g>
	</g>
</g>
<g id="Layer_2_1_" class="st3">
</g>
</svg>
