<?xml version="1.0" encoding="utf-8"?>
<!-- Generator: Adobe Illustrator 24.3.0, SVG Export Plug-In . SVG Version: 6.00 Build 0)  -->
<svg version="1.1" xmlns="http://www.w3.org/2000/svg" xmlns:xlink="http://www.w3.org/1999/xlink" x="0px" y="0px"
	 viewBox="0 0 219 61.8" style="enable-background:new 0 0 219 61.8;" xml:space="preserve">
<style type="text/css">
	.st0{clip-path:url(#SVGID_2_);}
	.st1{clip-path:url(#SVGID_4_);fill:#1A1B2F;}
	.st2{clip-path:url(#SVGID_6_);}
	.st3{clip-path:url(#SVGID_8_);fill:#F1748A;}
	.st4{fill:#F1748A;}
	.st5{fill:#FDD56F;}
	.st6{fill:#EC4796;}
	.st7{clip-path:url(#SVGID_10_);}
	.st8{clip-path:url(#SVGID_12_);fill:#F1748A;}
	.st9{fill:#FFFFFF;}
	.st10{fill:none;stroke:#EC4796;stroke-width:2;stroke-miterlimit:10;}
	.st11{fill:none;stroke:#F1748A;stroke-width:2;stroke-miterlimit:10;}
	.st12{fill:none;stroke:#FFFFFF;stroke-width:1.9929;stroke-miterlimit:10;}
	.st13{fill:none;stroke:#1A1B2F;stroke-width:2.2288;stroke-miterlimit:10;}
	.st14{fill:#1A1B2F;}
	.st15{clip-path:url(#SVGID_14_);}
	.st16{fill:#FFD1C2;}
	.st17{fill:#D69241;}
	.st18{fill:#6CBFAD;}
	.st19{fill:#1C2021;}
	.st20{fill:#F78271;}
	.st21{clip-path:url(#SVGID_16_);}
	.st22{fill:#853C2B;}
	.st23{clip-path:url(#SVGID_18_);}
	.st24{fill:#FECA9A;}
	.st25{clip-path:url(#SVGID_20_);}
	.st26{fill:none;stroke:#1C2021;stroke-width:3.8694;stroke-miterlimit:10;}
	.st27{clip-path:url(#SVGID_22_);}
	.st28{clip-path:url(#SVGID_24_);}
	.st29{clip-path:url(#SVGID_26_);}
	.st30{clip-path:url(#SVGID_28_);}
	.st31{clip-path:url(#SVGID_30_);}
	.st32{clip-path:url(#SVGID_32_);}
	.st33{clip-path:url(#SVGID_34_);}
	.st34{clip-path:url(#SVGID_36_);fill:#FDD56F;}
	.st35{fill:none;stroke:#1C2021;stroke-width:5.7091;stroke-miterlimit:10;}
	.st36{fill:#ED4462;}
	.st37{fill:#00BDFF;}
	.st38{fill:#FFA630;}
	.st39{display:none;}
	.st40{display:inline;fill:#606060;}
</style>
<g id="Layer_1">
	<g>
		<g>
			<g>
				<path class="st4" d="M70.7,10L70.7,10c0-4.3,3.2-7.9,7.9-7.9c2.9,0,4.6,0.9,6,2.3l-2.1,2.4c-1.2-1.1-2.4-1.7-3.9-1.7
					c-2.5,0-4.4,2.1-4.4,4.7v0c0,2.6,1.8,4.8,4.4,4.8c1.7,0,2.8-0.7,4-1.8l2.1,2.1c-1.6,1.7-3.3,2.7-6.2,2.7
					C74,17.8,70.7,14.3,70.7,10z"/>
				<path class="st4" d="M86.7,11.8L86.7,11.8c0-3.4,2.7-6.1,6.3-6.1c3.6,0,6.2,2.7,6.2,6v0c0,3.3-2.7,6-6.3,6
					C89.4,17.8,86.7,15.1,86.7,11.8z M96,11.8L96,11.8c0-1.8-1.2-3.2-3-3.2c-1.9,0-3,1.4-3,3.2v0c0,1.7,1.2,3.2,3,3.2
					C94.9,14.9,96,13.5,96,11.8z"/>
				<path class="st4" d="M102.2,5.9l3.3,0v1.6c0.8-1,1.7-1.9,3.4-1.9c1.5,0,2.7,0.7,3.3,1.8c1-1.2,2.2-1.8,3.8-1.8
					c2.4,0,3.9,1.5,3.9,4.3l0,7.5h-3.3V11c0-1.6-0.7-2.4-1.9-2.4c-1.2,0-2,0.8-2,2.4v6.5h-3.3V11c0-1.6-0.7-2.4-1.9-2.4
					c-1.2,0-2,0.8-2,2.4l0,6.5h-3.3V5.9z"/>
				<path class="st4" d="M123.3,1.7l3.5,0v2.9l-3.5,0V1.7z M123.4,5.9l3.3,0l0,11.6l-3.3,0V5.9z"/>
				<path class="st4" d="M130.8,14.2V8.7h-1.4V5.9l1.4,0V3l3.3,0v3l2.7,0v2.8l-2.7,0v4.9c0,0.8,0.3,1.1,1.1,1.1
					c0.6,0,1.1-0.2,1.6-0.4V17c-0.7,0.4-1.5,0.7-2.6,0.7C132.2,17.7,130.8,16.9,130.8,14.2z"/>
				<path class="st4" d="M138.9,11.8L138.9,11.8c0-3.3,2.4-6.1,5.7-6.1c3.9,0,5.6,3,5.6,6.3c0,0.3,0,0.6,0,0.9l-8.1,0
					c0.3,1.5,1.4,2.3,2.8,2.3c1.1,0,1.9-0.3,2.8-1.2l1.9,1.7c-1.1,1.3-2.6,2.2-4.7,2.2C141.5,17.8,138.9,15.3,138.9,11.8z
					 M147.1,10.8c-0.2-1.5-1.1-2.5-2.4-2.5c-1.4,0-2.2,1-2.5,2.5L147.1,10.8z M145.7,0.8l2.8,1.2l-2.8,2.6l-2.4,0L145.7,0.8z"/>
				<path class="st4" d="M159.7,11.7L159.7,11.7c0-3.9,2.5-6,5.3-6c1.7,0,2.8,0.8,3.6,1.7V1.7l3.3,0v15.8h-3.3v-1.7
					c-0.8,1.1-1.9,1.9-3.6,1.9C162.3,17.7,159.7,15.6,159.7,11.7z M168.7,11.7L168.7,11.7c0-2-1.3-3.2-2.8-3.2
					c-1.5,0-2.8,1.3-2.8,3.2v0c0,1.9,1.3,3.2,2.8,3.2C167.4,14.9,168.7,13.7,168.7,11.7z"/>
				<path class="st4" d="M174.8,11.8L174.8,11.8c0-3.3,2.4-6.1,5.7-6.1c3.9,0,5.6,3,5.6,6.3c0,0.3,0,0.6,0,0.9l-8.1,0
					c0.3,1.5,1.4,2.3,2.8,2.3c1.1,0,1.9-0.3,2.8-1.2l1.9,1.7c-1.1,1.3-2.6,2.2-4.7,2.2C177.4,17.8,174.8,15.3,174.8,11.8z M183,10.8
					c-0.2-1.5-1.1-2.5-2.4-2.5c-1.4,0-2.2,1-2.5,2.5L183,10.8z"/>
				<path class="st4" d="M71.4,24.2l6.2,0c3.6,0,5.8,2.1,5.8,5.2v0c0,3.5-2.7,5.3-6.1,5.3h-2.5v4.5h-3.3L71.4,24.2z M77.3,31.9
					c1.7,0,2.6-1,2.6-2.3v0c0-1.5-1-2.3-2.7-2.3h-2.6v4.6H77.3z"/>
				<path class="st4" d="M85.1,36L85.1,36c0-2.6,1.9-3.7,4.7-3.7c1.2,0,2,0.2,2.8,0.5v-0.2c0-1.4-0.8-2.1-2.5-2.1
					c-1.3,0-2.1,0.2-3.2,0.6l-0.8-2.5c1.3-0.6,2.5-0.9,4.5-0.9c1.8,0,3.1,0.5,3.9,1.3c0.9,0.9,1.3,2.1,1.3,3.7l0,6.7l-3.2,0v-1.3
					c-0.8,0.9-1.9,1.5-3.5,1.5C86.9,39.6,85.1,38.3,85.1,36z M92.6,35.3v-0.6c-0.6-0.3-1.3-0.4-2.1-0.4c-1.4,0-2.3,0.6-2.3,1.6v0
					c0,0.9,0.7,1.4,1.8,1.4C91.6,37.3,92.6,36.5,92.6,35.3z"/>
				<path class="st4" d="M99.1,27.8l3.3,0v2.3c0.7-1.6,1.7-2.6,3.7-2.5V31h-0.2c-2.2,0-3.5,1.3-3.5,4.1l0,4.3h-3.3L99.1,27.8z"/>
				<path class="st4" d="M109.2,36.1v-5.5h-1.4v-2.8h1.4l0-3h3.3v3h2.7v2.8h-2.7l0,4.9c0,0.8,0.3,1.1,1.1,1.1c0.6,0,1.1-0.2,1.6-0.4
					v2.6c-0.7,0.4-1.5,0.7-2.6,0.7C110.6,39.5,109.2,38.8,109.2,36.1z"/>
				<path class="st4" d="M118.2,23.6h3.5v2.9l-3.5,0V23.6z M118.3,27.8l3.3,0v11.6h-3.3V27.8z"/>
				<path class="st4" d="M124.7,33.6L124.7,33.6c0-3.3,2.5-6.1,6.1-6.1c2.2,0,3.5,0.7,4.6,1.9l-2,2.2c-0.7-0.8-1.5-1.3-2.6-1.3
					c-1.6,0-2.8,1.4-2.8,3.2v0c0,1.8,1.1,3.2,2.9,3.2c1.1,0,1.9-0.5,2.7-1.2l1.9,1.9c-1.1,1.2-2.4,2.1-4.7,2.1
					C127.2,39.6,124.7,36.9,124.7,33.6z"/>
				<path class="st4" d="M138.2,23.6l3.5,0v2.9h-3.5V23.6z M138.3,27.8h3.3v11.6h-3.3V27.8z"/>
				<path class="st4" d="M145.2,27.8h3.3v1.7c0.8-1.1,1.9-1.9,3.6-1.9c2.7,0,5.3,2.1,5.3,6v0c0,3.9-2.5,6-5.3,6
					c-1.7,0-2.8-0.8-3.6-1.7v5l-3.3,0V27.8z M154,33.6L154,33.6c0-2-1.3-3.2-2.8-3.2c-1.5,0-2.8,1.3-2.8,3.2v0
					c0,1.9,1.3,3.2,2.8,3.2C152.7,36.8,154,35.5,154,33.6z"/>
				<path class="st4" d="M159.6,36L159.6,36c0-2.6,1.9-3.7,4.7-3.7c1.2,0,2,0.2,2.8,0.5v-0.2c0-1.4-0.8-2.1-2.5-2.1
					c-1.3,0-2.1,0.2-3.2,0.6l-0.8-2.5c1.3-0.6,2.5-0.9,4.5-0.9c1.8,0,3.1,0.5,3.9,1.3c0.9,0.9,1.3,2.1,1.3,3.7v6.7h-3.2v-1.3
					c-0.8,0.9-1.9,1.5-3.5,1.5C161.4,39.6,159.6,38.3,159.6,36z M167.1,35.3v-0.6c-0.6-0.3-1.3-0.4-2.1-0.4c-1.4,0-2.3,0.6-2.3,1.6
					v0c0,0.9,0.7,1.4,1.8,1.4C166.1,37.3,167.1,36.5,167.1,35.3z"/>
				<path class="st4" d="M173,33.6L173,33.6c0-3.3,2.5-6.1,6.1-6.1c2.2,0,3.5,0.7,4.6,1.9l-2,2.2c-0.7-0.8-1.5-1.3-2.6-1.3
					c-1.6,0-2.8,1.4-2.8,3.2v0c0,1.8,1.1,3.2,2.9,3.2c1.1,0,1.9-0.5,2.7-1.2l1.9,1.9c-1.1,1.2-2.4,2.1-4.7,2.1
					C175.6,39.6,173,36.9,173,33.6z"/>
				<path class="st4" d="M186.5,23.6l3.5,0v2.9h-3.5V23.6z M186.6,27.8h3.3v11.6h-3.3V27.8z"/>
				<path class="st4" d="M193,33.6L193,33.6c0-3.4,2.7-6.1,6.3-6.1c3.6,0,6.2,2.7,6.2,6v0c0,3.3-2.7,6-6.3,6
					C195.6,39.6,193,37,193,33.6z M202.3,33.6L202.3,33.6c0-1.7-1.2-3.2-3-3.2c-1.9,0-3,1.4-3,3.2v0c0,1.7,1.2,3.2,3,3.2
					C201.1,36.8,202.3,35.3,202.3,33.6z M200.3,22.7l2.8,1.2l-2.8,2.6h-2.4L200.3,22.7z"/>
				<path class="st4" d="M208.4,27.8l3.3,0v1.6c0.8-1,1.7-1.9,3.4-1.9c2.5,0,3.9,1.6,3.9,4.3v7.5h-3.3v-6.5c0-1.6-0.7-2.4-2-2.4
					s-2.1,0.8-2.1,2.4v6.5l-3.3,0V27.8z"/>
				<path class="st4" d="M70.7,53.7L70.7,53.7c0-4.3,3.2-7.9,7.9-7.9c2.9,0,4.6,1,6,2.3l-2.1,2.4c-1.2-1.1-2.4-1.7-3.9-1.7
					c-2.5,0-4.4,2.1-4.4,4.7v0c0,2.6,1.8,4.8,4.4,4.8c1.7,0,2.8-0.7,4-1.8l2.1,2.1c-1.6,1.7-3.3,2.7-6.2,2.7
					C74,61.5,70.7,58,70.7,53.7z"/>
				<path class="st4" d="M87.6,45.4H91l0,2.9h-3.5V45.4z M87.7,49.6h3.3v11.6h-3.3V49.6z"/>
				<path class="st4" d="M94.5,57.1v-7.5l3.3,0l0,6.5c0,1.6,0.7,2.4,2,2.4c1.3,0,2.1-0.8,2.1-2.4v-6.5h3.3v11.6h-3.3v-1.6
					c-0.8,1-1.7,1.9-3.4,1.9C95.9,61.4,94.5,59.8,94.5,57.1z"/>
				<path class="st4" d="M108,55.4L108,55.4c0-3.9,2.5-6,5.3-6c1.7,0,2.8,0.8,3.6,1.7v-5.7h3.3l0,15.8l-3.3,0v-1.7
					c-0.8,1.1-1.9,1.9-3.6,1.9C110.6,61.4,108,59.3,108,55.4z M117,55.4L117,55.4c0-2-1.3-3.2-2.8-3.2s-2.8,1.3-2.8,3.2v0
					c0,1.9,1.3,3.2,2.8,3.2C115.7,58.6,117,57.4,117,55.4z"/>
				<path class="st4" d="M123,57.9L123,57.9c0-2.6,1.9-3.7,4.7-3.7c1.2,0,2,0.2,2.8,0.5v-0.2c0-1.4-0.8-2.1-2.5-2.1
					c-1.3,0-2.1,0.2-3.2,0.6l-0.8-2.5c1.3-0.6,2.5-0.9,4.5-0.9c1.8,0,3.1,0.5,3.9,1.3c0.9,0.9,1.3,2.1,1.3,3.7v6.7h-3.2V60
					c-0.8,0.9-1.9,1.5-3.5,1.5C124.8,61.4,123,60.2,123,57.9z M130.5,57.1v-0.6c-0.6-0.3-1.3-0.4-2.1-0.4c-1.4,0-2.3,0.6-2.3,1.6v0
					c0,0.9,0.7,1.4,1.8,1.4C129.5,59.2,130.5,58.3,130.5,57.1z"/>
				<path class="st4" d="M136.5,55.4L136.5,55.4c0-3.9,2.5-6,5.3-6c1.7,0,2.8,0.8,3.6,1.7v-5.7h3.3v15.8h-3.3v-1.7
					c-0.8,1.1-1.9,1.9-3.6,1.9C139,61.4,136.5,59.3,136.5,55.4z M145.4,55.4L145.4,55.4c0-2-1.3-3.2-2.8-3.2c-1.5,0-2.8,1.3-2.8,3.2
					v0c0,1.9,1.3,3.2,2.8,3.2C144.1,58.6,145.4,57.4,145.4,55.4z"/>
				<path class="st4" d="M151.4,57.9L151.4,57.9c0-2.6,1.9-3.7,4.7-3.7c1.2,0,2,0.2,2.8,0.5v-0.2c0-1.4-0.8-2.1-2.5-2.1
					c-1.3,0-2.1,0.2-3.2,0.6l-0.8-2.5c1.3-0.6,2.5-0.9,4.5-0.9c1.8,0,3.1,0.5,3.9,1.3c0.9,0.9,1.3,2.1,1.3,3.7v6.7h-3.2V60
					c-0.8,0.9-1.9,1.5-3.5,1.5C153.2,61.4,151.4,60.2,151.4,57.9z M159,57.1v-0.6c-0.6-0.3-1.3-0.4-2.1-0.4c-1.4,0-2.3,0.6-2.3,1.6
					v0c0,0.9,0.7,1.4,1.8,1.4C157.9,59.2,159,58.3,159,57.1z"/>
				<path class="st4" d="M165.4,49.6h3.3v1.6c0.8-1,1.7-1.9,3.4-1.9c2.5,0,3.9,1.6,3.9,4.3v7.5h-3.3v-6.5c0-1.6-0.7-2.4-2-2.4
					c-1.3,0-2.1,0.8-2.1,2.4v6.5l-3.3,0V49.6z"/>
				<path class="st4" d="M178.7,57.9L178.7,57.9c0-2.6,1.9-3.7,4.7-3.7c1.2,0,2,0.2,2.8,0.5v-0.2c0-1.4-0.8-2.1-2.5-2.1
					c-1.3,0-2.1,0.2-3.2,0.6l-0.8-2.5c1.3-0.6,2.5-0.9,4.5-0.9c1.8,0,3.1,0.5,3.9,1.3c0.9,0.9,1.3,2.1,1.3,3.7v6.7h-3.2V60
					c-0.8,0.9-1.9,1.5-3.5,1.5C180.5,61.4,178.7,60.2,178.7,57.9z M186.3,57.1v-0.6c-0.6-0.3-1.3-0.4-2.1-0.4
					c-1.4,0-2.3,0.6-2.3,1.6v0c0,0.9,0.7,1.4,1.8,1.4C185.2,59.2,186.3,58.3,186.3,57.1z"/>
			</g>
		</g>
		<g>
			<g>
				<g>
					<g>
						<g>
							<path class="st5" d="M32,25.5c0.3,0.3,0.9,0.3,1.3,0l3.3-3.3c0.3-0.3,0.3-0.9,0-1.3L25.3,9.7c-0.3-0.3-0.3-0.9,0-1.3L29,4.8
								c0.3-0.3,0.3-0.9,0-1.3l-3.3-3.3c-0.3-0.3-0.9-0.3-1.3,0l-8.2,8.2c-0.3,0.3-0.3,0.9,0,1.3l3.3,3.3c0.3,0.3,0.6,0.6,0.6,0.6
								c0,0,0.3,0.3,0.6,0.6L32,25.5z"/>
						</g>
						<g>
							<path class="st5" d="M36.6,15.4c-3.5,0-6.3-2.8-6.3-6.3c0-3.5,2.8-6.3,6.3-6.3c3.5,0,6.3,2.8,6.3,6.3
								C42.9,12.6,40.1,15.4,36.6,15.4z"/>
						</g>
					</g>
					<g>
						<g>
							<path class="st5" d="M26.5,30.8c0.4-0.2,0.6-0.8,0.4-1.2l-2.1-4.1c-0.2-0.4-0.8-0.6-1.2-0.4L9.4,32.3c-0.4,0.2-1,0-1.2-0.4
								l-2.4-4.6c-0.2-0.4-0.8-0.6-1.2-0.4L0.5,29c-0.4,0.2-0.6,0.8-0.4,1.2l5.3,10.4C5.6,41,6.1,41.2,6.6,41l4.1-2.1
								c0.4-0.2,0.8-0.4,0.8-0.4c0,0,0.3-0.2,0.8-0.4L26.5,30.8z"/>
						</g>
						<g>
							<path class="st5" d="M18.3,23.3c-1.1,3.3-4.6,5.1-8,4.1c-3.3-1.1-5.1-4.6-4.1-8c1.1-3.3,4.6-5.1,8-4.1
								C17.5,16.4,19.3,20,18.3,23.3z"/>
						</g>
					</g>
					<g>
						<g>
							<path class="st5" d="M29.9,36.9c-0.1-0.5-0.5-0.8-1-0.7l-4.6,0.7c-0.5,0.1-0.8,0.5-0.7,1l2.5,15.7c0.1,0.5-0.3,0.9-0.7,1
								l-5.1,0.8c-0.5,0.1-0.8,0.5-0.7,1l0.7,4.6c0.1,0.5,0.5,0.8,1,0.7L32.7,60c0.5-0.1,0.8-0.5,0.7-1l-0.7-4.6
								c-0.1-0.5-0.1-0.9-0.2-0.9c0,0-0.1-0.4-0.2-0.9L29.9,36.9z"/>
						</g>
						<g>
							<path class="st5" d="M20.3,42.4c2.8,2,3.4,6,1.4,8.8c-2,2.8-6,3.4-8.8,1.4c-2.8-2.1-3.4-6-1.4-8.8
								C13.5,41,17.5,40.4,20.3,42.4z"/>
						</g>
					</g>
					<g>
						<g>
							<path class="st5" d="M37.1,35.7c-0.5-0.1-0.9,0.3-1,0.7L35.4,41c-0.1,0.5,0.3,0.9,0.7,1l15.7,2.5c0.5,0.1,0.8,0.5,0.7,1
								l-0.8,5.1c-0.1,0.5,0.3,0.9,0.7,1l4.6,0.7c0.5,0.1,0.9-0.3,1-0.7l1.8-11.5c0.1-0.5-0.3-0.9-0.7-1l-4.6-0.7
								c-0.5-0.1-0.9-0.1-0.9-0.1c0,0-0.4,0-0.9-0.1L37.1,35.7z"/>
						</g>
						<g>
							<path class="st5" d="M39.3,46.6c2.8-2,6.8-1.4,8.8,1.4c2,2.8,1.4,6.8-1.4,8.8c-2.8,2-6.8,1.4-8.8-1.4
								C35.9,52.6,36.5,48.6,39.3,46.6z"/>
						</g>
					</g>
					<g>
						<g>
							<path class="st5" d="M37.9,28.8c-0.2,0.4,0,1,0.4,1.2l4.1,2.1c0.4,0.2,1,0,1.2-0.4l7.2-14.2c0.2-0.4,0.8-0.6,1.2-0.4l4.6,2.4
								c0.4,0.2,1,0,1.2-0.4l2.1-4.1c0.2-0.4,0-1-0.4-1.2L49.2,8.5c-0.4-0.2-1,0-1.2,0.4L45.9,13c-0.2,0.4-0.4,0.8-0.4,0.8
								c0,0-0.2,0.4-0.4,0.8L37.9,28.8z"/>
						</g>
						<g>
							<path class="st5" d="M49,30c-1.1-3.3,0.7-6.9,4.1-8c3.3-1.1,6.9,0.7,8,4.1c1.1,3.3-0.7,6.9-4.1,8C53.6,35.1,50,33.3,49,30z"
								/>
						</g>
					</g>
				</g>
			</g>
		</g>
	</g>
</g>
<g id="Layer_2" class="st39">
</g>
</svg>
