<?xml version="1.0" encoding="utf-8"?>
<!-- Generator: Adobe Illustrator 24.3.0, SVG Export Plug-In . SVG Version: 6.00 Build 0)  -->
<svg version="1.1" xmlns="http://www.w3.org/2000/svg" xmlns:xlink="http://www.w3.org/1999/xlink" x="0px" y="0px"
	 viewBox="0 0 219.5 66.5" style="enable-background:new 0 0 219.5 66.5;" xml:space="preserve">
<style type="text/css">
	.st0{clip-path:url(#SVGID_2_);}
	.st1{clip-path:url(#SVGID_4_);fill:#1A1B2F;}
	.st2{clip-path:url(#SVGID_6_);}
	.st3{clip-path:url(#SVGID_8_);fill:#F1748A;}
	.st4{fill:#F1748A;}
	.st5{fill:#FDD56F;}
	.st6{fill:#EC4796;}
	.st7{clip-path:url(#SVGID_10_);}
	.st8{clip-path:url(#SVGID_12_);fill:#F1748A;}
	.st9{fill:#FFFFFF;}
	.st10{fill:none;stroke:#EC4796;stroke-width:2;stroke-miterlimit:10;}
	.st11{fill:none;stroke:#F1748A;stroke-width:2;stroke-miterlimit:10;}
	.st12{fill:none;stroke:#FFFFFF;stroke-width:1.9929;stroke-miterlimit:10;}
	.st13{fill:none;stroke:#1A1B2F;stroke-width:2.2288;stroke-miterlimit:10;}
	.st14{fill:#1A1B2F;}
	.st15{clip-path:url(#SVGID_14_);}
	.st16{fill:#FFD1C2;}
	.st17{fill:#D69241;}
	.st18{fill:#6CBFAD;}
	.st19{fill:#1C2021;}
	.st20{fill:#F78271;}
	.st21{clip-path:url(#SVGID_16_);}
	.st22{fill:#853C2B;}
	.st23{clip-path:url(#SVGID_18_);}
	.st24{fill:#FECA9A;}
	.st25{clip-path:url(#SVGID_20_);}
	.st26{fill:none;stroke:#1C2021;stroke-width:3.8694;stroke-miterlimit:10;}
	.st27{clip-path:url(#SVGID_22_);}
	.st28{clip-path:url(#SVGID_24_);}
	.st29{clip-path:url(#SVGID_26_);}
	.st30{clip-path:url(#SVGID_28_);}
	.st31{clip-path:url(#SVGID_30_);}
	.st32{clip-path:url(#SVGID_32_);}
	.st33{clip-path:url(#SVGID_34_);}
	.st34{clip-path:url(#SVGID_36_);fill:#FDD56F;}
	.st35{fill:none;stroke:#1C2021;stroke-width:5.7091;stroke-miterlimit:10;}
	.st36{fill:#ED4462;}
	.st37{fill:#00BDFF;}
	.st38{fill:#FFA630;}
	.st39{display:none;}
	.st40{display:inline;fill:#606060;}
</style>
<g id="Layer_1">
	<g>
		<g>
			<path class="st9" d="M101.8,57.6c-14.2,0-24.9-10.7-24.9-25v-0.1c0-14.3,10.9-25.1,25.3-25.1c8,0,13.7,2.2,19,7.3l-6.5,7.5
				c-4.2-3.7-8.1-5.4-12.6-5.4c-8.3,0-14.6,6.7-14.6,15.7v0.1c0,9,6.3,15.8,14.6,15.8c5.5,0,9-2.1,12.9-5.6l6.4,6.5
				C115.8,55.2,110.1,57.6,101.8,57.6z"/>
			<path class="st9" d="M130.4,56.8V8.2h19.8c11.3,0,18.5,6.6,18.5,16.7V25c0,10.3-7.7,17-19.6,17h-8.6v14.8H130.4z M140.5,33h8.9
				c5.3,0,8.9-3.1,8.9-7.8v-0.1c0-4.9-3.4-7.8-9.1-7.8h-8.7V33z"/>
			<path class="st9" d="M199.8,57.6c-14.2,0-24.9-10.7-24.9-25v-0.1c0-14.3,10.9-25.1,25.4-25.1c8,0,13.7,2.2,19,7.3l-6.5,7.5
				c-4.2-3.7-8.1-5.4-12.6-5.4c-8.3,0-14.6,6.7-14.6,15.7v0.1c0,9,6.3,15.8,14.6,15.8c5.5,0,9-2.1,12.9-5.6l6.4,6.5
				C213.8,55.2,208.1,57.6,199.8,57.6z"/>
		</g>
		<g>
			<path class="st5" d="M35.2,27.3c-0.2,0-0.3-0.1-0.4-0.2L22.5,14.9c-0.5-0.5-0.6-0.6-0.8-0.7c-0.1-0.1-0.3-0.3-0.6-0.6L17.5,10
				c-0.1-0.1-0.2-0.3-0.2-0.4c0-0.2,0.1-0.3,0.2-0.4l8.9-8.9C26.6,0.1,26.7,0,26.9,0c0.2,0,0.3,0.1,0.4,0.2l3.6,3.6
				c0.2,0.2,0.2,0.6,0,0.9l-4,4c-0.5,0.5-0.5,1.3,0,1.8l12.2,12.2c0.1,0.1,0.2,0.3,0.2,0.4c0,0.2-0.1,0.3-0.2,0.4l-3.6,3.6
				C35.5,27.3,35.3,27.3,35.2,27.3L35.2,27.3z"/>
			<path class="st5" d="M39.5,16.1c-3.6,0-6.5-2.9-6.5-6.5c0-3.6,2.9-6.5,6.5-6.5C43.1,3,46,5.9,46,9.5C46,13.1,43.1,16.1,39.5,16.1
				z"/>
			<path class="st5" d="M6.4,43.9c-0.2,0-0.5-0.1-0.6-0.3L0.1,32.3C0,32.2,0,32,0,31.9c0.1-0.2,0.2-0.3,0.3-0.4l4.5-2.3
				c0.1,0,0.2-0.1,0.3-0.1c0.2,0,0.5,0.1,0.6,0.3l2.6,5c0.2,0.4,0.7,0.7,1.2,0.7c0.2,0,0.4,0,0.6-0.1l15.4-7.9
				c0.1,0,0.2-0.1,0.3-0.1c0.2,0,0.5,0.1,0.6,0.3l2.3,4.5c0.2,0.3,0,0.7-0.3,0.8l-15.4,7.9c-0.6,0.3-0.8,0.4-0.9,0.5
				c-0.1,0.1-0.4,0.2-0.8,0.4l-4.5,2.3C6.6,43.9,6.5,43.9,6.4,43.9z"/>
			<path class="st5" d="M13,29.4c-0.7,0-1.4-0.1-2-0.3c-1.7-0.5-3-1.7-3.8-3.2c-0.8-1.6-0.9-3.3-0.4-5c0.9-2.7,3.4-4.5,6.2-4.5
				c0.7,0,1.4,0.1,2,0.3c1.7,0.5,3,1.7,3.8,3.2c0.8,1.6,0.9,3.3,0.4,5C18.3,27.6,15.8,29.4,13,29.4z"/>
			<path class="st5" d="M22.6,66.5c-0.3,0-0.6-0.2-0.6-0.5l-0.8-5c0-0.2,0-0.3,0.1-0.5c0.1-0.1,0.2-0.2,0.4-0.2l5.6-0.9
				c0.7-0.1,1.2-0.8,1.1-1.5l-2.7-17.1c0-0.2,0-0.3,0.1-0.5c0.1-0.1,0.2-0.2,0.4-0.3c0,0,5-0.8,5-0.8c0.4,0,0.6,0.2,0.7,0.5
				l2.7,17.1c0.1,0.5,0.1,0.8,0.2,1h0c0,0.1,0.1,0.5,0.2,0.9l0.8,5c0.1,0.3-0.2,0.7-0.5,0.7L22.6,66.5L22.6,66.5z"/>
			<path class="st5" d="M17.7,57.8c-1.4,0-2.7-0.4-3.8-1.2c-2.9-2.1-3.6-6.2-1.4-9.1c1.2-1.7,3.2-2.7,5.3-2.7c1.4,0,2.7,0.4,3.8,1.2
				c2.9,2.1,3.6,6.2,1.4,9.1C21.7,56.8,19.8,57.8,17.7,57.8z"/>
			<path class="st5" d="M61.7,56.3l-5-0.8c-0.3-0.1-0.6-0.4-0.5-0.7l0.9-5.6c0.1-0.7-0.4-1.4-1.1-1.5L38.9,45
				c-0.2,0-0.3-0.1-0.4-0.2c-0.1-0.1-0.1-0.3-0.1-0.5l0.8-5c0-0.3,0.3-0.5,0.6-0.5L57,41.5c0.5,0.1,0.9,0.1,1,0.1h0
				c0.1,0,0.5,0.1,0.9,0.1l5,0.8c0.2,0,0.3,0.1,0.4,0.2c0.1,0.1,0.1,0.3,0.1,0.5l-2,12.5C62.4,56.1,62.1,56.3,61.7,56.3
				C61.8,56.3,61.8,56.3,61.7,56.3z"/>
			<path class="st5" d="M46.4,62.4c-2.1,0-4.1-1-5.3-2.7c-2.1-2.9-1.5-7,1.4-9.1c1.1-0.8,2.4-1.2,3.8-1.2c2.1,0,4.1,1,5.3,2.7
				c2.1,2.9,1.5,7-1.4,9.1C49.2,61.9,47.8,62.4,46.4,62.4z"/>
			<path class="st5" d="M46.2,34.3c-0.1,0-0.2,0-0.3-0.1l-4.5-2.3c-0.3-0.2-0.4-0.5-0.3-0.8L49,15.7c0.3-0.6,0.4-0.8,0.4-0.9
				c0-0.1,0.2-0.4,0.4-0.8l2.3-4.5c0.1-0.2,0.3-0.3,0.6-0.3c0.1,0,0.2,0,0.3,0.1l11.3,5.7c0.3,0.2,0.4,0.5,0.3,0.8l-2.3,4.5
				c-0.1,0.2-0.3,0.3-0.6,0.3c-0.1,0-0.2,0-0.3-0.1l-5-2.6c-0.2-0.1-0.4-0.1-0.6-0.1c-0.5,0-0.9,0.3-1.2,0.7L46.8,34
				C46.7,34.2,46.5,34.3,46.2,34.3z"/>
			<path class="st5" d="M59.4,36.7c-2.8,0-5.3-1.8-6.2-4.5c-1.1-3.4,0.8-7.1,4.2-8.2c0.7-0.2,1.3-0.3,2-0.3c2.8,0,5.3,1.8,6.2,4.5
				c1.1,3.4-0.8,7.1-4.2,8.2C60.8,36.6,60.1,36.7,59.4,36.7z"/>
		</g>
	</g>
</g>
<g id="Layer_2" class="st39">
</g>
</svg>
