<svg xmlns="http://www.w3.org/2000/svg" viewBox="0 0 150 150"><defs><style>.cls-1{fill:#fff;}.cls-2,.cls-3{fill:#f1748a;}.cls-3{font-size:17px;font-family:Gotham-Bold, Gotham;font-weight:700;}.cls-4{fill:none;}.cls-5{fill:#ffb260;}.cls-6{fill:#feca9a;}.cls-7{fill:#b3b3b3;}.cls-8{fill:#0094b9;}.cls-9{fill:#1c2021;}</style></defs><g id="Layer_1" data-name="Layer 1"><rect class="cls-1" x="1.2" y="1.2" width="147.6" height="147.6" rx="13.2"/><path class="cls-2" d="M135.6,2.4a12,12,0,0,1,12,12V135.6a12,12,0,0,1-12,12H14.4a12,12,0,0,1-12-12V14.4a12,12,0,0,1,12-12H135.6m0-2.4H14.4A14.44,14.44,0,0,0,0,14.4V135.6A14.44,14.44,0,0,0,14.4,150H135.6A14.44,14.44,0,0,0,150,135.6V14.4A14.44,14.44,0,0,0,135.6,0Z"/><text class="cls-3" transform="translate(19.97 138.82)">Jesús Abbud</text><path class="cls-4" d="M97.44,94.43l0-.05a3.22,3.22,0,0,0-1-.93,14.24,14.24,0,0,1,1,1.16A1.71,1.71,0,0,1,97.44,94.43Z"/><path class="cls-4" d="M89.86,23.24c.85,1.08,1.67,2.18,2.44,3.26A6.22,6.22,0,0,0,89.86,23.24Z"/><path class="cls-4" d="M98.74,98.85c.07.27.13.52.19.78a3,3,0,0,0-.28-1.15Z"/><path class="cls-1" d="M64.9,49a1,1,0,0,1,.57.89,1,1,0,0,1-.36.77,5,5,0,0,0,2.52-1.41.33.33,0,0,0-.09-.25,4.43,4.43,0,0,0-3.25-1.13A1.34,1.34,0,0,1,64.9,49Z"/><path class="cls-1" d="M61.2,48.4A6.4,6.4,0,0,0,59,50l0,0a6.6,6.6,0,0,0,2,.78C60.1,50.12,60.59,49.08,61.2,48.4Z"/><polygon class="cls-1" points="64.09 50.94 64.1 50.94 64.1 50.94 64.09 50.94"/><path class="cls-5" d="M75.06,71.47a21,21,0,0,1-4.59-.4,1,1,0,0,0,0,.17c.12.53.77,1,1.87,1.44a11.3,11.3,0,0,0,5.09,1l.58,0a5.12,5.12,0,0,0,2.78-2,2.79,2.79,0,0,0,.44-.73,11.81,11.81,0,0,1-1.7.28S77.41,71.47,75.06,71.47Z"/><path class="cls-5" d="M70.43,69.61c6.34-.38,10.12-.25,11.31.37,1.17-.43,1.31-1,1.33-1.32-4.15,1.12-12.62.44-12.62.44l-.53-.18a1,1,0,0,0-.59.17s-.06.12,0,.55c0,.16.23.3.54.42a1.85,1.85,0,0,1,.23-.32A.37.37,0,0,1,70.43,69.61Z"/><path class="cls-5" d="M71.32,70.39a36.2,36.2,0,0,0,8.15,0c.25,0,.48,0,.69-.09A79.29,79.29,0,0,0,71.32,70.39Z"/><path class="cls-5" d="M70.45,70s8.47-.5,10.74.13a5.16,5.16,0,0,0,.55-.17c-1.19-.62-5-.75-11.31-.37a.37.37,0,0,0-.28.13,1.85,1.85,0,0,0-.23.32l.4.13A1.08,1.08,0,0,1,70.45,70Z"/><path class="cls-5" d="M70.45,70a1.08,1.08,0,0,0-.13.17,7,7,0,0,0,1,.2,79.29,79.29,0,0,1,8.84,0,7.86,7.86,0,0,0,1-.2C78.92,69.52,70.45,70,70.45,70Z"/><path class="cls-5" d="M83.07,68.66h0a6.22,6.22,0,0,0-1.32.19c-.35.07-.72.15-1.07.2A43.45,43.45,0,0,1,75.55,69c-1.41-.06-2.87-.12-3.9-.12-.5,0-1.22,0-1.73,0l.53.18S78.92,69.78,83.07,68.66Z"/><path class="cls-1" d="M65.47,49.92A1,1,0,0,0,64.9,49a2.28,2.28,0,0,1-.8,1.91h0a7.85,7.85,0,0,0,1-.25A1,1,0,0,0,65.47,49.92Z"/><path class="cls-1" d="M64.33,51a1.19,1.19,0,0,0,.78-.29,7.85,7.85,0,0,1-1,.25A1.85,1.85,0,0,0,64.33,51Z"/><path class="cls-1" d="M64.9,49a1.12,1.12,0,0,0-.57-.17,1.11,1.11,0,0,0-1.14,1.06,1.07,1.07,0,0,0,.91,1A2.28,2.28,0,0,0,64.9,49Z"/><path class="cls-1" d="M84.13,48a2.72,2.72,0,0,0-1.45.83c-.09.13-.1.21-.09.25a3.73,3.73,0,0,0,1.74,1.13A2.16,2.16,0,0,1,84.13,48Z"/><path class="cls-1" d="M88.3,49.79a1.16,1.16,0,0,1,0,.18,1,1,0,0,1-.49.85,8.59,8.59,0,0,0,3.44-1l0,0a6.16,6.16,0,0,0-4-2A2.55,2.55,0,0,1,88.3,49.79Z"/><path class="cls-1" d="M88.34,50a1.16,1.16,0,0,0,0-.18c-.08.42-.41.79-1.13,1.05a5.2,5.2,0,0,0,.68,0A1,1,0,0,0,88.34,50Z"/><path class="cls-1" d="M87.17,50.84l-.35.12h0a1.34,1.34,0,0,0,.4.07,1.14,1.14,0,0,0,.65-.21A5.2,5.2,0,0,1,87.17,50.84Z"/><path class="cls-1" d="M87.17,50.84c.72-.26,1-.63,1.13-1.05a1.14,1.14,0,0,0-2.24.18,1,1,0,0,0,.42.81l.38,0Z"/><path class="cls-1" d="M87.17,50.84h-.31l-.38,0a1,1,0,0,0,.32.18h0Z"/><path class="cls-6" d="M73.43,55.1c-.21.53-.49,1.1-.79,1.71C72,58,71.2,59.74,71.54,60.27c.14.22.28.22.9,0a3.07,3.07,0,0,1,.88-.21c.11-.48.48-2.14.79-4a27.45,27.45,0,0,0,.15-4A20.91,20.91,0,0,1,73.43,55.1Z"/><polygon class="cls-6" points="87.2 67.56 87.2 67.56 87.2 67.56 87.2 67.56"/><path class="cls-6" d="M83.91,68.54a2.3,2.3,0,0,1-1.76,2.17,3,3,0,0,1-.69,1.53,6.94,6.94,0,0,1-2.78,2.14,3.5,3.5,0,0,0,.24,2.9,4.43,4.43,0,0,0,3.51,1.81,4.48,4.48,0,0,0,4.73-2.37,12.2,12.2,0,0,0,1.23-3.18c1.11-4.3-1.19-6-1.19-6-1,.27-2,.48-3.32.86A.53.53,0,0,1,83.91,68.54Z"/><path class="cls-6" d="M92.3,26.5c-.77-1.08-1.59-2.18-2.44-3.26-3.13-2.16-7.71-1.58-7.71-1.58-1.8,1.39-8.82.86-16,1.11-2,.07-8-.64-11.1,1.33s-4,6.24-4.16,7.82A22,22,0,0,0,54,45a29.92,29.92,0,0,1,.56,4.16,44,44,0,0,0,3.74,16.51c3,6.51,6,4.1,7.19,2.62-2.93.26-4-3.42-4-3.42,3.74,2.67,4.75,1.92,8.9-.17,2.45-1.24,3.51-1.48,3.88-2.41a2.83,2.83,0,0,0,.09-.31l-.12-.15a6.76,6.76,0,0,0-.63-.81c-.15-.15-.39-.09-.86.08s-1.36.48-1.88-.34.2-2.56,1-4.28c.29-.59.56-1.15.76-1.65a45.66,45.66,0,0,0,1.51-6.57c0-.82-.06-1.37-.06-1.39a.43.43,0,0,1,.4-.44.39.39,0,0,1,.44.4c0,.07,0,.57.06,1.31a.49.49,0,0,1,0,.17h0a57.59,57.59,0,0,1-.07,7.95c-.33,2-.74,3.79-.82,4.12l.06,0a7,7,0,0,1,.72.91c.47.65.94,1.32,1.51,1.37.35,0,.69-.64,1-1.18s.66-1.28,1.22-1.4a2.5,2.5,0,0,1,.94.07c.3.07.65.15.77,0s.28-.37.1-1.67a15.5,15.5,0,0,0-2.14-5.42c-.41-.71-.55-1-.55-1.2a.42.42,0,0,1,.42-.42.41.41,0,0,1,.41.42l.44.78a16,16,0,0,1,2.24,5.73c.18,1.27.07,2-.35,2.4a1.6,1.6,0,0,1-1.52.17,1.64,1.64,0,0,0-.58-.07c-.18,0-.48.62-.66,1v0a8.49,8.49,0,0,0,1.78,1.74c1.39.93,3.08,1.15,5,1.8a5.71,5.71,0,0,0,6-1.93c-.62,2.76-1.88,3.52-3.74,4.05,3.6.42,4.93,3.91,6.6-10.11.27-2.25,1.25-8.88,1.39-11.38a91.76,91.76,0,0,0-1.25-12.9A40.78,40.78,0,0,0,92.3,26.5ZM68.41,49.57c-.36,1-2.83,2.12-5,2.31H63c-1.79,0-4.51-.76-4.9-1.6a.61.61,0,0,1,.12-.7l.16-.16a7,7,0,0,1,5.21-2.37c2.58-.07,4.13.75,4.65,1.48A1.08,1.08,0,0,1,68.41,49.57Zm.44-3.47a16.73,16.73,0,0,0-5.91-.84c-2.87.1-6.48,2.59-6.85,1.48s.28-1.48,2.22-2.86S65,41.47,69,43.32,70.8,46.74,68.85,46.1Zm23.29,4c-.39.84-3.1,1.61-4.9,1.61l-.45,0c-2.15-.19-4.61-1.33-5-2.31a1.09,1.09,0,0,1,.19-1c.52-.73,2.06-1.57,4.65-1.48a7,7,0,0,1,5.22,2.36l.15.16A.59.59,0,0,1,92.14,50.08Zm2-3.55c-.37,1.11-4-1.38-6.84-1.48a16.76,16.76,0,0,0-5.92.84c-1.94.64-4.25-.93-.19-2.78s8.79-.83,10.73.56S94.5,45.42,94.13,46.53Z"/><path class="cls-6" d="M65.63,68.24a11.8,11.8,0,0,0-.82,6.27,5.2,5.2,0,0,0,3.76,4.38,8.22,8.22,0,0,0,5.26-.08,2.44,2.44,0,0,0,1.31-1c.72-1.27-.4-3-.86-3.62a21.7,21.7,0,0,1-2.22-.71c-1.39-.53-2.2-1.22-2.39-2a1.54,1.54,0,0,1,0-.6,1.63,1.63,0,0,1-1.08-1,1.43,1.43,0,0,1,.1-1.28A9.11,9.11,0,0,0,65.63,68.24Z"/><path class="cls-6" d="M47.87,43.08h0c-.25,0-.47.26-.65.78-.85,2.37,2.14,8.27,4.28,11.92,0-2.32-.17-5.68-.35-8.65C50.33,45.57,48.82,43.14,47.87,43.08Z"/><path class="cls-6" d="M99,41.55c-.1-.19-.18-.19-.23-.19-1.81,0-2.32,4.63-2.35,6.25v0l-.06.51c.1,2.37.21,5,.3,7.21C98.12,51.15,99.91,43.29,99,41.55Z"/><path class="cls-6" d="M89.89,92.66c-1.06-2.9-.89-10-.83-11.9-6,3.9-16.79,6.64-25.31,1.14-.43-.28-.85-.57-1.25-.87.53,2.89,1.63,9.74,1,12.51l-.38.29-.74.58-.24.18a28.43,28.43,0,0,0,.18,5.12c.74,1.07,1.56,2.15,2.4,3.14l2.34,2.54.54.55c3.71,3.81,5.37,5.64,5.73,6.6a23.36,23.36,0,0,1,2.66.88,13,13,0,0,1,5.87,3.73,7,7,0,0,1,.76-1.84c.44-.76,1.08-2.16,1.77-3.64,1-2,2-4.38,2.94-5.9,1.47-2.46,3.06-7.25,2.8-9.5a5.48,5.48,0,0,1,.58-2.86l.12-.27-.79-.48Z"/><path class="cls-7" d="M56.87,98.59c0-.51-.08-.86-.08-1s-.06-.08-.17-.07a.4.4,0,0,1-.2.38c-.05,0-6.65,3-9.92,5.52A27.63,27.63,0,0,1,40.41,107c-1,.48-3.48,2-4.07,2.38a.38.38,0,0,1-.5-.08c-3.51,2.4-6.54,4.64-6.54,4.64-.4.32,0,3.31.94,7.43H60.53c-.67-4.09-1.19-7.17-1.36-8.07C57.83,106.07,57.11,100.77,56.87,98.59Z"/><path class="cls-7" d="M120.59,105.35a.2.2,0,0,1,0,.11.41.41,0,0,1-.37.22.39.39,0,0,1-.2-.05c-.35-.19-5.61-2.16-6.86-2.55-2.77-.86-6.23-2.39-8.62-3.24-2.72-1-5.13-1.77-6-2.07,0,.22.11.46.17.71a3,3,0,0,1,.28,1.15l0,.1c.38,1.57.64,2.87.87,4a22.65,22.65,0,0,0,1.5,5.33c1.27,2.81,2,7.36,1.27,8.4a.62.62,0,0,1-.5.29c-.41.06-.74-.37-1.37-1.15a18.31,18.31,0,0,0-3.29-3.36c0,.14,0,.27-.08.41-.45,2.53-.9,5.12-1.33,7.7h23.33C120.67,113.14,121.22,105.79,120.59,105.35Z"/><path class="cls-8" d="M60.15,96.16a35.47,35.47,0,0,0,2.19,3.55,28.43,28.43,0,0,1-.18-5.12c.05-1,.12-1.64.12-1.64H62a.93.93,0,0,1,.16.74c-.08.44-.55.5-1.09.57s-1.24.16-1.41.48a1,1,0,0,0,.11.76Z"/><path class="cls-8" d="M61.84,116.17c-.44-1.74-.85-4.06-1.25-6.3a51.2,51.2,0,0,0-1.73-7.74c-.25-.58-.54-1.17-.82-1.76a17.72,17.72,0,0,1-1.22-2.84,2.43,2.43,0,0,1,0,1.06c.24,2.18,1,7.48,2.3,14.71.17.9.69,4,1.36,8.07h2.3c-.06-.35-.13-.75-.21-1.23C62.43,119,62.19,117.59,61.84,116.17Z"/><path class="cls-8" d="M75.7,114.26c-1.39-.51-2.1-.72-2.45-.82a1.09,1.09,0,0,1-.94.31,1.35,1.35,0,0,0-1.42.83,21,21,0,0,1-2.7,3.21l-1.29,1.39a22.72,22.72,0,0,0-1.77,2.19h14.4a5.34,5.34,0,0,0-5-3.56c-3.12-.27-4.39-1.37-4.44-1.42a.45.45,0,1,1,.6-.67,7.39,7.39,0,0,0,3.92,1.19,6.31,6.31,0,0,1,5.89,4.46H83.1a12.46,12.46,0,0,0-1.23-2.72C80.34,116.23,78,115.11,75.7,114.26Z"/><path class="cls-8" d="M94.73,111.64l-5.13-2.31A4.35,4.35,0,0,0,86.9,111c-2.8,3.27-4.32,5.91-4.2,7.29a14.14,14.14,0,0,1,1.35,3.08H96c.43-2.58.88-5.17,1.33-7.7,0-.14,0-.27.08-.41a14.34,14.34,0,0,0-1.73-1.12C95.4,112,95.07,111.8,94.73,111.64Z"/><path class="cls-8" d="M67.08,105.39l-2.34-2.54c.37.45.75.88,1.13,1.28Z"/><path class="cls-8" d="M67.54,117.17a22.05,22.05,0,0,0,2.57-3,2.2,2.2,0,0,1,2.21-1.29h.21s0-.06,0-.09c-.38-.84-3.74-4.29-5.58-6.18-.65-.67-1.26-1.29-1.76-1.82a41.71,41.71,0,0,1-5.79-8c-.16-.29-.3-.58-.42-.83a1.7,1.7,0,0,1-.1-1.58l.08-.12a3.6,3.6,0,0,0-1.27,1.2c-.58,1.08.25,2.79,1.13,4.59.3.6.6,1.21.85,1.8a49.85,49.85,0,0,1,1.78,7.93c.4,2.23.82,4.53,1.24,6.24.37,1.45.61,2.89.8,4,.07.46.16,1,.24,1.37h.32a16.08,16.08,0,0,1,2-2.56C66.51,118.27,67,117.72,67.54,117.17Z"/><path class="cls-8" d="M100.5,109.46a23.41,23.41,0,0,1-1.56-5.54l-.09-.46c-.17-.85-.36-1.78-.6-2.84-.12-.49-.24-1-.38-1.55-.78-3-.66-4-.5-4.46a14.24,14.24,0,0,0-1-1.16,7,7,0,0,0-2.2-.84c-.41-.09-.72-.18-1-.26a3.63,3.63,0,0,1-.61-.27,9.85,9.85,0,0,0-.94,1.52,4.73,4.73,0,0,0-.59,2.57c.27,2.46-1.35,7.43-2.93,10.07-.74,1.23-1.6,3-2.41,4.78l.5-.61a5,5,0,0,1,3.48-2,.37.37,0,0,1,.18,0l5.23,2.35c.35.16.68.33,1,.51a3.61,3.61,0,0,1,.39.22c.4.23.77.47,1.12.72a18.62,18.62,0,0,1,3.83,3.79c.17.21.35.44.5.61A17,17,0,0,0,100.5,109.46Z"/><path class="cls-9" d="M69,43.32c-4.07-1.85-8.79-.83-10.73.56s-2.59,1.75-2.22,2.86,4-1.38,6.85-1.48a16.73,16.73,0,0,1,5.91.84C70.8,46.74,73.11,45.17,69,43.32Z"/><path class="cls-9" d="M63.57,47.06a7,7,0,0,0-5.21,2.37l-.16.16a.61.61,0,0,0-.12.7c.39.84,3.11,1.6,4.9,1.6h.45c2.15-.19,4.62-1.33,5-2.31a1.08,1.08,0,0,0-.19-1C67.7,47.81,66.15,47,63.57,47.06ZM61,50.81a6.6,6.6,0,0,1-2-.78l0,0A6.4,6.4,0,0,1,61.2,48.4C60.59,49.08,60.1,50.12,61,50.81Zm4.13-.12a1.19,1.19,0,0,1-.78.29,1.85,1.85,0,0,1-.23,0h0a1.07,1.07,0,0,1-.91-1,1.11,1.11,0,0,1,1.14-1.06,1.12,1.12,0,0,1,.57.17,1.34,1.34,0,0,0-.61-1.13A4.43,4.43,0,0,1,67.54,49a.33.33,0,0,1,.09.25A5,5,0,0,1,65.11,50.69Z"/><path class="cls-9" d="M94.13,46.53c.37-1.11-.28-1.48-2.22-2.86s-6.66-2.41-10.73-.56-1.75,3.42.19,2.78a16.76,16.76,0,0,1,5.92-.84C90.15,45.15,93.76,47.64,94.13,46.53Z"/><path class="cls-9" d="M92.14,50.08a.59.59,0,0,0-.12-.7l-.15-.16a7,7,0,0,0-5.22-2.36c-2.59-.09-4.13.75-4.65,1.48a1.09,1.09,0,0,0-.19,1c.37,1,2.83,2.12,5,2.31l.45,0C89,51.69,91.75,50.92,92.14,50.08Zm-9.55-1s0-.12.09-.25A2.72,2.72,0,0,1,84.13,48a2.16,2.16,0,0,0,.2,2.21A3.73,3.73,0,0,1,82.59,49.07Zm5.26,1.75a1.14,1.14,0,0,1-.65.21,1.34,1.34,0,0,1-.4-.07,1.13,1.13,0,0,1-.74-1,1.14,1.14,0,0,1,2.24-.18,2.55,2.55,0,0,0-1-2,6.16,6.16,0,0,1,4,2l0,0A8.59,8.59,0,0,1,87.85,50.82Z"/><path class="cls-9" d="M74.59,116.91a7.39,7.39,0,0,1-3.92-1.19.45.45,0,1,0-.6.67c.05,0,1.32,1.15,4.44,1.42a5.34,5.34,0,0,1,5,3.56h1A6.31,6.31,0,0,0,74.59,116.91Z"/><path class="cls-9" d="M56,97.18c-.05,0-6.47,3.31-10,5.57a48.31,48.31,0,0,1-5.93,3.5c-1,.48-3.51,2-4.14,2.41a.42.42,0,0,0-.14.58l.07.06a.38.38,0,0,0,.5.08c.59-.35,3-1.9,4.07-2.38a27.63,27.63,0,0,0,6.09-3.59c3.27-2.54,9.87-5.48,9.92-5.52a.4.4,0,0,0,.2-.38.42.42,0,0,0-.06-.19A.41.41,0,0,0,56,97.18Z"/><path class="cls-9" d="M120.39,104.9c-.42-.23-5.61-2.18-7-2.61-2.72-.85-6.33-2.43-8.59-3.23C101.35,97.84,98.61,97,98.61,97a.42.42,0,0,0-.3-.08c-.28-1.58-.11-2,0-2.12a.8.8,0,0,0-.11-.9,6.08,6.08,0,0,0-3.81-2.15c-.36-.08-.65-.16-.86-.23a1.66,1.66,0,0,1-.49-.23.47.47,0,0,0-.21-.27.44.44,0,0,0-.56.09,9.52,9.52,0,0,0-1.3,1.9.44.44,0,0,0-.05-.15c-1.4-2.45-1-12.43-1-12.53a.51.51,0,0,0,0-.13,11.84,11.84,0,0,0,2.93-2.9c3.33-5.13,4-14.42,4-16.64,0-.56,0-1.7-.09-3.16,1.46-3.27,4.24-13.91,3-16.31a1.08,1.08,0,0,0-1-.65c-1.38,0-2.16,1.39-2.6,2.93,0-.31,0-.59,0-.85-.14-4.16-1-9.57-1-9.57-.14-2.91,0-3.74-1.81-11.93-1.12-5.11-.44-7.07-7.27-7C86.06,11.44,81.66,9.4,79,9c-7.21-1-23.17.69-27.19,9S50,38.86,50.52,41.22a29.83,29.83,0,0,1,.47,4c-.85-1.4-2-2.78-2.92-3-.51-.08-1.21.07-1.66,1.32-1.09,3.06,2.87,10.33,5.09,13.86,0,3.79,1.33,15.57,10,22.79.9,4.28,2,12.81,1,13.72a.4.4,0,0,0-.09.46l.74-.58.38-.29c.61-2.77-.49-9.62-1-12.51.4.3.82.59,1.25.87,8.52,5.5,19.35,2.76,25.31-1.14-.06,1.92-.23,9,.83,11.9h.17l.79.48-.12.27a5.48,5.48,0,0,0-.58,2.86c.26,2.25-1.33,7-2.8,9.5-.92,1.52-2,3.85-2.94,5.9-.69,1.48-1.33,2.88-1.77,3.64a7,7,0,0,0-.76,1.84A13,13,0,0,0,76,113.42a23.36,23.36,0,0,0-2.66-.88c-.36-1-2-2.79-5.73-6.6l-.54-.55-1.21-1.26c-.38-.4-.76-.83-1.13-1.28-.84-1-1.66-2.07-2.4-3.14a35.47,35.47,0,0,1-2.19-3.55l-.34-.66a1,1,0,0,1-.11-.76c.17-.32.95-.42,1.41-.48s1-.13,1.09-.57A.93.93,0,0,0,62,93a.89.89,0,0,0-.44-.33c-1.12-.39-3.86.82-4.68,2.34a3.33,3.33,0,0,0-.1,2.57A17.72,17.72,0,0,0,58,100.37c.28.59.57,1.18.82,1.76a51.2,51.2,0,0,1,1.73,7.74c.4,2.24.81,4.56,1.25,6.3.35,1.42.59,2.83.78,4,.08.48.15.88.21,1.23h.92c-.08-.41-.17-.91-.24-1.37-.19-1.16-.43-2.6-.8-4-.42-1.71-.84-4-1.24-6.24a49.85,49.85,0,0,0-1.78-7.93c-.25-.59-.55-1.2-.85-1.8-.88-1.8-1.71-3.51-1.13-4.59A3.6,3.6,0,0,1,59,94.19l-.08.12a1.7,1.7,0,0,0,.1,1.58c.12.25.26.54.42.83a41.71,41.71,0,0,0,5.79,8c.5.53,1.11,1.15,1.76,1.82,1.84,1.89,5.2,5.34,5.58,6.18,0,0,0,.06,0,.09h-.21a2.2,2.2,0,0,0-2.21,1.29,22.05,22.05,0,0,1-2.57,3c-.52.55-1,1.1-1.51,1.64a16.08,16.08,0,0,0-2,2.56h1.06a22.72,22.72,0,0,1,1.77-2.19l1.29-1.39a21,21,0,0,0,2.7-3.21,1.35,1.35,0,0,1,1.42-.83,1.09,1.09,0,0,0,.94-.31c.35.1,1.06.31,2.45.82,2.3.85,4.64,2,6.17,4.39a12.46,12.46,0,0,1,1.23,2.72h1a14.14,14.14,0,0,0-1.35-3.08c-.12-1.38,1.4-4,4.2-7.29a4.35,4.35,0,0,1,2.7-1.67l5.13,2.31c.34.16.67.32,1,.5a14.34,14.34,0,0,1,1.73,1.12,18.31,18.31,0,0,1,3.29,3.36c.63.78,1,1.21,1.37,1.15a.62.62,0,0,0,.5-.29c.69-1,0-5.59-1.27-8.4a22.65,22.65,0,0,1-1.5-5.33c-.23-1.15-.49-2.45-.87-4l0-.1c-.06-.26-.12-.51-.19-.78l-.09-.37c-.06-.25-.12-.49-.17-.71.9.3,3.31,1.11,6,2.07,2.39.85,5.85,2.38,8.62,3.24,1.25.39,6.51,2.36,6.86,2.55a.39.39,0,0,0,.2.05.41.41,0,0,0,.37-.22.2.2,0,0,0,0-.11A.4.4,0,0,0,120.39,104.9Zm-24-57.26v0c0-1.62.54-6.25,2.35-6.25,0,0,.13,0,.23.19.89,1.74-.9,9.6-2.34,13.81-.09-2.24-.2-4.84-.3-7.21ZM47.2,43.86c.18-.52.4-.78.65-.78h0c1,.06,2.46,2.49,3.26,4.05.18,3,.31,6.33.35,8.65C49.34,52.13,46.35,46.23,47.2,43.86ZM75.14,77.8a2.44,2.44,0,0,1-1.31,1,8.22,8.22,0,0,1-5.26.08,5.2,5.2,0,0,1-3.76-4.38,11.8,11.8,0,0,1,.82-6.27,9.11,9.11,0,0,1,3,.33,1.43,1.43,0,0,0-.1,1.28,1.63,1.63,0,0,0,1.08,1,1.54,1.54,0,0,0,0,.6c.19.83,1,1.52,2.39,2a21.7,21.7,0,0,0,2.22.71C74.74,74.8,75.86,76.53,75.14,77.8Zm-5.81-8.71a1,1,0,0,1,.59-.17c.51,0,1.23,0,1.73,0,1,0,2.49.06,3.9.12a43.45,43.45,0,0,0,5.13.06c.35,0,.72-.13,1.07-.2a6.22,6.22,0,0,1,1.32-.19h0c0,.32-.16.89-1.33,1.32a5.16,5.16,0,0,1-.55.17,7.86,7.86,0,0,1-1,.2c-.21,0-.44.06-.69.09a36.2,36.2,0,0,1-8.15,0,7,7,0,0,1-1-.2l-.4-.13c-.31-.12-.5-.26-.54-.42C69.27,69.21,69.31,69.11,69.33,69.09Zm8.12,4.6a11.3,11.3,0,0,1-5.09-1c-1.1-.41-1.75-.91-1.87-1.44a1,1,0,0,1,0-.17,21,21,0,0,0,4.59.4c2.35,0,4.45-.19,4.49-.2a11.81,11.81,0,0,0,1.7-.28,2.79,2.79,0,0,1-.44.73,5.12,5.12,0,0,1-2.78,2Zm10.94-.15a12.2,12.2,0,0,1-1.23,3.18,4.48,4.48,0,0,1-4.73,2.37,4.43,4.43,0,0,1-3.51-1.81,3.5,3.5,0,0,1-.24-2.9,6.94,6.94,0,0,0,2.78-2.14,3,3,0,0,0,.69-1.53,2.3,2.3,0,0,0,1.76-2.17.53.53,0,0,0,0-.12c1.27-.38,2.37-.59,3.32-.86C87.2,67.56,89.5,69.24,88.39,73.54Zm-1.19-6c1.86-.53,3.12-1.29,3.74-4.05a5.71,5.71,0,0,1-6,1.93c-1.94-.65-3.63-.87-5-1.8A8.49,8.49,0,0,1,78.1,61.9v0c.18-.34.48-.92.66-1a1.64,1.64,0,0,1,.58.07,1.6,1.6,0,0,0,1.52-.17c.42-.39.53-1.13.35-2.4A16,16,0,0,0,79,52.68l-.44-.78a.41.41,0,0,0-.41-.42.42.42,0,0,0-.42.42c0,.24.14.49.55,1.2a15.5,15.5,0,0,1,2.14,5.42c.18,1.3,0,1.61-.1,1.67s-.47,0-.77,0a2.5,2.5,0,0,0-.94-.07c-.56.12-.88.74-1.22,1.4s-.62,1.21-1,1.18c-.57-.05-1-.72-1.51-1.37a7,7,0,0,0-.72-.91l-.06,0c.08-.33.49-2.12.82-4.12A57.59,57.59,0,0,0,75,48.27h0a.49.49,0,0,0,0-.17c0-.74-.06-1.24-.06-1.31a.39.39,0,0,0-.44-.4.43.43,0,0,0-.4.44s0,.57.06,1.39a45.66,45.66,0,0,1-1.51,6.57c-.2.5-.47,1.06-.76,1.65-.85,1.72-1.64,3.35-1,4.28s1.34.53,1.88.34.71-.23.86-.08a6.76,6.76,0,0,1,.63.81l.12.15a2.83,2.83,0,0,1-.09.31c-.37.93-1.43,1.17-3.88,2.41-4.15,2.09-5.16,2.84-8.9.17,0,0,1.09,3.68,4,3.42-1.23,1.48-4.19,3.89-7.19-2.62a44,44,0,0,1-3.74-16.51A29.92,29.92,0,0,0,54,45a22,22,0,0,1-3.05-13c.16-1.58,1.08-5.84,4.16-7.82s9.09-1.26,11.1-1.33c7.13-.25,14.15.28,16-1.11,0,0,4.58-.58,7.71,1.58A6.22,6.22,0,0,1,92.3,26.5a40.78,40.78,0,0,1,1.64,6.67,91.76,91.76,0,0,1,1.25,12.9c-.14,2.5-1.12,9.13-1.39,11.38C92.13,71.47,90.8,68,87.2,67.56ZM74.11,56.08c-.31,1.84-.68,3.5-.79,4a3.07,3.07,0,0,0-.88.21c-.62.22-.76.22-.9,0-.34-.53.49-2.23,1.1-3.46.3-.61.58-1.18.79-1.71a20.91,20.91,0,0,0,.83-3A27.45,27.45,0,0,1,74.11,56.08Zm24.74,47.38.09.46a23.41,23.41,0,0,0,1.56,5.54,17,17,0,0,1,1.44,7.21c-.15-.17-.33-.4-.5-.61a18.62,18.62,0,0,0-3.83-3.79c-.35-.25-.72-.49-1.12-.72a3.61,3.61,0,0,0-.39-.22c-.32-.18-.65-.35-1-.51l-5.23-2.35a.37.37,0,0,0-.18,0,5,5,0,0,0-3.48,2l-.5.61c.81-1.75,1.67-3.55,2.41-4.78,1.58-2.64,3.2-7.61,2.93-10.07a4.73,4.73,0,0,1,.59-2.57,9.85,9.85,0,0,1,.94-1.52,3.63,3.63,0,0,0,.61.27c.25.08.56.17,1,.26a7,7,0,0,1,2.2.84,3.22,3.22,0,0,1,1,.93l0,.05a1.71,1.71,0,0,0-.07.18c-.16.46-.28,1.43.5,4.46.14.55.26,1.06.38,1.55C98.49,101.68,98.68,102.61,98.85,103.46Z"/><path class="cls-1" d="M64.07,121.37h-.32c0,.17.06.33.09.46C63.91,121.68,64,121.53,64.07,121.37Z"/></g></svg>