<?xml version="1.0" encoding="utf-8"?>
<!-- Generator: Adobe Illustrator 24.3.0, SVG Export Plug-In . SVG Version: 6.00 Build 0)  -->
<svg version="1.1" xmlns="http://www.w3.org/2000/svg" xmlns:xlink="http://www.w3.org/1999/xlink" x="0px" y="0px"
	 viewBox="0 0 150 150" style="enable-background:new 0 0 150 150;" xml:space="preserve">
<style type="text/css">
	.st0{fill:#FFFFFF;}
	.st1{fill:#F1748A;}
	.st2{fill:#C5E9F9;}
	.st3{fill:#FFD1C2;}
	.st4{fill:#231411;}
	.st5{fill:#1C2021;}
	.st6{fill:#F78271;}
	.st7{fill:#853C2B;}
	.st8{fill:#FECA9A;}
	.st9{fill:#FFB260;}
	.st10{fill:#0094B9;}
	.st11{fill:#B3B3B3;}
	.st12{fill:none;stroke:#1C2021;stroke-width:34.5058;stroke-miterlimit:10;}
	.st13{fill:none;stroke:#1C2021;stroke-width:2.2891;stroke-miterlimit:10;}
	.st14{fill:none;stroke:#1C2021;stroke-width:2.7327;stroke-miterlimit:10;}
	.st15{fill:#E7EBEF;}
	.st16{fill:#8A90A5;}
	.st17{fill:#FFFFFF;stroke:#000000;stroke-width:0.4371;stroke-miterlimit:10;}
	.st18{fill:none;stroke:#1C2021;stroke-width:2.2571;stroke-miterlimit:10;}
	.st19{fill:#CCCCCC;}
	.st20{fill:none;stroke:#1C2021;stroke-width:2.1705;stroke-miterlimit:10;}
	.st21{clip-path:url(#SVGID_2_);}
	.st22{clip-path:url(#SVGID_4_);fill:#FDD56F;}
	.st23{fill:none;}
	.st24{fill:#FFEEDA;}
	.st25{fill:#562D24;}
	.st26{fill:none;stroke:#1C2021;stroke-width:7.0401;stroke-miterlimit:10;}
	.st27{fill:none;stroke:#1C2021;stroke-width:4.7187;stroke-miterlimit:10;}
</style>
<g id="Layer_2">
</g>
<g id="Layer_1">
	<g>
		<path class="st0" d="M14.4,148.8c-7.3,0-13.2-5.9-13.2-13.2V14.4c0-7.3,5.9-13.2,13.2-13.2h121.2c7.3,0,13.2,5.9,13.2,13.2v121.2
			c0,7.3-5.9,13.2-13.2,13.2H14.4z"/>
		<path class="st1" d="M135.6,2.4c6.6,0,12,5.4,12,12v121.2c0,6.6-5.4,12-12,12H14.4c-6.6,0-12-5.4-12-12V14.4c0-6.6,5.4-12,12-12
			H135.6 M135.6,0H14.4C6.5,0,0,6.5,0,14.4v121.2c0,7.9,6.5,14.4,14.4,14.4h121.2c7.9,0,14.4-6.5,14.4-14.4V14.4
			C150,6.5,143.5,0,135.6,0L135.6,0z"/>
	</g>
	<g>
		<g>
			<path class="st1" d="M20.1,126.9h5.4c1.5,0,2.7,0.4,3.5,1.2c0.7,0.7,1,1.6,1,2.7v0c0,1.9-1,3.1-2.5,3.7l2.9,4.2h-3.1l-2.5-3.8
				h-2.1v3.8h-2.6V126.9z M25.4,132.7c1.3,0,2-0.7,2-1.7v0c0-1.1-0.8-1.7-2.1-1.7h-2.6v3.4H25.4z"/>
			<path class="st1" d="M31.5,134.3L31.5,134.3c0-2.6,1.9-4.8,4.5-4.8c3,0,4.4,2.4,4.4,4.9c0,0.2,0,0.4,0,0.7h-6.3
				c0.3,1.2,1.1,1.8,2.2,1.8c0.9,0,1.5-0.3,2.2-0.9l1.5,1.3c-0.9,1.1-2.1,1.7-3.7,1.7C33.5,139,31.5,137.1,31.5,134.3z M37.9,133.5
				c-0.2-1.2-0.8-1.9-1.9-1.9c-1.1,0-1.8,0.8-2,1.9H37.9z"/>
			<path class="st1" d="M42.4,129.7h2.6v1.3c0.6-0.8,1.4-1.5,2.7-1.5c2,0,3.1,1.3,3.1,3.4v5.9h-2.6v-5.1c0-1.2-0.6-1.9-1.6-1.9
				s-1.6,0.6-1.6,1.9v5.1h-2.6V129.7z"/>
			<path class="st1" d="M52.5,134.3L52.5,134.3c0-2.6,1.9-4.8,4.5-4.8c3,0,4.4,2.4,4.4,4.9c0,0.2,0,0.4,0,0.7h-6.3
				c0.3,1.2,1.1,1.8,2.2,1.8c0.9,0,1.5-0.3,2.2-0.9l1.5,1.3c-0.9,1.1-2.1,1.7-3.7,1.7C54.5,139,52.5,137.1,52.5,134.3z M58.9,133.5
				c-0.2-1.2-0.8-1.9-1.9-1.9c-1.1,0-1.8,0.8-2,1.9H58.9z M57.8,125.7l2.2,1l-2.2,2H56L57.8,125.7z"/>
			<path class="st1" d="M68.7,126.9h2.8l3.1,5l3.1-5h2.8v11.9H78v-7.8l-3.3,5.1h-0.1l-3.3-5v7.7h-2.6V126.9z"/>
			<path class="st1" d="M82.8,134.3L82.8,134.3c0-2.7,2.1-4.8,4.9-4.8c2.8,0,4.9,2.1,4.9,4.7v0c0,2.6-2.1,4.7-4.9,4.7
				C84.9,139,82.8,136.9,82.8,134.3z M90.1,134.3L90.1,134.3c0-1.4-1-2.5-2.4-2.5c-1.5,0-2.4,1.1-2.4,2.5v0c0,1.3,1,2.5,2.4,2.5
				C89.2,136.8,90.1,135.7,90.1,134.3z"/>
			<path class="st1" d="M94.5,129.7h2.6v1.8c0.5-1.3,1.4-2.1,2.9-2v2.7h-0.1c-1.7,0-2.8,1-2.8,3.2v3.4h-2.6V129.7z"/>
			<path class="st1" d="M100.9,134.3L100.9,134.3c0-2.6,1.9-4.8,4.5-4.8c3,0,4.4,2.4,4.4,4.9c0,0.2,0,0.4,0,0.7h-6.3
				c0.3,1.2,1.1,1.8,2.2,1.8c0.9,0,1.5-0.3,2.2-0.9l1.5,1.3c-0.9,1.1-2.1,1.7-3.7,1.7C102.9,139,100.9,137.1,100.9,134.3z
				 M107.3,133.5c-0.2-1.2-0.8-1.9-1.9-1.9c-1.1,0-1.8,0.8-2,1.9H107.3z"/>
			<path class="st1" d="M111.8,129.7h2.6v1.3c0.6-0.8,1.4-1.5,2.7-1.5c2,0,3.1,1.3,3.1,3.4v5.9h-2.6v-5.1c0-1.2-0.6-1.9-1.6-1.9
				s-1.6,0.6-1.6,1.9v5.1h-2.6V129.7z"/>
			<path class="st1" d="M121.9,134.3L121.9,134.3c0-2.7,2.1-4.8,4.9-4.8c2.8,0,4.9,2.1,4.9,4.7v0c0,2.6-2.1,4.7-4.9,4.7
				C124,139,121.9,136.9,121.9,134.3z M129.2,134.3L129.2,134.3c0-1.4-1-2.5-2.4-2.5c-1.5,0-2.4,1.1-2.4,2.5v0c0,1.3,1,2.5,2.4,2.5
				C128.4,136.8,129.2,135.7,129.2,134.3z"/>
		</g>
	</g>
	<g>
		<g>
			<g>
				<path class="st8" d="M60.8,9.7c0,0-15.3,6.6-15.3,21.2s0.3,15.8,0.3,15.8s-6-7.2-5.9-1.3s3.7,12.8,7.6,17S53,69.7,53.3,73
					c0.3,3.2,3.7,9.1,3.7,9.1l23.8,0.7c0,0,15.1-2.9,14.1-3.5c-1-0.6-0.4-9.1,0-11.7s2.9-0.1,5-5c2.1-4.8,8.5-21.4,5.9-22
					c-2.6-0.6-4.6,1.8-4.6,1.8s1.6-11.5-0.3-14.6c-1.9-3.1-5.4-19-17.3-19.7S60.8,9.7,60.8,9.7z"/>
				<path class="st5" d="M96.6,63.9L96.6,63.9c-0.3,0-0.5-0.3-0.5-0.5c0-0.1,0.3-2.2,3.1-4.8c2.5-2.3,3.2-6.3,1.7-8.5
					c-2.7-3.8-1.3-7.4-1.2-7.6c0.1-0.2,0.4-0.4,0.6-0.3c0.2,0.1,0.4,0.4,0.3,0.6c-0.1,0.1-1.3,3.3,1.1,6.7c1.8,2.6,1,7-1.8,9.7
					c-2.5,2.3-2.8,4.2-2.8,4.2C97,63.7,96.8,63.9,96.6,63.9z"/>
				<path class="st5" d="M94.8,75.3C94.8,75.3,94.7,75.3,94.8,75.3c-0.4-0.1-0.5-0.3-0.5-0.6c0-0.2,0.1-0.8,0.1-1.5
					c0.1-2.3,0.2-6.1,1-7.7c1-2,2.6-10.8,2.6-10.9c0-0.3,0.3-0.4,0.6-0.4c0.3,0,0.4,0.3,0.4,0.6c-0.1,0.4-1.6,9.1-2.7,11.1
					c-0.7,1.4-0.8,5.3-0.9,7.3c0,1,0,1.4-0.1,1.6C95.2,75.1,95,75.3,94.8,75.3z"/>
				<path class="st5" d="M49,58.3c-0.1,0-0.2,0-0.3-0.1c-5-4.2-4-6.3-2.5-9.1c0.2-0.3,0.3-0.6,0.5-1c1.6-3.2,1.6-7.2,1.6-7.3
					c0-0.3,0.2-0.5,0.5-0.5s0.5,0.2,0.5,0.5c0,0.2,0,4.3-1.7,7.7c-0.2,0.4-0.3,0.7-0.5,1c-1.4,2.7-2.2,4.3,2.3,8
					c0.2,0.2,0.2,0.5,0.1,0.7C49.3,58.2,49.1,58.3,49,58.3z"/>
				<path class="st5" d="M53.8,77.6C53.8,77.6,53.8,77.6,53.8,77.6c-0.3,0-0.5-0.3-0.5-0.6c0.2-1.1-0.4-3.6-1.1-7
					c-0.4-1.7-0.8-3.7-1.2-5.9c-1.3-6.7-1.5-8.8-1.5-8.9c0-0.3,0.2-0.5,0.4-0.5c0.3,0,0.5,0.2,0.5,0.4c0,0,0.2,2.1,1.5,8.8
					c0.4,2.2,0.9,4.1,1.2,5.9c0.8,3.7,1.3,6.1,1.1,7.4C54.3,77.5,54.1,77.6,53.8,77.6z"/>
				<path class="st5" d="M74.8,66.7c-1.3,0-2-0.6-2.8-1.4c-0.5-0.5-1.1-1-2-1.5c-1.6-0.9-2.7-0.4-3.8,0.1c-0.6,0.3-1.2,0.5-1.7,0.5
					c-0.7,0-1.2-0.3-1.4-0.8c-0.4-0.9,0.1-2.3,1.2-3.3c0.6-0.6,1.2-1.6,2.1-2.9c1.1-1.7,2.6-4,4.9-6.8c3.9-4.7,1.3-9,1.3-9
					c-0.1-0.2-0.1-0.5,0.2-0.7c0.2-0.1,0.5-0.1,0.7,0.2c0,0,2.9,4.9-1.4,10.1c-2.3,2.8-3.8,5.1-4.9,6.7c-0.9,1.4-1.5,2.3-2.2,3
					c-0.9,0.9-1.2,1.8-1,2.3c0,0.1,0.1,0.3,0.5,0.3c0.4,0,0.8-0.2,1.4-0.4c1.1-0.5,2.6-1.2,4.6-0.1c1,0.5,1.6,1.1,2.2,1.6
					c1,0.9,1.6,1.4,3.1,1c1.2-0.3,2.2-1,3.1-1.7c0.9-0.7,1.7-1.4,2.8-1.4c0.8,0,1.7,0.4,2.6,0.9c0.8,0.4,1.7,0.8,2,0.7
					c0,0,0.1,0,0.1-0.2c0.4-1.2-1.1-2.9-2.4-4.4l-0.9-1c-2.3-2.8-4.3-5.1-4.3-6.3c0-0.3,0.2-0.5,0.5-0.5s0.5,0.2,0.5,0.5
					c0,0.9,2.7,4.2,4,5.7l0.9,1c1.6,1.8,3.2,3.7,2.6,5.4c-0.2,0.5-0.5,0.7-0.7,0.7c-0.7,0.3-1.7-0.2-2.8-0.7
					c-0.8-0.4-1.6-0.8-2.2-0.8c-0.7,0-1.4,0.5-2.2,1.2c-0.9,0.7-2,1.6-3.4,1.9C75.4,66.7,75.1,66.7,74.8,66.7z"/>
				<path class="st5" d="M52.7,70.5c-0.8,0-1.3-0.9-2-2.1c-0.5-0.9-1.1-1.9-1.9-2.9c-1.6-1.9-5.6-6.7-7.4-11.9c-1.8-4.9-3-8.5-2-10
					c0.3-0.4,0.6-0.6,1.1-0.6c2.4-0.2,5.3,4.1,5.6,4.6c0.1,0.2,0.1,0.5-0.1,0.7c-0.2,0.1-0.5,0.1-0.7-0.1c-1.1-1.7-3.4-4.3-4.7-4.2
					c-0.2,0-0.3,0.1-0.4,0.2c-0.8,1.2,1,6,2.1,9.1c1.8,5,5.7,9.8,7.3,11.6c0.9,1,1.5,2.2,2,3.1c0.4,0.7,0.9,1.6,1.2,1.6
					c0.3,0,0.5,0.2,0.5,0.5S52.9,70.5,52.7,70.5z"/>
				<path class="st5" d="M96.7,66.2c-0.2,0-0.3-0.1-0.4-0.3c-0.1-0.2,0-0.5,0.2-0.6c2.5-1.2,3.1-1.8,3.9-4.7c0.6-2.6,1.9-5.6,2.9-8
					l0.5-1.1c1.3-3.3,3-8.8,2.4-10.3c-0.1-0.2-0.2-0.2-0.2-0.2c-1.2-0.5-3.4,2.2-4.3,3.5c-0.1,0.2-0.4,0.3-0.7,0.1
					c-0.2-0.1-0.3-0.4-0.1-0.7c0.3-0.5,3.2-4.7,5.4-3.9c0.2,0.1,0.5,0.3,0.7,0.8c1.1,2.5-2.3,11-2.4,11l-0.5,1.1
					c-1,2.4-2.3,5.4-2.9,7.9c-0.8,3.1-1.6,3.9-4.4,5.3C96.9,66.2,96.8,66.2,96.7,66.2z"/>
				<g>
					<path class="st0" d="M66.3,43.7c-3.2-1.5-8.4-2.3-10.9,0.4c-2.5,2.8,6.9,2.5,8.8,1.5C66.2,44.5,67.2,44.1,66.3,43.7z"/>
					<path class="st5" d="M59.3,47c-2.1,0-4.2-0.4-4.6-1.5c-0.1-0.4-0.3-1.1,0.5-2c2.8-3.1,8.3-2,11.3-0.5c0.2,0.1,0.6,0.3,0.6,1
						c0,0.8-0.5,1.1-2,1.9l-0.7,0.4C63.7,46.6,61.5,47,59.3,47z M60.4,43c-1.9,0-3.6,0.5-4.7,1.7c-0.2,0.2-0.2,0.3-0.2,0.3
						c0.5,0.8,6.9,0.9,8.6-0.1l0.7-0.4c0.3-0.2,0.6-0.3,0.8-0.5C64,43.4,62.1,43,60.4,43z"/>
				</g>
				<path class="st5" d="M60.4,42.2c0,0-2.4,4.1,0.7,4.1S63.2,41.9,60.4,42.2z"/>
				<path class="st5" d="M60.1,40.6c4.5-0.2,6.9-0.4,8.8,0.6c1.9,1,2.6-0.3,1.2-2.3c-1.5-2.1-6.2-3.1-10.3-2.8s-3.5-0.3-7.3,2.6
					c-3.8,2.9-2.6,5.7-1.2,4.4C52.8,41.8,57.1,40.7,60.1,40.6z"/>
				<path class="st5" d="M73.8,40.3c-0.1,0-0.2,0-0.3-0.1c-1.8-1.6-0.8-5.9-0.7-6c0.1-0.3,0.3-0.4,0.6-0.3c0.3,0.1,0.4,0.3,0.3,0.6
					c-0.3,1.1-0.7,4.1,0.4,5.1c0.2,0.2,0.2,0.5,0,0.7C74.1,40.3,73.9,40.3,73.8,40.3z"/>
				<path class="st5" d="M75.7,40.6c-0.2,0-0.3-0.1-0.4-0.3c-0.7-1.4-0.9-2.6-0.5-3.4c0.3-0.7,0.7-0.9,0.8-0.9
					c0.2-0.1,0.5,0,0.6,0.3c0.1,0.2,0,0.5-0.3,0.6c-0.3,0.2-0.7,1,0.2,3c0.1,0.2,0,0.5-0.2,0.6C75.8,40.6,75.8,40.6,75.7,40.6z"/>
				<path class="st5" d="M78.6,40.5c0,0-0.6-2.8,4.7-4.4c5.3-1.6,6.9-1.8,9.8,0.4c2.9,2.2,5.4,6.3,4.3,6.3c-1.2,0-3.7-2.8-6.6-2.8
					s-4.6,0-7.2,0.9C81,41.8,78.5,42.5,78.6,40.5z"/>
				<g>
					<path class="st0" d="M81.3,43.9c-0.7-0.3,5.5-2.5,9.1-1.7c2.8,0.6,0.7,3.6-3.2,4.2C83.2,47.1,82.6,44.4,81.3,43.9z"/>
					<path class="st5" d="M86,47.2c-2.1,0-3.1-1.1-3.9-1.9c-0.3-0.4-0.6-0.7-0.9-0.8c-0.2-0.1-0.4-0.5-0.4-0.9
						c0.2-1.4,7.1-2.7,9.7-2.2c1.5,0.3,1.7,1.3,1.7,1.9c0,1.7-2.1,3.3-4.9,3.7C86.8,47.2,86.4,47.2,86,47.2z M82.4,43.9
						c0.1,0.1,0.2,0.2,0.3,0.3c0.9,0.9,1.8,1.9,4.4,1.5c2-0.3,3.5-1.3,4-2.1c0.1-0.2,0.1-0.3,0.1-0.3c0-0.1-0.2-0.3-0.9-0.5
						C87.9,42.3,84.1,43.2,82.4,43.9z"/>
				</g>
				<path class="st5" d="M84.1,43c0,0-1,4,2.2,3C89.5,44.9,86.9,40.7,84.1,43z"/>
				<path class="st5" d="M54.9,101.4C54.8,101.4,54.8,101.4,54.9,101.4c-0.3-0.1-0.5-0.3-0.5-0.6c0,0,0.6-3.1,1-6.4
					c0.4-3.3-0.1-6.4-0.1-6.5c0-0.3,0.1-0.5,0.4-0.6c0.3,0,0.5,0.1,0.6,0.4c0,0.1,0.6,3.3,0.2,6.8c-0.4,3.4-1,6.5-1,6.5
					C55.3,101.3,55.1,101.4,54.9,101.4z"/>
				<path class="st5" d="M95.4,97.8c-0.1,0-0.3-0.1-0.4-0.2c-1.3-1.4-1-6.3-1-6.8c0-0.3,0.2-0.5,0.5-0.4c0.3,0,0.5,0.2,0.4,0.5
					c-0.1,1.9,0,5.3,0.8,6.1c0.2,0.2,0.2,0.5,0,0.7C95.6,97.7,95.5,97.8,95.4,97.8z"/>
				<g>
					<path class="st0" d="M50.7,101.3c-0.1-3.4,1.6-6.8,3.2-7.3c0,0-2.5,2.1-0.1,5.1c2.3,3.1,3.2,2.8,5.9,4.6c2.6,1.8,5.4,3.5,8.2,4
						c2.8,0.4,6,0.4,7.3,1.3"/>
					<path class="st5" d="M79.1,109.6c0.5,0.3,6.2,1.5,7.1,1.2c0.8-0.3,2.1-1.7,2.9-2.8c0.9-1.1,2.1-1,1.2,0.3
						c-0.9,1.3-1,1.7-3.1,3.2c-2.1,1.5-10.3-1.6-12.2-2.3c-0.9-0.3-2.6-0.7-4.5-0.9c-0.9-0.1-1.8-0.2-2.7-0.3
						c-2.8-0.4-5.6-2.2-8.4-4c-0.8-0.5-1.4-0.9-1.9-1.2c-1.4-0.7-2.3-1.3-4-3.5c-0.9-1.1-1.1-2.2-1.1-3c-0.7,1.3-1.6,2.3-1.5,4.1
						l-1,0c-0.2-3.7,2.1-6.4,3.9-7c0.2-0.1,0.5,0,0.6,0.2c0.1,0.2,0.1,0.5-0.1,0.6c-0.1,0.1-2.1,1.8-0.1,4.5
						c1.6,2.1,2.4,2.5,3.7,3.2c0.6,0.3,1.2,0.7,2,1.2c2.7,1.8,5.4,3.5,8,3.9c0.9,0.1,1.8,0.2,2.6,0.3c2.1,0.2,3.2,0.5,4.4,0.8
						C76.6,108.6,78.6,109.3,79.1,109.6z"/>
				</g>
				<g>
					<path class="st0" d="M89.5,108.3c2.9-3.5,6.8-7.6,6.5-11.5c0,0,3.8,0.6,4.1,1.8"/>
					<path class="st5" d="M89.1,108l0.8-1c2.7-3.2,5.8-6.9,5.5-10.1c0-0.1,0-0.3,0.2-0.4c0.1-0.1,0.3-0.1,0.4-0.1
						c1,0.2,4.2,0.7,4.5,2.1c0,0,0.5,2.5,0.2,2.8s-1.7,1.2-1.3,0.1s0.8-1.5,0.2-2.7c-0.2-0.4-1.7-1-3.2-1.3c-0.1,3.5-3.1,7-5.8,10.2
						l-0.8,1C89.6,109,88.3,109,89.1,108z"/>
				</g>
				<path class="st5" d="M49.1,101.4c0,0-0.3,0-1.1,0.1c-2.2,0.2-8.1,1.2-15.5,5.4c-7.1,4-11.9,3.2-12.1,3.1c-0.3,0-0.4-0.3-0.4-0.6
					c0-0.3,0.3-0.4,0.6-0.4c0,0,4.6,0.8,11.4-3c7.3-4.1,13.1-5.2,15.9-5.5c1.1-0.1,1.6-0.1,1.9,0.3L49.1,101.4z"/>
				<path class="st5" d="M48.8,101.4c-0.2,0-0.3-0.1-0.4-0.2c-0.1-0.2-0.1-0.5,0.1-0.7l1.6-1c0.2-0.1,0.5-0.1,0.7,0.1
					c0.1,0.2,0.1,0.5-0.1,0.7l-1.6,1C49,101.4,48.9,101.4,48.8,101.4z"/>
				<path class="st5" d="M99.9,102c-0.3-0.3-0.5-0.6-0.5-1c0-0.2,0.2-0.4,0.5-0.5c1.1-0.5,4.2,0.1,4.5,0.1c0,0,5.2,0.4,10.3,1.3
					c1.2,0.2,2.6,0.4,3.9,0.6c4.3,0.7,8.8,1.4,10.4,2c0.2,0.1,0.4,0.4,0.3,0.6c-0.1,0.2-0.4,0.4-0.6,0.3c-1.5-0.5-6-1.3-10.2-2
					c-1.4-0.2-2.7-0.4-3.9-0.7c-5.1-0.9-10.2-1.3-10.2-1.3c-1.1-0.2-2.9-0.4-3.7-0.3l0,0L99.9,102z"/>
				<path class="st0" d="M63.1,43.1c-0.9,0-0.9,2.2,0,2.2C63.9,45.3,63.9,43.1,63.1,43.1z"/>
				<path class="st0" d="M87.3,43.1c-0.9,0-0.9,2.2,0,2.2C88.2,45.3,88.2,43.1,87.3,43.1z"/>
			</g>
			<path class="st13" d="M46,47.5c0,0-1.6-13.8,1.2-23.5S58,8,74.3,8s26.5,7.2,27.5,20.1c0.9,12.9,0.1,15.1,0.1,15.1"/>
			<path class="st5" d="M99.4,57L98,56.1c0,0-5.3,16-6.8,17.7c-3.7,4.1,5.4,4.4,5.4,4.4s1.4-2.9,0.8-4s0.9-1,0.4-2.7
				c-0.5-1.6,1-1.6,0.6-2.9c-0.3-1.3,1-3.6,0.6-4.4C98.5,63.3,98.9,57.5,99.4,57z"/>
			<path class="st5" d="M49.4,55.5l1.4-0.9c0,0,5.3,16,6.8,17.7c3.7,4.1-3.2,7.3-3.2,7.3s-3.6-5.8-3-7c0.7-1.2-0.9-1-0.4-2.7
				c0.5-1.6-1-1.6-0.6-2.9c0.3-1.3-1-3.6-0.6-4.4C50.3,61.9,49.9,56,49.4,55.5z"/>
			<g>
				<g>
					<g>
						<path class="st5" d="M52.5,19.3c1.5,0,1.5-2.4,0-2.4C51,16.9,51,19.3,52.5,19.3L52.5,19.3z"/>
					</g>
				</g>
				<g>
					<g>
						<path class="st5" d="M51.1,19.8c1.5,0,1.5-2.4,0-2.4C49.6,17.4,49.6,19.8,51.1,19.8L51.1,19.8z"/>
					</g>
				</g>
				<g>
					<g>
						<path class="st5" d="M51.9,18c1.5,0,1.5-2.4,0-2.4C50.4,15.7,50.4,18,51.9,18L51.9,18z"/>
					</g>
				</g>
				<g>
					<g>
						<path class="st5" d="M53.8,16.1c1.5,0,1.5-2.4,0-2.4C52.3,13.8,52.3,16.1,53.8,16.1L53.8,16.1z"/>
					</g>
				</g>
				<g>
					<g>
						<path class="st5" d="M54.7,17.9c1.5,0,1.5-2.4,0-2.4C53.2,15.5,53.2,17.9,54.7,17.9L54.7,17.9z"/>
					</g>
				</g>
				<g>
					<g>
						<path class="st5" d="M49.8,23.2c1.5,0,1.5-2.4,0-2.4C48.3,20.8,48.3,23.2,49.8,23.2L49.8,23.2z"/>
					</g>
				</g>
				<g>
					<g>
						<path class="st5" d="M48.9,29.5c1.5,0,1.5-2.4,0-2.4C47.3,27.1,47.3,29.5,48.9,29.5L48.9,29.5z"/>
					</g>
				</g>
				<g>
					<g>
						<path class="st5" d="M46.7,37.8c1.5,0,1.5-2.4,0-2.4C45.2,35.4,45.2,37.8,46.7,37.8L46.7,37.8z"/>
					</g>
				</g>
				<g>
					<g>
						<path class="st5" d="M47.2,34.2c1.5,0,1.5-2.4,0-2.4C45.7,31.8,45.7,34.2,47.2,34.2L47.2,34.2z"/>
					</g>
				</g>
				<g>
					<g>
						<path class="st5" d="M47,35.8c1.5,0,1.5-2.4,0-2.4C45.5,33.5,45.5,35.8,47,35.8L47,35.8z"/>
					</g>
				</g>
				<g>
					<g>
						<path class="st5" d="M47.9,33.4c1.5,0,1.5-2.4,0-2.4C46.4,31.1,46.4,33.4,47.9,33.4L47.9,33.4z"/>
					</g>
				</g>
				<g>
					<g>
						<path class="st5" d="M48.1,32c1.5,0,1.5-2.4,0-2.4C46.6,29.7,46.6,32,48.1,32L48.1,32z"/>
					</g>
				</g>
				<g>
					<g>
						<path class="st5" d="M47.1,32.5c1.5,0,1.5-2.4,0-2.4C45.6,30.1,45.6,32.5,47.1,32.5L47.1,32.5z"/>
					</g>
				</g>
				<g>
					<g>
						<path class="st5" d="M47.6,30.5c1.5,0,1.5-2.4,0-2.4C46,28.2,46,30.5,47.6,30.5L47.6,30.5z"/>
					</g>
				</g>
				<g>
					<g>
						<path class="st5" d="M48.4,31.1c1.5,0,1.5-2.4,0-2.4C46.9,28.7,46.9,31.1,48.4,31.1L48.4,31.1z"/>
					</g>
				</g>
				<g>
					<g>
						<path class="st5" d="M50,28.5c1.5,0,1.5-2.4,0-2.4C48.5,26.1,48.5,28.5,50,28.5L50,28.5z"/>
					</g>
				</g>
				<g>
					<g>
						<path class="st5" d="M48.9,27.7c1.5,0,1.5-2.4,0-2.4C47.3,25.3,47.3,27.7,48.9,27.7L48.9,27.7z"/>
					</g>
				</g>
				<g>
					<g>
						<path class="st5" d="M49.6,25.3c1.5,0,1.5-2.4,0-2.4C48.1,23,48.1,25.3,49.6,25.3L49.6,25.3z"/>
					</g>
				</g>
				<g>
					<g>
						<path class="st5" d="M49.8,27c1.5,0,1.5-2.4,0-2.4C48.3,24.6,48.3,27,49.8,27L49.8,27z"/>
					</g>
				</g>
				<g>
					<g>
						<path class="st5" d="M51.1,25.7c1.5,0,1.5-2.4,0-2.4C49.6,23.3,49.6,25.7,51.1,25.7L51.1,25.7z"/>
					</g>
				</g>
				<g>
					<g>
						<path class="st5" d="M48.6,26c1.5,0,1.5-2.4,0-2.4C47.1,23.6,47.1,26,48.6,26L48.6,26z"/>
					</g>
				</g>
				<g>
					<g>
						<path class="st5" d="M47.9,28.8c1.5,0,1.5-2.4,0-2.4C46.4,26.4,46.4,28.8,47.9,28.8L47.9,28.8z"/>
					</g>
				</g>
				<g>
					<g>
						<path class="st5" d="M51.1,23.9c1.5,0,1.5-2.4,0-2.4C49.6,21.6,49.6,23.9,51.1,23.9L51.1,23.9z"/>
					</g>
				</g>
				<g>
					<g>
						<path class="st5" d="M51.2,21.2c1.5,0,1.5-2.4,0-2.4C49.7,18.9,49.7,21.2,51.2,21.2L51.2,21.2z"/>
					</g>
				</g>
				<g>
					<g>
						<path class="st5" d="M50.2,21.7c1.5,0,1.5-2.4,0-2.4C48.6,19.3,48.6,21.7,50.2,21.7L50.2,21.7z"/>
					</g>
				</g>
				<g>
					<g>
						<path class="st5" d="M48.9,23.9c1.5,0,1.5-2.4,0-2.4C47.3,21.6,47.3,23.9,48.9,23.9L48.9,23.9z"/>
					</g>
				</g>
				<g>
					<g>
						<path class="st5" d="M51.9,22.1c1.5,0,1.5-2.4,0-2.4C50.4,19.7,50.4,22.1,51.9,22.1L51.9,22.1z"/>
					</g>
				</g>
				<g>
					<g>
						<path class="st5" d="M53.8,20.7c1.5,0,1.5-2.4,0-2.4C52.3,18.3,52.3,20.7,53.8,20.7L53.8,20.7z"/>
					</g>
				</g>
				<g>
					<g>
						<path class="st5" d="M57,15.6c1.5,0,1.5-2.4,0-2.4C55.4,13.2,55.4,15.6,57,15.6L57,15.6z"/>
					</g>
				</g>
				<g>
					<g>
						<path class="st5" d="M58.6,13.6c1.5,0,1.5-2.4,0-2.4C57.1,11.2,57.1,13.6,58.6,13.6L58.6,13.6z"/>
					</g>
				</g>
				<g>
					<g>
						<path class="st5" d="M68.7,11.8c1.5,0,1.5-2.4,0-2.4C67.2,9.5,67.2,11.8,68.7,11.8L68.7,11.8z"/>
					</g>
				</g>
				<g>
					<g>
						<path class="st5" d="M71.3,12.7c1.5,0,1.5-2.4,0-2.4C69.8,10.3,69.8,12.7,71.3,12.7L71.3,12.7z"/>
					</g>
				</g>
				<g>
					<g>
						<path class="st5" d="M73.9,13.4c1.5,0,1.5-2.4,0-2.4C72.4,11.1,72.4,13.4,73.9,13.4L73.9,13.4z"/>
					</g>
				</g>
				<g>
					<g>
						<path class="st5" d="M76.5,12.7c1.5,0,1.5-2.4,0-2.4C75,10.3,75,12.7,76.5,12.7L76.5,12.7z"/>
					</g>
				</g>
				<g>
					<g>
						<path class="st5" d="M79.2,11.6c1.5,0,1.5-2.4,0-2.4C77.7,9.2,77.7,11.6,79.2,11.6L79.2,11.6z"/>
					</g>
				</g>
				<g>
					<g>
						<path class="st5" d="M81.4,11.4c1.5,0,1.5-2.4,0-2.4C79.9,9,79.9,11.4,81.4,11.4L81.4,11.4z"/>
					</g>
				</g>
				<g>
					<g>
						<path class="st5" d="M88.2,13.2c1.5,0,1.5-2.4,0-2.4C86.7,10.9,86.7,13.2,88.2,13.2L88.2,13.2z"/>
					</g>
				</g>
				<g>
					<g>
						<path class="st5" d="M90,14.2c1.5,0,1.5-2.4,0-2.4C88.5,11.8,88.5,14.2,90,14.2L90,14.2z"/>
					</g>
				</g>
				<g>
					<g>
						<path class="st5" d="M89.4,13.1c1.5,0,1.5-2.4,0-2.4C87.9,10.7,87.9,13.1,89.4,13.1L89.4,13.1z"/>
					</g>
				</g>
				<g>
					<g>
						<path class="st5" d="M92.7,15.9c1.5,0,1.5-2.4,0-2.4C91.2,13.6,91.2,15.9,92.7,15.9L92.7,15.9z"/>
					</g>
				</g>
				<g>
					<g>
						<path class="st5" d="M95.1,18.5c1.5,0,1.5-2.4,0-2.4C93.6,16.2,93.6,18.5,95.1,18.5L95.1,18.5z"/>
					</g>
				</g>
				<g>
					<g>
						<path class="st5" d="M95.4,17.2c1.5,0,1.5-2.4,0-2.4C93.9,14.8,93.9,17.2,95.4,17.2L95.4,17.2z"/>
					</g>
				</g>
				<g>
					<g>
						<path class="st5" d="M97.1,20.7c1.5,0,1.5-2.4,0-2.4C95.6,18.3,95.5,20.7,97.1,20.7L97.1,20.7z"/>
					</g>
				</g>
				<g>
					<g>
						<path class="st5" d="M97.2,24.5c1.5,0,1.5-2.4,0-2.4C95.7,22.1,95.7,24.5,97.2,24.5L97.2,24.5z"/>
					</g>
				</g>
				<g>
					<g>
						<path class="st5" d="M97.2,26.8c1.5,0,1.5-2.4,0-2.4C95.7,24.5,95.7,26.8,97.2,26.8L97.2,26.8z"/>
					</g>
				</g>
				<g>
					<g>
						<path class="st5" d="M97.8,30.6c1.5,0,1.5-2.4,0-2.4C96.3,28.3,96.3,30.6,97.8,30.6L97.8,30.6z"/>
					</g>
				</g>
				<g>
					<g>
						<path class="st5" d="M98.6,33.6c1.5,0,1.5-2.4,0-2.4C97.1,31.2,97.1,33.6,98.6,33.6L98.6,33.6z"/>
					</g>
				</g>
				<g>
					<g>
						<path class="st5" d="M99.6,35.9c1.5,0,1.5-2.4,0-2.4C98,33.6,98,35.9,99.6,35.9L99.6,35.9z"/>
					</g>
				</g>
				<g>
					<g>
						<path class="st5" d="M99.8,39.2c1.5,0,1.5-2.4,0-2.4C98.3,36.8,98.3,39.2,99.8,39.2L99.8,39.2z"/>
					</g>
				</g>
				<g>
					<g>
						<path class="st5" d="M100.2,41.6c1.5,0,1.5-2.4,0-2.4C98.7,39.2,98.7,41.6,100.2,41.6L100.2,41.6z"/>
					</g>
				</g>
				<g>
					<g>
						<path class="st5" d="M100.9,38.6c1.5,0,1.5-2.4,0-2.4C99.3,36.2,99.3,38.6,100.9,38.6L100.9,38.6z"/>
					</g>
				</g>
				<g>
					<g>
						<path class="st5" d="M100.7,39.9c1.5,0,1.5-2.4,0-2.4C99.2,37.6,99.2,39.9,100.7,39.9L100.7,39.9z"/>
					</g>
				</g>
				<g>
					<g>
						<path class="st5" d="M100.5,37.6c1.5,0,1.5-2.4,0-2.4C99,35.2,99,37.6,100.5,37.6L100.5,37.6z"/>
					</g>
				</g>
				<g>
					<g>
						<path class="st5" d="M100.7,35.5c1.5,0,1.5-2.4,0-2.4C99.2,33.1,99.2,35.5,100.7,35.5L100.7,35.5z"/>
					</g>
				</g>
				<g>
					<g>
						<path class="st5" d="M99.7,34.2c1.5,0,1.5-2.4,0-2.4C98.1,31.8,98.1,34.2,99.7,34.2L99.7,34.2z"/>
					</g>
				</g>
				<g>
					<g>
						<path class="st5" d="M99.1,30.6c1.5,0,1.5-2.4,0-2.4C97.6,28.3,97.6,30.6,99.1,30.6L99.1,30.6z"/>
					</g>
				</g>
				<g>
					<g>
						<path class="st5" d="M99.8,33c1.5,0,1.5-2.4,0-2.4C98.3,30.6,98.3,33,99.8,33L99.8,33z"/>
					</g>
				</g>
				<g>
					<g>
						<path class="st5" d="M100.7,33.9c1.5,0,1.5-2.4,0-2.4C99.2,31.5,99.2,33.9,100.7,33.9L100.7,33.9z"/>
					</g>
				</g>
				<g>
					<g>
						<path class="st5" d="M100.9,32.3c1.5,0,1.5-2.4,0-2.4C99.3,29.9,99.3,32.3,100.9,32.3L100.9,32.3z"/>
					</g>
				</g>
				<g>
					<g>
						<path class="st5" d="M99.1,31.9c1.5,0,1.5-2.4,0-2.4C97.6,29.6,97.6,31.9,99.1,31.9L99.1,31.9z"/>
					</g>
				</g>
				<g>
					<g>
						<path class="st5" d="M100.3,30.2c1.5,0,1.5-2.4,0-2.4C98.8,27.8,98.8,30.2,100.3,30.2L100.3,30.2z"/>
					</g>
				</g>
				<g>
					<g>
						<path class="st5" d="M98.6,29.4c1.5,0,1.5-2.4,0-2.4C97.1,27.1,97.1,29.4,98.6,29.4L98.6,29.4z"/>
					</g>
				</g>
				<g>
					<g>
						<path class="st5" d="M98.8,27.7c1.5,0,1.5-2.4,0-2.4C97.3,25.3,97.3,27.7,98.8,27.7L98.8,27.7z"/>
					</g>
				</g>
				<g>
					<g>
						<path class="st5" d="M100.1,28.7c1.5,0,1.5-2.4,0-2.4C98.6,26.3,98.6,28.7,100.1,28.7L100.1,28.7z"/>
					</g>
				</g>
				<g>
					<g>
						<path class="st5" d="M100.2,26.4c1.5,0,1.5-2.4,0-2.4C98.7,24,98.7,26.4,100.2,26.4L100.2,26.4z"/>
					</g>
				</g>
				<g>
					<g>
						<path class="st5" d="M98.5,25.4c1.5,0,1.5-2.4,0-2.4C97,23.1,97,25.4,98.5,25.4L98.5,25.4z"/>
					</g>
				</g>
				<g>
					<g>
						<path class="st5" d="M97.2,22.2c1.5,0,1.5-2.4,0-2.4C95.7,19.8,95.7,22.2,97.2,22.2L97.2,22.2z"/>
					</g>
				</g>
				<g>
					<g>
						<path class="st5" d="M98.6,23.5c1.5,0,1.5-2.4,0-2.4C97.1,21.1,97.1,23.5,98.6,23.5L98.6,23.5z"/>
					</g>
				</g>
				<g>
					<g>
						<path class="st5" d="M99.5,24.6c1.5,0,1.5-2.4,0-2.4C97.9,22.2,97.9,24.6,99.5,24.6L99.5,24.6z"/>
					</g>
				</g>
				<g>
					<g>
						<path class="st5" d="M96.3,19.1c1.5,0,1.5-2.4,0-2.4C94.8,16.7,94.8,19.1,96.3,19.1L96.3,19.1z"/>
					</g>
				</g>
				<g>
					<g>
						<path class="st5" d="M94.4,16.3c1.5,0,1.5-2.4,0-2.4C92.8,13.9,92.8,16.3,94.4,16.3L94.4,16.3z"/>
					</g>
				</g>
				<g>
					<g>
						<path class="st5" d="M91.8,14.3c1.5,0,1.5-2.4,0-2.4C90.3,11.9,90.3,14.3,91.8,14.3L91.8,14.3z"/>
					</g>
				</g>
				<g>
					<g>
						<path class="st5" d="M98.3,21.7c1.5,0,1.5-2.4,0-2.4C96.7,19.3,96.7,21.7,98.3,21.7L98.3,21.7z"/>
					</g>
				</g>
				<g>
					<g>
						<path class="st5" d="M77.3,10.8c1.5,0,1.5-2.4,0-2.4C75.8,8.5,75.8,10.8,77.3,10.8L77.3,10.8z"/>
					</g>
				</g>
				<g>
					<g>
						<path class="st5" d="M75.6,11.7c1.5,0,1.5-2.4,0-2.4C74,9.3,74,11.7,75.6,11.7L75.6,11.7z"/>
					</g>
				</g>
				<g>
					<g>
						<path class="st5" d="M73.7,12c1.5,0,1.5-2.4,0-2.4C72.2,9.7,72.2,12,73.7,12L73.7,12z"/>
					</g>
				</g>
				<g>
					<g>
						<path class="st5" d="M71.8,11.6c1.5,0,1.5-2.4,0-2.4C70.3,9.2,70.2,11.6,71.8,11.6L71.8,11.6z"/>
					</g>
				</g>
				<g>
					<g>
						<path class="st5" d="M69.9,10.8c1.5,0,1.5-2.4,0-2.4C68.4,8.5,68.4,10.8,69.9,10.8L69.9,10.8z"/>
					</g>
				</g>
				<g>
					<g>
						<path class="st5" d="M72.4,10.6c1.5,0,1.5-2.4,0-2.4C70.9,8.3,70.9,10.6,72.4,10.6L72.4,10.6z"/>
					</g>
				</g>
				<g>
					<g>
						<path class="st5" d="M74.4,10.6c1.5,0,1.5-2.4,0-2.4C72.8,8.3,72.8,10.6,74.4,10.6L74.4,10.6z"/>
					</g>
				</g>
				<g>
					<g>
						<path class="st5" d="M75.7,10.4c1.5,0,1.5-2.4,0-2.4C74.1,8,74.1,10.4,75.7,10.4L75.7,10.4z"/>
					</g>
				</g>
				<g>
					<g>
						<path class="st5" d="M67.2,11.3c1.5,0,1.5-2.4,0-2.4C65.7,8.9,65.7,11.3,67.2,11.3L67.2,11.3z"/>
					</g>
				</g>
				<g>
					<g>
						<path class="st5" d="M56.9,14.2c1.5,0,1.5-2.4,0-2.4C55.3,11.8,55.3,14.2,56.9,14.2L56.9,14.2z"/>
					</g>
				</g>
				<g>
					<g>
						<path class="st5" d="M55.3,16.1c1.5,0,1.5-2.4,0-2.4C53.8,13.8,53.8,16.1,55.3,16.1L55.3,16.1z"/>
					</g>
				</g>
				<g>
					<g>
						<path class="st5" d="M53.3,17.2c1.5,0,1.5-2.4,0-2.4C51.8,14.9,51.8,17.2,53.3,17.2L53.3,17.2z"/>
					</g>
				</g>
				<g>
					<g>
						<path class="st5" d="M55.3,15.8c1.5,0,1.5-2.4,0-2.4C53.8,13.5,53.8,15.8,55.3,15.8L55.3,15.8z"/>
					</g>
				</g>
				<g>
					<g>
						<path class="st5" d="M68.7,10.4c1.5,0,1.5-2.4,0-2.4C67.2,8,67.2,10.4,68.7,10.4L68.7,10.4z"/>
					</g>
				</g>
				<g>
					<g>
						<path class="st5" d="M71.3,10.2c1.5,0,1.5-2.4,0-2.4C69.8,7.9,69.8,10.2,71.3,10.2L71.3,10.2z"/>
					</g>
				</g>
				<g>
					<g>
						<path class="st5" d="M78.9,10.4c1.5,0,1.5-2.4,0-2.4C77.3,8,77.3,10.4,78.9,10.4L78.9,10.4z"/>
					</g>
				</g>
				<g>
					<g>
						<path class="st5" d="M80.6,10.6c1.5,0,1.5-2.4,0-2.4C79,8.3,79,10.6,80.6,10.6L80.6,10.6z"/>
					</g>
				</g>
				<g>
					<g>
						<path class="st5" d="M53.7,18.8c1.5,0,1.5-2.4,0-2.4C52.2,16.5,52.2,18.8,53.7,18.8L53.7,18.8z"/>
					</g>
				</g>
			</g>
		</g>
		<path class="st5" d="M57.9,72.2c0,0-0.6,0.2-0.9,0.3c-0.4,0.1-0.7,0.4-0.9,0.7c-0.2,0.3-0.3,0.8-0.2,1.2c0,0.1,0.1,0.1,0.1,0.2
			c-0.3,0.1-0.6,0.3-1,0.7c-1.5,1.6-2.3,18.2-0.8,20.3c0.1,0.2,0.3,0.5,0.4,0.8c-0.2,0.2-0.5,0.3-0.7,0.5c-0.7,0.6-0.9,1.6-0.5,2.5
			c0.3,0.8,1.1,1.4,1.9,1.5c0.5,0.1,1,0,1.5-0.2c-0.2,0.8-0.3,1.7,0.1,2.4c0.3,0.6,0.8,0.9,1.4,1.1c-0.6,1.2-0.8,2.5,0.2,3.6
			c0.6,0.6,1.3,0.9,2.1,0.9c0,0,0,0.1,0,0.1c0.1,1,0.9-0.8,1.7-0.4c0.9,0.5,1.5,3.3,2.3,2.9c0.2,0.4,0.5,0.7,0.8,0.9
			c1.5,1,3.2,0.3,4.3-1c0,1.7,0.9,3.2,2.9,3.5c1.4,0.2,2.6-0.5,3.3-1.6c1.2,0.3,2.5,0.1,3.4-1c0.4,1.1,1.7,1.4,2.8,1.4
			c1.3,0,2.5,0,3.5-1c0.1-0.1,0.3-0.3,0.4-0.5c0.1,0,0.3,0.1,0.4,0.1c1.3,0.1,2.7-0.9,3-2.2c0.6-0.1,1.2-0.5,1.7-0.9
			c0.5-0.4,0.8-0.9,0.9-1.5c0.7-0.3,1.4-0.7,1.8-1.4c0.6-1,0.5-2.4-0.4-3.3c-0.3-0.3-0.6-0.4-0.9-0.6c0-0.1,0.1-0.2,0.1-0.4
			c1.5,0,3-0.8,3.8-2.2c0.8-1.5,0.5-3.1-0.4-4.2c1.2-0.8,2.4-17.9,1.8-19.4c-0.5-1.3-1.9-1.7-3.2-1.8c-0.2,0-0.4,0-0.6,0.1
			c-0.1-0.3-0.3-0.5-0.5-0.8c0.5-0.5,0.6-1.2,0.3-1.9c0-0.1-0.1-0.2-0.1-0.3c-0.4-0.7-1.4-1-2.1-0.6c0,0-0.1,0.1-0.1,0.1
			c0.2-0.9-0.3-1.9-1.4-1.9c-0.1,0-0.3,0-0.4,0c-1.3-2-2.6-4.1-3.7-4.7c0,0-2.8-2.3-5-1.3c-2.2,1-3.5,3.5-6,3.1
			c-2.5-0.4-3.8-3.5-6-3.4c-2.2,0.1-3.1,1.3-3.1,1.3s-2.1,0.4-4.6,4.4c-0.4,0.7-0.8,1.2-1.1,1.6C58.4,69.3,57.9,72.2,57.9,72.2z"/>
		<g>
			<path class="st6" d="M66.9,75c0,0-2.6,2.3,3.8,3.8s12.8-1.3,13.2-1.8c0.4-0.4,3.4-3.2-1.5-4C77.6,72.3,68.2,73.4,66.9,75z"/>
			<path class="st5" d="M74.6,79.7c-1.3,0-2.6-0.1-4-0.4c-2.8-0.6-4.4-1.5-4.7-2.7c-0.3-1,0.5-1.7,0.6-1.9c1.6-1.8,11.1-2.8,16-2.1
				c1.8,0.3,2.8,0.8,3.1,1.7c0.3,0.9-0.2,1.9-1.3,3C83.9,77.7,79.7,79.7,74.6,79.7z M67.2,75.3c0,0-0.5,0.5-0.4,1
				c0.1,0.5,0.8,1.3,4,2c6,1.4,12.2-1.1,12.8-1.6c1.2-1.2,1.2-1.8,1.1-2.1c-0.2-0.5-1-0.9-2.3-1.1C77.2,72.7,68.3,74,67.2,75.3
				L67.2,75.3z"/>
		</g>
		<g>
			<path class="st6" d="M65,73.2c3.1-0.3,6-1.9,8.5-2.1c2.5-0.1,7.2,0.4,9.5,0.7c2.3,0.3,5.1-1.5,4.6-0.1c-0.6,1.3-2.9,2.2-8.2,2.3
				c-5.3,0.1-7-0.1-9.5,0.1C67.3,74.5,62.1,73.5,65,73.2z"/>
			<path class="st5" d="M68.9,74.8c-1.9,0-4.7-0.4-5.1-1l-0.2-0.2l0.1-0.3c0.2-0.3,0.6-0.4,1.2-0.5c1.5-0.2,3-0.6,4.5-1.1
				c1.4-0.5,2.8-0.9,4.1-1c2.6-0.2,7.3,0.4,9.6,0.7c1,0.1,2.2-0.2,3-0.4c1-0.2,1.5-0.4,1.9,0c0.2,0.2,0.2,0.5,0,0.9
				c-0.7,1.7-3.5,2.5-8.6,2.6c-2.4,0.1-4.1,0-5.4,0c-1.6,0-2.8,0-4.1,0.1C69.6,74.7,69.2,74.8,68.9,74.8z M65.9,73.6
				c1.1,0.2,2.7,0.3,3.8,0.2c1.4-0.2,2.6-0.1,4.2-0.1c1.3,0,3,0,5.4,0c5.3-0.1,7.1-1,7.7-1.8c-0.2,0-0.4,0.1-0.7,0.2
				c-0.9,0.2-2.2,0.6-3.4,0.4c-2.3-0.3-7-0.9-9.5-0.7c-1.2,0.1-2.5,0.5-3.9,0.9C68.5,72.9,67.2,73.3,65.9,73.6z"/>
		</g>
	</g>
</g>
</svg>
