<svg xmlns="http://www.w3.org/2000/svg" viewBox="0 0 150 150"><defs><style>.cls-1{fill:#fff;}.cls-2,.cls-9{fill:#f1748a;}.cls-3{fill:none;}.cls-4{fill:#feca9a;}.cls-5{fill:#ffd1c2;}.cls-6{fill:#853c2b;}.cls-7{fill:#f78271;}.cls-8{fill:#1c2021;}.cls-9{font-size:17px;font-family:Gotham-Bold, Gotham;font-weight:700;}</style></defs><g id="Layer_1" data-name="Layer 1"><rect class="cls-1" x="1.2" y="1.2" width="147.6" height="147.6" rx="13.2"/><path class="cls-2" d="M135.6,2.4a12,12,0,0,1,12,12V135.6a12,12,0,0,1-12,12H14.4a12,12,0,0,1-12-12V14.4a12,12,0,0,1,12-12H135.6m0-2.4H14.4A14.44,14.44,0,0,0,0,14.4V135.6A14.44,14.44,0,0,0,14.4,150H135.6A14.44,14.44,0,0,0,150,135.6V14.4A14.44,14.44,0,0,0,135.6,0Z"/><path class="cls-3" d="M61.19,90a33.85,33.85,0,0,0-1-13.19l-.33-.3c-.3-.29-.61-.56-.91-.84a50.84,50.84,0,0,1,1.39,10.49c.26,7.21-2.24,8.19-3.31,8.61l-.18.07a.45.45,0,0,1-.16,0,.41.41,0,0,1-.37-.23,29.31,29.31,0,0,0,1.09,3.25C58.12,97.32,60.46,95,61.19,90Z"/><path class="cls-3" d="M64.79,114.3a15.29,15.29,0,0,0-1.37-3.11C64,112.39,64.44,113.43,64.79,114.3Z"/><path class="cls-3" d="M56.54,94.06l.2-.08a2.68,2.68,0,0,0,.36-.16,3.46,3.46,0,0,0-1-.56,2.08,2.08,0,0,1,0,.22c0,.31.12.63.2,1A.4.4,0,0,1,56.54,94.06Z"/><path class="cls-3" d="M47.88,56a1,1,0,0,0,0,.17,28,28,0,0,0,5.2,12.49,36,36,0,0,0,4.45,4.59C56.4,72,55,70.6,53.6,69.1,51.57,67,49.06,62,47.88,56Z"/><path class="cls-3" d="M67.41,23.26c0,.09,0,.19,0,.29l.17.15v-.13c-.05-.1-.09-.21-.13-.3Z"/><path class="cls-3" d="M79,76.76c-.39,2.73-1.11,9.5.27,15.17,1.78,7.28,1.78,5.58.62,9.45s-4.33,12.46-4.33,14.16c0,.79.23,3.2.48,5.83h.32c0-2.72.08-4.62.08-4.67h0c0-1.21,1.44-5,3.47-10.23,1-2.63,2-5.12,2.42-6.53a19.62,19.62,0,0,0,1.17-5.45v-.16l-.08,0-.18,0c-1.1-.34-3.67-1.13-4-8.34a51.32,51.32,0,0,1,.54-10.23l-.47.62Z"/><path class="cls-3" d="M88.25,56.45c.08-1.05.12-2.1.12-3.17-.18,2.12-.37,4.3-.58,6.19A24,24,0,0,0,88.25,56.45Z"/><path class="cls-3" d="M95.46,73.88l.3-.1a.33.33,0,0,1,0-.14Z"/><path class="cls-3" d="M50.89,95c1.82-.91,3.43-1.66,4.44-2.12a.75.75,0,0,1,.29-.32.48.48,0,0,1,.2-.07.7.7,0,0,1,.07-.23,1.22,1.22,0,0,0-.43-.21c-.55-.13-1.1.25-1.74.69a7.62,7.62,0,0,1-1.24.73c-.46.2-.95.39-1.42.57a12,12,0,0,0-2.06.93A10.16,10.16,0,0,1,49.29,96,5.82,5.82,0,0,1,50.89,95Z"/><path class="cls-3" d="M64.26,116.48c.29.76.57,1.57.8,2.37-.16-1-.3-1.74-.35-2A2,2,0,0,0,64.26,116.48Z"/><path class="cls-3" d="M43.05,98.68a57.83,57.83,0,0,0,5.74-.85c-.07-.41-.14-.78-.21-1.12C47.8,97,45.7,97.81,43.05,98.68Z"/><path class="cls-3" d="M98.44,96.58a57.73,57.73,0,0,1-6.65-1q0,.23-.06.48A14.93,14.93,0,0,0,98.44,96.58Z"/><path class="cls-3" d="M77.17,121.37c.13-2.19.25-3.94.31-4.79l-.24.26c0,.44,0,2.17-.08,4.53Z"/><path class="cls-3" d="M63.84,115.45h.09a2.13,2.13,0,0,1,.45.13c-.69-1.92-2.41-5.52-3.85-8.53-1.1-2.32-2.15-4.51-2.75-5.94A72.67,72.67,0,0,0,63,113.53S63.36,114.32,63.84,115.45Z"/><path class="cls-3" d="M84.33,94.07l0,.47a17.42,17.42,0,0,1-.84,4.4c.19-.38.38-.74.56-1,2-3.4,0-3.71,2.79-3.71,1.33,0,2.39.85,4.1,1.56.1-.8.2-1.44.29-1.81-.2,0-.51-.05-.77-.07a10.8,10.8,0,0,1-2.78-.46l-.72-.25c-1.43-.53-2.58-.89-3.32-.55a1,1,0,0,1,.23.11A1.34,1.34,0,0,1,84.33,94.07Z"/><path class="cls-4" d="M66.43,62.25a2.77,2.77,0,0,0-.19,1.41,1.67,1.67,0,0,0,.24-.1,1.56,1.56,0,0,1,.54-.18,19.21,19.21,0,0,0,.48-5.57,11.92,11.92,0,0,1-.85,3.82C66.57,61.86,66.49,62.06,66.43,62.25Z"/><path class="cls-4" d="M48.25,45.63q.18-.66.39-1.26v0A12.49,12.49,0,0,0,48.25,45.63Z"/><path class="cls-4" d="M62.15,31.3c-1.27,1.09-2.58,2-3.84,3-5,3.63-9.29,6.77-10.1,16.66-.15,1.81-.26,3.49-.33,5.06,1.18,6,3.69,11,5.72,13.12C55,70.6,56.4,72,57.52,73.23l.75.66a.43.43,0,0,1,.23.21c.67.57,1.31,1.18,2,1.79a26.78,26.78,0,0,0,4.94,4,10,10,0,0,0,9,.23,15.08,15.08,0,0,0,4.24-4.29c.49-.64,1-1.26,1.45-1.82l0-.06c0-.06,0-.09,0-.11a.42.42,0,0,1,.3-.29c3.94-4.68,6.36-9.3,7.33-14,.21-1.89.4-4.07.58-6.19,0-1.44-.05-2.9-.15-4.43-1.92-3.93-6.17-8.47-10.41-12.21-1.08-.9-2.13-1.76-3.1-2.6-.45-.36-.89-.71-1.33-1-5-3.78-5.73-7.84-5.84-9.3l-.17-.15C67.12,25.24,66,28,62.15,31.3ZM58.51,53a5.69,5.69,0,0,1-2-.32,3.83,3.83,0,0,1-2.1-1.53,1.31,1.31,0,0,0-.16.14.44.44,0,0,1-.6,0,.42.42,0,0,1,0-.6,9.64,9.64,0,0,1,10.12-.86.43.43,0,0,1,.19.57.42.42,0,0,1-.57.19l-.08,0a2.25,2.25,0,0,1-1,1.42A7,7,0,0,1,58.51,53Zm24.56-3.37a.42.42,0,0,1-.57.19l-.08,0a2.24,2.24,0,0,1-1,1.42,6.85,6.85,0,0,1-3.78,1,6.06,6.06,0,0,1-2-.31,3.83,3.83,0,0,1-2.1-1.53,1.31,1.31,0,0,0-.16.14.44.44,0,0,1-.6,0,.43.43,0,0,1,0-.61A9.68,9.68,0,0,1,82.88,49,.42.42,0,0,1,83.07,49.59Zm-1.92-4.78a8.72,8.72,0,0,1,4,3.23c-.59-.77-3.31-1.87-7.27-2.52-3.53-.58-5.4.9-5.4.9C71,42.54,78.51,43.78,81.15,44.81ZM68.34,63.63a2.55,2.55,0,0,0,1,.28,1.51,1.51,0,0,0,.88-.27,1.63,1.63,0,0,1,1.42-.24c.3.08.5,0,.56-.14s0-.36-.27-.52a.43.43,0,0,1-.1-.59.42.42,0,0,1,.6-.1A1.26,1.26,0,0,1,73,63.62a1.28,1.28,0,0,1-1.54.61.81.81,0,0,0-.78.14,2.33,2.33,0,0,1-1.31.39,2.64,2.64,0,0,1-.51-.06,10.25,10.25,0,0,1-.26,3.07h0a1.24,1.24,0,0,0,1,0,4.16,4.16,0,0,1-.16-1.15.43.43,0,1,1,.85,0,3.56,3.56,0,0,0,.1.84,3.14,3.14,0,0,1,1.52.3l.63.22a5.88,5.88,0,0,0,2.09.53c.55,0,1.22.06,1.26.56,0,.35-.22.55-1,.71a7.69,7.69,0,0,1-1.26,2.11c-.73.85-2.7,1.25-4.44,1.25a7,7,0,0,1-2.41-.35,7.11,7.11,0,0,1-3.29-2.5l0,0c-.74-.07-1.07-.18-1.1-.56s.46-.63,1.29-.83A10.69,10.69,0,0,0,66.41,68a2.37,2.37,0,0,1,1.35-.37,9.71,9.71,0,0,0,.24-3.2c-.48-.2-.73-.29-1.14-.09a1,1,0,0,1-1.17,0c-.42-.35-.44-1.09-.07-2.31a7.09,7.09,0,0,1,.24-.68c.5-1.33,1.26-3.34.51-8a13.14,13.14,0,0,0-2.23-6.09,7.18,7.18,0,0,0-5.39-.9c-4,.66-6.68,1.75-7.27,2.53a8.66,8.66,0,0,1,4-3.23c2.35-.92,8.56-2,8.87.52a7,7,0,0,1,1.37,1.94.34.34,0,0,1,.12.12,19.37,19.37,0,0,1,2.33,7.3,21.21,21.21,0,0,1-.25,8Z"/><path class="cls-4" d="M76.31,121.37a18.38,18.38,0,0,1,.27-4.79c0-1.82,5.14-14.55,6.39-18.69,2-6.57-1.69-2.07-2.84-8-.94-4.87-.09-12.69.33-15.6-1.32,1.7-3.52,4.33-5.27,5.27A10.37,10.37,0,0,1,70.3,80.7a11.56,11.56,0,0,1-5.59-1.4c-1.92-1.07-4.87-3.94-6.44-5.41.64,1.89,2.52,9.49,1.67,15.42-.78,5.35-2.87,4.71-3.6,5.33.29.77.92,4.8,1.32,5.82.57,1.47,1.8,4,3.1,6.76.85,1.78,1.62,3.39,2.27,4.81a15.77,15.77,0,0,1,1.46,3.32,10.44,10.44,0,0,1,.79,2.46h0s.15,1.46.43,3.56Z"/><path class="cls-5" d="M83.83,95.3c-.19.33-.21,2.45-.41,2.86s-.24.84-.39,1.33c-.46,1.53-1.47,4.2-2.54,7-1.26,3.32-2.76,7.29-3.33,9.39a3,3,0,0,1,.45-.18,2.59,2.59,0,0,1,.68-.09,3.88,3.88,0,0,1,2,.69,12.87,12.87,0,0,1,3,2.75,9.09,9.09,0,0,0,.7.77,7.83,7.83,0,0,1,.4-1.15,21.75,21.75,0,0,1,1.86-4.11c3-5.14,4.44-9.32,4.41-12.44a77.19,77.19,0,0,1,.76-8.46c-1.79-.76-3.32-.07-4.6-.61C83.64,91.7,82.89,91.62,83.83,95.3Z"/><path class="cls-5" d="M91.52,94.83a74.65,74.65,0,0,0-.45,7.72c0,3.08-1.16,7.26-4.07,12.2a19.23,19.23,0,0,0-1.71,3.7l0,0a6.59,6.59,0,0,0-.49,1.58.42.42,0,0,1-.24.32.59.59,0,0,1-.17,0,.48.48,0,0,1-.23-.07,6.17,6.17,0,0,1-1.35-1.28,11.37,11.37,0,0,0-2.72-2.41,2.58,2.58,0,0,0-1.94-.47,1.55,1.55,0,0,0-.65.37c-.06.85-.18,2.6-.31,4.79H96.41a12.54,12.54,0,0,0,.46-1.49c1.57-6.41,3-20.92,3.22-23.22-.52,0-1.08-.47-1.65-.51C95.36,96.49,93.08,95.35,91.52,94.83Z"/><path class="cls-5" d="M56.17,92.42a1.7,1.7,0,0,0-.28-.21.7.7,0,0,0-.07.23A.82.82,0,0,1,56.17,92.42Z"/><path class="cls-5" d="M48.58,94.87a68.16,68.16,0,0,1,.79,8.26c.21,3,2.13,7,5.69,11.71a16.65,16.65,0,0,1,2.76,5,10.53,10.53,0,0,0,.76-.88,12.94,12.94,0,0,1,3-2.89c1-.65,2.3-.09,3.17,0a28.06,28.06,0,0,1-1.05-2.93s-2.28-4.82-5.63-12c-.07-.16-.64-1-.7-1.15a22.32,22.32,0,0,1-1.8-7.24c0-.14,1-.06,1-.29s-1.16-1-1.1-1.07c-1.13.48-3.55,1.72-5.58,2.66A3.57,3.57,0,0,0,48.58,94.87Z"/><path class="cls-5" d="M64.79,116.1c-.14-.08-.83.23-1,.19a2.51,2.51,0,0,0-1.89.61,11.69,11.69,0,0,0-2.54,2.61,5.21,5.21,0,0,1-1.51,1.55,1.56,1.56,0,0,1-.69.25.47.47,0,0,1-.37-.18c-.22-.3,0-.63.38-1.08a16.07,16.07,0,0,0-2.33-4.55c-3.28-4.71-5-8.65-5.25-11.71-.14-2.09-.12-6.09-.42-7.75-1.19.3-4.4,2.3-6.09,2.49-.41.14-.84.43-1.28.57a127.17,127.17,0,0,0,1.53,14.43,42.46,42.46,0,0,0,2.37,7.84h20Z"/><path class="cls-6" d="M43.7,74.88a26.66,26.66,0,0,1-9-16.38c-.52-9.76-.08-21.88,7.88-29.32,2.85-2.59,5.48-5.09,8-7.51s5.16-4.91,8-7.49C60.15,13,62,13,64.23,14.06a2.08,2.08,0,0,1,0-.39,7.35,7.35,0,0,0-5.73-2.49,8.64,8.64,0,0,0-1,.06c-6.29.76-13,5.12-16.72,10.84A66.06,66.06,0,0,0,30.47,50.67C29.65,58.67,35.42,70.36,43.7,74.88Z"/><path class="cls-6" d="M32.72,36.65a41.72,41.72,0,0,0-2.55,10,65.4,65.4,0,0,1,2.6-10.12A1.12,1.12,0,0,0,32.72,36.65Z"/><path class="cls-6" d="M90.05,76.08c5.14-1.94,8.28-5.61,9.57-11.23a54.06,54.06,0,0,0,1.12-11.25A26,26,0,0,0,96,37.89c-3.7-5.46-8.66-9.72-13.46-13.83-2.54-2.19-5.17-4.44-7.62-6.87a.43.43,0,0,1,0-.6.42.42,0,0,1,.6,0c2.42,2.4,5,4.65,7.57,6.82,4.84,4.16,9.85,8.45,13.61,14a26.65,26.65,0,0,1,4.92,16.19A54.43,54.43,0,0,1,100.45,65a16.15,16.15,0,0,1-4.73,8.6.33.33,0,0,0,0,.14c7.59-2.25,9.28-11.48,10.29-17,.78-4.3-.23-12.27-2.56-20.42-.24-.46-.5-1.13-.76-1.77s-.51-1.28-.76-1.78C95.38,21.4,86.71,14,76.9,11.28c-2.41-.53-8.31-1.2-10.86,4.18a.36.36,0,0,1,0,.11.31.31,0,0,1-.11.12h0a.46.46,0,0,1-.22.06h0l-.1,0-.12,0c-2.6-1.73-4.69-2-6.23-.88-2.81,2.56-5.43,5-8,7.46s-5.18,4.92-8,7.51c-7.71,7.2-8.12,19.08-7.62,28.62A25.74,25.74,0,0,0,49.33,77.61a24,24,0,0,1-6.06-7.79c-4.53-9.18-4.9-17.67-1.18-26.72,2.7-6.55,10.3-10.52,15.32-13.15a30.8,30.8,0,0,0,4.34-2.52A13.73,13.73,0,0,0,66,21L66,21v0a.43.43,0,1,1,.77-.36,13.5,13.5,0,0,0,1.3,2.18.39.39,0,0,1,.28.38c2.16,2.76,5.27,4.62,8.53,6.55,2.86,1.69,5.83,3.44,8.06,5.89a30.32,30.32,0,0,1,2,2.49,19.86,19.86,0,0,0-1-3.46.43.43,0,1,1,.8-.3,24.28,24.28,0,0,1,1.29,5.38,34.73,34.73,0,0,1,4.15,29,15.77,15.77,0,0,1-5.06,7.5c.13.44.66,1,2.57.41A.42.42,0,0,1,90.05,76.08Z"/><path class="cls-6" d="M49.29,13.11a26.64,26.64,0,0,1,3-1.42A16.55,16.55,0,0,0,49.29,13.11Z"/><path class="cls-6" d="M67.54,23.57a.81.81,0,0,1,0-.15l-.12-.15C67.45,23.36,67.49,23.47,67.54,23.57Z"/><path class="cls-6" d="M101.62,30.55a32,32,0,0,0-9.51-11.61L92,18.88A54.48,54.48,0,0,1,101.62,30.55Z"/><path class="cls-6" d="M62.28,28.1a31.43,31.43,0,0,1-4.47,2.6c-4.92,2.58-12.35,6.46-14.93,12.72-3.63,8.81-3.26,17.07,1.15,26a23.26,23.26,0,0,0,9.7,10.14,27.77,27.77,0,0,1-3.58-4.41c-2.64-4-3.57-9.35-3.13-18.94a71.82,71.82,0,0,1-.92-8.4.43.43,0,1,1,.85,0c.08,1.36.18,2.76.33,4.18,0-.37,0-.73.08-1.11a28.83,28.83,0,0,1,.89-5.22,12.49,12.49,0,0,1,.38-1.24v0c1.89-5.49,5.45-8.09,9.17-10.79,1.25-.91,2.54-1.85,3.79-2.92,5.44-4.65,5-8,4.94-8.56A14.45,14.45,0,0,1,62.28,28.1Z"/><path class="cls-6" d="M74.71,34c1,.84,2,1.7,3.1,2.6C76.76,35.71,75.72,34.84,74.71,34Z"/><path class="cls-6" d="M88.51,42.81l.06.53c.2,1.87.37,3.61.49,5.29.07.16.16.32.23.47,2.34,5.42,2.23,8.86,2.1,12.84-.09,2.77-1.54,9.79-5.29,14a14.91,14.91,0,0,0,5.37-7.52,33.9,33.9,0,0,0-3.08-26.67Z"/><path class="cls-6" d="M73.9,32.32C79,36.17,85,41.74,88.06,46.79c-.1-1.08-.21-2.19-.34-3.35l-.06-.54c-.1-1-.21-1.94-.35-2.9a31.47,31.47,0,0,0-3-3.84,33.56,33.56,0,0,0-7.87-5.73,34.2,34.2,0,0,1-7.91-5.77C68.94,26.41,70.14,29.46,73.9,32.32Z"/><path class="cls-1" d="M79.59,50a1.44,1.44,0,0,1-.31.92.81.81,0,0,1-.19.29,5.22,5.22,0,0,0,1.85-.71,1.35,1.35,0,0,0,.67-1.09,8.82,8.82,0,0,0-2.5-.55A1.64,1.64,0,0,1,79.59,50Z"/><path class="cls-1" d="M75.93,51.07a2.64,2.64,0,0,0,.54.16c-.06,0-.12-.09-.18-.15-.82-.78-.69-1.42-.42-1.85a10.08,10.08,0,0,0-1.63.67C74.36,50.13,74.73,50.61,75.93,51.07Z"/><path class="cls-1" d="M56.75,50a9.77,9.77,0,0,0-1.63.66c.12.23.49.71,1.69,1.17a2.74,2.74,0,0,0,.53.16l-.17-.15C56.35,51.07,56.47,50.43,56.75,50Z"/><path class="cls-1" d="M60.47,50.75a1.34,1.34,0,0,1,0,.35.7.7,0,0,1,0,.75,4.41,4.41,0,0,0,1.4-.6,1.37,1.37,0,0,0,.68-1.09,8.53,8.53,0,0,0-2.5-.54A1.6,1.6,0,0,1,60.47,50.75Z"/><path class="cls-7" d="M67.11,72c1.45.56,5.1.27,5.9-.66a6.84,6.84,0,0,0,.91-1.4l-.19,0c-1.38.17-2.11.28-2.64.36s-.86.13-1.41.17-1.19.07-2,.07a16.47,16.47,0,0,1-2.38-.14c-.18,0-.41,0-.64-.07A6.65,6.65,0,0,0,67.11,72Z"/><path class="cls-7" d="M66.83,68.72a9.61,9.61,0,0,1-2.18.82l.79.08a21.78,21.78,0,0,0,4.17.06c.53,0,.84-.09,1.35-.16s1.18-.18,2.4-.33c-.33-.1-.69-.23-1.08-.37l-.62-.22c-1-.35-1.08-.31-1.37-.16l-.1.06a2.09,2.09,0,0,1-1.82.08A1.58,1.58,0,0,0,66.83,68.72Z"/><path class="cls-1" d="M60.43,51.1a.77.77,0,0,0-1.45.36.75.75,0,0,0,.59.74.58.58,0,0,0,.18,0,.76.76,0,0,0,.68-1.14Z"/><path class="cls-1" d="M79.28,50.9a.64.64,0,0,0,.06-.28.78.78,0,0,0-.78-.77.78.78,0,0,0,0,1.55.71.71,0,0,0,.26,0,.73.73,0,0,0,.46-.45Z"/><path class="cls-8" d="M95.13,74.41a.43.43,0,0,0,.41.32l.11,0c8.4-2.21,10.17-12,11.25-17.91,1-5.24-.8-14.43-2.62-20.78-.25-.5-.51-1.15-.76-1.78s-.52-1.31-.8-1.86-.73-1.23-1.1-1.83A54.48,54.48,0,0,0,92,18.88,36.66,36.66,0,0,0,77.1,10.46c-5.11-1.14-9.3.31-11.42,3.88-.37-.81-.62-1.08-.8-1.16a8.32,8.32,0,0,0-7.56-2.78,20.55,20.55,0,0,0-5,1.29,26.64,26.64,0,0,0-3,1.42A26.32,26.32,0,0,0,40,21.62a67,67,0,0,0-7.22,14.9,65.4,65.4,0,0,0-2.6,10.12c-.22,1.31-.41,2.63-.54,3.94-1,9.22,6.59,23.2,16.75,26.37h.08A24.08,24.08,0,0,0,49,78.42a.65.65,0,0,0,.19,0,.42.42,0,0,0,.38-.24.4.4,0,0,0,0-.42,21.66,21.66,0,0,0,6.59,3.81l.06,0a.39.39,0,0,0,.21.06.42.42,0,0,0,.24-.09.31.31,0,0,0,.12-.11h0a.39.39,0,0,0,.08-.1.44.44,0,0,0-.29-.53l0,0a22.71,22.71,0,0,1-5.66-6.14c-2.23-3.34-3.19-7.77-3.1-15.15a26.73,26.73,0,0,0,4.64,9.61,39.25,39.25,0,0,0,5.38,5.43,46,46,0,0,1,1.73,11.6c.16,4.5-.73,6.3-1.62,7.12-.75-1.28-1.46-2-2.24-2.14a3,3,0,0,0-2.41.82,6.9,6.9,0,0,1-1.1.65l-1.39.56c-1.57.61-2.4,1-2.59,1.45a.65.65,0,0,0,0,.51,4.1,4.1,0,0,1,.21.71c-.82.32-4.12,1.58-8,2.76a.43.43,0,0,0-.28.53.44.44,0,0,0,.41.3l.12,0,1.09-.34,1.28-.42c2.65-.87,4.75-1.67,5.53-2,.07.34.14.71.21,1.12a54,54,0,0,1,.77,6c.21,3.06,2,7,5.25,11.71a16.07,16.07,0,0,1,2.33,4.55c-.42.45-.6.78-.38,1.08a.47.47,0,0,0,.37.18,1.56,1.56,0,0,0,.69-.25,5.21,5.21,0,0,0,1.51-1.55,11.69,11.69,0,0,1,2.54-2.61,2.51,2.51,0,0,1,1.89-.61,1.63,1.63,0,0,1,.5.19,2,2,0,0,1,.45.38c.05.25.19,1,.35,2,.1.71.22,1.56.33,2.52h.86c-.31-2.78-.72-4.73-.72-4.77h0a10.47,10.47,0,0,0-.74-2.3c-.35-.87-.82-1.91-1.37-3.11s-1.33-2.84-2.12-4.5c-1.22-2.54-2.37-5-2.9-6.32-.38-1-.7-1.76-1-2.48a29.31,29.31,0,0,1-1.09-3.25.41.41,0,0,0,.37.23.45.45,0,0,0,.16,0l.18-.07c1.07-.42,3.57-1.4,3.31-8.61A50.84,50.84,0,0,0,59,75.67c.3.28.61.55.91.84l.33.3A24.37,24.37,0,0,0,65,80.58a10.82,10.82,0,0,0,5.23,1.31,9.8,9.8,0,0,0,4.57-1.07A14.19,14.19,0,0,0,79,76.76l.36-.46.47-.62a51.32,51.32,0,0,0-.54,10.23c.29,7.21,2.86,8,4,8.34l.18,0,.08,0v.16a19.62,19.62,0,0,1-1.17,5.45c-.44,1.41-1.4,3.9-2.42,6.53-2,5.23-3.46,9-3.47,10.23h0s0,2-.08,4.67h.85c0-2.36.07-4.09.08-4.53l.24-.26a1.55,1.55,0,0,1,.65-.37,2.58,2.58,0,0,1,1.94.47,11.37,11.37,0,0,1,2.72,2.41,6.17,6.17,0,0,0,1.35,1.28.48.48,0,0,0,.23.07.59.59,0,0,0,.17,0,.42.42,0,0,0,.24-.32,6.59,6.59,0,0,1,.49-1.58l0,0a19.23,19.23,0,0,1,1.71-3.7c2.91-4.94,4.37-9,4.35-12.08a54.94,54.94,0,0,1,.38-6.62q0-.26.06-.48a57.73,57.73,0,0,0,6.65,1c.57,0,1.13.08,1.65.08h.17a10.68,10.68,0,0,0,1.18-.06.41.41,0,0,0,.38-.46.42.42,0,0,0-.46-.38c-2.77.28-8.09-.76-9.45-1a4.63,4.63,0,0,1,.16-.76.56.56,0,0,0,0-.52c-.21-.34-.68-.37-1.54-.43a10.23,10.23,0,0,1-2.57-.41l-.69-.25c-1.71-.63-4-1.47-5,.5-1-.74-2-2.47-2.16-7a47,47,0,0,1,.83-11.6c5-5.89,7.7-11.7,8.17-17.76a47.63,47.63,0,0,0,.1-5.36c1.55,4.29,1.46,7.32,1.35,10.83-.14,4.13-2.74,13.29-8.15,15.72a.42.42,0,0,0,.17.81.57.57,0,0,0,.18,0l.06,0h0a11,11,0,0,0,4.37-2.29,15.77,15.77,0,0,0,5.06-7.5A34.73,34.73,0,0,0,88.13,39.7a24.28,24.28,0,0,0-1.29-5.38.43.43,0,1,0-.8.3,19.86,19.86,0,0,1,1,3.46,30.32,30.32,0,0,0-2-2.49c-2.23-2.45-5.2-4.2-8.06-5.89-3.26-1.93-6.37-3.79-8.53-6.55a.39.39,0,0,0-.28-.38,13.5,13.5,0,0,1-1.3-2.18A.43.43,0,1,0,66,21v0L66,21a13.73,13.73,0,0,1-4.25,6.41A30.8,30.8,0,0,1,57.41,30c-5,2.63-12.62,6.6-15.32,13.15-3.72,9-3.35,17.54,1.18,26.72a24,24,0,0,0,6.06,7.79A25.74,25.74,0,0,1,35.55,58.42c-.5-9.54-.09-21.42,7.62-28.62,2.85-2.59,5.48-5.09,8-7.51s5.16-4.9,8-7.46c1.54-1.15,3.63-.85,6.23.88l.12,0,.1,0h0a.46.46,0,0,0,.22-.06h0a.31.31,0,0,0,.11-.12.36.36,0,0,0,0-.11c2.55-5.38,8.45-4.71,10.86-4.18C86.71,14,95.38,21.4,102,32.78c.25.5.51,1.15.76,1.78s.52,1.31.76,1.77c2.33,8.15,3.34,16.12,2.56,20.42-1,5.55-2.7,14.78-10.29,17l-.3.1.26-.24a16.15,16.15,0,0,0,4.73-8.6,54.43,54.43,0,0,0,1.14-11.43,26.65,26.65,0,0,0-4.92-16.19c-3.76-5.56-8.77-9.85-13.61-14-2.53-2.17-5.15-4.42-7.57-6.82a.42.42,0,0,0-.6,0,.43.43,0,0,0,0,.6c2.45,2.43,5.08,4.68,7.62,6.87,4.8,4.11,9.76,8.37,13.46,13.83a26,26,0,0,1,4.77,15.71,54.06,54.06,0,0,1-1.12,11.25c-1.29,5.62-4.43,9.29-9.57,11.23a.42.42,0,0,0-.26.48.2.2,0,0,0,0,.07.42.42,0,0,0,.4.27l.15,0a16.8,16.8,0,0,0,4.82-2.77A.39.39,0,0,0,95.13,74.41ZM57.6,100.68c.06.13.12.29.18.44.6,1.43,1.65,3.62,2.75,5.94,1.44,3,3.16,6.61,3.85,8.53a2.13,2.13,0,0,0-.45-.13h-.09a3.39,3.39,0,0,0-2.47.76A12.21,12.21,0,0,0,58.65,119a8.41,8.41,0,0,1-.68.85A16.59,16.59,0,0,0,55.5,115c-3.18-4.58-4.9-8.38-5.09-11.29A54.85,54.85,0,0,0,49.29,96,10.16,10.16,0,0,0,49,94.92,12,12,0,0,1,51.06,94c.47-.18,1-.37,1.42-.57a7.62,7.62,0,0,0,1.24-.73c.64-.44,1.19-.82,1.74-.69a1.22,1.22,0,0,1,.43.21,1.7,1.7,0,0,1,.28.21.82.82,0,0,0-.35,0,.48.48,0,0,0-.2.07.75.75,0,0,0-.29.32,1.28,1.28,0,0,0-.08.78C55.52,95.32,56.16,97,57.6,100.68ZM56.74,94l-.2.08a.4.4,0,0,0-.25.37c-.08-.32-.15-.64-.2-1a2.08,2.08,0,0,0,0-.22,3.46,3.46,0,0,1,1,.56A2.68,2.68,0,0,1,56.74,94Zm30.19-.83.72.25a10.8,10.8,0,0,0,2.78.46c.26,0,.57,0,.77.07-.09.37-.19,1-.29,1.81a55.75,55.75,0,0,0-.41,6.94c0,2.91-1.4,6.83-4.23,11.64a19.61,19.61,0,0,0-1.78,3.85,7,7,0,0,0-.39,1.08c-.21-.2-.43-.45-.67-.72A12.12,12.12,0,0,0,80.51,116a3.9,3.9,0,0,0-2-.64,2.3,2.3,0,0,0-.64.09,2.09,2.09,0,0,0-.44.16c.55-2,2-5.68,3.19-8.8,1-2.64,2-5.14,2.44-6.58.14-.46.27-.87.37-1.24a17.42,17.42,0,0,0,.84-4.4l0-.47a1.34,1.34,0,0,0-.49-1.36,1,1,0,0,0-.23-.11C84.35,92.26,85.5,92.62,86.93,93.15ZM91.47,68.4a14.91,14.91,0,0,1-5.37,7.52c3.75-4.19,5.2-11.21,5.29-14,.13-4,.24-7.42-2.1-12.84-.07-.15-.16-.31-.23-.47-.12-1.68-.29-3.42-.49-5.29l-.06-.53-.12-1.08A33.9,33.9,0,0,1,91.47,68.4Zm-15-38a33.56,33.56,0,0,1,7.87,5.73,31.47,31.47,0,0,1,3,3.84c.14,1,.25,1.94.35,2.9l.06.54c.13,1.16.24,2.27.34,3.35C85,41.74,79,36.17,73.9,32.32c-3.76-2.86-5-5.91-5.34-7.66A34.2,34.2,0,0,0,76.47,30.43Zm-9.06-7.16.12.15a.81.81,0,0,0,0,.15v.13c.11,1.46.88,5.52,5.84,9.3.44.33.88.68,1.33,1,1,.8,2.05,1.67,3.1,2.6,4.24,3.74,8.49,8.28,10.41,12.21.1,1.53.16,3,.15,4.43,0,1.07,0,2.12-.12,3.17a24,24,0,0,1-.46,3c-1,4.73-3.39,9.35-7.33,14a.42.42,0,0,0-.3.29s0,0,0,.11l0,.06c-.48.56-1,1.18-1.45,1.82a15.08,15.08,0,0,1-4.24,4.29,10,10,0,0,1-9-.23,26.78,26.78,0,0,1-4.94-4c-.65-.61-1.29-1.22-2-1.79a.43.43,0,0,0-.23-.21l-.75-.66a36,36,0,0,1-4.45-4.59,28,28,0,0,1-5.2-12.49,1,1,0,0,1,0-.17c.07-1.57.18-3.25.33-5.06.81-9.89,5.11-13,10.1-16.66,1.26-.92,2.57-1.87,3.84-3,3.88-3.31,5-6.06,5.22-7.75,0-.1,0-.2,0-.29ZM44,69.44c-4.41-8.95-4.78-17.21-1.15-26,2.58-6.26,10-10.14,14.93-12.72a31.43,31.43,0,0,0,4.47-2.6,14.45,14.45,0,0,0,4.26-6c.09.51.5,3.91-4.94,8.56-1.25,1.07-2.54,2-3.79,2.92-3.72,2.7-7.28,5.3-9.17,10.79q-.21.6-.39,1.26a28.83,28.83,0,0,0-.89,5.22c0,.38,0,.74-.08,1.11-.15-1.42-.25-2.82-.33-4.18a.43.43,0,1,0-.85,0,71.82,71.82,0,0,0,.92,8.4c-.44,9.59.49,15,3.13,18.94a27.77,27.77,0,0,0,3.58,4.41A23.26,23.26,0,0,1,44,69.44Zm14.6-55.26c-2.85,2.58-5.47,5.08-8,7.49s-5.18,4.92-8,7.51c-8,7.44-8.4,19.56-7.88,29.32a26.66,26.66,0,0,0,9,16.38c-8.28-4.52-14.05-16.21-13.23-24.21A66.06,66.06,0,0,1,40.7,22.08C44.42,16.36,51.13,12,57.42,11.24a8.64,8.64,0,0,1,1-.06,7.35,7.35,0,0,1,5.73,2.49,2.08,2.08,0,0,0,0,.39C62,13,60.15,13,58.63,14.18Z"/><path class="cls-8" d="M77.84,45.52c4,.65,6.68,1.75,7.27,2.52a8.72,8.72,0,0,0-4-3.23c-2.64-1-10.18-2.27-8.71,1.61C72.44,46.42,74.31,44.94,77.84,45.52Z"/><path class="cls-8" d="M82.88,49a9.68,9.68,0,0,0-10.12.85.43.43,0,0,0,0,.61.43.43,0,0,0,.6,0,1.31,1.31,0,0,1,.16-.14,3.83,3.83,0,0,0,2.1,1.53,6.06,6.06,0,0,0,2,.31,6.85,6.85,0,0,0,3.78-1,2.24,2.24,0,0,0,1-1.42l.08,0a.42.42,0,1,0,.38-.76Zm-6.95,2c-1.2-.46-1.57-.94-1.69-1.17a10.08,10.08,0,0,1,1.63-.67c-.27.43-.4,1.07.42,1.85.06.06.12.1.18.15A2.64,2.64,0,0,1,75.93,51.07Zm5-.59a5.22,5.22,0,0,1-1.85.71.81.81,0,0,1-.27.16.71.71,0,0,1-.26,0,.78.78,0,1,1,.78-.78.64.64,0,0,1-.06.28,1.44,1.44,0,0,0,.31-.92,1.64,1.64,0,0,0-.48-1.14,8.82,8.82,0,0,1,2.5.55A1.35,1.35,0,0,1,80.94,50.48Z"/><path class="cls-8" d="M63.3,50.52l.08,0a.42.42,0,0,0,.57-.19.43.43,0,0,0-.19-.57,9.64,9.64,0,0,0-10.12.86.42.42,0,0,0,0,.6.44.44,0,0,0,.6,0,1.31,1.31,0,0,1,.16-.14,3.83,3.83,0,0,0,2.1,1.53,5.69,5.69,0,0,0,2,.32,7,7,0,0,0,3.79-1A2.25,2.25,0,0,0,63.3,50.52Zm-6.49,1.32c-1.2-.46-1.57-.94-1.69-1.17A9.77,9.77,0,0,1,56.75,50c-.28.42-.4,1.06.42,1.84l.17.15A2.74,2.74,0,0,1,56.81,51.84Zm5-.59a4.41,4.41,0,0,1-1.4.6.75.75,0,0,1-.66.39.58.58,0,0,1-.18,0,.75.75,0,0,1-.59-.74.77.77,0,0,1,1.45-.36,1.34,1.34,0,0,0,0-.35A1.6,1.6,0,0,0,60,49.62a8.53,8.53,0,0,1,2.5.54A1.37,1.37,0,0,1,61.81,51.25Z"/><path class="cls-8" d="M65.68,48.05a7,7,0,0,0-1.37-1.94c-.31-2.51-6.52-1.44-8.87-.52a8.66,8.66,0,0,0-4,3.23c.59-.78,3.31-1.87,7.27-2.53a7.18,7.18,0,0,1,5.39.9,13.14,13.14,0,0,1,2.23,6.09c.75,4.71,0,6.72-.51,8a7.09,7.09,0,0,0-.24.68c-.37,1.22-.35,2,.07,2.31a1,1,0,0,0,1.17,0c.41-.2.66-.11,1.14.09a9.71,9.71,0,0,1-.24,3.2,2.37,2.37,0,0,0-1.35.37,10.69,10.69,0,0,1-2.72.93c-.83.2-1.33.36-1.29.83s.36.49,1.1.56l0,0a7.11,7.11,0,0,0,3.29,2.5,7,7,0,0,0,2.41.35c1.74,0,3.71-.4,4.44-1.25a7.69,7.69,0,0,0,1.26-2.11c.78-.16,1-.36,1-.71,0-.5-.71-.58-1.26-.56A5.88,5.88,0,0,1,72.57,68l-.63-.22a3.14,3.14,0,0,0-1.52-.3,3.56,3.56,0,0,1-.1-.84.43.43,0,1,0-.85,0,4.16,4.16,0,0,0,.16,1.15,1.24,1.24,0,0,1-1,0h0a10.25,10.25,0,0,0,.26-3.07,2.64,2.64,0,0,0,.51.06,2.33,2.33,0,0,0,1.31-.39.81.81,0,0,1,.78-.14A1.28,1.28,0,0,0,73,63.62a1.26,1.26,0,0,0-.54-1.57.42.42,0,0,0-.6.1.43.43,0,0,0,.1.59c.23.16.34.37.27.52s-.26.22-.56.14a1.63,1.63,0,0,0-1.42.24,1.51,1.51,0,0,1-.88.27,2.55,2.55,0,0,1-1-.28l-.46-.17a21.21,21.21,0,0,0,.25-8,19.37,19.37,0,0,0-2.33-7.3A.34.34,0,0,0,65.68,48.05ZM73.92,70a6.84,6.84,0,0,1-.91,1.4c-.8.93-4.45,1.22-5.9.66a6.65,6.65,0,0,1-2.44-1.65c.23,0,.46,0,.64.07a16.47,16.47,0,0,0,2.38.14c.8,0,1.54,0,2-.07s.88-.09,1.41-.17,1.26-.19,2.64-.36ZM70.19,68.5l.1-.06c.29-.15.37-.19,1.37.16l.62.22c.39.14.75.27,1.08.37-1.22.15-1.9.25-2.4.33s-.82.12-1.35.16a21.78,21.78,0,0,1-4.17-.06l-.79-.08a9.61,9.61,0,0,0,2.18-.82,1.58,1.58,0,0,1,1.54-.14A2.09,2.09,0,0,0,70.19,68.5ZM67,63.38a1.56,1.56,0,0,0-.54.18,1.67,1.67,0,0,1-.24.1,2.77,2.77,0,0,1,.19-1.41c.06-.19.14-.39.22-.62a11.92,11.92,0,0,0,.85-3.82A19.21,19.21,0,0,1,67,63.38Z"/><text class="cls-9" transform="translate(16.66 138.78)">Liliana Ochoa</text></g></svg>