<?xml version="1.0" encoding="utf-8"?>
<!-- Generator: Adobe Illustrator 24.3.0, SVG Export Plug-In . SVG Version: 6.00 Build 0)  -->
<svg version="1.1" xmlns="http://www.w3.org/2000/svg" xmlns:xlink="http://www.w3.org/1999/xlink" x="0px" y="0px"
	 viewBox="0 0 150 150" style="enable-background:new 0 0 150 150;" xml:space="preserve">
<style type="text/css">
	.st0{fill:#FFFFFF;}
	.st1{fill:#F1748A;}
	.st2{fill:#C5E9F9;}
	.st3{fill:#FFD1C2;}
	.st4{fill:#231411;}
	.st5{fill:#1C2021;}
	.st6{fill:#F78271;}
	.st7{fill:#853C2B;}
	.st8{fill:#FECA9A;}
	.st9{fill:#FFB260;}
	.st10{fill:#0094B9;}
	.st11{fill:#B3B3B3;}
	.st12{fill:none;stroke:#1C2021;stroke-width:34.5058;stroke-miterlimit:10;}
	.st13{fill:none;stroke:#1C2021;stroke-width:2.2891;stroke-miterlimit:10;}
	.st14{fill:none;stroke:#1C2021;stroke-width:2.7327;stroke-miterlimit:10;}
	.st15{fill:#E7EBEF;}
	.st16{fill:#8A90A5;}
	.st17{fill:#FFFFFF;stroke:#000000;stroke-width:0.4371;stroke-miterlimit:10;}
	.st18{fill:none;stroke:#1C2021;stroke-width:2.2571;stroke-miterlimit:10;}
	.st19{fill:#CCCCCC;}
	.st20{fill:none;stroke:#1C2021;stroke-width:2.1705;stroke-miterlimit:10;}
	.st21{clip-path:url(#SVGID_2_);}
	.st22{clip-path:url(#SVGID_4_);fill:#FDD56F;}
	.st23{fill:none;}
	.st24{fill:#FFEEDA;}
	.st25{fill:#562D24;}
	.st26{fill:none;stroke:#1C2021;stroke-width:7.0401;stroke-miterlimit:10;}
	.st27{fill:none;stroke:#1C2021;stroke-width:4.7187;stroke-miterlimit:10;}
</style>
<g id="Layer_2">
</g>
<g id="Layer_1">
	<g>
		<path class="st0" d="M14.4,148.8c-7.3,0-13.2-5.9-13.2-13.2V14.4c0-7.3,5.9-13.2,13.2-13.2h121.2c7.3,0,13.2,5.9,13.2,13.2v121.2
			c0,7.3-5.9,13.2-13.2,13.2H14.4z"/>
		<path class="st1" d="M135.6,2.4c6.6,0,12,5.4,12,12v121.2c0,6.6-5.4,12-12,12H14.4c-6.6,0-12-5.4-12-12V14.4c0-6.6,5.4-12,12-12
			H135.6 M135.6,0H14.4C6.5,0,0,6.5,0,14.4v121.2c0,7.9,6.5,14.4,14.4,14.4h121.2c7.9,0,14.4-6.5,14.4-14.4V14.4
			C150,6.5,143.5,0,135.6,0L135.6,0z"/>
	</g>
	<g>
		<path class="st23" d="M89.7,96.9c0.1-0.2,0.2-0.4,0.3-0.6c-0.2-3.5-0.2-10.6-0.2-12.9c0,0-0.1,0.1-0.1,0.1
			C89.7,87.7,89.7,93.7,89.7,96.9z"/>
		<path class="st23" d="M57.7,82.7c-0.2-0.2-0.4-0.3-0.5-0.5c0.3,2,1.8,11,2.2,17.6c0.1,0,0.1,0.1,0.2,0.1
			C59.7,95.8,58.6,87.9,57.7,82.7z"/>
		<path class="st23" d="M53.8,104.3c-0.5,0.2-1.1,0.5-1.8,0.8C52.7,104.8,53.3,104.5,53.8,104.3z"/>
		<path class="st3" d="M78.4,121.1c0,0-0.5-3.7-2.4-8.3c-0.8-1.8-1.6-3-2.3-3.8c-0.6-0.6-1.1-1-1.5-1.2c-0.6,1.4-1.7,7.9-2.2,12.6
			c0,0.3-0.1,0.7-0.1,1h8.6C78.5,121.3,78.4,121.2,78.4,121.1z"/>
		<path class="st3" d="M82.3,113.4c-0.7-2.6-2-4.1-2.5-4.7c-0.4,0.4-1.3,1.6-0.8,4.2c0.6,3.7,0.3,8,0.3,8.1c0,0.1-0.1,0.3-0.2,0.3
			h0.4h1.7h0h4.2c-0.1-0.2-0.2-0.4-0.2-0.6C84.5,119.3,82.9,115.5,82.3,113.4z"/>
		<path class="st3" d="M96.3,100.8c-1.6,3.1-5.4,14.5-7.1,20.6h31.1h1l0.4-0.6c4.1-6.5,6.6-10.7,6.6-10.7s-11.5-4.8-21.4-8.5
			c-1.9-0.2-8.6-2.3-9.9-2.7C96.9,99.5,96.6,100.1,96.3,100.8z"/>
		<path class="st3" d="M59.1,121.4h6.3c-1.8-3.6-4.1-7.9-5.4-10.1c-2-3.5-4.7-6.5-5.4-7.3c-0.3,0.1-0.5,0.2-0.8,0.3
			c-0.5,0.2-1.1,0.5-1.8,0.8c-3,1.6-6.3,4-6.4,4c-0.1,0.1-0.2,0.1-0.2,0.1c-0.1,0-0.3-0.1-0.3-0.2c0-0.1-0.1-0.1-0.1-0.2
			c-3.5,2-6.6,4.2-7.5,5.9c-0.5,1-0.5,3.4,0.1,6.6h19.8H59.1z"/>
		<g>
			<path class="st8" d="M73.7,89.8c-2,0-4.1-0.3-6-1c-3.6-1.3-7-3.4-10-6c0.8,5.1,1.9,13.1,1.9,17.2c1.6,0.9,3.9,2.1,6.5,3.5
				c0.3,0.2,0.6,0.4,1,0.5c2.1,1.1,4.2,2.3,5,2.7c0,0,0.1,0,0.1,0c0,0,0,0,0.1,0c0,0,0.1,0,0.1,0c0,0,0,0,0,0c0.1,0,2.5,0.9,4.4,5.7
				c0.8,1.8,1.3,3.5,1.7,4.8c0-1.3-0.1-2.9-0.4-4.3c-0.7-3.9,1.4-5.2,1.5-5.3c0,0,0,0,0,0c0,0,0,0,0,0c1.1-0.6,4.9-4.2,7.7-7.5
				c1-1.2,1.9-2.4,2.4-3.3c0-3.3,0-9.2,0-13.4C85.3,87.2,79.5,89.8,73.7,89.8z M77.3,104.7c-0.1,0.2-0.2,0.3-0.4,0.3
				c0,0-0.1,0-0.1,0c-0.2-0.1-0.4-0.3-0.3-0.5c0.2-0.6,0.3-1.3,0.5-2.1c1.1-4.7,2-11.6,2-11.7c0-0.2,0.3-0.4,0.5-0.4
				c0.2,0,0.4,0.2,0.4,0.5c0,0.1-0.9,6.7-2,11.4C77.7,103.2,77.5,104,77.3,104.7z"/>
			<path class="st8" d="M72.4,107.7C72.3,107.7,72.3,107.7,72.4,107.7C72.3,107.7,72.3,107.7,72.4,107.7c0.3,0.3,0.8,0.7,1.4,1.3
				C73.2,108.3,72.7,107.9,72.4,107.7z"/>
			<path class="st8" d="M46.4,49.4c0-1.3-0.2-2.8-0.5-4.4c-0.1-0.1-0.2-0.1-0.3-0.2c-0.1,0-0.3-0.1-0.4-0.1c-0.5,0-1,0.3-1.6,0.8
				c-1.6,1.5-1.5,3.9-1.1,5.6c0.7,3.4,2.9,6.7,4.3,7.3C46.4,53.6,46.4,49.6,46.4,49.4z"/>
			<path class="st8" d="M101.5,46.7c-0.2-1.4-0.7-2.2-1.5-2.5c-0.4-0.1-0.8-0.2-1.2-0.2c-0.5,0-0.9,0.1-1.2,0.4
				c-0.1,2.3-0.2,4.2-0.1,5.5c0,0.3,0,0.7,0.1,1.2c0.1,1.6,0.3,4.1,0.3,7.1C99.6,57.1,101.9,50.5,101.5,46.7z"/>
			<path class="st8" d="M96.6,46.8c0-0.6,0.1-1.3,0.1-2c0-0.3,0-0.5,0-0.8c0-0.5,0.1-0.9,0.1-1.4c0.2-3.2,0.4-6.9,0.4-10.4
				c0-6.8-10.3-17.5-24-21.6c-1.6-0.5-3.2-0.7-4.6-0.7C56.3,9.9,48,24.5,46.2,27.7c-2.1,3.9-1,9.6,0,14.6c0.1,0.7,0.3,1.4,0.4,2.1
				c0,0.3,0.1,0.5,0.1,0.7c0.1,0.3,0.1,0.7,0.2,1c0.2,1.1,0.3,2.2,0.3,3.1c0,0.1-0.1,4.1,0.3,9.1c0,0.1,0,0.3,0,0.4
				c0,0.1,0,0.3,0,0.4c0.3,2.8,0.7,5.9,1.3,8.6c1.2,4.8,4.3,9.6,8.5,13.4c3.1,2.8,6.7,5.1,10.5,6.5c7.3,2.7,15.9-0.4,21.7-5.5
				c1.5-1.4,2.9-2.9,3.9-4.5C96.5,73.6,97,65.5,97,59c0-0.2,0-0.3,0-0.5c0-0.2,0-0.4,0-0.6c0-2.9-0.2-5.3-0.3-6.8
				c0-0.5-0.1-0.9-0.1-1.2c0-0.3,0-0.7,0-1.1c0-0.4,0-0.7,0-1.1C96.6,47.4,96.6,47.1,96.6,46.8z M55.9,20.8c0,0,2.3-0.4,5.5-1.4
				c3.7-1.2,6.2-0.9,7.8-0.4c0.3,0.1,0.6,0.2,0.9,0.3c1.7,0.6,4.1,1.4,6.1,0.6c0.2-0.1,0.5,0,0.6,0.2c0.1,0.2,0,0.5-0.2,0.6
				c-2.4,0.9-5,0-6.7-0.6c-0.3-0.1-0.6-0.2-0.9-0.3c-1.4-0.4-3.8-0.7-7.2,0.4c-3.3,1-5.5,1.4-5.6,1.5c0,0-0.1,0-0.1,0
				c-0.2,0-0.4-0.1-0.4-0.4C55.5,21,55.6,20.8,55.9,20.8z M55.1,24.1c0.2-0.1,5.7-3.3,10.8-3.1c2.2,0.1,3.4,0.4,4.4,0.5
				c1.3,0.2,2.1,0.4,4.2,0.1c1.1-0.2,2.1-0.3,3-0.5c2.2-0.4,3.9-0.7,5.6-0.6c2.4,0.1,4.2,0.7,4.3,0.7c0.2,0.1,0.4,0.3,0.3,0.5
				c-0.1,0.2-0.3,0.4-0.5,0.3c0,0-1.8-0.5-4.1-0.6c-1.6-0.1-3.3,0.2-5.4,0.6c-0.9,0.2-1.9,0.3-3.1,0.5c-2.2,0.3-3.1,0.1-4.5-0.1
				c-1-0.2-2.2-0.4-4.3-0.5c-4.8-0.3-10.2,2.9-10.3,3c-0.1,0-0.1,0.1-0.2,0.1c-0.1,0-0.3-0.1-0.4-0.2C54.8,24.5,54.9,24.2,55.1,24.1
				z M79.5,60.4c-0.2-0.1-0.3-0.3-0.3-0.5c0.1-0.2,0.3-0.3,0.5-0.3c3.1,1.1,4.2,2.8,4.3,3.9c0,0.6-0.2,1-0.6,1.2
				C83,65,82.2,65,81.3,65.1c-1,0.1-2.4,0.1-2.8,0.6c-0.6,0.7-1.7,1.3-3.1,1.3c-1,0-2.1-0.3-3.3-1.1c-1.3-0.8-2.3-0.7-3.3-0.6
				c-0.9,0.1-1.8,0.2-2.5-0.8c-0.3-0.5-0.4-1-0.2-1.6c0.5-1.5,2.7-2.9,4.1-3.4c0.7-0.2,0.7-0.7,0.6-1.9c-0.1-0.8-0.2-1.7,0.1-2.7
				c0.5-1.7,0.4-4.8,0.3-6.6c0-0.5,0-0.9,0-1.2c0-0.2,0.2-0.4,0.4-0.4s0.4,0.2,0.4,0.4c0,0.3,0,0.7,0,1.2c0.1,2,0.2,5-0.4,6.8
				c-0.2,0.8-0.2,1.6-0.1,2.4c0.1,1.1,0.2,2.2-1.1,2.7c-1.3,0.5-3.2,1.7-3.6,2.9c-0.1,0.3-0.1,0.6,0.1,0.8c0.4,0.5,0.8,0.5,1.7,0.4
				c1-0.1,2.3-0.2,3.8,0.8c2.5,1.6,4.5,0.8,5.2-0.1c0.6-0.7,2-0.8,3.4-0.9c0.7,0,1.5-0.1,1.8-0.2c0.2-0.1,0.2-0.3,0.2-0.4
				C83.2,62.9,82.4,61.5,79.5,60.4z M52.9,39.6c-0.3-0.7,0.1-1.8,1.3-3c1.9-1.9,5.3-3.3,9.2-1.5c2.8,1.3,3.3,3.1,3,4
				c-0.2,0.6-0.7,0.9-1.3,0.7c-1.1-0.3-2-0.8-2.3-0.9c-2.1,0.1-3.8,0.6-5.2,1c-1,0.3-1.9,0.5-2.7,0.6c-0.1,0-0.2,0-0.3,0
				C53.4,40.4,53.1,39.9,52.9,39.6z M54.2,45.7c0-0.6,0.4-1.7,2.8-2.5c3.1-1.1,6.2,0.2,9,1.8c0.6,0.3,0.9,0.8,0.7,1.4
				c-0.2,1.2-2.1,2.2-4.8,2.5C61.4,49,60.8,49,60.3,49c-2.3,0-3.5-0.7-4.4-1.3c-0.2-0.1-0.4-0.2-0.6-0.3
				C54.6,47,54.2,46.4,54.2,45.7z M55.7,48.9c-0.2-0.2-0.2-0.4,0-0.6c0.2-0.2,0.4-0.2,0.6,0c0,0,0.9,0.8,3.2,1.3
				c2.6,0.5,7-0.7,7.3-1.4c0.1-0.2,0.3-0.3,0.5-0.3c0.2,0.1,0.3,0.3,0.3,0.5c-0.4,1.2-4,2.1-6.7,2.1c-0.6,0-1.1,0-1.6-0.1
				C56.8,49.9,55.8,48.9,55.7,48.9z M74.1,79.3c-1.3,0-2.6-0.3-3.8-0.9c-0.9-0.5-1.8-1.2-2.4-2.2c-0.4-0.7-0.6-1.2-0.7-1.7
				c-1-0.1-1.7-0.3-1.8-0.5c0-0.1-0.1-0.4,0.4-0.6c1.3-0.5,2.1-0.9,2.7-1.1c0.8-0.4,1.4-0.6,2.4-1c1.9-0.7,3.9-0.7,5.7-0.5
				c1,0.1,2.3,0.5,3.5,0.8c1.1,0.3,2.1,0.6,2.6,0.6c0,0,2.2,0,2.3,1c0,0.5-0.5,0.8-2,1c0,0,0,0,0,0c0.1,1.5-1.2,3-3.5,3.9
				c-0.5,0.2-1.1,0.4-1.7,0.6C76.6,79.1,75.3,79.3,74.1,79.3z M90.1,47.4c-0.1,0-0.1,0.1-0.2,0.1c0,0.1,0.1,0.2,0.1,0.4
				c0,0.5-0.4,1-0.8,1.3c-1.2,1-3.4,1.9-5.9,1.6c-2-0.2-3.1-0.8-3.6-1.4c-0.5-0.5-0.6-0.9-0.6-1.2c0-0.2,0.2-0.2,0.4-0.2
				c0.2,0,0.3,0.1,0.4,0.3c0,0,0.5,1.3,3.6,1.7c2.2,0.3,4.2-0.5,5.2-1.4c0.3-0.3,0.4-0.4,0.4-0.6c-0.9,0.5-2.1,1-4,1
				c-0.5,0-1,0-1.6-0.1c-2.7-0.3-4.5-1.3-4.8-2.5c-0.1-0.5,0.2-1,0.7-1.4c2.9-1.6,6-2.9,9-1.8c2.3,0.9,2.7,1.9,2.8,2.5
				C91.3,46.4,90.9,47,90.1,47.4z M92.5,39.6c-0.1,0.3-0.5,0.8-1.6,0.8c-0.1,0-0.2,0-0.3,0c-0.8-0.1-1.7-0.3-2.7-0.6
				c-1.5-0.4-3.1-0.9-5.2-1c-0.3,0.2-1.2,0.7-2.3,0.9c-0.6,0.1-1.1-0.1-1.3-0.7c-0.3-0.9,0.2-2.7,3-4c3.9-1.8,7.3-0.4,9.2,1.5
				C92.4,37.8,92.9,38.8,92.5,39.6z"/>
		</g>
		<path class="st7" d="M79.9,38.7c0.1,0.2,0.2,0.2,0.3,0.2c1.2-0.3,2.1-0.9,2.1-0.9c0.1,0,0.2-0.1,0.2-0.1l0,0
			c2.3,0.1,4.1,0.6,5.6,1c1,0.3,1.8,0.5,2.5,0.6c0.6,0,1-0.1,1.1-0.3c0.1-0.3-0.2-1.1-1.1-2c-1.7-1.7-4.7-2.9-8.2-1.4
			C80.1,36.9,79.7,38.2,79.9,38.7z"/>
		<path class="st0" d="M90.4,45.8c0-0.6-0.9-1.3-2.2-1.8c-0.1,0-0.2-0.1-0.3-0.1c0,0.6,0,1.3-0.3,1.9c0.1,0.2,0.2,0.3,0.2,0.6
			c0,0.6-0.5,1-1.2,1c-0.1,0-0.2,0-0.3-0.1c-0.6,0.3-1.4,0.3-2.5-0.2c-1.6-0.8-2-1.6-1.9-2.5c-0.7,0.3-1.4,0.7-2.1,1.1
			c-0.4,0.2-0.3,0.4-0.3,0.5c0.1,0.6,1.4,1.5,4,1.8c2.2,0.3,3.6-0.1,4.5-0.5c-0.1-0.1-0.1-0.1-0.1-0.2c-0.1-0.2,0.1-0.5,0.3-0.5
			c0.1,0,0.6-0.1,1,0.1c0.1-0.1,0.3-0.2,0.4-0.2C90,46.5,90.4,46.2,90.4,45.8z"/>
		<path class="st7" d="M62.9,37.9c0.1,0,0.2,0,0.3,0.1c0,0,0.9,0.6,2.1,0.9c0.2,0,0.3,0,0.3-0.2c0.2-0.5-0.2-1.9-2.5-2.9
			c-1.1-0.5-2.2-0.7-3.2-0.7c-2.1,0-3.9,0.9-5,2.1c-1,1-1.3,1.7-1.1,2c0.1,0.2,0.5,0.3,1.1,0.3c0.7-0.1,1.5-0.3,2.5-0.6
			C58.8,38.5,60.6,38,62.9,37.9z"/>
		<path class="st0" d="M61.9,48c0.7-0.1,1.3-0.2,1.8-0.4c-0.2,0-0.3,0-0.4-0.1c-0.2,0.1-0.4,0.1-0.6,0.2c-3.3,1-4-2.1-3.4-4.1
			c-0.7,0-1.3,0.1-2,0.4c-1.3,0.5-2.2,1.1-2.2,1.8c0,0.5,0.4,0.7,0.6,0.8c0.2,0.1,0.4,0.2,0.7,0.4C57.4,47.6,58.8,48.4,61.9,48z"/>
		<path class="st0" d="M64.8,46.2c0.1,0.1,0.1,0.3,0.1,0.4c0,0.3-0.1,0.5-0.3,0.7c0.8-0.4,1.3-0.8,1.3-1.1c0-0.1,0-0.3-0.3-0.5
			c-0.2-0.1-0.4-0.2-0.7-0.4C64.9,45.7,64.9,46,64.8,46.2z"/>
		<path class="st3" d="M72,74.6c-1.5,0-2.9,0-4-0.1c0.1,0.4,0.3,0.8,0.6,1.2c2.3,3.5,7,3.1,10.6,1.6c2.2-0.9,3-2.2,3-3c0,0,0,0,0,0
			c0,0,0,0,0,0C81.4,74.4,76.4,74.6,72,74.6z"/>
		<path class="st3" d="M59.6,100.9C59.6,100.8,59.5,100.8,59.6,100.9c-0.1,0.1-0.1,0.3-0.1,0.5C59.6,101.2,59.6,101,59.6,100.9z"/>
		<path class="st3" d="M59.6,103.5c0,0,0.1,0,0.1,0c0-0.1-0.1-0.1-0.1-0.2C59.6,103.4,59.6,103.4,59.6,103.5z"/>
		<path class="st3" d="M58.7,103.5c0-0.9,0-2-0.1-3.1c-0.9-0.4-1.5-0.7-1.8-0.8c-0.1,0-0.3,0-0.4,0.1c-0.7,0.5-1.1,2.4-1.3,3.7
			c0,0,0.1,0.1,0.2,0.2c0.3-0.2,0.5-0.2,0.5-0.2S56.9,103.4,58.7,103.5z"/>
		<path class="st3" d="M66.3,121.4h2.8c0-0.3,0.1-0.7,0.1-1.1c0.1-1.4,1.2-10.4,2.3-12.9c-0.2-0.1-0.3-0.1-0.3-0.1
			s-9.5-1.2-11.5-3.8c0,0-0.1,0-0.1,0c0,1-0.1,1.8-0.2,2.3c0,0.2-0.2,0.3-0.4,0.3c0,0-0.1,0-0.1,0c-0.2,0-0.4-0.3-0.3-0.5
			c0.1-0.5,0.2-1.3,0.2-2.2c-1.8-0.1-2.9-0.2-2.9-0.2s-0.2,0.1-0.5,0.2c0.9,0.9,3.4,3.9,5.4,7.3C62,113,64.4,117.6,66.3,121.4z"/>
		<path class="st3" d="M59.6,103.3c0,0.1,0.1,0.1,0.1,0.2c1.3,0,2.9,0.1,4.8,0c-1.7-0.9-3.5-1.9-4.9-2.6c0,0.2,0,0.3-0.1,0.5
			C59.6,102,59.6,102.7,59.6,103.3z"/>
		<path class="st3" d="M59.7,103.5c2,2.7,11.5,3.8,11.5,3.8s0.1,0,0.3,0.1c0,0,0,0,0,0c-0.8-0.4-2.2-1.2-4.9-2.6
			c-0.7-0.4-1.5-0.8-2.2-1.2C62.6,103.5,61,103.5,59.7,103.5z"/>
		<path class="st3" d="M58.7,103.5c0.3,0,0.6,0,0.9,0c0-0.1,0-0.1,0-0.2c-0.3-0.4-0.3-0.8-0.2-1.3c0.1-0.2,0.1-0.4,0.1-0.7
			c0-0.2,0-0.3,0-0.5c-0.3-0.2-0.6-0.3-0.9-0.5C58.7,101.5,58.7,102.6,58.7,103.5z"/>
		<path class="st3" d="M58.6,105.6c-0.1,0.2,0.1,0.5,0.3,0.5c0,0,0.1,0,0.1,0c0.2,0,0.4-0.1,0.4-0.3c0.1-0.6,0.2-1.4,0.2-2.3
			c-0.3,0-0.6,0-0.9,0C58.7,104.4,58.7,105.1,58.6,105.6z"/>
		<path class="st3" d="M59.4,102c-0.1,0.5-0.1,0.9,0.2,1.3c0-0.6,0-1.3-0.1-2C59.5,101.6,59.5,101.8,59.4,102z"/>
		<path class="st3" d="M89.5,99.6c5.6-1.6,4.1-2,3.5-2.1c0.2,0,0.4,0,0.9,0c0.5,0,1.3,0.2,2.5,0.5c0-0.2,0-0.3-0.1-0.4
			c-0.2-0.4-0.8-0.5-1.5-0.6c-0.2,0-0.5-0.1-0.7-0.1c-1.2-0.2-2.4-0.5-3-0.7c0,0.1-0.1,0.2-0.1,0.3c0,0.6,0.1,1.1,0.1,1.4
			c0,0.2-0.1,0.5-0.4,0.5c0,0,0,0-0.1,0c-0.2,0-0.4-0.1-0.4-0.4c0-0.1,0-0.1,0-0.2c-0.1,0.2-0.3,0.4-0.4,0.6c0,0.5,0,0.7,0,0.8
			C89.7,99.3,89.6,99.4,89.5,99.6z"/>
		<path class="st3" d="M93,97.5c0.6,0.1,2.1,0.4-3.5,2.1c-1,1.6-5.6,8-8.3,8.1c-0.3,0.2-0.5,0.4-0.7,0.6c0.6,0.7,1.9,2.3,2.6,5
			c0.5,1.9,2,5.5,3.2,8.2h1.9c1.8-6.4,5.8-18.2,7.2-21c0.6-1.2,0.8-1.9,0.8-2.4c-1.1-0.3-2-0.5-2.5-0.5C93.4,97.5,93.1,97.5,93,97.5
			z"/>
		<path class="st3" d="M89.5,99.6c0.1-0.2,0.2-0.3,0.2-0.4c0,0,0-0.3,0-0.8c-0.3,0.4-0.7,0.9-1,1.4C89,99.8,89.2,99.7,89.5,99.6z"/>
		<path class="st3" d="M89.5,99.6c-0.2,0.1-0.5,0.1-0.8,0.2c-2.3,2.9-5.6,6.2-7.5,7.8C83.9,107.6,88.4,101.2,89.5,99.6z"/>
		<path class="st3" d="M90.6,98.4C90.6,98.4,90.6,98.4,90.6,98.4c0.3,0,0.5-0.3,0.4-0.5c0-0.3-0.1-0.8-0.1-1.4
			c-0.2,0.4-0.4,0.8-0.8,1.3c0,0.1,0,0.2,0,0.2C90.2,98.3,90.4,98.4,90.6,98.4z"/>
		<path class="st3" d="M83.8,73.2c-0.3-0.1-0.7-0.1-1-0.1c-0.1,0-0.2,0-0.3,0c0.1,0.1,0.2,0.2,0.3,0.4
			C83.2,73.3,83.5,73.2,83.8,73.2z"/>
		<path class="st3" d="M67.3,73.7C67.3,73.7,67.3,73.7,67.3,73.7C67.3,73.6,67.3,73.6,67.3,73.7C67.3,73.6,67.3,73.6,67.3,73.7z"/>
		<path class="st3" d="M71,72.5c0.5-0.1,4.4-0.6,7.5-0.5c-0.7-0.2-1.3-0.3-1.9-0.4c-2-0.2-3.6-0.1-5.3,0.5c-0.4,0.2-0.8,0.3-1.1,0.4
			C70.5,72.4,70.8,72.5,71,72.5z"/>
		<path class="st3" d="M81.7,73.5c-0.2-0.2-0.6-0.4-1-0.5c-2.6-0.6-9.6,0.3-9.7,0.3c0,0-0.1,0-0.1,0c-0.2,0-0.4,0-0.7,0
			c-0.6,0-1.4,0.1-1.9,0.4C71.8,73.9,78.4,73.8,81.7,73.5z"/>
		<path class="st3" d="M68.2,73.3c-0.3,0.1-0.6,0.2-0.9,0.4c0,0,0,0,0,0c0.1,0,0.3,0,0.4,0C67.9,73.5,68,73.4,68.2,73.3z"/>
		<path class="st3" d="M82.2,73.4c0.2,0,0.3,0,0.5-0.1c-0.1-0.1-0.2-0.3-0.3-0.4c-0.3,0-0.6-0.1-1-0.2C81.8,73,82,73.2,82.2,73.4z"
			/>
		<path class="st3" d="M71,72.9c0,0,6.4-0.9,9.4-0.4c-0.2-0.1-0.3-0.1-0.5-0.2c-0.5-0.1-0.9-0.3-1.4-0.4c-3,0-6.9,0.5-7.5,0.5
			c-0.1,0-0.4,0-0.8,0c-0.4,0.2-0.8,0.3-1.3,0.5c-0.1,0-0.1,0-0.2,0.1C69.7,72.8,71,72.9,71,72.9z"/>
		<path class="st3" d="M70.9,73.3c0,0,0.1,0,0.1,0c0.1,0,7-0.9,9.7-0.3c0.4,0.1,0.8,0.3,1,0.5c0.1,0,0.2,0,0.3,0c0.1,0,0.1,0,0.2,0
			c-0.2-0.2-0.5-0.5-0.8-0.6c-0.3-0.1-0.7-0.2-1-0.3c-3-0.5-9.4,0.4-9.4,0.4s-1.2-0.2-2.2,0.1c-0.2,0.1-0.3,0.1-0.5,0.2
			c-0.2,0.1-0.4,0.3-0.5,0.4c0.2,0,0.4,0,0.5,0c0.4-0.3,1.2-0.4,1.9-0.4C70.5,73.3,70.7,73.3,70.9,73.3z"/>
		<path class="st0" d="M64.8,46.2c-0.2,0.5-0.7,1-1.6,1.4c0.1,0,0.3,0.1,0.4,0.1c0.3-0.1,0.6-0.2,0.9-0.3c0.2-0.2,0.3-0.4,0.3-0.7
			C64.9,46.5,64.9,46.4,64.8,46.2z"/>
		<path class="st0" d="M63.7,47.7c0.3,0,0.7-0.1,0.9-0.3C64.3,47.4,64,47.6,63.7,47.7C63.7,47.7,63.7,47.7,63.7,47.7z"/>
		<path class="st0" d="M64.8,46.2c-0.2-0.4-0.6-0.6-1.1-0.6c-0.7,0-1.2,0.5-1.2,1c0,0.4,0.3,0.8,0.8,1
			C64.1,47.2,64.6,46.7,64.8,46.2z"/>
		<path class="st0" d="M86.3,47.4c0.1,0,0.2,0.1,0.3,0.1c0.7,0,1.2-0.5,1.2-1c0-0.2-0.1-0.4-0.2-0.6C87.3,46.5,86.9,47.1,86.3,47.4z
			"/>
		<path class="st0" d="M86.6,45.4c-0.7,0-1.2,0.5-1.2,1c0,0.5,0.4,0.9,0.9,1c0.6-0.3,1-0.9,1.3-1.5C87.4,45.6,87,45.4,86.6,45.4z"/>
		<g>
			<path class="st5" d="M82,35c-2.8,1.3-3.3,3.1-3,4c0.2,0.6,0.7,0.9,1.3,0.7c1.1-0.3,2-0.8,2.3-0.9c2.1,0.1,3.8,0.6,5.2,1
				c1,0.3,1.9,0.5,2.7,0.6c0.1,0,0.2,0,0.3,0c1.1,0,1.5-0.5,1.6-0.8c0.3-0.7-0.1-1.8-1.3-3C89.3,34.7,85.9,33.3,82,35z M91.7,39.2
				c-0.1,0.2-0.5,0.3-1.1,0.3c-0.7-0.1-1.5-0.3-2.5-0.6c-1.5-0.4-3.3-0.9-5.6-1l0,0c-0.1,0-0.2,0-0.2,0.1c0,0-0.9,0.6-2.1,0.9
				c-0.2,0-0.3,0-0.3-0.2c-0.2-0.5,0.2-1.9,2.5-2.9c3.5-1.6,6.5-0.3,8.2,1.4C91.6,38.2,91.9,38.9,91.7,39.2z"/>
			<path class="st5" d="M88.5,43.2c-3.1-1.1-6.2,0.2-9,1.8c-0.6,0.3-0.9,0.8-0.7,1.4c0.2,1.2,2.1,2.2,4.8,2.5
				c0.6,0.1,1.1,0.1,1.6,0.1c2,0,3.2-0.5,4-1c0,0.1-0.2,0.3-0.4,0.6c-1,0.9-3,1.7-5.2,1.4c-3-0.4-3.6-1.7-3.6-1.7
				c-0.1-0.2-0.2-0.3-0.4-0.3c-0.2,0-0.4,0-0.4,0.2c0,0.3,0.1,0.8,0.6,1.2c0.6,0.5,1.7,1.1,3.6,1.4c2.5,0.3,4.7-0.6,5.9-1.6
				c0.3-0.3,0.8-0.8,0.8-1.3c0-0.1,0-0.3-0.1-0.4c0.1,0,0.1-0.1,0.2-0.1c0.7-0.4,1.1-1,1.1-1.7C91.2,45.2,90.8,44.1,88.5,43.2z
				 M89.8,46.6c-0.1,0.1-0.3,0.2-0.4,0.2c-0.5-0.2-1-0.1-1-0.1c-0.2,0.1-0.4,0.3-0.3,0.5c0,0.1,0.1,0.2,0.1,0.2
				c-1,0.5-2.3,0.8-4.5,0.5c-2.6-0.3-3.9-1.2-4-1.8c0-0.1,0-0.2,0.3-0.5c0.7-0.4,1.4-0.7,2.1-1.1c-0.1,0.8,0.3,1.7,1.9,2.5
				c1,0.5,1.8,0.5,2.5,0.2c-0.5-0.1-0.9-0.5-0.9-1c0-0.6,0.5-1,1.2-1c0.4,0,0.8,0.2,1,0.5c0.2-0.6,0.3-1.3,0.3-1.9
				c0.1,0,0.2,0.1,0.3,0.1c1.3,0.5,2.2,1.1,2.2,1.8C90.4,46.2,90,46.5,89.8,46.6z"/>
			<path class="st5" d="M54.5,40.4c0.1,0,0.2,0,0.3,0c0.8-0.1,1.7-0.3,2.7-0.6c1.5-0.4,3.1-0.9,5.2-1c0.3,0.2,1.2,0.7,2.3,0.9
				c0.6,0.1,1.1-0.1,1.3-0.7c0.3-0.9-0.2-2.7-3-4c-3.9-1.8-7.3-0.4-9.2,1.5c-1.2,1.2-1.7,2.3-1.3,3C53.1,39.9,53.4,40.4,54.5,40.4z
				 M59.8,35.1c1,0,2.1,0.2,3.2,0.7c2.3,1,2.7,2.4,2.5,2.9c-0.1,0.2-0.2,0.2-0.3,0.2C64,38.6,63.1,38,63.1,38
				c-0.1-0.1-0.2-0.1-0.3-0.1c-2.3,0.1-4.1,0.6-5.6,1c-1,0.3-1.8,0.5-2.5,0.6c-0.6,0-1-0.1-1.1-0.3c-0.1-0.3,0.2-1.1,1.1-2
				C56,36,57.7,35.1,59.8,35.1z"/>
			<path class="st5" d="M60.3,49c0.5,0,1,0,1.6-0.1c2.7-0.3,4.5-1.3,4.8-2.5c0.1-0.5-0.2-1-0.7-1.4c-2.9-1.6-6-2.9-9-1.8
				c-2.3,0.9-2.7,1.9-2.8,2.5c0,0.7,0.4,1.3,1.1,1.7c0.2,0.1,0.4,0.2,0.6,0.3C56.9,48.3,58.1,49,60.3,49z M59.3,43.7
				c-0.6,2,0.1,5.1,3.4,4.1c0.2-0.1,0.4-0.1,0.6-0.2c-0.4-0.2-0.8-0.5-0.8-1c0-0.6,0.5-1,1.2-1c0.5,0,0.9,0.3,1.1,0.6
				c0.1-0.3,0.1-0.5,0.1-0.8c0.2,0.1,0.4,0.2,0.7,0.4c0.4,0.2,0.3,0.4,0.3,0.5c-0.1,0.3-0.5,0.7-1.3,1.1c-0.2,0.2-0.5,0.3-0.9,0.3
				c0,0,0,0,0,0c-0.5,0.2-1.1,0.3-1.8,0.4c-3.1,0.4-4.4-0.4-5.5-1c-0.2-0.1-0.5-0.3-0.7-0.4c-0.2-0.1-0.7-0.4-0.6-0.8
				c0-0.6,0.9-1.3,2.2-1.8C57.9,43.8,58.6,43.7,59.3,43.7z"/>
			<path class="st5" d="M70.3,59.5c-1.4,0.5-3.7,1.9-4.1,3.4c-0.2,0.6-0.1,1.1,0.2,1.6c0.7,1,1.6,0.9,2.5,0.8c0.9-0.1,2-0.2,3.3,0.6
				c1.2,0.8,2.3,1.1,3.3,1.1c1.4,0,2.5-0.6,3.1-1.3c0.4-0.4,1.7-0.5,2.8-0.6c0.9-0.1,1.7-0.1,2.2-0.3c0.4-0.2,0.7-0.7,0.6-1.2
				c-0.1-1.1-1.2-2.8-4.3-3.9c-0.2-0.1-0.5,0-0.5,0.3c-0.1,0.2,0,0.5,0.3,0.5c2.9,1,3.7,2.5,3.7,3.1c0,0.1,0,0.3-0.2,0.4
				c-0.3,0.2-1.1,0.2-1.8,0.2c-1.4,0.1-2.8,0.2-3.4,0.9c-0.8,0.9-2.8,1.7-5.2,0.1c-1.6-1-2.9-0.9-3.8-0.8c-0.9,0.1-1.3,0.1-1.7-0.4
				c-0.2-0.2-0.2-0.5-0.1-0.8c0.4-1.2,2.3-2.4,3.6-2.9c1.4-0.5,1.2-1.6,1.1-2.7c-0.1-0.7-0.2-1.5,0.1-2.4c0.5-1.9,0.4-4.8,0.4-6.8
				c0-0.5,0-0.9,0-1.2c0-0.2-0.2-0.4-0.4-0.4s-0.4,0.2-0.4,0.4c0,0.3,0,0.7,0,1.2c0.1,1.8,0.2,4.8-0.3,6.6c-0.3,1-0.2,1.9-0.1,2.7
				C71,58.8,71,59.2,70.3,59.5z"/>
			<path class="st5" d="M107.2,100.8c-1.1,0-7.6-2-10-2.7c0-0.3,0-0.6-0.2-0.8c-0.4-0.8-1.3-0.9-2.2-1c-0.2,0-0.4-0.1-0.6-0.1
				c-1.6-0.3-3.3-0.8-3.3-0.8c0,0,0,0,0,0c-0.2-4.4-0.2-12.5-0.2-12.6c0,0,0,0,0,0c1.4-1.3,2.7-2.7,3.6-4.2c3-4.5,3.5-12.8,3.5-19.3
				c0.1,0,0.3-0.1,0.4-0.2c2.2-1.4,4.6-8.4,4.1-12.3c-0.3-2.2-1.3-3-2.1-3.2c-1-0.3-1.9-0.3-2.5,0c0-0.2,0-0.4,0-0.7
				c0.2-3.2,0.4-6.9,0.4-10.5c0-7.1-10.5-18.2-24.6-22.4c-15.4-4.6-26,13.8-28,17.6c-2.2,4.2-1.1,10-0.1,15.2c0.1,0.5,0.2,1,0.3,1.4
				c-0.9-0.2-1.8,0.1-2.7,1c-1.9,1.7-1.8,4.5-1.4,6.4c0.7,3.5,3.1,7.3,4.9,7.9c0.1,0,0.2,0.1,0.3,0.1c0.3,2.9,0.7,6,1.4,8.8
				c1.2,4.7,4.2,9.5,8.3,13.4c-0.1,0.1-0.2,0.2-0.2,0.4c0,0.1,1.7,10.2,2.2,17.4c-0.7-0.3-1.2-0.6-1.5-0.6c-0.4-0.1-0.8,0-1.1,0.2
				c-1.1,0.8-1.5,3.3-1.7,4.2c-3.2,1-8.9,5.1-9.2,5.3c-0.1,0.1-0.2,0.2-0.2,0.4c0,0.1,0,0.1,0.1,0.2c0.1,0.1,0.2,0.2,0.3,0.2
				c0.1,0,0.2,0,0.2-0.1c0,0,3.4-2.5,6.4-4c0.6-0.3,1.2-0.6,1.8-0.8c0.3-0.1,0.6-0.2,0.8-0.3c0.7,0.8,3.4,3.8,5.4,7.3
				c1.3,2.3,3.6,6.5,5.4,10.1h0.5h0.5c-1.9-3.8-4.3-8.3-5.6-10.6c-2-3.4-4.5-6.3-5.4-7.3c-0.1-0.1-0.1-0.2-0.2-0.2
				c0.2-1.3,0.6-3.2,1.3-3.7c0.1-0.1,0.2-0.1,0.4-0.1c0.3,0.1,0.9,0.4,1.8,0.8c0.3,0.1,0.6,0.3,0.9,0.5c0,0,0.1,0,0.1,0
				c1.4,0.7,3.2,1.7,4.9,2.6c0.8,0.4,1.5,0.8,2.2,1.2c2.6,1.4,4,2.2,4.9,2.6c0,0,0,0,0,0c-1.1,2.5-2.1,11.5-2.3,12.9
				c0,0.4-0.1,0.7-0.1,1.1h0.4H70c0-0.3,0.1-0.6,0.1-1c0.4-4.8,1.6-11.2,2.2-12.6c0,0,0,0,0-0.1c0,0,0,0,0.1,0
				c0.3,0.2,0.8,0.5,1.4,1.3c0.7,0.8,1.5,2,2.3,3.8c1.9,4.6,2.4,8.2,2.4,8.3c0,0.1,0.1,0.2,0.2,0.3h0.2h0.2c0.1-0.1,0.2-0.2,0.2-0.3
				c0-0.2,0.3-4.4-0.3-8.1c-0.4-2.6,0.4-3.8,0.8-4.2c0.5,0.5,1.8,2,2.5,4.7c0.6,2.1,2.2,5.9,2.9,7.4c0.1,0.2,0.2,0.4,0.2,0.6h0.5
				h0.5c-1.2-2.7-2.7-6.3-3.2-8.2c-0.7-2.7-2-4.3-2.6-5c0.2-0.1,0.4-0.3,0.7-0.6c1.9-1.6,5.2-4.9,7.5-7.8c0.4-0.5,0.7-0.9,1-1.4
				c0.2-0.2,0.3-0.4,0.4-0.6c0.3-0.5,0.6-0.9,0.8-1.3c0-0.1,0.1-0.2,0.1-0.3c0.6,0.2,1.9,0.5,3,0.7c0.2,0,0.4,0.1,0.7,0.1
				c0.7,0.1,1.3,0.2,1.5,0.6c0,0.1,0.1,0.2,0.1,0.4c0,0.4-0.2,1.1-0.8,2.4c-1.4,2.8-5.5,14.6-7.2,21h0.4h0.4
				c1.7-6.1,5.5-17.5,7.1-20.6c0.4-0.7,0.6-1.3,0.8-1.8c1.3,0.4,8,2.5,9.9,2.7c0.1,0,0.2,0,0.3,0c0.2,0,0.4-0.2,0.4-0.4
				C107.6,101,107.4,100.8,107.2,100.8z M47.6,58.9c0-0.1,0-0.3,0-0.4c-0.4-4.9-0.3-9-0.3-9.1c0-1-0.1-2-0.3-3.1
				c0-0.3-0.1-0.7-0.2-1c0-0.2-0.1-0.5-0.1-0.7c-0.1-0.7-0.3-1.4-0.4-2.1c-1-5-2.1-10.7,0-14.6C48,24.5,56.3,9.9,68.6,9.9
				c1.5,0,3,0.2,4.6,0.7c13.7,4.1,24,14.8,24,21.6c0,3.5-0.2,7.2-0.4,10.4c0,0.5-0.1,0.9-0.1,1.4c0,0.3,0,0.5,0,0.8
				c0,0.7-0.1,1.4-0.1,2c0,0.3,0,0.5,0,0.8c0,0.4,0,0.8,0,1.1c0,0.4,0,0.8,0,1.1c0,0.3,0,0.7,0.1,1.2c0.1,1.5,0.2,4,0.3,6.8
				c0,0.2,0,0.4,0,0.6c0,0.2,0,0.3,0,0.5c0,6.5-0.5,14.6-3.4,18.9c-1,1.6-2.4,3.1-3.9,4.5C84,87.5,75.3,90.6,68.1,88
				c-3.8-1.4-7.4-3.7-10.5-6.5c-4.2-3.9-7.3-8.7-8.5-13.4c-0.7-2.7-1.1-5.8-1.3-8.6C47.7,59.2,47.7,59.1,47.6,58.9z M43.6,45.6
				c0.6-0.5,1.1-0.8,1.6-0.8c0.1,0,0.3,0,0.4,0.1c0.1,0,0.2,0.1,0.3,0.2c0.3,1.6,0.5,3.1,0.5,4.4c0,0.1,0,4.2,0.3,9.1
				c-1.4-0.6-3.6-3.9-4.3-7.3C42.1,49.4,42,47,43.6,45.6z M100,44.2c0.8,0.3,1.4,1.1,1.5,2.5c0.5,3.8-1.9,10.4-3.7,11.5
				c0-3-0.2-5.5-0.3-7.1c0-0.5-0.1-0.9-0.1-1.2c-0.1-1.3,0-3.2,0.1-5.5c0.3-0.2,0.7-0.4,1.2-0.4C99.1,44,99.5,44.1,100,44.2z
				 M72.4,106.8C72.4,106.8,72.4,106.8,72.4,106.8c-0.1,0-0.1,0-0.1,0c0,0,0,0-0.1,0c0,0-0.1,0-0.1,0c-0.8-0.4-3-1.6-5-2.7
				c-0.3-0.2-0.7-0.4-1-0.5c-2.6-1.4-4.9-2.7-6.5-3.5c-0.1,0-0.1-0.1-0.2-0.1c-0.5-6.5-1.9-15.5-2.2-17.6c0.2,0.2,0.4,0.3,0.5,0.5
				c3,2.6,6.4,4.7,10,6c1.9,0.7,3.9,1,6,1c5.7,0,11.6-2.5,16-6.2c0,0,0.1-0.1,0.1-0.1c0,2.3,0,9.4,0.2,12.9
				c-0.1,0.2-0.2,0.4-0.3,0.6c-0.6,0.9-1.4,2.1-2.4,3.3c-2.8,3.3-6.5,7-7.7,7.5c0,0,0,0,0,0c0,0,0,0,0,0c-0.1,0.1-2.2,1.3-1.5,5.3
				c0.2,1.4,0.3,2.9,0.4,4.3c-0.4-1.4-0.9-3-1.7-4.8C74.8,107.7,72.5,106.8,72.4,106.8z"/>
			<path class="st5" d="M76.8,105c0,0,0.1,0,0.1,0c0.2,0,0.4-0.1,0.4-0.3c0.2-0.7,0.4-1.6,0.6-2.5c1.1-4.8,2-11.4,2-11.4
				c0-0.2-0.1-0.4-0.4-0.5c-0.2,0-0.4,0.1-0.5,0.4c0,0.1-1,7-2,11.7c-0.2,0.8-0.3,1.5-0.5,2.1C76.4,104.7,76.6,104.9,76.8,105z"/>
			<path class="st5" d="M82.7,72.2c-0.6,0-1.6-0.3-2.6-0.6c-1.2-0.4-2.4-0.7-3.5-0.8c-1.8-0.1-3.7-0.2-5.7,0.5c-1,0.4-1.6,0.6-2.4,1
				c-0.7,0.3-1.5,0.6-2.7,1.1c-0.5,0.2-0.4,0.5-0.4,0.6c0.1,0.2,0.7,0.4,1.8,0.5c0,0.5,0.3,1.1,0.7,1.7c0.7,1,1.5,1.7,2.4,2.2
				c1.1,0.6,2.4,0.9,3.8,0.9c1.2,0,2.5-0.2,3.7-0.6c0.6-0.2,1.2-0.4,1.7-0.6c2.3-0.9,3.6-2.4,3.5-3.9c0,0,0,0,0,0c1.5-0.2,2-0.5,2-1
				C84.9,72.2,82.7,72.2,82.7,72.2z M82.1,74.3c0.1,0.9-0.8,2.1-3,3c-3.6,1.5-8.3,1.9-10.6-1.6c-0.2-0.4-0.5-0.8-0.6-1.2
				c1.1,0.1,2.5,0.1,4,0.1C76.4,74.6,81.4,74.4,82.1,74.3C82.1,74.3,82.1,74.3,82.1,74.3C82.1,74.3,82.1,74.3,82.1,74.3z M82.2,73.4
				c-0.1,0-0.1,0-0.2,0c-0.1,0-0.2,0-0.3,0c-3.3,0.3-9.9,0.4-13.4,0.2c-0.2,0-0.4,0-0.5,0c-0.2,0-0.3,0-0.4,0c0,0,0,0-0.1,0
				c0,0,0,0,0.1,0c0.3-0.1,0.6-0.3,0.9-0.4c0.2-0.1,0.3-0.2,0.5-0.2c0.1,0,0.1,0,0.2-0.1c0.5-0.2,0.9-0.4,1.3-0.5
				c0.3-0.1,0.7-0.3,1.1-0.4c1.7-0.6,3.3-0.6,5.3-0.5c0.5,0,1.2,0.2,1.9,0.4c0.5,0.1,1,0.3,1.4,0.4c0.2,0.1,0.4,0.1,0.5,0.2
				c0.4,0.1,0.7,0.2,1,0.3c0.4,0.1,0.7,0.2,1,0.2c0.1,0,0.2,0,0.3,0c0.4,0,0.7,0.1,1,0.1c-0.2,0.1-0.6,0.1-1,0.2
				C82.6,73.4,82.4,73.4,82.2,73.4z"/>
			<path class="st5" d="M55.3,24.9c0.1,0,0.2,0,0.2-0.1c0.1,0,5.5-3.2,10.3-3c2.1,0.1,3.3,0.3,4.3,0.5c1.3,0.3,2.3,0.4,4.5,0.1
				c1.1-0.2,2.1-0.3,3.1-0.5c2.1-0.4,3.8-0.6,5.4-0.6c2.3,0.1,4.1,0.6,4.1,0.6c0.2,0.1,0.5-0.1,0.5-0.3c0.1-0.2-0.1-0.5-0.3-0.5
				c-0.1,0-1.9-0.5-4.3-0.7c-1.7-0.1-3.4,0.2-5.6,0.6c-0.9,0.2-1.9,0.3-3,0.5c-2,0.3-2.9,0.1-4.2-0.1c-1-0.2-2.2-0.4-4.4-0.5
				c-5-0.3-10.5,2.9-10.8,3.1c-0.2,0.1-0.3,0.4-0.1,0.6C55,24.8,55.1,24.9,55.3,24.9z"/>
			<path class="st5" d="M55.9,21.6C56,21.6,56,21.6,55.9,21.6c0.2,0,2.4-0.4,5.7-1.5c3.5-1.1,5.8-0.8,7.2-0.4
				c0.3,0.1,0.6,0.2,0.9,0.3c1.7,0.6,4.4,1.5,6.7,0.6c0.2-0.1,0.3-0.3,0.2-0.6c-0.1-0.2-0.3-0.3-0.6-0.2c-2.1,0.8-4.4,0-6.1-0.6
				c-0.3-0.1-0.7-0.2-0.9-0.3c-1.5-0.5-4.1-0.8-7.8,0.4c-3.2,1-5.5,1.4-5.5,1.4c-0.2,0-0.4,0.3-0.3,0.5
				C55.6,21.5,55.7,21.6,55.9,21.6z"/>
			<path class="st5" d="M67.6,48.4c0.1-0.2,0-0.5-0.3-0.5c-0.2-0.1-0.5,0-0.5,0.3c-0.2,0.7-4.7,2-7.3,1.4c-2.3-0.5-3.2-1.3-3.2-1.3
				c-0.2-0.2-0.4-0.2-0.6,0c-0.2,0.2-0.2,0.4,0,0.6c0,0,1,1,3.6,1.6c0.5,0.1,1,0.1,1.6,0.1C63.6,50.6,67.2,49.6,67.6,48.4z"/>
		</g>
		<g>
			<path class="st0" d="M68.7,126.3c0.1-0.8,0.2-1.8,0.3-2.9c0.1-0.6,0.1-1.3,0.2-2h-2.8C67.3,123.4,68.2,125.2,68.7,126.3z"/>
		</g>
		<g>
			<path class="st0" d="M68.7,127.4c-0.1-0.6-1.4-3.1-2.9-6.1h-0.5c1.5,3,2.8,5.6,2.9,6.2c0,0.2,0.2,0.6,0.5,0.6l0,0
				c0.5,0,0.6-0.2,0.9-4.7c0.1-0.6,0.1-1.3,0.2-2.1h-0.4C69.2,125.9,69,128.6,68.7,127.4z"/>
		</g>
		<g>
			<path class="st0" d="M69,123.4c-0.1,1.1-0.2,2.1-0.3,2.9c-0.5-1.1-1.4-2.9-2.4-4.9h-0.5c1.5,3,2.7,5.5,2.9,6.1
				c0.3,1.2,0.5-1.5,0.9-6.1h-0.4C69.1,122.1,69,122.8,69,123.4z"/>
		</g>
		<g>
			<path class="st0" d="M87.6,124.1c0.1-0.7,0.4-1.6,0.7-2.7h-1.9C86.8,122.5,87.3,123.4,87.6,124.1z"/>
		</g>
		<g>
			<path class="st0" d="M87.9,125.4c0.2,0.6-0.8-1.4-2-4h-0.5c1.8,4,2.1,4.5,2.4,4.5c0,0,0.1,0,0.1,0c0.1,0,0.4-0.1,0.3-0.6
				c0-0.3,0.3-1.8,0.9-3.9h-0.4C88.1,123.5,87.8,125,87.9,125.4z"/>
		</g>
		<g>
			<path class="st0" d="M87.6,124.1c-0.3-0.7-0.8-1.6-1.3-2.7h-0.5c1.2,2.6,2.1,4.6,2,4c-0.1-0.3,0.3-1.8,0.9-4h-0.4
				C88,122.5,87.7,123.4,87.6,124.1z"/>
		</g>
		<g>
			<path class="st0" d="M78.6,121.4c0.1,0,0.1,0.1,0.2,0.1h0c0.1,0,0.1,0,0.2-0.1h-0.2H78.6z"/>
		</g>
	</g>
	<g>
		<g>
			<path class="st1" d="M15.4,126.9h2.8l3.1,5l3.1-5h2.8v11.9h-2.6v-7.8l-3.3,5.1h-0.1l-3.3-5v7.7h-2.6V126.9z"/>
			<path class="st1" d="M30,126.4h2.7v2.3H30V126.4z M30.1,129.7h2.6v9.1h-2.6V129.7z"/>
			<path class="st1" d="M35.1,140.6l0.9-1.9c0.9,0.5,1.9,0.8,3.1,0.8c1.8,0,2.6-0.8,2.6-2.5v-0.4c-0.8,0.9-1.6,1.5-3,1.5
				c-2.1,0-4-1.5-4-4.2v0c0-2.7,2-4.2,4-4.2c1.4,0,2.2,0.6,2.9,1.4v-1.2h2.6v7.1c0,1.6-0.4,2.8-1.2,3.6c-0.8,0.9-2.2,1.2-3.9,1.2
				C37.7,141.6,36.3,141.2,35.1,140.6z M41.7,133.8L41.7,133.8c0-1.3-1-2.1-2.2-2.1s-2.2,0.9-2.2,2.1v0c0,1.3,1,2.1,2.2,2.1
				S41.7,135.1,41.7,133.8z"/>
			<path class="st1" d="M46.5,135.6v-5.9h2.6v5.1c0,1.2,0.6,1.9,1.6,1.9c1,0,1.6-0.6,1.6-1.9v-5.1h2.6v9.1h-2.6v-1.3
				c-0.6,0.8-1.4,1.5-2.7,1.5C47.6,139,46.5,137.7,46.5,135.6z"/>
			<path class="st1" d="M56.7,134.3L56.7,134.3c0-2.6,1.9-4.8,4.5-4.8c3,0,4.4,2.4,4.4,4.9c0,0.2,0,0.4,0,0.7h-6.3
				c0.3,1.2,1.1,1.8,2.2,1.8c0.9,0,1.5-0.3,2.2-0.9l1.5,1.3c-0.9,1.1-2.1,1.7-3.7,1.7C58.7,139,56.7,137.1,56.7,134.3z M63.1,133.5
				c-0.2-1.2-0.8-1.9-1.9-1.9c-1.1,0-1.8,0.8-2,1.9H63.1z"/>
			<path class="st1" d="M67.7,126.4h2.6v12.4h-2.6V126.4z"/>
			<path class="st1" d="M77.5,132.9L77.5,132.9c0-3.4,2.6-6.2,6.2-6.2c2.1,0,3.4,0.6,4.7,1.6l-1.6,2c-0.9-0.8-1.7-1.2-3.1-1.2
				c-1.9,0-3.4,1.7-3.4,3.7v0c0,2.2,1.5,3.8,3.6,3.8c1,0,1.8-0.2,2.5-0.7v-1.7h-2.6V132h5.2v5.2c-1.2,1-2.9,1.9-5.1,1.9
				C80.1,139,77.5,136.4,77.5,132.9z"/>
			<path class="st1" d="M90.7,134.3L90.7,134.3c0-2.7,2.1-4.8,4.9-4.8c2.8,0,4.9,2.1,4.9,4.7v0c0,2.6-2.1,4.7-4.9,4.7
				C92.8,139,90.7,136.9,90.7,134.3z M98,134.3L98,134.3c0-1.4-1-2.5-2.4-2.5c-1.5,0-2.4,1.1-2.4,2.5v0c0,1.3,1,2.5,2.4,2.5
				C97.1,136.8,98,135.7,98,134.3z M96.5,125.7l2.2,1l-2.2,2h-1.9L96.5,125.7z"/>
			<path class="st1" d="M102.4,129.7h2.6v1.3c0.6-0.8,1.4-1.5,2.7-1.5c1.2,0,2.1,0.5,2.6,1.4c0.8-0.9,1.8-1.4,3-1.4
				c1.9,0,3.1,1.2,3.1,3.3v5.9h-2.6v-5.1c0-1.2-0.5-1.9-1.5-1.9s-1.6,0.6-1.6,1.9v5.1h-2.6v-5.1c0-1.2-0.5-1.9-1.5-1.9
				s-1.6,0.6-1.6,1.9v5.1h-2.6V129.7z"/>
			<path class="st1" d="M118.1,134.3L118.1,134.3c0-2.6,1.9-4.8,4.5-4.8c3,0,4.4,2.4,4.4,4.9c0,0.2,0,0.4,0,0.7h-6.3
				c0.3,1.2,1.1,1.8,2.2,1.8c0.9,0,1.5-0.3,2.2-0.9l1.5,1.3c-0.9,1.1-2.1,1.7-3.7,1.7C120.1,139,118.1,137.1,118.1,134.3z
				 M124.5,133.5c-0.2-1.2-0.8-1.9-1.9-1.9c-1.1,0-1.8,0.8-2,1.9H124.5z"/>
			<path class="st1" d="M128.4,137l4.7-5.2h-4.6v-2.1h7.8v1.8l-4.7,5.2h4.7v2.1h-7.9V137z"/>
		</g>
	</g>
</g>
</svg>
