<svg xmlns="http://www.w3.org/2000/svg" viewBox="0 0 150 150"><defs><style>.cls-1{fill:#fff;}.cls-2,.cls-8{fill:#f1748a;}.cls-3{fill:none;}.cls-4{fill:#ffd1c2;}.cls-5{fill:#feca9a;}.cls-6{fill:#853c2b;}.cls-7{fill:#1c2021;}.cls-8{font-size:17px;font-family:Gotham Bold, Gotham;font-weight:700;}.cls-9{letter-spacing:-0.01em;}</style></defs><g id="Layer_1" data-name="Layer 1"><rect class="cls-1" x="1.2" y="1.2" width="147.6" height="147.6" rx="13.2"/><path class="cls-2" d="M135.6,2.4a12,12,0,0,1,12,12V135.6a12,12,0,0,1-12,12H14.4a12,12,0,0,1-12-12V14.4a12,12,0,0,1,12-12H135.6m0-2.4H14.4A14.44,14.44,0,0,0,0,14.4V135.6A14.44,14.44,0,0,0,14.4,150H135.6A14.44,14.44,0,0,0,150,135.6V14.4A14.44,14.44,0,0,0,135.6,0Z"/><path class="cls-3" d="M89.73,96.92c.12-.19.22-.38.31-.55-.17-3.48-.19-10.61-.2-12.92l-.13.11C89.73,87.68,89.75,93.67,89.73,96.92Z"/><path class="cls-3" d="M57.75,82.73l-.53-.47c.33,2,1.76,11,2.22,17.56l.19.09C59.69,95.8,58.56,87.86,57.75,82.73Z"/><path class="cls-3" d="M53.78,104.26a18.32,18.32,0,0,0-1.76.84Z"/><path class="cls-4" d="M78.42,121.06A36.54,36.54,0,0,0,76,112.81,14,14,0,0,0,73.78,109a7.09,7.09,0,0,0-1.51-1.2c-.6,1.45-1.72,7.88-2.17,12.64,0,.34-.06.65-.08,1h8.62A.42.42,0,0,1,78.42,121.06Z"/><path class="cls-4" d="M82.3,113.4a10.88,10.88,0,0,0-2.51-4.69c-.44.42-1.29,1.61-.84,4.18a38.14,38.14,0,0,1,.32,8.15.4.4,0,0,1-.22.33h6.36l-.25-.55A73.61,73.61,0,0,1,82.3,113.4Z"/><path class="cls-4" d="M96.28,100.77c-1.61,3.1-5.39,14.48-7.12,20.6h32.1l.39-.6c4.11-6.48,6.61-10.69,6.61-10.69s-11.55-4.79-21.35-8.45A101.63,101.63,0,0,1,97,98.94,9.2,9.2,0,0,1,96.28,100.77Z"/><path class="cls-4" d="M59.06,121.37h6.31c-1.84-3.61-4.09-7.87-5.39-10.12A45.23,45.23,0,0,0,54.59,104q-.37.12-.81.3L52,105.1a69.66,69.66,0,0,0-6.38,4,.49.49,0,0,1-.25.08A.42.42,0,0,1,45,109a.48.48,0,0,1-.07-.2c-3.45,2-6.61,4.18-7.51,5.9-.5,1-.48,3.42.09,6.64H59.06Z"/><path class="cls-5" d="M73.74,89.78a17.22,17.22,0,0,1-6-1,32.49,32.49,0,0,1-10-6c.81,5.13,1.94,13.07,1.88,17.18,1.63.86,3.89,2.1,6.5,3.54l1,.54c2.06,1.15,4.18,2.32,5,2.75h.27c.1,0,2.45.92,4.43,5.71a41.89,41.89,0,0,1,1.66,4.84A30.66,30.66,0,0,0,78.1,113c-.68-4,1.41-5.22,1.5-5.27h0c1.14-.57,4.91-4.24,7.67-7.55a26.91,26.91,0,0,0,2.44-3.29c0-3.25,0-9.24,0-13.36A25.76,25.76,0,0,1,73.74,89.78Zm3.59,14.94a.44.44,0,0,1-.41.31l-.12,0a.42.42,0,0,1-.29-.53c.17-.61.35-1.32.52-2.07,1.07-4.74,2-11.62,2-11.7a.43.43,0,0,1,.48-.37.42.42,0,0,1,.36.48c0,.08-.92,6.68-2,11.44C77.73,103.16,77.53,104,77.33,104.72Z"/><path class="cls-5" d="M72.36,107.71h-.07a.14.14,0,0,1,0,.06,7.09,7.09,0,0,1,1.51,1.2A6.35,6.35,0,0,0,72.36,107.71Z"/><path class="cls-5" d="M46.41,49.42A26.43,26.43,0,0,0,45.9,45a1.54,1.54,0,0,0-.34-.17,1.21,1.21,0,0,0-.38-.06,2.5,2.5,0,0,0-1.59.8c-1.58,1.48-1.48,3.88-1.11,5.63.72,3.42,2.9,6.73,4.27,7.29C46.36,53.59,46.41,49.56,46.41,49.42Z"/><path class="cls-5" d="M101.48,46.71c-.17-1.41-.69-2.25-1.53-2.51a4.1,4.1,0,0,0-1.17-.2,1.84,1.84,0,0,0-1.18.38c-.12,2.27-.21,4.2-.15,5.5,0,.3,0,.71.07,1.22.1,1.56.26,4.11.3,7.08C99.61,57.09,101.94,50.51,101.48,46.71Z"/><path class="cls-5" d="M96.62,46.85c0-.64.06-1.33.1-2.05,0-.25,0-.51,0-.78,0-.45,0-.91.07-1.39.19-3.22.4-6.87.4-10.42,0-6.83-10.26-17.53-24-21.63a16.18,16.18,0,0,0-4.65-.69C56.34,9.89,48,24.5,46.25,27.74c-2.07,3.93-1,9.62,0,14.65.14.72.27,1.43.4,2.13,0,.25.09.49.13.74s.12.69.17,1a21.6,21.6,0,0,1,.28,3.15c0,.06,0,4.14.35,9.07,0,.14,0,.29,0,.44s0,.3,0,.45A60.29,60.29,0,0,0,49,68c1.17,4.77,4.33,9.57,8.52,13.42A32.09,32.09,0,0,0,68.06,88c7.26,2.66,15.9-.4,21.65-5.51A22.54,22.54,0,0,0,93.61,78C96.46,73.61,97,65.49,97,59c0-.17,0-.33,0-.5s0-.38,0-.57c0-2.86-.2-5.31-.29-6.82,0-.51-.06-.92-.07-1.22s0-.73,0-1.14,0-.74,0-1.14S96.61,47.12,96.62,46.85ZM55.87,20.75a46.83,46.83,0,0,0,5.47-1.43,12.85,12.85,0,0,1,7.75-.4l1,.32c1.72.61,4.08,1.43,6.13.61a.43.43,0,0,1,.32.8c-2.35.94-5,0-6.74-.6-.33-.12-.64-.23-.91-.31a12.05,12.05,0,0,0-7.24.39A45.29,45.29,0,0,1,56,21.59H56a.44.44,0,0,1-.43-.35A.43.43,0,0,1,55.87,20.75Zm-.8,3.34C55.3,24,60.8,20.75,65.83,21a28.61,28.61,0,0,1,4.41.54,10.37,10.37,0,0,0,4.19.12c1.11-.16,2.11-.33,3-.49a25.63,25.63,0,0,1,5.59-.57,21.87,21.87,0,0,1,4.3.68.43.43,0,1,1-.23.82A20.75,20.75,0,0,0,83,21.47a24.25,24.25,0,0,0-5.4.56c-.93.15-1.94.33-3.06.49a11.3,11.3,0,0,1-4.47-.13,27.39,27.39,0,0,0-4.29-.53c-4.83-.25-10.23,2.94-10.28,3a.46.46,0,0,1-.22.06.43.43,0,0,1-.22-.8ZM79.51,60.44a.42.42,0,0,1-.26-.54.42.42,0,0,1,.54-.26c3.07,1.08,4.24,2.75,4.31,3.86a1.22,1.22,0,0,1-.64,1.23,6.25,6.25,0,0,1-2.17.33c-1,.06-2.4.13-2.76.56a4,4,0,0,1-3.08,1.31,6,6,0,0,1-3.27-1.06,4.42,4.42,0,0,0-3.26-.63,2.29,2.29,0,0,1-2.49-.77,1.75,1.75,0,0,1-.22-1.57c.47-1.5,2.69-2.9,4.13-3.42.68-.25.7-.66.58-1.86A6.72,6.72,0,0,1,71,54.94a26.12,26.12,0,0,0,.33-6.56c0-.49,0-.91,0-1.21a.43.43,0,0,1,.86,0c0,.29,0,.7,0,1.18a26.22,26.22,0,0,1-.37,6.82,6.19,6.19,0,0,0-.09,2.37c.11,1.1.22,2.25-1.14,2.74S67.38,62,67,63.15a.9.9,0,0,0,.11.83c.38.53.79.51,1.7.41a5.28,5.28,0,0,1,3.82.76c2.46,1.59,4.47.83,5.23-.08.59-.71,2-.79,3.36-.86A6.75,6.75,0,0,0,83.08,64a.43.43,0,0,0,.17-.42C83.21,62.92,82.38,61.46,79.51,60.44ZM52.91,39.58c-.35-.75.12-1.82,1.31-3A8,8,0,0,1,63.38,35c2.78,1.26,3.31,3.05,3,4A1.09,1.09,0,0,1,65,39.7a9,9,0,0,1-2.26-.94,21.69,21.69,0,0,0-5.23,1,15,15,0,0,1-2.66.6h-.35C53.45,40.37,53.05,39.89,52.91,39.58Zm1.28,6.16c0-.57.43-1.65,2.76-2.51,3.06-1.13,6.16.19,9,1.8a1.27,1.27,0,0,1,.75,1.36c-.23,1.18-2.1,2.16-4.77,2.49a12.16,12.16,0,0,1-1.63.11,7.85,7.85,0,0,1-4.42-1.25c-.22-.13-.42-.25-.63-.35A1.78,1.78,0,0,1,54.19,45.74Zm1.55,3.11a.43.43,0,0,1,0-.6.43.43,0,0,1,.61,0,7,7,0,0,0,3.2,1.33c2.58.55,7-.74,7.28-1.45a.43.43,0,1,1,.81.29c-.43,1.2-4,2.14-6.68,2.14a8.21,8.21,0,0,1-1.58-.14A7.55,7.55,0,0,1,55.74,48.85ZM74.1,79.3a8,8,0,0,1-3.79-.88,6.5,6.5,0,0,1-2.44-2.22,3.78,3.78,0,0,1-.68-1.74c-1-.11-1.7-.28-1.76-.53s-.07-.43.39-.61c1.28-.52,2.09-.86,2.75-1.14.83-.35,1.42-.6,2.41-1a13,13,0,0,1,5.65-.51,18,18,0,0,1,3.46.83,11.8,11.8,0,0,0,2.62.62s2.21,0,2.26,1c0,.52-.53.83-2,1.05a.09.09,0,0,1,0,0c.12,1.46-1.22,3-3.49,3.9a15.65,15.65,0,0,1-1.71.59A13.34,13.34,0,0,1,74.1,79.3Zm16-31.91L90,47.5a1.36,1.36,0,0,1,.06.37,1.93,1.93,0,0,1-.76,1.28,7.94,7.94,0,0,1-5.9,1.65,6.34,6.34,0,0,1-3.64-1.38,1.74,1.74,0,0,1-.62-1.24c0-.16.25-.22.41-.21a.44.44,0,0,1,.36.29S80.4,49.6,83.45,50a7,7,0,0,0,5.23-1.44,1.5,1.5,0,0,0,.45-.55,7.69,7.69,0,0,1-4,1,12.27,12.27,0,0,1-1.63-.11c-2.67-.33-4.54-1.31-4.76-2.49A1.25,1.25,0,0,1,79.44,45c2.89-1.6,6-2.93,9-1.8,2.32.86,2.72,1.94,2.75,2.51A1.76,1.76,0,0,1,90.14,47.39Zm2.38-7.81c-.14.31-.54.79-1.62.79h-.34a15.26,15.26,0,0,1-2.67-.6,21.5,21.5,0,0,0-5.23-1,8.78,8.78,0,0,1-2.26.94A1.09,1.09,0,0,1,79.05,39c-.31-.9.23-2.69,3-4a8,8,0,0,1,9.17,1.53C92.41,37.76,92.87,38.83,92.52,39.58Z"/><path class="cls-6" d="M79.86,38.71c.06.16.16.2.33.16a7.77,7.77,0,0,0,2.12-.9.41.41,0,0,1,.24-.08h0a22.5,22.5,0,0,1,5.56,1,14.94,14.94,0,0,0,2.5.57c.6,0,1-.06,1.12-.29s-.15-1.06-1.14-2a7.15,7.15,0,0,0-8.21-1.36C80.11,36.86,79.7,38.24,79.86,38.71Z"/><path class="cls-1" d="M90.39,45.78c0-.6-.86-1.25-2.2-1.75l-.32-.1a4.63,4.63,0,0,1-.28,1.91.87.87,0,0,1,.22.55,1.13,1.13,0,0,1-1.21,1,1.54,1.54,0,0,1-.31-.05,2.82,2.82,0,0,1-2.46-.2c-1.56-.76-2-1.64-1.91-2.45-.71.32-1.4.69-2.06,1.05-.37.21-.34.4-.32.46.1.55,1.42,1.48,4,1.8a7.83,7.83,0,0,0,4.54-.51.46.46,0,0,1-.13-.21.43.43,0,0,1,.33-.51,1.87,1.87,0,0,1,1,.06l.42-.23C90,46.53,90.42,46.25,90.39,45.78Z"/><path class="cls-6" d="M62.87,37.9a.37.37,0,0,1,.25.07,8,8,0,0,0,2.12.9c.18,0,.28,0,.33-.16.17-.47-.25-1.85-2.54-2.89a7.7,7.7,0,0,0-3.2-.73,7.13,7.13,0,0,0-5,2.09c-1,1-1.28,1.73-1.14,2s.53.33,1.13.29a15.17,15.17,0,0,0,2.5-.57A22.32,22.32,0,0,1,62.87,37.9Z"/><path class="cls-1" d="M61.87,48a10.71,10.71,0,0,0,1.8-.37,1.49,1.49,0,0,1-.43-.07l-.61.21c-3.26,1-4-2.12-3.38-4.13a6.18,6.18,0,0,0-2,.36c-1.34.5-2.16,1.15-2.2,1.75s.44.75.64.85.44.23.67.37A7.54,7.54,0,0,0,61.87,48Z"/><path class="cls-1" d="M64.8,46.23a.93.93,0,0,1,.09.4,1,1,0,0,1-.33.7c.83-.37,1.28-.79,1.34-1.1,0-.06,0-.25-.33-.46l-.66-.36A1.9,1.9,0,0,1,64.8,46.23Z"/><path class="cls-4" d="M72,74.64c-1.47,0-2.86,0-4-.11a3.42,3.42,0,0,0,.55,1.2c2.27,3.49,7,3.12,10.58,1.61,2.15-.9,3-2.17,3-3h0C81.4,74.38,76.38,74.64,72,74.64Z"/><path class="cls-4" d="M59.59,100.86l-.08,0c0,.18,0,.35,0,.52Z"/><path class="cls-4" d="M59.59,103.49h.12a.88.88,0,0,1-.12-.17Z"/><path class="cls-4" d="M58.74,103.46c0-.9,0-1.95-.12-3.1a13,13,0,0,0-1.76-.82.47.47,0,0,0-.4.07c-.69.48-1.15,2.45-1.3,3.71l.19.21c.33-.16.53-.24.53-.24S56.92,103.39,58.74,103.46Z"/><path class="cls-4" d="M66.33,121.37h2.83c0-.34.06-.68.09-1.05.13-1.41,1.2-10.36,2.28-12.9a2.35,2.35,0,0,0-.29-.08s-9.51-1.17-11.53-3.84h-.12a12.73,12.73,0,0,1-.19,2.33.43.43,0,0,1-.42.34h-.09a.43.43,0,0,1-.33-.51,11.24,11.24,0,0,0,.18-2.18c-1.82-.07-2.86-.17-2.86-.17s-.2.08-.53.24a45.32,45.32,0,0,1,5.37,7.29C62,113,64.41,117.58,66.33,121.37Z"/><path class="cls-4" d="M59.59,103.33a.88.88,0,0,0,.12.17c1.31,0,2.91,0,4.75,0-1.71-.94-3.46-1.9-4.87-2.64l-.06.47C59.57,102.05,59.59,102.72,59.59,103.33Z"/><path class="cls-4" d="M59.71,103.5c2,2.67,11.53,3.84,11.53,3.84a2.35,2.35,0,0,1,.29.08s0,0,0,0c-.82-.4-2.25-1.19-4.86-2.64l-2.23-1.24C62.62,103.55,61,103.53,59.71,103.5Z"/><path class="cls-4" d="M58.74,103.46c.26,0,.55,0,.85,0v-.16A1.51,1.51,0,0,1,59.4,102a3.74,3.74,0,0,0,.13-.68c0-.17,0-.34,0-.52l-.89-.45C58.7,101.51,58.74,102.56,58.74,103.46Z"/><path class="cls-4" d="M58.56,105.64a.43.43,0,0,0,.33.51H59a.43.43,0,0,0,.42-.34,12.73,12.73,0,0,0,.19-2.33c-.3,0-.59,0-.85,0A11.24,11.24,0,0,1,58.56,105.64Z"/><path class="cls-4" d="M59.4,102a1.51,1.51,0,0,0,.19,1.32c0-.61,0-1.28-.06-2A3.74,3.74,0,0,1,59.4,102Z"/><path class="cls-4" d="M89.47,99.6c5.56-1.64,4.08-2,3.5-2.08h.88a11.48,11.48,0,0,1,2.46.48.88.88,0,0,0-.07-.36c-.2-.38-.85-.47-1.53-.57-.22,0-.45-.06-.66-.11-1.16-.23-2.41-.54-3-.7,0,.08-.08.17-.12.25,0,.65.07,1.15.11,1.41a.43.43,0,0,1-.35.5h-.07a.43.43,0,0,1-.42-.36c0-.06,0-.14,0-.22l-.42.62c0,.45,0,.73,0,.76A2.08,2.08,0,0,1,89.47,99.6Z"/><path class="cls-4" d="M93,97.52c.58.06,2.06.44-3.5,2.08-1,1.61-5.59,8-8.27,8.05-.26.22-.5.41-.7.56a11.94,11.94,0,0,1,2.62,5,71.87,71.87,0,0,0,3.22,8.2h1.93c1.77-6.43,5.82-18.24,7.25-21A5.22,5.22,0,0,0,96.31,98a11.48,11.48,0,0,0-2.46-.48Z"/><path class="cls-4" d="M89.47,99.6a2.08,2.08,0,0,0,.22-.37s0-.31,0-.76c-.31.43-.66.89-1,1.36Z"/><path class="cls-4" d="M89.47,99.6l-.78.23a61.52,61.52,0,0,1-7.49,7.82C83.88,107.58,88.44,101.21,89.47,99.6Z"/><path class="cls-4" d="M90.59,98.43h.07a.43.43,0,0,0,.35-.5c0-.26-.08-.76-.11-1.41a11.42,11.42,0,0,1-.76,1.33c0,.08,0,.16,0,.22A.43.43,0,0,0,90.59,98.43Z"/><path class="cls-4" d="M83.75,73.16a4.21,4.21,0,0,0-1-.15l-.3,0a1.69,1.69,0,0,1,.29.37A9,9,0,0,0,83.75,73.16Z"/><path class="cls-4" d="M67.26,73.65h0a0,0,0,0,0,0,0Z"/><path class="cls-4" d="M71,72.48a58.67,58.67,0,0,1,7.46-.54,11.39,11.39,0,0,0-1.86-.38,12.15,12.15,0,0,0-5.29.46l-1.08.42A6,6,0,0,1,71,72.48Z"/><path class="cls-4" d="M81.69,73.48a2.32,2.32,0,0,0-1-.48c-2.63-.62-9.59.32-9.66.33a.2.2,0,0,1-.11,0,6.52,6.52,0,0,0-.74,0,3.37,3.37,0,0,0-1.87.42A126.27,126.27,0,0,0,81.69,73.48Z"/><path class="cls-4" d="M68.23,73.25l-.91.38a0,0,0,0,1,0,0l.45,0A1.3,1.3,0,0,1,68.23,73.25Z"/><path class="cls-4" d="M82.24,73.42l.46-.06a1.69,1.69,0,0,0-.29-.37,6.5,6.5,0,0,1-1-.19A2.2,2.2,0,0,1,82.24,73.42Z"/><path class="cls-4" d="M71,72.91s6.43-.88,9.4-.4l-.53-.16-1.42-.41a58.67,58.67,0,0,0-7.46.54,6,6,0,0,0-.77,0c-.43.17-.83.33-1.29.53l-.16.07A6.41,6.41,0,0,1,71,72.91Z"/><path class="cls-4" d="M70.91,73.33a.2.2,0,0,0,.11,0c.07,0,7-1,9.66-.33a2.32,2.32,0,0,1,1,.48l.33,0,.22,0a2.2,2.2,0,0,0-.84-.62c-.32-.08-.67-.18-1-.29-3-.48-9.4.4-9.4.4a6.41,6.41,0,0,0-2.23.13l-.51.21a1.3,1.3,0,0,0-.47.43l.54,0a3.37,3.37,0,0,1,1.87-.42A6.52,6.52,0,0,1,70.91,73.33Z"/><path class="cls-1" d="M64.8,46.23a2.63,2.63,0,0,1-1.56,1.36,1.49,1.49,0,0,0,.43.07,6.44,6.44,0,0,0,.89-.33,1,1,0,0,0,.33-.7A.93.93,0,0,0,64.8,46.23Z"/><path class="cls-1" d="M63.68,47.66a1.31,1.31,0,0,0,.88-.33,6.44,6.44,0,0,1-.89.33Z"/><path class="cls-1" d="M64.8,46.23a1.26,1.26,0,0,0-1.12-.62,1.13,1.13,0,0,0-1.21,1,1.06,1.06,0,0,0,.77,1A2.63,2.63,0,0,0,64.8,46.23Z"/><path class="cls-1" d="M86.29,47.37a1.54,1.54,0,0,0,.31.05,1.13,1.13,0,0,0,1.21-1,.87.87,0,0,0-.22-.55A2.64,2.64,0,0,1,86.29,47.37Z"/><path class="cls-1" d="M86.6,45.36a1.13,1.13,0,0,0-1.21,1,1.07,1.07,0,0,0,.9,1,2.64,2.64,0,0,0,1.3-1.53A1.25,1.25,0,0,0,86.6,45.36Z"/><path class="cls-7" d="M82.05,35c-2.77,1.26-3.31,3.05-3,4a1.09,1.09,0,0,0,1.35.71,8.78,8.78,0,0,0,2.26-.94,21.5,21.5,0,0,1,5.23,1,15.26,15.26,0,0,0,2.67.6h.34c1.08,0,1.48-.48,1.62-.79.35-.75-.11-1.82-1.3-3A8,8,0,0,0,82.05,35Zm9.7,4.18c-.11.23-.52.33-1.12.29a14.94,14.94,0,0,1-2.5-.57,22.5,22.5,0,0,0-5.56-1h0a.41.41,0,0,0-.24.08,7.77,7.77,0,0,1-2.12.9c-.17,0-.27,0-.33-.16-.16-.47.25-1.85,2.54-2.89a7.15,7.15,0,0,1,8.21,1.36C91.6,38.16,91.89,38.91,91.75,39.22Z"/><path class="cls-7" d="M88.49,43.23c-3.07-1.13-6.16.2-9,1.8a1.25,1.25,0,0,0-.74,1.36c.22,1.18,2.09,2.16,4.76,2.49a12.27,12.27,0,0,0,1.63.11,7.69,7.69,0,0,0,4-1,1.5,1.5,0,0,1-.45.55A7,7,0,0,1,83.45,50c-3-.35-3.59-1.69-3.59-1.69A.44.44,0,0,0,79.5,48c-.16,0-.41.05-.41.21a1.74,1.74,0,0,0,.62,1.24,6.34,6.34,0,0,0,3.64,1.38,7.94,7.94,0,0,0,5.9-1.65A1.93,1.93,0,0,0,90,47.87,1.36,1.36,0,0,0,90,47.5l.19-.11a1.76,1.76,0,0,0,1.1-1.65C91.21,45.17,90.81,44.09,88.49,43.23Zm1.27,3.4-.42.23a1.87,1.87,0,0,0-1-.06.43.43,0,0,0-.33.51.46.46,0,0,0,.13.21,7.83,7.83,0,0,1-4.54.51c-2.61-.32-3.93-1.25-4-1.8,0-.06-.05-.25.32-.46.66-.36,1.35-.73,2.06-1.05-.08.81.35,1.69,1.91,2.45a2.82,2.82,0,0,0,2.46.2,1.07,1.07,0,0,1-.9-1,1.13,1.13,0,0,1,1.21-1,1.25,1.25,0,0,1,1,.48,4.63,4.63,0,0,0,.28-1.91l.32.1c1.34.5,2.17,1.15,2.2,1.75S90,46.53,89.76,46.63Z"/><path class="cls-7" d="M54.53,40.37h.35a15,15,0,0,0,2.66-.6,21.69,21.69,0,0,1,5.23-1A9,9,0,0,0,65,39.7,1.09,1.09,0,0,0,66.38,39c.31-.9-.22-2.69-3-4a8,8,0,0,0-9.16,1.53c-1.19,1.19-1.66,2.26-1.31,3C53.05,39.89,53.45,40.37,54.53,40.37Zm5.3-5.28a7.7,7.7,0,0,1,3.2.73c2.29,1,2.71,2.42,2.54,2.89,0,.16-.15.2-.33.16a8,8,0,0,1-2.12-.9.37.37,0,0,0-.25-.07,22.32,22.32,0,0,0-5.56,1,15.17,15.17,0,0,1-2.5.57c-.6,0-1-.06-1.13-.29s.16-1.06,1.14-2A7.13,7.13,0,0,1,59.83,35.09Z"/><path class="cls-7" d="M60.34,49A12.16,12.16,0,0,0,62,48.88c2.67-.33,4.54-1.31,4.77-2.49A1.27,1.27,0,0,0,66,45c-2.88-1.61-6-2.93-9-1.8-2.33.86-2.73,1.94-2.76,2.51a1.78,1.78,0,0,0,1.1,1.65c.21.1.41.22.63.35A7.85,7.85,0,0,0,60.34,49Zm-1.09-5.32c-.61,2,.12,5.1,3.38,4.13l.61-.21a1.06,1.06,0,0,1-.77-1,1.13,1.13,0,0,1,1.21-1,1.26,1.26,0,0,1,1.12.62,1.9,1.9,0,0,0,.11-.82l.66.36c.38.21.34.4.33.46-.06.31-.51.73-1.34,1.1a1.31,1.31,0,0,1-.88.33h0a10.71,10.71,0,0,1-1.8.37,7.54,7.54,0,0,1-5.52-1c-.23-.14-.45-.26-.67-.37s-.66-.38-.64-.85.86-1.25,2.2-1.75A6.18,6.18,0,0,1,59.25,43.67Z"/><path class="cls-7" d="M70.34,59.48c-1.44.52-3.66,1.92-4.13,3.42a1.75,1.75,0,0,0,.22,1.57,2.29,2.29,0,0,0,2.49.77,4.42,4.42,0,0,1,3.26.63,6,6,0,0,0,3.27,1.06,4,4,0,0,0,3.08-1.31c.36-.43,1.75-.5,2.76-.56a6.25,6.25,0,0,0,2.17-.33,1.22,1.22,0,0,0,.64-1.23c-.07-1.11-1.24-2.78-4.31-3.86a.42.42,0,0,0-.54.26.42.42,0,0,0,.26.54c2.87,1,3.7,2.48,3.74,3.11a.43.43,0,0,1-.17.42,6.75,6.75,0,0,1-1.84.24c-1.36.07-2.77.15-3.36.86-.76.91-2.77,1.67-5.23.08a5.28,5.28,0,0,0-3.82-.76c-.91.1-1.32.12-1.7-.41a.9.9,0,0,1-.11-.83c.36-1.15,2.33-2.4,3.61-2.87s1.25-1.64,1.14-2.74a6.19,6.19,0,0,1,.09-2.37,26.22,26.22,0,0,0,.37-6.82c0-.48,0-.89,0-1.18a.43.43,0,0,0-.86,0c0,.3,0,.72,0,1.21A26.12,26.12,0,0,1,71,54.94a6.72,6.72,0,0,0-.12,2.68C71,58.82,71,59.23,70.34,59.48Z"/><path class="cls-7" d="M107.16,100.79c-1.13,0-7.59-2-10-2.71a1.77,1.77,0,0,0-.16-.82c-.41-.78-1.34-.91-2.17-1l-.62-.1c-1.57-.32-3.35-.8-3.35-.8h0c-.15-4.43-.15-12.51-.15-12.62s0,0,0,0a22.88,22.88,0,0,0,3.64-4.25c3-4.53,3.54-12.79,3.5-19.34a1.77,1.77,0,0,0,.43-.19c2.23-1.35,4.55-8.38,4.07-12.32-.27-2.2-1.3-3-2.12-3.22a3.72,3.72,0,0,0-2.55,0c0-.22,0-.44,0-.67.18-3.23.4-6.9.4-10.47C98.1,25.08,87.58,14,73.5,9.76c-15.42-4.6-26,13.84-28,17.59-2.2,4.19-1.06,10-.05,15.2L45.71,44A2.85,2.85,0,0,0,43,45c-1.88,1.74-1.78,4.46-1.36,6.43.74,3.52,3.07,7.31,4.89,7.95l.29.08a60.23,60.23,0,0,0,1.36,8.77,28.83,28.83,0,0,0,8.29,13.4.41.41,0,0,0-.17.41c0,.14,1.68,10.18,2.24,17.37a11.25,11.25,0,0,0-1.47-.64,1.27,1.27,0,0,0-1.1.19c-1.12.77-1.54,3.34-1.65,4.24-3.17,1-8.94,5.1-9.19,5.28a.43.43,0,0,0-.17.4.48.48,0,0,0,.07.2.42.42,0,0,0,.35.18.49.49,0,0,0,.25-.08,69.66,69.66,0,0,1,6.38-4,18.32,18.32,0,0,1,1.76-.84q.44-.18.81-.3A45.23,45.23,0,0,1,60,111.25c1.3,2.25,3.55,6.51,5.39,10.12h1c-1.92-3.79-4.34-8.34-5.61-10.55a45.32,45.32,0,0,0-5.37-7.29l-.19-.21c.15-1.26.61-3.23,1.3-3.71a.47.47,0,0,1,.4-.07,13,13,0,0,1,1.76.82l.89.45.08,0c1.41.74,3.16,1.7,4.87,2.64l2.23,1.24c2.61,1.45,4,2.24,4.86,2.64,0,0,0,0,0,0-1.08,2.54-2.15,11.49-2.28,12.9,0,.37-.06.71-.09,1.05H70c0-.32,0-.63.08-1,.45-4.76,1.57-11.19,2.17-12.64a.14.14,0,0,0,0-.06h.07A6.35,6.35,0,0,1,73.78,109,14,14,0,0,1,76,112.81a36.54,36.54,0,0,1,2.38,8.25.42.42,0,0,0,.22.31h.41a.4.4,0,0,0,.22-.33,38.14,38.14,0,0,0-.32-8.15c-.45-2.57.4-3.76.84-4.18a10.88,10.88,0,0,1,2.51,4.69,73.61,73.61,0,0,0,2.86,7.42l.25.55h.93a71.87,71.87,0,0,1-3.22-8.2,11.94,11.94,0,0,0-2.62-5c.2-.15.44-.34.7-.56a61.52,61.52,0,0,0,7.49-7.82c.37-.47.72-.93,1-1.36l.42-.62a11.42,11.42,0,0,0,.76-1.33c0-.08.09-.17.12-.25.62.16,1.87.47,3,.7.21,0,.44.08.66.11.68.1,1.33.19,1.53.57a.88.88,0,0,1,.07.36,5.22,5.22,0,0,1-.79,2.37c-1.43,2.75-5.48,14.56-7.25,21h.89c1.73-6.12,5.51-17.5,7.12-20.6A9.2,9.2,0,0,0,97,98.94a101.63,101.63,0,0,0,9.88,2.69l.25,0a.43.43,0,1,0,0-.86ZM47.65,58.94c0-.15,0-.3,0-.44-.4-4.93-.35-9-.35-9.07A21.6,21.6,0,0,0,47,46.28c0-.33-.11-.68-.17-1s-.08-.49-.13-.74c-.13-.7-.26-1.41-.4-2.13-1-5-2.1-10.72,0-14.65C48,24.5,56.34,9.89,68.61,9.89a16.18,16.18,0,0,1,4.65.69c13.72,4.1,24,14.8,24,21.63,0,3.55-.21,7.2-.4,10.42,0,.48,0,.94-.07,1.39,0,.27,0,.53,0,.78,0,.72-.07,1.41-.1,2.05,0,.27,0,.54,0,.8s0,.78,0,1.14,0,.8,0,1.14,0,.71.07,1.22c.09,1.51.25,4,.29,6.82,0,.19,0,.38,0,.57s0,.33,0,.5c0,6.45-.52,14.57-3.37,18.94a22.54,22.54,0,0,1-3.9,4.46C84,87.55,75.32,90.61,68.06,88A32.09,32.09,0,0,1,57.54,81.4C53.35,77.55,50.19,72.75,49,68a60.29,60.29,0,0,1-1.33-8.59C47.67,59.24,47.66,59.09,47.65,58.94ZM43.59,45.57a2.5,2.5,0,0,1,1.59-.8,1.21,1.21,0,0,1,.38.06,1.54,1.54,0,0,1,.34.17,26.43,26.43,0,0,1,.51,4.42c0,.14,0,4.17.34,9.07-1.37-.56-3.55-3.87-4.27-7.29C42.11,49.45,42,47.05,43.59,45.57ZM100,44.2c.84.26,1.36,1.1,1.53,2.51.46,3.8-1.87,10.38-3.66,11.47,0-3-.2-5.52-.3-7.08,0-.51,0-.92-.07-1.22-.06-1.3,0-3.23.15-5.5A1.84,1.84,0,0,1,98.78,44,4.1,4.1,0,0,1,100,44.2ZM72.4,106.77h-.27c-.84-.43-3-1.6-5-2.75l-1-.54c-2.61-1.44-4.87-2.68-6.5-3.54l-.19-.09C59,93.3,57.55,84.3,57.22,82.26l.53.47a32.49,32.49,0,0,0,10,6,17.22,17.22,0,0,0,6,1,25.76,25.76,0,0,0,16-6.22l.13-.11c0,2.31,0,9.44.2,12.92-.09.17-.19.36-.31.55a26.91,26.91,0,0,1-2.44,3.29c-2.76,3.31-6.53,7-7.67,7.55h0c-.09,0-2.18,1.32-1.5,5.27a30.66,30.66,0,0,1,.39,4.28,41.89,41.89,0,0,0-1.66-4.84C74.85,107.69,72.5,106.81,72.4,106.77Z"/><path class="cls-7" d="M76.8,105l.12,0a.44.44,0,0,0,.41-.31c.2-.72.4-1.56.6-2.46,1.06-4.76,2-11.36,2-11.44a.42.42,0,0,0-.36-.48.43.43,0,0,0-.48.37c0,.08-1,7-2,11.7-.17.75-.35,1.46-.52,2.07A.42.42,0,0,0,76.8,105Z"/><path class="cls-7" d="M82.71,72.16a11.8,11.8,0,0,1-2.62-.62,18,18,0,0,0-3.46-.83,13,13,0,0,0-5.65.51c-1,.36-1.58.61-2.41,1-.66.28-1.47.62-2.75,1.14-.46.18-.41.51-.39.61s.73.42,1.76.53a3.78,3.78,0,0,0,.68,1.74,6.5,6.5,0,0,0,2.44,2.22,8,8,0,0,0,3.79.88,13.34,13.34,0,0,0,3.69-.58,15.65,15.65,0,0,0,1.71-.59c2.27-.95,3.61-2.44,3.49-3.9a.09.09,0,0,0,0,0c1.46-.22,2-.53,2-1.05C84.92,72.2,82.71,72.16,82.71,72.16Zm-.57,2.14c.07.87-.82,2.14-3,3-3.63,1.51-8.31,1.88-10.58-1.61a3.42,3.42,0,0,1-.55-1.2c1.12.08,2.51.11,4,.11,4.36,0,9.38-.26,10.09-.34Zm.1-.88-.22,0-.33,0a126.27,126.27,0,0,1-13.39.23l-.54,0-.45,0h0l.06,0,.91-.38a2.28,2.28,0,0,1,.51-.21L68.9,73c.46-.2.86-.36,1.29-.53L71.27,72a12.15,12.15,0,0,1,5.29-.46,11.39,11.39,0,0,1,1.86.38l1.42.41.53.16c.36.11.71.21,1,.29a6.5,6.5,0,0,0,1,.19l.3,0a4.21,4.21,0,0,1,1,.15,9,9,0,0,1-1,.2Z"/><path class="cls-7" d="M55.29,24.89a.46.46,0,0,0,.22-.06c.05,0,5.45-3.22,10.28-3a27.39,27.39,0,0,1,4.29.53,11.3,11.3,0,0,0,4.47.13c1.12-.16,2.13-.34,3.06-.49a24.25,24.25,0,0,1,5.4-.56,20.75,20.75,0,0,1,4.12.64.43.43,0,1,0,.23-.82,21.87,21.87,0,0,0-4.3-.68,25.63,25.63,0,0,0-5.59.57c-.93.16-1.93.33-3,.49a10.37,10.37,0,0,1-4.19-.12A28.61,28.61,0,0,0,65.83,21c-5-.26-10.53,2.95-10.76,3.08a.43.43,0,0,0,.22.8Z"/><path class="cls-7" d="M56,21.6H56a45.29,45.29,0,0,0,5.58-1.46,12.05,12.05,0,0,1,7.24-.39c.27.08.58.19.91.31,1.75.61,4.39,1.54,6.74.6a.43.43,0,0,0-.32-.8c-2,.82-4.41,0-6.13-.61l-1-.32a12.85,12.85,0,0,0-7.75.4,46.83,46.83,0,0,1-5.47,1.43.43.43,0,0,0-.35.5A.44.44,0,0,0,56,21.6Z"/><path class="cls-7" d="M67.64,48.42a.43.43,0,1,0-.81-.29c-.25.71-4.7,2-7.28,1.45a7,7,0,0,1-3.2-1.33.43.43,0,0,0-.61,0,.43.43,0,0,0,0,.6,7.55,7.55,0,0,0,3.64,1.57,8.21,8.21,0,0,0,1.58.14C63.63,50.56,67.21,49.62,67.64,48.42Z"/><path class="cls-1" d="M68.71,126.27c.08-.76.17-1.81.27-2.88,0-.62.11-1.3.18-2H66.33C67.34,123.37,68.21,125.16,68.71,126.27Z"/><path class="cls-1" d="M68.71,127.44a64,64,0,0,0-2.86-6.07h-.48a68.15,68.15,0,0,1,2.93,6.18c0,.16.15.6.54.6h0c.52,0,.56-.22,1-4.69.06-.63.12-1.34.19-2.09h-.43C69.17,125.92,69,128.64,68.71,127.44Z"/><path class="cls-1" d="M69,123.39c-.1,1.07-.19,2.12-.27,2.88-.5-1.11-1.37-2.9-2.38-4.9h-.48a64,64,0,0,1,2.86,6.07c.3,1.2.46-1.52.88-6.07h-.43C69.09,122.09,69,122.77,69,123.39Z"/><path class="cls-1" d="M87.6,124.09c.14-.7.37-1.64.67-2.72H86.34C86.82,122.45,87.26,123.41,87.6,124.09Z"/><path class="cls-1" d="M87.86,125.35c.15.62-.83-1.36-2-4h-.46c1.76,4,2.11,4.54,2.42,4.54a.7.7,0,0,0,.14,0,.46.46,0,0,0,.3-.62,21.3,21.3,0,0,1,.89-3.89h-.44A16.63,16.63,0,0,0,87.86,125.35Z"/><path class="cls-1" d="M87.6,124.09c-.34-.68-.78-1.64-1.26-2.72h-.47c1.16,2.62,2.14,4.6,2,4a16.63,16.63,0,0,1,.86-4h-.45C88,122.45,87.74,123.39,87.6,124.09Z"/><path class="cls-1" d="M78.64,121.37a.37.37,0,0,0,.21.06h0a.31.31,0,0,0,.19-.06h-.41Z"/><text class="cls-8" transform="translate(14.02 138.82)">Miguel Góm<tspan class="cls-9" x="103.38" y="0">e</tspan><tspan x="113.54" y="0">z</tspan></text></g></svg>