<?xml version="1.0" encoding="utf-8"?>
<!-- Generator: Adobe Illustrator 24.3.0, SVG Export Plug-In . SVG Version: 6.00 Build 0)  -->
<svg version="1.1" xmlns="http://www.w3.org/2000/svg" xmlns:xlink="http://www.w3.org/1999/xlink" x="0px" y="0px"
	 viewBox="0 0 150 150" style="enable-background:new 0 0 150 150;" xml:space="preserve">
<style type="text/css">
	.st0{fill:#FFFFFF;}
	.st1{fill:#F1748A;}
	.st2{fill:#C5E9F9;}
	.st3{fill:#FFD1C2;}
	.st4{fill:#231411;}
	.st5{fill:#1C2021;}
	.st6{fill:#F78271;}
	.st7{fill:#853C2B;}
	.st8{fill:#FECA9A;}
	.st9{fill:#FFB260;}
	.st10{fill:#0094B9;}
	.st11{fill:#B3B3B3;}
	.st12{fill:none;stroke:#1C2021;stroke-width:34.5058;stroke-miterlimit:10;}
	.st13{fill:none;stroke:#1C2021;stroke-width:2.2891;stroke-miterlimit:10;}
	.st14{fill:none;stroke:#1C2021;stroke-width:2.7327;stroke-miterlimit:10;}
	.st15{fill:#E7EBEF;}
	.st16{fill:#8A90A5;}
	.st17{fill:#FFFFFF;stroke:#000000;stroke-width:0.4371;stroke-miterlimit:10;}
	.st18{fill:none;stroke:#1C2021;stroke-width:2.2571;stroke-miterlimit:10;}
	.st19{fill:#CCCCCC;}
	.st20{fill:none;stroke:#1C2021;stroke-width:2.1705;stroke-miterlimit:10;}
	.st21{clip-path:url(#SVGID_2_);}
	.st22{clip-path:url(#SVGID_4_);fill:#FDD56F;}
	.st23{fill:none;}
	.st24{fill:#FFEEDA;}
	.st25{fill:#562D24;}
	.st26{fill:none;stroke:#1C2021;stroke-width:7.0401;stroke-miterlimit:10;}
	.st27{fill:none;stroke:#1C2021;stroke-width:4.7187;stroke-miterlimit:10;}
</style>
<g id="Layer_2">
</g>
<g id="Layer_1">
	<g>
		<path class="st0" d="M14.4,148.8c-7.3,0-13.2-5.9-13.2-13.2V14.4c0-7.3,5.9-13.2,13.2-13.2h121.2c7.3,0,13.2,5.9,13.2,13.2v121.2
			c0,7.3-5.9,13.2-13.2,13.2H14.4z"/>
		<path class="st1" d="M135.6,2.4c6.6,0,12,5.4,12,12v121.2c0,6.6-5.4,12-12,12H14.4c-6.6,0-12-5.4-12-12V14.4c0-6.6,5.4-12,12-12
			H135.6 M135.6,0H14.4C6.5,0,0,6.5,0,14.4v121.2c0,7.9,6.5,14.4,14.4,14.4h121.2c7.9,0,14.4-6.5,14.4-14.4V14.4
			C150,6.5,143.5,0,135.6,0L135.6,0z"/>
	</g>
	<g>
		<g>
			<path class="st1" d="M8,132.9L8,132.9c0-3.4,2.5-6.2,6.2-6.2c2.2,0,3.6,0.7,4.7,1.8l-1.7,1.9c-0.9-0.8-1.9-1.3-3-1.3
				c-2,0-3.5,1.7-3.5,3.7v0c0,2,1.4,3.7,3.5,3.7c1.4,0,2.2-0.5,3.1-1.4l1.7,1.7c-1.2,1.3-2.6,2.1-4.9,2.1C10.6,139,8,136.3,8,132.9z
				"/>
			<path class="st1" d="M20.3,136.2L20.3,136.2c0-2,1.5-2.9,3.7-2.9c0.9,0,1.6,0.2,2.2,0.4v-0.2c0-1.1-0.7-1.7-2-1.7
				c-1,0-1.7,0.2-2.5,0.5l-0.6-2c1-0.4,2-0.7,3.5-0.7c1.4,0,2.4,0.4,3.1,1c0.7,0.7,1,1.7,1,2.9v5.3h-2.5v-1
				c-0.6,0.7-1.5,1.2-2.8,1.2C21.7,139,20.3,138,20.3,136.2z M26.2,135.6v-0.5c-0.4-0.2-1-0.3-1.6-0.3c-1.1,0-1.8,0.4-1.8,1.3v0
				c0,0.7,0.6,1.1,1.4,1.1C25.4,137.2,26.2,136.5,26.2,135.6z"/>
			<path class="st1" d="M30.9,129.7h2.6v1.8c0.5-1.3,1.4-2.1,2.9-2v2.7h-0.1c-1.7,0-2.8,1-2.8,3.2v3.4h-2.6V129.7z"/>
			<path class="st1" d="M38,129.7h2.6v1.3c0.6-0.8,1.4-1.5,2.7-1.5c1.2,0,2.1,0.5,2.6,1.4c0.8-0.9,1.8-1.4,3-1.4
				c1.9,0,3.1,1.2,3.1,3.3v5.9h-2.6v-5.1c0-1.2-0.5-1.9-1.5-1.9s-1.6,0.6-1.6,1.9v5.1h-2.6v-5.1c0-1.2-0.5-1.9-1.5-1.9
				s-1.6,0.6-1.6,1.9v5.1H38V129.7z"/>
			<path class="st1" d="M53.7,134.3L53.7,134.3c0-2.6,1.9-4.8,4.5-4.8c3,0,4.4,2.4,4.4,4.9c0,0.2,0,0.4,0,0.7h-6.3
				c0.3,1.2,1.1,1.8,2.2,1.8c0.9,0,1.5-0.3,2.2-0.9l1.5,1.3c-0.9,1.1-2.1,1.7-3.7,1.7C55.7,139,53.7,137.1,53.7,134.3z M60.1,133.5
				c-0.2-1.2-0.8-1.9-1.9-1.9c-1.1,0-1.8,0.8-2,1.9H60.1z"/>
			<path class="st1" d="M64.5,129.7h2.6v1.3c0.6-0.8,1.4-1.5,2.7-1.5c2,0,3.1,1.3,3.1,3.4v5.9h-2.6v-5.1c0-1.2-0.6-1.9-1.6-1.9
				s-1.6,0.6-1.6,1.9v5.1h-2.6V129.7z"/>
			<path class="st1" d="M84.6,126.8H87l5.1,12h-2.7l-1.1-2.7h-5l-1.1,2.7h-2.7L84.6,126.8z M87.3,133.8l-1.6-3.9l-1.6,3.9H87.3z
				 M86.8,123.1l2.2,1l-2.3,1.7h-2L86.8,123.1z"/>
			<path class="st1" d="M93.8,126.4h2.6v12.4h-2.6V126.4z"/>
			<path class="st1" d="M98,129.7h2.7l2,6.1l2.1-6.1h2.7l-3.6,9.2h-2.3L98,129.7z"/>
			<path class="st1" d="M108,136.2L108,136.2c0-2,1.5-2.9,3.7-2.9c0.9,0,1.6,0.2,2.2,0.4v-0.2c0-1.1-0.7-1.7-2-1.7
				c-1,0-1.7,0.2-2.5,0.5l-0.6-2c1-0.4,2-0.7,3.5-0.7c1.4,0,2.4,0.4,3.1,1c0.7,0.7,1,1.7,1,2.9v5.3h-2.5v-1
				c-0.6,0.7-1.5,1.2-2.8,1.2C109.4,139,108,138,108,136.2z M114,135.6v-0.5c-0.4-0.2-1-0.3-1.6-0.3c-1.1,0-1.8,0.4-1.8,1.3v0
				c0,0.7,0.6,1.1,1.4,1.1C113.1,137.2,114,136.5,114,135.6z"/>
			<path class="st1" d="M118.6,129.7h2.6v1.8c0.5-1.3,1.4-2.1,2.9-2v2.7H124c-1.7,0-2.8,1-2.8,3.2v3.4h-2.6V129.7z"/>
			<path class="st1" d="M125,134.3L125,134.3c0-2.6,1.9-4.8,4.5-4.8c3,0,4.4,2.4,4.4,4.9c0,0.2,0,0.4,0,0.7h-6.3
				c0.3,1.2,1.1,1.8,2.2,1.8c0.9,0,1.5-0.3,2.2-0.9l1.5,1.3c-0.9,1.1-2.1,1.7-3.7,1.7C127.1,139,125,137.1,125,134.3z M131.5,133.5
				c-0.2-1.2-0.8-1.9-1.9-1.9c-1.1,0-1.8,0.8-2,1.9H131.5z"/>
			<path class="st1" d="M135.3,137l4.7-5.2h-4.6v-2.1h7.8v1.8l-4.7,5.2h4.7v2.1h-7.9V137z"/>
		</g>
	</g>
	<g>
		<path class="st23" d="M96.5,64c0.4-0.5,0.8-0.9,1.4-1c0.4-0.1,0.8,0,1.2,0.1c1.2-1.8,1.3-3.4,0.2-5.2c-0.4-0.8-1.4-1.4-2.7-2.1
			C96.5,58.6,96.5,61.6,96.5,64z"/>
		<g>
			<path class="st7" d="M73.1,14.2c-2.8-0.1-6.1,2.9-7.6,5c-1,1.5-1,2.3-1,2.6c3.1-1.5,6.6-2.6,9.4-2.8c1.3-0.1,2.7,0.1,4.1,0.4
				c0.2-0.8,0-1.7-0.6-2.6C76.5,15.3,74.7,14.2,73.1,14.2z"/>
			<path class="st7" d="M53,66.4c-0.5-2.7-0.8-5.3-0.9-7.6c-0.3,0.8-0.4,1.6-0.4,2.4C51.6,64.3,52.4,65.7,53,66.4z"/>
			<path class="st7" d="M92,51c-0.8-0.4-1.6-0.7-2.3-1.1c-3.1-1.4-6.4-2.9-11.9-7.1c-6.4-4.8-6.8-10.1-6.5-12.7
				c-1.3,1.9-2.5,5.6,0,11.4c4.1,9.7,12.3,10.7,16.2,11.2c3.4,0.4,6.1,1,8.1,1.8c0-0.5,0-0.9,0-1.3C94.6,52.5,93.4,51.7,92,51z"/>
			<path class="st7" d="M63.8,13.9C63.7,14,63.7,14,63.8,13.9c-2.5,2.6-3.1,3.7-2.8,5.2c0.2,1.4,1,3.2,1.3,3.8
				c0.5-0.3,1-0.5,1.6-0.8c-0.2-0.5-0.2-1.5,1.1-3.5c1.4-2.1,4.9-5.4,8.2-5.4c0,0,0.1,0,0.1,0c1.8,0.1,3.9,1.3,5.1,3
				c0.7,1.1,1,2.2,0.7,3.3c0.4,0.1,0.8,0.2,1.2,0.3c0.7-1.3,1.7-4.6,1.4-6.3c-0.3-1.7-4.8-5.1-7.7-5.5c-1.8-0.2-4.7,1.4-7.1,3.2
				C65.6,12.2,64.6,13.1,63.8,13.9z"/>
			<path class="st7" d="M96.5,54c0,0.3,0,0.6,0,0.9c0.5,0.2,1,0.5,1.5,0.7C97.6,55.1,97.1,54.5,96.5,54z"/>
			<path class="st7" d="M101.3,52.7c-4.2-8.3-10.9-12.4-15.8-14.4c-11.2-4.5-9.7-10.2-9.7-10.4c0.1-0.2,0.3-0.4,0.5-0.3
				c0.2,0.1,0.4,0.3,0.3,0.5c0,0.1-1.3,5.2,9.1,9.4c4,1.6,9,4.5,13.1,9.8c0.3-0.6,0.4-3.2-1.4-10.5c-1.3-5.2-6.2-10.1-9-12
				c-2.9-2-9.5-5.2-14.5-4.9c-5.4,0.3-13.5,4.5-16.2,7.2c-3,3-8.1,10.4-8.8,19.6c-0.3,4.9,0.2,6.5,0.6,7c0.7-1.1,1.6-2.1,2.5-3.1
				c0.1-1.1,0.2-1.8,0.2-1.8c0-0.2,0.3-0.4,0.5-0.4c0.2,0,0.4,0.3,0.4,0.5c0,0,0,0.3-0.1,0.7c2.3-2.2,4.9-4.1,7.7-6
				c6.3-4.3,6.4-7.7,6.4-7.8c0-0.2,0.2-0.4,0.4-0.4c0.2,0,0.4,0.2,0.4,0.4c0,0.2-0.1,3.9-6.8,8.5c-3,2-5.9,4.2-8.3,6.6
				c-0.1,1.2-0.2,2.8-0.2,4.7c2.1-2.6,5.5-5,9.2-7.5l0.9-0.6c6-4.1,6.5-8.3,6.5-8.4c0-0.1,0-0.1,0.1-0.2c-1.5-5.9,0.9-9.3,2.2-10.6
				c0,0,0,0,0.1-0.1c0.4-0.4,0.7-0.6,0.7-0.6c0.2-0.1,0.5-0.1,0.6,0.1c0.1,0.2,0.1,0.5-0.1,0.6c0,0-0.3,0.2-0.5,0.4
				c-0.3,0.8-2.1,7.4,5.9,13.3c5.5,4.1,8.7,5.5,11.8,7c0.8,0.4,1.5,0.7,2.3,1.1c1.2,0.6,2.2,1.2,3.2,1.9c0-1.1-0.1-1.9-0.2-2.4
				c0-0.2,0.1-0.5,0.4-0.5c0.2,0,0.5,0.1,0.5,0.4c0.1,0.6,0.2,1.8,0.2,3.2c1.5,1.2,2.6,2.6,3.3,4c0,0.1,0,0.2,0,0.3
				c0.1,0.1,0.2,0.2,0.2,0.3c1.1,2,1.2,3.8,0,5.7C103.1,60.1,102.3,54.6,101.3,52.7z"/>
			<path class="st7" d="M49.7,70.2c-0.4-1.1,0-1.8,0.4-2.1c0.6-0.5,1.2-0.7,1.8-0.6c0.6,0.1,1.1,0.5,1.5,0.9
				c-0.1-0.2-0.1-0.4-0.2-0.7c-0.5-0.2-2.5-1.4-2.5-6.4c0-1.6,0.5-3,1.2-4.3c0-1.9,0-3.6,0.1-5c-0.7,0.8-1.4,1.6-1.9,2.5
				c0,0,0,0.1-0.1,0.1c-1.5,2.3-2.5,4.9-2.7,7.7c-0.3,5.8,2,12.7,9.1,14.6c-0.2-0.4-0.4-0.8-0.6-1.2C54.5,75.5,50.5,72.5,49.7,70.2z
				"/>
			<path class="st7" d="M87,22.8c-0.2-0.1-0.3-0.1-0.5-0.2c0.1,0.1,0.3,0.1,0.4,0.2C87,22.8,87,22.8,87,22.8z"/>
			<path class="st7" d="M81,20.2c1.2,0.4,2.4,0.9,3.5,1.3c0.1,0,0.1,0,0.2,0c1,0.1,2.2-1.5,2.7-3.7c0.5-2.1,0.3-4.6-1.2-5.1
				c-2.5-1-3.5,0-3.8,0.4c0.1,0.2,0.1,0.3,0.1,0.5C82.8,15.4,81.8,18.6,81,20.2z"/>
			<path class="st7" d="M60.9,22.2c-0.3-0.9-0.7-2-0.9-3c-0.3-2,0.7-3.5,3.1-5.9c1-1,2.3-2.2,3.8-3.2c-0.3-0.4-1.1-1.1-2.2-1.4
				c-0.2,0-0.4-0.1-0.7-0.1c-0.8,0-1.5,0.3-2.4,0.8c-3.5,2.3-6.4,6-4.7,8.8C58.2,20.1,59.8,21.4,60.9,22.2z"/>
		</g>
		<g>
			<path class="st3" d="M87.3,108.4c-2-1.5-2.1-3.1-2.4-6.4c-0.1-0.6-0.1-1.3-0.2-2.1c-0.3-3.4-0.1-6.2,0.1-7.6
				c-0.2,0.2-0.5,0.4-0.8,0.6c-2,1.8-4,2.3-5.8,2.3c-2.8,0-5.1-1.4-6.2-2.1c-0.2-0.1-0.3-0.2-0.5-0.3c-0.2-0.1-0.4-0.2-0.8-0.3
				c-0.3-0.1-0.7-0.2-1.2-0.4c0.3,2.7,1.2,10.6,1.1,13.4c-0.2,3.2-2.2,5.8-3.5,7.1c0.2,0.3,0.5,0.7,0.8,1.1c0.9,1.3,2.1,2.8,2.9,4.3
				c0.4,0.7,0.7,1.3,1,1.7c0.4,0.6,0.7,1,1.1,1.3c0.1,0.1,0.2,0.1,0.3,0.2h5.5h0.6h1.7h0h3.2c0.6-0.4,1.1-0.8,1.5-1.6
				c0.9-2,1.5-5.5,1.6-8c0.1-0.9,0-1.7-0.1-2.4C87.4,109,87.3,108.7,87.3,108.4z M79.3,115.6c-0.2,0.3-0.5,0.4-0.9,0.4
				c0,0-0.1,0-0.1,0c-1.1,0-2.6-1.2-2.7-1.4c-0.2-0.2-0.2-0.4,0-0.6c0.2-0.2,0.4-0.2,0.6,0c0.5,0.5,1.6,1.2,2.2,1.1
				c0.2,0,0.2-0.1,0.3-0.1c0.2-0.2,0.4-0.2,0.6,0C79.4,115.2,79.5,115.4,79.3,115.6z"/>
			<path class="st3" d="M99.6,64.6c-0.1-0.2-0.3-0.3-0.4-0.4c0,0,0,0,0,0c-0.1,0-0.2,0-0.3-0.1c-0.1-0.1-0.1-0.1-0.1-0.2
				c-0.2-0.1-0.4-0.1-0.6-0.1c-0.8,0.2-1.4,1.5-1.6,2.1c0,0.7,0,1.3,0,1.8c0,1.2-0.2,2.7-0.6,4.3C98.2,69.6,100.8,66,99.6,64.6z"/>
			<path class="st3" d="M87.4,53.7c-3.8-0.5-12.6-1.6-16.9-11.8c-0.2-0.5-0.4-0.9-0.5-1.4c-0.6,1.7-2.2,4.7-6.5,7.7l-0.9,0.6
				c-4.1,2.8-7.8,5.4-9.6,8.3c0.1,5.5,1.1,13,4.8,19.9c0.7,0.1,1.3,0.2,2.1,0.3c0.2,0,0.4,0.2,0.4,0.5c0,0.2-0.2,0.4-0.4,0.4l0,0
				c-0.5,0-1-0.1-1.5-0.2c0.1,0.3,0.3,0.5,0.5,0.8c4.9,8.2,8.3,11.1,10.4,12.2c0,0,0,0,0,0c0.2,0,0.4,0.1,0.4,0.2
				c0.6,0.3,1.2,0.4,1.6,0.5c0.4,0.1,0.7,0.2,1,0.3c0.1,0.1,0.3,0.2,0.5,0.3c1.9,1.2,6.4,3.8,11-0.2c1.2-1,2-1.4,2.7-1.7
				c1-0.5,1.8-0.8,3.5-3.3c1.7-2.6,5.7-13.7,5.8-19.5c0-0.5,0-1.1,0-1.6c0-0.1,0-0.2,0-0.2c0,0,0,0,0,0c0.1-3.6,0.1-7.3,0.1-10.3
				C93.6,54.7,90.9,54.1,87.4,53.7z M73.9,74.9c0.4-0.7,1-1.8,1.2-3.8c0.5-3.6-0.9-8.1-0.9-8.2c-0.1-0.2,0.1-0.5,0.3-0.5
				c0.2-0.1,0.5,0.1,0.5,0.3c0.1,0.2,1.5,4.7,0.9,8.5c-0.3,2.2-0.9,3.3-1.3,4.1c-0.3,0.6-0.4,0.8-0.3,1c0.1,0.1,0.1,0.2,0.7-0.1
				c0.4-0.2,1-0.5,1.5-0.3c0.8,0.2,1.1,0.1,1.9-0.1c0.6-0.2,1.1,0,1.6,0.2c0.2,0.1,0.4,0.1,0.5,0.2c0,0,0,0,0-0.1
				c0-0.2,0.2-0.4,0.4-0.4s0.4,0.2,0.4,0.4c0,0.4-0.1,0.6-0.3,0.8c-0.4,0.3-0.8,0.1-1.3-0.1c-0.4-0.1-0.7-0.3-1-0.2
				c-1,0.3-1.5,0.4-2.5,0.1c-0.2-0.1-0.6,0.1-0.9,0.3c-0.3,0.1-0.6,0.3-1,0.3c-0.3,0-0.6-0.1-0.8-0.5C73.3,76.1,73.6,75.6,73.9,74.9
				z M58.7,61.5c0.1-0.6,2.4-2.2,4.2-2.9c1.8-0.8,4.2-1.2,6.3-0.8c2.1,0.5,3.8,2.3,3.5,3c0,0-1.8-2.2-4.6-2s-4.3,0-6.9,1.4
				C58.7,61.5,58.7,62.1,58.7,61.5z M67.1,65.8C66.3,66,65.6,66,65,66c-2.4,0-3.5-1.3-3.5-1.4c-0.1-0.1-0.1-0.3-0.1-0.4
				c0-0.1,1.1-2.5,4.7-2.9c3.6-0.4,5.1,1.3,5.1,1.4c0.1,0.2,0.1,0.4,0,0.5C71,64.1,70.3,64.9,67.1,65.8z M85.3,82.4
				c-0.3,0.1-0.8,0.3-1.4,0.5c-0.3,0.5-1,1.9-2.1,3.1c-0.8,0.9-2.1,1.3-3.5,1.3c-1.2,0-2.3-0.3-3.1-1c-1.2-1.1-2.1-2.4-2.4-2.9
				c-1-0.3-1.4-0.5-1.4-0.6c-0.2-0.1-0.3-0.4-0.1-0.6s0.4-0.3,0.6-0.1c0,0,0.3,0.2,1,0.4c0.3-0.3,0.9-0.9,1.8-1.5
				c1.3-0.9,2.2-0.8,2.9-0.5c0.2,0.1,0.4,0.3,0.6,0.4c0.1,0.1,0.3,0.2,0.4,0.3c0.5-0.7,1.1-1.1,1.7-1.2c0.9-0.1,1.6,0.4,2.1,0.8
				c0.7,0.6,1.2,1.1,1.5,1.3c0.5-0.2,1-0.3,1.3-0.4c0.2-0.1,0.5,0,0.6,0.3C85.6,82.1,85.5,82.3,85.3,82.4z M90.6,63.3
				c-0.1,0.1-1.2,1.7-4.5,1.7c-0.3,0-0.6,0-0.9,0c-3.3-0.3-4-1-4.4-1.9c0-0.1-0.1-0.2-0.1-0.2c-0.1-0.1-0.1-0.3,0-0.5
				c0.1-0.1,1.3-1.9,4.9-1.9c0,0,0.1,0,0.1,0c3.6,0,5,2.3,5,2.4C90.7,63,90.7,63.2,90.6,63.3z M90.8,58.6c-2.7-1.1-4.2-0.7-7-0.6
				s-4.4,2.5-4.4,2.5c-0.3-0.7,1.2-2.7,3.2-3.4s4.5-0.5,6.4,0.1c1.9,0.6,4.3,1.9,4.5,2.5C93.6,60.2,93.4,59.7,90.8,58.6z"/>
			<path class="st3" d="M54,70.7c-0.3-0.6-1.3-2.2-2.3-2.4c-0.4-0.1-0.7,0.1-1.1,0.4c-0.2,0.2-0.4,0.5-0.2,1.2c0.6,1.8,3.5,4,5,4.7
				C54.9,73.4,54.5,72,54,70.7C54.1,70.7,54.1,70.7,54,70.7z"/>
		</g>
		<path class="st6" d="M82.8,82.2c-0.3-0.2-0.6-0.6-1-0.9c-0.6-0.5-1.1-0.7-1.5-0.6c-0.4,0.1-0.8,0.4-1.2,0.9
			c-0.2,0.2-0.4,0.3-0.5,0.3c-0.4,0.1-0.8-0.2-1.1-0.5c-0.1-0.1-0.3-0.3-0.4-0.3c-0.5-0.2-1.1-0.3-2.1,0.4c-0.5,0.4-1,0.7-1.3,1
			c0.6,0.1,1.5,0.3,2.5,0.3C78.5,83.2,80.9,82.7,82.8,82.2z"/>
		<path class="st6" d="M75.8,85.6c1.3,1.2,4.2,1,5.3-0.2c0.7-0.7,1.2-1.6,1.6-2.2c-1.6,0.4-3.6,0.7-5.5,0.7c-0.3,0-0.7,0-1,0
			c-0.9-0.1-1.6-0.2-2.2-0.3C74.4,84.2,75,84.9,75.8,85.6z"/>
		<g>
			<path class="st5" d="M78.6,115.1c0,0.1-0.1,0.1-0.3,0.1c-0.6,0-1.7-0.7-2.2-1.1c-0.2-0.2-0.5-0.1-0.6,0c-0.2,0.2-0.1,0.5,0,0.6
				c0.2,0.1,1.6,1.4,2.7,1.4c0,0,0.1,0,0.1,0c0.4,0,0.7-0.2,0.9-0.4c0.2-0.2,0.1-0.5,0-0.6C79.1,114.9,78.8,114.9,78.6,115.1z"/>
			<path class="st5" d="M103.6,117c0,0-3.1-0.3-5.1-1.1c-2.3-0.9-4.6-2.4-4.6-2.9c-0.1-0.9-1.1-1.7-1.6-2c0-0.5-0.1-1.3-0.8-1.8
				c-0.2-0.1-0.5-0.4-0.8-0.7c-0.7-0.6-1.5-1.4-2.4-1.4c-0.3,0-0.6,0.1-0.8,0.3c0,0,0,0.1,0,0.1c-1.4-1.2-1.5-2.5-1.8-5.5
				c-0.1-0.6-0.1-1.3-0.2-2.1c-0.4-4.2,0.1-7.4,0.2-8.1c0.3-0.1,0.5-0.2,0.7-0.4c1.1-0.5,2.1-0.9,3.9-3.6c1.3-1.9,3.8-8.4,5.1-14.1
				c0.1,0,0.1-0.1,0.2-0.1c0.7-0.7,6.8-6.7,4.6-9.4c3.8-3.4,2.9-9.7,1.8-11.8c-0.8-1.6-1.7-3.1-2.7-4.4c0.9-1,0.5-4.8-1.1-11.4
				C97,31.2,91.9,26,89,24c-0.6-0.4-1.3-0.8-2.1-1.3c-0.1-0.1-0.3-0.1-0.4-0.2c-0.3-0.2-0.6-0.3-0.9-0.4c1.2-0.6,2.1-2.3,2.5-4.1
				c0.6-2.5,0.3-5.4-1.8-6.2c-2.6-1-4-0.2-4.6,0.4c-1.5-2.1-5.3-4.6-7.9-4.9c-1.7-0.2-4.1,0.9-6.3,2.3c-0.4-0.5-1.3-1.4-2.7-1.7
				c-1.2-0.3-2.4,0-3.7,0.8c-4,2.6-7,6.7-4.9,10c1.5,2.5,3.9,4.1,4.9,4.8c-1.7,1-3.1,2-4,2.9c-0.8,0.8-8.2,8.5-9,20.1
				c-0.4,5.4,0.3,7.2,0.9,7.9c-1.5,2.3-2.4,4.9-2.6,7.8c-0.3,6.4,2.3,13.9,10.5,15.7c0.3,0.5,0.5,1,0.8,1.4
				c5.1,8.5,8.6,11.4,10.9,12.6c0.2,1.8,1.3,10.9,1.1,13.7c-0.2,2.8-1.9,5.2-3.1,6.4c0,0,0,0,0,0c-0.2-0.4-0.6-0.6-1.1-0.4
				c-0.9,0.3-2.2,1.9-2.5,2.8c-1,0.2-4.6,1-6.1,2c-0.3,0.2-0.6,0.4-1,0.6c-1.6,1-3.9,2.5-8.3,4.1c-0.2,0.1-0.4,0.2-0.6,0.2h1h1.4
				c3.5-1.4,5.5-2.7,7-3.7c0.3-0.2,0.7-0.4,1-0.6c1.4-0.9,4.8-1.6,5.8-1.9c0.6,1,2.6,4.4,3.6,6c0,0,0.1,0.1,0.1,0.1H68
				c-0.1-0.2-0.3-0.4-0.4-0.6c-1.1-1.7-3.3-5.4-3.7-6.1c0.1-0.4,0.8-1.4,1.5-2c0.4-0.3,0.6-0.3,0.6-0.3c0.2,0.5,0.7,1.1,1.4,1.9
				c0.9,1.2,2.1,2.8,2.8,4.2c0.7,1.2,1.2,2.1,1.8,2.8h0.5h0.8h0.1c-0.1-0.1-0.2-0.1-0.3-0.2c-0.4-0.3-0.8-0.7-1.1-1.3
				c-0.3-0.5-0.6-1-1-1.7c-0.8-1.5-2-3.1-2.9-4.3c-0.3-0.4-0.6-0.7-0.8-1.1c1.3-1.3,3.3-3.9,3.5-7.1c0.2-2.8-0.7-10.7-1.1-13.4
				c0.5,0.2,0.9,0.3,1.2,0.4c0.3,0.1,0.6,0.2,0.8,0.3c0.1,0.1,0.3,0.2,0.5,0.3c1.2,0.7,3.5,2.1,6.2,2.1c1.8,0,3.8-0.6,5.8-2.3
				c0.3-0.2,0.5-0.4,0.8-0.6c-0.2,1.4-0.5,4.2-0.1,7.6c0.1,0.8,0.1,1.5,0.2,2.1c0.3,3.3,0.4,4.8,2.4,6.4c0,0.3,0,0.6,0.1,1
				c0.1,0.7,0.2,1.5,0.1,2.4c-0.2,2.5-0.8,6-1.6,8c-0.3,0.7-0.9,1.2-1.5,1.6h0.4h0.6h0.5c0.3-0.3,0.6-0.7,0.8-1.2
				c0.9-2.1,1.6-5.7,1.7-8.3c0.1-1,0-1.9-0.1-2.6c-0.1-0.5-0.1-1.2,0.1-1.3c0.6,0,1.3,0.7,1.9,1.2c0.3,0.3,0.6,0.6,0.9,0.8
				c0.5,0.3,0.3,1.2,0.3,1.2c0,0.1-0.9,5.5-2.3,8.3c-0.4,0.7-0.7,1.3-1,1.9h1c0.3-0.5,0.6-1.1,0.8-1.6c1.2-2.4,2-6.3,2.3-7.9
				c0.4,0.3,0.8,0.7,0.8,1.1c0.1,1.3,3.5,3.1,5.2,3.7c2.1,0.8,5.1,1.1,5.3,1.1l0,0c0.1,0,0.2-0.1,0.3-0.1c0.1-0.1,0.1-0.2,0.1-0.3
				C104,117.2,103.9,117,103.6,117z M47.4,62.3c0.2-2.9,1.1-5.4,2.7-7.7c0,0,0.1-0.1,0.1-0.1c0.6-0.9,1.2-1.7,1.9-2.5
				c-0.1,1.3-0.2,3-0.1,5c-0.8,1.3-1.2,2.7-1.2,4.3c0,5.1,2.1,6.2,2.5,6.4c0.1,0.2,0.1,0.4,0.2,0.7c-0.4-0.4-0.9-0.8-1.5-0.9
				c-0.7-0.1-1.3,0.1-1.8,0.6c-0.4,0.4-0.8,1-0.4,2.1c0.8,2.3,4.8,5.3,6.3,5.5c0.2,0.4,0.4,0.8,0.6,1.2C49.4,75,47.1,68.1,47.4,62.3
				z M49.1,46.6c0.6-9.2,5.8-16.6,8.8-19.6c2.6-2.6,10.8-6.9,16.2-7.2c5-0.3,11.5,2.9,14.5,4.9c2.8,1.9,7.7,6.9,9,12
				c1.8,7.2,1.7,9.9,1.4,10.5c-4.1-5.2-9.2-8.2-13.1-9.8c-10.4-4.2-9.2-9.4-9.1-9.4c0.1-0.2-0.1-0.5-0.3-0.5
				c-0.2-0.1-0.5,0.1-0.5,0.3c-0.1,0.2-1.5,5.9,9.7,10.4c4.9,2,11.7,6.1,15.8,14.4c1,1.9,1.8,7.4-1.3,10.5c1.1-1.9,1.1-3.8,0-5.7
				c-0.1-0.1-0.1-0.2-0.2-0.3c0-0.1,0-0.2,0-0.3c-0.7-1.4-1.8-2.8-3.3-4c0-1.4-0.1-2.6-0.2-3.2c0-0.2-0.3-0.4-0.5-0.4
				c-0.2,0-0.4,0.3-0.4,0.5c0.1,0.5,0.1,1.3,0.2,2.4c-0.9-0.7-2-1.3-3.2-1.9c-0.8-0.4-1.6-0.7-2.3-1.1c-3.1-1.4-6.3-2.9-11.8-7
				c-8-6-6.2-12.6-5.9-13.3c0.3-0.3,0.5-0.4,0.5-0.4c0.2-0.1,0.3-0.4,0.1-0.6c-0.1-0.2-0.4-0.3-0.6-0.1c0,0-0.3,0.2-0.7,0.6
				c0,0,0,0-0.1,0.1c-1.3,1.3-3.7,4.7-2.2,10.6c0,0.1-0.1,0.1-0.1,0.2c0,0-0.5,4.2-6.5,8.4L62,48.2c-3.7,2.5-7.1,4.9-9.2,7.5
				c0-1.9,0.1-3.6,0.2-4.7c2.4-2.4,5.3-4.6,8.3-6.6c6.7-4.5,6.8-8.3,6.8-8.5c0-0.2-0.2-0.4-0.4-0.4c-0.2,0-0.4,0.2-0.4,0.4
				c0,0-0.1,3.5-6.4,7.8c-2.7,1.9-5.4,3.8-7.7,6c0.1-0.4,0.1-0.7,0.1-0.7c0-0.2-0.1-0.5-0.4-0.5c-0.2,0-0.5,0.1-0.5,0.4
				c0,0-0.1,0.7-0.2,1.8c-0.9,1-1.8,2-2.5,3.1C49.4,53.1,48.8,51.5,49.1,46.6z M57.1,18.3c-1.8-2.8,1.2-6.5,4.7-8.8
				c0.8-0.5,1.6-0.8,2.4-0.8c0.2,0,0.4,0,0.7,0.1c1.1,0.2,1.8,1,2.2,1.4c-1.5,1-2.8,2.2-3.8,3.2c-2.4,2.5-3.4,3.9-3.1,5.9
				c0.1,1,0.5,2.1,0.9,3C59.8,21.4,58.2,20.1,57.1,18.3z M60.9,19.1c-0.2-1.5,0.4-2.7,2.8-5.2c0,0,0,0,0.1-0.1
				c0.8-0.8,1.8-1.7,2.9-2.6c2.4-1.9,5.3-3.4,7.1-3.2c2.9,0.3,7.4,3.8,7.7,5.5c0.3,1.7-0.7,5-1.4,6.3c-0.4-0.1-0.8-0.2-1.2-0.3
				c0.3-1,0-2.1-0.7-3.3c-1.2-1.7-3.2-3-5.1-3c0,0-0.1,0-0.1,0c-3.3,0-6.7,3.3-8.2,5.4c-1.3,1.9-1.2,3-1.1,3.5
				c-0.5,0.3-1.1,0.5-1.6,0.8C61.9,22.4,61.1,20.6,60.9,19.1z M86.1,12.6c1.5,0.6,1.7,3.1,1.2,5.1c-0.5,2.2-1.7,3.8-2.7,3.7
				c-0.1,0-0.1,0-0.2,0c-1.1-0.5-2.3-1-3.5-1.3c0.8-1.5,1.8-4.8,1.4-6.7c0-0.1-0.1-0.3-0.1-0.5C82.6,12.7,83.6,11.7,86.1,12.6z
				 M64.6,21.8c0-0.3,0-1.1,1-2.6c1.4-2.1,4.7-5.1,7.6-5c1.6,0,3.4,1.1,4.4,2.6c0.6,0.9,0.8,1.8,0.6,2.6c-1.4-0.3-2.8-0.4-4.1-0.4
				C71.2,19.1,67.7,20.3,64.6,21.8z M87.5,52.8c-3.9-0.5-12.1-1.6-16.2-11.2c-2.5-5.8-1.3-9.5,0-11.4c-0.3,2.7,0.1,8,6.5,12.7
				c5.5,4.1,8.8,5.6,11.9,7.1c0.8,0.4,1.5,0.7,2.3,1.1c1.4,0.7,2.5,1.4,3.6,2.2c0,0.4,0,0.8,0,1.3C93.6,53.8,90.9,53.3,87.5,52.8z
				 M96.5,54c0.6,0.5,1.1,1.1,1.5,1.6c-0.4-0.3-0.9-0.5-1.5-0.7C96.5,54.6,96.5,54.3,96.5,54z M96.5,55.9c1.4,0.6,2.3,1.3,2.7,2.1
				c1.1,1.8,1,3.4-0.2,5.2c-0.4-0.2-0.8-0.2-1.2-0.1c-0.6,0.1-1,0.5-1.4,1C96.5,61.6,96.5,58.6,96.5,55.9z M50.5,69.9
				c-0.2-0.7,0-1,0.2-1.2c0.4-0.3,0.7-0.5,1.1-0.4c1,0.2,2,1.8,2.3,2.4c0,0,0,0,0,0c0.4,1.3,0.9,2.6,1.4,3.9
				C54,73.9,51.1,71.7,50.5,69.9z M53,66.4c-0.6-0.7-1.4-2.1-1.4-5.2c0-0.8,0.2-1.6,0.4-2.4C52.2,61.1,52.5,63.7,53,66.4z
				 M96.4,67.8c0-0.5,0-1.1,0-1.8c0.2-0.6,0.8-1.9,1.6-2.1c0.2,0,0.4,0,0.6,0.1c0,0.1,0.1,0.1,0.1,0.2c0.1,0.1,0.2,0.1,0.3,0.1
				c0,0,0,0,0,0c0.1,0.1,0.3,0.2,0.4,0.4c1.2,1.3-1.4,5-3.7,7.5C96.2,70.5,96.4,69,96.4,67.8z M83.5,92.3c-4.6,4-9.1,1.3-11,0.2
				c-0.2-0.1-0.4-0.2-0.5-0.3c-0.3-0.1-0.6-0.2-1-0.3c-0.4-0.1-0.9-0.3-1.6-0.5c-0.1-0.2-0.2-0.3-0.4-0.2c0,0,0,0,0,0
				c-2.2-1.1-5.5-4-10.4-12.2c-0.2-0.3-0.3-0.5-0.5-0.8c0.5,0.1,1,0.1,1.5,0.2l0,0c0.2,0,0.4-0.2,0.4-0.4c0-0.2-0.2-0.4-0.4-0.5
				c-0.7,0-1.4-0.1-2.1-0.3C54,70.2,53,62.7,52.9,57.2c1.8-2.9,5.5-5.5,9.6-8.3l0.9-0.6c4.4-3,6-6,6.5-7.7c0.2,0.4,0.3,0.9,0.5,1.4
				c4.3,10.1,13.2,11.3,16.9,11.8c3.5,0.4,6.2,1.1,8.2,1.8c0,3,0,6.7-0.1,10.3c0,0,0,0,0,0c0,0.1,0,0.2,0,0.2c0,0.6,0,1.1,0,1.6
				c-0.1,5.8-4.1,16.9-5.8,19.5c-1.7,2.5-2.5,2.9-3.5,3.3C85.5,90.9,84.7,91.3,83.5,92.3z"/>
			<path class="st5" d="M74.5,77.2c0.4,0,0.7-0.2,1-0.3c0.3-0.2,0.7-0.3,0.9-0.3c1,0.3,1.5,0.1,2.5-0.1c0.3-0.1,0.6,0.1,1,0.2
				c0.5,0.2,1,0.3,1.3,0.1c0.2-0.2,0.3-0.4,0.3-0.8c0-0.2-0.2-0.4-0.4-0.4s-0.4,0.2-0.4,0.4c0,0,0,0.1,0,0.1c-0.1,0-0.4-0.1-0.5-0.2
				c-0.5-0.2-1-0.3-1.6-0.2c-0.8,0.2-1.1,0.3-1.9,0.1c-0.6-0.2-1.1,0.1-1.5,0.3c-0.6,0.3-0.6,0.3-0.7,0.1c-0.1-0.2,0-0.4,0.3-1
				c0.4-0.8,1-2,1.3-4.1c0.5-3.8-0.9-8.4-0.9-8.5c-0.1-0.2-0.3-0.4-0.5-0.3c-0.2,0.1-0.4,0.3-0.3,0.5c0,0,1.4,4.5,0.9,8.2
				c-0.3,2-0.9,3.1-1.2,3.8c-0.4,0.7-0.6,1.2-0.3,1.8C73.9,77.1,74.2,77.2,74.5,77.2z"/>
			<path class="st5" d="M85,81.6c-0.3,0.1-0.7,0.2-1.3,0.4c-0.2-0.2-0.7-0.7-1.5-1.3c-0.5-0.4-1.3-0.9-2.1-0.8
				c-0.6,0.1-1.2,0.5-1.7,1.2c-0.1-0.1-0.3-0.2-0.4-0.3c-0.2-0.2-0.4-0.4-0.6-0.4c-0.7-0.3-1.6-0.4-2.9,0.5
				c-0.9,0.6-1.5,1.2-1.8,1.5c-0.7-0.2-1-0.4-1-0.4c-0.2-0.1-0.5-0.1-0.6,0.1s-0.1,0.5,0.1,0.6c0,0,0.5,0.3,1.4,0.6
				c0.3,0.5,1.2,1.9,2.4,2.9c0.8,0.7,1.9,1,3.1,1c1.3,0,2.7-0.4,3.5-1.3c1.1-1.2,1.8-2.6,2.1-3.1c0.6-0.2,1.1-0.3,1.4-0.5
				c0.2-0.1,0.3-0.3,0.3-0.6C85.5,81.6,85.2,81.5,85,81.6z M75.8,85.6c-0.7-0.6-1.3-1.4-1.8-2c0.6,0.1,1.4,0.2,2.2,0.3
				c0.3,0,0.7,0,1,0c1.9,0,3.9-0.4,5.5-0.7c-0.4,0.6-0.9,1.5-1.6,2.2C79.9,86.6,77.1,86.7,75.8,85.6z M77.1,81.2
				c0.1,0,0.2,0.2,0.4,0.3c0.3,0.3,0.7,0.6,1.1,0.5c0.1,0,0.3-0.1,0.5-0.3c0.4-0.6,0.8-0.9,1.2-0.9c0.4-0.1,0.9,0.1,1.5,0.6
				c0.4,0.3,0.8,0.7,1,0.9c-1.8,0.5-4.3,0.9-6.5,0.7c-1-0.1-1.8-0.2-2.5-0.3c0.3-0.3,0.7-0.7,1.3-1C76.1,80.9,76.6,81,77.1,81.2z"/>
			<path class="st5" d="M71.3,62.7c-0.1-0.1-1.6-1.8-5.1-1.4c-3.6,0.4-4.7,2.8-4.7,2.9c-0.1,0.1,0,0.3,0.1,0.4
				c0.1,0.1,1.1,1.4,3.5,1.4c0.6,0,1.3-0.1,2.1-0.3c3.2-0.8,3.9-1.7,4.2-2.5C71.4,63.1,71.4,62.9,71.3,62.7z M68.7,64.4
				c-0.1,0.2-0.3,0.3-0.6,0.3c0,0-0.1,0-0.1,0c-0.1,0-0.1,0-0.2,0c-0.4-0.1-0.7-0.4-0.7-0.7c0-0.4,0.4-0.8,0.8-0.8
				c0.2,0,0.4,0.1,0.5,0.2c0,0,0,0,0-0.1c-0.1-0.5-0.3-0.9-0.6-1.1c1.3,0.1,2.1,0.6,2.5,0.9C70.4,63.3,70.1,63.8,68.7,64.4z
				 M62.4,64.3c0.3-0.4,0.9-1.2,2.2-1.8c-0.4,0.8-0.8,2,0.5,2.5c0.1,0,0.2,0,0.3,0.1C63.7,65.3,62.7,64.7,62.4,64.3z"/>
			<path class="st5" d="M72.8,60.8c0.3-0.7-1.4-2.5-3.5-3c-2.1-0.5-4.5,0-6.3,0.8c-1.8,0.8-4.1,2.4-4.2,2.9c-0.1,0.6,0,0,2.5-1.4
				c2.5-1.4,4-1.2,6.9-1.4S72.8,60.8,72.8,60.8z"/>
			<path class="st5" d="M90.6,63.3c0.1-0.1,0.1-0.3,0-0.5c-0.1-0.1-1.4-2.4-5-2.4c0,0-0.1,0-0.1,0c-3.5,0-4.8,1.9-4.9,1.9
				c-0.1,0.1-0.1,0.3,0,0.5c0,0.1,0.1,0.2,0.1,0.2c0.5,0.9,1.1,1.6,4.4,1.9c0.3,0,0.6,0,0.9,0C89.4,65,90.5,63.4,90.6,63.3z
				 M81.5,62.7L81.5,62.7c0.3-0.3,1-0.9,2.3-1.2c-0.2,0.3-0.4,0.7-0.4,1.2c-0.1,0.5,0.2,1,0.6,1.3C82,63.6,81.7,63.1,81.5,62.7z
				 M86.7,64.1c-0.2-0.1-0.3-0.3-0.3-0.6c0-0.4,0.4-0.8,0.8-0.8c0.3,0,0.5,0.1,0.6,0.3c0-0.5-0.2-1.1-0.5-1.5
				c1.3,0.4,2.1,1.1,2.4,1.5c-0.3,0.3-0.8,0.7-1.8,0.9c-0.2,0.2-0.4,0.3-0.7,0.3c-0.1,0-0.3,0-0.4-0.1
				C86.7,64.1,86.7,64.1,86.7,64.1z"/>
			<path class="st5" d="M83.8,57.9c2.8-0.1,4.3-0.5,7,0.6c2.7,1.1,2.8,1.7,2.7,1.1c-0.1-0.6-2.6-1.9-4.5-2.5
				c-1.9-0.6-4.4-0.8-6.4-0.1s-3.5,2.7-3.2,3.4C79.4,60.4,81,58,83.8,57.9z"/>
		</g>
		<g>
			<path class="st0" d="M123.3,120.3c-1.3-2-11.9-1.8-19.5-2.6c-0.1,0.1-0.2,0.1-0.3,0.1l0,0c-0.1,0-3.2-0.3-5.3-1.1
				c-1.6-0.6-5.1-2.4-5.2-3.7c0-0.4-0.4-0.8-0.8-1.1c-0.3,1.6-1.1,5.5-2.3,7.9c-0.2,0.5-0.5,1-0.8,1.6h31.1h3.6
				C123.7,121,123.5,120.6,123.3,120.3z"/>
			<path class="st0" d="M67.3,114.4c-0.6-0.8-1.1-1.5-1.4-1.9c0,0-0.2,0-0.6,0.3c-0.7,0.6-1.4,1.6-1.5,2c0.4,0.7,2.7,4.4,3.7,6.1
				c0.1,0.2,0.3,0.4,0.4,0.6h4c-0.6-0.7-1.2-1.6-1.8-2.8C69.4,117.1,68.2,115.6,67.3,114.4z"/>
			<path class="st0" d="M91.5,111.1c0,0,0.1-0.9-0.3-1.2c-0.3-0.2-0.6-0.5-0.9-0.8c-0.6-0.5-1.3-1.2-1.9-1.2
				c-0.2,0.1-0.1,0.8-0.1,1.3c0.1,0.7,0.2,1.6,0.1,2.6c-0.2,2.6-0.8,6.2-1.7,8.3c-0.2,0.5-0.5,0.9-0.8,1.2h2.3
				c0.3-0.6,0.7-1.2,1-1.9C90.6,116.6,91.5,111.2,91.5,111.1z"/>
			<path class="st0" d="M63.2,115.3c-1,0.2-4.4,1-5.8,1.9c-0.3,0.2-0.6,0.4-1,0.6c-1.5,0.9-3.5,2.2-7,3.7h7.9h1.7h7.9
				c0,0-0.1-0.1-0.1-0.1C65.8,119.6,63.8,116.2,63.2,115.3z"/>
			<path class="st0" d="M65.4,65.1c-0.1,0-0.2,0-0.3-0.1c-1.3-0.4-0.9-1.7-0.5-2.5c-1.3,0.5-2,1.3-2.2,1.8
				C62.7,64.7,63.7,65.3,65.4,65.1z"/>
			<path class="st0" d="M83.4,62.7c0.1-0.6,0.2-0.9,0.4-1.2c-1.3,0.3-2.1,0.9-2.4,1.2l0,0c0.2,0.5,0.5,1,2.5,1.3
				C83.6,63.6,83.4,63.2,83.4,62.7z"/>
			<path class="st0" d="M67.8,64.6c0.1,0,0.1,0,0.2,0c0,0,0.1,0,0.1,0c0.2,0,0.4-0.1,0.6-0.3c1.4-0.6,1.7-1,1.8-1.3
				c-0.3-0.3-1.1-0.8-2.5-0.9c0.2,0.2,0.4,0.6,0.6,1.1c0,0,0,0,0,0.1c-0.1-0.1-0.3-0.2-0.5-0.2c-0.5,0-0.8,0.3-0.8,0.8
				C67.2,64.3,67.5,64.6,67.8,64.6z"/>
			<path class="st0" d="M86.8,64.1c0.1,0.1,0.2,0.1,0.4,0.1c0.3,0,0.5-0.1,0.7-0.3c1-0.2,1.6-0.7,1.8-0.9c-0.3-0.4-1-1.1-2.4-1.5
				c0.3,0.4,0.5,1,0.5,1.5c-0.2-0.2-0.4-0.3-0.6-0.3c-0.5,0-0.8,0.3-0.8,0.8c0,0.2,0.1,0.5,0.3,0.6C86.7,64.1,86.7,64.1,86.8,64.1z"
				/>
		</g>
	</g>
</g>
</svg>
