<?xml version="1.0" encoding="utf-8"?>
<!-- Generator: Adobe Illustrator 24.3.0, SVG Export Plug-In . SVG Version: 6.00 Build 0)  -->
<svg version="1.1" xmlns="http://www.w3.org/2000/svg" xmlns:xlink="http://www.w3.org/1999/xlink" x="0px" y="0px"
	 viewBox="0 0 150 150" style="enable-background:new 0 0 150 150;" xml:space="preserve">
<style type="text/css">
	.st0{fill:#FFFFFF;}
	.st1{fill:#F1748A;}
	.st2{fill:#C5E9F9;}
	.st3{fill:#FFD1C2;}
	.st4{fill:#231411;}
	.st5{fill:#1C2021;}
	.st6{fill:#F78271;}
	.st7{fill:#853C2B;}
	.st8{fill:#FECA9A;}
	.st9{fill:#FFB260;}
	.st10{fill:#0094B9;}
	.st11{fill:#B3B3B3;}
	.st12{fill:none;stroke:#1C2021;stroke-width:34.5058;stroke-miterlimit:10;}
	.st13{fill:none;stroke:#1C2021;stroke-width:2.2891;stroke-miterlimit:10;}
	.st14{fill:none;stroke:#1C2021;stroke-width:2.7327;stroke-miterlimit:10;}
	.st15{fill:#E7EBEF;}
	.st16{fill:#8A90A5;}
	.st17{fill:#FFFFFF;stroke:#000000;stroke-width:0.4371;stroke-miterlimit:10;}
	.st18{fill:none;stroke:#1C2021;stroke-width:2.2571;stroke-miterlimit:10;}
	.st19{fill:#CCCCCC;}
	.st20{fill:none;stroke:#1C2021;stroke-width:2.1705;stroke-miterlimit:10;}
	.st21{clip-path:url(#SVGID_2_);}
	.st22{clip-path:url(#SVGID_4_);fill:#FDD56F;}
	.st23{fill:none;}
	.st24{fill:#FFEEDA;}
	.st25{fill:#562D24;}
	.st26{fill:none;stroke:#1C2021;stroke-width:7.0401;stroke-miterlimit:10;}
	.st27{fill:none;stroke:#1C2021;stroke-width:4.7187;stroke-miterlimit:10;}
</style>
<g id="Layer_2">
</g>
<g id="Layer_1">
	<g>
		<path class="st0" d="M14.4,148.8c-7.3,0-13.2-5.9-13.2-13.2V14.4c0-7.3,5.9-13.2,13.2-13.2h121.2c7.3,0,13.2,5.9,13.2,13.2v121.2
			c0,7.3-5.9,13.2-13.2,13.2H14.4z"/>
		<path class="st1" d="M135.6,2.4c6.6,0,12,5.4,12,12v121.2c0,6.6-5.4,12-12,12H14.4c-6.6,0-12-5.4-12-12V14.4c0-6.6,5.4-12,12-12
			H135.6 M135.6,0H14.4C6.5,0,0,6.5,0,14.4v121.2c0,7.9,6.5,14.4,14.4,14.4h121.2c7.9,0,14.4-6.5,14.4-14.4V14.4
			C150,6.5,143.5,0,135.6,0L135.6,0z"/>
	</g>
	<g>
		<g>
			<path class="st1" d="M7.4,133.2L7.4,133.2c0-3.2,2.5-5.8,5.9-5.8c2,0,3.2,0.5,4.4,1.5l-1.6,1.9c-0.9-0.7-1.6-1.1-2.9-1.1
				c-1.8,0-3.2,1.6-3.2,3.5v0c0,2,1.4,3.6,3.4,3.6c0.9,0,1.7-0.2,2.3-0.7v-1.6h-2.5v-2.1h4.9v4.9c-1.2,1-2.7,1.8-4.8,1.8
				C9.8,139,7.4,136.6,7.4,133.2z"/>
			<path class="st1" d="M20.3,127.1h2.6v2.2h-2.6V127.1z M20.3,130.2h2.4v8.6h-2.4V130.2z"/>
			<path class="st1" d="M24.4,137.7l1-1.6c0.9,0.7,1.9,1,2.7,1c0.7,0,1-0.3,1-0.6v0c0-0.5-0.8-0.7-1.8-1c-1.2-0.4-2.6-0.9-2.6-2.6v0
				c0-1.7,1.4-2.7,3.1-2.7c1.1,0,2.3,0.4,3.2,1l-0.9,1.7c-0.8-0.5-1.7-0.8-2.3-0.8c-0.6,0-0.9,0.3-0.9,0.6v0c0,0.5,0.8,0.7,1.7,1
				c1.2,0.4,2.6,1,2.6,2.5v0c0,1.9-1.4,2.8-3.3,2.8C26.8,139,25.5,138.6,24.4,137.7z"/>
			<path class="st1" d="M32.6,134.6L32.6,134.6c0-2.5,1.7-4.5,4.2-4.5c2.9,0,4.2,2.2,4.2,4.7c0,0.2,0,0.4,0,0.6h-6
				c0.2,1.1,1,1.7,2.1,1.7c0.8,0,1.4-0.3,2.1-0.9l1.4,1.2c-0.8,1-2,1.6-3.5,1.6C34.6,139,32.6,137.2,32.6,134.6z M38.7,133.9
				c-0.1-1.1-0.8-1.8-1.8-1.8c-1,0-1.7,0.7-1.9,1.8H38.7z"/>
			<path class="st1" d="M43,127.1h2.4v11.7H43V127.1z"/>
			<path class="st1" d="M47.2,136.4L47.2,136.4c0-1.9,1.4-2.8,3.5-2.8c0.9,0,1.5,0.1,2.1,0.4v-0.1c0-1-0.6-1.6-1.8-1.6
				c-0.9,0-1.6,0.2-2.4,0.5l-0.6-1.9c0.9-0.4,1.9-0.7,3.3-0.7c1.3,0,2.3,0.4,2.9,1c0.6,0.6,0.9,1.6,0.9,2.7v5h-2.4v-0.9
				c-0.6,0.7-1.4,1.1-2.6,1.1C48.5,139,47.2,138.1,47.2,136.4z M52.8,135.8v-0.4c-0.4-0.2-1-0.3-1.6-0.3c-1,0-1.7,0.4-1.7,1.2v0
				c0,0.7,0.5,1,1.3,1C52,137.3,52.8,136.7,52.8,135.8z"/>
			<path class="st1" d="M62.2,127.6h5.1c1.4,0,2.5,0.4,3.3,1.1c0.6,0.6,1,1.5,1,2.6v0c0,1.8-1,2.9-2.4,3.5l2.7,4H69l-2.4-3.6h-1.9
				v3.6h-2.5V127.6z M67.2,133.1c1.2,0,1.9-0.6,1.9-1.6v0c0-1.1-0.7-1.6-1.9-1.6h-2.4v3.2H67.2z"/>
			<path class="st1" d="M73,134.6L73,134.6c0-2.5,2-4.5,4.7-4.5c2.7,0,4.6,2,4.6,4.4v0c0,2.5-2,4.5-4.7,4.5
				C74.9,139,73,137,73,134.6z M79.9,134.6L79.9,134.6c0-1.3-0.9-2.4-2.3-2.4c-1.4,0-2.2,1.1-2.2,2.3v0c0,1.3,0.9,2.4,2.3,2.4
				C79,136.9,79.9,135.8,79.9,134.6z"/>
			<path class="st1" d="M83.6,134.5L83.6,134.5c0-2.9,1.9-4.5,3.9-4.5c1.3,0,2.1,0.6,2.7,1.3v-4.2h2.4v11.7h-2.4v-1.2
				c-0.6,0.8-1.4,1.4-2.7,1.4C85.5,139,83.6,137.4,83.6,134.5z M90.2,134.5L90.2,134.5c0-1.5-0.9-2.4-2.1-2.4
				c-1.1,0-2.1,0.9-2.1,2.4v0c0,1.4,1,2.4,2.1,2.4C89.3,136.9,90.2,136,90.2,134.5z"/>
			<path class="st1" d="M94.8,130.2h2.4v1.7c0.5-1.2,1.3-2,2.7-1.9v2.5h-0.1c-1.6,0-2.6,1-2.6,3v3.2h-2.4V130.2z"/>
			<path class="st1" d="M101.6,130.2h2.4v8.6h-2.4V130.2z M103.6,126.5l2.1,0.9l-2.1,1.9h-1.8L103.6,126.5z"/>
			<path class="st1" d="M106.4,140.5l0.8-1.8c0.9,0.5,1.8,0.8,2.9,0.8c1.7,0,2.4-0.8,2.4-2.3v-0.4c-0.7,0.9-1.5,1.4-2.8,1.4
				c-2,0-3.8-1.5-3.8-4v0c0-2.6,1.8-4,3.8-4c1.3,0,2.1,0.6,2.8,1.3v-1.1h2.4v6.6c0,1.5-0.4,2.7-1.1,3.4c-0.8,0.8-2,1.2-3.7,1.2
				C108.8,141.4,107.5,141.1,106.4,140.5z M112.6,134.1L112.6,134.1c0-1.2-0.9-2-2.1-2s-2.1,0.8-2.1,2v0c0,1.2,0.9,2,2.1,2
				S112.6,135.3,112.6,134.1z"/>
			<path class="st1" d="M117.1,135.8v-5.6h2.4v4.8c0,1.2,0.5,1.7,1.5,1.7c0.9,0,1.5-0.6,1.5-1.7v-4.8h2.4v8.6h-2.4v-1.2
				c-0.6,0.7-1.3,1.4-2.5,1.4C118.1,139,117.1,137.8,117.1,135.8z"/>
			<path class="st1" d="M126.7,134.6L126.7,134.6c0-2.5,1.7-4.5,4.2-4.5c2.9,0,4.2,2.2,4.2,4.7c0,0.2,0,0.4,0,0.6h-6
				c0.2,1.1,1,1.7,2.1,1.7c0.8,0,1.4-0.3,2.1-0.9l1.4,1.2c-0.8,1-2,1.6-3.5,1.6C128.6,139,126.7,137.2,126.7,134.6z M132.7,133.9
				c-0.1-1.1-0.8-1.8-1.8-1.8c-1,0-1.7,0.7-1.9,1.8H132.7z"/>
			<path class="st1" d="M136.4,137.1l4.4-4.9h-4.3v-2h7.3v1.7l-4.5,4.9h4.5v2h-7.5V137.1z"/>
		</g>
	</g>
	<g>
		<path class="st23" d="M100.1,121.4L100.1,121.4c0.1-0.1,0.1-0.2,0.2-0.3C100.2,121.2,100.2,121.3,100.1,121.4z"/>
		<path class="st23" d="M76.1,28.9c-0.1,0-0.1-0.1-0.2-0.1C76,28.9,76,28.9,76.1,28.9z"/>
		<path class="st23" d="M85.7,80.9c0,0.1-0.2,9,0.2,13.2c0.4-1.2,0.8-2.4,1.1-3.7c1.6-5.7,0.3-9.6-0.2-11c-0.1,0.1-0.1,0.1-0.2,0.2
			c-0.3,0.3-0.6,0.6-1,0.9c0,0,0,0.1,0,0.1C85.7,80.8,85.7,80.8,85.7,80.9z"/>
		<path class="st23" d="M95.6,40.1c0.3,0.7,0.5,1.4,0.6,2c0-0.2-0.1-0.4-0.2-1.2C95.9,40.6,95.8,40.3,95.6,40.1z"/>
		<path class="st23" d="M52.3,52.5c0.6,0.6,1.2,1.3,1.7,1.8c0-0.1,0-0.2,0-0.3c0,0,0,0,0,0C53.3,53.4,52.8,52.9,52.3,52.5z"/>
		<path class="st2" d="M111.6,106.7c-2.5-1.4-6.1-2.2-7.7-2.5c0,0,0,0-0.1,0c0.4,4,0.4,7,0,8.9l-0.1,0.3c-0.6,2.6-1,4.8-2.5,7.9
			h15.4c1.1-4.6,1.7-8.5,1.7-10.9v-0.7c0-0.3-3-1.7-6.3-3.1c-0.1,0-0.1,0-0.2,0C111.8,106.8,111.7,106.7,111.6,106.7z"/>
		<path class="st2" d="M64.9,118.1c-2.8-6-4.3-9.8-4.9-11.5c-0.1-0.4-0.3-0.8-0.4-1.1c-0.4-1.1-0.7-1.9-0.5-2.5
			c-0.1,0-0.2,0.1-0.4,0.2c-1.4,0.6-2.2,1-3.2,1.5c-0.7,0.3-1.5,0.7-2.6,1.3c-2.9,1.4-6.1,2.7-7.1,3c-0.3,0.1-0.5-0.1-0.6-0.3
			c-5.3,1.9-11.6,4.1-11.6,4.1c-0.5,0-1.5,3.7-1.1,8.6h34.2C66.1,120.4,65.4,119.3,64.9,118.1z"/>
		<path class="st3" d="M52.3,52.5c-1.2-1-1.7-1.2-2-1.1c-0.3,0.1-0.5,0.7-0.8,1.4c-0.4,1.1,0.6,2.7,1.7,4.8c0.7,1.2,1.5,2.6,2.2,4.1
			c0.9,2,1.4,2,1.5,2c0.2,0,0.4-0.4,0.5-0.6c0,0,0,0,0,0c-0.8-3.1-1.3-6.1-1.5-8.7C53.6,53.8,53,53.1,52.3,52.5z"/>
		<path class="st3" d="M90.4,71c0,0,0.1-0.1,0.1-0.1c1.3-2.8,2.5-6,3.3-8.9c1.5-5.2,2.1-7.7,2.3-10.6c-0.1-0.1-0.1-0.3,0-0.4
			c-0.1-0.2-0.1-0.4,0.1-0.5c0-0.5,0-1.1,0-1.7c0-1.3,0-2.7,0.1-4.1c0-1.8,0-2.2,0-2.5c-0.2-0.7-0.4-1.4-0.6-2
			c-0.5-0.9-1.1-1.8-1.7-2.6c-2.3-3.1-8.1-5.6-15.5-6.8c-2.3-0.4-4-1.3-5.1-2.9c-0.7-1-1.1-2.1-1.3-3.1c-0.1,0.3-0.3,0.6-0.5,1
			c-2.3,4-6,6.4-9.1,8.3c-1.5,0.9-2.8,1.8-3.7,2.6c-1,1-2.7,2.7-4.1,4.7c0.2,2.6,0.1,5,0.1,9c0,4.6,1,14.1,4.9,20.5
			c2.5,4.2,5.2,7,7.1,9.1c8,8.6,16.9,1.2,19-0.9c1.2-1.2,2.8-4.1,4.4-7.5C90.2,71.3,90.2,71.2,90.4,71z M89.4,45
			c2.9,1.4,4.4,4.3,4.4,4.3c-0.6-1-3.7-2.5-8-3.4c-3.9-0.8-6,1.2-6,1.2C78.2,42,86.5,43.6,89.4,45z M70.4,52.4
			c-0.1,0.3-0.4,0.4-0.6,0.2c0,0-0.1,0-0.1,0c-0.1,0.7-0.5,1.4-1.1,1.9c-1,0.9-2.7,1.3-4.2,1.3c-0.8,0-1.6-0.1-2.2-0.4
			c-1.5-0.7-2.1-1.5-2.3-2c-0.1,0.1-0.1,0.1-0.2,0.2c-0.1,0.1-0.2,0.2-0.3,0.2s-0.2-0.1-0.3-0.2c-0.2-0.2-0.2-0.6,0-0.8
			c0.7-0.8,5.6-4.5,11.2-1.1C70.4,51.8,70.5,52.1,70.4,52.4z M73.1,56.2c-0.6-3.6-1.5-5.7-2.2-6.7l-0.1-0.1
			c-0.1-0.1-0.1-0.2-0.2-0.3c0,0-2.1-2-6-1.2c-4.4,0.9-7.4,2.4-8,3.4c0,0,1.5-3,4.4-4.4c2.6-1.2,9.4-2.7,9.8,0.7
			c0,0.1,0.1,0.1,0.1,0.2l0.1,0.3c0.4,0.4,0.7,1.3,1.2,2.3c0.1,0,0.1,0.1,0.1,0.1c0.1,0.1,1.8,2.7,2.6,8.1c0.7,4.4,0,7.7-0.3,8.8
			c0.2,0.1,0.3,0.1,0.5,0.2c0.4,0.2,0.7,0.3,1.1,0.3c0.5,0,0.7-0.1,1-0.3c0.3-0.2,0.8-0.5,1.6-0.3c0.3,0.1,0.6,0,0.6-0.2
			c0.1-0.2,0-0.4-0.3-0.6c-0.2-0.2-0.3-0.4-0.1-0.7c0.2-0.2,0.4-0.3,0.7-0.1c0.7,0.5,0.8,1.2,0.6,1.7c-0.2,0.5-0.8,0.9-1.7,0.7
			c-0.4-0.1-0.6,0-0.9,0.2c-0.3,0.2-0.7,0.4-1.5,0.4c-0.2,0-0.4,0-0.6-0.1l-1-0.3c-0.5-0.2-0.8-0.3-1.3-0.1c-0.7,0.3-1.1,0.2-1.3,0
			c-0.5-0.4-0.5-1.2-0.1-2.6c0.1-0.2,0.2-0.5,0.3-0.8C73.1,63.6,73.9,61.4,73.1,56.2z M85.5,54.8c-0.9,0-1.6-0.1-2.2-0.4
			c-1.5-0.7-2.1-1.5-2.3-2c-0.1,0.1-0.1,0.1-0.2,0.2c-0.1,0.1-0.2,0.2-0.3,0.2c-0.1,0-0.2-0.1-0.3-0.2c-0.2-0.2-0.2-0.6,0-0.8
			c0.7-0.8,5.6-4.5,11.2-1.1c0.2,0.1,0.3,0.5,0.2,0.8c-0.1,0.3-0.4,0.4-0.6,0.2c0,0-0.1,0-0.1,0c-0.1,0.7-0.5,1.4-1.1,1.9
			C88.6,54.4,87,54.8,85.5,54.8z"/>
		<path class="st3" d="M73.2,67.5c0.2-0.1,0.4-0.2,0.6-0.2c0.2-0.7,0.7-3,0.5-6.1c-0.1,2.1-0.6,3.3-0.9,4.2
			c-0.1,0.3-0.2,0.5-0.2,0.7c-0.3,1-0.3,1.4-0.2,1.6C72.9,67.6,73.1,67.6,73.2,67.5z"/>
		<path class="st3" d="M85.2,96.1c-0.8-2.6-0.6-12.3-0.5-14.7c-9.1,7.3-15,2.5-18.6-0.7c0,0,0,0,0,0c0.2,3.1,0.5,10.5,0.2,12.8
			c-0.4,3.1-1.2,6.7-6.3,10.1c0,0.3,0.2,0.7,0.5,1.5c0.1,0.3,0.3,0.7,0.4,1.1c0.6,1.7,2.1,5.5,4.9,11.5c0.7,1.4,1.4,2.7,2.2,3.8h4.8
			c2.7-7,3.3-8.4,6-12.2C80.6,106.5,83.2,101.6,85.2,96.1z"/>
		<path class="st3" d="M85.7,80.6C85.7,80.6,85.6,80.6,85.7,80.6c0,0.1,0,0.1,0,0.1C85.7,80.7,85.7,80.6,85.7,80.6z"/>
		<path class="st3" d="M95.3,62c0,0,0.5-0.1,1.4-2.1c0.7-1.5,1.4-2.9,2.1-4c1.1-2.1,2-3.7,1.9-4.8c-0.1-1-0.5-1.6-1-1.7
			c-0.2-0.1-1.1,0-2.4,2c-0.2,2.9-0.7,5.4-2.1,10.3C95.1,61.8,95.2,62,95.3,62z"/>
		<path class="st4" d="M74.1,27.2c0.5,0.6,1,1.2,1.8,1.6c0.1,0,0.1,0.1,0.2,0.1c0.7,0.4,1.6,0.7,2.5,0.8c7.6,1.2,13.7,3.9,16.2,7.1
			c2,2.6,4.2,6,4.5,8.8c0.2-0.4,0.4-0.7,0.5-1.1c0.4-4.9-3.6-12.6-7-14.4c-4-2.1-9.6-4-15.1-5.2c-2.5-0.6-3.9-1.5-4.7-2.4
			C72.9,23.8,73,25.7,74.1,27.2z"/>
		<path class="st4" d="M97.2,48.8c0,0.1,0,0.3,0,0.4c0.3-0.5,0.7-1,1-1.6c-0.1-1.1-0.4-2.5-0.9-3.9c0,0.3,0,0.6,0,1
			C97.3,46.1,97.2,47.6,97.2,48.8z"/>
		<path class="st4" d="M51.6,48.7L51.6,48.7c-0.3,0-0.5-0.2-0.5-0.5c-0.1-5,4.8-10.3,7-12.3c1-0.9,2.4-1.8,3.9-2.8
			c3.1-1.9,6.6-4.1,8.7-7.9c3.1-5.5-0.8-11.3-0.8-11.3c-0.2-0.2-0.1-0.5,0.1-0.7c0.2-0.2,0.5-0.1,0.7,0.1c0.1,0.2,2.2,3.2,2.2,7.1
			c0,0.1,0,0.1,0,0.2c0,0.1,0.3,2.3,4.9,3.3c5.5,1.2,11.3,3.2,15.3,5.3c3.1,1.6,6.4,7,7.3,11.9c0-1.8-0.2-4.1-1.2-6.3
			c-1.8-4.1-6.6-8.3-11.4-10.2c-3.1-1.2-7.5-2.3-7.5-2.3c-0.3-0.1-0.4-0.3-0.4-0.6c0.1-0.3,0.3-0.4,0.6-0.4c0,0,4.5,1.1,7.7,2.3
			c5.2,2,10,6.3,12,10.7c0.8,1.8,1.2,3.7,1.3,5.3c0.4-1.6,0.8-3.2,1-5c0.8-7.1-2.6-13.8-4.3-17l-0.3-0.6c-1.6-3.2-9.8-8.6-16.8-9.4
			c-6.7-0.7-10.7,3.6-10.7,3.6c-0.2,0.2-0.4,0.2-0.7,0.1c-0.1-0.1-3.3-2-7.1,0.2c-3.2,1.9-10.7,6.9-12.7,12.7
			c-1.4,4.1-1.6,10.6-1.4,14.1c1.9-4.8,6.7-9.6,11.2-13.7C66,19.1,68,17,68,17c0.2-0.2,0.5-0.2,0.7,0c0.2,0.2,0.2,0.5,0,0.7
			c-0.1,0.1-2,2.1-8.3,7.8C55.4,30.1,50,35.6,48.9,40.8c0,0.1,0,0.2-0.1,0.3c-0.3,1.5-0.2,2.9,0.3,4.3c-0.2-4.5,3.2-8,4.8-10
			c2.6-3.3,6.2-7.2,12.4-10.7c5.2-3,4.2-6.7,4.1-6.9c-0.1-0.3,0.1-0.6,0.3-0.6c0.3-0.1,0.5,0.1,0.6,0.3c0,0,1.3,4.7-4.6,8.1
			c-6,3.4-9.5,7.2-12.1,10.4c-3.7,4.7-7.3,9.2-1.6,15.7c0,0,0,0,0,0c0.2,0.2,0.5,0.4,0.8,0.7c0-0.8-0.1-1.5-0.1-2.2
			c0-3.3,0-5.4-0.1-7.5c-1,1.7-1.7,3.5-1.6,5.3C52.1,48.4,51.9,48.7,51.6,48.7z"/>
		<path class="st4" d="M102.8,113.2l0.1-0.3c0.7-3.4,0.1-10-1.8-20.1c-1.1-5.7-2.9-8.9-4.3-11.4c-0.3-0.6-0.7-1.2-1-1.8
			c-1.4-2.7-3.2-5.5-4.8-7.3c-1.2,2.6-2.4,4.8-3.5,6.2c0,0,0,0,0,0c0.3,0.3,1.4,1.7,2.2,4.3c0,0,0.1,0.1,0.1,0.1
			c0.9,2.1,1.8,6.6,1.8,10.3c-0.1,3.9-1,10.2-1.9,15.9c-0.9,5.5-1.2,7-2.6,12.1h9.2c1.1-4.2,1.1-7.3,1.2-9.6c0-0.8,0-1.5,0.1-2.1
			l0.1-1c0.3-3.5,0.6-7.8-1.2-17.3c-1.9-10.2-5.1-15.2-5.2-15.3c-0.2-0.2-0.1-0.5,0.1-0.7c0.2-0.2,0.5-0.1,0.7,0.1
			c0.1,0.2,3.3,5.2,5.3,15.6c1.8,9.6,1.5,14,1.2,17.6l-0.1,1c0,0.6-0.1,1.3-0.1,2.1c0,2.3-0.1,5.5-1.2,9.6h2.8
			c0.1-0.1,0.1-0.2,0.2-0.3C101.8,118,102.2,115.8,102.8,113.2z"/>
		<path class="st4" d="M90.6,93.4c0-1.4-0.1-2.9-0.3-4.3c-0.3,4.4-1.1,9.4-4.4,15.7c-2,3.8-3.4,7.7-4.9,11.8
			c-0.6,1.6-1.2,3.2-1.8,4.8h6.9c1.4-5.3,1.8-6.7,2.6-12.3C89.6,103.5,90.5,97.2,90.6,93.4z"/>
		<path class="st4" d="M85,104.3c3.1-5.8,4-10.4,4.3-15.4c0.1-2.2-0.1-4-0.5-5.5c0.2,1.9,0.1,4.4-0.7,7.3c-2.1,7.6-5.9,15.3-8.5,19
			c-2.6,3.6-3.2,4.9-5.7,11.6H78c0.7-1.8,1.3-3.5,1.9-5.2C81.5,112,82.9,108.1,85,104.3z"/>
		<path class="st5" d="M94,61.8c-0.1-0.3,0.1-0.5,0.4-0.6c0.3-0.1,0.5,0.1,0.6,0.4c0,0,0,0,0,0.1c1.4-4.9,2-7.4,2.1-10.3
			c-0.1,0.1-0.1,0.1-0.1,0.2c-0.2,0.2-0.5,0.3-0.7,0.2c-0.1-0.1-0.1-0.1-0.2-0.2c-0.2,2.9-0.8,5.5-2.3,10.6
			c-0.9,2.9-2.1,6.1-3.3,8.9c0.2-0.1,0.4-0.1,0.6,0.1c0.1,0.1,0.2,0.3,0.4,0.4c1.2-2.7,2.3-5.8,3.2-8.6C94.2,62.5,94.1,61.8,94,61.8
			z"/>
		<path class="st5" d="M65.5,78.8c0.3,0,0.5,0.2,0.5,0.5c0,0.1,0,0.6,0.1,1.4c0,0,0,0,0,0c3.6,3.3,9.5,8,18.6,0.7c0-0.3,0-0.5,0-0.5
			c0-0.3,0.2-0.5,0.5-0.5h0c0.2,0,0.3,0.1,0.4,0.2c0,0,0,0,0.1-0.1c0.3-0.3,0.6-0.6,1-0.9c0.1-0.1,0.1-0.1,0.2-0.2
			c-0.1-0.3-0.2-0.5-0.2-0.5c-0.1-0.2-0.1-0.6,0.2-0.7c0.2-0.1,0.6-0.1,0.7,0.2c0,0,0,0.1,0.1,0.1c1.1-1.4,2.3-3.6,3.5-6.2
			c-0.2-0.3-0.4-0.5-0.6-0.7c-0.1-0.1-0.1-0.2-0.1-0.2c-1.6,3.4-3.2,6.3-4.4,7.5c-2.1,2.2-11.1,9.5-19,0.9c-1.9-2.1-4.6-4.9-7.1-9.1
			c-3.9-6.5-4.9-15.9-4.9-20.5c0-4,0-6.4-0.1-9c-0.3,0.5-0.6,1-0.9,1.5c0.1,2.1,0.1,4.3,0.1,7.5c0,0.6,0,1.4,0.1,2.2
			c0.3,0.2,0.5,0.5,0.8,0.8c0.2,0.2,0.2,0.5,0,0.7c-0.2,0.2-0.5,0.2-0.7,0c0,0.1,0,0.2,0,0.3c0.2,2.6,0.7,5.6,1.5,8.7
			c0.1-0.2,0.4-0.4,0.6-0.3c0.3,0.1,0.4,0.4,0.3,0.6c0,0.1-0.2,0.6-0.6,0.9c0.7,2.5,1.7,4.9,3,7.1c2.2,3.6,4.3,6.3,6.1,8.2
			c0-0.2,0-0.3,0-0.3C65,79,65.2,78.8,65.5,78.8z"/>
		<path class="st5" d="M97.2,49.2c0-0.1,0-0.2,0-0.4c0-1.2,0-2.7,0.1-4.1c0-0.4,0-0.7,0-1c-0.3-0.9-0.8-1.9-1.2-2.8
			c0.1,0.8,0.2,1,0.2,1.2c0,0.3,0,0.7,0,2.5c0,1.5-0.1,2.9-0.1,4.1c0,0.6,0,1.2,0,1.7c0,0,0,0,0-0.1C96.5,50.1,96.9,49.7,97.2,49.2z
			"/>
		<path class="st5" d="M58.8,36.6c0.9-0.9,2.2-1.7,3.7-2.6c3-1.9,6.8-4.3,9.1-8.3c0.2-0.3,0.3-0.6,0.5-1c-0.3-1.8-0.1-3.3,0-3.4
			c0,0,0-0.1,0-0.1C72,20.9,72,20.7,72,20.7c0-0.3,0.2-0.5,0.5-0.5c0.2,0,0.4,0.1,0.5,0.3c0-3.9-2.1-6.9-2.2-7.1
			c-0.2-0.2-0.5-0.3-0.7-0.1c-0.2,0.2-0.3,0.5-0.1,0.7c0,0.1,3.9,5.8,0.8,11.3c-2.1,3.8-5.6,6-8.7,7.9c-1.5,0.9-2.9,1.8-3.9,2.8
			c-2.1,2-7.1,7.3-7,12.3c0,0.3,0.2,0.5,0.5,0.5h0c0.3,0,0.5-0.2,0.5-0.5c-0.1-1.8,0.6-3.6,1.6-5.3c0.3-0.5,0.6-1,0.9-1.5
			C56.1,39.3,57.8,37.6,58.8,36.6z"/>
		<path class="st5" d="M53.1,51.8C53.1,51.8,53.1,51.8,53.1,51.8c-5.7-6.5-2.1-11,1.6-15.7c2.6-3.2,6-7,12.1-10.4
			c5.9-3.4,4.6-8,4.6-8.1c-0.1-0.3-0.4-0.4-0.6-0.3c-0.3,0.1-0.4,0.4-0.3,0.6c0,0.2,1.1,3.9-4.1,6.9c-6.2,3.5-9.7,7.4-12.4,10.7
			c-1.6,2-5,5.5-4.8,10c0.2,0.6,0.5,1.1,0.8,1.7c0.2,0.2,0.1,0.5-0.2,0.7c-0.1,0-0.1,0.1-0.2,0.1c0.3,0.8,0.7,1.6,1.2,2.5
			C51.4,50.6,52.1,51,53.1,51.8z"/>
		<path class="st5" d="M60.5,25.5c6.3-5.6,8.2-7.7,8.3-7.8c0.2-0.2,0.2-0.5,0-0.7c-0.2-0.2-0.5-0.2-0.7,0c0,0-2,2.1-8.2,7.7
			c-4.6,4.1-9.3,8.9-11.2,13.7c0.1,1.1,0.2,2,0.3,2.2c0,0,0,0.1,0,0.2C50,35.6,55.4,30.1,60.5,25.5z"/>
		<path class="st5" d="M49.8,47.9c0.2-0.2,0.3-0.5,0.2-0.7c-0.4-0.6-0.6-1.1-0.8-1.7c-0.5-1.4-0.6-2.9-0.3-4.3
			c-0.1,0.1-0.1,0.2-0.2,0.2c-0.3,0.1-0.6,0-0.7-0.3c0-0.1,0-0.2-0.1-0.2c-0.5,2.3-0.2,4.7,1.3,6.9c0.1,0.2,0.3,0.2,0.4,0.2
			c0,0,0,0,0.1,0C49.7,47.9,49.7,47.9,49.8,47.9z"/>
		<path class="st5" d="M99.5,46.2c0.2-0.5,0.2-1,0.3-1.5c-0.2,0.4-0.3,0.8-0.5,1.1c0.1,0.6,0,1.2-0.1,1.8c-0.1,0.2-0.3,0.4-0.5,0.4
			c0,0-0.1,0-0.1,0c-0.1,0-0.2,0.2-0.3,0.4c0,0.2,0,0.3-0.1,0.5c0.3-0.2,0.6-0.3,0.8-0.4c0.3-0.5,0.6-1,0.8-1.5c0,0,0,0,0,0
			C99.5,46.7,99.4,46.4,99.5,46.2z"/>
		<path class="st5" d="M100.8,44.8c0-0.1,0-0.1,0.1-0.2c0,0,0,0-0.1,0C100.8,44.7,100.8,44.7,100.8,44.8z"/>
		<path class="st5" d="M98.2,47.6c-0.3,0.6-0.7,1.1-1,1.6c-0.4,0.5-0.7,1-1,1.3c0,0,0,0,0,0.1c-0.1,0.2-0.1,0.3-0.1,0.5
			c0,0,0-0.1,0-0.1c0.7-1.1,1.4-1.8,2-2.2c0-0.1,0.1-0.3,0.1-0.5C98.3,48,98.3,47.8,98.2,47.6z"/>
		<path class="st5" d="M48.6,41.4c0.1,0,0.2-0.1,0.2-0.2c0-0.1,0.1-0.2,0.1-0.3c0-0.1,0-0.1,0-0.2c-0.1-0.3-0.2-1.1-0.3-2.2
			c-0.2-3.5-0.1-9.9,1.4-14.1c2-5.9,9.5-10.9,12.7-12.7c3.8-2.2,6.9-0.3,7.1-0.2c0.2,0.1,0.5,0.1,0.7-0.1c0,0,4-4.4,10.7-3.6
			c7,0.8,15.2,6.2,16.8,9.4l0.3,0.6c1.7,3.2,5.1,9.9,4.3,17c-0.2,1.8-0.6,3.5-1,5c0.1,1.4,0,2.7-0.1,3.6c1-2.5,1.8-5.4,2.1-8.5
			c0.9-7.4-2.7-14.3-4.4-17.6l-0.3-0.6c-1.9-3.7-10.6-9.2-17.6-9.9C74.9,6,70.9,9.3,69.9,10.4c-1-0.5-4.2-1.8-7.8,0.4
			c-3.2,1.9-11,7.1-13.1,13.3c-1.9,5.5-1.7,14.7-1.1,16.8c0,0.1,0,0.2,0.1,0.2C48,41.3,48.3,41.5,48.6,41.4z"/>
		<path class="st5" d="M72.1,24.7c0.2,1,0.5,2.1,1.3,3.1c1.1,1.6,2.8,2.6,5.1,2.9c7.4,1.1,13.2,3.7,15.5,6.8
			c0.6,0.8,1.1,1.6,1.7,2.6c0.2,0.3,0.3,0.5,0.4,0.8c0.5,0.9,0.9,1.9,1.2,2.8c0.5,1.4,0.9,2.8,0.9,3.9c0,0.2,0,0.4,0,0.6
			c0.1-0.2,0.1-0.4,0.3-0.4c0,0,0.1,0,0.1,0c0.2,0,0.4-0.1,0.5-0.4c0.2-0.6,0.2-1.1,0.1-1.8c-0.2-2.9-2.5-6.3-4.5-8.8
			c-2.5-3.3-8.5-6-16.2-7.1c-1-0.1-1.8-0.4-2.5-0.8c-0.1,0-0.1-0.1-0.2-0.1c-0.7-0.4-1.3-0.9-1.8-1.6c-1.1-1.6-1.3-3.5-1.2-4.7
			c-0.5-0.5-0.7-1.1-0.9-1.4c0,0,0,0.1,0,0.1C72,21.4,71.7,22.9,72.1,24.7z"/>
		<path class="st5" d="M98.2,48.7c0-0.1,0-0.3,0.1-0.5C98.2,48.4,98.2,48.6,98.2,48.7C98.2,48.7,98.2,48.7,98.2,48.7z"/>
		<path class="st5" d="M100.7,44.7C100.7,44.7,100.7,44.6,100.7,44.7c-0.4-0.1-0.6-0.3-0.5-0.6c0.1-0.5,0.3-1.6,0.3-2.9
			c-1-4.9-4.2-10.3-7.3-11.9c-4.1-2.1-9.8-4.1-15.3-5.3c-4.6-1-4.9-3.3-4.9-3.3c0-0.1,0-0.1,0-0.2c-0.1-0.2-0.2-0.3-0.5-0.3
			c-0.3,0-0.5,0.3-0.5,0.5c0,0,0,0.2,0.1,0.5c0.1,0.4,0.4,0.9,0.9,1.4c0.8,0.9,2.2,1.8,4.7,2.4c5.5,1.2,11.1,3.2,15.1,5.2
			c3.5,1.8,7.4,9.6,7,14.4c0,0.6-0.1,1.1-0.3,1.5c-0.1,0.3,0,0.6,0.3,0.6c0,0,0,0,0,0c0,0,0.1,0,0.1,0c0.2,0,0.4-0.1,0.5-0.3
			c0.2-0.5,0.3-1.1,0.3-1.7C100.8,44.7,100.8,44.7,100.7,44.7C100.8,44.6,100.8,44.7,100.7,44.7z"/>
		<path class="st5" d="M101.5,39.7c-0.1-1.6-0.4-3.5-1.3-5.3c-2-4.4-6.8-8.7-12-10.7c-3.1-1.2-7.6-2.3-7.7-2.3
			c-0.3-0.1-0.5,0.1-0.6,0.4c-0.1,0.3,0.1,0.5,0.4,0.6c0,0,4.5,1.1,7.5,2.3c4.9,1.9,9.6,6.1,11.4,10.2c1,2.2,1.2,4.5,1.2,6.3
			c0,1.3-0.2,2.4-0.3,2.9c-0.1,0.3,0.1,0.5,0.4,0.6c0,0,0.1,0,0.1,0c0,0,0,0,0.1,0c0,0,0,0,0.1,0c0.2,0,0.3-0.2,0.4-0.4
			c0-0.2,0.1-0.5,0.2-0.9C101.5,42.4,101.6,41.2,101.5,39.7z"/>
		<path class="st5" d="M56.5,63.4c0.1-0.3,0-0.6-0.3-0.6c-0.2-0.1-0.5,0-0.6,0.3c0,0,0,0,0,0c-0.1,0.2-0.3,0.6-0.5,0.6
			c-0.1,0-0.6,0-1.5-2c-0.7-1.5-1.5-2.9-2.2-4.1c-1.2-2-2.1-3.6-1.7-4.8c0.2-0.7,0.5-1.4,0.8-1.4c0.3-0.1,0.9,0.1,2,1.1
			c0.4,0.4,1,0.9,1.6,1.5c0,0,0,0,0,0c0.2,0.2,0.5,0.2,0.7,0c0.2-0.2,0.2-0.5,0-0.7c-0.3-0.3-0.5-0.5-0.8-0.8
			c-0.3-0.3-0.5-0.5-0.8-0.7c-1-0.8-1.7-1.3-2.3-1.4c-0.3-0.1-0.5-0.1-0.7,0c-0.9,0.2-1.2,1.1-1.5,2.2c-0.5,1.5,0.5,3.2,1.9,5.5
			c0.7,1.2,1.5,2.5,2.1,4c0.8,1.8,1.6,2.6,2.4,2.6l0.1,0c0.4,0,0.6-0.2,0.8-0.4C56.2,64,56.4,63.5,56.5,63.4z"/>
		<path class="st5" d="M98.2,48.7C98.2,48.7,98.2,48.7,98.2,48.7c-0.6,0.4-1.3,1.1-2,2.2c0,0,0,0.1,0,0.1c-0.1,0.1-0.1,0.3,0,0.4
			c0,0.1,0.1,0.2,0.2,0.2c0.2,0.2,0.6,0.1,0.7-0.2c0.1-0.1,0.1-0.1,0.1-0.2c1.4-2,2.2-2,2.4-2c0.5,0.1,0.8,0.8,1,1.7
			c0.2,1.1-0.7,2.8-1.9,4.8c-0.7,1.2-1.4,2.5-2.1,4c-0.9,2-1.4,2.1-1.4,2.1c-0.1,0-0.2-0.2-0.2-0.4c0,0,0,0,0-0.1
			c-0.1-0.3-0.3-0.4-0.6-0.4c-0.3,0.1-0.4,0.3-0.4,0.6c0,0.1,0.2,0.7,0.6,1c0.1,0.1,0.3,0.2,0.5,0.2c0,0,0.1,0,0.1,0
			c0.8,0,1.5-0.8,2.3-2.7c0.7-1.5,1.4-2.8,2-4c1.2-2.2,2.2-4,2-5.5c-0.2-1.4-0.9-2.4-1.8-2.6c-0.2-0.1-0.5,0-0.9,0
			C98.7,48.4,98.5,48.5,98.2,48.7z"/>
		<path class="st5" d="M81.6,74.6c0,0,0,0.1,0,0.1C81.6,74.7,81.6,74.7,81.6,74.6z"/>
		<path class="st5" d="M72.3,74.4C72.3,74.4,72.3,74.4,72.3,74.4C72.3,74.4,72.3,74.4,72.3,74.4z"/>
		<path class="st5" d="M81.6,74.4C81.6,74.4,81.5,74.4,81.6,74.4C81.5,74.4,81.6,74.4,81.6,74.4C81.6,74.5,81.6,74.5,81.6,74.4z"/>
		<path class="st5" d="M88,90.8c0.8-2.9,0.9-5.4,0.7-7.3c-0.7-2.7-2-4.1-2-4.1c-0.2-0.2-0.2-0.5,0-0.7c0.2-0.2,0.5-0.2,0.7,0
			c0,0,0,0,0.1,0.1c0,0,0,0,0,0c0-0.1-0.1-0.1-0.1-0.1c-0.1-0.2-0.5-0.3-0.7-0.2c-0.2,0.1-0.3,0.4-0.2,0.7c0,0,0.1,0.2,0.2,0.5
			c0.6,1.3,1.8,5.3,0.2,11c-0.3,1.2-0.7,2.5-1.1,3.7c0.1,0.7,0.2,1.3,0.3,1.7l-1,0.3c0,0,0-0.1,0-0.1c-2,5.5-4.6,10.4-6.5,13.1
			c-2.7,3.8-3.3,5.2-6,12.2h1.1c2.5-6.6,3.1-7.9,5.7-11.6C82.2,106.1,85.9,98.4,88,90.8z"/>
		<path class="st5" d="M90.5,70.9c0,0-0.1,0-0.1,0.1c-0.1,0.1-0.2,0.3-0.1,0.5c0,0.1,0.1,0.2,0.1,0.2c0.2,0.2,0.4,0.4,0.6,0.7
			c1.5,1.7,3.4,4.6,4.8,7.3c0.3,0.6,0.6,1.2,1,1.8c1.4,2.5,3.2,5.7,4.3,11.4c1.9,10.1,2.5,16.7,1.8,20.1l-0.1,0.3
			c-0.6,2.6-1,4.8-2.5,7.8c0,0.1-0.1,0.2-0.2,0.3h1.1c1.5-3.1,2-5.4,2.5-7.9l0.1-0.3c0.4-2,0.4-4.9,0-8.9c-0.3-0.1-0.5-0.1-0.6-0.1
			c-0.3-0.1-0.4-0.4-0.3-0.6c0.1-0.3,0.4-0.4,0.6-0.3c0,0,0.1,0,0.2,0.1c-0.3-3-0.9-6.4-1.7-10.5c-1.1-5.9-3-9.1-4.4-11.7
			c-0.3-0.6-0.7-1.2-1-1.7c-1.5-3-3.6-6-5.2-7.8c-0.1-0.1-0.3-0.3-0.4-0.4C90.9,70.9,90.7,70.8,90.5,70.9z"/>
		<path class="st5" d="M85.9,104.8c3.4-6.3,4.1-11.3,4.4-15.7c-0.3-2.2-0.8-4.3-1.4-5.5c-0.1-0.3,0-0.6,0.3-0.7
			c0.2-0.1,0.4,0,0.6,0.1c-0.7-2.6-1.9-4.1-2.2-4.3c0,0,0,0-0.1-0.1c-0.2-0.2-0.5-0.2-0.7,0c-0.2,0.2-0.2,0.5,0,0.7
			c0,0,1.3,1.4,2,4.1c0.4,1.4,0.6,3.2,0.5,5.5c-0.3,5-1.2,9.6-4.3,15.4c-2.1,3.8-3.5,7.8-5,11.9c-0.6,1.7-1.3,3.4-1.9,5.2h1.1
			c0.6-1.6,1.2-3.3,1.8-4.8C82.4,112.4,83.8,108.5,85.9,104.8z"/>
		<path class="st5" d="M89.7,109.2c0.9-5.6,1.8-11.9,1.9-15.9c0.1-3.7-0.8-8.1-1.8-10.3c0,0-0.1-0.1-0.1-0.1
			c-0.1-0.2-0.4-0.2-0.6-0.1c-0.3,0.1-0.4,0.4-0.3,0.7c0.5,1.2,1.1,3.3,1.4,5.5c0.2,1.4,0.3,2.9,0.3,4.3c-0.1,3.9-1,10.1-1.9,15.7
			c-0.9,5.6-1.2,7-2.6,12.3h1.1C88.5,116.2,88.8,114.8,89.7,109.2z"/>
		<path class="st5" d="M98.5,109.7l0.1-1c0.3-3.6,0.6-8-1.2-17.6c-2-10.5-5.2-15.4-5.3-15.6c-0.2-0.2-0.5-0.3-0.7-0.1
			c-0.2,0.2-0.3,0.5-0.1,0.7c0,0,3.2,5,5.2,15.3c1.8,9.5,1.5,13.8,1.2,17.3l-0.1,1c0,0.6-0.1,1.3-0.1,2.1c0,2.3-0.1,5.4-1.2,9.6h1.1
			c1.1-4.2,1.1-7.3,1.2-9.6C98.5,111,98.5,110.3,98.5,109.7z"/>
		<path class="st5" d="M85.2,96.1C85.2,96.1,85.2,96.2,85.2,96.1l1-0.2c-0.1-0.4-0.2-1-0.3-1.7c-0.4-4.2-0.2-13.1-0.2-13.2
			c0-0.1,0-0.1,0-0.2c0,0,0-0.1-0.1-0.1c-0.1-0.1-0.2-0.2-0.4-0.2h0c-0.3,0-0.5,0.2-0.5,0.5c0,0.1,0,0.2,0,0.5
			C84.6,83.8,84.5,93.5,85.2,96.1z"/>
		<path class="st5" d="M102.9,103.4c-0.1,0.3,0.1,0.6,0.3,0.6c0.1,0,0.3,0.1,0.6,0.1c0,0,0,0,0.1,0c1.6,0.3,5.2,1.1,7.7,2.5
			c0.1,0,0.2,0.1,0.2,0.1c0.1,0,0.1,0,0.2,0c0.1,0,0.2-0.1,0.3-0.2c0.1-0.2,0-0.6-0.2-0.7c-2.6-1.5-6.4-2.3-8-2.6
			c-0.2,0-0.3-0.1-0.4-0.1c-0.1,0-0.2,0-0.2-0.1C103.2,103,103,103.2,102.9,103.4z"/>
		<path class="st5" d="M60.1,103.3c-0.1,0.1-0.1,0.2-0.1,0.3c5.1-3.5,5.9-7,6.3-10.1c0.3-2.3-0.1-9.7-0.2-12.8
			c0-0.8-0.1-1.3-0.1-1.4c0-0.3-0.3-0.5-0.5-0.5c-0.3,0-0.5,0.3-0.5,0.5c0,0,0,0.1,0,0.3c0.1,1.8,0.6,11.1,0.3,13.7
			c-0.3,2.7-1,5.6-4.7,8.5c0,0,0,0,0,0C61,102.3,60.5,102.8,60.1,103.3z"/>
		<path class="st5" d="M45.8,109c1.1-0.3,4.2-1.6,7.1-3c1.1-0.6,1.9-1,2.6-1.3c1-0.5,1.8-0.9,3.2-1.5c0.1-0.1,0.3-0.1,0.4-0.2
			c-0.2,0.6,0,1.3,0.5,2.5c0.1,0.3,0.3,0.7,0.4,1.1c0.6,1.7,2.1,5.5,4.9,11.5c0.6,1.2,1.2,2.3,1.9,3.3h1.2c-0.8-1.1-1.5-2.3-2.2-3.8
			c-2.8-6-4.3-9.8-4.9-11.5c-0.1-0.4-0.3-0.8-0.4-1.1c-0.3-0.8-0.5-1.2-0.5-1.5c0-0.1,0-0.2,0.1-0.3c0.5-0.5,0.9-0.9,0.6-1.4
			c0,0,0,0,0,0c-0.3-0.4-1-0.2-2.4,0.4c-1.4,0.6-2.2,1-3.2,1.6c-0.7,0.3-1.4,0.7-2.6,1.3c-2.8,1.4-6,2.7-6.9,2.9
			c-0.3,0.1-0.4,0.3-0.4,0.6c0,0,0,0,0,0C45.2,108.9,45.5,109,45.8,109z"/>
		<g>
			<path class="st0" d="M87.7,51.9c0,0.4-0.1,0.9-0.3,1.2c0-0.1,0.1-0.2,0.1-0.4c0-0.6-0.4-1-0.9-1s-0.9,0.5-0.9,1
				c0,0.6,0.4,1,0.9,1c0.1,0,0.2,0,0.3-0.1c0.1,0,0.2-0.1,0.3-0.2c0.8-0.2,1.5-0.5,2-0.9c0.5-0.4,0.7-0.9,0.7-1.4
				c-1-0.4-1.9-0.7-2.8-0.7C87.5,50.7,87.7,51.2,87.7,51.9z"/>
		</g>
		<g>
			<path class="st0" d="M84.2,53.5c-0.1-0.1-0.1-0.1-0.2-0.2c-0.9-1-0.8-1.9-0.5-2.5c-0.7,0.3-1.3,0.6-1.8,0.9
				c0.1,0.3,0.5,0.9,1.9,1.6C83.8,53.4,84,53.5,84.2,53.5z"/>
		</g>
		<path class="st5" d="M85.8,45.9c4.4,0.9,7.4,2.3,8,3.4c0,0-1.5-2.9-4.4-4.3c-2.9-1.4-11.2-3-9.6,2.1
			C79.8,47.1,81.9,45.2,85.8,45.9z"/>
		<path class="st5" d="M90.9,51.6c0.2,0.1,0.5,0,0.6-0.2c0.1-0.3,0-0.6-0.2-0.8c-5.5-3.4-10.5,0.3-11.2,1.1c-0.2,0.2-0.2,0.6,0,0.8
			c0.1,0.1,0.2,0.2,0.3,0.2c0.1,0,0.2-0.1,0.3-0.2c0,0,0.1-0.1,0.2-0.2c0.3,0.6,0.9,1.3,2.3,2c0.6,0.3,1.4,0.4,2.2,0.4
			c1.5,0,3.1-0.4,4.2-1.3C90.3,52.9,90.7,52.3,90.9,51.6C90.8,51.6,90.9,51.6,90.9,51.6z M89.2,52.5c-0.5,0.4-1.2,0.8-2,0.9
			c-0.1,0.1-0.2,0.2-0.3,0.2c-0.1,0-0.2,0.1-0.3,0.1c-0.5,0-0.9-0.5-0.9-1c0-0.6,0.4-1,0.9-1s0.9,0.5,0.9,1c0,0.1,0,0.3-0.1,0.4
			c0.2-0.4,0.4-0.8,0.3-1.2c0-0.6-0.2-1.2-0.5-1.5c0.9,0.1,1.8,0.3,2.8,0.7C89.9,51.6,89.7,52.1,89.2,52.5z M81.8,51.8
			c0.5-0.3,1.1-0.6,1.8-0.9c-0.3,0.6-0.4,1.4,0.5,2.5c0.1,0.1,0.1,0.1,0.2,0.2c-0.2-0.1-0.4-0.1-0.6-0.2
			C82.3,52.7,81.9,52.1,81.8,51.8z"/>
		<g>
			<path class="st0" d="M66.6,52.9c0,0.2,0,0.3,0,0.5c-0.1-0.3-0.4-0.5-0.7-0.5c-0.5,0-0.9,0.5-0.9,1c0,0.5,0.3,0.9,0.7,1
				c0.1,0,0.1,0,0.2,0c0.3,0,0.6-0.2,0.7-0.5c0.6-0.2,1.1-0.5,1.5-0.8c0.5-0.4,0.7-0.9,0.7-1.4c-1-0.4-1.9-0.7-2.8-0.7
				C66.4,51.7,66.5,52.3,66.6,52.9z"/>
		</g>
		<g>
			<path class="st0" d="M62.5,51.9c-0.7,0.3-1.3,0.6-1.8,0.9c0.1,0.3,0.5,0.9,1.9,1.6c0.2,0.1,0.4,0.1,0.6,0.2
				c-0.1-0.1-0.1-0.1-0.2-0.2C62,53.3,62.2,52.5,62.5,51.9z"/>
		</g>
		<path class="st5" d="M70.2,51.6c-5.5-3.4-10.5,0.3-11.2,1.1c-0.2,0.2-0.2,0.6,0,0.8c0.1,0.1,0.2,0.2,0.3,0.2s0.2-0.1,0.3-0.2
			c0,0,0.1-0.1,0.2-0.2c0.3,0.6,0.9,1.3,2.3,2c0.6,0.3,1.4,0.4,2.2,0.4c1.5,0,3.2-0.5,4.2-1.3c0.6-0.5,1-1.2,1.1-1.9
			c0,0,0.1,0,0.1,0c0.2,0.1,0.5,0,0.6-0.2C70.5,52.1,70.4,51.8,70.2,51.6z M68.1,53.6c-0.4,0.3-0.9,0.6-1.5,0.8
			c-0.1,0.3-0.4,0.5-0.7,0.5c-0.1,0-0.1,0-0.2,0c-0.4-0.1-0.7-0.5-0.7-1c0-0.6,0.4-1,0.9-1c0.3,0,0.6,0.2,0.7,0.5c0-0.2,0-0.3,0-0.5
			c0-0.6-0.2-1.1-0.5-1.5c0.9,0.1,1.8,0.3,2.8,0.7C68.8,52.6,68.6,53.1,68.1,53.6z M62.5,54.3c-1.3-0.6-1.7-1.3-1.9-1.6
			c0.5-0.3,1.1-0.6,1.8-0.9c-0.3,0.6-0.4,1.4,0.5,2.5c0.1,0.1,0.1,0.1,0.2,0.2C62.9,54.5,62.7,54.4,62.5,54.3z"/>
		<path class="st5" d="M72.3,65.8c-0.4,1.4-0.4,2.2,0.1,2.6c0.2,0.2,0.6,0.3,1.3,0c0.4-0.2,0.7-0.1,1.3,0.1l1,0.3
			c0.2,0,0.4,0.1,0.6,0.1c0.7,0,1.1-0.2,1.5-0.4c0.3-0.2,0.4-0.3,0.9-0.2c0.9,0.2,1.5-0.2,1.7-0.7c0.2-0.5,0.1-1.2-0.6-1.7
			c-0.2-0.2-0.5-0.1-0.7,0.1c-0.2,0.2-0.1,0.5,0.1,0.7c0.3,0.2,0.4,0.4,0.3,0.6c-0.1,0.1-0.3,0.2-0.6,0.2c-0.8-0.2-1.2,0.1-1.6,0.3
			c-0.3,0.2-0.5,0.3-1,0.3c-0.4,0-0.8-0.1-1.1-0.3c-0.2-0.1-0.3-0.1-0.5-0.2c0.3-1.1,0.9-4.4,0.3-8.8c-0.8-5.3-2.5-8-2.6-8.1
			c0-0.1-0.1-0.1-0.1-0.1c-0.5-1-0.9-2-1.2-2.3L71,47.8c-0.1-0.1-0.1-0.1-0.1-0.2c-0.3-3.4-7.2-1.9-9.8-0.7
			c-2.9,1.4-4.4,4.4-4.4,4.4c0.6-1,3.7-2.5,8-3.4c3.9-0.8,5.9,1.2,6,1.2c0,0.1,0.1,0.2,0.2,0.3l0.1,0.1c0.7,1,1.7,3.2,2.2,6.7
			c0.8,5.2,0,7.4-0.6,8.9C72.4,65.3,72.3,65.6,72.3,65.8z M73.2,66.1c0.1-0.2,0.1-0.4,0.2-0.7c0.3-0.9,0.8-2.1,0.9-4.2
			c0.2,3.2-0.4,5.5-0.5,6.1c-0.2,0-0.4,0.1-0.6,0.2c-0.2,0.1-0.3,0.1-0.3,0.1C72.9,67.5,72.9,67.1,73.2,66.1z"/>
	</g>
	<polygon class="st6" points="77,73 75.4,72 73.4,72.8 71.6,74.3 75.6,78 79.6,77.5 82.1,74.1 81.1,72.5 78.7,71.8 	"/>
	<path class="st5" d="M83.6,73.3c-0.3,0.1-0.7,0.2-1.3,0.4c-0.2-0.2-0.7-0.7-1.5-1.2c-0.5-0.4-1.3-0.8-2.1-0.7
		c-0.6,0.1-1.2,0.5-1.7,1.1c-0.1-0.1-0.3-0.2-0.4-0.3c-0.2-0.2-0.4-0.3-0.6-0.4c-0.7-0.2-1.6-0.4-2.9,0.5c-0.9,0.5-1.5,1.1-1.8,1.3
		c-0.7-0.2-1-0.3-1-0.3c-0.2-0.1-0.5-0.1-0.6,0.1s-0.1,0.4,0.1,0.5c0,0,0.5,0.3,1.4,0.5c0.3,0.5,1.2,1.6,2.4,2.6
		c0.8,0.6,1.9,0.9,3.1,0.9c1.3,0,2.7-0.4,3.5-1.1c1.1-1,1.8-2.3,2.1-2.7c0.6-0.2,1.1-0.3,1.4-0.4c0.2-0.1,0.3-0.3,0.3-0.5
		C84.1,73.3,83.8,73.2,83.6,73.3z M74.4,76.8c-0.7-0.6-1.3-1.2-1.8-1.8c0.6,0.1,1.4,0.2,2.2,0.2c0.3,0,0.7,0,1,0
		c1.9,0,3.9-0.3,5.5-0.6c-0.4,0.5-0.9,1.3-1.6,1.9C78.6,77.7,75.7,77.8,74.4,76.8z M75.8,73c0.1,0,0.2,0.2,0.4,0.2
		c0.3,0.3,0.7,0.5,1.1,0.5c0.1,0,0.3-0.1,0.5-0.3c0.4-0.5,0.8-0.8,1.2-0.8c0.4-0.1,0.9,0.1,1.5,0.5c0.4,0.3,0.8,0.6,1,0.8
		c-1.8,0.4-4.3,0.8-6.5,0.7c-1-0.1-1.8-0.2-2.5-0.3c0.3-0.2,0.7-0.6,1.3-0.9C74.7,72.7,75.3,72.8,75.8,73z"/>
</g>
</svg>
