<?xml version="1.0" encoding="utf-8"?>
<!-- Generator: Adobe Illustrator 24.3.0, SVG Export Plug-In . SVG Version: 6.00 Build 0)  -->
<svg version="1.1" xmlns="http://www.w3.org/2000/svg" xmlns:xlink="http://www.w3.org/1999/xlink" x="0px" y="0px"
	 viewBox="0 0 150 150" style="enable-background:new 0 0 150 150;" xml:space="preserve">
<style type="text/css">
	.st0{fill:#FFFFFF;}
	.st1{fill:#F1748A;}
	.st2{fill:#C5E9F9;}
	.st3{fill:#FFD1C2;}
	.st4{fill:#231411;}
	.st5{fill:#1C2021;}
	.st6{fill:#F78271;}
	.st7{fill:#853C2B;}
	.st8{fill:#FECA9A;}
	.st9{fill:#FFB260;}
	.st10{fill:#0094B9;}
	.st11{fill:#B3B3B3;}
	.st12{fill:none;stroke:#1C2021;stroke-width:34.5058;stroke-miterlimit:10;}
	.st13{fill:none;stroke:#1C2021;stroke-width:2.2891;stroke-miterlimit:10;}
	.st14{fill:none;stroke:#1C2021;stroke-width:2.7327;stroke-miterlimit:10;}
	.st15{fill:#E7EBEF;}
	.st16{fill:#8A90A5;}
	.st17{fill:#FFFFFF;stroke:#000000;stroke-width:0.4371;stroke-miterlimit:10;}
	.st18{fill:none;stroke:#1C2021;stroke-width:2.2571;stroke-miterlimit:10;}
	.st19{fill:#CCCCCC;}
	.st20{fill:none;stroke:#1C2021;stroke-width:2.1705;stroke-miterlimit:10;}
	.st21{clip-path:url(#SVGID_2_);}
	.st22{clip-path:url(#SVGID_4_);fill:#FDD56F;}
	.st23{fill:none;}
	.st24{fill:#FFEEDA;}
	.st25{fill:#562D24;}
	.st26{fill:none;stroke:#1C2021;stroke-width:7.0401;stroke-miterlimit:10;}
	.st27{fill:none;stroke:#1C2021;stroke-width:4.7187;stroke-miterlimit:10;}
</style>
<g id="Layer_2">
</g>
<g id="Layer_1">
	<g>
		<path class="st0" d="M14.4,148.8c-7.3,0-13.2-5.9-13.2-13.2V14.4c0-7.3,5.9-13.2,13.2-13.2h121.2c7.3,0,13.2,5.9,13.2,13.2v121.2
			c0,7.3-5.9,13.2-13.2,13.2H14.4z"/>
		<path class="st1" d="M135.6,2.4c6.6,0,12,5.4,12,12v121.2c0,6.6-5.4,12-12,12H14.4c-6.6,0-12-5.4-12-12V14.4c0-6.6,5.4-12,12-12
			H135.6 M135.6,0H14.4C6.5,0,0,6.5,0,14.4v121.2c0,7.9,6.5,14.4,14.4,14.4h121.2c7.9,0,14.4-6.5,14.4-14.4V14.4
			C150,6.5,143.5,0,135.6,0L135.6,0z"/>
	</g>
	<g>
		<g>
			<path class="st1" d="M20.2,137.2l1.6-1.8c0.7,0.7,1.3,1.2,2.2,1.2c1,0,1.6-0.6,1.6-2v-7.7h2.7v7.8c0,1.4-0.4,2.5-1.1,3.2
				c-0.7,0.7-1.8,1.1-3.1,1.1C22.2,139,21,138.2,20.2,137.2z"/>
			<path class="st1" d="M30.3,134.3L30.3,134.3c0-2.6,1.9-4.8,4.5-4.8c3,0,4.4,2.4,4.4,4.9c0,0.2,0,0.4,0,0.7h-6.3
				c0.3,1.2,1.1,1.8,2.2,1.8c0.9,0,1.5-0.3,2.2-0.9l1.5,1.3c-0.9,1.1-2.1,1.7-3.7,1.7C32.3,139,30.3,137.1,30.3,134.3z M36.7,133.5
				c-0.2-1.2-0.8-1.9-1.9-1.9c-1.1,0-1.8,0.8-2,1.9H36.7z"/>
			<path class="st1" d="M40.4,137.6l1.1-1.7c1,0.7,2,1.1,2.9,1.1c0.7,0,1.1-0.3,1.1-0.7v0c0-0.6-0.9-0.7-1.9-1.1
				c-1.3-0.4-2.7-1-2.7-2.7v0c0-1.9,1.5-2.9,3.3-2.9c1.2,0,2.4,0.4,3.4,1.1l-1,1.8c-0.9-0.5-1.8-0.9-2.5-0.9c-0.6,0-1,0.3-1,0.6v0
				c0,0.5,0.9,0.7,1.9,1.1c1.3,0.4,2.8,1,2.8,2.7v0c0,2-1.5,2.9-3.5,2.9C43.1,139,41.6,138.6,40.4,137.6z"/>
			<path class="st1" d="M49.6,135.6v-5.9h2.6v5.1c0,1.2,0.6,1.9,1.6,1.9c1,0,1.6-0.6,1.6-1.9v-5.1h2.6v9.1h-2.6v-1.3
				c-0.6,0.8-1.4,1.5-2.7,1.5C50.7,139,49.6,137.7,49.6,135.6z M54.6,125.7l2.2,1l-2.2,2h-1.9L54.6,125.7z"/>
			<path class="st1" d="M59.5,137.6l1.1-1.7c1,0.7,2,1.1,2.9,1.1c0.7,0,1.1-0.3,1.1-0.7v0c0-0.6-0.9-0.7-1.9-1.1
				c-1.3-0.4-2.7-1-2.7-2.7v0c0-1.9,1.5-2.9,3.3-2.9c1.2,0,2.4,0.4,3.4,1.1l-1,1.8c-0.9-0.5-1.8-0.9-2.5-0.9c-0.6,0-1,0.3-1,0.6v0
				c0,0.5,0.9,0.7,1.9,1.1c1.3,0.4,2.8,1,2.8,2.7v0c0,2-1.5,2.9-3.5,2.9C62.2,139,60.8,138.6,59.5,137.6z"/>
			<path class="st1" d="M78.2,126.8h2.4l5.1,12H83l-1.1-2.7h-5l-1.1,2.7h-2.7L78.2,126.8z M81,133.8l-1.6-3.9l-1.6,3.9H81z"/>
			<path class="st1" d="M89.9,137.6v1.2h-2.6v-12.4h2.6v4.6c0.6-0.9,1.5-1.5,2.8-1.5c2.1,0,4.1,1.7,4.1,4.7v0c0,3-2,4.7-4.1,4.7
				C91.4,139,90.5,138.4,89.9,137.6z M94.3,134.3L94.3,134.3c0-1.5-1-2.5-2.2-2.5c-1.2,0-2.2,1-2.2,2.5v0c0,1.5,1,2.5,2.2,2.5
				C93.3,136.8,94.3,135.8,94.3,134.3z"/>
			<path class="st1" d="M101.4,137.6v1.2h-2.6v-12.4h2.6v4.6c0.6-0.9,1.5-1.5,2.8-1.5c2.1,0,4.1,1.7,4.1,4.7v0c0,3-2,4.7-4.1,4.7
				C102.8,139,102,138.4,101.4,137.6z M105.8,134.3L105.8,134.3c0-1.5-1-2.5-2.2-2.5c-1.2,0-2.2,1-2.2,2.5v0c0,1.5,1,2.5,2.2,2.5
				C104.8,136.8,105.8,135.8,105.8,134.3z"/>
			<path class="st1" d="M110.2,135.6v-5.9h2.6v5.1c0,1.2,0.6,1.9,1.6,1.9c1,0,1.6-0.6,1.6-1.9v-5.1h2.6v9.1H116v-1.3
				c-0.6,0.8-1.4,1.5-2.7,1.5C111.3,139,110.2,137.7,110.2,135.6z"/>
			<path class="st1" d="M120.5,134.3L120.5,134.3c0-3.1,2-4.7,4.1-4.7c1.4,0,2.2,0.6,2.8,1.4v-4.5h2.6v12.4h-2.6v-1.3
				c-0.6,0.9-1.5,1.5-2.8,1.5C122.5,139,120.5,137.3,120.5,134.3z M127.5,134.3L127.5,134.3c0-1.5-1-2.5-2.2-2.5s-2.2,1-2.2,2.5v0
				c0,1.5,1,2.5,2.2,2.5S127.5,135.8,127.5,134.3z"/>
		</g>
	</g>
	<g>
		<path class="st23" d="M97.4,94.4C97.4,94.4,97.4,94.4,97.4,94.4c-0.3-0.4-0.6-0.7-1.1-1c0.4,0.4,0.8,0.9,1,1.2
			C97.4,94.5,97.4,94.5,97.4,94.4z"/>
		<path class="st23" d="M89.9,23.2c0.9,1.1,1.7,2.2,2.4,3.3C91.8,25,90.9,24,89.9,23.2z"/>
		<path class="st23" d="M98.7,98.8c0.1,0.3,0.1,0.5,0.2,0.8c-0.1-0.6-0.2-1-0.3-1.2C98.7,98.6,98.7,98.7,98.7,98.8z"/>
		<path class="st0" d="M64.9,49c0.3,0.2,0.6,0.5,0.6,0.9c0,0.3-0.1,0.6-0.4,0.8c1.4-0.4,2.4-1.1,2.5-1.4c0,0,0-0.1-0.1-0.2
			c-0.4-0.5-1.5-1.1-3.3-1.1C64.7,48.1,64.9,48.5,64.9,49z"/>
		<path class="st0" d="M61.2,48.4C60,48.9,59.4,49.6,59,50l0,0c0.3,0.2,1.1,0.6,2,0.8C60.1,50.1,60.6,49.1,61.2,48.4z"/>
		<polygon class="st0" points="64.1,50.9 64.1,50.9 64.1,50.9 		"/>
		<path class="st9" d="M75.1,71.5c-1.6,0-3.3-0.1-4.6-0.4c0,0.1,0,0.1,0,0.2c0.1,0.5,0.8,1,1.9,1.4c2.8,1.1,4,1,5.1,1
			c0.2,0,0.4,0,0.6,0c0.7,0,2-0.9,2.8-2c0.2-0.3,0.4-0.5,0.4-0.7c-0.5,0.1-1.1,0.2-1.7,0.3C79.5,71.3,77.4,71.5,75.1,71.5z"/>
		<path class="st9" d="M70.4,69.6c6.3-0.4,10.1-0.2,11.3,0.4c1.2-0.4,1.3-1,1.3-1.3c-4.2,1.1-12.6,0.4-12.6,0.4s-0.2-0.1-0.5-0.2
			c-0.3,0-0.5,0.1-0.6,0.2c0,0-0.1,0.1,0.1,0.6c0,0.2,0.2,0.3,0.5,0.4c0.1-0.2,0.2-0.3,0.2-0.3C70.2,69.7,70.3,69.6,70.4,69.6z"/>
		<path class="st9" d="M71.3,70.4c1.9,0.3,5.1,0.3,8.2,0c0.2,0,0.5-0.1,0.7-0.1C78.3,70.2,74.7,70.2,71.3,70.4z"/>
		<path class="st9" d="M70.5,70c0,0,8.5-0.5,10.7,0.1c0.2-0.1,0.4-0.1,0.6-0.2c-1.2-0.6-5-0.8-11.3-0.4c-0.1,0-0.2,0.1-0.3,0.1
			c0,0-0.1,0.1-0.2,0.3c0.1,0,0.3,0.1,0.4,0.1C70.4,70.1,70.5,70,70.5,70z"/>
		<path class="st9" d="M70.5,70c0,0-0.1,0.1-0.1,0.2c0.3,0.1,0.6,0.1,1,0.2c3.4-0.2,7-0.2,8.8,0c0.4-0.1,0.7-0.1,1-0.2
			C78.9,69.5,70.5,70,70.5,70z"/>
		<path class="st9" d="M83.1,68.7C83.1,68.7,83.1,68.7,83.1,68.7c-0.3,0-0.9,0.1-1.3,0.2C81.4,68.9,81,69,80.7,69
			c-0.8,0.1-2.9,0-5.1-0.1c-1.4-0.1-2.9-0.1-3.9-0.1c-0.5,0-1.2,0-1.7,0.1c0.3,0.1,0.5,0.2,0.5,0.2S78.9,69.8,83.1,68.7z"/>
		<path class="st0" d="M65.5,49.9c0-0.4-0.2-0.7-0.6-0.9c0,0.7-0.2,1.4-0.8,1.9c0,0,0,0,0,0c0.3-0.1,0.7-0.2,1-0.3
			C65.3,50.5,65.5,50.2,65.5,49.9z"/>
		<path class="st0" d="M64.3,51c0.3,0,0.6-0.1,0.8-0.3c-0.3,0.1-0.7,0.2-1,0.3C64.2,51,64.2,51,64.3,51z"/>
		<path class="st0" d="M64.9,49c-0.2-0.1-0.4-0.2-0.6-0.2c-0.6,0-1.1,0.5-1.1,1.1c0,0.5,0.4,0.9,0.9,1C64.7,50.5,65,49.7,64.9,49z"
			/>
		<path class="st0" d="M84.1,48c-0.7,0.2-1.2,0.5-1.4,0.8c-0.1,0.1-0.1,0.2-0.1,0.2c0.1,0.3,0.8,0.7,1.7,1.1
			C83.8,49.5,83.8,48.6,84.1,48z"/>
		<path class="st0" d="M88.3,49.8c0,0.1,0,0.1,0,0.2c0,0.4-0.2,0.7-0.5,0.8c1.5-0.1,3-0.7,3.4-1l0,0c-0.6-0.6-1.7-1.8-4-2
			C87.8,48.2,88.4,49.1,88.3,49.8z"/>
		<path class="st0" d="M88.3,50c0-0.1,0-0.1,0-0.2c-0.1,0.4-0.4,0.8-1.1,1c0.2,0,0.4,0,0.7,0C88.1,50.6,88.3,50.3,88.3,50z"/>
		<path class="st0" d="M87.2,50.8c-0.1,0-0.2,0.1-0.4,0.1c0,0,0,0,0,0c0.1,0,0.3,0.1,0.4,0.1c0.2,0,0.5-0.1,0.7-0.2
			C87.6,50.8,87.4,50.8,87.2,50.8z"/>
		<path class="st0" d="M87.2,50.8c0.7-0.3,1-0.6,1.1-1c-0.1-0.5-0.5-0.9-1.1-0.9c-0.6,0-1.1,0.5-1.1,1.1c0,0.3,0.2,0.6,0.4,0.8
			c0.1,0,0.2,0,0.4,0.1C87,50.8,87.1,50.8,87.2,50.8z"/>
		<path class="st0" d="M87.2,50.8c-0.1,0-0.2,0-0.3,0c-0.1,0-0.3,0-0.4-0.1c0.1,0.1,0.2,0.1,0.3,0.2c0,0,0,0,0,0
			C87,50.9,87.1,50.9,87.2,50.8z"/>
		<g>
			<path class="st8" d="M73.4,55.1c-0.2,0.5-0.5,1.1-0.8,1.7c-0.6,1.2-1.4,2.9-1.1,3.5c0.1,0.2,0.3,0.2,0.9,0
				c0.3-0.1,0.6-0.2,0.9-0.2c0.1-0.5,0.5-2.1,0.8-4c0.1-0.8,0.2-2.4,0.2-4C74,53.2,73.7,54.4,73.4,55.1z"/>
			<polygon class="st8" points="87.2,67.6 87.2,67.6 87.2,67.6 			"/>
			<path class="st8" d="M83.9,68.5c0,1-0.6,1.7-1.8,2.2c0,0.5-0.4,1.1-0.7,1.5c-0.7,0.9-1.8,1.8-2.8,2.1c-0.3,1.2-0.2,2.1,0.2,2.9
				c0.6,1,1.9,1.7,3.5,1.8c2.1,0.2,3.6-0.5,4.7-2.4c0.5-0.8,0.9-1.9,1.2-3.2c1.1-4.3-1.2-6-1.2-6c-0.9,0.3-2.1,0.5-3.3,0.9
				C83.9,68.5,83.9,68.5,83.9,68.5z"/>
			<path class="st8" d="M92.3,26.5c-0.8-1.1-1.6-2.2-2.4-3.3c-3.1-2.2-7.7-1.6-7.7-1.6c-1.8,1.4-8.8,0.9-16,1.1
				c-2,0.1-8-0.6-11.1,1.3c-3.1,2-4,6.2-4.2,7.8C50.2,39.2,54,45,54,45s0.5,2.6,0.6,4.2c0.1,4.9,1.3,11.3,3.7,16.5
				c3,6.5,6,4.1,7.2,2.6c-2.9,0.3-4-3.4-4-3.4c3.7,2.7,4.7,1.9,8.9-0.2c2.5-1.2,3.5-1.5,3.9-2.4c0,0,0-0.2,0.1-0.3
				c0-0.1-0.1-0.1-0.1-0.2c-0.2-0.3-0.4-0.6-0.6-0.8c-0.1-0.1-0.4-0.1-0.9,0.1c-0.5,0.2-1.4,0.5-1.9-0.3c-0.6-0.9,0.2-2.6,1.1-4.3
				c0.3-0.6,0.6-1.1,0.8-1.6c0.7-1.7,1.4-5.9,1.5-6.6c0-0.8-0.1-1.4-0.1-1.4c0-0.2,0.2-0.4,0.4-0.4c0.3,0,0.4,0.2,0.4,0.4
				c0,0.1,0,0.6,0.1,1.3c0,0.1,0,0.1,0,0.2c0,0,0,0,0,0c0.1,2.2,0.2,6.3-0.1,7.9c-0.3,2-0.7,3.8-0.8,4.1c0,0,0,0,0.1,0
				c0.3,0.3,0.5,0.6,0.7,0.9c0.5,0.6,0.9,1.3,1.5,1.4c0.3,0,0.7-0.6,1-1.2c0.3-0.7,0.7-1.3,1.2-1.4c0.3-0.1,0.6,0,0.9,0.1
				c0.3,0.1,0.6,0.1,0.8,0c0.1-0.1,0.3-0.4,0.1-1.7c-0.3-2.3-1.5-4.2-2.1-5.4c-0.4-0.7-0.5-1-0.5-1.2c0-0.2,0.2-0.4,0.4-0.4
				c0.2,0,0.4,0.2,0.4,0.4c0,0.1,0.2,0.4,0.4,0.8c0.7,1.2,1.9,3.3,2.2,5.7c0.2,1.3,0.1,2-0.4,2.4c-0.4,0.4-1,0.3-1.5,0.2
				c-0.2,0-0.5-0.1-0.6-0.1c-0.2,0-0.5,0.6-0.7,1c0,0,0,0,0,0c0.5,0.7,1.3,1.4,1.8,1.7c1.4,0.9,3.1,1.2,5,1.8c1.9,0.6,4.4,0,6-1.9
				c-0.6,2.8-1.9,3.5-3.7,4.1c3.6,0.4,4.9,3.9,6.6-10.1c0.3-2.2,1.2-8.9,1.4-11.4c0.1-2.5-0.8-11-1.2-12.9
				C93.5,31.2,93.6,30.5,92.3,26.5z M68.4,49.6c-0.4,1-2.8,2.1-5,2.3c-0.1,0-0.3,0-0.5,0c-1.8,0-4.5-0.8-4.9-1.6
				C58,50,58,49.8,58.2,49.6l0.2-0.2c0.6-0.7,2.2-2.3,5.2-2.4c2.6-0.1,4.1,0.8,4.7,1.5C68.5,48.9,68.5,49.3,68.4,49.6z M68.9,46.1
				c-1.9-0.6-3.9-0.9-5.9-0.8c-2.9,0.1-6.5,2.6-6.8,1.5s0.3-1.5,2.2-2.9S65,41.5,69,43.3C73.1,45.2,70.8,46.7,68.9,46.1z M92.1,50.1
				c-0.4,0.8-3.1,1.6-4.9,1.6c-0.2,0-0.3,0-0.5,0c-2.1-0.2-4.6-1.3-5-2.3c-0.1-0.3-0.1-0.7,0.2-1c0.5-0.7,2.1-1.6,4.7-1.5
				c3,0.1,4.6,1.7,5.2,2.4l0.2,0.2C92.2,49.6,92.3,49.8,92.1,50.1z M94.1,46.5c-0.4,1.1-4-1.4-6.8-1.5c-2-0.1-4,0.2-5.9,0.8
				c-1.9,0.6-4.3-0.9-0.2-2.8c4.1-1.8,8.8-0.8,10.7,0.6S94.5,45.4,94.1,46.5z"/>
			<path class="st8" d="M65.6,68.2c-0.5,1.1-1.2,3.3-0.8,6.3c0.3,2.3,1.9,3.7,3.8,4.4c1.7,0.6,3.7,0.5,5.3-0.1
				c0.7-0.3,1.1-0.6,1.3-1c0.7-1.3-0.4-3-0.9-3.6c-0.6-0.2-1.3-0.4-2.2-0.7c-1.4-0.5-2.2-1.2-2.4-2c0-0.2,0-0.4,0-0.6
				c-0.6-0.2-1-0.6-1.1-1c-0.1-0.4-0.2-0.9,0.1-1.3C67.7,68.3,66.5,68.1,65.6,68.2z"/>
			<path class="st8" d="M47.9,43.1L47.9,43.1c-0.3,0-0.5,0.3-0.7,0.8c-0.8,2.4,2.1,8.3,4.3,11.9c0-2.3-0.2-5.7-0.4-8.6
				C50.3,45.6,48.8,43.1,47.9,43.1z"/>
			<path class="st8" d="M99,41.6c-0.1-0.2-0.2-0.2-0.2-0.2c-1.8,0-2.3,4.6-2.4,6.2l0,0c0,0.2,0,0.3-0.1,0.5c0.1,2.4,0.2,5,0.3,7.2
				C98.1,51.1,99.9,43.3,99,41.6z"/>
			<path class="st8" d="M89.9,92.7c-1.1-2.9-0.9-10-0.8-11.9c-6,3.9-16.8,6.6-25.3,1.1c-0.4-0.3-0.8-0.6-1.3-0.9
				c0.5,2.9,1.6,9.7,1,12.5l-0.4,0.3l-0.7,0.6l-0.2,0.2c-0.1,1.4-0.1,3.4,0.2,5.1c0.7,1.1,1.6,2.2,2.4,3.1c0.7,0.8,1.5,1.6,2.3,2.5
				c0.2,0.2,0.3,0.4,0.5,0.5c3.7,3.8,5.4,5.6,5.7,6.6c0.4,0.1,1.2,0.3,2.7,0.9c2.1,0.8,4.3,1.8,5.9,3.7c0.1-0.5,0.3-1.1,0.8-1.8
				c0.4-0.8,1.1-2.2,1.8-3.6c0.9-2.1,2-4.4,2.9-5.9c1.5-2.5,3.1-7.3,2.8-9.5c-0.1-1,0.2-2,0.6-2.9c0-0.1,0.1-0.2,0.1-0.3l-0.8-0.5
				H89.9z"/>
		</g>
		<g>
			<path class="st11" d="M56.9,98.6c-0.1-0.5-0.1-0.9-0.1-1c0-0.1-0.1-0.1-0.2-0.1c0,0.2-0.1,0.3-0.2,0.4c-0.1,0-6.7,3-9.9,5.5
				c-2.3,1.8-3.9,2.6-6.1,3.6c-1,0.5-3.5,2-4.1,2.4c-0.1,0-0.1,0.1-0.2,0.1c-0.1,0-0.2-0.1-0.3-0.1c-3.5,2.4-6.5,4.6-6.5,4.6
				c-0.4,0.3,0,3.3,0.9,7.4h7.2h19.9h1.7h1.5c-0.7-4.1-1.2-7.2-1.4-8.1C57.8,106.1,57.1,100.8,56.9,98.6z"/>
			<path class="st11" d="M120.6,105.4c0,0,0,0.1,0,0.1c-0.1,0.1-0.2,0.2-0.4,0.2c-0.1,0-0.1,0-0.2-0.1c-0.4-0.2-5.6-2.2-6.9-2.5
				c-2.8-0.9-6.2-2.4-8.6-3.2c-2.7-1-5.1-1.8-6-2.1c0,0.2,0.1,0.5,0.2,0.7c0.1,0.2,0.2,0.6,0.3,1.2c0,0,0,0.1,0,0.1
				c0.4,1.6,0.6,2.9,0.9,4c0.4,2.1,0.7,3.6,1.5,5.3c1.3,2.8,2,7.4,1.3,8.4c-0.1,0.2-0.3,0.3-0.5,0.3c-0.4,0.1-0.7-0.4-1.4-1.2
				c-0.7-0.9-1.7-2.2-3.3-3.4c0,0.1,0,0.3-0.1,0.4c-0.5,2.5-0.9,5.1-1.3,7.7h22.6h0.7C120.7,113.1,121.2,105.8,120.6,105.4z"/>
		</g>
		<g>
			<path class="st10" d="M60.1,96.2c0.5,1,1.3,2.3,2.2,3.5c-0.3-1.7-0.2-3.7-0.2-5.1c0-1,0.1-1.6,0.1-1.6c-0.1,0-0.2,0-0.2,0
				c0.1,0.2,0.2,0.4,0.2,0.7c-0.1,0.4-0.5,0.5-1.1,0.6c-0.5,0.1-1.2,0.2-1.4,0.5c-0.1,0.2,0,0.5,0.1,0.8
				C59.9,95.7,60,95.9,60.1,96.2z"/>
			<path class="st10" d="M61.8,116.2c-0.4-1.7-0.8-4.1-1.3-6.3c-0.6-3.1-1.1-6.3-1.7-7.7c-0.2-0.6-0.5-1.2-0.8-1.8
				c-0.5-1-1-1.9-1.2-2.8c0.1,0.4,0.1,0.8,0.1,1.1c0.2,2.2,1,7.5,2.3,14.7c0.2,0.9,0.7,4,1.4,8.1h2.3c-0.1-0.4-0.1-0.8-0.2-1.2
				C62.4,119,62.2,117.6,61.8,116.2z"/>
			<path class="st10" d="M75.7,114.3c-1.4-0.5-2.1-0.7-2.4-0.8c-0.2,0.3-0.7,0.3-0.9,0.3c-0.5,0-0.9,0-1.4,0.8
				c-0.5,0.8-1.6,2-2.7,3.2c-0.4,0.5-0.9,0.9-1.3,1.4c-0.7,0.8-1.3,1.5-1.8,2.2h7h6.7h0.6h0.1c-0.9-2.3-2.5-3.3-5-3.6
				c-3.1-0.3-4.4-1.4-4.4-1.4c-0.2-0.2-0.2-0.4,0-0.6c0.2-0.2,0.5-0.2,0.6,0c0,0,1.1,1,3.9,1.2c3,0.3,4.9,1.7,5.9,4.5h0.7h0h1.9
				c-0.3-1-0.7-2-1.2-2.7C80.3,116.2,78,115.1,75.7,114.3z"/>
			<path class="st10" d="M94.7,111.6l-5.1-2.3c-0.3,0-1.5,0.2-2.7,1.7c-2.8,3.3-4.3,5.9-4.2,7.3c0.5,0.9,1,1.9,1.4,3.1h7.2H96
				c0.4-2.6,0.9-5.2,1.3-7.7c0-0.1,0-0.3,0.1-0.4c-0.5-0.4-1.1-0.8-1.7-1.1C95.4,112,95.1,111.8,94.7,111.6z"/>
			<path class="st10" d="M67.1,105.4c-0.8-0.9-1.6-1.8-2.3-2.5c0.4,0.4,0.8,0.9,1.1,1.3C66.2,104.5,66.6,104.9,67.1,105.4z"/>
			<path class="st10" d="M67.5,117.2c1.1-1.2,2.1-2.3,2.6-3c0.7-1.3,1.6-1.3,2.2-1.3c0.1,0,0.2,0,0.2,0c0,0,0-0.1,0-0.1
				c-0.4-0.8-3.7-4.3-5.6-6.2c-0.6-0.7-1.3-1.3-1.8-1.8c-2.2-2.4-4.6-5.7-5.8-8c-0.2-0.3-0.3-0.6-0.4-0.8c-0.3-0.6-0.3-1.2-0.1-1.6
				c0,0,0-0.1,0.1-0.1c-0.6,0.3-1,0.8-1.3,1.2c-0.6,1.1,0.2,2.8,1.1,4.6c0.3,0.6,0.6,1.2,0.8,1.8c0.6,1.5,1.2,4.6,1.8,7.9
				c0.4,2.2,0.8,4.5,1.2,6.2c0.4,1.5,0.6,2.9,0.8,4c0.1,0.5,0.2,1,0.2,1.4h0.3c0.4-0.8,1.1-1.7,2-2.6
				C66.5,118.3,67,117.7,67.5,117.2z"/>
			<path class="st10" d="M100.5,109.5c-0.8-1.8-1.1-3.4-1.6-5.5c0-0.2-0.1-0.3-0.1-0.5c-0.2-0.8-0.4-1.8-0.6-2.8
				c-0.1-0.5-0.2-1-0.4-1.6c-0.8-3-0.7-4-0.5-4.5c-0.2-0.3-0.6-0.7-1-1.2c-0.6-0.4-1.3-0.7-2.2-0.8c-0.4-0.1-0.7-0.2-1-0.3
				c-0.3-0.1-0.5-0.2-0.6-0.3c-0.3,0.3-0.6,0.9-0.9,1.5c-0.4,0.8-0.7,1.7-0.6,2.6c0.3,2.5-1.4,7.4-2.9,10.1c-0.7,1.2-1.6,3-2.4,4.8
				c0.2-0.2,0.3-0.4,0.5-0.6c1.7-2,3.4-2,3.5-2c0.1,0,0.1,0,0.2,0l5.2,2.4c0.4,0.2,0.7,0.3,1,0.5c0.1,0.1,0.3,0.1,0.4,0.2
				c0.4,0.2,0.8,0.5,1.1,0.7c1.9,1.3,3.1,2.9,3.8,3.8c0.2,0.2,0.4,0.4,0.5,0.6C102.1,115.5,101.7,112.1,100.5,109.5z"/>
		</g>
		<g>
			<path class="st5" d="M69,43.3c-4.1-1.8-8.8-0.8-10.7,0.6s-2.6,1.8-2.2,2.9s4-1.4,6.8-1.5c2-0.1,4,0.2,5.9,0.8
				C70.8,46.7,73.1,45.2,69,43.3z"/>
			<path class="st5" d="M63.6,47.1c-3,0.1-4.6,1.7-5.2,2.4l-0.2,0.2C58,49.8,58,50,58.1,50.3c0.4,0.8,3.1,1.6,4.9,1.6
				c0.2,0,0.3,0,0.5,0c2.1-0.2,4.6-1.3,5-2.3c0.1-0.3,0.1-0.7-0.2-1C67.7,47.8,66.2,47,63.6,47.1z M61,50.8c-0.9-0.2-1.7-0.5-2-0.8
				l0,0c0.4-0.4,1.1-1.1,2.2-1.6C60.6,49.1,60.1,50.1,61,50.8z M65.1,50.7c-0.2,0.2-0.5,0.3-0.8,0.3c-0.1,0-0.2,0-0.2,0c0,0,0,0,0,0
				c0,0,0,0,0,0c-0.5-0.1-0.9-0.5-0.9-1c0-0.6,0.5-1.1,1.1-1.1c0.2,0,0.4,0.1,0.6,0.2c0-0.5-0.2-0.9-0.6-1.1
				c1.7,0.1,2.9,0.6,3.3,1.1c0.1,0.1,0.1,0.2,0.1,0.2C67.5,49.6,66.5,50.3,65.1,50.7z"/>
			<path class="st5" d="M94.1,46.5c0.4-1.1-0.3-1.5-2.2-2.9s-6.7-2.4-10.7-0.6c-4.1,1.8-1.8,3.4,0.2,2.8c1.9-0.6,3.9-0.9,5.9-0.8
				C90.2,45.1,93.8,47.6,94.1,46.5z"/>
			<path class="st5" d="M92.1,50.1c0.1-0.2,0.1-0.5-0.1-0.7l-0.2-0.2c-0.6-0.7-2.2-2.3-5.2-2.4c-2.6-0.1-4.1,0.7-4.7,1.5
				c-0.2,0.3-0.3,0.7-0.2,1c0.4,1,2.8,2.1,5,2.3c0.1,0,0.3,0,0.5,0C89,51.7,91.8,50.9,92.1,50.1z M82.6,49.1c0,0,0-0.1,0.1-0.2
				c0.2-0.3,0.7-0.6,1.4-0.8c-0.3,0.6-0.3,1.5,0.2,2.2C83.4,49.8,82.7,49.3,82.6,49.1z M87.8,50.8c-0.2,0.1-0.4,0.2-0.7,0.2
				c-0.1,0-0.3,0-0.4-0.1c-0.1,0-0.2-0.1-0.3-0.2c-0.3-0.2-0.4-0.5-0.4-0.8c0-0.6,0.5-1.1,1.1-1.1c0.6,0,1,0.4,1.1,0.9
				c0.1-0.7-0.5-1.6-1-2c2.2,0.3,3.4,1.4,4,2l0,0C90.8,50.2,89.3,50.7,87.8,50.8z"/>
			<path class="st5" d="M74.6,116.9c-2.8-0.2-3.9-1.2-3.9-1.2c-0.2-0.2-0.5-0.1-0.6,0c-0.2,0.2-0.1,0.5,0,0.6c0.1,0,1.3,1.1,4.4,1.4
				c2.6,0.2,4.1,1.3,5,3.6h1C79.5,118.6,77.6,117.2,74.6,116.9z"/>
			<path class="st5" d="M56,97.2c-0.1,0-6.5,3.3-10,5.6c-2.3,1.5-3.8,2.5-5.9,3.5c-1,0.5-3.5,2-4.1,2.4c-0.2,0.1-0.3,0.4-0.1,0.6
				c0,0,0,0,0.1,0.1c0.1,0.1,0.2,0.1,0.3,0.1c0.1,0,0.1,0,0.2-0.1c0.6-0.4,3-1.9,4.1-2.4c2.2-1,3.8-1.8,6.1-3.6
				c3.3-2.5,9.9-5.5,9.9-5.5c0.1-0.1,0.2-0.2,0.2-0.4c0-0.1,0-0.1-0.1-0.2C56.4,97.1,56.2,97.1,56,97.2z"/>
			<path class="st5" d="M120.4,104.9c-0.4-0.2-5.6-2.2-7-2.6c-2.7-0.8-6.3-2.4-8.6-3.2c-3.4-1.2-6.2-2.1-6.2-2.1
				c-0.1-0.1-0.2-0.1-0.3-0.1c-0.3-1.6-0.1-2,0-2.1c0.1-0.3,0.1-0.6-0.1-0.9c-0.7-1-2-1.8-3.8-2.1c-0.4-0.1-0.6-0.2-0.9-0.2
				c-0.3-0.1-0.4-0.2-0.5-0.2c0-0.1-0.1-0.2-0.2-0.3c-0.2-0.1-0.4-0.1-0.6,0.1c-0.1,0.1-0.7,0.8-1.3,1.9c0-0.1,0-0.1-0.1-0.2
				c-1.4-2.5-1-12.4-1-12.5c0,0,0-0.1,0-0.1c1.3-1,2.3-2,2.9-2.9c3.3-5.1,4-14.4,4-16.6c0-0.6,0-1.7-0.1-3.2
				c1.5-3.3,4.2-13.9,3-16.3c-0.3-0.6-0.7-0.6-1-0.6c-1.4,0-2.2,1.4-2.6,2.9c0-0.3,0-0.6,0-0.8c-0.1-4.2-1-9.6-1-9.6
				c-0.1-2.9,0-3.7-1.8-11.9c-1.1-5.1-0.4-7.1-7.3-7C86.1,11.4,81.7,9.4,79,9c-7.2-1-23.2,0.7-27.2,9c-4,8.3-1.8,20.8-1.2,23.2
				c0.2,0.7,0.3,2.2,0.5,4c-0.9-1.4-2-2.8-2.9-2.9c-0.5-0.1-1.2,0.1-1.7,1.3c-1.1,3.1,2.9,10.3,5.1,13.9c0.1,3.8,1.3,15.6,10,22.8
				c0.9,4.3,2,12.8,1,13.7c-0.1,0.1-0.2,0.3-0.1,0.5l0.7-0.6l0.4-0.3c0.6-2.8-0.5-9.6-1-12.5c0.4,0.3,0.8,0.6,1.3,0.9
				c8.5,5.5,19.3,2.8,25.3-1.1c-0.1,1.9-0.2,9,0.8,11.9h0.2l0.8,0.5c0,0.1-0.1,0.2-0.1,0.3c-0.4,0.9-0.7,1.9-0.6,2.9
				c0.3,2.3-1.3,7-2.8,9.5c-0.9,1.5-2,3.8-2.9,5.9c-0.7,1.5-1.3,2.9-1.8,3.6c-0.4,0.7-0.6,1.3-0.8,1.8c-1.6-2-3.8-3-5.9-3.7
				c-1.5-0.6-2.3-0.8-2.7-0.9c-0.4-1-2-2.8-5.7-6.6c-0.2-0.2-0.4-0.4-0.5-0.5c-0.4-0.5-0.9-0.9-1.2-1.3c-0.4-0.4-0.8-0.8-1.1-1.3
				c-0.8-1-1.7-2.1-2.4-3.1c-0.9-1.3-1.7-2.5-2.2-3.5c-0.1-0.2-0.2-0.5-0.3-0.7c-0.1-0.2-0.2-0.6-0.1-0.8c0.2-0.3,1-0.4,1.4-0.5
				c0.5-0.1,1-0.1,1.1-0.6c0.1-0.3,0-0.5-0.2-0.7c-0.1-0.1-0.2-0.3-0.4-0.3c-1.1-0.4-3.9,0.8-4.7,2.3c-0.4,0.8-0.4,1.6-0.1,2.6
				c0.3,0.9,0.7,1.9,1.2,2.8c0.3,0.6,0.6,1.2,0.8,1.8c0.6,1.4,1.2,4.6,1.7,7.7c0.4,2.2,0.8,4.6,1.3,6.3c0.4,1.4,0.6,2.8,0.8,4
				c0.1,0.5,0.1,0.9,0.2,1.2h0.9c-0.1-0.4-0.2-0.9-0.2-1.4c-0.2-1.2-0.4-2.6-0.8-4c-0.4-1.7-0.8-4-1.2-6.2c-0.6-3.3-1.2-6.4-1.8-7.9
				c-0.3-0.6-0.6-1.2-0.8-1.8c-0.9-1.8-1.7-3.5-1.1-4.6c0.2-0.4,0.7-0.9,1.3-1.2c0,0-0.1,0.1-0.1,0.1c-0.2,0.4-0.2,1,0.1,1.6
				c0.1,0.3,0.3,0.5,0.4,0.8c1.2,2.3,3.5,5.7,5.8,8c0.5,0.5,1.1,1.2,1.8,1.8c1.8,1.9,5.2,5.3,5.6,6.2c0,0,0,0.1,0,0.1
				c-0.1,0-0.1,0-0.2,0c-0.6,0-1.5,0-2.2,1.3c-0.4,0.7-1.5,1.9-2.6,3c-0.5,0.5-1,1.1-1.5,1.6c-0.8,0.9-1.5,1.8-2,2.6h1.1
				c0.4-0.7,1.1-1.4,1.8-2.2c0.4-0.5,0.9-0.9,1.3-1.4c1.1-1.2,2.2-2.4,2.7-3.2c0.5-0.8,1-0.8,1.4-0.8c0.3,0,0.7,0,0.9-0.3
				c0.4,0.1,1.1,0.3,2.4,0.8c2.3,0.8,4.6,2,6.2,4.4c0.5,0.8,0.9,1.7,1.2,2.7h1c-0.4-1.2-0.8-2.2-1.4-3.1c-0.1-1.4,1.4-4,4.2-7.3
				c1.2-1.4,2.4-1.6,2.7-1.7l5.1,2.3c0.3,0.2,0.7,0.3,1,0.5c0.6,0.4,1.2,0.7,1.7,1.1c1.6,1.2,2.6,2.5,3.3,3.4c0.6,0.8,1,1.2,1.4,1.2
				c0.2,0,0.4-0.1,0.5-0.3c0.7-1,0-5.6-1.3-8.4c-0.8-1.7-1.1-3.2-1.5-5.3c-0.2-1.2-0.5-2.5-0.9-4c0,0,0-0.1,0-0.1
				c-0.1-0.3-0.1-0.5-0.2-0.8c0-0.1-0.1-0.2-0.1-0.4c-0.1-0.2-0.1-0.5-0.2-0.7c0.9,0.3,3.3,1.1,6,2.1c2.4,0.8,5.9,2.4,8.6,3.2
				c1.3,0.4,6.5,2.4,6.9,2.5c0.1,0,0.1,0.1,0.2,0.1c0.1,0,0.3-0.1,0.4-0.2c0,0,0-0.1,0-0.1C120.6,105.2,120.6,105,120.4,104.9z
				 M96.4,47.6L96.4,47.6c0-1.7,0.5-6.3,2.4-6.3c0,0,0.1,0,0.2,0.2c0.9,1.7-0.9,9.6-2.3,13.8c-0.1-2.2-0.2-4.8-0.3-7.2
				C96.4,48,96.4,47.8,96.4,47.6z M47.2,43.9c0.2-0.5,0.4-0.8,0.6-0.8l0,0c1,0.1,2.5,2.5,3.3,4.1c0.2,3,0.3,6.3,0.4,8.6
				C49.3,52.1,46.4,46.2,47.2,43.9z M75.1,77.8c-0.2,0.4-0.6,0.8-1.3,1c-1.6,0.6-3.5,0.6-5.3,0.1c-1.9-0.6-3.5-2-3.8-4.4
				c-0.4-3,0.3-5.2,0.8-6.3c0.9-0.1,2.1,0.1,3,0.3c-0.3,0.4-0.2,0.8-0.1,1.3c0.1,0.4,0.5,0.7,1.1,1c0,0.2,0,0.4,0,0.6
				c0.2,0.8,1,1.5,2.4,2c0.9,0.3,1.6,0.6,2.2,0.7C74.7,74.8,75.9,76.5,75.1,77.8z M69.3,69.1c0.1-0.1,0.3-0.1,0.6-0.2
				c0.5-0.1,1.2-0.1,1.7-0.1c1,0,2.5,0.1,3.9,0.1c2.2,0.1,4.3,0.2,5.1,0.1c0.3,0,0.7-0.1,1.1-0.2c0.4-0.1,1.1-0.2,1.3-0.2
				c0,0,0,0,0,0c0,0.3-0.2,0.9-1.3,1.3c-0.2,0.1-0.3,0.1-0.6,0.2c-0.3,0.1-0.6,0.1-1,0.2c-0.2,0-0.4,0.1-0.7,0.1
				c-3.1,0.3-6.2,0.3-8.2,0c-0.4-0.1-0.7-0.1-1-0.2c-0.2,0-0.3-0.1-0.4-0.1c-0.3-0.1-0.5-0.3-0.5-0.4C69.3,69.2,69.3,69.1,69.3,69.1
				z M77.5,73.7c-1.1,0-2.3,0.1-5.1-1c-1.1-0.4-1.7-0.9-1.9-1.4c0-0.1,0-0.1,0-0.2c1.3,0.3,3,0.4,4.6,0.4c2.4,0,4.4-0.2,4.5-0.2
				c0.6-0.1,1.2-0.2,1.7-0.3c-0.1,0.2-0.2,0.4-0.4,0.7c-0.8,1-2.1,2-2.8,2C77.8,73.7,77.6,73.7,77.5,73.7z M88.4,73.5
				c-0.3,1.3-0.7,2.4-1.2,3.2c-1.1,1.9-2.6,2.6-4.7,2.4c-1.7-0.2-2.9-0.8-3.5-1.8c-0.5-0.8-0.6-1.8-0.2-2.9c1-0.3,2.1-1.3,2.8-2.1
				c0.3-0.4,0.7-1,0.7-1.5c1.2-0.5,1.8-1.2,1.8-2.2c0,0,0-0.1,0-0.1c1.3-0.4,2.4-0.6,3.3-0.9C87.2,67.6,89.5,69.2,88.4,73.5z
				 M87.2,67.6c1.9-0.5,3.1-1.3,3.7-4.1c-1.6,1.9-4.1,2.6-6,1.9c-1.9-0.6-3.6-0.9-5-1.8c-0.5-0.3-1.3-1.1-1.8-1.7c0,0,0,0,0,0
				c0.2-0.3,0.5-0.9,0.7-1c0.1,0,0.4,0,0.6,0.1c0.5,0.1,1.1,0.2,1.5-0.2c0.4-0.4,0.5-1.1,0.4-2.4c-0.3-2.4-1.5-4.5-2.2-5.7
				c-0.2-0.3-0.4-0.7-0.4-0.8c0-0.2-0.2-0.4-0.4-0.4c-0.2,0-0.4,0.2-0.4,0.4c0,0.2,0.1,0.5,0.5,1.2c0.7,1.2,1.8,3.2,2.1,5.4
				c0.2,1.3,0,1.6-0.1,1.7c-0.1,0.1-0.5,0-0.8,0c-0.3-0.1-0.6-0.1-0.9-0.1c-0.6,0.1-0.9,0.7-1.2,1.4c-0.3,0.5-0.6,1.2-1,1.2
				c-0.6,0-1-0.7-1.5-1.4c-0.2-0.3-0.5-0.7-0.7-0.9c0,0,0,0-0.1,0c0.1-0.3,0.5-2.1,0.8-4.1c0.3-1.6,0.2-5.7,0.1-7.9c0,0,0,0,0,0
				c0-0.1,0-0.1,0-0.2c0-0.7-0.1-1.2-0.1-1.3c0-0.2-0.2-0.4-0.4-0.4c-0.2,0-0.4,0.2-0.4,0.4c0,0,0,0.6,0.1,1.4
				c-0.1,0.6-0.8,4.9-1.5,6.6c-0.2,0.5-0.5,1.1-0.8,1.6c-0.8,1.7-1.6,3.3-1.1,4.3c0.5,0.8,1.3,0.5,1.9,0.3c0.5-0.2,0.7-0.2,0.9-0.1
				c0.2,0.2,0.4,0.5,0.6,0.8c0,0.1,0.1,0.1,0.1,0.2c0,0.1-0.1,0.3-0.1,0.3c-0.4,0.9-1.4,1.2-3.9,2.4c-4.1,2.1-5.2,2.8-8.9,0.2
				c0,0,1.1,3.7,4,3.4c-1.2,1.5-4.2,3.9-7.2-2.6c-2.4-5.2-3.7-11.6-3.7-16.5c0-1.6-0.6-4.2-0.6-4.2s-3.8-5.8-3.1-13
				c0.2-1.6,1.1-5.8,4.2-7.8c3.1-2,9.1-1.3,11.1-1.3c7.1-0.2,14.1,0.3,16-1.1c0,0,4.6-0.6,7.7,1.6c1.1,0.7,2,1.8,2.4,3.3
				c1.3,4,1.2,4.7,1.6,6.7c0.4,1.9,1.4,10.4,1.2,12.9c-0.1,2.5-1.1,9.1-1.4,11.4C92.1,71.5,90.8,68,87.2,67.6z M74.1,56.1
				c-0.3,1.8-0.7,3.5-0.8,4c-0.3,0-0.6,0.1-0.9,0.2c-0.6,0.2-0.8,0.2-0.9,0c-0.3-0.5,0.5-2.2,1.1-3.5c0.3-0.6,0.6-1.2,0.8-1.7
				c0.3-0.7,0.6-1.9,0.8-3C74.3,53.7,74.2,55.3,74.1,56.1z M98.9,103.5c0,0.2,0.1,0.3,0.1,0.5c0.4,2.2,0.7,3.7,1.6,5.5
				c1.2,2.6,1.6,6.1,1.4,7.2c-0.1-0.2-0.3-0.4-0.5-0.6c-0.7-0.9-2-2.4-3.8-3.8c-0.3-0.2-0.7-0.5-1.1-0.7c-0.1-0.1-0.3-0.1-0.4-0.2
				c-0.3-0.2-0.7-0.4-1-0.5l-5.2-2.4c-0.1,0-0.1,0-0.2,0c-0.1,0-1.8,0-3.5,2c-0.2,0.2-0.3,0.4-0.5,0.6c0.8-1.7,1.7-3.5,2.4-4.8
				c1.6-2.6,3.2-7.6,2.9-10.1c-0.1-0.9,0.2-1.8,0.6-2.6c0.3-0.6,0.7-1.2,0.9-1.5c0.2,0.1,0.4,0.2,0.6,0.3c0.2,0.1,0.6,0.2,1,0.3
				c0.9,0.2,1.6,0.5,2.2,0.8c0.5,0.3,0.8,0.6,1,0.9c0,0,0,0.1,0,0.1c0,0.1,0,0.1-0.1,0.2c-0.2,0.5-0.3,1.4,0.5,4.5
				c0.1,0.6,0.3,1.1,0.4,1.6C98.5,101.7,98.7,102.6,98.9,103.5z"/>
		</g>
		<g>
			<path class="st0" d="M64.1,121.4h-0.3c0,0.2,0.1,0.3,0.1,0.5C63.9,121.7,64,121.5,64.1,121.4z"/>
		</g>
	</g>
</g>
</svg>
