<svg xmlns="http://www.w3.org/2000/svg" viewBox="0 0 150 150"><defs><style>.cls-1{fill:#fff;}.cls-2,.cls-3{fill:#f1748a;}.cls-3{font-size:17px;font-family:Gotham Bold, Gotham;font-weight:700;}.cls-4{letter-spacing:-0.03em;}.cls-5{letter-spacing:0em;}.cls-6{letter-spacing:-0.02em;}.cls-7{fill:none;}.cls-8{fill:#853c2b;}.cls-9{fill:#ffd1c2;}.cls-10{fill:#f78271;}.cls-11{fill:#1c2021;}</style></defs><g id="Layer_1" data-name="Layer 1"><rect class="cls-1" x="1.2" y="1.2" width="147.6" height="147.6" rx="13.2"/><path class="cls-2" d="M135.6,2.4a12,12,0,0,1,12,12V135.6a12,12,0,0,1-12,12H14.4a12,12,0,0,1-12-12V14.4a12,12,0,0,1,12-12H135.6m0-2.4H14.4A14.44,14.44,0,0,0,0,14.4V135.6A14.44,14.44,0,0,0,14.4,150H135.6A14.44,14.44,0,0,0,150,135.6V14.4A14.44,14.44,0,0,0,135.6,0Z"/><text class="cls-3" transform="translate(7.09 138.82)">Carmen Ál<tspan class="cls-4" x="90.54" y="0">v</tspan><tspan class="cls-5" x="100.32" y="0">a</tspan><tspan class="cls-6" x="110.38" y="0">re</tspan><tspan x="127.4" y="0">z</tspan></text><path class="cls-7" d="M96.48,64a2.47,2.47,0,0,1,1.4-1,1.81,1.81,0,0,1,1.16.12,4.47,4.47,0,0,0,.21-5.23,5.7,5.7,0,0,0-2.72-2.06C96.55,58.56,96.52,61.59,96.48,64Z"/><path class="cls-8" d="M73.1,14.16c-2.84-.06-6.12,2.89-7.55,5a4.17,4.17,0,0,0-1,2.58A27,27,0,0,1,74,19a16.88,16.88,0,0,1,4,.39,3.13,3.13,0,0,0-.59-2.57A5.9,5.9,0,0,0,73.1,14.16Z"/><path class="cls-8" d="M53,66.38a52.4,52.4,0,0,1-.94-7.57,7,7,0,0,0-.44,2.41C51.61,64.29,52.4,65.73,53,66.38Z"/><path class="cls-8" d="M92.05,51.05c-.8-.39-1.56-.74-2.32-1.09a57.61,57.61,0,0,1-11.91-7.07C71.44,38.14,71,32.83,71.29,30.18c-1.3,1.94-2.49,5.58,0,11.41,4.13,9.67,12.32,10.73,16.25,11.23a40.68,40.68,0,0,1,8.11,1.76c0-.46,0-.89,0-1.31A20,20,0,0,0,92.05,51.05Z"/><path class="cls-8" d="M63.76,13.94l0,.06c-2.41,2.5-3,3.62-2.79,5.15A15.65,15.65,0,0,0,62.21,23l1.55-.81c-.15-.46-.22-1.52,1.07-3.45,1.41-2.12,4.85-5.42,8.15-5.42h.15a6.84,6.84,0,0,1,5.06,3,4.09,4.09,0,0,1,.74,3.25l1.22.33c.71-1.32,1.72-4.57,1.42-6.28s-4.81-5.13-7.72-5.47C72,7.94,69.16,9.5,66.71,11.36A26.15,26.15,0,0,0,63.76,13.94Z"/><path class="cls-8" d="M96.51,54c0,.29,0,.59,0,.89a12.61,12.61,0,0,1,1.47.72A12.94,12.94,0,0,0,96.51,54Z"/><path class="cls-8" d="M101.34,52.68A29.94,29.94,0,0,0,85.49,38.25C74.29,33.71,75.76,28,75.83,27.8a.44.44,0,0,1,.84.23s-1.27,5.19,9.15,9.41a31.46,31.46,0,0,1,13.1,9.79c.27-.6.41-3.21-1.41-10.46-1.3-5.16-6.19-10.11-9-12-2.94-2-9.47-5.15-14.49-4.89-5.39.26-13.52,4.54-16.17,7.19a32.85,32.85,0,0,0-8.76,19.57c-.33,4.87.24,6.51.55,7a25.16,25.16,0,0,1,2.55-3.07c.11-1.14.22-1.81.22-1.84a.43.43,0,0,1,.5-.35.43.43,0,0,1,.36.5,7.24,7.24,0,0,0-.1.72,59.53,59.53,0,0,1,7.65-6c6.27-4.25,6.4-7.73,6.4-7.77a.43.43,0,0,1,.43-.42c.25,0,.44.19.44.43S68,39.8,61.34,44.34A55,55,0,0,0,53.05,51c-.11,1.18-.21,2.8-.22,4.73,2.08-2.65,5.47-5,9.18-7.52l.93-.64c6-4.14,6.48-8.33,6.49-8.37a.35.35,0,0,1,.06-.18c-1.53-5.92.88-9.29,2.21-10.63l0-.05a5.65,5.65,0,0,1,.74-.63.45.45,0,0,1,.6.13.44.44,0,0,1-.13.6,5,5,0,0,0-.54.44c-.26.78-2.1,7.37,5.92,13.35a57,57,0,0,0,11.75,7c.77.36,1.54.71,2.34,1.1a21,21,0,0,1,3.16,1.9,21.53,21.53,0,0,0-.18-2.37.43.43,0,0,1,.36-.5.45.45,0,0,1,.5.36,29.7,29.7,0,0,1,.21,3.2,12.05,12.05,0,0,1,3.28,4,.37.37,0,0,1,0,.29,3.15,3.15,0,0,1,.22.33,5.25,5.25,0,0,1,0,5.73C103.15,60.11,102.3,54.6,101.34,52.68Z"/><path class="cls-8" d="M49.69,70.21a1.86,1.86,0,0,1,.4-2.12,2,2,0,0,1,1.84-.62,3,3,0,0,1,1.5.87c-.06-.23-.11-.45-.16-.67-.48-.2-2.53-1.37-2.53-6.45A8.23,8.23,0,0,1,52,57c0-1.94,0-3.63.12-5a24.72,24.72,0,0,0-1.94,2.47.24.24,0,0,1-.06.11,15.27,15.27,0,0,0-2.67,7.72c-.32,5.85,2,12.69,9.09,14.61-.19-.39-.37-.78-.55-1.16C54.51,75.47,50.5,72.55,49.69,70.21Z"/><path class="cls-8" d="M87,22.76c-.18-.09-.33-.15-.48-.21l.38.2Z"/><path class="cls-8" d="M81,20.17a33.45,33.45,0,0,1,3.45,1.35.51.51,0,0,1,.17,0c1,.11,2.21-1.49,2.72-3.7.48-2.06.3-4.55-1.22-5.14-2.51-1-3.54,0-3.82.37a2.13,2.13,0,0,1,.13.46C82.76,15.38,81.76,18.64,81,20.17Z"/><path class="cls-8" d="M60.93,22.22a13.83,13.83,0,0,1-.87-2.95c-.29-2,.71-3.48,3.08-5.93a27.36,27.36,0,0,1,3.79-3.22,4,4,0,0,0-2.15-1.37,3,3,0,0,0-.66-.07,4.39,4.39,0,0,0-2.35.79c-3.48,2.27-6.43,6-4.66,8.81A15.33,15.33,0,0,0,60.93,22.22Z"/><path class="cls-9" d="M87.32,108.4c-2-1.54-2.14-3.06-2.41-6.37,0-.63-.11-1.32-.19-2.09a32.38,32.38,0,0,1,.12-7.6,8.82,8.82,0,0,0-.76.61,8.58,8.58,0,0,1-5.79,2.35,12.26,12.26,0,0,1-6.22-2.08L71.6,93a3.88,3.88,0,0,0-.76-.26,10.59,10.59,0,0,1-1.2-.38C70,95,70.87,102.92,70.7,105.68a11.6,11.6,0,0,1-3.47,7.11c.22.31.49.67.78,1a34.64,34.64,0,0,1,2.91,4.32c.37.7.68,1.25,1,1.72a5.28,5.28,0,0,0,1.13,1.3l.27.19H84.4a3.43,3.43,0,0,0,1.47-1.56,27.43,27.43,0,0,0,1.65-8,14.93,14.93,0,0,0-.12-2.42A7.7,7.7,0,0,1,87.32,108.4Zm-8,7.23a1.24,1.24,0,0,1-.87.43h-.11a5.36,5.36,0,0,1-2.72-1.36.43.43,0,0,1,.57-.65,4.39,4.39,0,0,0,2.19,1.14.34.34,0,0,0,.27-.12.44.44,0,0,1,.67.56Z"/><path class="cls-9" d="M99.58,64.63a3.1,3.1,0,0,0-.42-.4h0a.45.45,0,0,1-.26-.08.46.46,0,0,1-.14-.2,1.09,1.09,0,0,0-.65-.09c-.81.19-1.42,1.5-1.63,2.11,0,.7,0,1.32,0,1.78a26.33,26.33,0,0,1-.56,4.35C98.19,69.62,100.82,66,99.58,64.63Z"/><path class="cls-9" d="M87.43,53.69c-3.78-.49-12.61-1.63-16.93-11.76-.2-.47-.38-.92-.53-1.37-.58,1.67-2.18,4.7-6.53,7.7l-.94.64c-4.1,2.81-7.8,5.35-9.65,8.29a46,46,0,0,0,4.77,20,16.45,16.45,0,0,0,2.08.25.43.43,0,0,1,.4.46.43.43,0,0,1-.43.41h0c-.52,0-1-.09-1.5-.16.14.27.29.53.45.79C63.52,87.1,66.86,90,69,91.08h0a.42.42,0,0,1,.44.23,9.2,9.2,0,0,0,1.57.54,4.3,4.3,0,0,1,1,.34l.5.29c1.91,1.15,6.41,3.84,11-.18a9.63,9.63,0,0,1,2.68-1.71c1-.47,1.84-.84,3.52-3.34s5.71-13.71,5.84-19.51l0-1.64a.39.39,0,0,1,0-.24v0c.07-3.6.11-7.33.08-10.33A38.1,38.1,0,0,0,87.43,53.69ZM73.93,74.91a10.53,10.53,0,0,0,1.24-3.82,22.58,22.58,0,0,0-.9-8.17.43.43,0,0,1,.28-.54.43.43,0,0,1,.55.28A22.92,22.92,0,0,1,76,71.21a11.12,11.12,0,0,1-1.34,4.11c-.32.62-.39.78-.28,1s.08.16.68-.14a2.15,2.15,0,0,1,1.54-.32,2.82,2.82,0,0,0,1.89-.11,2.62,2.62,0,0,1,1.61.17,3.24,3.24,0,0,0,.52.15V76a.43.43,0,0,1,.43-.43.44.44,0,0,1,.44.43.91.91,0,0,1-.34.79c-.37.27-.84.11-1.33-.06a2.06,2.06,0,0,0-1-.18,3.71,3.71,0,0,1-2.46.13,1.61,1.61,0,0,0-.91.26,2.31,2.31,0,0,1-1,.32.93.93,0,0,1-.83-.52C73.3,76.1,73.58,75.57,73.93,74.91ZM58.73,61.53c.06-.59,2.35-2.16,4.18-2.94a11,11,0,0,1,6.33-.79c2.09.46,3.79,2.29,3.53,3a6,6,0,0,0-4.64-2c-2.81.2-4.31,0-6.86,1.38S58.66,62.11,58.73,61.53Zm8.35,4.23A8.56,8.56,0,0,1,65,66a4.41,4.41,0,0,1-3.51-1.35.46.46,0,0,1,0-.44c0-.1,1.12-2.52,4.72-2.94s5.09,1.32,5.15,1.4a.41.41,0,0,1,0,.54C71,64.1,70.32,64.94,67.08,65.76ZM85.28,82.4c-.3.11-.81.28-1.44.45a15.43,15.43,0,0,1-2.11,3.09,5.26,5.26,0,0,1-6.55.3,12.79,12.79,0,0,1-2.42-2.94,5.57,5.57,0,0,1-1.45-.56.42.42,0,0,1-.12-.6.43.43,0,0,1,.6-.12,4.49,4.49,0,0,0,1,.39,13.78,13.78,0,0,1,1.77-1.49,2.77,2.77,0,0,1,2.9-.52,2.26,2.26,0,0,1,.62.45,3.17,3.17,0,0,0,.36.28,2.56,2.56,0,0,1,1.68-1.23,2.8,2.8,0,0,1,2.15.77A15.84,15.84,0,0,1,83.73,82c.54-.16,1-.3,1.25-.41a.44.44,0,0,1,.3.82Zm5.31-19.1c0,.07-1.18,1.68-4.51,1.68-.29,0-.6,0-.92,0-3.35-.27-4-1-4.42-1.88,0-.08-.08-.16-.13-.24a.47.47,0,0,1,0-.47c.06-.08,1.35-1.93,4.89-1.93h.09a5.64,5.64,0,0,1,5,2.42A.45.45,0,0,1,90.59,63.3Zm.17-4.74c-2.67-1.1-4.15-.74-7-.64a6,6,0,0,0-4.39,2.5c-.34-.68,1.15-2.68,3.18-3.36a11.11,11.11,0,0,1,6.39.11c1.9.59,4.34,1.9,4.46,2.48S93.44,59.65,90.76,58.56Z"/><path class="cls-9" d="M54.05,70.69c-.29-.6-1.26-2.18-2.28-2.37a1.24,1.24,0,0,0-1.08.4c-.2.18-.43.51-.18,1.21.61,1.77,3.51,4,5,4.73a41.28,41.28,0,0,1-1.42-3.93Z"/><path class="cls-10" d="M82.76,82.25c-.26-.25-.61-.56-1-.9a2,2,0,0,0-1.47-.6,1.85,1.85,0,0,0-1.16,1,.71.71,0,0,1-.5.34,1.46,1.46,0,0,1-1.09-.54,2.26,2.26,0,0,0-.36-.29,2,2,0,0,0-2.09.42,11.55,11.55,0,0,0-1.27,1,18.77,18.77,0,0,0,2.49.33A21.73,21.73,0,0,0,82.76,82.25Z"/><path class="cls-10" d="M75.75,85.58a4.35,4.35,0,0,0,5.34-.23,14.12,14.12,0,0,0,1.59-2.19,24.44,24.44,0,0,1-5.48.73c-.33,0-.66,0-1,0-.88-.07-1.62-.17-2.24-.28A11.5,11.5,0,0,0,75.75,85.58Z"/><path class="cls-11" d="M78.63,115.07a.34.34,0,0,1-.27.12,4.39,4.39,0,0,1-2.19-1.14.43.43,0,0,0-.57.65,5.36,5.36,0,0,0,2.72,1.36h.11a1.24,1.24,0,0,0,.87-.43.44.44,0,0,0-.67-.56Z"/><path class="cls-11" d="M103.62,117a24.83,24.83,0,0,1-5.06-1.08c-2.33-.89-4.58-2.41-4.62-2.94-.08-.9-1.09-1.67-1.57-2a1.85,1.85,0,0,0-.79-1.75,5,5,0,0,1-.79-.66,4.47,4.47,0,0,0-2.42-1.42.94.94,0,0,0-.78.27s0,0,0,.07c-1.4-1.22-1.52-2.49-1.78-5.5,0-.63-.11-1.33-.19-2.11a31.39,31.39,0,0,1,.23-8.12c.26-.14.5-.25.73-.35,1.11-.51,2.06-.94,3.88-3.65,1.3-1.92,3.78-8.42,5.1-14.11a.31.31,0,0,0,.15-.1c.71-.69,6.77-6.73,4.62-9.38,3.83-3.35,2.9-9.69,1.83-11.85a30.27,30.27,0,0,0-2.66-4.36c.9-1,.53-4.84-1.11-11.37C97,31.16,91.92,26,89,24c-.57-.39-1.29-.83-2.1-1.28l-.38-.2-.88-.45c1.21-.63,2.1-2.34,2.51-4.11.58-2.5.26-5.37-1.76-6.15-2.59-1-4-.21-4.58.38C80.39,10.1,76.58,7.59,74,7.29c-1.7-.2-4.09.88-6.3,2.34A4.94,4.94,0,0,0,65,7.9a4.73,4.73,0,0,0-3.67.85c-4,2.57-7,6.66-4.92,10a16.52,16.52,0,0,0,4.89,4.77,21.4,21.4,0,0,0-4,2.92,33.51,33.51,0,0,0-9,20.13c-.37,5.4.33,7.24.9,7.86a16.1,16.1,0,0,0-2.6,7.82C46.22,68.64,48.85,76.16,57,77.9q.39.72.81,1.44c5.08,8.46,8.58,11.39,10.87,12.56.22,1.85,1.29,10.86,1.12,13.73a10.61,10.61,0,0,1-3.1,6.42l0,0a.88.88,0,0,0-1.12-.4,5.66,5.66,0,0,0-2.54,2.8,26.14,26.14,0,0,0-6.13,2L56,117a39.73,39.73,0,0,1-8.28,4.15l-.65.23h2.4a38.51,38.51,0,0,0,7-3.65l1-.6a25.77,25.77,0,0,1,5.83-1.85c.58,1,2.63,4.37,3.65,6l.08.1H68a4.27,4.27,0,0,1-.41-.56c-1.07-1.72-3.3-5.42-3.73-6.13a5.7,5.7,0,0,1,1.53-2c.39-.31.55-.3.55-.3a20.06,20.06,0,0,0,1.37,1.94,34.74,34.74,0,0,1,2.83,4.21,12.43,12.43,0,0,0,1.83,2.8h1.33l-.27-.19a5.28,5.28,0,0,1-1.13-1.3c-.31-.47-.62-1-1-1.72A34.64,34.64,0,0,0,68,113.84c-.29-.38-.56-.74-.78-1a11.6,11.6,0,0,0,3.47-7.11c.17-2.76-.74-10.72-1.06-13.37a10.59,10.59,0,0,0,1.2.38,3.88,3.88,0,0,1,.76.26l.47.27a12.26,12.26,0,0,0,6.22,2.08A8.58,8.58,0,0,0,84.08,93a8.82,8.82,0,0,1,.76-.61,32.38,32.38,0,0,0-.12,7.6c.08.77.14,1.46.19,2.09.27,3.31.41,4.83,2.41,6.37a7.7,7.7,0,0,0,.08,1,14.93,14.93,0,0,1,.12,2.42,27.43,27.43,0,0,1-1.65,8,3.43,3.43,0,0,1-1.47,1.56h1.42a3.78,3.78,0,0,0,.84-1.21,28.25,28.25,0,0,0,1.72-8.29,14.42,14.42,0,0,0-.12-2.57c-.06-.5-.14-1.18.06-1.31a3.75,3.75,0,0,1,1.88,1.19,5.92,5.92,0,0,0,.94.77c.48.27.35,1.16.35,1.16s-.9,5.47-2.31,8.33c-.35.71-.68,1.34-1,1.93h1c.29-.53.56-1.06.8-1.55a35.61,35.61,0,0,0,2.27-7.9c.4.32.81.74.84,1.09.11,1.33,3.54,3.06,5.18,3.68a25.09,25.09,0,0,0,5.28,1.13h0a.45.45,0,0,0,.43-.39A.43.43,0,0,0,103.62,117ZM47.43,62.29a15.27,15.27,0,0,1,2.67-7.72.24.24,0,0,0,.06-.11A24.72,24.72,0,0,1,52.1,52c-.09,1.33-.16,3-.12,5a8.23,8.23,0,0,0-1.24,4.27c0,5.08,2,6.25,2.53,6.45,0,.22.1.44.16.67a3,3,0,0,0-1.5-.87,2,2,0,0,0-1.84.62,1.86,1.86,0,0,0-.4,2.12c.81,2.34,4.82,5.26,6.28,5.53.18.38.36.77.55,1.16C49.4,75,47.11,68.14,47.43,62.29Zm1.69-15.67a32.85,32.85,0,0,1,8.76-19.57c2.65-2.65,10.78-6.93,16.17-7.19,5-.26,11.55,2.87,14.49,4.89,2.78,1.91,7.67,6.86,9,12,1.82,7.25,1.68,9.86,1.41,10.46a31.46,31.46,0,0,0-13.1-9.79C75.4,33.22,76.65,28.08,76.67,28a.44.44,0,0,0-.84-.23c-.07.24-1.54,5.91,9.66,10.45a29.94,29.94,0,0,1,15.85,14.43c1,1.92,1.81,7.43-1.3,10.53a5.25,5.25,0,0,0,0-5.73,3.15,3.15,0,0,0-.22-.33.37.37,0,0,0,0-.29,12.05,12.05,0,0,0-3.28-4,29.7,29.7,0,0,0-.21-3.2.45.45,0,0,0-.5-.36.43.43,0,0,0-.36.5,21.53,21.53,0,0,1,.18,2.37,21,21,0,0,0-3.16-1.9c-.8-.39-1.57-.74-2.34-1.1a57,57,0,0,1-11.75-7c-8-6-6.18-12.57-5.92-13.35a5,5,0,0,1,.54-.44.44.44,0,0,0,.13-.6.45.45,0,0,0-.6-.13,5.65,5.65,0,0,0-.74.63l0,.05C70.37,29.7,68,33.07,69.49,39a.35.35,0,0,0-.06.18S69,43.4,62.94,47.54l-.93.64c-3.71,2.54-7.1,4.87-9.18,7.52,0-1.93.11-3.55.22-4.73a55,55,0,0,1,8.29-6.63C68,39.8,68.12,36,68.12,35.86s-.19-.39-.44-.43a.43.43,0,0,0-.43.42s-.13,3.52-6.4,7.77a59.53,59.53,0,0,0-7.65,6,7.24,7.24,0,0,1,.1-.72.43.43,0,0,0-.36-.5.43.43,0,0,0-.5.35s-.11.7-.22,1.84a25.16,25.16,0,0,0-2.55,3.07C49.36,53.13,48.79,51.49,49.12,46.62Zm8-28.34c-1.77-2.81,1.18-6.54,4.66-8.81a4.39,4.39,0,0,1,2.35-.79,3,3,0,0,1,.66.07,4,4,0,0,1,2.15,1.37,27.36,27.36,0,0,0-3.79,3.22c-2.37,2.45-3.37,3.89-3.08,5.93a13.83,13.83,0,0,0,.87,2.95A15.33,15.33,0,0,1,57.11,18.28Zm3.81.87c-.22-1.53.38-2.65,2.79-5.15l0-.06a26.15,26.15,0,0,1,2.95-2.58C69.16,9.5,72,7.94,73.85,8.15c2.91.34,7.43,3.79,7.72,5.47s-.71,5-1.42,6.28l-1.22-.33a4.09,4.09,0,0,0-.74-3.25,6.84,6.84,0,0,0-5.06-3H73c-3.3,0-6.74,3.3-8.15,5.42-1.29,1.93-1.22,3-1.07,3.45L62.21,23A15.65,15.65,0,0,1,60.92,19.15Zm25.19-6.5c1.52.59,1.7,3.08,1.22,5.14-.51,2.21-1.73,3.81-2.72,3.7a.51.51,0,0,0-.17,0A33.45,33.45,0,0,0,81,20.17c.77-1.53,1.77-4.79,1.43-6.69a2.13,2.13,0,0,0-.13-.46C82.57,12.66,83.6,11.68,86.11,12.65ZM64.56,21.77a4.17,4.17,0,0,1,1-2.58c1.43-2.14,4.71-5.09,7.55-5a5.9,5.9,0,0,1,4.37,2.65,3.13,3.13,0,0,1,.59,2.57A16.88,16.88,0,0,0,74,19,27,27,0,0,0,64.56,21.77Zm23,31.05c-3.93-.5-12.12-1.56-16.25-11.23-2.49-5.83-1.3-9.47,0-11.41-.28,2.65.15,8,6.53,12.71A57.61,57.61,0,0,0,89.73,50c.76.35,1.52.7,2.32,1.09a20,20,0,0,1,3.58,2.22c0,.42,0,.85,0,1.31A40.68,40.68,0,0,0,87.54,52.82Zm9,1.2A12.94,12.94,0,0,1,98,55.63a12.61,12.61,0,0,0-1.47-.72C96.52,54.61,96.51,54.31,96.51,54Zm0,1.84a5.7,5.7,0,0,1,2.72,2.06A4.47,4.47,0,0,1,99,63.15,1.81,1.81,0,0,0,97.88,63a2.47,2.47,0,0,0-1.4,1C96.52,61.59,96.55,58.56,96.53,55.86Zm-46,14.07c-.25-.7,0-1,.18-1.21a1.24,1.24,0,0,1,1.08-.4c1,.19,2,1.77,2.28,2.37l0,0a41.28,41.28,0,0,0,1.42,3.93C54,73.94,51.12,71.7,50.51,69.93ZM53,66.38c-.59-.65-1.38-2.09-1.38-5.16a7,7,0,0,1,.44-2.41A52.4,52.4,0,0,0,53,66.38Zm43.42,1.38c0-.46,0-1.08,0-1.78.21-.61.82-1.92,1.63-2.11a1.09,1.09,0,0,1,.65.09.46.46,0,0,0,.14.2.45.45,0,0,0,.26.08h0a3.1,3.1,0,0,1,.42.4c1.24,1.33-1.39,5-3.73,7.48A26.33,26.33,0,0,0,96.41,67.76ZM83.5,92.3c-4.57,4-9.07,1.33-11,.18l-.5-.29a4.3,4.3,0,0,0-1-.34,9.2,9.2,0,0,1-1.57-.54.42.42,0,0,0-.44-.23h0c-2.17-1.13-5.51-4-10.43-12.19-.16-.26-.31-.52-.45-.79.48.07,1,.13,1.5.16h0a.43.43,0,0,0,.43-.41.43.43,0,0,0-.4-.46,16.45,16.45,0,0,1-2.08-.25,46,46,0,0,1-4.77-20c1.85-2.94,5.55-5.48,9.65-8.29l.94-.64c4.35-3,6-6,6.53-7.7.15.45.33.9.53,1.37C74.82,52.06,83.65,53.2,87.43,53.69a38.1,38.1,0,0,1,8.23,1.81c0,3,0,6.73-.08,10.33v0a.39.39,0,0,0,0,.24l0,1.64c-.13,5.8-4.1,16.92-5.84,19.51s-2.49,2.87-3.52,3.34A9.63,9.63,0,0,0,83.5,92.3Z"/><path class="cls-11" d="M74.48,77.24a2.31,2.31,0,0,0,1-.32,1.61,1.61,0,0,1,.91-.26,3.71,3.71,0,0,0,2.46-.13,2.06,2.06,0,0,1,1,.18c.49.17,1,.33,1.33.06a.91.91,0,0,0,.34-.79.44.44,0,0,0-.44-.43.43.43,0,0,0-.43.43V76a3.24,3.24,0,0,1-.52-.15,2.62,2.62,0,0,0-1.61-.17,2.82,2.82,0,0,1-1.89.11,2.15,2.15,0,0,0-1.54.32c-.6.3-.62.25-.68.14s0-.35.28-1A11.12,11.12,0,0,0,76,71.21a22.92,22.92,0,0,0-.93-8.55.43.43,0,0,0-.55-.28.43.43,0,0,0-.28.54,22.58,22.58,0,0,1,.9,8.17,10.53,10.53,0,0,1-1.24,3.82c-.35.66-.63,1.19-.28,1.81A.93.93,0,0,0,74.48,77.24Z"/><path class="cls-11" d="M85,81.58c-.28.11-.71.25-1.25.41a15.84,15.84,0,0,0-1.46-1.32,2.8,2.8,0,0,0-2.15-.77,2.56,2.56,0,0,0-1.68,1.23,3.17,3.17,0,0,1-.36-.28,2.26,2.26,0,0,0-.62-.45,2.77,2.77,0,0,0-2.9.52,13.78,13.78,0,0,0-1.77,1.49,4.49,4.49,0,0,1-1-.39.43.43,0,0,0-.6.12.42.42,0,0,0,.12.6,5.57,5.57,0,0,0,1.45.56,12.79,12.79,0,0,0,2.42,2.94,5.26,5.26,0,0,0,6.55-.3,15.43,15.43,0,0,0,2.11-3.09c.63-.17,1.14-.34,1.44-.45a.44.44,0,0,0-.3-.82Zm-9.23,4a11.5,11.5,0,0,1-1.77-2c.62.11,1.36.21,2.24.28.32,0,.65,0,1,0a24.44,24.44,0,0,0,5.48-.73,14.12,14.12,0,0,1-1.59,2.19A4.35,4.35,0,0,1,75.75,85.58Zm1.4-4.37a2.26,2.26,0,0,1,.36.29A1.46,1.46,0,0,0,78.6,82a.71.71,0,0,0,.5-.34,1.85,1.85,0,0,1,1.16-1,2,2,0,0,1,1.47.6c.42.34.77.65,1,.9a21.73,21.73,0,0,1-6.48.74,18.77,18.77,0,0,1-2.49-.33,11.55,11.55,0,0,1,1.27-1A2,2,0,0,1,77.15,81.21Z"/><path class="cls-11" d="M71.29,62.71c-.06-.08-1.56-1.81-5.15-1.4s-4.68,2.84-4.72,2.94a.46.46,0,0,0,0,.44A4.41,4.41,0,0,0,65,66a8.56,8.56,0,0,0,2.1-.28c3.24-.82,3.94-1.66,4.22-2.51A.41.41,0,0,0,71.29,62.71Zm-2.61,1.65a.83.83,0,0,1-.58.3l-.09,0a1.13,1.13,0,0,1-.18,0,.77.77,0,0,1-.66-.72.8.8,0,0,1,.84-.75.9.9,0,0,1,.54.18s0,0,0,0A2.29,2.29,0,0,0,68,62.16a4.56,4.56,0,0,1,2.46.93C70.36,63.33,70.12,63.8,68.68,64.36Zm-6.33,0a4.57,4.57,0,0,1,2.23-1.76c-.39.78-.77,2,.5,2.49l.3.07A4.14,4.14,0,0,1,62.35,64.35Z"/><path class="cls-11" d="M72.77,60.81c.26-.72-1.44-2.55-3.53-3a11,11,0,0,0-6.33.79c-1.83.78-4.12,2.35-4.18,2.94s0,0,2.54-1.37,4-1.18,6.86-1.38A6,6,0,0,1,72.77,60.81Z"/><path class="cls-11" d="M90.59,63.3a.45.45,0,0,0,0-.46,5.64,5.64,0,0,0-5-2.42h-.09c-3.54,0-4.83,1.85-4.89,1.93a.47.47,0,0,0,0,.47c0,.08.09.16.13.24.46.9,1.07,1.61,4.42,1.88.32,0,.63,0,.92,0C89.41,65,90.54,63.37,90.59,63.3Zm-9.07-.63v0a4.45,4.45,0,0,1,2.35-1.19,2.36,2.36,0,0,0-.44,1.2A1.37,1.37,0,0,0,84,63.93C82,63.63,81.75,63.13,81.52,62.67Zm5.16,1.42a.72.72,0,0,1-.35-.6.8.8,0,0,1,.84-.75.84.84,0,0,1,.63.28,2.79,2.79,0,0,0-.51-1.5A4.64,4.64,0,0,1,89.68,63a4.06,4.06,0,0,1-1.85.9.83.83,0,0,1-.66.32.93.93,0,0,1-.39-.09Z"/><path class="cls-11" d="M83.8,57.92c2.81-.1,4.29-.46,7,.64s2.81,1.67,2.68,1.09S90.88,57.76,89,57.17a11.11,11.11,0,0,0-6.39-.11c-2,.68-3.52,2.68-3.18,3.36A6,6,0,0,1,83.8,57.92Z"/><path class="cls-1" d="M123.33,120.32c-1.34-2-11.94-1.8-19.45-2.63a.45.45,0,0,1-.31.14h0a25.09,25.09,0,0,1-5.28-1.13c-1.64-.62-5.07-2.35-5.18-3.68,0-.35-.44-.77-.84-1.09a35.61,35.61,0,0,1-2.27,7.9c-.24.49-.51,1-.8,1.55H123.8A3.7,3.7,0,0,0,123.33,120.32Z"/><path class="cls-1" d="M67.32,114.36A20.06,20.06,0,0,1,66,112.42s-.16,0-.55.3a5.7,5.7,0,0,0-1.53,2c.43.71,2.66,4.41,3.73,6.13a4.27,4.27,0,0,0,.41.56h4a12.43,12.43,0,0,1-1.83-2.8A34.74,34.74,0,0,0,67.32,114.36Z"/><path class="cls-1" d="M91.49,111.11s.13-.89-.35-1.16a5.92,5.92,0,0,1-.94-.77A3.75,3.75,0,0,0,88.32,108c-.2.13-.12.81-.06,1.31a14.42,14.42,0,0,1,.12,2.57,28.25,28.25,0,0,1-1.72,8.29,3.78,3.78,0,0,1-.84,1.21h2.35c.33-.59.66-1.22,1-1.93C90.59,116.58,91.48,111.16,91.49,111.11Z"/><path class="cls-1" d="M63.21,115.27a25.77,25.77,0,0,0-5.83,1.85l-1,.6a38.51,38.51,0,0,1-7,3.65H66.94l-.08-.1C65.84,119.64,63.79,116.23,63.21,115.27Z"/><path class="cls-1" d="M65.38,65.15l-.3-.07c-1.27-.44-.89-1.71-.5-2.49a4.57,4.57,0,0,0-2.23,1.76A4.14,4.14,0,0,0,65.38,65.15Z"/><path class="cls-1" d="M83.42,62.66a2.36,2.36,0,0,1,.44-1.2,4.45,4.45,0,0,0-2.35,1.19v0c.23.46.49,1,2.46,1.26A1.37,1.37,0,0,1,83.42,62.66Z"/><path class="cls-1" d="M67.83,64.65a1.13,1.13,0,0,0,.18,0l.09,0a.83.83,0,0,0,.58-.3c1.44-.56,1.68-1,1.76-1.27A4.56,4.56,0,0,0,68,62.16a2.29,2.29,0,0,1,.56,1.15s0,0,0,0a.9.9,0,0,0-.54-.18.8.8,0,0,0-.84.75A.77.77,0,0,0,67.83,64.65Z"/><path class="cls-1" d="M86.78,64.15a.93.93,0,0,0,.39.09.83.83,0,0,0,.66-.32,4.06,4.06,0,0,0,1.85-.9,4.64,4.64,0,0,0-2.39-1.5A2.79,2.79,0,0,1,87.8,63a.84.84,0,0,0-.63-.28.8.8,0,0,0-.84.75.72.72,0,0,0,.35.6Z"/></g></svg>