<svg xmlns="http://www.w3.org/2000/svg" viewBox="0 0 150 150"><defs><style>.cls-1{fill:#fff;}.cls-2,.cls-7{fill:#f1748a;}.cls-3{fill:#feca9a;}.cls-4{fill:#1c2021;}.cls-5{fill:none;stroke:#1c2021;stroke-miterlimit:10;stroke-width:2.29px;}.cls-6{fill:#f78271;}.cls-7{font-size:17px;font-family:Gotham Bold, Gotham;font-weight:700;}.cls-8{letter-spacing:-0.01em;}.cls-9{letter-spacing:-0.02em;}</style></defs><g id="Layer_1" data-name="Layer 1"><rect class="cls-1" x="1.2" y="1.2" width="147.6" height="147.6" rx="13.2"/><path class="cls-2" d="M135.6,2.4a12,12,0,0,1,12,12V135.6a12,12,0,0,1-12,12H14.4a12,12,0,0,1-12-12V14.4a12,12,0,0,1,12-12H135.6m0-2.4H14.4A14.44,14.44,0,0,0,0,14.4V135.6A14.44,14.44,0,0,0,14.4,150H135.6A14.44,14.44,0,0,0,150,135.6V14.4A14.44,14.44,0,0,0,135.6,0Z"/><path class="cls-3" d="M55,78.23s1.77,12.92-1.17,21.29S68.35,112.3,68.35,112.3l11.74,10,6.76-8.22,9.55-15s-2.5-1.32-3.38-9S55,78.23,55,78.23Z"/><path class="cls-1" d="M22.15,119.85l-2-9.91,33-10.42c6,4.46,16.58,8.4,20.57,8.83,4.27.46,11.36,3.42,15.27,1l9-8.84c4.69-.1,25,.62,30.75,6l.42,12.66v5L23.17,125.69Z"/><path class="cls-3" d="M60.51,9.63S45.24,16.28,45.24,30.82s.27,15.83.27,15.83-6-7.2-5.88-1.32,3.68,12.77,7.64,17S52.71,69.71,53,72.94,56.67,82,56.67,82l23.8.74s15.12-2.94,14.1-3.53-.44-9.1,0-11.75,2.93-.14,5-5,8.52-21.44,5.87-22-4.63,1.83-4.63,1.83,1.65-11.51-.26-14.59S95.15,8.75,83.26,8A94.26,94.26,0,0,0,60.51,9.63Z"/><path class="cls-4" d="M96.25,63.87h-.07a.47.47,0,0,1-.4-.54c0-.09.35-2.17,3.08-4.75,2.46-2.32,3.25-6.28,1.7-8.47a8.33,8.33,0,0,1-1.22-7.59.46.46,0,0,1,.61-.27.47.47,0,0,1,.27.62,7.41,7.41,0,0,0,1.12,6.69c1.84,2.59,1,7-1.82,9.71-2.47,2.33-2.79,4.21-2.79,4.21A.48.48,0,0,1,96.25,63.87Z"/><path class="cls-4" d="M94.48,75.27h-.09A.46.46,0,0,1,94,74.7c0-.16,0-.8.07-1.49.07-2.29.19-6.13,1-7.74,1-2,2.58-10.8,2.6-10.88a.47.47,0,0,1,.55-.39.49.49,0,0,1,.39.55c-.07.37-1.64,9.06-2.69,11.15-.71,1.42-.83,5.27-.9,7.34A13.76,13.76,0,0,1,95,74.89.47.47,0,0,1,94.48,75.27Z"/><path class="cls-4" d="M48.66,58.23a.45.45,0,0,1-.31-.11c-5-4.19-4-6.26-2.52-9.13l.49-1a19.53,19.53,0,0,0,1.57-7.28.48.48,0,1,1,1,0,20.2,20.2,0,0,1-1.66,7.69c-.17.36-.34.69-.5,1-1.4,2.75-2.16,4.26,2.28,8a.48.48,0,0,1,.07.67A.5.5,0,0,1,48.66,58.23Z"/><path class="cls-4" d="M53.51,77.62h-.08a.48.48,0,0,1-.4-.55c.19-1.1-.36-3.58-1.11-7-.37-1.71-.8-3.67-1.23-5.87-1.31-6.71-1.47-8.78-1.48-8.87a.48.48,0,0,1,.44-.51.46.46,0,0,1,.51.44s.17,2.13,1.46,8.76c.43,2.19.86,4.14,1.23,5.85.81,3.68,1.34,6.11,1.13,7.39A.48.48,0,0,1,53.51,77.62Z"/><path class="cls-4" d="M74.44,66.72a4.17,4.17,0,0,1-2.85-1.35,11.15,11.15,0,0,0-2-1.47,3.67,3.67,0,0,0-3.75.13,4.55,4.55,0,0,1-1.75.52,1.4,1.4,0,0,1-1.38-.85c-.37-.9.12-2.27,1.19-3.35A18.86,18.86,0,0,0,66,57.49a71.24,71.24,0,0,1,4.93-6.8c3.85-4.67,1.31-8.95,1.28-9a.48.48,0,1,1,.82-.5s2.92,4.91-1.36,10.1A71.46,71.46,0,0,0,66.77,58a20.2,20.2,0,0,1-2.2,3,2.63,2.63,0,0,0-1,2.3c0,.07.11.26.5.26a3.72,3.72,0,0,0,1.35-.43A4.62,4.62,0,0,1,70,63.07a13.05,13.05,0,0,1,2.18,1.57c1,.87,1.57,1.35,3.07,1a7.68,7.68,0,0,0,3-1.71,4.77,4.77,0,0,1,2.78-1.39,7.09,7.09,0,0,1,2.65.87c.75.36,1.69.81,2,.66,0,0,.08,0,.14-.18.42-1.16-1.08-2.88-2.39-4.41l-.87-1c-2.33-2.76-4.26-5.13-4.26-6.33a.48.48,0,0,1,1,0c0,.94,2.73,4.16,4,5.71l.86,1c1.56,1.8,3.18,3.67,2.56,5.35a1.18,1.18,0,0,1-.67.74c-.74.31-1.71-.15-2.82-.67a6.32,6.32,0,0,0-2.24-.78,4,4,0,0,0-2.19,1.18,8.45,8.45,0,0,1-3.44,1.89A4.56,4.56,0,0,1,74.44,66.72Z"/><path class="cls-4" d="M52.33,70.42c-.84,0-1.33-.88-2-2.11a16.06,16.06,0,0,0-1.88-2.9c-1.61-1.86-5.56-6.73-7.44-11.9-1.79-4.93-3-8.53-2-10a1.44,1.44,0,0,1,1.14-.65c2.39-.16,5.26,4.14,5.57,4.63a.47.47,0,0,1-.14.66.48.48,0,0,1-.66-.14c-1.08-1.67-3.36-4.26-4.71-4.19a.43.43,0,0,0-.4.21c-.76,1.16,1,6,2.14,9.14,1.83,5,5.68,9.78,7.26,11.6a16.35,16.35,0,0,1,2,3.06c.39.72.88,1.62,1.16,1.62a.48.48,0,1,1,0,1Z"/><path class="cls-4" d="M96.39,66.16A.46.46,0,0,1,96,65.9a.47.47,0,0,1,.21-.64c2.49-1.25,3.15-1.83,3.86-4.68a61.78,61.78,0,0,1,2.93-8l.47-1.15c1.35-3.26,3-8.79,2.39-10.29-.09-.19-.18-.23-.21-.24-1.16-.46-3.39,2.16-4.28,3.49a.48.48,0,0,1-.79-.53c.32-.48,3.21-4.7,5.41-3.85a1.3,1.3,0,0,1,.74.75c1.1,2.54-2.34,11-2.37,11l-.48,1.14a61,61,0,0,0-2.88,7.9c-.78,3.12-1.63,3.94-4.36,5.3A.42.42,0,0,1,96.39,66.16Z"/><path class="cls-1" d="M66,43.63c-3.18-1.53-8.37-2.33-10.87.43s6.9,2.54,8.81,1.48S66.87,44.06,66,43.63Z"/><path class="cls-4" d="M58.94,47c-2.13,0-4.17-.38-4.61-1.5a1.83,1.83,0,0,1,.5-2c2.76-3,8.28-2,11.31-.53a1,1,0,0,1,.65,1c0,.78-.54,1.07-2,1.86l-.69.38A14.44,14.44,0,0,1,58.94,47Zm1.13-4a6.18,6.18,0,0,0-4.66,1.68,1,1,0,0,0-.23.35c.51.82,6.86.9,8.58-.05l.7-.39c.3-.16.6-.32.85-.47A13.85,13.85,0,0,0,60.07,42.92Z"/><path class="cls-4" d="M60.12,42.12s-2.35,4.06.73,4.06S62.91,41.91,60.12,42.12Z"/><path class="cls-4" d="M59.82,40.57c4.55-.22,6.9-.44,8.81.59s2.65-.3,1.18-2.35S63.64,35.72,59.53,36s-3.53-.3-7.35,2.64S49.54,44.39,51,43.07,56.74,40.72,59.82,40.57Z"/><path class="cls-4" d="M73.48,40.31a.49.49,0,0,1-.32-.12c-1.81-1.64-.78-5.87-.73-6a.48.48,0,1,1,.93.23c-.27,1.07-.71,4.07.44,5.11a.48.48,0,0,1,0,.68A.47.47,0,0,1,73.48,40.31Z"/><path class="cls-4" d="M75.39,40.61a.47.47,0,0,1-.43-.28,4.46,4.46,0,0,1-.54-3.43,1.61,1.61,0,0,1,.79-.89.48.48,0,0,1,.37.89c-.34.16-.72,1,.24,3a.49.49,0,0,1-.22.64A.54.54,0,0,1,75.39,40.61Z"/><path class="cls-4" d="M78.33,40.42S77.74,37.63,83,36s6.9-1.77,9.84.44,5.43,6.31,4.26,6.31S93.46,40,90.52,40a19.46,19.46,0,0,0-7.2.88C80.68,41.75,78.18,42.48,78.33,40.42Z"/><path class="cls-1" d="M81,43.84c-.72-.29,5.55-2.49,9.11-1.69,2.75.61.73,3.6-3.23,4.24S82.3,44.39,81,43.84Z"/><path class="cls-4" d="M85.69,47.18a4.92,4.92,0,0,1-3.91-1.88,3.08,3.08,0,0,0-.94-.79.9.9,0,0,1-.39-.89c.22-1.44,7.07-2.74,9.7-2.15a1.82,1.82,0,0,1,1.67,1.87c0,1.68-2.14,3.29-4.92,3.73A7.76,7.76,0,0,1,85.69,47.18ZM82,43.87c.1.1.2.21.31.31a4.24,4.24,0,0,0,4.44,1.52,5.71,5.71,0,0,0,4-2.14.76.76,0,0,0,.09-.26s-.2-.32-.87-.47C87.57,42.29,83.73,43.22,82,43.87Z"/><path class="cls-4" d="M83.76,43s-1,4,2.21,3S86.55,40.66,83.76,43Z"/><path class="cls-4" d="M54.53,101.41h-.09a.46.46,0,0,1-.37-.55s.59-3.11,1-6.44A24,24,0,0,0,55,88a.48.48,0,1,1,.94-.17A24.89,24.89,0,0,1,56,94.53c-.44,3.36-1,6.46-1,6.5A.47.47,0,0,1,54.53,101.41Z"/><path class="cls-4" d="M95.07,97.74a.44.44,0,0,1-.35-.16c-1.27-1.43-1-6.26-1-6.81a.45.45,0,0,1,.51-.45.49.49,0,0,1,.45.51c-.11,1.91,0,5.26.76,6.12a.48.48,0,0,1-.36.79Z"/><path class="cls-1" d="M50.42,101.23c-.15-3.38,1.62-6.76,3.23-7.34,0,0-2.49,2-.14,5.14s3.23,2.79,5.87,4.55,5.44,3.52,8.23,4,6,.45,7.34,1.33"/><path class="cls-4" d="M78.81,109.59c.5.31,6.23,1.51,7.07,1.2a10.63,10.63,0,0,0,3-2.82c.88-1.08,2.09-1,1.16.35a8.77,8.77,0,0,1-3.12,3.22c-2.14,1.51-10.33-1.64-12.19-2.28a21.87,21.87,0,0,0-4.47-.92c-.89-.09-1.8-.19-2.68-.32-2.85-.45-5.6-2.17-8.41-4-.78-.52-1.4-.86-1.95-1.16a10.3,10.3,0,0,1-4-3.5,4.67,4.67,0,0,1-1.11-3c-.69,1.29-1.58,2.25-1.5,4.09l-1,0c-.16-3.67,2.11-6.35,3.92-7a.48.48,0,0,1,.58.21.49.49,0,0,1-.11.6c-.09.08-2.11,1.82-.07,4.49A9.45,9.45,0,0,0,57.62,102c.57.31,1.22.66,2,1.2,2.71,1.81,5.37,3.47,8,3.89.86.14,1.76.23,2.63.32a29,29,0,0,1,4.39.81A21.55,21.55,0,0,1,78.81,109.59Z"/><path class="cls-1" d="M89.2,108.28c2.93-3.53,6.75-7.64,6.46-11.46,0,0,3.82.59,4.11,1.77"/><path class="cls-4" d="M88.83,108l.82-1c2.71-3.22,5.79-6.86,5.53-10.14a.51.51,0,0,1,.15-.39.49.49,0,0,1,.4-.12c1,.15,4.16.74,4.5,2.12,0,0,.53,2.5.23,2.8s-1.7,1.17-1.31.11.78-1.45.16-2.68c-.21-.42-1.66-1-3.16-1.31-.09,3.48-3.1,7-5.77,10.22l-.82,1C89.33,109,88,109,88.83,108Z"/><path class="cls-4" d="M48.83,101.34s-.29,0-1.11.09a41.15,41.15,0,0,0-15.53,5.37c-7.12,4-11.87,3.18-12.07,3.14a.49.49,0,0,1-.39-.55.5.5,0,0,1,.56-.39c.05,0,4.64.79,11.43-3a41.6,41.6,0,0,1,15.9-5.49c1.08-.11,1.62-.09,2,.27Z"/><path class="cls-4" d="M48.51,101.41a.45.45,0,0,1-.4-.22.47.47,0,0,1,.15-.66l1.61-1a.48.48,0,0,1,.66.15.47.47,0,0,1-.15.66l-1.61,1A.48.48,0,0,1,48.51,101.41Z"/><path class="cls-4" d="M99.59,102c-.31-.34-.55-.61-.47-1a.71.71,0,0,1,.46-.5c1.13-.49,4.19,0,4.54.11,0,0,5.18.45,10.27,1.32l3.91.65a92.87,92.87,0,0,1,10.42,2,.48.48,0,1,1-.32.9,95.38,95.38,0,0,0-10.25-2c-1.35-.22-2.69-.43-3.92-.65-5.06-.86-10.19-1.31-10.24-1.31a14.48,14.48,0,0,0-3.73-.27l0,0Z"/><path class="cls-1" d="M62.74,43.08c-.85,0-.85,2.22,0,2.22S63.59,43.08,62.74,43.08Z"/><path class="cls-1" d="M87,43.08c-.85,0-.85,2.22,0,2.22S87.84,43.08,87,43.08Z"/><path class="cls-5" d="M45.68,47.51S44.13,33.75,46.88,24,57.68,7.93,74,7.93,100.5,15.12,101.42,28s.08,15.08.08,15.08"/><path class="cls-4" d="M99.05,57,97.69,56S92.4,72.09,90.87,73.77c-3.69,4.08,5.45,4.41,5.45,4.41s1.43-2.86.75-4,.87-1,.39-2.66,1-1.64.62-2.89,1-3.57.55-4.44S98.57,57.45,99.05,57Z"/><path class="cls-4" d="M49.09,55.51l1.36-.93s5.3,16,6.82,17.73C61,76.38,54,79.65,54,79.65s-3.62-5.79-3-7-.87-1-.39-2.65-1-1.64-.62-2.9-1-3.57-.55-4.44S49.57,56,49.09,55.51Z"/><path class="cls-4" d="M52.21,19.25a1.19,1.19,0,0,0,0-2.37,1.19,1.19,0,0,0,0,2.37Z"/><path class="cls-4" d="M50.81,19.74a1.19,1.19,0,0,0,0-2.37,1.19,1.19,0,0,0,0,2.37Z"/><path class="cls-4" d="M51.62,18a1.19,1.19,0,0,0,0-2.37,1.19,1.19,0,0,0,0,2.37Z"/><path class="cls-4" d="M53.51,16.11a1.18,1.18,0,0,0,0-2.36,1.18,1.18,0,0,0,0,2.36Z"/><path class="cls-4" d="M54.37,17.84a1.18,1.18,0,0,0,0-2.36,1.18,1.18,0,0,0,0,2.36Z"/><path class="cls-4" d="M49.51,23.14a1.18,1.18,0,0,0,0-2.36,1.18,1.18,0,0,0,0,2.36Z"/><path class="cls-4" d="M48.53,29.46a1.18,1.18,0,0,0,0-2.36,1.18,1.18,0,0,0,0,2.36Z"/><path class="cls-4" d="M46.37,37.74a1.19,1.19,0,0,0,0-2.37,1.19,1.19,0,0,0,0,2.37Z"/><path class="cls-4" d="M46.91,34.17a1.19,1.19,0,0,0,0-2.37,1.19,1.19,0,0,0,0,2.37Z"/><path class="cls-4" d="M46.7,35.79a1.18,1.18,0,0,0,0-2.36,1.18,1.18,0,0,0,0,2.36Z"/><path class="cls-4" d="M47.56,33.41a1.18,1.18,0,0,0,0-2.36,1.18,1.18,0,0,0,0,2.36Z"/><path class="cls-4" d="M47.78,32a1.19,1.19,0,0,0,0-2.37,1.19,1.19,0,0,0,0,2.37Z"/><path class="cls-4" d="M46.8,32.44a1.19,1.19,0,0,0,0-2.37,1.19,1.19,0,0,0,0,2.37Z"/><path class="cls-4" d="M47.24,30.49a1.18,1.18,0,0,0,0-2.36,1.18,1.18,0,0,0,0,2.36Z"/><path class="cls-4" d="M48.1,31a1.18,1.18,0,0,0,0-2.36,1.18,1.18,0,0,0,0,2.36Z"/><path class="cls-4" d="M49.72,28.44a1.19,1.19,0,0,0,0-2.37,1.19,1.19,0,0,0,0,2.37Z"/><path class="cls-4" d="M48.53,27.68a1.18,1.18,0,0,0,0-2.36,1.18,1.18,0,0,0,0,2.36Z"/><path class="cls-4" d="M49.29,25.3a1.18,1.18,0,0,0,0-2.36,1.18,1.18,0,0,0,0,2.36Z"/><path class="cls-4" d="M49.51,26.93a1.19,1.19,0,0,0,0-2.37,1.19,1.19,0,0,0,0,2.37Z"/><path class="cls-4" d="M50.81,25.63a1.19,1.19,0,0,0,0-2.37,1.19,1.19,0,0,0,0,2.37Z"/><path class="cls-4" d="M48.32,26a1.18,1.18,0,0,0,0-2.36,1.18,1.18,0,0,0,0,2.36Z"/><path class="cls-4" d="M47.56,28.76a1.18,1.18,0,0,0,0-2.36,1.18,1.18,0,0,0,0,2.36Z"/><path class="cls-4" d="M50.81,23.9a1.19,1.19,0,0,0,0-2.37,1.19,1.19,0,0,0,0,2.37Z"/><path class="cls-4" d="M50.91,21.2a1.19,1.19,0,0,0,0-2.37,1.19,1.19,0,0,0,0,2.37Z"/><path class="cls-4" d="M49.83,21.63a1.19,1.19,0,0,0,0-2.37,1.19,1.19,0,0,0,0,2.37Z"/><path class="cls-4" d="M48.53,23.9a1.19,1.19,0,0,0,0-2.37,1.19,1.19,0,0,0,0,2.37Z"/><path class="cls-4" d="M51.56,22.06a1.19,1.19,0,0,0,0-2.37,1.19,1.19,0,0,0,0,2.37Z"/><path class="cls-4" d="M53.51,20.66a1.19,1.19,0,0,0,0-2.37,1.19,1.19,0,0,0,0,2.37Z"/><path class="cls-4" d="M56.64,15.57a1.18,1.18,0,0,0,0-2.36,1.18,1.18,0,0,0,0,2.36Z"/><path class="cls-4" d="M58.26,13.52a1.19,1.19,0,0,0,0-2.37,1.19,1.19,0,0,0,0,2.37Z"/><path class="cls-4" d="M68.43,11.79a1.19,1.19,0,0,0,0-2.37,1.19,1.19,0,0,0,0,2.37Z"/><path class="cls-4" d="M71,12.66a1.19,1.19,0,0,0,0-2.37,1.19,1.19,0,0,0,0,2.37Z"/><path class="cls-4" d="M73.62,13.41a1.18,1.18,0,0,0,0-2.36,1.18,1.18,0,0,0,0,2.36Z"/><path class="cls-4" d="M76.21,12.66a1.19,1.19,0,0,0,0-2.37,1.19,1.19,0,0,0,0,2.37Z"/><path class="cls-4" d="M78.91,11.57a1.18,1.18,0,0,0,0-2.36,1.18,1.18,0,0,0,0,2.36Z"/><path class="cls-4" d="M81.08,11.36a1.19,1.19,0,0,0,0-2.37,1.19,1.19,0,0,0,0,2.37Z"/><path class="cls-4" d="M87.89,13.2a1.19,1.19,0,0,0,0-2.37,1.19,1.19,0,0,0,0,2.37Z"/><path class="cls-4" d="M89.73,14.17a1.19,1.19,0,0,0,0-2.37,1.19,1.19,0,0,0,0,2.37Z"/><path class="cls-4" d="M89.06,13.07a1.19,1.19,0,0,0,0-2.37,1.19,1.19,0,0,0,0,2.37Z"/><path class="cls-4" d="M92.43,15.9a1.19,1.19,0,0,0,0-2.37,1.19,1.19,0,0,0,0,2.37Z"/><path class="cls-4" d="M94.81,18.49a1.18,1.18,0,0,0,0-2.36,1.18,1.18,0,0,0,0,2.36Z"/><path class="cls-4" d="M95.06,17.13a1.19,1.19,0,0,0,0-2.37,1.19,1.19,0,0,0,0,2.37Z"/><path class="cls-4" d="M96.75,20.66a1.19,1.19,0,0,0,0-2.37,1.19,1.19,0,0,0,0,2.37Z"/><path class="cls-4" d="M96.86,24.44a1.19,1.19,0,0,0,0-2.37,1.19,1.19,0,0,0,0,2.37Z"/><path class="cls-4" d="M96.86,26.82a1.19,1.19,0,0,0,0-2.37,1.19,1.19,0,0,0,0,2.37Z"/><path class="cls-4" d="M97.51,30.6a1.18,1.18,0,0,0,0-2.36,1.18,1.18,0,0,0,0,2.36Z"/><path class="cls-4" d="M98.27,33.52a1.19,1.19,0,0,0,0-2.37,1.19,1.19,0,0,0,0,2.37Z"/><path class="cls-4" d="M99.24,35.9a1.19,1.19,0,0,0,0-2.37,1.19,1.19,0,0,0,0,2.37Z"/><path class="cls-4" d="M99.46,39.14a1.18,1.18,0,0,0,0-2.36,1.18,1.18,0,0,0,0,2.36Z"/><path class="cls-4" d="M99.89,41.52a1.18,1.18,0,0,0,0-2.36,1.18,1.18,0,0,0,0,2.36Z"/><path class="cls-4" d="M100.54,38.57a1.18,1.18,0,0,0,0-2.36,1.18,1.18,0,0,0,0,2.36Z"/><path class="cls-4" d="M100.43,39.9a1.19,1.19,0,0,0,0-2.37,1.19,1.19,0,0,0,0,2.37Z"/><path class="cls-4" d="M100.21,37.52a1.19,1.19,0,0,0,0-2.37,1.19,1.19,0,0,0,0,2.37Z"/><path class="cls-4" d="M100.43,35.47a1.19,1.19,0,0,0,0-2.37,1.19,1.19,0,0,0,0,2.37Z"/><path class="cls-4" d="M99.35,34.17a1.19,1.19,0,0,0,0-2.37,1.19,1.19,0,0,0,0,2.37Z"/><path class="cls-4" d="M98.81,30.6a1.18,1.18,0,0,0,0-2.36,1.18,1.18,0,0,0,0,2.36Z"/><path class="cls-4" d="M99.46,33a1.19,1.19,0,0,0,0-2.37,1.19,1.19,0,0,0,0,2.37Z"/><path class="cls-4" d="M100.43,33.82a1.19,1.19,0,0,0,0-2.37,1.19,1.19,0,0,0,0,2.37Z"/><path class="cls-4" d="M100.54,32.22a1.18,1.18,0,0,0,0-2.36,1.18,1.18,0,0,0,0,2.36Z"/><path class="cls-4" d="M98.81,31.9a1.19,1.19,0,0,0,0-2.37,1.19,1.19,0,0,0,0,2.37Z"/><path class="cls-4" d="M100,30.17a1.19,1.19,0,0,0,0-2.37,1.19,1.19,0,0,0,0,2.37Z"/><path class="cls-4" d="M98.27,29.41a1.18,1.18,0,0,0,0-2.36,1.18,1.18,0,0,0,0,2.36Z"/><path class="cls-4" d="M98.48,27.68a1.18,1.18,0,0,0,0-2.36,1.18,1.18,0,0,0,0,2.36Z"/><path class="cls-4" d="M99.78,28.66a1.19,1.19,0,0,0,0-2.37,1.19,1.19,0,0,0,0,2.37Z"/><path class="cls-4" d="M99.89,26.39a1.19,1.19,0,0,0,0-2.37,1.19,1.19,0,0,0,0,2.37Z"/><path class="cls-4" d="M98.16,25.41a1.18,1.18,0,0,0,0-2.36,1.18,1.18,0,0,0,0,2.36Z"/><path class="cls-4" d="M96.86,22.17a1.19,1.19,0,0,0,0-2.37,1.19,1.19,0,0,0,0,2.37Z"/><path class="cls-4" d="M98.27,23.47a1.19,1.19,0,0,0,0-2.37,1.19,1.19,0,0,0,0,2.37Z"/><path class="cls-4" d="M99.13,24.55a1.19,1.19,0,0,0,0-2.37,1.19,1.19,0,0,0,0,2.37Z"/><path class="cls-4" d="M96,19a1.18,1.18,0,0,0,0-2.36A1.18,1.18,0,0,0,96,19Z"/><path class="cls-4" d="M94.05,16.22a1.18,1.18,0,0,0,0-2.36,1.18,1.18,0,0,0,0,2.36Z"/><path class="cls-4" d="M91.46,14.28a1.19,1.19,0,0,0,0-2.37,1.19,1.19,0,0,0,0,2.37Z"/><path class="cls-4" d="M97.94,21.63a1.19,1.19,0,0,0,0-2.37,1.19,1.19,0,0,0,0,2.37Z"/><path class="cls-4" d="M77,10.82a1.19,1.19,0,0,0,0-2.37,1.19,1.19,0,0,0,0,2.37Z"/><path class="cls-4" d="M75.24,11.68a1.18,1.18,0,0,0,0-2.36,1.18,1.18,0,0,0,0,2.36Z"/><path class="cls-4" d="M73.4,12a1.19,1.19,0,0,0,0-2.37,1.19,1.19,0,0,0,0,2.37Z"/><path class="cls-4" d="M71.45,11.57a1.18,1.18,0,0,0,0-2.36,1.18,1.18,0,0,0,0,2.36Z"/><path class="cls-4" d="M69.62,10.82a1.19,1.19,0,0,0,0-2.37,1.19,1.19,0,0,0,0,2.37Z"/><path class="cls-4" d="M72.1,10.6a1.19,1.19,0,0,0,0-2.37,1.19,1.19,0,0,0,0,2.37Z"/><path class="cls-4" d="M74.05,10.6a1.19,1.19,0,0,0,0-2.37,1.19,1.19,0,0,0,0,2.37Z"/><path class="cls-4" d="M75.35,10.38a1.18,1.18,0,0,0,0-2.36,1.18,1.18,0,0,0,0,2.36Z"/><path class="cls-4" d="M66.91,11.25a1.19,1.19,0,0,0,0-2.37,1.19,1.19,0,0,0,0,2.37Z"/><path class="cls-4" d="M56.54,14.17a1.19,1.19,0,0,0,0-2.37,1.19,1.19,0,0,0,0,2.37Z"/><path class="cls-4" d="M55,16.11a1.18,1.18,0,0,0,0-2.36,1.18,1.18,0,0,0,0,2.36Z"/><path class="cls-4" d="M53,17.2a1.19,1.19,0,0,0,0-2.37,1.19,1.19,0,0,0,0,2.37Z"/><path class="cls-4" d="M55,15.8a1.19,1.19,0,0,0,0-2.37,1.19,1.19,0,0,0,0,2.37Z"/><path class="cls-4" d="M68.43,10.38a1.18,1.18,0,0,0,0-2.36,1.18,1.18,0,0,0,0,2.36Z"/><path class="cls-4" d="M71,10.22a1.19,1.19,0,0,0,0-2.37,1.19,1.19,0,0,0,0,2.37Z"/><path class="cls-4" d="M78.55,10.38a1.18,1.18,0,0,0,0-2.36,1.18,1.18,0,0,0,0,2.36Z"/><path class="cls-4" d="M80.24,10.6a1.19,1.19,0,0,0,0-2.37,1.19,1.19,0,0,0,0,2.37Z"/><path class="cls-4" d="M53.4,18.82a1.19,1.19,0,0,0,0-2.37,1.19,1.19,0,0,0,0,2.37Z"/><path class="cls-4" d="M57.54,72.12l-.92.3a1.67,1.67,0,0,0-.92.71,1.6,1.6,0,0,0-.16,1.19l.09.21a2.34,2.34,0,0,0-1,.7c-1.47,1.62-2.26,18.22-.79,20.27a5.7,5.7,0,0,1,.44.78,4.3,4.3,0,0,0-.69.52,2.24,2.24,0,0,0-.5,2.45,2.49,2.49,0,0,0,1.92,1.47,3.26,3.26,0,0,0,1.47-.16,3,3,0,0,0,.14,2.44,2.5,2.5,0,0,0,1.41,1.06c-.59,1.21-.79,2.54.23,3.56a2.89,2.89,0,0,0,2,.89.66.66,0,0,0,0,.14c.06,1,.85-.85,1.73-.37s1.53,3.27,2.26,2.93a2.64,2.64,0,0,0,.84.92c1.5,1,3.23.3,4.29-1a3.35,3.35,0,0,0,2.86,3.55,3.23,3.23,0,0,0,3.27-1.6,3.29,3.29,0,0,0,3.42-1c.41,1.07,1.7,1.37,2.84,1.39s2.52,0,3.49-1a3.56,3.56,0,0,0,.39-.48,2.83,2.83,0,0,0,.42.06,3,3,0,0,0,3-2.17,3.82,3.82,0,0,0,1.66-.88,2.55,2.55,0,0,0,.86-1.52,3.22,3.22,0,0,0,1.82-1.41,2.71,2.71,0,0,0-.35-3.27,2.27,2.27,0,0,0-.94-.55c0-.13.09-.25.13-.37a4.41,4.41,0,0,0,3.82-2.22,3.65,3.65,0,0,0-.43-4.18c1.19-.81,2.42-17.93,1.81-19.44-.53-1.3-1.88-1.69-3.15-1.79a1.21,1.21,0,0,0-.65.13,4.27,4.27,0,0,0-.52-.76,1.57,1.57,0,0,0,.26-1.87l-.15-.3A1.55,1.55,0,0,0,91.19,71l-.11.09a1.49,1.49,0,0,0-1.44-1.92,1.45,1.45,0,0,0-.37,0c-1.27-2-2.56-4.08-3.75-4.67,0,0-2.79-2.35-5-1.32s-3.52,3.52-6,3.08-3.82-3.52-6-3.38a4.22,4.22,0,0,0-3.09,1.33s-2.05.44-4.55,4.4a16.4,16.4,0,0,1-1.13,1.61C58.09,69.28,57.54,72.12,57.54,72.12Z"/><path class="cls-6" d="M66.58,74.94s-2.65,2.35,3.82,3.82S83.17,77.44,83.62,77s3.37-3.23-1.47-4S67.9,73.32,66.58,74.94Z"/><path class="cls-4" d="M74.26,79.65a17.67,17.67,0,0,1-4-.43c-2.84-.64-4.36-1.53-4.67-2.73a2,2,0,0,1,.61-1.88c1.56-1.8,11.1-2.79,16-2,1.78.27,2.78.83,3.08,1.73s-.17,1.87-1.32,3C83.57,77.72,79.33,79.65,74.26,79.65ZM66.9,75.29a1.13,1.13,0,0,0-.36,1c.12.45.8,1.31,4,2a20.32,20.32,0,0,0,12.79-1.64c1.17-1.16,1.19-1.79,1.1-2.06-.16-.5-1-.89-2.31-1.09C76.93,72.72,68,73.94,67,75.24Z"/><path class="cls-6" d="M64.67,73.18c3.12-.32,6-1.91,8.52-2.06a68,68,0,0,1,9.54.73c2.35.3,5.14-1.46,4.56-.14s-2.94,2.2-8.23,2.35-7-.15-9.54.14S61.73,73.47,64.67,73.18Z"/><path class="cls-4" d="M68.54,74.73c-1.91,0-4.68-.39-5.1-1l-.16-.22.09-.34c.16-.34.58-.44,1.25-.51a21.6,21.6,0,0,0,4.45-1.09,17.61,17.61,0,0,1,4.09-1,68,68,0,0,1,9.63.74,8.49,8.49,0,0,0,3-.4c1-.25,1.53-.4,1.87,0a.83.83,0,0,1,0,.92c-.73,1.65-3.48,2.49-8.64,2.63-2.4.07-4.07,0-5.41,0a29.88,29.88,0,0,0-4.1.12A10.14,10.14,0,0,1,68.54,74.73Zm-2.91-1.2a15.5,15.5,0,0,0,3.83.2,31.7,31.7,0,0,1,4.22-.13c1.33,0,3,.05,5.37,0,5.26-.15,7.1-1,7.67-1.84l-.66.16a9.34,9.34,0,0,1-3.39.43,67.73,67.73,0,0,0-9.45-.73,16.75,16.75,0,0,0-3.86.92A28,28,0,0,1,65.63,73.53Z"/><text class="cls-7" transform="translate(18.65 138.82)"><tspan class="cls-8">R</tspan><tspan x="12.12" y="0">ené Mo</tspan><tspan class="cls-9" x="74.7" y="0">r</tspan><tspan x="81.55" y="0">eno</tspan></text></g></svg>