<?xml version="1.0" standalone="no"?>
<!DOCTYPE svg PUBLIC "-//W3C//DTD SVG 20010904//EN"
 "http://www.w3.org/TR/2001/REC-SVG-20010904/DTD/svg10.dtd">
<svg version="1.0" xmlns="http://www.w3.org/2000/svg"
 width="456.000000pt" height="432.000000pt" viewBox="0 0 456.000000 432.000000"
 preserveAspectRatio="xMidYMid meet">

<g transform="translate(0.000000,432.000000) scale(0.100000,-0.100000)"
fill="#000000" stroke="none">
<path d="M2122 3987 c-27 -35 -10 -72 39 -90 8 -3 25 -29 37 -59 l21 -53 0 38
c1 48 23 58 57 26 21 -20 27 -21 34 -9 5 8 10 18 10 23 0 11 48 9 55 -3 11
-17 25 -11 25 11 0 11 6 27 14 35 21 20 29 17 16 -6 -8 -15 -6 -24 10 -40 11
-11 26 -20 34 -20 15 0 32 -37 42 -92 7 -45 2 -46 -57 -13 -68 38 -70 39 -80
24 -11 -18 -39 -2 -56 32 l-13 24 0 -28 c0 -32 -20 -43 -50 -27 -17 9 -24 9
-33 -3 -8 -10 -27 -15 -52 -14 l-40 1 -3 -51 c-3 -44 0 -52 17 -58 12 -3 26
-3 33 0 7 4 5 0 -5 -8 -16 -14 -16 -16 -2 -31 9 -9 20 -16 25 -16 13 0 82 -69
103 -102 13 -20 26 -28 47 -28 16 0 32 5 35 10 3 6 14 10 24 10 10 0 26 9 36
20 10 11 31 20 46 20 22 0 30 6 35 25 3 14 4 34 1 45 -6 25 20 50 29 26 5 -14
9 -14 35 0 28 14 31 14 48 -7 15 -19 20 -20 41 -9 15 8 52 12 92 11 43 -2 68
2 68 8 0 6 -8 11 -19 11 -34 0 -44 26 -38 90 6 57 6 60 -18 66 -13 3 -31 17
-40 30 -8 13 -22 24 -31 24 -8 0 -29 14 -47 31 -18 17 -51 40 -74 50 -23 11
-45 24 -49 30 -4 7 -22 9 -46 5 -29 -5 -40 -3 -44 8 -8 21 -34 28 -51 14 -12
-10 -17 -9 -25 6 -7 13 -17 16 -34 12 -14 -4 -30 -3 -37 1 -21 13 -154 13
-165 0z m68 -37 c0 -5 -7 -10 -15 -10 -8 0 -15 5 -15 10 0 6 7 10 15 10 8 0
15 -4 15 -10z m317 -36 c-3 -3 -12 -4 -19 -1 -8 3 -5 6 6 6 11 1 17 -2 13 -5z
m72 -126 c16 30 29 28 33 -5 2 -20 8 -28 21 -27 25 2 33 -40 13 -71 l-16 -24
-48 27 c-39 24 -48 34 -50 62 -2 18 0 45 3 59 l7 26 13 -35 c11 -34 12 -34 24
-12z m-52 -130 c-3 -8 -6 -5 -6 6 -1 11 2 17 5 13 3 -3 4 -12 1 -19z"/>
<path d="M2045 3960 c-3 -5 1 -10 9 -10 9 0 16 5 16 10 0 6 -4 10 -9 10 -6 0
-13 -4 -16 -10z"/>
<path d="M1955 3927 c26 -20 1 -32 -35 -17 -16 6 -37 10 -46 8 -20 -3 -23 0
40 -51 23 -18 27 -28 21 -43 -7 -18 -8 -18 -12 -1 -5 18 -63 54 -63 38 0 -5 7
-11 15 -15 22 -8 18 -36 -5 -36 -11 0 -20 -7 -20 -15 0 -12 -7 -14 -27 -9 -16
4 -32 11 -37 15 -14 12 -46 11 -46 -1 0 -5 7 -10 15 -10 15 0 24 -3 82 -34 34
-17 35 -17 68 29 13 18 14 19 15 2 0 -12 4 -15 13 -10 6 4 21 8 32 8 16 0 20
7 20 35 0 31 3 35 28 38 26 3 28 6 22 30 -8 33 -32 51 -69 52 -28 0 -28 -1
-11 -13z"/>
<path d="M1806 3913 c-3 -3 -3 -10 0 -14 7 -12 34 -11 34 0 0 11 -26 22 -34
14z"/>
<path d="M1607 3793 c-13 -13 -7 -21 13 -16 11 3 20 9 20 14 0 10 -24 12 -33
2z"/>
<path d="M1703 3783 c-20 -8 -15 -23 7 -23 11 0 20 7 20 15 0 15 -6 17 -27 8z"/>
<path d="M1573 3743 c-18 -7 -16 -23 2 -23 8 0 15 7 15 15 0 8 -1 15 -2 14 -2
0 -9 -3 -15 -6z"/>
<path d="M2045 3720 c-31 -34 1 -120 46 -120 27 0 33 19 16 53 -9 18 -19 44
-22 60 -6 32 -16 34 -40 7z"/>
<path d="M1635 3710 c-26 -6 -22 -8 23 -9 33 -1 51 3 47 9 -7 11 -26 11 -70 0z"/>
<path d="M1605 3670 c-4 -6 10 -10 35 -10 25 0 39 4 35 10 -3 6 -19 10 -35 10
-16 0 -32 -4 -35 -10z"/>
<path d="M1542 3640 c-28 -23 -21 -40 17 -40 31 0 48 29 28 49 -14 14 -18 14
-45 -9z"/>
<path d="M2886 3643 c-3 -3 4 -15 15 -27 12 -12 19 -30 16 -43 -2 -12 -1 -20
3 -18 4 3 15 -4 25 -15 15 -16 15 -22 5 -35 -10 -13 -9 -15 7 -15 26 0 34 -9
23 -29 -5 -9 -11 -24 -14 -33 -3 -10 -14 -18 -25 -18 -31 0 -34 -17 -11 -65
20 -42 22 -43 58 -38 35 5 36 5 17 -10 -11 -9 -25 -17 -32 -17 -17 0 -15 -120
1 -140 21 -25 38 -81 23 -79 -39 5 -48 -11 -52 -86 -3 -46 3 -77 25 -130 15
-34 28 -114 40 -240 19 -195 22 -210 47 -213 17 -2 23 3 28 28 4 17 15 36 26
43 10 6 19 20 19 30 0 24 44 39 94 33 23 -3 332 -8 689 -11 l647 -7 0 30 0 30
-132 7 c-73 3 -383 4 -689 1 -305 -2 -561 -1 -568 3 -10 7 -11 29 -6 95 7 81
6 89 -14 110 -18 19 -22 38 -25 115 -3 73 -1 91 10 91 18 0 18 11 -1 36 -20
26 -19 34 5 34 19 0 20 5 15 67 -4 57 -11 76 -44 123 -21 31 -41 74 -45 96
-10 49 -43 124 -56 124 -6 0 -10 10 -10 23 0 12 -9 33 -20 47 -11 14 -20 29
-20 34 0 12 -68 75 -74 69z m184 -408 c0 -8 -2 -15 -4 -15 -2 0 -6 7 -10 15
-3 8 -1 15 4 15 6 0 10 -7 10 -15z m29 -712 c1 -13 -3 -23 -8 -23 -11 0 -18
47 -12 75 4 18 5 17 12 -5 4 -14 7 -35 8 -47z"/>
<path d="M1605 3631 c-8 -15 26 -44 38 -32 6 6 5 15 -6 25 -18 18 -24 20 -32
7z"/>
<path d="M2827 3569 c-3 -10 1 -24 9 -30 8 -6 22 -28 31 -48 18 -37 32 -53 44
-45 10 6 -24 73 -38 74 -15 0 -17 16 -3 25 18 11 10 33 -14 37 -18 4 -26 0
-29 -13z"/>
<path d="M1473 3573 c-24 -9 -14 -30 12 -25 14 2 25 11 25 18 0 14 -14 17 -37
7z"/>
<path d="M1410 3445 c-8 -16 -19 -33 -25 -37 -13 -10 -33 -121 -27 -158 l4
-30 24 27 c14 16 32 36 41 46 15 16 15 17 -4 17 -31 0 -36 13 -12 31 21 16 22
18 6 34 -21 20 -21 25 -1 39 10 7 14 22 12 37 -4 24 -4 24 -18 -6z"/>
<path d="M1441 3384 c0 -11 3 -14 6 -6 3 7 2 16 -1 19 -3 4 -6 -2 -5 -13z"/>
<path d="M1336 3065 c-9 -25 -7 -53 4 -60 6 -3 15 6 20 21 8 21 8 31 -3 42
-12 12 -15 11 -21 -3z"/>
<path d="M1326 2925 c-3 -8 -2 -15 3 -15 5 0 14 7 21 15 10 12 10 15 -3 15 -8
0 -17 -7 -21 -15z"/>
<path d="M2285 2779 c-8 -24 -13 -25 -81 -15 -25 4 -53 1 -75 -8 -19 -7 -63
-17 -99 -21 -74 -8 -100 -19 -100 -41 0 -8 -4 -12 -10 -9 -5 3 -7 0 -4 -8 3
-8 -8 -28 -25 -45 -17 -17 -31 -33 -31 -36 0 -4 18 -3 40 0 22 4 40 4 40 2 0
-3 -24 -17 -54 -32 -30 -15 -72 -43 -93 -61 -36 -32 -37 -34 -14 -35 13 0 47
12 76 26 47 24 54 25 81 13 33 -16 47 -59 19 -59 -13 0 -16 -6 -12 -21 4 -16
0 -23 -15 -27 -18 -4 -14 -8 23 -28 64 -33 110 -21 217 58 56 42 95 108 107
182 4 22 17 48 32 62 22 21 25 29 19 68 -7 47 -31 68 -41 35z"/>
<path d="M2397 2758 c3 -20 -2 -34 -21 -51 -14 -13 -22 -27 -18 -31 4 -4 -1
-12 -11 -17 -27 -15 -20 -34 15 -44 38 -11 83 -79 120 -177 6 -16 17 -28 24
-28 8 0 22 -4 32 -9 35 -18 130 -34 168 -27 41 8 167 71 185 93 6 7 17 13 24
13 7 0 18 7 25 15 11 13 5 18 -34 35 -25 12 -50 30 -56 40 -11 21 -11 22 19
24 11 0 22 4 25 7 11 11 -57 79 -77 79 -11 0 -36 12 -55 27 -28 21 -50 28
-107 32 -40 4 -79 11 -86 17 -18 14 -77 16 -102 3 -22 -13 -64 -4 -70 14 -2 6
-2 0 0 -15z"/>
<path d="M1263 2732 c-7 -5 -16 -28 -19 -53 -5 -35 -1 -54 14 -82 l20 -38 6
48 c15 122 11 145 -21 125z"/>
<path d="M1483 2640 c0 -30 2 -43 4 -27 2 15 2 39 0 55 -2 15 -4 2 -4 -28z"/>
<path d="M0 2575 l0 -35 603 -2 c514 -3 604 -1 614 11 17 20 16 29 -4 39 -10
5 -287 12 -615 15 l-598 6 0 -34z"/>
<path d="M1363 2504 c-27 -30 -30 -66 -8 -84 13 -11 19 -9 36 8 11 12 24 22
29 22 14 0 12 42 -4 63 -18 23 -27 21 -53 -9z"/>
<path d="M2540 2295 c0 -8 7 -33 16 -55 18 -44 14 -67 -13 -77 -10 -3 -30 -15
-46 -25 -19 -14 -36 -18 -57 -13 -32 7 -79 -19 -80 -44 0 -9 -8 -11 -27 -6
-16 4 -28 7 -28 8 0 1 -5 11 -11 22 -12 20 -34 23 -85 10 -42 -11 -63 18 -56
77 6 51 1 78 -14 78 -12 0 -79 -69 -79 -81 0 -5 -6 -9 -13 -9 -7 0 -23 -11
-35 -25 -12 -14 -30 -25 -40 -25 -54 0 -116 -107 -132 -230 -8 -66 3 -96 42
-109 16 -6 27 -15 23 -20 -3 -6 4 -20 15 -31 15 -15 19 -28 14 -43 -3 -12 -7
-26 -8 -30 -1 -11 75 -19 90 -9 17 10 44 80 44 112 0 15 10 40 22 55 20 25 24
27 72 20 84 -12 107 -14 200 -19 101 -6 128 -16 42 -16 -58 0 -85 -9 -117 -39
-16 -15 -17 -21 -5 -56 24 -70 106 -104 166 -70 14 8 38 14 53 15 28 0 34 7
40 47 5 34 24 50 69 57 38 6 40 8 22 21 -18 14 -18 14 4 15 12 0 22 -5 22 -11
0 -6 7 -17 15 -25 8 -9 15 -25 15 -37 0 -12 9 -37 21 -56 15 -25 19 -44 15
-78 -3 -25 -7 -48 -10 -50 -3 -3 -26 -7 -51 -9 -53 -4 -115 18 -115 40 0 11
-9 16 -29 16 -23 0 -30 -5 -33 -22 -3 -21 -8 -23 -71 -23 l-68 0 -54 -59 c-29
-32 -58 -55 -63 -52 -12 7 -25 -22 -16 -36 3 -5 -1 -17 -10 -27 -13 -14 -14
-27 -8 -57 12 -57 -24 -145 -41 -100 -7 19 -126 96 -132 86 -3 -5 -1 -11 5
-15 5 -3 10 -10 10 -16 0 -13 -47 -11 -56 2 -4 7 -21 9 -43 5 -29 -4 -39 -2
-49 14 -7 11 -18 20 -25 20 -7 0 -25 11 -40 25 -46 43 -30 5 25 -59 79 -92
153 -161 261 -242 54 -41 100 -74 103 -74 17 0 64 -44 64 -60 0 -11 -82 -101
-196 -216 -148 -149 -198 -194 -205 -183 -5 8 -9 19 -9 24 0 6 -12 87 -25 180
-14 94 -25 202 -24 240 2 55 -2 79 -19 112 -22 41 -83 225 -122 363 -50 177
-75 250 -115 330 -54 107 -70 146 -79 191 -10 57 -25 63 -87 39 -62 -25 -91
-37 -174 -75 -33 -15 -82 -36 -110 -47 -27 -11 -84 -35 -125 -55 -41 -19 -84
-39 -95 -43 -11 -4 -36 -15 -55 -23 -20 -9 -71 -30 -115 -47 -44 -18 -84 -36
-89 -41 -6 -5 -15 -9 -22 -9 -7 0 -45 -15 -86 -34 -40 -18 -95 -42 -123 -52
-58 -21 -352 -167 -378 -187 -16 -13 -17 -58 -17 -691 l0 -676 958 0 958 0 -7
67 c-4 38 -12 105 -17 151 -12 103 -8 122 27 122 38 0 128 28 173 53 21 11 41
17 45 13 13 -12 30 -256 22 -295 -4 -20 -12 -53 -17 -73 l-10 -38 219 0 c210
0 219 1 219 19 0 30 19 35 26 6 6 -24 8 -25 96 -25 l90 0 -6 58 c-5 40 -13 61
-27 71 -29 20 -23 34 22 55 106 51 155 180 145 381 -8 176 -16 228 -37 248
-23 22 -25 83 -4 133 23 55 21 84 -9 144 -33 67 -68 95 -114 92 -26 -2 -38 3
-53 23 -28 34 -63 32 -141 -8 -55 -28 -66 -39 -90 -87 -27 -55 -36 -118 -19
-135 5 -6 13 -27 16 -47 l7 -38 -31 11 c-17 6 -28 15 -25 20 3 5 -3 21 -14 37
-63 90 -56 243 16 327 18 22 71 61 112 84 38 21 176 26 227 8 23 -8 45 -11 50
-8 11 8 46 85 58 129 9 32 24 27 42 -15 13 -29 17 -77 19 -208 3 -155 6 -181
34 -290 35 -129 45 -229 59 -560 6 -144 13 -208 29 -265 11 -41 26 -94 32
-117 l11 -43 735 0 735 0 -3 648 -3 647 -24 58 c-14 33 -43 77 -67 101 -48 48
-178 119 -251 137 -26 7 -76 25 -111 41 -127 57 -286 109 -397 127 -118 21
-253 58 -454 127 -106 36 -198 63 -205 61 -7 -3 -18 -24 -26 -48 -13 -40 -79
-123 -81 -103 0 5 -2 17 -4 27 -2 10 6 26 17 37 23 21 17 40 -10 33 -14 -3
-21 5 -31 36 -6 23 -16 41 -20 41 -5 0 -11 18 -15 41 -5 30 -12 42 -27 46 -12
4 -18 11 -15 20 4 9 -6 19 -27 28 -17 7 -63 43 -102 80 -121 114 -134 125
-150 125 -8 0 -15 -7 -15 -15z m-277 -269 c5 -12 1 -28 -9 -44 -15 -23 -15
-26 -1 -34 9 -5 14 -15 11 -23 -8 -19 -139 -21 -151 -2 -27 44 44 127 107 124
24 -1 37 -8 43 -21z m314 -1387 c4 -63 8 -118 8 -124 0 -5 -7 -10 -15 -10 -11
0 -17 17 -23 60 -5 33 -14 63 -20 67 -8 5 -9 11 -2 16 19 13 34 58 24 73 -5 8
-9 30 -8 49 l0 35 14 -26 c8 -16 18 -75 22 -140z m-97 -98 c0 -70 -12 -100
-24 -58 -8 29 -8 91 0 111 14 35 24 12 24 -53z m-244 -37 c34 -35 33 -128 0
-210 -24 -57 -24 -58 -31 -29 -3 17 -10 48 -15 70 -11 48 -1 195 13 195 5 0
20 -11 33 -26z m308 -72 c9 -15 -6 -52 -20 -52 -20 0 -29 27 -14 45 14 17 26
19 34 7z m29 -68 c-4 -10 -9 -12 -15 -6 -12 12 -1 35 12 27 5 -3 6 -13 3 -21z"/>
</g>
</svg>
