<?xml version="1.0" standalone="no"?>
<!DOCTYPE svg PUBLIC "-//W3C//DTD SVG 20010904//EN"
 "http://www.w3.org/TR/2001/REC-SVG-20010904/DTD/svg10.dtd">
<svg version="1.0" xmlns="http://www.w3.org/2000/svg"
 width="928.000000pt" height="972.000000pt" viewBox="0 0 928.000000 972.000000"
 preserveAspectRatio="xMidYMid meet">

<g transform="translate(0.000000,972.000000) scale(0.100000,-0.100000)"
fill="#000000" stroke="none">
<path d="M0 9710 c0 -12 123 -12 160 0 17 5 -6 8 -67 9 -56 1 -93 -3 -93 -9z"/>
<path d="M303 9713 c15 -2 39 -2 55 0 15 2 2 4 -28 4 -30 0 -43 -2 -27 -4z"/>
<path d="M3545 9686 c-47 -22 -83 -49 -110 -80 -29 -34 -47 -46 -67 -46 -31 0
-127 -58 -127 -77 -1 -15 -59 -63 -76 -63 -7 0 -35 -11 -62 -25 -55 -28 -132
-45 -208 -45 -68 0 -142 -25 -181 -62 -17 -16 -46 -33 -65 -38 -19 -5 -48 -22
-65 -37 -17 -16 -59 -52 -92 -82 -48 -42 -71 -73 -107 -144 -25 -50 -54 -97
-65 -104 -11 -8 -20 -19 -20 -24 0 -6 -13 -30 -30 -54 -16 -24 -30 -48 -30
-54 0 -6 -7 -11 -15 -11 -9 0 -20 -11 -25 -24 -5 -13 -14 -26 -21 -28 -7 -2
-13 -12 -15 -21 -4 -28 -48 -75 -77 -82 -15 -4 -32 -15 -37 -25 -5 -10 -27
-28 -47 -41 -21 -12 -45 -29 -53 -36 -72 -65 -142 -103 -189 -103 -15 0 -31
-8 -38 -19 -8 -13 -19 -17 -37 -14 -18 4 -32 -2 -50 -20 -14 -15 -26 -24 -26
-21 0 9 -55 -31 -77 -56 -12 -14 -23 -36 -23 -50 0 -14 -7 -36 -15 -50 -30
-52 -56 -114 -53 -129 1 -9 -1 -21 -4 -27 -7 -11 -29 -119 -33 -166 -1 -16 -3
-32 -4 -38 0 -5 -8 -10 -16 -10 -9 0 -18 -7 -21 -15 -3 -8 -14 -17 -24 -20
-22 -7 -61 -78 -86 -158 -21 -66 -13 -84 29 -68 26 10 27 9 27 -24 0 -31 -3
-35 -52 -53 -29 -11 -78 -36 -108 -56 -30 -20 -66 -39 -79 -43 -46 -12 -126
-70 -196 -144 -28 -28 -62 -63 -76 -78 -34 -34 -46 -57 -65 -128 -29 -104 -34
-145 -40 -303 -3 -85 -10 -159 -15 -164 -5 -6 -9 -31 -9 -56 0 -25 -5 -51 -12
-58 -7 -7 -11 -40 -10 -85 2 -53 -2 -78 -12 -86 -7 -6 -19 -46 -27 -88 -13
-73 -15 -77 -59 -110 -36 -27 -53 -50 -75 -101 -16 -37 -35 -71 -43 -75 -7 -5
-25 -35 -38 -67 -15 -33 -35 -63 -49 -70 -13 -7 -23 -17 -22 -23 3 -15 -92
-47 -139 -47 -35 0 -45 -5 -73 -40 -21 -26 -40 -40 -56 -40 -48 0 -55 -9 -55
-71 0 -57 1 -59 25 -59 15 0 36 11 50 26 21 22 30 25 70 21 26 -3 49 -7 51
-10 3 -2 -7 -31 -22 -63 -15 -33 -28 -66 -29 -74 -1 -8 -3 -20 -4 -27 0 -6
-15 -10 -36 -8 -31 3 -39 -2 -70 -39 l-35 -43 0 -2617 0 -2616 4640 0 4640 0
0 4860 0 4860 -515 0 -515 0 -1 -67 c-1 -38 -3 -60 -6 -50 -5 20 -8 20 -34 7
-10 -6 -19 -18 -19 -28 0 -9 -10 -22 -22 -27 -13 -6 -24 -20 -26 -32 -2 -14
-10 -23 -21 -23 -10 0 -24 -6 -30 -13 -8 -11 -6 -13 11 -13 35 1 34 -30 -2
-49 -17 -9 -28 -20 -26 -24 3 -5 -3 -16 -13 -25 -11 -10 -25 -30 -31 -46 -7
-16 -21 -32 -31 -35 -10 -4 -19 -10 -19 -14 0 -4 -24 -20 -54 -35 -30 -16 -57
-37 -59 -48 -3 -11 -11 -18 -19 -17 -29 4 -36 -3 -52 -42 -9 -22 -20 -38 -25
-35 -10 6 -107 -40 -136 -64 -19 -16 -53 -27 -119 -36 -16 -2 -34 -8 -40 -13
-6 -5 -30 -14 -54 -20 -38 -11 -41 -14 -32 -31 6 -11 15 -20 20 -20 6 0 10 -9
10 -20 0 -14 -9 -20 -35 -25 -19 -3 -51 -8 -71 -11 -26 -4 -34 -9 -30 -20 3
-8 2 -13 -3 -10 -7 5 -22 -15 -25 -34 -1 -3 -11 -15 -23 -27 -13 -13 -23 -32
-23 -42 0 -27 -21 -37 -35 -18 -7 10 -26 17 -44 17 -29 0 -31 -2 -31 -38 0
-33 -4 -40 -27 -48 -39 -14 -113 4 -113 27 0 25 -75 89 -106 89 -28 0 -94 36
-94 51 0 5 -35 9 -78 9 l-78 0 -47 54 c-26 30 -51 66 -57 80 -5 14 -13 26 -18
26 -4 0 -13 15 -20 33 -7 18 -25 43 -42 55 -32 24 -37 41 -18 71 19 31 2 50
-79 87 -50 23 -91 51 -115 77 -21 23 -38 44 -38 47 0 4 -33 29 -72 55 -40 27
-91 61 -113 76 -23 15 -77 44 -120 64 -44 21 -96 50 -115 65 -83 66 -213 65
-282 -1 -31 -29 -75 -38 -94 -20 -15 15 -144 16 -154 2 -5 -9 -18 -11 -38 -6
-21 4 -39 1 -55 -10 -23 -15 -29 -15 -84 3 -35 12 -64 16 -74 11 -14 -7 -51 6
-124 44 -11 5 -51 12 -90 15 -60 4 -73 8 -92 31 -19 23 -30 27 -105 31 -60 4
-92 1 -116 -10 -29 -13 -36 -12 -65 3 -28 14 -76 16 -397 17 l-365 0 -70 -34z
m3335 -970 c0 -11 -19 -15 -25 -6 -3 5 1 10 9 10 9 0 16 -2 16 -4z m-1223 -63
c40 -19 75 -43 78 -52 11 -32 58 -56 115 -57 30 -1 60 -2 67 -3 6 0 17 -18 24
-38 6 -21 16 -44 22 -50 7 -9 5 -13 -7 -13 -23 0 -31 -45 -12 -72 9 -12 16
-28 16 -36 0 -7 13 -30 29 -50 16 -20 32 -47 36 -59 3 -13 10 -23 14 -23 5 0
14 -13 21 -29 6 -16 18 -32 24 -34 7 -3 16 -18 20 -34 4 -17 22 -40 49 -58 23
-17 42 -37 42 -45 0 -29 30 -60 83 -87 41 -21 55 -33 59 -55 3 -15 10 -28 15
-28 6 0 8 -17 4 -43 -8 -51 1 -62 57 -72 20 -4 40 -11 43 -17 3 -5 13 -6 22
-4 13 4 25 -11 50 -65 l32 -70 -20 -61 c-11 -34 -20 -78 -20 -98 0 -64 -17
-97 -59 -114 -21 -8 -41 -21 -44 -29 -6 -15 -78 -37 -121 -37 -21 0 -151 -54
-223 -93 -48 -26 -93 -71 -112 -110 -20 -44 -22 -55 -44 -207 -7 -52 -19 -106
-26 -119 -8 -14 -14 -57 -15 -95 -1 -88 -16 -105 -91 -106 -53 0 -125 16 -125
28 0 4 -13 13 -30 20 -16 7 -43 26 -60 42 -17 16 -40 32 -51 35 -10 4 -19 12
-19 19 0 7 -9 21 -20 31 -25 23 -45 87 -35 112 5 10 7 25 6 34 -1 9 9 33 23
53 62 92 0 226 -104 226 -12 0 -35 8 -53 17 -44 23 -107 32 -277 42 -113 6
-159 5 -210 -7 -38 -8 -90 -12 -125 -9 -61 6 -95 -4 -95 -27 0 -26 -107 -106
-142 -106 -13 0 -33 -7 -44 -15 -10 -8 -29 -15 -42 -15 -12 0 -41 -10 -64 -21
-40 -21 -42 -21 -55 -3 -14 19 -12 160 2 230 6 29 2 35 -53 84 -34 29 -63 64
-67 77 -3 13 -14 32 -25 43 -11 11 -16 20 -11 20 5 0 8 11 5 25 -4 25 9 34 21
15 14 -22 65 -10 103 24 29 27 41 32 55 25 9 -6 17 -15 17 -21 0 -18 31 -48
50 -48 9 0 26 9 38 20 16 16 20 27 15 55 -4 27 -1 41 14 58 11 12 23 34 27 50
3 15 10 27 14 27 4 0 7 21 6 47 -1 27 4 60 12 76 8 15 65 78 125 140 61 61
125 132 141 157 38 56 62 149 48 185 -6 15 -10 37 -10 51 0 29 -28 44 -44 23
-15 -19 -36 -22 -36 -5 0 7 -6 19 -14 25 -13 11 -15 3 -15 -53 0 -79 -16 -120
-19 -49 -1 25 -5 55 -8 66 -4 13 -2 17 5 13 6 -4 11 -3 11 3 0 5 -5 13 -10 16
-6 4 -7 11 -4 17 4 6 7 31 7 57 0 25 8 61 18 80 10 18 15 39 13 46 -3 7 1 28
9 47 14 34 16 35 68 32 57 -3 136 19 224 61 42 20 60 23 110 18 33 -3 72 -12
86 -21 24 -13 31 -13 80 6 30 11 66 18 79 15 14 -2 35 -1 47 4 12 4 60 7 105
5 72 -3 93 -8 155 -39z m-3957 -560 c0 -20 -49 -66 -73 -69 -29 -3 -34 11 -14
36 21 26 87 51 87 33z m-110 -113 c0 -5 -4 -10 -10 -10 -5 0 -10 5 -10 10 0 6
5 10 10 10 6 0 10 -4 10 -10z m-10 -59 c0 -12 -9 -20 -27 -24 -38 -7 -42 1
-13 23 32 25 40 25 40 1z m-16 -397 c25 -24 19 -44 -19 -60 -53 -22 -75 -19
-75 11 0 51 61 83 94 49z m5056 -183 c0 -59 -7 -67 -37 -39 -26 24 -28 36 -12
93 l11 39 19 -23 c13 -15 19 -39 19 -70z m-5360 -141 c0 -11 -9 -36 -19 -57
-11 -21 -22 -67 -25 -104 -5 -74 -25 -121 -60 -144 -13 -9 -29 -29 -36 -45 -9
-23 -19 -30 -39 -30 -15 0 -44 -9 -66 -20 -22 -11 -50 -20 -62 -20 -13 0 -32
-5 -42 -12 -50 -31 -72 48 -28 102 12 16 42 56 67 89 25 33 51 60 58 60 6 1
12 5 12 11 0 5 18 26 40 46 22 21 40 43 40 49 0 25 42 65 68 65 15 1 38 7 52
15 34 19 40 18 40 -5z m2857 -68 c6 -4 20 -31 32 -61 l20 -53 -24 -24 c-13
-13 -33 -24 -44 -24 -11 0 -23 -4 -26 -10 -3 -5 -17 -10 -29 -10 -33 0 -41 54
-15 92 11 14 19 39 19 55 0 16 3 33 7 36 9 9 45 9 60 -1z m-3159 -55 c2 -15
-1 -27 -7 -27 -15 0 -113 -103 -133 -139 -9 -17 -22 -31 -28 -31 -42 0 4 101
81 178 58 57 82 62 87 19z m5676 -27 c18 -18 24 -56 13 -95 -3 -11 -6 -26 -6
-33 -1 -7 -12 -17 -26 -22 -14 -5 -25 -16 -25 -24 0 -23 -22 -25 -63 -4 -27
13 -65 20 -127 22 -48 2 -92 6 -97 9 -17 11 -13 74 5 90 9 8 44 22 77 30 33 9
80 25 105 37 53 24 114 20 144 -10z m-1859 -110 c22 -11 45 -19 51 -20 6 0 17
-6 23 -14 8 -9 24 -12 49 -9 39 5 124 -17 130 -35 1 -5 -6 -12 -18 -15 -11 -3
-20 -11 -20 -19 0 -7 -25 -22 -57 -34 -33 -11 -57 -25 -55 -32 3 -18 -16 -15
-26 5 -9 14 -15 12 -53 -19 -36 -29 -48 -34 -65 -26 -15 7 -32 3 -70 -16 -27
-14 -65 -32 -84 -41 -19 -9 -66 -31 -105 -50 -76 -36 -131 -55 -160 -55 -15 0
-17 6 -13 45 5 37 2 45 -13 50 -11 4 -22 18 -25 33 -11 44 -14 45 -50 8 -19
-20 -47 -39 -62 -42 -15 -4 -44 -22 -64 -40 -67 -60 -141 -52 -188 21 -11 16
-27 40 -36 52 -15 21 -15 25 0 48 12 19 25 25 52 25 31 0 35 -3 29 -20 -3 -11
-4 -24 0 -29 10 -18 35 1 43 33 7 27 13 31 48 34 46 4 66 18 44 32 -19 12 -16
13 54 38 52 19 61 20 80 7 23 -17 92 -20 101 -5 3 6 18 10 32 10 14 0 42 14
63 30 21 17 47 30 58 30 12 0 24 5 27 10 3 6 27 10 53 11 26 0 65 4 87 8 64
14 97 12 140 -9z m1472 -36 c-3 -3 -12 -4 -19 -1 -8 3 -5 6 6 6 11 1 17 -2 13
-5z m-2359 -16 c-6 -18 -28 -21 -28 -4 0 9 7 16 16 16 9 0 14 -5 12 -12z
m-110 -35 c-4 -43 -41 -76 -75 -67 -27 8 -28 16 -6 66 15 33 21 38 51 38 32 0
33 -1 30 -37z m-94 -79 c9 -3 16 -13 16 -21 0 -18 -29 -70 -52 -95 -10 -10
-18 -24 -19 -30 0 -7 -4 -4 -8 7 -8 19 0 50 26 113 15 35 15 35 37 26z m1282
-52 c16 -10 -29 -43 -45 -33 -10 6 -9 12 4 25 18 18 25 19 41 8z m-4012 -86
c-9 -14 -22 -26 -29 -26 -19 0 -105 -69 -105 -84 0 -8 -7 -17 -16 -20 -24 -9
-15 83 10 98 10 6 30 21 44 34 14 12 35 24 46 27 70 14 77 10 50 -29z m2870 7
c20 -29 23 -40 15 -56 -9 -16 -17 -18 -52 -13 -54 9 -70 23 -62 55 16 63 62
70 99 14z m1686 -171 c0 -15 -38 -44 -49 -37 -6 3 -11 15 -11 26 0 14 7 19 30
19 17 0 30 -4 30 -8z m-4513 -59 c10 -12 25 -22 33 -23 11 0 11 -3 2 -12 -7
-7 -12 -21 -12 -33 0 -26 -18 -45 -42 -45 -10 0 -19 -3 -20 -7 -6 -31 -4 -70
4 -80 14 -18 2 -43 -21 -43 -21 0 -31 18 -31 60 0 15 -7 33 -15 40 -24 20 -19
88 10 126 14 18 25 37 25 41 0 5 6 15 12 21 10 10 15 9 25 -5 7 -10 21 -28 30
-40z m3063 32 c44 0 45 -1 42 -30 -5 -44 -24 -60 -52 -45 -13 7 -54 18 -92 24
l-69 12 22 28 c20 25 25 27 63 20 22 -5 61 -8 86 -9z m2625 -7 c31 -20 39 -34
61 -108 14 -47 38 -125 55 -175 38 -118 38 -155 -1 -188 -45 -39 -95 -51 -215
-51 -97 -1 -119 2 -184 27 -41 15 -95 38 -120 51 -25 13 -63 32 -84 42 -43 20
-101 99 -110 152 -4 17 -4 32 -1 32 13 0 74 -57 75 -70 0 -10 2 -11 6 -2 6 14
39 16 48 2 3 -5 17 -10 31 -10 28 0 33 29 9 54 -13 13 -13 16 1 30 23 24 64
21 64 -4 0 -11 4 -20 9 -20 5 0 13 9 16 20 7 21 45 28 45 9 0 -7 17 -9 52 -4
61 9 75 23 100 103 22 71 63 132 88 132 11 0 36 -10 55 -22z m-2989 -163 c9
-35 15 -40 42 -43 37 -4 82 -52 82 -87 0 -14 9 -29 21 -35 16 -9 19 -17 14
-40 -4 -16 -3 -39 0 -51 6 -19 8 -20 26 -3 10 9 19 25 19 34 0 9 11 26 25 38
14 12 25 28 25 35 0 25 -33 112 -49 131 -9 10 -15 21 -13 24 2 3 -3 9 -12 12
-10 3 -12 10 -7 19 6 10 21 12 52 7 24 -4 78 -9 119 -12 51 -5 83 -12 99 -25
13 -11 34 -19 48 -19 60 0 143 -62 143 -108 0 -30 33 -103 68 -149 49 -66 220
-167 309 -183 27 -5 66 -13 88 -19 22 -5 58 -13 79 -16 l39 -6 -27 -15 c-46
-23 -104 -35 -123 -25 -38 19 -127 29 -157 17 l-29 -11 55 -36 c54 -35 56 -35
92 -21 20 8 36 18 36 23 0 13 38 11 46 -2 4 -8 27 -9 68 -5 33 4 76 7 95 6 18
0 54 6 80 13 25 8 93 27 151 42 58 14 117 33 132 41 14 8 40 14 56 14 24 0 39
11 74 52 23 29 60 70 81 93 48 51 116 152 156 232 29 59 34 63 83 78 70 20 83
19 113 -11 25 -25 85 -135 100 -183 13 -41 112 -183 174 -247 27 -29 32 -41
28 -67 -2 -18 3 -60 11 -94 16 -59 15 -64 -1 -80 -16 -16 -18 -16 -42 7 -18
17 -25 34 -25 61 0 23 -5 39 -15 43 -16 6 -97 -27 -112 -46 -6 -7 -29 -69 -52
-137 -23 -68 -49 -134 -57 -147 -9 -12 -44 -35 -80 -50 -89 -40 -84 -54 19
-54 63 0 89 4 107 18 16 11 44 17 80 17 76 1 147 37 168 85 26 61 29 65 53 68
18 2 42 -14 97 -65 39 -37 72 -74 72 -81 0 -16 60 -102 71 -102 5 0 15 -12 23
-27 10 -19 15 -22 16 -11 0 9 9 20 20 23 11 3 20 10 20 15 0 18 -43 125 -55
140 -8 8 -19 43 -26 78 -9 41 -20 67 -31 73 -10 6 -21 27 -24 49 -6 35 -12 43
-49 59 -24 11 -48 29 -54 40 -7 12 -18 21 -26 21 -20 0 -47 44 -43 72 2 17 9
23 26 22 12 0 22 2 22 6 0 4 80 5 178 2 l178 -4 17 26 17 26 -45 0 c-45 0 -65
19 -22 22 52 3 75 7 127 23 87 26 85 27 84 -35 0 -53 -6 -100 -39 -319 -9 -56
-17 -121 -19 -142 -2 -21 -8 -44 -13 -51 -6 -7 -14 -35 -18 -63 -9 -63 -32
-108 -51 -101 -17 6 -17 3 -14 -95 1 -47 -2 -79 -9 -83 -21 -13 -30 3 -20 36
5 21 5 36 -1 42 -6 6 -10 24 -11 41 0 30 0 30 -10 5 -6 -14 -10 -61 -10 -104
1 -44 -3 -84 -8 -90 -5 -6 -11 -36 -14 -66 -6 -73 -12 -95 -26 -92 -6 1 -17 3
-23 5 -9 1 -14 -15 -16 -50 -2 -29 -7 -53 -12 -53 -10 0 -30 56 -30 87 0 14
-4 21 -10 18 -15 -10 -12 13 6 41 12 17 18 56 22 120 5 95 5 96 33 106 16 5
29 17 29 25 0 8 -4 12 -9 9 -5 -4 -21 -2 -34 3 -18 7 -28 6 -36 -3 -6 -7 -30
-18 -53 -25 -65 -19 -157 -94 -158 -128 0 -20 -36 -15 -89 12 -85 45 -153 42
-225 -8 -27 -19 -34 -20 -116 -8 -82 12 -120 10 -165 -9 -227 -92 -348 -130
-426 -132 -90 -2 -123 13 -114 53 8 37 -16 53 -81 53 -37 -1 -61 -7 -74 -19
-26 -24 -68 -14 -111 25 -18 16 -37 30 -41 30 -5 0 -26 -12 -48 -26 -36 -24
-40 -31 -40 -70 0 -24 7 -68 15 -99 9 -35 12 -82 10 -127 -5 -74 3 -98 35 -98
9 0 24 14 32 33 35 72 48 109 48 133 0 35 26 41 58 12 39 -36 81 -35 123 3 33
30 36 31 104 25 99 -9 117 -12 142 -20 12 -4 45 -11 72 -15 46 -7 50 -6 53 12
4 28 62 43 94 26 l23 -12 -24 -19 c-14 -11 -25 -24 -25 -29 0 -15 26 -10 50 9
14 12 33 16 56 14 39 -5 47 -22 10 -22 -73 0 -73 -34 -1 -105 30 -29 55 -60
55 -68 0 -8 -16 -34 -35 -57 -37 -44 -45 -77 -20 -86 9 -4 12 -15 9 -33 -10
-48 19 -59 211 -77 53 -5 68 -2 127 25 37 17 73 31 81 31 7 0 21 14 30 30 10
17 22 30 28 30 14 0 29 46 39 113 6 37 20 76 40 107 25 39 30 56 25 79 -5 22
-2 32 12 39 9 6 18 21 18 34 0 17 7 24 25 27 36 5 81 -24 112 -73 25 -39 27
-49 22 -104 -6 -54 -5 -61 15 -73 25 -16 28 -73 6 -103 -8 -11 -15 -30 -15
-42 0 -12 -6 -35 -14 -51 -16 -31 -34 -80 -59 -158 -44 -136 -122 -265 -161
-265 -8 0 -16 -6 -18 -12 -3 -8 -12 -2 -22 14 -16 24 -20 26 -39 15 -12 -7
-24 -15 -27 -18 -10 -12 -75 -5 -86 9 -13 18 -104 34 -101 18 1 -6 -5 -11 -13
-12 -15 -1 -57 -23 -114 -60 -18 -11 -44 -24 -57 -27 -14 -4 -45 -25 -69 -47
-24 -22 -49 -40 -55 -40 -6 0 -21 -11 -34 -23 -31 -34 -109 -49 -221 -45 -97
4 -139 17 -276 83 -28 14 -57 25 -65 25 -8 0 -34 10 -59 23 -25 13 -64 29 -87
37 -37 11 -44 11 -58 -4 -18 -17 -27 -15 -62 17 -13 11 -42 24 -65 28 -66 12
-119 33 -114 45 3 9 -57 30 -109 38 -8 1 -21 8 -27 14 -7 7 -17 12 -23 12 -6
0 -29 18 -50 40 -21 22 -43 40 -48 40 -6 0 -33 22 -61 49 -28 27 -82 78 -119
113 -37 34 -78 78 -90 97 -11 19 -37 50 -56 68 -44 41 -49 82 -21 170 11 34
20 78 20 97 0 19 5 38 10 41 6 3 10 25 9 48 l-1 42 -10 -44 c-5 -24 -18 -57
-29 -75 -10 -17 -28 -50 -39 -73 -10 -24 -24 -43 -30 -43 -12 0 -50 36 -50 48
0 5 -11 19 -25 32 -14 13 -25 28 -25 34 0 6 -16 33 -35 60 -19 27 -35 55 -35
62 0 6 -6 17 -14 23 -8 7 -17 28 -21 49 -4 20 -16 49 -27 65 -11 16 -26 48
-34 73 -7 24 -20 54 -29 66 -9 14 -15 44 -15 76 0 30 -7 67 -17 85 -23 45 -33
106 -21 132 10 22 10 22 41 -7 60 -56 179 -128 211 -128 30 1 29 2 -45 73 -42
40 -98 106 -125 147 l-49 75 3 77 c1 42 8 88 15 100 20 38 69 98 79 98 16 0
58 44 58 61 0 9 18 30 40 48 39 31 100 110 100 130 0 6 -7 8 -15 5 -8 -4 -15
-11 -15 -16 0 -13 -72 -77 -87 -78 -22 0 -163 -155 -196 -213 -27 -50 -77 -77
-77 -43 0 7 -7 19 -15 26 -8 7 -15 27 -16 44 0 17 -4 40 -8 51 -5 11 -2 30 6
45 7 14 13 36 13 50 0 14 7 34 15 44 8 11 15 32 15 48 0 18 5 28 15 28 9 0 18
6 21 14 3 9 12 12 21 9 13 -5 15 -1 9 23 -4 16 -10 56 -13 89 -5 58 -4 61 30
96 19 19 38 45 41 57 8 24 52 53 76 49 8 -1 19 -20 26 -42z m874 0 c16 -14 18
-26 13 -61 l-6 -44 147 0 c134 0 151 -2 194 -23 84 -43 218 -31 273 23 32 31
122 54 173 44 35 -6 36 -7 36 -53 0 -26 -3 -51 -7 -55 -4 -3 -8 -16 -10 -27
-7 -48 -65 -102 -139 -132 -82 -32 -217 -59 -261 -52 -24 3 -51 1 -62 -4 -11
-6 -34 -11 -53 -12 -42 -2 -179 35 -238 63 -64 31 -128 100 -135 146 -3 20 -8
48 -12 62 -3 14 -7 54 -10 89 l-5 64 42 -6 c23 -3 50 -13 60 -22z m-680 -131
c0 -9 -5 -14 -12 -12 -18 6 -21 28 -4 28 9 0 16 -7 16 -16z m1063 -371 c-7 -2
-19 -2 -25 0 -7 3 -2 5 12 5 14 0 19 -2 13 -5z m-4363 -35 c0 -20 -34 -123
-42 -126 -5 -2 -8 -21 -8 -42 0 -31 -4 -39 -23 -44 -12 -3 -30 -19 -41 -36
-16 -29 -17 -33 -2 -49 15 -16 15 -19 -3 -39 -10 -12 -23 -22 -29 -22 -11 0
-33 130 -24 145 3 5 5 26 3 47 -1 20 3 46 9 58 17 32 83 89 103 90 10 0 20 7
23 15 7 18 34 20 34 3z m-300 -233 c0 -65 -3 -76 -21 -86 -32 -16 -47 3 -32
41 6 16 9 39 6 50 -6 21 20 70 37 70 6 0 10 -33 10 -75z m85 -145 c3 -5 -3
-10 -15 -10 -12 0 -18 5 -15 10 3 6 10 10 15 10 5 0 12 -4 15 -10z m55 0 c0
-5 -4 -10 -10 -10 -5 0 -10 5 -10 10 0 6 5 10 10 10 6 0 10 -4 10 -10z m5600
-680 c0 -25 -25 -36 -45 -20 -20 16 -7 40 21 40 17 0 24 -6 24 -20z m-1330
-2915 c7 -9 10 -18 7 -22 -4 -3 -2 -12 4 -19 7 -9 7 -25 -1 -54 -9 -33 -14
-39 -25 -30 -7 6 -26 10 -42 8 -26 -3 -28 -1 -31 39 -4 51 18 88 52 91 13 1
30 -5 36 -13z m-25 -455 c3 -11 3 -50 0 -88 -6 -56 -4 -71 9 -84 29 -29 12
-74 -18 -49 -14 12 -29 183 -19 221 7 26 20 26 28 0z m25 -336 c0 -8 -5 -12
-10 -9 -6 4 -8 11 -5 16 9 14 15 11 15 -7z m20 -191 c-1 -65 -3 -83 -11 -71
-11 19 -21 137 -13 150 16 25 24 -2 24 -79z m30 -249 c0 -8 -4 -12 -10 -9 -5
3 -10 10 -10 16 0 5 5 9 10 9 6 0 10 -7 10 -16z m25 -212 c6 -4 16 -15 24 -25
12 -15 11 -20 -4 -37 -10 -11 -24 -20 -31 -20 -22 0 -35 36 -24 64 10 27 18
31 35 18z m13 -205 c2 -19 -1 -27 -12 -27 -11 0 -16 10 -16 31 0 38 24 35 28
-4z m-1 -99 c-3 -8 -6 -5 -6 6 -1 11 2 17 5 13 3 -3 4 -12 1 -19z"/>
<path d="M4114 6818 c-8 -26 0 -32 30 -22 33 11 33 27 1 36 -19 5 -26 2 -31
-14z"/>
<path d="M3945 6651 c-3 -5 -1 -12 5 -16 5 -3 10 1 10 9 0 18 -6 21 -15 7z"/>
<path d="M942 6381 c2 -14 9 -26 16 -29 17 -5 15 10 -3 34 -15 18 -15 18 -13
-5z"/>
<path d="M4237 6074 c-3 -3 -3 -12 0 -20 4 -11 9 -12 19 -3 8 6 14 15 14 20 0
10 -24 12 -33 3z"/>
<path d="M5301 5684 c0 -11 3 -14 6 -6 3 7 2 16 -1 19 -3 4 -6 -2 -5 -13z"/>
<path d="M5246 5620 c-20 -22 -36 -43 -36 -48 0 -4 -23 -32 -51 -62 -28 -30
-57 -69 -64 -86 -8 -17 -21 -36 -29 -43 -9 -7 -18 -29 -22 -48 -4 -22 -14 -38
-28 -43 -30 -13 -56 -35 -56 -49 0 -7 -11 -23 -24 -36 -14 -14 -20 -27 -15
-30 5 -4 6 -11 3 -17 -5 -8 -1 -9 10 -5 10 4 20 7 22 7 2 0 4 7 4 16 0 8 4 13
10 9 5 -3 15 5 22 19 11 21 64 67 116 101 9 6 27 22 40 38 43 49 57 52 114 22
28 -15 58 -33 65 -41 8 -8 27 -14 43 -14 16 0 40 -4 54 -10 26 -9 28 -8 64 35
14 17 42 20 42 5 0 -5 13 -7 30 -3 20 4 36 1 48 -10 9 -8 34 -22 55 -30 20 -9
37 -21 37 -26 0 -16 40 -13 46 3 3 7 -4 29 -14 48 -11 19 -17 39 -14 44 4 5
29 20 55 33 62 31 97 73 97 116 0 45 -17 55 -98 62 -70 6 -71 5 -139 -37 -37
-23 -88 -65 -112 -92 -24 -27 -55 -54 -68 -59 -31 -12 -97 14 -110 44 -19 40
-36 112 -35 147 1 46 -6 80 -17 80 -5 0 -25 -18 -45 -40z"/>
<path d="M3910 5096 c0 -2 7 -9 15 -16 9 -7 15 -8 15 -2 0 5 -7 12 -15 16 -8
3 -15 4 -15 2z"/>
<path d="M6600 4984 c0 -8 5 -12 10 -9 6 3 10 10 10 16 0 5 -4 9 -10 9 -5 0
-10 -7 -10 -16z"/>
<path d="M5874 4126 c-10 -27 1 -49 29 -59 54 -18 63 38 11 61 -32 15 -33 15
-40 -2z"/>
<path d="M4650 1685 c0 -10 9 -15 27 -15 29 0 29 2 -4 19 -19 10 -23 9 -23 -4z"/>
<path d="M8180 9707 c0 -19 21 -37 42 -37 13 0 18 8 18 25 0 21 -5 25 -30 25
-18 0 -30 -5 -30 -13z"/>
<path d="M584 6950 c-4 -16 -10 -30 -15 -30 -12 0 -49 -75 -49 -100 0 -30 17
-16 25 21 4 17 13 33 21 36 8 3 14 12 14 20 0 8 7 21 15 29 17 17 20 54 5 54
-6 0 -13 -13 -16 -30z"/>
<path d="M526 6665 c-3 -9 -6 -32 -6 -51 0 -29 3 -34 23 -34 34 0 36 6 22 52
-13 45 -29 58 -39 33z"/>
<path d="M610 6480 c-12 -7 -12 -12 -2 -22 9 -9 15 -9 24 0 16 16 -2 34 -22
22z"/>
</g>
</svg>
