<?xml version="1.0" encoding="utf-8"?>
<!-- Generator: Adobe Illustrator 24.3.0, SVG Export Plug-In . SVG Version: 6.00 Build 0)  -->
<svg version="1.1" id="Layer_1" xmlns="http://www.w3.org/2000/svg" xmlns:xlink="http://www.w3.org/1999/xlink" x="0px" y="0px"
	 viewBox="0 0 224.1 247.9" style="enable-background:new 0 0 224.1 247.9;" xml:space="preserve">
<style type="text/css">
	.st0{fill:#FECA9A;}
	.st1{fill:#1C2021;}
	.st2{fill:#FFFFFF;}
	.st3{fill:#FFB260;}
	.st4{fill:#0094B9;}
	.st5{fill:#B3B3B3;}
	.st6{display:none;}
	.st7{fill:none;stroke:#F1748A;stroke-width:4;stroke-miterlimit:10;}
</style>
<g id="Layer_1_1_">
	<g>
		<g>
			<path class="st0" d="M92.6,134.6c0.2,0.7,2.5,15.4,2.2,25.7c0,0,2.4,2.2,4.9,3.2c9.5,3.9,32.6,10.2,42.7-5.8
				c0,0-3.5-19.6-0.6-26.7C144.7,123.8,92.6,134.6,92.6,134.6z"/>
			<path class="st0" d="M115.3,20.8c-1.5,1.6-32.3-7.1-39.1,13.7c-6.9,20.8-3.4,28.1,0.2,40.9c3.7,12.7,2,22.5,15.4,52.6
				c13.5,30.1,53.8-0.5,53.8-0.5l5.9-47.5c0,0,3.9-26.9-5.4-39.9C136.8,27.2,123.6,12,115.3,20.8z"/>
			<g>
				<g>
					<path class="st0" d="M75.3,78.5c0-0.7-6.8-14.9-9.3-8.1c-2.4,6.8,11.2,27.8,11.2,27.1S75.3,78.5,75.3,78.5z"/>
					<path class="st1" d="M77.3,98.3c-0.2,0-0.4-0.1-0.6-0.2C75.5,97,62.8,77.2,65.3,70.2c0.8-2.2,2-2.5,2.9-2.3
						c3.4,0.6,7.6,9.4,7.8,10.5c0.2,1.9,2,18.4,2,19.1c0,0.3-0.2,0.6-0.5,0.7C77.5,98.3,77.4,98.3,77.3,98.3z M77.3,97.6L77.3,97.6
						L77.3,97.6z M67.9,69.3c-0.4,0-0.8,0.5-1.1,1.4c-1.8,5,6.2,19,9.6,24.3c-0.4-3.8-1.1-11.1-1.7-16.4
						C74.3,77.3,70.2,69.5,67.9,69.3L67.9,69.3z M76.1,78.5L76.1,78.5L76.1,78.5z"/>
				</g>
				<g>
					<path class="st0" d="M152.7,77.3c0,0,0.2-11.7,4.9-11.7c4.6,0-2.4,26.6-4.9,30C150.2,99,152.7,77.3,152.7,77.3z"/>
					<path class="st1" d="M152.2,96.7c-0.1,0-0.3,0-0.3-0.1c-0.6-0.2-2-0.8,0.1-19.4c0-1.4,0.5-12.4,5.6-12.4c0.4,0,1.2,0.1,1.7,1.1
						c2.4,4.7-3.8,27-6,30C152.9,96.5,152.5,96.7,152.2,96.7z M152.6,95.4L152.6,95.4L152.6,95.4z M157.5,66.3
						c-3.2,0-4.1,8.1-4.1,11l0,0.1c-0.8,6.9-1.3,14.6-1,17.2c2.5-4.9,7.4-24.2,5.6-27.9C157.8,66.3,157.6,66.3,157.5,66.3z
						 M152.7,77.3L152.7,77.3L152.7,77.3z"/>
				</g>
				<path class="st1" d="M152.9,68.5c-0.2-7.3-1.7-16.8-1.7-16.8c-0.2-5.1,0-6.6-3.2-21c-2-9-0.8-12.5-12.8-12.3
					c-0.1-4.7-7.8-8.3-12.6-8.9c-12.7-1.7-40.8,1.2-47.8,15.9c-7.1,14.6-3.2,36.6-2.2,40.8c1,4.1,1.7,21.5,1.7,28.1
					c0,6.6,2.3,31.1,21.6,43.5c19.3,12.4,45.3,0.9,51.2-8.1c5.9-9,7.1-25.4,7.1-29.3C154.1,96.3,153.1,75.8,152.9,68.5z M146.1,40.1
					c2.3,7,2.2,8.3,2.9,11.7c0.7,3.4,2.4,18.3,2.2,22.7c-0.2,4.4-2,16.1-2.4,20c-2.9,24.7-5.3,18.5-11.6,17.8c0,0,4.1,3,2.1,10.5
					c-2,7.6-5.1,10.3-10.5,9.8c-5.4-0.5-8.3-3.9-6.3-9h-8.3c0,0,5.4,6.3-0.5,8.5c-5.9,2.2-14.9,0.2-15.9-7.6
					c-1-7.8,2.2-12.4,2.2-12.4s-6.8,11.8-13.7-3.2c-4.2-9.2-6.4-20.4-6.6-29c0-2.8-1-7.3-1-7.3S72,62.5,73.3,49.7
					c0.3-2.8,1.9-10.3,7.3-13.8c5.4-3.5,16-2.2,19.5-2.3c12.5-0.4,24.9,0.5,28.1-2C128.2,31.6,142.7,29.8,146.1,40.1z"/>
				<path class="st1" d="M94.4,73.2c3.6-0.1,7,0.3,10.4,1.5c3.4,1.1,7.5-1.6,0.3-4.9c-7.2-3.3-15.5-1.5-18.9,1
					c-3.4,2.4-4.6,3.1-3.9,5C83,77.7,89.4,73.3,94.4,73.2z"/>
				<g>
					<path class="st2" d="M86.6,81.3c1-1,3.4-4.1,9-4.2c5.5-0.2,8.3,2.1,7.8,3.4c-0.5,1.3-4.4,3.3-8.1,3.6
						C91.5,84.4,85.6,82.3,86.6,81.3z"/>
					<path class="st1" d="M94.5,84.8c-3.2,0-7.9-1.3-8.6-2.8c-0.2-0.4-0.1-0.9,0.2-1.2l0.3-0.3c1.1-1.2,3.8-4,9.2-4.2
						c4.5-0.1,7.3,1.3,8.2,2.6c0.4,0.6,0.5,1.2,0.3,1.8c-0.6,1.7-5,3.7-8.8,4.1C95.1,84.8,94.8,84.8,94.5,84.8z M87.4,81.6
						c0.9,0.7,4.8,2,7.8,1.8c3.7-0.3,7.2-2.3,7.5-3.1c0-0.1,0-0.2-0.2-0.4c-0.7-1-3.2-2.1-6.9-2C90.8,78,88.5,80.4,87.4,81.6
						L87.4,81.6z M87.1,81.8L87.1,81.8L87.1,81.8z"/>
				</g>
				<path class="st1" d="M92.8,77.5c-1.2,0.5-5.3,4.8,0,6.2c5.3,1.4,6.4-5.1,3.8-6.1C94,76.8,92.8,77.5,92.8,77.5z"/>
				<path class="st1" d="M113.3,100.4c-0.1,0-0.1,0-0.2,0c-0.4-0.1-0.6-0.5-0.5-0.9c0,0,0.8-3.4,1.5-7.3c0.6-3.8,0-16.2,0-16.3
					c0-0.4,0.3-0.8,0.7-0.8c0.5,0,0.8,0.3,0.8,0.7c0,0.5,0.6,12.7,0,16.6c-0.6,3.9-1.5,7.4-1.5,7.4
					C114,100.2,113.7,100.4,113.3,100.4z"/>
				<path class="st1" d="M118.2,105.3c-0.1,0-0.1,0-0.2,0c-1.7-0.1-2.8-1.7-3.7-3c-0.4-0.5-0.8-1.1-1.1-1.4
					c-0.3-0.3-0.7-0.1-1.5,0.1c-0.9,0.3-2.4,0.8-3.3-0.6c-1-1.6,0.4-4.5,1.8-7.5c0.5-1,1-2,1.3-2.9c1.3-3.1,2.7-11.6,2.7-11.7
					c0.1-0.4,0.4-0.7,0.8-0.6c0.4,0.1,0.7,0.4,0.6,0.8c-0.1,0.4-1.5,8.7-2.8,12c-0.4,0.9-0.9,1.9-1.4,3c-1.1,2.2-2.5,5.2-1.9,6.1
					c0.2,0.4,0.5,0.4,1.6,0c0.9-0.3,2.1-0.7,3,0.2c0.4,0.4,0.9,1,1.3,1.6c0.8,1.1,1.7,2.3,2.7,2.4c0.6,0,1.2-1.1,1.7-2.1
					c0.6-1.2,1.2-2.2,2.1-2.5c0.5-0.1,1.1,0,1.6,0.1c0.5,0.1,1.1,0.3,1.4,0.1c0.1-0.1,0.5-0.7,0.2-2.9c-0.6-4-2.6-7.5-3.8-9.5
					c-0.7-1.2-1-1.7-1-2.1c0-0.4,0.3-0.7,0.7-0.7c0.4,0,0.7,0.3,0.7,0.7c0,0.1,0.4,0.8,0.8,1.4c1.3,2.2,3.4,5.8,3.9,10.1
					c0.3,2.2,0.1,3.5-0.6,4.2c-0.8,0.7-1.8,0.5-2.7,0.3c-0.4-0.1-0.8-0.2-1-0.1c-0.3,0.1-0.8,1.1-1.2,1.7
					C120.5,103.7,119.6,105.3,118.2,105.3z"/>
				<g>
					<path class="st3" d="M107.7,116.7c0,0-2.9,3.1,3.1,5.4c6,2.3,8,1.8,10.3,1.8c2.3,0,7-4.4,6.5-6.3S107.7,116.7,107.7,116.7z"/>
					<path class="st1" d="M118.9,124.7c-1.8,0-4.1-0.2-8.4-1.9c-2.5-0.9-3.9-2.1-4.2-3.6c-0.4-1.7,0.8-2.9,0.8-3
						c0.1-0.1,0.3-0.2,0.5-0.2c13.3-0.8,20.2-0.3,20.6,1.4c0.3,1.1-0.5,2.4-1.2,3.3c-1.5,1.9-4.2,4-6,4c-0.3,0-0.6,0-1,0
						C119.7,124.7,119.3,124.7,118.9,124.7z M108,117.5c-0.2,0.3-0.5,0.8-0.3,1.4c0.2,0.9,1.4,1.8,3.3,2.5c5,1.9,7.1,1.8,9,1.8
						c0.3,0,0.7,0,1,0c1.1,0,3.5-1.6,4.9-3.4c0.8-1,1-1.7,0.9-2C125.9,117,116.4,117,108,117.5z"/>
				</g>
				<path class="st1" d="M143.7,105.3c-2.9,3.4-7.2,4.5-10.6,3.4c-3.4-1.1-6.4-1.5-8.8-3.2c-0.9-0.6-2.8-2.4-3.5-3.6
					c-0.6,1-1.7,2.6-3,2.6c-1.2,0-2-2.3-3.1-2.6c-0.1,0.1-0.3,1.1-0.3,1.2c-0.7,1.6-2.5,2.1-6.8,4.2c-7.3,3.7-9.1,5-15.7,0.3
					c0,0,2,6.7,7.3,6c3.1-0.4,8.5,1.5,8.5,1.5s15.9,1.3,22.9-1C137.6,111.9,142,112.9,143.7,105.3z"/>
				<path class="st1" d="M94.1,160.1c-0.2,0-0.4-0.1-0.5-0.2c-0.3-0.3-0.3-0.8,0-1c1.7-1.6-0.2-16.9-1.8-24.3
					c-0.1-0.4,0.2-0.8,0.6-0.9c0.4-0.1,0.8,0.2,0.9,0.6c0.7,3.1,4.3,23,1.4,25.7C94.5,160,94.3,160.1,94.1,160.1z"/>
				<path class="st1" d="M143,158c-0.3,0-0.5-0.1-0.6-0.4c-2.7-4.7-1.9-22.1-1.9-22.9c0-0.4,0.4-0.7,0.8-0.7c0.4,0,0.7,0.4,0.7,0.8
					c0,0.2-0.8,17.7,1.7,22.1c0.2,0.4,0.1,0.8-0.3,1C143.2,158,143.1,158,143,158z"/>
				<g>
					<path class="st3" d="M105,116.3c-0.5-2.1,0.2-2.3,4.7-2.3c4.6,0,13.5,0.7,15.8,0.3c2.3-0.3,5-1.3,5-0.2c0,1.1-0.3,3.4-7,4.1
						C116.9,118.9,105.7,118.9,105,116.3z"/>
					<path class="st1" d="M115.8,119.3c-5.1,0-10.8-0.5-11.4-2.9c-0.2-0.8-0.3-1.6,0.2-2.2c0.7-0.9,2-1,5.3-1c1.8,0,4.4,0.1,6.9,0.2
						c3.7,0.2,7.5,0.3,8.8,0.1c0.6-0.1,1.2-0.2,1.8-0.3c1.7-0.4,3-0.6,3.7,0c0.3,0.2,0.4,0.6,0.4,0.9c0,2.7-2.5,4.3-7.7,4.8
						C123.6,118.9,119.9,119.3,115.8,119.3z M105.8,116.1c0.4,1.5,9.2,2.2,17.8,1.4c5.8-0.6,6.3-2.3,6.3-3.1c-0.5,0-1.6,0.2-2.3,0.3
						c-0.6,0.1-1.3,0.3-1.9,0.3c-1.4,0.2-5.1,0.1-9-0.1c-2.5-0.1-5-0.2-6.9-0.2c-1.4,0-3.8,0-4.1,0.4
						C105.6,115.1,105.6,115.3,105.8,116.1z"/>
				</g>
				<path class="st2" d="M98.9,81.4c0,1-0.9,1.9-2,1.9c-1.1,0-2-0.8-2-1.9s0.9-1.9,2-1.9C98,79.5,98.9,80.3,98.9,81.4z"/>
				<path class="st1" d="M137.3,72.8c-3.6-0.1-7,0.3-10.4,1.5c-3.4,1.1-7.5-1.6-0.3-4.9s15.5-1.5,18.9,1c3.4,2.4,4.6,3.1,3.9,5
					C148.7,77.4,142.3,73,137.3,72.8z"/>
				<g>
					<path class="st2" d="M145.1,80.9c-1-1-3.4-4.1-9-4.2c-5.5-0.2-8.3,2.1-7.8,3.4c0.5,1.3,4.4,3.3,8.1,3.6
						C140.2,84,146.1,81.9,145.1,80.9z"/>
					<path class="st1" d="M137.2,84.5c-0.3,0-0.5,0-0.8,0c-3.8-0.3-8.1-2.3-8.8-4.1c-0.2-0.6-0.1-1.2,0.3-1.8
						c0.9-1.3,3.6-2.7,8.2-2.6c5.4,0.2,8,3,9.2,4.2l0.3,0.3l0,0c0.3,0.3,0.4,0.8,0.2,1.2C145.1,83.1,140.4,84.5,137.2,84.5z
						 M135.6,77.4c-3.4,0-5.7,1-6.4,2c-0.2,0.2-0.2,0.4-0.2,0.4c0.3,0.8,3.8,2.8,7.5,3.1c2.9,0.2,6.8-1,7.8-1.8l0,0
						c-1.1-1.2-3.4-3.6-8.2-3.7C135.9,77.4,135.8,77.4,135.6,77.4z M144.6,81.5L144.6,81.5L144.6,81.5z"/>
				</g>
				<path class="st1" d="M136.5,77c1.2,0.5,5.3,4.8,0,6.2c-5.3,1.4-6.4-5.1-3.8-6.1C135.2,76.2,136.5,77,136.5,77z"/>
				<path class="st2" d="M135.1,81.5c0,1,0.9,1.9,2,1.9c1.1,0,2-0.8,2-1.9c0-1-0.9-1.9-2-1.9C136,79.6,135.1,80.4,135.1,81.5z"/>
			</g>
			<polygon class="st0" points="97.4,156.6 87.3,164.4 97.4,201.6 119.7,211 142.3,211 152.8,189.4 156,171.8 154.1,163.7 
				142.2,156.6 			"/>
		</g>
		<g>
			<path class="st4" d="M159.1,169.4c-2.6-0.8-2-0.5-2.8-2.1c-1.1-2.4-0.8-6.7-0.8-6.7s-2.3-3.1-3.9-4.1c-1.6-1-5.1-1.8-5.1-1.8
				s-3.8,3.2-3.8,7.2c0,4-0.5,5.9-1.8,10.3c-1.4,4.5-6.8,15.4-10.3,23.1c-1.9,4-2.2,6-2.1,6.9c-1-1.6-3.6-4.8-8.8-7.2
				c-7.1-3.3-7-1.3-8.5-4.6c-1.5-3.3-17.6-20.1-17.6-20.1c-1.1-5.3-0.3-13.2-0.3-13.2c-3.1-0.2-6.4,1.4-8.7,3.9
				c-2.3,2.5,0.1,5.1-1,6.5c-1.1,1.5-3.1,10.7-3.1,10.7s-4.6,4.1-9.6,9.8c-5.1,5.6-16.1,7.6-16.1,7.6c-3.7,1.7-5.8,3.5-6.7,5.4
				c0,0,21,25.3,81,20.2c38.2-10.4,63.1-27.3,63.8-34.1c0.7-6.8,0.9-6.9-4-7.4s-30.2-10.8-30.2-10.8"/>
			<path class="st1" d="M95.9,210.2c0,0-0.1,0-0.1,0c-1.1-0.1-1.3-1.5-1.9-5.3c-0.3-2-0.7-4.5-1.4-7c-0.8-3.1-1.5-7.1-2.2-11.1
				c-1-5.5-2-11.1-3-13.6c-0.4-1-0.9-2.1-1.4-3.1c-1.7-3.5-3.4-6.9-2-9.5c1.4-2.7,6.3-4.8,8.2-4.1c0.8,0.3,1.2,1,1,1.9
				c-0.1,0.8-1,0.9-1.9,1c-0.8,0.1-2.2,0.3-2.5,0.8c-0.2,0.3,0,0.9,0.2,1.3c1.8,3.8,6.4,10.7,10.7,15.2c0.9,0.9,1.9,2,3.1,3.2
				c7.7,7.9,10.4,11,10.2,12.4c-0.2,1.4-1.3,1.4-2,1.3c-0.8,0-1.7,0-2.5,1.5c-0.8,1.5-2.7,3.5-4.7,5.6c-2.5,2.7-5.4,5.7-6.2,7.8
				C97.2,209.2,96.8,210.2,95.9,210.2z M87.5,159.3c-1,0.6-1.8,1.3-2.2,2.1c-1,1.9,0.4,4.9,2,8.1c0.5,1.1,1,2.1,1.5,3.2
				c1.1,2.6,2.1,8.1,3.1,14c0.7,3.9,1.4,8,2.2,11c0.6,2.6,1.1,5.1,1.4,7.1c0.2,1.1,0.4,2.4,0.6,3.2c1-2.3,3.8-5.3,6.5-8.2
				c1.9-2.1,3.8-4,4.5-5.3c1.3-2.3,2.9-2.3,3.9-2.3c0.2,0,0.4,0,0.5,0c-0.3-1.2-6.5-7.6-9.9-11c-1.1-1.2-2.2-2.3-3.1-3.2
				c-4.5-4.7-9.1-11.6-10.9-15.6c-0.5-1.1-0.6-2-0.2-2.8C87.4,159.4,87.4,159.3,87.5,159.3z"/>
			<path class="st1" d="M53.8,195.3c-0.2,0-0.3,0-0.3,0c-0.4,0-0.8-0.4-0.8-0.8c0-0.4,0.4-0.8,0.8-0.8c0.1,0,5.4,0.2,10.8-3.1
				c5.6-3.4,14.5-11.5,14.6-11.6c0.3-0.3,0.8-0.3,1.1,0c0.3,0.3,0.3,0.8,0,1.1c-0.4,0.3-9.1,8.4-14.8,11.8
				C60,195.1,55,195.3,53.8,195.3z"/>
			<path class="st1" d="M185.6,179.7c-0.1,0-0.1,0-0.2,0c-3.6-1-10.8-3.6-18-6.9c-7.1-3.3-8.8-3.8-8.8-3.9c-0.4-0.1-0.7-0.6-0.5-1
				c0.1-0.4,0.6-0.7,1-0.5c0.1,0,1.8,0.5,9.1,3.9c7.1,3.3,14.2,5.9,17.8,6.8c0.4,0.1,0.7,0.5,0.6,1
				C186.3,179.5,186,179.7,185.6,179.7z"/>
			<path class="st1" d="M128.7,221.7c-1.1,0-2.1-0.2-2.7-0.8c-0.4-0.4-0.9-1.1-0.9-2.3c0.2-3.2,0.7-4.4-0.9-9.8
				c-1.5-5.1-4.3-7.5-9.4-7.9c-5.5-0.5-7.7-2.4-7.8-2.5c-0.3-0.3-0.4-0.8-0.1-1.1c0.3-0.3,0.8-0.4,1.1-0.1c0,0,2,1.7,6.9,2.1
				c5.7,0.5,9.1,3.4,10.8,9.1c1.6,5.5,1.2,6.3,0.9,10.3c0,0.6,0.2,0.9,0.3,1c1,0.9,4.2,0.2,5.5-0.2l0.3-0.1c0.5-0.1,0-2.8-0.3-4.4
				c-0.4-2.1-0.8,7.3-0.8,4.5c0-6.8-1.5-13.3-4-17.3c-2.7-4.3-6.8-6.2-10.9-7.7c-3.9-1.5-4.8-1.6-4.8-1.6c-0.4,0-0.8-0.4-0.8-0.8
				c0-0.4,0.4-0.8,0.8-0.8c0.2,0,1.3,0.2,5.3,1.7c4.3,1.6,8.7,3.7,11.7,8.4c2.7,4.2,4.3,11,4.3,18.1c0,2.6,0.4-6.8,0.8-4.8
				c0.6,3.3,1,5.7-1,6.2l-0.3,0.1C131.5,221.4,130,221.7,128.7,221.7z"/>
		</g>
		<path class="st5" d="M36.1,191.2c0,0,13.9-6.6,22.7-12s24.3-15.9,24.3-14.4c0,1.4,4,9.4,6.9,25.2c1.1,6.2-3.9,24.5-5.7,27.8
			c-0.8,1.5-10.1-3.2-22.1-9.5C54.5,204.1,33.9,193,36.1,191.2z"/>
		<path class="st5" d="M165.4,167.4c0,0-8.1-3.4-8.9-1.6c-0.8,1.8,5.6-5-1.4,27.7c-3,13.7-3.6,22-3.6,22s30.1-11.6,38.8-24.6
			c8.8-13.1,4.9-11.4,5.6-12C197.9,177.2,165.4,167.4,165.4,167.4z"/>
		<polygon class="st4" points="156.8,169.2 160.9,184.8 163.1,193.3 163.9,199.5 163.1,199.9 157.9,194.4 153.4,190.6 		"/>
		<path class="st1" d="M141.5,184.3c0.1,0,0.2,0,0.3,0.1l9.2,4.1c6,2.7,9.3,6.9,11.2,9.2c0.3,0.4,0.6,0.8,0.9,1.1
			c0.3-2-0.4-8.1-2.5-12.7c-1.4-3.2-2-5.9-2.7-9.7c-0.5-2.4-1-5.1-1.9-8.5c-1.6-6.1-1.1-7.5-0.8-8.2c0,0,0-0.1-0.1-0.1
			c-0.9-1.4-3.1-2.5-5.7-3.1c-0.7-0.2-1.3-0.3-1.7-0.5c-0.5-0.2-0.8-0.3-1.1-0.5c-1,1.3-3,4.4-2.7,7.2c0.5,4.3-2.4,13.1-5.2,17.7
			c-1.3,2.2-2.8,5.3-4.2,8.4c0.3-0.4,0.6-0.7,0.9-1.1C138.4,184.4,141.4,184.3,141.5,184.3z M147.3,154.6L147.3,154.6L147.3,154.6z
			 M147.3,154.6L147.3,154.6L147.3,154.6z M147.3,154.6L147.3,154.6L147.3,154.6z M147.3,154.6L147.3,154.6L147.3,154.6z
			 M147.3,154.6L147.3,154.6L147.3,154.6z M147.3,154.1L147.3,154.1L147.3,154.1z M128.4,202.7c-0.4,0-0.7-0.2-0.8-0.6
			c-0.1-0.2-0.5-2.2,1.5-5.6c0.8-1.3,1.9-3.8,3.1-6.4c1.7-3.6,3.6-7.7,5.2-10.4c2.6-4.3,5.4-12.8,4.9-16.7c-0.5-4.4,3.5-8.9,3.6-9.1
			c0.2-0.3,0.7-0.3,1-0.2c0.2,0.1,0.3,0.3,0.4,0.5c0.1,0.1,0.3,0.2,0.9,0.4c0.4,0.1,0.9,0.3,1.5,0.4c3.1,0.7,5.5,2,6.7,3.8
			c0.4,0.6,0.5,1,0.2,1.6c-0.2,0.4-0.6,1.4,0.8,7.2c0.9,3.5,1.4,6.2,1.9,8.6c0.7,3.7,1.3,6.4,2.6,9.4c2.2,4.9,3.5,12.9,2.2,14.8
			c-0.2,0.3-0.5,0.5-0.9,0.5c-0.7,0.1-1.3-0.7-2.4-2c-1.8-2.3-4.9-6.2-10.6-8.8l-9-4.1c-0.6,0.1-2.6,0.4-4.8,2.9
			c-5,5.8-7.7,10.5-7.4,12.9c0.1,0.4-0.2,0.8-0.6,0.9C128.5,202.7,128.5,202.7,128.4,202.7z"/>
		<path class="st1" d="M47.2,186.1c-0.2,0-0.5-0.1-0.6-0.4c-0.2-0.3-0.1-0.8,0.3-1c1.1-0.7,5.5-3.4,7.3-4.2
			c3.8-1.8,6.3-3.5,10.4-6.1c6.2-4,17.5-9.8,17.6-9.8c0.3-0.2,0.8-0.1,1,0.2c0.2,0.3,0.1,0.8-0.3,1c-0.1,0.1-11.7,5.2-17.5,9.7
			c-4,3.1-6.9,4.5-10.7,6.3c-1.8,0.8-6.1,3.6-7.2,4.2C47.5,186.1,47.4,186.1,47.2,186.1z"/>
		<path class="st1" d="M195.2,179.5c-0.1,0-0.2,0-0.3-0.1c-0.6-0.3-9.9-3.8-12.1-4.5c-4.9-1.5-11-4.2-15.2-5.7
			c-6-2.1-11.3-3.9-11.3-3.9c-0.3-0.2-0.4-0.7-0.2-1c0.2-0.3,0.7-0.4,1-0.2c0,0,4.8,1.5,10.9,3.7c4,1.4,10.3,4.2,15.1,5.7
			c2.5,0.8,11.6,4.2,12.3,4.6c0.4,0.2,0.5,0.6,0.3,1C195.7,179.4,195.4,179.5,195.2,179.5z"/>
	</g>
</g>
<g id="Layer_2_1_" class="st6">
</g>
<g>
	<g>
		<g>
			<defs>
				<circle id="SVGID_3_" cx="112" cy="112" r="110"/>
			</defs>
			<clipPath id="SVGID_4_">
				<use xlink:href="#SVGID_3_"  style="overflow:visible;"/>
			</clipPath>
		</g>
		<g>
			<circle id="SVGID_1_" class="st7" cx="112" cy="112" r="110"/>
		</g>
	</g>
</g>
</svg>
