<?xml version="1.0" standalone="no"?>
<!DOCTYPE svg PUBLIC "-//W3C//DTD SVG 20010904//EN"
 "http://www.w3.org/TR/2001/REC-SVG-20010904/DTD/svg10.dtd">
<svg version="1.0" xmlns="http://www.w3.org/2000/svg"
 width="716.000000pt" height="628.000000pt" viewBox="0 0 716.000000 628.000000"
 preserveAspectRatio="xMidYMid meet">

<g transform="translate(0.000000,628.000000) scale(0.100000,-0.100000)"
fill="#000000" stroke="none">
<path d="M0 5610 c0 -368 2 -670 4 -670 2 0 19 30 38 68 31 61 33 71 25 112
-13 62 -11 109 6 129 8 9 18 26 21 38 4 11 13 27 21 33 10 8 15 31 15 66 0 29
7 79 15 111 11 40 15 98 14 183 -1 112 1 130 21 172 35 70 53 76 142 45 40
-14 131 -41 203 -61 226 -61 470 -156 536 -209 14 -12 39 -29 55 -38 64 -37
179 -111 208 -135 62 -51 158 -150 166 -170 5 -12 23 -29 41 -38 29 -15 35
-15 56 -1 12 9 23 20 23 27 0 6 39 50 88 98 102 102 202 208 202 214 0 3 10
16 23 29 86 91 126 137 150 172 15 22 59 73 97 114 39 41 70 78 70 82 0 5 22
34 48 66 27 32 77 96 111 143 l63 85 -287 3 c-288 2 -315 0 -315 -32 0 -7 14
-22 30 -34 53 -40 30 -77 -60 -96 -14 -3 -43 -23 -65 -44 -22 -22 -70 -53
-107 -70 -50 -22 -71 -38 -80 -59 -31 -73 -57 -78 -126 -28 -42 30 -54 34 -88
28 -21 -3 -47 -12 -56 -20 -31 -27 -140 -73 -173 -73 -19 0 -41 7 -49 16 -14
14 -23 61 -16 89 1 6 3 46 4 89 l1 79 55 12 c30 6 67 19 82 29 19 12 36 16 54
12 39 -10 74 -36 74 -55 0 -9 9 -31 21 -50 19 -32 22 -33 65 -27 53 7 123 41
131 63 4 9 7 34 7 56 1 51 37 81 95 79 26 -1 47 5 63 18 23 19 18 19 -849 20
l-873 0 0 -670z"/>
<path d="M3260 6267 c-13 -7 -39 -32 -58 -57 -64 -86 -78 -101 -191 -216 -120
-121 -258 -230 -388 -304 -43 -24 -84 -52 -91 -62 -7 -10 -18 -18 -24 -18 -6
0 -18 -7 -27 -15 -16 -15 -269 -185 -276 -185 -2 0 -31 -18 -65 -41 -34 -22
-76 -47 -93 -55 -18 -8 -59 -30 -92 -49 -33 -19 -107 -58 -165 -85 -57 -28
-113 -58 -122 -67 -10 -9 -28 -21 -41 -27 -24 -12 -33 -51 -22 -94 3 -14 33
-52 65 -84 32 -33 73 -84 91 -114 18 -30 41 -57 51 -60 10 -3 18 -9 18 -14 0
-5 12 -23 27 -40 14 -17 39 -59 55 -92 16 -33 41 -77 57 -97 45 -58 52 -76 60
-177 8 -96 -6 -195 -39 -265 -10 -22 -9 -36 5 -78 14 -43 14 -56 4 -85 -10
-28 -10 -45 0 -88 8 -31 15 -138 17 -253 6 -270 20 -350 90 -493 30 -62 69
-129 87 -149 18 -19 48 -60 68 -91 34 -53 35 -58 21 -80 -21 -32 -57 -48 -124
-56 -76 -8 -130 -37 -164 -89 -65 -97 -124 -135 -201 -128 -26 2 -43 71 -43
172 l0 99 40 44 c32 35 40 51 40 82 0 59 -24 70 -87 39 -26 -13 -56 -26 -65
-29 -12 -3 -18 -16 -18 -35 0 -34 -53 -97 -72 -85 -6 4 -8 3 -5 -2 7 -12 -1
-23 -27 -44 -18 -13 -19 -13 -11 0 8 13 6 13 -8 1 -9 -7 -14 -17 -11 -22 3 -5
-2 -12 -11 -15 -13 -6 -14 -8 -3 -15 10 -7 10 -9 0 -9 -19 0 -27 31 -11 40 11
7 10 10 -4 16 -9 3 -17 15 -17 25 0 10 -4 19 -10 19 -5 0 -10 9 -10 20 0 13
-5 18 -16 13 -13 -5 -15 9 -13 115 2 87 -1 125 -11 137 -7 8 -9 15 -5 15 5 0
1 8 -7 18 -33 37 -128 269 -128 313 0 25 56 128 82 150 13 11 35 25 51 30 15
6 27 14 27 19 0 4 14 25 31 46 18 22 42 62 55 91 13 28 28 54 33 58 6 3 18 32
27 63 9 31 23 67 31 78 13 20 10 26 -41 78 -31 31 -64 56 -74 56 -12 0 -28 18
-46 50 -15 28 -38 58 -52 66 -13 9 -24 21 -24 26 0 13 -77 88 -90 88 -15 0
-12 -20 4 -26 8 -3 18 -18 21 -34 4 -18 14 -30 29 -34 32 -8 36 -38 37 -300
l1 -218 -26 -39 c-14 -21 -44 -48 -66 -59 -22 -11 -59 -29 -82 -41 -40 -21
-77 -55 -78 -73 0 -5 -16 -28 -35 -52 -48 -58 -130 -104 -186 -104 -39 0 -48
5 -84 44 -22 24 -59 53 -81 64 -40 20 -94 74 -94 93 0 5 -7 9 -16 9 -8 0 -20
13 -25 29 -25 70 -82 3 -79 -92 3 -101 5 -97 -43 -97 -24 0 -48 5 -54 11 -6 6
-47 12 -90 13 -72 1 -78 -1 -78 -19 0 -18 6 -20 54 -17 51 2 70 -6 71 -30 0
-7 -93 -38 -112 -38 -5 0 -13 11 -18 25 -9 23 -25 30 -58 26 -8 -1 -26 6 -40
16 -25 16 -119 63 -128 63 -2 0 -10 -13 -19 -30 -13 -26 -15 -182 -15 -1320 0
-709 2 -1290 5 -1290 8 0 56 55 108 125 67 90 212 234 298 298 90 67 259 157
294 157 55 0 46 -59 -28 -193 -20 -37 -37 -81 -37 -98 0 -20 -12 -43 -38 -72
-43 -48 -72 -91 -72 -108 0 -12 -39 -107 -66 -164 -8 -16 -33 -49 -54 -73 -24
-26 -46 -64 -55 -95 -35 -118 -54 -150 -114 -188 -31 -20 -77 -46 -103 -57
-56 -24 -67 -51 -48 -117 15 -54 8 -66 -50 -85 -36 -12 -40 -16 -40 -47 l0
-33 3580 0 3580 0 0 134 0 135 -45 6 c-51 8 -59 23 -74 141 -5 39 -17 88 -26
108 -10 20 -15 39 -12 42 2 3 22 -6 42 -21 21 -14 45 -25 54 -25 9 0 26 -3 39
-6 22 -6 22 -5 22 89 l0 95 -62 5 c-54 4 -65 2 -77 -14 -24 -34 -41 -23 -41
26 0 86 -25 152 -79 208 -74 77 -109 125 -115 155 -3 15 -8 46 -11 70 -5 31
-15 49 -35 63 -24 19 -27 26 -23 60 5 36 2 42 -43 84 -30 28 -65 50 -91 56
-26 7 -43 18 -46 30 -3 10 -18 24 -34 31 -31 14 -94 57 -105 73 -4 5 0 21 9
34 10 16 14 38 11 66 -5 41 -5 41 38 54 23 7 57 24 75 37 21 15 46 24 70 24
52 0 69 9 69 36 0 22 -54 74 -78 74 -6 0 -16 14 -24 30 -7 17 -21 33 -30 36
-10 3 -18 9 -18 14 0 14 -55 40 -83 40 -13 0 -35 -9 -49 -19 -13 -11 -43 -24
-66 -30 -36 -10 -42 -15 -42 -39 0 -31 68 -142 87 -142 7 0 13 -9 13 -20 0
-27 -2 -26 -44 16 -25 25 -42 35 -56 31 -10 -3 -24 1 -31 9 -6 8 -18 14 -25
14 -8 0 -17 12 -20 27 -7 24 -8 25 -20 8 -18 -24 -40 -6 -54 45 -8 29 -19 42
-48 57 -20 10 -56 31 -79 46 -24 15 -53 27 -65 27 -22 0 -97 45 -111 67 -4 7
-12 13 -18 13 -5 0 -22 11 -37 25 -23 22 -25 28 -14 45 10 17 10 21 -3 26 -20
8 -19 43 1 51 8 3 27 -3 42 -14 38 -27 118 -63 141 -63 46 0 30 69 -25 113
-37 28 -39 74 -10 170 14 47 26 91 26 98 0 20 76 193 104 238 27 42 103 122
217 227 116 106 129 129 129 230 0 77 2 84 26 103 15 11 29 19 33 18 38 -17
61 -27 91 -38 19 -7 37 -15 40 -18 3 -3 19 -14 36 -23 30 -17 32 -17 48 1 9 9
16 22 16 28 0 6 7 16 15 23 8 7 15 22 15 33 0 11 20 39 45 63 25 23 45 46 45
51 0 36 193 153 251 153 13 0 38 9 54 20 17 11 38 20 48 20 16 0 17 24 16 373
-1 204 -4 359 -6 342 -26 -197 -36 -242 -65 -297 -17 -32 -37 -58 -44 -58 -8
0 -14 -6 -14 -12 0 -17 -63 -91 -106 -123 l-36 -27 -34 18 c-47 25 -65 82 -41
124 9 15 17 44 17 62 0 37 21 63 55 70 11 2 21 13 23 24 2 16 -4 23 -25 28
-15 4 -45 18 -66 32 -33 22 -38 30 -35 57 2 24 12 38 40 56 l36 23 -29 29
c-17 17 -41 29 -56 29 -51 0 -63 30 -62 157 1 124 8 132 44 53 10 -22 22 -40
27 -40 4 0 25 -17 46 -38 44 -44 87 -63 118 -52 21 8 54 51 54 70 0 5 14 29
31 52 33 47 33 79 -2 111 -19 18 -23 32 -20 74 4 44 -82 71 -125 38 -10 -8
-40 -15 -66 -15 -26 0 -58 -5 -71 -11 -18 -8 -37 -7 -79 6 -67 19 -87 38 -70
65 8 13 10 40 6 78 -5 44 -2 66 10 90 15 29 21 32 64 33 65 2 72 0 107 -24 16
-12 34 -23 40 -24 5 -1 24 -6 40 -9 19 -4 56 -32 98 -75 38 -38 76 -69 85 -69
15 0 29 -18 71 -90 8 -14 20 -45 27 -70 11 -39 12 -16 13 191 l1 235 -28 45
c-55 85 -129 145 -258 206 -75 35 -79 36 -218 39 -123 3 -149 1 -205 -18 -69
-22 -169 -77 -191 -103 -7 -8 -18 -15 -26 -15 -13 0 -97 -91 -156 -170 -36
-48 -179 -324 -223 -430 -28 -67 -41 -110 -76 -240 -38 -145 -78 -237 -146
-335 -62 -88 -72 -98 -136 -129 -50 -25 -60 -27 -86 -16 -16 6 -39 9 -50 5
-15 -5 -21 -2 -21 9 0 10 -9 16 -24 16 -33 0 -56 25 -56 61 0 16 -5 29 -11 29
-8 0 -10 14 -6 40 4 34 2 40 -13 40 -15 0 -17 -7 -13 -44 8 -65 -4 -114 -28
-121 -11 -4 -24 -18 -29 -31 -16 -41 -31 -31 -30 21 0 3 -7 21 -15 41 -8 20
-15 57 -15 83 0 26 -4 51 -9 57 -5 5 -19 41 -31 79 -13 39 -36 95 -51 125 -16
31 -32 78 -35 105 -5 38 -17 64 -51 108 -45 57 -93 160 -93 196 0 11 9 57 20
103 24 102 26 239 4 345 -28 137 -105 265 -176 293 -18 7 -38 19 -44 26 -11
14 -123 38 -219 48 -27 3 -67 8 -87 12 -27 5 -38 3 -38 -6 0 -7 6 -10 14 -7 8
3 17 -1 20 -9 8 -21 7 -26 -9 -47 -13 -18 -14 -18 -34 2 -11 11 -16 23 -11 26
6 4 10 12 10 18 0 14 -115 78 -171 96 -20 6 -48 25 -62 40 -17 20 -39 31 -69
36 -24 4 -47 11 -53 15 -24 18 -111 31 -139 21 -46 -18 -110 -13 -170 14 -43
19 -79 26 -162 30 -114 6 -144 15 -144 43 -3 243 -7 343 -15 351 -7 7 -18 6
-35 -2z m459 -493 c3 -3 -2 -12 -12 -19 -19 -14 -46 -11 -86 8 l-24 12 29 7
c30 7 83 2 93 -8z m-169 -44 c0 -5 -13 -10 -30 -10 -16 0 -30 5 -30 10 0 6 14
10 30 10 17 0 30 -4 30 -10z m-30 -90 c0 -5 -9 -10 -20 -10 -11 0 -20 5 -20
10 0 6 9 10 20 10 11 0 20 -4 20 -10z m872 -86 c-5 -26 -10 -30 -23 -17 -14
14 -3 46 14 40 6 -2 10 -13 9 -23z m-111 -14 c5 0 9 -7 9 -15 0 -18 -14 -19
-41 -4 -22 11 -15 34 8 25 8 -3 19 -6 24 -6z m2279 -670 c0 -11 -4 -20 -9 -20
-11 0 -22 26 -14 34 12 12 23 5 23 -14z m-2465 -260 c4 -6 1 -17 -5 -25 -7 -8
-9 -26 -5 -43 5 -23 0 -35 -24 -63 -17 -19 -31 -37 -31 -40 0 -8 -71 -46 -100
-52 -14 -4 -64 -33 -110 -67 -47 -33 -89 -60 -93 -60 -4 0 -15 -17 -24 -37
-19 -47 -28 -53 -80 -53 -40 0 -43 3 -91 69 -48 66 -112 124 -112 102 0 -6 -7
-11 -15 -11 -9 0 -12 6 -9 15 4 8 15 15 26 15 17 0 18 2 8 15 -18 22 -8 27 26
14 43 -16 124 6 215 58 76 44 197 92 234 93 11 0 29 7 39 15 11 8 32 15 46 15
15 0 40 11 56 25 32 28 40 30 49 15z m259 -135 c36 -8 49 -24 76 -99 16 -43
19 -60 10 -66 -8 -5 -6 -9 7 -15 14 -5 8 -11 -31 -26 -59 -24 -119 -22 -124 4
-3 14 5 17 50 17 29 0 60 5 68 10 8 5 10 10 4 10 -5 0 -19 8 -30 18 -89 80
-114 98 -145 100 -33 3 -59 17 -59 34 0 25 88 32 174 13z m2145 -64 c27 -37
27 -62 0 -84 -29 -25 -38 -19 -60 38 -25 67 -24 75 10 75 21 0 36 -8 50 -29z
m-3138 -33 c-11 -10 -13 -10 -7 0 5 7 1 12 -11 12 -15 0 -16 2 -3 10 21 13 38
-6 21 -22z m44 -148 c3 -5 1 -10 -4 -10 -6 0 -11 5 -11 10 0 6 2 10 4 10 3 0
8 -4 11 -10z m1070 -59 c3 -16 13 -35 21 -42 41 -34 58 -223 29 -311 -36 -105
-124 -138 -367 -138 -137 0 -148 2 -194 26 -66 35 -101 70 -130 128 -23 47
-31 86 -18 86 3 0 36 -20 74 -45 85 -56 129 -67 137 -37 5 23 8 24 93 42 98
22 104 26 147 82 23 30 55 61 70 67 33 14 60 49 67 84 2 14 9 35 16 46 6 12 8
26 5 31 -3 6 5 10 19 10 19 0 26 -7 31 -29z m-255 -94 c0 -7 -9 -18 -20 -25
-22 -14 -25 -9 -10 19 12 21 30 26 30 6z m-575 -43 c25 -6 61 -72 75 -137 6
-27 24 -75 40 -107 17 -33 30 -66 30 -74 0 -8 27 -44 60 -80 47 -52 60 -73 60
-99 0 -61 20 -67 52 -16 16 25 16 27 0 32 -9 2 -26 22 -37 43 -10 22 -26 47
-34 57 -22 27 -7 31 61 17 85 -19 377 -19 443 -2 28 8 60 18 71 24 46 22 52
10 37 -72 -33 -189 -32 -180 -9 -168 12 6 29 17 38 25 25 22 62 13 66 -17 5
-33 22 -52 39 -46 20 8 27 -19 11 -47 -16 -30 -111 -117 -128 -117 -8 0 -9 10
-5 30 6 25 3 30 -12 30 -28 0 -58 -62 -77 -155 -9 -44 -22 -100 -30 -125 -20
-65 -114 -261 -139 -287 -17 -19 -22 -42 -28 -130 -5 -60 -13 -139 -19 -178
-6 -38 -15 -117 -20 -175 -12 -147 -19 -183 -46 -236 -13 -26 -24 -53 -24 -59
0 -20 -110 -105 -136 -105 -13 0 -24 5 -24 10 0 6 -5 10 -11 10 -5 0 -8 -4 -5
-8 3 -5 -9 -6 -26 -4 -34 5 -68 30 -68 49 0 7 -1 13 -2 13 -2 1 -21 3 -43 6
-48 7 -54 12 -35 25 8 5 34 6 57 3 40 -6 45 -4 80 35 54 57 63 69 63 79 0 4
11 32 25 60 29 60 31 79 11 117 -8 15 -12 33 -10 40 3 7 -9 33 -25 58 -36 52
-40 96 -11 115 11 7 20 21 20 32 0 18 -3 19 -21 9 -27 -14 -224 -9 -299 8 -33
7 -62 21 -73 34 -13 16 -34 23 -85 30 -37 4 -78 11 -92 15 -29 9 -80 54 -80
71 0 6 -16 28 -35 49 -20 21 -32 40 -28 43 18 14 13 40 -9 43 -13 2 -24 11
-26 23 -2 11 -12 29 -23 41 -16 17 -17 24 -7 52 14 35 23 40 32 17 3 -8 11
-15 18 -15 6 0 23 -11 37 -24 16 -15 48 -29 86 -36 156 -31 206 -32 315 -2 69
18 84 39 42 57 -12 5 -21 14 -19 18 3 9 53 31 139 61 25 9 58 28 72 41 15 13
45 30 67 37 35 10 43 10 53 -3 6 -9 23 -24 39 -33 l27 -18 0 39 c0 22 7 48 15
59 8 10 15 28 15 39 0 11 9 31 20 45 11 14 20 29 20 35 0 18 -74 85 -95 85
-29 0 -57 -51 -57 -105 0 -55 -9 -59 -134 -58 -132 2 -417 49 -359 60 48 9 79
30 143 94 64 64 72 69 112 69 71 0 101 46 64 98 -18 25 -39 28 -74 7 -56 -32
-68 -34 -137 -24 -37 6 -85 20 -106 31 -49 26 -92 26 -127 0 -42 -31 -60 -26
-50 13 2 6 2 21 1 35 -2 43 19 79 55 92 35 12 40 22 59 118 4 19 18 57 31 84
15 31 21 58 18 73 -4 13 1 44 11 69 21 55 55 73 110 58z m-923 -164 c3 -39 34
-55 50 -26 13 24 37 19 48 -9 5 -14 17 -25 26 -25 10 0 14 -6 11 -14 -9 -23
18 -39 42 -27 22 12 82 24 126 25 20 1 30 -4 30 -14 0 -21 15 -30 50 -30 48 0
61 -15 27 -29 -32 -13 -244 -10 -312 5 -74 15 -120 75 -120 157 0 49 17 39 22
-13z m2435 -12 c-3 -8 -6 -5 -6 6 -1 11 2 17 5 13 3 -3 4 -12 1 -19z m-2465
-152 c28 -22 73 -45 99 -52 62 -16 74 -23 61 -36 -14 -14 -3 -38 17 -38 10 0
26 7 37 15 15 11 16 16 6 23 -9 6 8 11 49 16 87 9 177 8 183 -3 9 -13 -42 -31
-90 -31 -49 0 -66 -18 -43 -46 10 -12 33 -15 116 -13 57 1 106 -1 110 -4 3 -4
7 -21 9 -39 2 -18 6 -52 9 -75 7 -50 -14 -104 -50 -127 -13 -9 -26 -24 -29
-34 -9 -28 -50 -42 -101 -35 -68 9 -125 -35 -116 -89 2 -13 -37 -9 -42 5 -4 8
-8 9 -14 1 -11 -15 -68 -44 -88 -44 -10 0 -15 -9 -15 -28 0 -16 -8 -36 -17
-45 -16 -14 -20 -14 -38 2 -37 32 -59 86 -31 75 25 -10 59 15 53 39 -15 71
-50 193 -58 201 -4 5 -14 43 -21 83 -8 48 -18 78 -28 83 -12 7 -17 27 -18 85
-2 42 2 82 7 89 7 8 6 21 -4 40 -8 16 -14 36 -14 45 1 11 3 10 6 -4 2 -11 27
-38 55 -59z m2654 -244 c-13 -12 -16 8 -9 49 l8 44 3 -44 c2 -23 1 -46 -2 -49z
m-84 16 c8 -13 18 -46 21 -75 3 -28 11 -60 17 -70 5 -10 25 -56 44 -103 28
-71 37 -85 57 -86 38 -2 79 -57 79 -106 0 -26 -6 -45 -17 -53 -13 -9 -16 -27
-14 -81 2 -70 -6 -104 -53 -229 -35 -93 -46 -217 -22 -263 9 -18 27 -34 41
-38 28 -7 31 -16 12 -32 -8 -7 -18 -6 -31 4 -23 16 -79 18 -107 4 -36 -20
-108 -28 -142 -16 -47 16 -87 44 -87 61 0 14 -10 17 -67 20 -30 1 -73 43 -73
71 0 17 8 24 30 29 28 6 30 10 29 48 -1 23 7 60 16 81 26 61 44 153 69 361 23
178 48 307 65 330 5 6 16 32 25 60 16 49 60 105 82 105 6 0 18 -10 26 -22z
m-5007 -279 c23 -36 169 -56 511 -68 355 -13 377 -16 409 -44 28 -26 58 -94
44 -102 -5 -4 -9 -22 -9 -41 0 -34 -29 -105 -56 -134 -8 -8 -46 -54 -85 -102
-39 -49 -76 -88 -81 -88 -31 0 -172 -183 -184 -239 -12 -57 -24 -70 -96 -104
-64 -31 -88 -37 -206 -47 -106 -10 -145 -10 -193 0 -105 22 -121 64 -134 340
-12 251 -32 439 -49 463 -9 12 -23 32 -31 43 -15 20 -14 23 20 43 24 14 42 35
52 61 9 21 23 41 32 43 18 4 47 -8 56 -24z m3553 -120 c32 -12 21 -24 -37 -44
-49 -16 -121 -13 -121 6 0 5 21 20 48 33 46 24 57 25 110 5z m85 4 c-7 -2 -21
-2 -30 0 -10 3 -4 5 12 5 17 0 24 -2 18 -5z m-815 -61 c3 -31 2 -32 -35 -32
-36 0 -39 2 -38 26 0 17 7 30 20 35 35 14 50 6 53 -29z m-298 -63 c0 -17 -4
-28 -10 -24 -5 3 -10 17 -10 31 0 13 5 24 10 24 6 0 10 -14 10 -31z m1956
-207 c5 -74 3 -112 -3 -112 -6 0 -13 -9 -16 -20 -6 -22 55 -80 85 -80 21 0 23
-19 4 -45 -8 -12 -11 -34 -8 -62 5 -42 4 -43 -26 -43 -17 0 -37 -3 -46 -6 -13
-5 -16 2 -16 42 0 42 -4 52 -28 69 -37 27 -133 134 -153 172 -15 28 -22 31
-83 38 -50 5 -69 11 -81 27 -13 19 -12 23 3 34 9 8 27 14 39 14 12 0 25 5 28
10 3 6 22 10 41 10 19 0 59 13 91 30 31 17 61 30 67 30 6 0 22 9 36 20 24 18
26 18 42 2 14 -13 19 -42 24 -130z m-2096 56 c105 -72 101 -98 -16 -109 -42
-4 -84 -4 -93 1 -9 5 -24 11 -33 14 -29 9 -24 77 8 110 37 36 63 33 134 -16z
m-1260 -218 c0 -5 6 -10 14 -10 46 0 15 -64 -36 -75 -18 -4 -40 -13 -48 -21
-19 -16 -35 -7 -43 25 -4 17 -1 24 11 28 10 2 26 17 37 34 19 28 65 42 65 19z
m4211 -260 l24 -19 -37 -1 c-20 0 -40 -4 -43 -10 -3 -5 -14 -10 -23 -10 -16 1
-16 2 0 14 10 7 15 16 11 20 -8 8 15 26 33 26 7 0 22 -9 35 -20z m-4221 -15
c9 -11 5 -21 -19 -47 -29 -31 -33 -32 -45 -15 -16 21 -26 22 -26 2 0 -8 -5
-15 -11 -15 -6 0 -8 8 -4 19 4 14 1 19 -12 17 -25 -2 -29 32 -4 42 36 13 109
11 121 -3z m4307 -21 c-3 -3 -12 -4 -19 -1 -8 3 -5 6 6 6 11 1 17 -2 13 -5z
m-507 -14 c0 -5 -5 -10 -11 -10 -5 0 -7 5 -4 10 3 6 8 10 11 10 2 0 4 -4 4
-10z m543 -7 c-7 -2 -19 -2 -25 0 -7 3 -2 5 12 5 14 0 19 -2 13 -5z m-366 -45
c-3 -8 -6 -5 -6 6 -1 11 2 17 5 13 3 -3 4 -12 1 -19z m-17 -34 c0 -31 -23 -28
-28 4 -2 15 2 22 12 22 11 0 16 -9 16 -26z m-270 -65 c0 -5 -18 -25 -40 -45
-22 -20 -40 -42 -40 -49 0 -12 -114 -55 -145 -55 -8 0 -19 8 -24 19 -6 10 -23
21 -38 24 -35 7 -113 58 -113 73 0 11 30 24 56 24 6 0 24 -11 40 -25 21 -18
41 -25 72 -25 44 0 141 35 154 55 8 13 78 17 78 4z m580 -83 c0 -18 -17 -29
-30 -21 -8 5 -7 11 1 21 15 18 29 18 29 0z m137 -55 c18 -7 42 -11 53 -8 16 4
20 0 20 -19 0 -17 -6 -24 -19 -24 -11 0 -23 -4 -26 -10 -10 -17 -50 -11 -73
10 -26 24 -25 21 -11 57 5 15 13 23 17 17 4 -6 22 -16 39 -23z m-4833 -290
c15 -24 -63 -170 -91 -171 -20 0 -26 44 -10 81 15 37 69 99 85 99 6 0 13 -4
16 -9z m5341 -281 c3 -5 17 -10 30 -10 29 0 42 -17 25 -33 -10 -9 -14 -9 -17
1 -3 6 -8 12 -13 12 -22 0 -61 21 -55 30 8 13 22 13 30 0z m-2391 -9 c3 -5 -1
-14 -9 -21 -13 -10 -15 -9 -15 9 0 21 14 28 24 12z m-429 -81 c-4 -7 25 -8 89
-4 97 7 114 1 77 -25 -26 -19 -124 -74 -206 -115 -69 -34 -175 -62 -175 -45 0
5 8 9 17 9 30 0 4 14 -38 19 -22 3 -39 10 -39 14 1 5 -7 15 -17 23 -16 12 -16
15 -3 24 8 5 24 10 36 10 12 0 25 10 31 23 11 23 31 31 146 54 15 3 27 9 27
14 0 5 14 9 31 9 18 0 28 -4 24 -10z m379 -5 c-4 -8 -8 -15 -10 -15 -2 0 -4 7
-4 15 0 8 4 15 10 15 5 0 7 -7 4 -15z m-67 -107 c-3 -8 -6 -5 -6 6 -1 11 2 17
5 13 3 -3 4 -12 1 -19z m-17 -48 c0 -11 -4 -20 -10 -20 -5 0 -10 9 -10 20 0
11 5 20 10 20 6 0 10 -9 10 -20z m-53 -82 c-3 -8 -6 -5 -6 6 -1 11 2 17 5 13
3 -3 4 -12 1 -19z m-1273 -34 c9 -3 16 -12 16 -20 0 -10 8 -12 30 -7 17 3 30
2 29 -3 -1 -5 1 -17 6 -27 6 -14 10 -15 22 -6 11 9 17 9 26 0 9 -9 5 -17 -18
-36 -17 -13 -35 -24 -41 -25 -7 0 -14 -9 -17 -20 -8 -29 -36 -25 -74 12 -37
35 -40 50 -18 68 8 7 15 25 15 41 0 31 1 32 24 23z m1239 -59 c-8 -22 -22 -18
-16 5 3 11 9 17 14 15 4 -3 6 -12 2 -20z"/>
<path d="M4010 4550 c0 -5 7 -10 15 -10 8 0 15 5 15 10 0 6 -7 10 -15 10 -8 0
-15 -4 -15 -10z"/>
<path d="M4530 3405 c-13 -16 -6 -35 15 -35 12 0 25 21 25 41 0 14 -26 11 -40
-6z"/>
<path d="M4159 2643 c0 -5 -2 -16 -4 -25 -2 -10 1 -18 6 -18 5 0 9 11 9 25 0
22 -9 37 -11 18z"/>
<path d="M4121 2614 c0 -11 3 -14 6 -6 3 7 2 16 -1 19 -3 4 -6 -2 -5 -13z"/>
<path d="M2790 3812 c0 -4 4 -13 9 -20 7 -11 9 -11 14 1 3 9 -1 18 -9 21 -8 3
-14 2 -14 -2z"/>
<path d="M945 4563 c-11 -2 -30 -6 -41 -8 l-22 -5 20 -77 c31 -120 12 -289
-42 -372 -16 -26 -30 -56 -30 -65 0 -22 53 -76 74 -76 26 0 19 -24 -16 -57
-25 -23 -49 -34 -102 -43 -63 -12 -135 -44 -136 -62 0 -4 11 -15 25 -24 32
-21 34 -67 5 -87 -19 -13 -20 -16 -5 -31 10 -10 36 -17 68 -18 81 -2 100 2
134 28 17 13 39 24 48 24 13 0 14 4 4 22 -10 19 -6 26 42 71 30 27 64 56 77
64 24 17 28 44 11 91 -9 26 -7 39 9 74 11 24 22 60 25 82 4 21 13 46 21 55 14
15 66 144 66 162 0 5 -15 15 -32 23 -42 19 -88 61 -88 80 0 20 -52 139 -65
148 -11 8 -18 8 -50 1z"/>
<path d="M5140 4190 c0 -5 5 -10 10 -10 6 0 10 5 10 10 0 6 -4 10 -10 10 -5 0
-10 -4 -10 -10z"/>
<path d="M6940 4164 c0 -5 7 -18 15 -28 12 -16 15 -17 15 -4 0 8 -7 21 -15 28
-8 7 -15 9 -15 4z"/>
<path d="M302 4003 c-13 -3 -21 -10 -19 -16 6 -19 69 -35 153 -39 65 -2 79 0
79 12 0 31 -134 58 -213 43z"/>
<path d="M177 3714 c-12 -12 4 -24 33 -24 22 0 28 -4 24 -15 -5 -11 1 -15 25
-15 17 0 31 5 31 10 0 6 -9 10 -20 10 -10 0 -23 6 -27 14 -9 16 -55 30 -66 20z"/>
<path d="M0 3485 c0 -14 4 -25 9 -25 12 0 19 21 13 38 -8 21 -22 13 -22 -13z"/>
</g>
</svg>
