<?xml version="1.0" encoding="utf-8"?>
<!-- Generator: Adobe Illustrator 24.3.0, SVG Export Plug-In . SVG Version: 6.00 Build 0)  -->
<svg version="1.1" xmlns="http://www.w3.org/2000/svg" xmlns:xlink="http://www.w3.org/1999/xlink" x="0px" y="0px"
	 viewBox="0 0 224.1 237.5" style="enable-background:new 0 0 224.1 237.5;" xml:space="preserve">
<style type="text/css">
	.st0{clip-path:url(#SVGID_2_);}
	.st1{clip-path:url(#SVGID_4_);fill:#1A1B2F;}
	.st2{clip-path:url(#SVGID_6_);}
	.st3{clip-path:url(#SVGID_8_);fill:#F1748A;}
	.st4{fill:#F1748A;}
	.st5{fill:#FDD56F;}
	.st6{fill:#EC4796;}
	.st7{clip-path:url(#SVGID_10_);}
	.st8{clip-path:url(#SVGID_12_);fill:#F1748A;}
	.st9{fill:#FFFFFF;}
	.st10{fill:none;stroke:#EC4796;stroke-width:2;stroke-miterlimit:10;}
	.st11{fill:none;stroke:#F1748A;stroke-width:2;stroke-miterlimit:10;}
	.st12{fill:none;stroke:#FFFFFF;stroke-width:1.9929;stroke-miterlimit:10;}
	.st13{fill:none;stroke:#1A1B2F;stroke-width:2.2288;stroke-miterlimit:10;}
	.st14{fill:#1A1B2F;}
	.st15{clip-path:url(#SVGID_14_);}
	.st16{fill:#FFD1C2;}
	.st17{fill:#D69241;}
	.st18{fill:#6CBFAD;}
	.st19{fill:#1C2021;}
	.st20{fill:#F78271;}
	.st21{clip-path:url(#SVGID_16_);}
	.st22{fill:#853C2B;}
	.st23{clip-path:url(#SVGID_18_);}
	.st24{fill:#FECA9A;}
	.st25{clip-path:url(#SVGID_20_);}
	.st26{fill:none;stroke:#1C2021;stroke-width:3.8694;stroke-miterlimit:10;}
	.st27{clip-path:url(#SVGID_22_);}
	.st28{clip-path:url(#SVGID_24_);}
	.st29{clip-path:url(#SVGID_26_);}
	.st30{clip-path:url(#SVGID_28_);}
	.st31{clip-path:url(#SVGID_30_);}
	.st32{clip-path:url(#SVGID_32_);}
	.st33{clip-path:url(#SVGID_34_);}
	.st34{clip-path:url(#SVGID_36_);fill:#FDD56F;}
	.st35{fill:none;stroke:#1C2021;stroke-width:5.7091;stroke-miterlimit:10;}
	.st36{fill:#ED4462;}
	.st37{fill:#00BDFF;}
	.st38{fill:#FFA630;}
	.st39{display:none;}
	.st40{display:inline;fill:#606060;}
</style>
<g id="Layer_1">
	<g>
		<g>
			<defs>
				<circle id="SVGID_23_" cx="328" cy="-97.7" r="110"/>
			</defs>
			<use xlink:href="#SVGID_23_"  style="overflow:visible;fill:#FFFFFF;"/>
			<clipPath id="SVGID_2_">
				<use xlink:href="#SVGID_23_"  style="overflow:visible;"/>
			</clipPath>
			<use xlink:href="#SVGID_23_"  style="overflow:visible;fill:none;stroke:#F1748A;stroke-width:4;stroke-miterlimit:10;"/>
		</g>
	</g>
	<g>
		<g>
			<defs>
				<circle id="SVGID_31_" cx="112" cy="112" r="110"/>
			</defs>
			<use xlink:href="#SVGID_31_"  style="overflow:visible;fill:#FFFFFF;"/>
			<clipPath id="SVGID_4_">
				<use xlink:href="#SVGID_31_"  style="overflow:visible;"/>
			</clipPath>
			<g style="clip-path:url(#SVGID_4_);">
				<path class="st16" d="M163.1,158.2c0,0-2.4,25.8-5.1,36.6c-2.7,10.8-17.4,29.4-26.5,33.5c0,0-4.6,3.4-4.8-8.4
					c-0.2-11.8,1.2-31.1,1.2-31.1s-1-1.4,1-5.8c1.9-4.3,6-17.1,9.2-22.4c3.1-5.3,0-5.8,4.3-5.8C146.7,154.8,149.1,160.6,163.1,158.2
					z"/>
				<path class="st16" d="M72.2,162c0,0,11.8-1.2,11.8-1.9c0-0.7-2.4-1.7,2.4-4.1c4.8-2.4,8.7-4.1,8.7-4.1s-2.9-3.4,1,10.1
					c3.9,13.5,9.2,22.9,9.2,22.9s4.3,8.7,3.9,12.8c-0.5,4.1,1.9,11.3,1.2,21.2c-0.7,9.9,0.2,10.8-12.3,4.3
					c-12.5-6.5-21.4-27.5-23.4-38.3C72.7,174.1,72.2,162,72.2,162z"/>
				<path class="st22" d="M109.2,32.6c0,0-4.8-9.6-19.3-5.3c0,0-14.3,0.8-30.5,39.4c-16.2,38.6,16.9,59.1,16.9,59.1l9.8,3.9
					c0,0,9.6,5.9,5.9,2.7c-3.7-3.2-9.8-7.4-11.7-16.2c-1.9-8.8-1.3-32.1,1.3-38.7c2.6-6.6,11.4-13.2,13-14.5
					c1.6-1.3,11.7-6.7,14.5-12.4c2.7-5.6,2.4-8.3,2.4-8.3s5.6,9.8,14.3,17.3c8.7,7.6,19.8,16.9,22.5,30.4
					c2.7,13.5-1.1,29.2-6.3,34.7c-5.1,5.5,1,1.4,1,1.4s-0.5,4.2,8.2-0.6c8.7-4.8,5.1-3.2,5.1-3.2s-0.6,2.9,3.9,0
					c4.5-2.9,14.8-18.2,10.9-36.5c-3.9-18.3-9.3-36.1-23.1-46.3c-13.8-10.1-25.5-14.6-32.5-10.9S109.2,32.6,109.2,32.6z"/>
				<path class="st24" d="M111.2,44.2c0,0,4.3,1.8-6.9,14.6C93.2,71.5,83.8,70.3,82.1,86c-1.7,15.7,3.7,24.7,8.6,29.8
					c4.8,5.1,9.3,9.5,10.1,11.6c0.8,2,3,11.8,1.7,21c-1.3,9.2-6.1,12.5-6.1,12.5s4.5,13.3,7.7,17.6c3.3,4.3,5.3,8.9,5.5,18.2
					c0.2,9.3,0.8,11.6,0.8,11.6s1.8,4.2,6.1,4.2c4.3,0,10.1,1,10-3c-0.1-4-1.8-18.7-1.8-21.3c0-2.7,4.9-16,6.7-22
					c1.8-6,1.8-3.4-1-14.7c-2.8-11.3-0.1-25.5-0.1-25.5s10.5-14,11.6-24c1.1-10-0.2-22.7-0.2-22.7s-4.3-7.3-9.4-10.8
					c-5.1-3.5-11.1-10-14.1-11.9C115.2,54.4,111.2,44.2,111.2,44.2z"/>
				<path class="st9" d="M130.4,83.8c0,0-13.9,1.1-6.3,4c7.6,2.9,12.7-2.4,9.6-3.4S130.4,83.8,130.4,83.8z"/>
				<path class="st9" d="M103.1,84.9c0,0-16.3,0.1-9.2,3.9s11.1-1.9,11.1-1.9S105.3,85.3,103.1,84.9z"/>
				<g>
					<path class="st19" d="M116.5,135.7c-2.8,0-5.7-0.7-8.1-2c-3-1.7-5.5-4-8-6.3c-1-0.9-2-1.9-3-2.8c-3.4-3-6.2-5.6-8.6-8.7
						c-7.8-10-9.1-22.4-9.8-33.2c0-0.4,0.3-0.7,0.6-0.7c0.4-0.1,0.7,0.3,0.7,0.6c0.7,10.7,2,22.8,9.5,32.5c2.3,3,5.1,5.5,8.4,8.5
						c1,0.9,2.1,1.9,3.1,2.8c2.4,2.2,4.8,4.6,7.7,6.2c4.2,2.3,10,2.5,14,0.4c2.5-1.4,4.6-4.1,6.6-6.7c0.8-1,1.5-2,2.3-2.8
						c7.8-9.1,12-18,12.7-27.3c0.5-6.3,0-12.6-0.8-20.3l-0.1-0.8c-0.5-4.4-1-8.9-2.5-12.9c-0.1-0.3,0-0.7,0.4-0.9
						c0.3-0.1,0.7,0,0.9,0.4c1.6,4.2,2.1,8.8,2.6,13.2l0.1,0.8c0.9,7.7,1.3,14.1,0.8,20.5c-0.7,9.6-5,18.7-13,28
						c-0.7,0.8-1.5,1.8-2.2,2.8c-2.1,2.7-4.2,5.5-7,7C121.5,135.1,119,135.7,116.5,135.7z"/>
					<path class="st19" d="M95,135.4c-0.1,0-0.2,0-0.3-0.1c-0.2-0.1-4.6-2.8-9.4-10.1c-4.8-7.2-6-17.5-4.3-37.8
						c1.3-16,8.6-21.3,16.3-26.9c1.9-1.4,4-2.9,5.9-4.5c9.1-7.8,7.7-13.4,7.7-13.4c-0.1-0.3,0.1-0.7,0.4-0.8
						c0.3-0.1,0.7,0.1,0.8,0.4c0.1,0.3,1.8,6.4-8.1,14.8c-2,1.7-4,3.2-6,4.6c-7.8,5.6-14.5,10.5-15.7,25.9c-1.6,20-0.5,30.1,4.1,37
						c4.7,7,9,9.7,9,9.7c0.3,0.2,0.4,0.6,0.2,0.9C95.5,135.3,95.2,135.4,95,135.4z"/>
					<path class="st19" d="M95.1,135.4c-0.1,0-0.1,0-0.2,0c-0.5-0.2-13.2-4.1-20.3-18.5c-7-14.3-7.6-27.5-1.8-41.6
						c4.2-10.2,16-16.4,23.8-20.5c2.9-1.5,5.4-2.8,6.7-3.9c5-4,6.6-9.9,6.6-10c0.1-0.4,0.4-0.6,0.8-0.5c0.4,0.1,0.6,0.5,0.5,0.8
						c-0.1,0.3-1.7,6.4-7.1,10.7c-1.5,1.2-4,2.5-7,4.1C89.5,60,78,66,74,75.8c-5.6,13.7-5.1,26.6,1.8,40.5
						c6.8,13.8,19.4,17.7,19.5,17.8c0.3,0.1,0.5,0.5,0.4,0.8C95.6,135.2,95.4,135.4,95.1,135.4z"/>
					<path class="st19" d="M83.8,130.3c-0.1,0-0.2,0-0.3-0.1c-1.4-0.7-2.7-1.4-4-2.3c0,0-0.1,0-0.1,0c-15.8-4.9-27.6-26.7-26.1-41
						c1.6-15.6,7.3-31.6,16.1-45.1c6-9.2,16.8-16.2,27-17.5c4.8-0.6,9.1,1.1,11.8,4.3c0.4,0.2,0.9,0.8,1.8,3.2l0,0l0,0l0,0l0,0l0,0
						l0,0c0,0.1,0,0.2,0,0.3l0,0l0,0l0,0l0,0l0,0l0,0l0,0c0,0.1,0,0.2-0.1,0.2l0,0l0,0l0,0l0,0c0,0.1-0.1,0.1-0.2,0.2l0,0l0,0l0,0
						l0,0l0,0l0,0l0,0l0,0l0,0l0,0l0,0c-0.1,0.1-0.2,0.1-0.3,0.1h0c-0.1,0-0.1,0-0.2,0l0,0l0,0l0,0l0,0c-0.1,0-0.1,0-0.2-0.1l0,0
						l0,0l0,0c-4-2.7-7.3-3.2-9.7-1.4c-4.4,4-8.5,7.9-12.4,11.6c-4,3.8-8.1,7.7-12.5,11.7c-12,11.2-12.6,29.7-11.9,44.5
						c1.6,12.4,10.2,24.4,21.5,29.9c0.3,0.2,0.5,0.6,0.3,0.9C84.3,130.2,84.1,130.3,83.8,130.3z M98.2,25.6c-0.5,0-1.1,0-1.6,0.1
						c-9.8,1.2-20.2,8-26,16.9c-8.7,13.3-14.3,29.2-15.9,44.5c-1.3,12.4,7.7,30.6,20.6,37.7c-7.5-6.5-12.8-15.9-14-25.5
						c-0.8-15.2-0.1-34.1,12.3-45.6c4.4-4,8.5-7.9,12.5-11.7c4-3.8,8-7.6,12.5-11.7c2.4-1.8,5.3-1.8,8.7-0.2
						c-0.1-0.2-0.1-0.4-0.1-0.6C104.9,26.8,101.4,25.6,98.2,25.6z"/>
					<path class="st19" d="M95.5,155.9c-0.3,0-0.5-0.1-0.6-0.4c-0.1-0.3,0-0.7,0.3-0.9l0.3-0.1c1.5-0.6,4.7-1.8,4.3-12.1
						c-0.4-11.2-2.8-18.2-2.8-18.3c-0.1-0.3,0.1-0.7,0.4-0.8c0.3-0.1,0.7,0.1,0.8,0.4c0.1,0.3,2.5,7.3,2.9,18.7
						c0.4,11.2-3.5,12.7-5.2,13.4l-0.3,0.1C95.7,155.9,95.6,155.9,95.5,155.9z"/>
					<path class="st19" d="M96.1,197c-0.2,0-0.4-0.1-0.6-0.3c-0.3-0.5-0.1-1,0.6-1.7c-0.3-0.9-1.1-3.5-3.6-7.1
						c-5.1-7.3-7.8-13.5-8.2-18.2c-0.4-6.1-1.8-12.8-2.1-13.4c-0.1-0.2-0.1-0.5,0-0.8c0.3-0.8,1.6-1.3,4-2.3
						c0.7-0.3,1.5-0.6,2.2-0.9c0.6-0.2,1.2-0.6,1.7-1c1.2-0.8,2.3-1.6,3.8-1.3c1.3,0.3,2.4,1.4,3.6,3.6c0.2,0.3,0.1,0.6-0.1,0.8
						c-0.2,0.2-0.6,0.2-0.8,0c-0.7-0.6-1.6-1.1-2-1.2c0,0.1,0,0.2,0,0.3c0.4,2.5,1.4,5.1,3.6,10.7c0.8,2.1,2.6,5.9,4.5,9.8
						c3.8,7.9,6.5,13.7,6.6,15.5c0,0.3-0.2,0.6-0.5,0.7c-0.3,0.1-0.6,0-0.8-0.3c0,0-0.5-0.8-1.5-1c-0.9-0.2-1.9,0.2-2.9,0.9
						c-1.9,1.4-3,2.9-3.9,4.1c-0.8,1-1.4,1.9-2.4,2.4C96.9,196.8,96.5,197,96.1,197z M83.5,156c0.5,1.5,1.8,7.9,2.2,13.7
						c0.3,4.5,3,10.4,7.9,17.6c2.7,3.8,3.6,6.6,3.8,7.5c0.3-0.4,0.7-0.8,1.1-1.3c1-1.3,2.1-2.8,4.2-4.3c1.4-1,2.7-1.4,4-1.2
						c0.3,0,0.5,0.1,0.7,0.2c-1.1-3-3.7-8.6-6-13.3c-1.9-4-3.7-7.7-4.6-9.9c-2.2-5.7-3.2-8.3-3.7-11c-0.1-0.9,0.1-1.4,0.6-1.7
						c0.3-0.1,0.5-0.2,0.9-0.1c-0.4-0.4-0.7-0.6-1.1-0.7c-0.9-0.2-1.7,0.4-2.7,1.1c-0.6,0.4-1.2,0.8-1.9,1.1
						c-0.7,0.3-1.5,0.6-2.2,0.9C85.5,155,83.9,155.6,83.5,156z"/>
					<path class="st19" d="M111.4,237c-0.3,0-0.6-0.2-0.7-0.5c0-0.1-2.4-14.3-1.4-24.7c1-10.2-1.4-21.6-1.4-21.7
						c-0.1-0.4,0.2-0.7,0.5-0.8c0.3-0.1,0.7,0.2,0.8,0.5c0,0.1,2.4,11.7,1.4,22.1c-1,10.3,1.4,24.2,1.4,24.4
						c0.1,0.4-0.2,0.7-0.5,0.8C111.4,237,111.4,237,111.4,237z"/>
					<path class="st19" d="M137.2,155c-0.1,0-0.1,0-0.2,0l-0.3-0.1c-1.7-0.5-5.7-1.8-6.2-13c-0.5-11.4,1.4-18.6,1.4-18.9
						c0.1-0.4,0.5-0.6,0.8-0.5c0.4,0.1,0.6,0.5,0.5,0.8c0,0.1-1.8,7.3-1.4,18.5c0.4,10.3,3.7,11.3,5.2,11.8l0.3,0.1
						c0.3,0.1,0.5,0.5,0.4,0.8C137.7,154.9,137.5,155,137.2,155z"/>
					<path class="st19" d="M138.5,195.7c-0.1,0-0.2,0-0.3-0.1c-0.8-0.5-1.4-1.2-2.1-2c-1-1.1-2.2-2.5-4.2-3.8
						c-1.1-0.7-2.2-0.9-3-0.7c-1,0.3-1.5,1.1-1.5,1.1c-0.1,0.3-0.5,0.4-0.7,0.3c-0.3-0.1-0.5-0.3-0.5-0.6c0-1.9,2.2-7.8,5.4-16
						c1.6-4.1,3.1-8,3.8-10.2c1.6-5.1,1.7-6.4,1.8-8.5l0.1-0.7c0-0.6-0.1-0.9-0.1-0.9c-0.2-0.1-0.7,0.1-1,0.2
						c-0.2,0.1-0.5,0.1-0.8-0.1c-0.2-0.2-0.3-0.5-0.2-0.7c1.4-3.5,5.1-2.1,7.9-1.1c0.4,0.1,0.7,0.3,1.1,0.4c1.3,0.5,2.8,0.6,4,0.6
						c1.3,0.1,2.1,0.1,2.4,0.7c0.1,0.2,0.2,0.5,0.1,0.8c-0.3,0.7-1.2,7.5-1.1,13.6c0,4.8-2.2,11.1-6.8,18.8
						c-1.5,2.5-2.3,4.5-2.7,5.8l0,0.1c-0.4,0.8-0.6,1.6-0.8,2.5c0,0.2-0.2,0.4-0.4,0.5C138.7,195.6,138.6,195.7,138.5,195.7z
						 M129.5,187.7c1,0,2,0.3,3.1,1c2.2,1.3,3.5,2.8,4.5,4c0.4,0.4,0.7,0.8,1,1.1c0.2-0.6,0.4-1.1,0.6-1.7c0.4-1.3,1.2-3.4,2.8-6
						c4.4-7.5,6.6-13.6,6.6-18.1c-0.1-5.5,0.7-11.8,1.1-13.6c-0.3,0-0.8-0.1-1.2-0.1c-1.2-0.1-2.8-0.2-4.3-0.7
						c-0.4-0.1-0.7-0.3-1.1-0.4c-2.2-0.8-4-1.4-5.2-0.9c0.1,0,0.2,0.1,0.4,0.2c0.6,0.4,0.8,1.1,0.8,2.1l-0.1,0.7
						c-0.2,2.2-0.2,3.5-1.9,8.8c-0.7,2.2-2.2,6.1-3.8,10.2c-1.9,4.8-4.1,10.6-5,13.7c0.2-0.1,0.4-0.2,0.7-0.3
						C128.8,187.7,129.1,187.7,129.5,187.7z M139.3,192.4L139.3,192.4L139.3,192.4z"/>
					<path class="st19" d="M128.2,237.5c-0.2,0-0.4-0.1-0.6-0.2c-1-0.7-1.2-3-1.6-13.9c-0.4-10.4,0.1-33.3,0.1-33.6
						c0-0.4,0.3-0.6,0.7-0.6l0,0c0.4,0,0.7,0.3,0.7,0.7c0,0.2-0.5,23.1-0.1,33.5c0.3,7.2,0.5,12,1,12.8c0.3,0,0.6,0.2,0.7,0.4
						c0.1,0.3,0,0.7-0.4,0.8C128.5,237.5,128.4,237.5,128.2,237.5z"/>
					<path class="st19" d="M121.5,213.3c-6.6,0-11.7-3.8-11.8-3.8c-0.3-0.2-0.3-0.6-0.1-0.9c0.2-0.3,0.6-0.4,0.9-0.1
						c0.4,0.3,10.4,7.7,20.3,0.4c0.3-0.2,0.7-0.1,0.9,0.1c0.2,0.3,0.2,0.7-0.1,0.9C128.2,212.4,124.7,213.3,121.5,213.3z"/>
					<path class="st19" d="M155.9,124.5c-0.3,0-0.6-0.2-0.6-0.5c-0.1-0.4,0.1-0.7,0.5-0.8c12.3-3.2,14.9-17.9,16.5-26.7
						c1.2-6.7-0.4-19.1-4-31.8c-0.4-0.7-0.8-1.8-1.2-2.8c-0.4-1-0.8-2-1.2-2.8c-10.3-17.7-23.8-29.3-39-33.5
						c-3.8-0.8-13-1.9-16.9,6.6c-0.2,0.3-0.5,0.5-0.9,0.3c-0.3-0.2-0.5-0.5-0.3-0.9c3-6.5,9.9-9.2,18.5-7.3
						c15.6,4.3,29.4,16.1,39.9,34.1c0.4,0.9,0.8,1.9,1.2,2.9c0.4,1,0.8,2,1.2,2.8c2.8,9.9,5.6,24.2,4.1,32.3
						c-1.7,9.2-4.4,24.4-17.5,27.9C156,124.5,156,124.5,155.9,124.5z"/>
					<path class="st19" d="M147.6,127.9c-0.3,0-0.5-0.2-0.6-0.4c-0.1-0.3,0-0.7,0.4-0.9c8-3,12.9-8.7,14.9-17.5
						c1.1-4.7,1.6-10.4,1.7-17.5c0.1-9.2-2.2-16.7-7.4-24.4c-5.8-8.5-13.5-15.1-21-21.5c-4-3.4-8-6.9-11.9-10.7
						c-0.3-0.3-0.3-0.7,0-0.9c0.3-0.3,0.7-0.3,0.9,0c3.8,3.7,7.8,7.2,11.8,10.6c7.5,6.5,15.3,13.2,21.2,21.8
						c5.4,8,7.8,15.8,7.7,25.2c-0.1,7.2-0.7,13-1.8,17.8c-2.1,9.2-7.3,15.2-15.7,18.4C147.8,127.9,147.7,127.9,147.6,127.9z"/>
					<path class="st19" d="M136,130.3c-0.3,0-0.6-0.2-0.6-0.5c-0.1-0.4,0.2-0.7,0.5-0.8c4-0.8,11.1-5.9,13.7-14.3
						c5.3-17.3,1-37-11.1-50.2c-3.3-3.7-7.9-6.3-12.2-8.9c-6.4-3.8-13-7.7-16.3-14.8c-0.2-0.3,0-0.7,0.3-0.9c0.3-0.2,0.7,0,0.9,0.3
						c3.1,6.7,9.2,10.3,15.7,14.2c4.5,2.6,9.1,5.4,12.6,9.2c12.4,13.6,16.9,33.8,11.4,51.5c-2.8,9-10.3,14.3-14.7,15.2
						C136.1,130.3,136.1,130.3,136,130.3z"/>
					<path class="st19" d="M115.2,109c-0.9,0-1.6-0.3-2.1-0.5c-0.8-0.3-1.1-0.5-1.8-0.1c-0.9,0.5-1.5,0.3-1.8,0
						c-0.7-0.5-0.7-1.7-0.1-3.6c0.1-0.3,0.2-0.7,0.4-1.1c0.8-2.1,2-5.2,0.8-12.5c-1.3-8.4-4.4-10.5-4.4-10.5
						c-0.3-0.2-0.4-0.6-0.2-0.9c0.2-0.3,0.6-0.4,0.9-0.2c0.1,0.1,3.6,2.4,5,11.4c1.2,7.7-0.1,11.1-0.9,13.2c-0.1,0.4-0.3,0.7-0.3,1
						c-0.4,1.4-0.4,2-0.3,2.2c0,0,0.2,0,0.4-0.2c1.2-0.6,2.1-0.2,2.9,0.1c0.5,0.2,1,0.4,1.6,0.4c0.7,0,1-0.2,1.4-0.4
						c0.5-0.3,1.1-0.6,2.2-0.4c0.5,0.1,0.8,0,0.9-0.2c0.1-0.2-0.1-0.6-0.4-0.8c-0.3-0.2-0.4-0.6-0.2-0.9c0.2-0.3,0.6-0.4,0.9-0.2
						c1,0.7,1.2,1.8,0.8,2.4c-0.3,0.7-1.2,1.3-2.4,0.9c-0.6-0.1-0.8,0-1.2,0.2C116.8,108.7,116.2,109,115.2,109z"/>
					<path class="st19" d="M107.1,81.7c0,0-2.9-2.3-8.4-1.4c-6.2,1-10.4,2.7-11.3,3.9c0,0,2.1-3.4,6.2-5
						C97.6,77.6,109.3,75.6,107.1,81.7z"/>
					<path class="st19" d="M120,80.5c0,0,2.9-2.3,8.4-1.4c6.2,1,10.4,2.7,11.3,3.9c0,0-2.1-3.4-6.2-5
						C129.4,76.3,117.7,74.4,120,80.5z"/>
					<path class="st19" d="M120.9,87c-0.2,0-0.3-0.1-0.5-0.2c-0.3-0.3-0.3-0.7,0-0.9c1-1,7.9-5.3,15.8-1.3c0.3,0.2,0.5,0.6,0.3,0.9
						c-0.2,0.3-0.6,0.5-0.9,0.3c-7.1-3.6-13.5,0.4-14.2,1.1C121.3,86.9,121.1,87,120.9,87z"/>
					<path class="st19" d="M128.1,89.4c-1.2,0-2.3-0.2-3.2-0.5c-3.4-1.3-3.5-3-3.5-3.2c0-0.4,0.3-0.7,0.7-0.7c0.4,0,0.6,0.3,0.7,0.6
						c0,0.1,0.2,1.1,2.7,2c2.1,0.8,6,0.4,7.8-0.9c0.7-0.5,1.1-1.1,1.1-1.8c0-0.4,0.3-0.7,0.6-0.7c0.4,0,0.7,0.3,0.7,0.6
						c0,1.1-0.5,2.1-1.6,2.9C132.4,88.9,130.1,89.4,128.1,89.4z M122.7,85.7L122.7,85.7L122.7,85.7z"/>
					<path class="st19" d="M126.2,84c0,0-2.5,1.5-0.2,3.7c2.3,2.2,5.2,0.2,5.1-1.7S129.6,83,126.2,84z"/>
					<path class="st19" d="M91.2,88.2c-0.2,0-0.3-0.1-0.5-0.2c-0.3-0.3-0.3-0.7,0-0.9c1-1,7.9-5.3,15.8-1.3c0.3,0.2,0.5,0.6,0.3,0.9
						c-0.2,0.3-0.6,0.5-0.9,0.3c-7.1-3.6-13.5,0.4-14.2,1.1C91.5,88.1,91.3,88.2,91.2,88.2z"/>
					<path class="st19" d="M98.3,90.6c-1.1,0-2.2-0.2-3.1-0.5c-3.4-1.3-3.5-3-3.5-3.2c0-0.4,0.3-0.7,0.7-0.7c0.4,0,0.6,0.3,0.7,0.6
						c0,0.1,0.2,1.1,2.7,2c2.1,0.8,6,0.4,7.8-0.9c0.7-0.5,1.1-1.1,1.1-1.8c0-0.4,0.3-0.7,0.6-0.7c0.4,0,0.7,0.3,0.7,0.6
						c0,1.1-0.5,2.1-1.6,2.9C102.8,90.1,100.4,90.6,98.3,90.6z M92.9,86.9L92.9,86.9L92.9,86.9z"/>
					<path class="st19" d="M96.4,85.2c0,0-2.5,1.5-0.2,3.7c2.3,2.2,5.2,0.2,5.1-1.7C101.2,85.3,99.8,84.2,96.4,85.2z"/>
					<g>
						<path class="st20" d="M108,116.5c0,0-2.1-0.3-1.4,0.8c0.8,1.1,2.4,2.7,4.8,3.6c2.4,0.9,8.4,0.5,9.9-1.2
							c1.5-1.7,2.1-3.7,2.1-3.7L108,116.5z"/>
						<path class="st19" d="M115,122.1c-1.5,0-2.9-0.2-3.8-0.5c-2.5-1-4.3-2.6-5.1-3.9c-0.4-0.6-0.3-1.1-0.1-1.3
							c0.4-0.7,1.5-0.6,2.1-0.5l15.4-0.4c0.2,0,0.4,0.1,0.5,0.3c0.1,0.2,0.2,0.4,0.1,0.6c0,0.1-0.6,2.1-2.2,3.9
							C120.7,121.5,117.7,122.1,115,122.1z M107.3,117.1c0.8,1.1,2.3,2.4,4.4,3.2c2.3,0.9,7.9,0.4,9.2-1c0.8-0.9,1.3-1.9,1.6-2.5
							l-14.4,0.4c0,0-0.1,0-0.1,0C107.7,117.1,107.5,117.1,107.3,117.1z"/>
					</g>
					<path class="st19" d="M113.2,114.7c-0.1,0-0.2,0-0.2,0c-0.3-0.1-0.5-0.5-0.4-0.9c0.8-2,0.5-5.5,0.5-5.5c0-0.4,0.2-0.7,0.6-0.7
						c0.4,0,0.7,0.2,0.7,0.6c0,0.2,0.4,3.8-0.6,6.2C113.7,114.6,113.4,114.7,113.2,114.7z"/>
					<path class="st19" d="M116.4,114.6c-0.2,0-0.4-0.1-0.6-0.3c-0.5-0.7-0.5-2.1-0.5-2.4c0-0.4,0.3-0.7,0.7-0.7l0,0
						c0.4,0,0.7,0.3,0.7,0.7c0,0.5,0.1,1.3,0.3,1.6c0.2,0.3,0.1,0.7-0.2,0.9C116.7,114.6,116.5,114.6,116.4,114.6z"/>
					<path class="st19" d="M135.7,130.4c-0.3,0-0.5-0.1-0.6-0.4c-0.1-0.3,0-0.7,0.3-0.9c8.4-3.8,12.5-18,12.7-24.5
						c0.2-6.2,0.4-11.4-3.2-19.5c-3.7-8.5-15-19.1-23.5-25.6c-9.4-7.2-9.1-15-9.1-15.3c0-0.4,0.3-0.6,0.7-0.6c0.4,0,0.6,0.3,0.6,0.7
						c0,0.1-0.2,7.5,8.6,14.2c9.1,6.9,20.2,17.4,23.9,26.1c3.7,8.4,3.5,13.8,3.3,20c-0.2,5.4-3.7,21.4-13.5,25.8
						C135.9,130.4,135.8,130.4,135.7,130.4z"/>
					<g>
						<path class="st20" d="M106.5,116.1c1.8-0.4,3.3-0.9,4.4-1.5c1.1-0.7,1.8-0.6,2.9-0.3c1.1,0.4,1.6,0.3,2.3-0.1
							c0.7-0.4,0.8-0.6,2.8,0.1c2,0.7,3.3,1.3,4.5,1.2c1.2,0,2.7,0.4-1.6,0.9c-4.3,0.5-4.6,0.7-6.3,0.8c-1.6,0.1-4.6,0.2-6.6-0.1
							C107,116.9,102.7,117,106.5,116.1z"/>
						<path class="st19" d="M112.6,118.1c-1.2,0-2.6-0.1-3.7-0.2c-0.5-0.1-1.1-0.1-1.8-0.2c-1.9-0.1-2.7-0.2-2.8-1
							c-0.1-0.7,0.7-1,2-1.3c1.9-0.5,3.2-0.9,4.2-1.4c1.4-0.8,2.3-0.7,3.5-0.3c1,0.3,1.3,0.2,1.8-0.1c1-0.5,1.5-0.6,3.3,0.1l1,0.3
							c1.4,0.5,2.4,0.9,3.3,0.8c0.9,0,1.9,0.1,2,0.9c0.1,0.8-0.7,1.1-3.4,1.4c-2.1,0.3-3.3,0.4-4.1,0.6c-0.8,0.1-1.3,0.2-2.2,0.3
							C115,118,113.8,118.1,112.6,118.1z M107.8,116.4c0.4,0,0.9,0.1,1.2,0.1c2,0.3,5,0.2,6.5,0.1c0.8-0.1,1.3-0.1,2.1-0.3
							c0.8-0.1,1.8-0.3,3.7-0.5c-0.5-0.2-1.1-0.4-1.7-0.6l-1-0.3c-1.6-0.5-1.7-0.5-2.1-0.2l-0.2,0.1c-0.9,0.5-1.7,0.5-2.8,0.1
							c-1-0.3-1.5-0.3-2.4,0.2C110.3,115.7,109.1,116.1,107.8,116.4z"/>
					</g>
					<path class="st19" d="M112.1,108c-0.1,0-0.1,0-0.2,0c-0.3-0.1-0.5-0.5-0.4-0.8c0-0.1,1.6-5.2,0.5-12.4
						c-1.1-7.2-3.4-10.8-3.4-10.8c-0.2-0.3-0.1-0.7,0.2-0.9c0.3-0.2,0.7-0.1,0.9,0.2c0.1,0.2,2.5,3.9,3.6,11.4
						c1.1,7.5-0.5,12.7-0.5,13C112.6,107.8,112.4,108,112.1,108z"/>
					<path class="st9" d="M101.4,88.3c0,0.7-0.5,1.2-1.2,1.2c-0.7,0-1.2-0.5-1.2-1.2c0-0.7,0.5-1.2,1.2-1.2
						C100.9,87.1,101.4,87.6,101.4,88.3z"/>
					<path class="st9" d="M130.7,87c0,0.7-0.5,1.2-1.2,1.2c-0.7,0-1.2-0.5-1.2-1.2c0-0.7,0.5-1.2,1.2-1.2
						C130.2,85.8,130.7,86.3,130.7,87z"/>
					<path class="st19" d="M70.3,163c-0.3,0-0.5-0.2-0.6-0.5c-0.1-0.3,0.1-0.7,0.4-0.8c6.9-2.1,12.6-4.4,12.7-4.4
						c0.3-0.1,0.7,0,0.9,0.4c0.1,0.3,0,0.7-0.4,0.9c-0.1,0-5.9,2.3-12.8,4.4C70.5,163,70.4,163,70.3,163z"/>
					<path class="st19" d="M163.3,158.7c-5.4,0-13.4-1.8-13.8-1.8c-0.4-0.1-0.6-0.4-0.5-0.8c0.1-0.4,0.4-0.6,0.8-0.5
						c0.1,0,10.3,2.2,15.2,1.7c0.4,0,0.7,0.2,0.7,0.6c0,0.4-0.2,0.7-0.6,0.7C164.5,158.6,163.9,158.7,163.3,158.7z"/>
				</g>
			</g>
			<use xlink:href="#SVGID_31_"  style="overflow:visible;fill:none;stroke:#F1748A;stroke-width:4;stroke-miterlimit:10;"/>
		</g>
	</g>
</g>
<g id="Layer_2" class="st39">
</g>
</svg>
