<?xml version="1.0" encoding="utf-8"?>
<!-- Generator: Adobe Illustrator 24.3.0, SVG Export Plug-In . SVG Version: 6.00 Build 0)  -->
<svg version="1.1" xmlns="http://www.w3.org/2000/svg" xmlns:xlink="http://www.w3.org/1999/xlink" x="0px" y="0px"
	 viewBox="0 0 108.4 175.6" style="enable-background:new 0 0 108.4 175.6;" xml:space="preserve">
<style type="text/css">
	.st0{clip-path:url(#SVGID_2_);}
	.st1{clip-path:url(#SVGID_4_);fill:#1A1B2F;}
	.st2{clip-path:url(#SVGID_6_);}
	.st3{clip-path:url(#SVGID_8_);fill:#F1748A;}
	.st4{fill:#F1748A;}
	.st5{fill:#FDD56F;}
	.st6{fill:#EC4796;}
	.st7{clip-path:url(#SVGID_10_);}
	.st8{clip-path:url(#SVGID_12_);fill:#F1748A;}
	.st9{fill:#FFFFFF;}
	.st10{fill:none;stroke:#EC4796;stroke-width:2;stroke-miterlimit:10;}
	.st11{fill:none;stroke:#F1748A;stroke-width:2;stroke-miterlimit:10;}
	.st12{fill:none;stroke:#FFFFFF;stroke-width:1.9929;stroke-miterlimit:10;}
	.st13{fill:none;stroke:#1A1B2F;stroke-width:2.2288;stroke-miterlimit:10;}
	.st14{fill:#1A1B2F;}
	.st15{clip-path:url(#SVGID_14_);}
	.st16{fill:#FFD1C2;}
	.st17{fill:#D69241;}
	.st18{fill:#6CBFAD;}
	.st19{fill:#1C2021;}
	.st20{fill:#F78271;}
	.st21{clip-path:url(#SVGID_16_);}
	.st22{fill:#853C2B;}
	.st23{clip-path:url(#SVGID_18_);}
	.st24{fill:#FECA9A;}
	.st25{clip-path:url(#SVGID_20_);}
	.st26{fill:none;stroke:#1C2021;stroke-width:3.8694;stroke-miterlimit:10;}
	.st27{clip-path:url(#SVGID_22_);}
	.st28{clip-path:url(#SVGID_24_);}
	.st29{clip-path:url(#SVGID_26_);}
	.st30{clip-path:url(#SVGID_28_);}
	.st31{clip-path:url(#SVGID_30_);}
	.st32{clip-path:url(#SVGID_32_);}
	.st33{clip-path:url(#SVGID_34_);}
	.st34{clip-path:url(#SVGID_36_);fill:#FDD56F;}
	.st35{fill:none;stroke:#1C2021;stroke-width:5.7091;stroke-miterlimit:10;}
	.st36{fill:#ED4462;}
	.st37{fill:#00BDFF;}
	.st38{fill:#FFA630;}
	.st39{display:none;}
	.st40{display:inline;fill:#606060;}
</style>
<g id="Layer_1">
	<g>
		<g>
			<path class="st16" d="M100.1,139.4c5.1-8.1,8.2-13.3,8.2-13.3s-37.7-15.7-42.9-15.7c-0.6,0-0.9,0-1.1,0c0.9,0.1,3.4,0.8-10.1,4.1
				c-19.2,4.8-36.2,3.1-36.2,3.1s-10.8,2.5-13.6,7.9c-2.8,5.3,12,52.3,37.7,50c15.8-1.4,27.1,4.6,46.4-24.2L100.1,139.4z"/>
			<path class="st24" d="M19.4,85.9c0,0,4.5,25.4,3.1,30.1c-1.5,4.7,14.8,6.7,14.8,6.7s6.4,0.9,9.2,16.6c0,0-0.3-6.7-0.1-9.6
				c0.2-2.9-0.4-6.6,3.3-6.6c3.7,0,10.5-10.1,10.6-10.5c0.1-0.4,0-25,0-25L19.4,85.9z"/>
			<g>
				<g>
					<path class="st24" d="M9,50.8c0,0-1.8-10.1-6.6-5.6c-4.8,4.5,1,15.9,4.2,17.1C9.8,63.4,9.8,57.1,9,50.8z"/>
					<path class="st19" d="M7.3,62.9c-0.3,0-0.6,0-0.9-0.2c-2.3-0.8-5.2-5.5-6.1-9.9c-0.5-2.5-0.6-5.8,1.7-8
						c1.2-1.1,2.4-1.5,3.5-1.2c2.8,0.9,3.9,6.4,4,7.1l0,0c0.8,6.6,0.5,10.5-1,11.7C8.2,62.7,7.8,62.9,7.3,62.9z M4.7,44.6
						c-0.6,0-1.3,0.3-2,1c-2,1.8-1.8,4.8-1.4,7c0.9,4.3,3.7,8.5,5.4,9.1c0.6,0.2,0.9,0,1.1-0.1c0.5-0.4,1.7-2.4,0.6-10.8
						c-0.3-1.5-1.4-5.6-3.3-6.2C5,44.6,4.9,44.6,4.7,44.6z"/>
				</g>
				<g>
					<path class="st24" d="M68.4,49.2c0,0-1-7.6,4.8-5.8c5.8,1.8-0.6,20.7-3.8,18.5C66.2,59.6,68.2,50,68.2,50L68.4,49.2z"/>
					<path class="st19" d="M70,62.6c-0.3,0-0.6-0.1-0.9-0.3c-3.4-2.3-1.6-11.4-1.4-12.4l0.2-0.7c-0.1-0.7-0.4-4.2,1.5-5.8
						c1-0.8,2.3-1,4-0.5c1,0.3,2.3,1.3,2.6,4c0.6,4.9-2.3,13.7-5.1,15.4C70.6,62.5,70.3,62.6,70,62.6z M71.6,43.6
						c-0.6,0-1.1,0.2-1.5,0.5c-1.3,1.1-1.3,4-1.1,5c0,0.1,0,0.1,0,0.2l-0.2,0.8c-0.5,2.6-1.4,9.6,1,11.3c0.1,0.1,0.3,0.2,0.7-0.1
						C72.6,60,75.6,51.8,75,47c-0.2-1.8-0.9-2.8-1.9-3.1C72.5,43.7,72,43.6,71.6,43.6z"/>
				</g>
				<g>
					<path class="st24" d="M6.8,50.4c0-7.2-5.2-19.7-1.2-27.3c4-7.6,16.9-26.9,34.3-21.7c17.5,5.2,30.3,18.9,30.3,27.5
						c0,8.6-1,17.9-0.8,22.1c0.2,4.2,2.2,26.1-3.8,35.3S45.1,103.4,33.1,99C21,94.6,11.4,83.5,9,73.7C6.6,63.9,6.8,50.4,6.8,50.4z"
						/>
					<path class="st19" d="M40.4,100.8c-2.5,0-5.1-0.4-7.5-1.3c-11.5-4.2-21.8-15-24.4-25.7c-2.4-9.7-2.2-23.1-2.2-23.4
						C6.2,48,5.7,45,5,41.8c-1.3-6.4-2.7-13.7,0.1-19c2.5-4.7,15.7-27.7,35-21.9c17.6,5.3,30.7,19.1,30.7,28c0,4.5-0.3,9-0.5,13.1
						c-0.2,3.7-0.4,7-0.3,9c0,0.4,0,0.9,0.1,1.5c0.4,6.3,1.6,25.6-4,34.1C61,94.4,50.5,100.8,40.4,100.8z M34,1.1
						C18.6,1.1,8.2,19.3,6.1,23.4c-2.6,4.9-1.2,12,0,18.3c0.6,3.2,1.2,6.3,1.2,8.8l0,0c0,0.1-0.2,13.5,2.2,23.2
						C12,83.9,22,94.4,33.3,98.5c11.5,4.2,25.8-3,31.9-12.4c5.4-8.3,4.2-27.2,3.8-33.5c0-0.6-0.1-1.2-0.1-1.5
						c-0.1-2.1,0.1-5.3,0.3-9.1c0.2-4,0.5-8.6,0.5-13c0-8.5-12.8-21.9-29.9-27C37.8,1.3,35.8,1.1,34,1.1z M6.8,50.4L6.8,50.4
						L6.8,50.4z"/>
				</g>
				<g>
					<path class="st22" d="M51.3,36.6c4.6,0.2,7.6,1.8,10,2c2.4,0.2,2.8-1.4,0.4-3.8c-2.4-2.4-6.4-3.8-10.8-1.8
						c-4.4,2-4,5.2-2.4,4.8S51.3,36.6,51.3,36.6z"/>
					<path class="st19" d="M61.8,39.1c-0.1,0-0.3,0-0.4,0c-1-0.1-2.1-0.4-3.3-0.7c-1.8-0.5-3.9-1.1-6.5-1.2
						c-0.4,0.2-1.5,0.8-2.8,1.2c-0.7,0.2-1.4-0.2-1.7-0.9c-0.4-1.1,0.3-3.4,3.7-4.9c4.8-2.2,9.1-0.4,11.4,1.9
						c1.5,1.5,2.1,2.8,1.6,3.8C63.6,38.5,63.1,39.1,61.8,39.1z M51.3,36L51.3,36c2.9,0.1,5.1,0.8,7,1.3c1.2,0.3,2.2,0.6,3.1,0.7
						c0.7,0.1,1.3-0.1,1.4-0.4c0.2-0.4-0.2-1.3-1.4-2.6c-2.1-2.1-5.9-3.7-10.2-1.7c-2.9,1.3-3.4,3-3.2,3.6c0.1,0.2,0.2,0.3,0.4,0.2
						c1.5-0.4,2.6-1.1,2.6-1.1C51.1,36.1,51.2,36,51.3,36z"/>
				</g>
				<g>
					<path class="st9" d="M47.7,45.4c3.2-1.8,7-3.6,10.8-2.2c3.8,1.4,3.6,3.4,2,4.2c-1.6,0.8-3.2,2.4-8,1.8
						C47.7,48.6,45.9,46.4,47.7,45.4z"/>
					<path class="st19" d="M54.5,49.9c-0.6,0-1.3,0-2-0.1c-3.3-0.4-5.7-1.6-5.9-3.1c-0.1-0.7,0.2-1.3,0.9-1.7l0,0
						c3.6-2,7.5-3.7,11.3-2.2c2.9,1.1,3.4,2.4,3.4,3.1c0,0.8-0.5,1.6-1.4,2.1c-0.3,0.1-0.5,0.3-0.8,0.4C58.9,49,57.4,49.9,54.5,49.9
						z M48,45.9c-0.5,0.3-0.4,0.5-0.4,0.6c0.1,0.7,1.8,1.8,5,2.2c3.8,0.5,5.5-0.5,6.9-1.3c0.3-0.2,0.6-0.3,0.8-0.5
						c0.2-0.1,0.8-0.5,0.8-1.1c0-0.8-1.1-1.6-2.7-2.2C54.8,42.4,51.1,44.1,48,45.9z"/>
				</g>
				<path class="st19" d="M57.9,43c-2.5-0.7-4.9-0.1-7.2,0.9c-0.4,1.2-0.1,2.6,2.2,3.7C56.9,49.5,58.4,45.6,57.9,43z"/>
				<g>
					<path class="st22" d="M26.8,36.6c-4.6,0.2-7.6,1.8-10,2c-2.4,0.2-2.8-1.4-0.4-3.8c2.4-2.4,6.4-3.8,10.8-1.8
						c4.4,2,4,5.2,2.4,4.8C28,37.4,26.8,36.6,26.8,36.6z"/>
					<path class="st19" d="M16.4,39.1c-1.4,0-1.8-0.6-2-1c-0.4-0.9,0.1-2.3,1.6-3.8c2.4-2.4,6.6-4.1,11.4-1.9
						c3.5,1.6,4.1,3.8,3.7,4.9c-0.3,0.7-0.9,1.1-1.7,0.9c-1.4-0.3-2.4-0.9-2.8-1.2c-2.6,0.1-4.7,0.7-6.5,1.2
						c-1.2,0.4-2.3,0.7-3.3,0.7C16.7,39.1,16.5,39.1,16.4,39.1z M23,32.5c-2.6,0-4.8,1.2-6.2,2.6c-1.2,1.2-1.6,2.2-1.4,2.6
						c0.1,0.3,0.7,0.4,1.4,0.4c0.9-0.1,1.9-0.4,3.1-0.7c1.8-0.5,4.1-1.2,6.9-1.3c0.1,0,0.2,0,0.3,0.1c0,0,1.2,0.8,2.6,1.1
						c0.2,0.1,0.3,0,0.4-0.2c0.2-0.6-0.3-2.3-3.2-3.6C25.6,32.8,24.2,32.5,23,32.5z"/>
				</g>
				<g>
					<path class="st9" d="M30.4,45.4c-3.2-1.8-7-3.6-10.8-2.2c-3.8,1.4-3.6,3.4-2,4.2s3.2,2.4,8,1.8C30.4,48.6,32.2,46.4,30.4,45.4z
						"/>
					<path class="st19" d="M23.6,49.9c-2.8,0-4.4-0.9-5.5-1.6c-0.3-0.2-0.5-0.3-0.8-0.4c-0.9-0.5-1.4-1.2-1.4-2.1
						c0-0.7,0.5-2.1,3.4-3.1c3.8-1.4,7.7,0.2,11.3,2.2l0,0c0.7,0.4,1.1,1,0.9,1.7c-0.3,1.5-2.6,2.7-5.9,3.1
						C24.9,49.8,24.3,49.9,23.6,49.9z M22.4,43.2c-0.9,0-1.8,0.1-2.7,0.5c-1.7,0.6-2.7,1.4-2.7,2.2c0,0.6,0.5,0.9,0.8,1.1
						c0.3,0.1,0.5,0.3,0.8,0.5c1.4,0.8,3.1,1.8,6.9,1.3c3.2-0.4,4.9-1.6,5-2.2c0-0.1,0.1-0.3-0.4-0.6C27.8,44.5,25.1,43.2,22.4,43.2
						z"/>
				</g>
				<path class="st19" d="M22.3,43c2.5-0.3,4.9,0.7,7,2.1c0.2,1.2-0.3,2.5-2.8,3.3C22.3,49.6,21.5,45.5,22.3,43z"/>
				<path class="st19" d="M42.5,72.2c-1.2,0-2.6-0.4-4.1-1.3c-1.6-1.1-2.9-0.9-4.1-0.8c-1.1,0.1-2.2,0.2-3.1-1
					c-0.4-0.6-0.5-1.3-0.3-2c0.6-1.9,3.4-3.6,5.2-4.3c0.8-0.3,0.9-0.8,0.7-2.3c-0.1-0.9-0.2-2.1,0.1-3.3c0.6-2.2,0.5-5.9,0.4-8.2
					c0-0.6,0-1.1,0-1.5c0-0.3,0.2-0.5,0.5-0.5s0.5,0.2,0.5,0.5c0,0.4,0,0.9,0,1.5c0.1,2.5,0.2,6.2-0.5,8.5c-0.3,1-0.2,2.1-0.1,3
					c0.1,1.4,0.3,2.8-1.4,3.4c-1.6,0.6-4,2.1-4.5,3.6c-0.1,0.4-0.1,0.7,0.1,1c0.5,0.7,1,0.6,2.1,0.5C35.4,69,37,68.8,39,70
					c3.1,2,5.6,1,6.5-0.1c0.7-0.9,2.5-1,4.2-1.1c0.9-0.1,1.9-0.1,2.3-0.3c0.2-0.1,0.2-0.4,0.2-0.5c0-0.8-1.1-2.6-4.7-3.9
					c-0.3-0.1-0.4-0.4-0.3-0.7c0.1-0.3,0.4-0.4,0.7-0.3c3.8,1.4,5.3,3.4,5.4,4.8c0,0.7-0.3,1.3-0.8,1.5c-0.6,0.3-1.6,0.3-2.7,0.4
					c-1.3,0.1-3,0.2-3.4,0.7C45.6,71.5,44.3,72.2,42.5,72.2z"/>
				<g>
					<path class="st16" d="M36.9,79.7c0,0-6.4-0.8-3.4,3.8c3,4.6,9,4.2,13.9,2.2c4.8-2,5.2-5.6,1.8-6.4
						C45.7,78.5,36.9,79.7,36.9,79.7z"/>
					<path class="st19" d="M40.8,87.7c-3.1,0-5.9-1.1-7.8-3.9c-0.9-1.4-1.1-2.6-0.6-3.4c1-1.5,3.9-1.3,4.5-1.2
						c0.9-0.1,9-1.2,12.4-0.4c1.6,0.4,2.5,1.3,2.6,2.6c0.1,1.8-1.5,3.7-4.4,4.9C45.4,87.1,43.1,87.7,40.8,87.7z M35.9,80.2
						c-0.9,0-2.2,0.1-2.6,0.8c-0.4,0.6,0.1,1.6,0.6,2.3c2.8,4.4,8.7,3.9,13.2,2c2.7-1.1,3.8-2.7,3.7-3.8c-0.1-0.8-0.7-1.4-1.8-1.6
						c-3.3-0.8-12,0.4-12,0.4c0,0-0.1,0-0.1,0C36.6,80.2,36.3,80.2,35.9,80.2z"/>
				</g>
				<path class="st19" d="M21.9,121.2c0,0-0.1,0-0.1,0c-0.3-0.1-0.5-0.3-0.4-0.6c1.2-5.5-2.8-29.3-2.8-29.5c0-0.3,0.1-0.6,0.4-0.6
					c0.3,0,0.6,0.1,0.6,0.4c0.2,1,4,24.3,2.8,29.9C22.4,121,22.2,121.2,21.9,121.2z"/>
				<path class="st19" d="M61.4,111.6c-0.3,0-0.5-0.2-0.5-0.4c-0.4-2.4-0.4-18.5-0.4-19.2c0-0.3,0.2-0.5,0.5-0.5s0.5,0.2,0.5,0.5
					c0,0.2,0,16.6,0.4,19C62,111.2,61.8,111.5,61.4,111.6C61.4,111.6,61.4,111.6,61.4,111.6z"/>
				<g>
					<path class="st16" d="M38.5,122.5c2.3,1.7-16.9-9.4-19.1-10c-2.2-0.6-2.8,5.4-2.8,5.4s4,4.2,7,9.4c3,5.2,10,18.9,10.4,20.5
						s0.6-2.4,1.2-8.8C35.9,132.5,37.7,121.9,38.5,122.5z"/>
					<path class="st19" d="M34.2,148.6c-0.5,0-0.6-0.5-0.7-0.8c-0.4-1.5-7.4-15.2-10.4-20.3c-2.9-5.1-6.9-9.3-6.9-9.3
						c-0.1-0.1-0.2-0.3-0.1-0.4c0-0.5,0.5-4.5,2.1-5.6c0.4-0.3,0.9-0.4,1.4-0.2c1.2,0.3,6.1,3,12.5,6.6c2.6,1.4,5.2,2.9,6.3,3.4
						c0.2,0,0.4,0,0.5,0.1c0.1,0.1,0.6,0.5,0.3,0.9c-0.1,0.2-0.2,0.3-0.6,0.2c-0.7,1.7-2.2,9.8-2.7,15.9c-0.1,1.4-0.2,2.7-0.3,3.8
						C35,148.4,34.9,148.6,34.2,148.6L34.2,148.6z M17.2,117.7c0.8,0.9,4.3,4.7,6.9,9.4c2.4,4.2,8.2,15.3,10,19.3
						c0.1-1,0.2-2.3,0.3-3.6c0.1-1.1,0.2-2.4,0.3-3.8c0.2-1.8,1.5-13,2.9-16.1c-1-0.5-2.8-1.5-6.1-3.3c-4.7-2.6-11.1-6.2-12.3-6.5
						c-0.2,0-0.3,0-0.5,0.1C17.9,113.6,17.4,116.1,17.2,117.7z"/>
				</g>
				<g>
					<path class="st16" d="M47.9,123.7c2.4-1.2,12.6-11.8,13.6-15.5c0,0,2.2,0.6,4.2,1s4.8,0,2.2,5c-2.6,5-10.4,29.3-10,30.9
						s-5.2-10.6-6.4-15.1C50.3,125.7,47.9,123.7,47.9,123.7z"/>
					<path class="st19" d="M57.9,145.8c-0.4,0-0.9-0.7-3.3-6.4c-0.8-1.9-2.9-6.7-3.6-9.3c-1.1-4.2-3.4-6.1-3.4-6.2
						c-0.1-0.1-0.2-0.3-0.2-0.5c0-0.2,0.1-0.3,0.3-0.4c2.2-1.1,12.4-11.6,13.4-15.1c0.1-0.3,0.4-0.4,0.7-0.4c0,0,2.2,0.6,4.2,1
						c0.3,0,0.5,0.1,0.8,0.1c1,0.1,2.2,0.3,2.7,1.3c0.5,0.9,0.2,2.3-0.9,4.4c-2.7,5.2-10.2,28.9-10,30.6c0.2,0.6-0.3,0.8-0.4,0.8
						C58.1,145.8,58,145.8,57.9,145.8z M48.8,123.8c0.8,0.9,2.4,2.9,3.3,6.2c0.9,3.3,4.1,10.6,5.6,13.6c1.3-6.1,7.8-25.6,9.9-29.6
						c1.1-2.1,1.1-3,0.9-3.4c-0.2-0.5-1-0.6-1.9-0.7c-0.3,0-0.6-0.1-0.8-0.1c-1.4-0.3-3-0.7-3.8-0.9
						C60.3,112.7,51.8,121.6,48.8,123.8z"/>
				</g>
				<path class="st19" d="M5,125c-0.2,0-0.3-0.1-0.4-0.2c-0.2-0.2-0.1-0.6,0.1-0.7c0.3-0.2,8-5.7,11.8-6.7c0.3-0.1,0.6,0.1,0.7,0.4
					c0.1,0.3-0.1,0.6-0.4,0.7c-3.7,1-11.4,6.5-11.5,6.5C5.2,125,5.1,125,5,125z"/>
				<path class="st19" d="M82.1,115.6c-1.8,0-11.7-3.1-12.8-3.4c-0.3-0.1-0.4-0.4-0.3-0.7c0.1-0.3,0.4-0.4,0.7-0.3
					c3,0.9,11.1,3.4,12.5,3.4c0.3,0,0.5,0.2,0.5,0.5C82.6,115.3,82.4,115.6,82.1,115.6z"/>
				<path class="st19" d="M46.7,140.3c-0.3,0-0.5-0.2-0.5-0.5c0,0-0.6-4.6-3-10.3c-2.3-5.5-4.9-6.5-4.9-6.5
					c-0.3-0.1-0.4-0.4-0.3-0.7c0.1-0.3,0.4-0.4,0.7-0.3c0.1,0,3.1,1.2,5.5,7.1c0.9,2.3,1.6,4.3,2.1,6c0-1.7-0.2-3.6-0.5-5.3
					c-0.9-4.9,1.8-6.5,1.9-6.6c0.3-0.1,0.6-0.1,0.7,0.2c0.1,0.3,0.1,0.6-0.2,0.7c-0.1,0-2.1,1.3-1.4,5.5c0.8,4.6,0.4,9.9,0.4,10.2
					C47.2,140,47,140.3,46.7,140.3L46.7,140.3z"/>
				<path class="st19" d="M44.3,119.8c0,0-0.1,0-0.1,0c-0.3-0.1-0.4-0.4-0.4-0.7c1.6-5.5,3.2-17.1,3.2-17.2c0-0.3,0.3-0.5,0.6-0.5
					c0.3,0,0.5,0.3,0.5,0.6c0,0.1-1.6,11.7-3.2,17.3C44.8,119.6,44.6,119.8,44.3,119.8z"/>
				<g>
					<path class="st16" d="M30.7,80.7c3.6-1.4,4.2-1.8,6.4-2.6c2.2-0.8,4.4-0.8,6.8-0.6c2.4,0.2,6,1.8,7.6,1.8s4.6,1-0.8,1.6
						C45.3,81.5,28.7,81.5,30.7,80.7z"/>
					<path class="st19" d="M38.2,81.9c-4.3,0-8.1-0.2-8.2-0.9c0-0.1-0.1-0.5,0.5-0.8c1.6-0.6,2.6-1.1,3.4-1.4c1-0.4,1.8-0.8,3-1.2
						c2.4-0.9,4.8-0.8,7.1-0.6c1.3,0.1,2.8,0.6,4.3,1c1.3,0.4,2.6,0.8,3.3,0.8c0,0,2.8,0.1,2.8,1.2c0,0.8-0.9,1.2-3.6,1.5
						C49.9,81.5,43.6,81.9,38.2,81.9z M32.3,80.6c3.9,0.3,14.1,0.2,18.4-0.3c1.1-0.1,1.8-0.3,2.2-0.4c-0.4-0.1-0.9-0.2-1.3-0.2
						c-0.9,0-2.1-0.4-3.6-0.8c-1.4-0.4-2.9-0.9-4.1-1c-2.5-0.2-4.5-0.2-6.6,0.6c-1.2,0.4-1.9,0.8-3,1.2C33.8,80,33.1,80.3,32.3,80.6
						z"/>
				</g>
				<ellipse class="st9" cx="27.8" cy="46.9" rx="1.5" ry="1.3"/>
				<ellipse class="st9" cx="56.4" cy="46.6" rx="1.5" ry="1.3"/>
			</g>
		</g>
		<path class="st19" d="M17.3,19.8c-0.2,0-0.4-0.1-0.5-0.3c-0.2-0.3-0.1-0.6,0.2-0.7c0.3-0.2,7.2-4.2,13.4-3.8
			c2.7,0.1,4.3,0.4,5.5,0.7c1.6,0.3,2.7,0.5,5.2,0.1c1.4-0.2,2.6-0.4,3.8-0.6c2.7-0.5,4.9-0.8,7-0.7c3,0.2,5.3,0.8,5.4,0.8
			c0.3,0.1,0.4,0.4,0.4,0.7c-0.1,0.3-0.4,0.5-0.7,0.4c0,0-2.3-0.6-5.1-0.8c-2-0.1-4.1,0.2-6.7,0.7c-1.2,0.2-2.4,0.4-3.8,0.6
			c-2.7,0.4-3.9,0.2-5.6-0.2c-1.2-0.2-2.7-0.5-5.4-0.7c-6-0.3-12.8,3.7-12.8,3.7C17.5,19.8,17.4,19.8,17.3,19.8z"/>
		<path class="st19" d="M18.2,15.7c-0.3,0-0.5-0.2-0.5-0.4c-0.1-0.3,0.1-0.6,0.4-0.6c0,0,2.8-0.5,6.8-1.8c4.6-1.5,7.8-1.1,9.7-0.5
			c0.4,0.1,0.8,0.2,1.2,0.4c2.1,0.8,5.1,1.8,7.7,0.8c0.3-0.1,0.6,0,0.7,0.3c0.1,0.3,0,0.6-0.3,0.7c-2.9,1.2-6.2,0-8.4-0.7
			c-0.4-0.1-0.8-0.3-1.1-0.4c-1.7-0.5-4.7-0.9-9,0.5C21.1,15.2,18.4,15.7,18.2,15.7C18.2,15.7,18.2,15.7,18.2,15.7z"/>
		<path class="st19" d="M24.4,51.8c-0.7,0-1.4-0.1-2-0.2c-3.2-0.7-4.5-1.9-4.5-2c-0.2-0.2-0.2-0.5,0-0.8c0.2-0.2,0.5-0.2,0.8,0
			c0,0,1.1,1.1,4,1.7c3.2,0.7,8.8-0.9,9.1-1.8c0.1-0.3,0.4-0.4,0.7-0.3c0.3,0.1,0.4,0.4,0.3,0.7C32.2,50.7,27.7,51.8,24.4,51.8z"/>
		<path class="st19" d="M47,48.9c0-0.2,0.3-0.3,0.5-0.3c0.2,0,0.4,0.2,0.5,0.4c0,0,0.7,1.7,4.5,2.1c2.8,0.3,5.3-0.7,6.5-1.8
			c0.5-0.4,0.6-0.7,0.6-0.8c0-0.2-0.1-0.2-0.1-0.2c-0.2-0.1-0.6-0.1-0.8-0.1c-0.3,0.1-0.6-0.1-0.6-0.4c-0.1-0.3,0.1-0.6,0.4-0.6
			c0.1,0,1-0.2,1.7,0.3c0.2,0.2,0.5,0.5,0.5,1.1c0,0.6-0.5,1.2-0.9,1.6c-1.4,1.3-4.3,2.4-7.4,2.1c-2.4-0.3-3.8-1.1-4.5-1.7
			C47.2,49.8,47,49.3,47,48.9z"/>
	</g>
</g>
<g id="Layer_2" class="st39">
</g>
</svg>
