<?xml version="1.0" encoding="utf-8"?>
<!-- Generator: Adobe Illustrator 24.3.0, SVG Export Plug-In . SVG Version: 6.00 Build 0)  -->
<svg version="1.1" xmlns="http://www.w3.org/2000/svg" xmlns:xlink="http://www.w3.org/1999/xlink" x="0px" y="0px"
	 viewBox="0 0 224.1 251.9" style="enable-background:new 0 0 224.1 251.9;" xml:space="preserve">
<style type="text/css">
	.st0{clip-path:url(#SVGID_2_);}
	.st1{clip-path:url(#SVGID_4_);fill:#1A1B2F;}
	.st2{clip-path:url(#SVGID_6_);}
	.st3{clip-path:url(#SVGID_8_);fill:#F1748A;}
	.st4{fill:#F1748A;}
	.st5{fill:#FDD56F;}
	.st6{fill:#EC4796;}
	.st7{clip-path:url(#SVGID_10_);}
	.st8{clip-path:url(#SVGID_12_);fill:#F1748A;}
	.st9{fill:#FFFFFF;}
	.st10{fill:none;stroke:#EC4796;stroke-width:2;stroke-miterlimit:10;}
	.st11{fill:none;stroke:#F1748A;stroke-width:2;stroke-miterlimit:10;}
	.st12{fill:none;stroke:#FFFFFF;stroke-width:1.9929;stroke-miterlimit:10;}
	.st13{fill:none;stroke:#1A1B2F;stroke-width:2.2288;stroke-miterlimit:10;}
	.st14{fill:#1A1B2F;}
	.st15{clip-path:url(#SVGID_14_);}
	.st16{fill:#FFD1C2;}
	.st17{fill:#D69241;}
	.st18{fill:#6CBFAD;}
	.st19{fill:#1C2021;}
	.st20{fill:#F78271;}
	.st21{clip-path:url(#SVGID_16_);}
	.st22{fill:#853C2B;}
	.st23{clip-path:url(#SVGID_18_);}
	.st24{fill:#FECA9A;}
	.st25{clip-path:url(#SVGID_20_);}
	.st26{fill:none;stroke:#1C2021;stroke-width:3.8694;stroke-miterlimit:10;}
	.st27{clip-path:url(#SVGID_22_);}
	.st28{clip-path:url(#SVGID_24_);}
	.st29{clip-path:url(#SVGID_26_);}
	.st30{clip-path:url(#SVGID_28_);}
	.st31{clip-path:url(#SVGID_30_);}
	.st32{clip-path:url(#SVGID_32_);}
	.st33{clip-path:url(#SVGID_34_);}
	.st34{clip-path:url(#SVGID_36_);fill:#FDD56F;}
	.st35{fill:none;stroke:#1C2021;stroke-width:5.7091;stroke-miterlimit:10;}
	.st36{fill:#ED4462;}
	.st37{fill:#00BDFF;}
	.st38{fill:#FFA630;}
	.st39{display:none;}
	.st40{display:inline;fill:#606060;}
</style>
<g id="Layer_1">
	<g>
		<g>
			<defs>
				<circle id="SVGID_27_" cx="112" cy="112" r="110"/>
			</defs>
			<use xlink:href="#SVGID_27_"  style="overflow:visible;fill:#FFFFFF;"/>
			<clipPath id="SVGID_2_">
				<use xlink:href="#SVGID_27_"  style="overflow:visible;"/>
			</clipPath>
			<g class="st0">
				<g>
					<path class="st16" d="M187.7,204.7c6.7-10.6,10.8-17.4,10.8-17.4s-49.3-20.5-56.1-20.5c-0.7,0-1.2,0-1.4,0
						c1.1,0.1,4.5,1-13.2,5.4c-25,6.3-47.3,4-47.3,4s-14.1,3.3-17.7,10.3c-3.6,7,15.6,68.3,49.2,65.3c20.6-1.8,35.4,5.9,60.6-31.6
						L187.7,204.7z"/>
					<path class="st24" d="M82.3,134.9c0,0,5.9,33.2,4,39.3c-1.9,6.1,19.3,8.7,19.3,8.7s8.3,1.2,12,21.7c0,0-0.4-8.8-0.1-12.6
						c0.3-3.8-0.6-8.6,4.3-8.6c4.9,0,13.7-13.2,13.9-13.7c0.2-0.5,0-32.7,0-32.7L82.3,134.9z"/>
					<g>
						<g>
							<path class="st24" d="M68.7,89c0,0-2.4-13.2-8.6-7.3c-6.3,5.9,1.3,20.8,5.5,22.3C69.8,105.4,69.8,97.2,68.7,89z"/>
							<path class="st19" d="M66.5,104.8c-0.3,0-0.7-0.1-1.1-0.2c-3-1-6.8-7.2-8-12.9c-0.7-3.2-0.8-7.6,2.2-10.5
								c1.6-1.5,3.2-2,4.6-1.5c3.7,1.2,5.1,8.4,5.2,9.2l0,0c1.1,8.6,0.7,13.7-1.3,15.3C67.7,104.5,67.2,104.8,66.5,104.8z
								 M63.1,80.9c-0.8,0-1.6,0.4-2.6,1.3c-2.6,2.4-2.4,6.3-1.8,9.2c1.2,5.7,4.8,11.1,7.1,11.9c0.8,0.3,1.2,0.1,1.4-0.1
								c0.7-0.6,2.2-3.1,0.8-14.1c-0.4-2-1.8-7.3-4.3-8.1C63.6,80.9,63.3,80.9,63.1,80.9z"/>
						</g>
						<g>
							<path class="st24" d="M146.3,86.9c0,0-1.3-10,6.3-7.6c7.6,2.4-0.8,27-5,24.1c-4.2-2.9-1.6-15.5-1.6-15.5L146.3,86.9z"/>
							<path class="st19" d="M148.3,104.3c-0.4,0-0.8-0.1-1.1-0.4c-4.4-3.1-2.1-14.8-1.9-16.2l0.2-1c-0.1-0.9-0.5-5.5,2-7.6
								c1.3-1.1,3-1.3,5.2-0.6c1.3,0.4,3,1.7,3.5,5.2c0.8,6.4-3,17.9-6.6,20.1C149.2,104.2,148.7,104.3,148.3,104.3z M150.5,79.6
								c-0.8,0-1.5,0.2-2,0.7c-1.7,1.5-1.7,5.2-1.5,6.5c0,0.1,0,0.2,0,0.3l-0.3,1c-0.7,3.3-1.8,12.6,1.3,14.7
								c0.1,0.1,0.4,0.2,0.9-0.1c2.9-1.8,6.7-12.5,6-18.7c-0.3-2.3-1.1-3.7-2.5-4.1C151.7,79.7,151,79.6,150.5,79.6z"/>
						</g>
						<g>
							<path class="st24" d="M65.8,88.5c0-9.4-6.8-25.7-1.6-35.6c5.2-10,22-35.1,44.8-28.3c22.8,6.8,39.6,24.6,39.6,35.9
								c0,11.3-1.3,23.3-1,28.8c0.3,5.5,2.9,34.1-5,46.1s-26.7,22.3-42.5,16.5c-15.7-5.8-28.3-20.2-31.4-33
								C65.6,106,65.8,88.5,65.8,88.5z"/>
							<path class="st19" d="M109.7,154.2c-3.3,0-6.6-0.5-9.7-1.7C84.8,147,71.4,132.9,68,119c-3.1-12.7-2.9-30.2-2.9-30.6
								c0-3.1-0.8-7-1.6-11.2c-1.6-8.4-3.5-17.9,0.1-24.8c3.2-6.1,20.5-36.1,45.6-28.6c22.9,6.9,40.1,25,40.1,36.6
								c0,5.8-0.3,11.8-0.6,17.1c-0.3,4.9-0.5,9.1-0.4,11.7c0,0.5,0.1,1.2,0.1,2c0.5,8.3,2.1,33.4-5.2,44.6
								C136.6,145.9,122.9,154.2,109.7,154.2z M101.3,24c-20,0-33.6,23.8-36.4,29.1c-3.4,6.4-1.6,15.7,0,23.9
								c0.8,4.2,1.6,8.2,1.6,11.5l0,0c0,0.2-0.2,17.6,2.9,30.2c3.3,13.5,16.3,27.2,31,32.5c15,5.5,33.6-4,41.6-16.2
								c7-10.8,5.5-35.6,5-43.7c-0.1-0.8-0.1-1.5-0.1-2c-0.1-2.7,0.1-7,0.4-11.9c0.3-5.3,0.6-11.2,0.6-17
								c0-11.1-16.7-28.6-39.1-35.2C106.3,24.4,103.7,24,101.3,24z M65.8,88.5L65.8,88.5L65.8,88.5z"/>
						</g>
						<g>
							<path class="st22" d="M124,70.4c6,0.3,10,2.4,13.1,2.6c3.1,0.3,3.7-1.8,0.5-5c-3.1-3.1-8.4-5-14.2-2.4
								c-5.8,2.6-5.2,6.8-3.1,6.3C122.4,71.4,124,70.4,124,70.4z"/>
							<path class="st19" d="M137.6,73.7c-0.2,0-0.4,0-0.6,0c-1.3-0.1-2.7-0.5-4.3-1c-2.4-0.7-5.1-1.5-8.5-1.6
								c-0.5,0.3-1.9,1.1-3.7,1.5c-1,0.2-1.9-0.2-2.2-1.2c-0.5-1.5,0.4-4.4,4.9-6.4c6.3-2.9,11.8-0.6,14.9,2.5
								c1.9,1.9,2.7,3.7,2.1,4.9C140,72.9,139.4,73.7,137.6,73.7z M124,69.7L124,69.7c3.7,0.2,6.7,1,9.1,1.7
								c1.6,0.4,2.9,0.8,4.1,0.9c1,0.1,1.7-0.1,1.8-0.5c0.2-0.5-0.2-1.7-1.9-3.3c-2.8-2.8-7.7-4.8-13.4-2.2
								c-3.7,1.7-4.4,3.9-4.1,4.7c0.1,0.3,0.3,0.3,0.5,0.3c1.9-0.5,3.5-1.5,3.5-1.5C123.7,69.7,123.9,69.7,124,69.7z"/>
						</g>
						<g>
							<path class="st9" d="M119.3,81.9c4.1-2.3,9.2-4.7,14.2-2.9c5,1.8,4.7,4.5,2.6,5.5c-2.1,1-4.2,3.1-10.5,2.4
								C119.3,86.1,116.9,83.2,119.3,81.9z"/>
							<path class="st19" d="M128.2,87.8c-0.8,0-1.7-0.1-2.7-0.2c-4.3-0.5-7.4-2.1-7.8-4.1c-0.2-0.9,0.3-1.7,1.2-2.2l0,0
								c4.7-2.6,9.7-4.8,14.7-2.9c3.8,1.4,4.4,3.2,4.5,4.1c0.1,1.1-0.6,2.1-1.8,2.7c-0.3,0.2-0.7,0.4-1,0.6
								C133.8,86.6,131.9,87.8,128.2,87.8z M119.6,82.5c-0.6,0.3-0.5,0.6-0.5,0.7c0.2,0.9,2.3,2.4,6.6,2.9c5,0.6,7.2-0.7,9-1.7
								c0.4-0.2,0.7-0.4,1.1-0.6c0.3-0.2,1.1-0.6,1-1.4c-0.1-1-1.4-2-3.6-2.9C128.5,77.9,123.7,80.2,119.6,82.5z"/>
						</g>
						<path class="st19" d="M132.6,78.8c-3.2-0.9-6.4-0.1-9.4,1.2c-0.5,1.5-0.2,3.3,2.9,4.8C131.2,87.3,133.2,82.1,132.6,78.8z"/>
						<g>
							<path class="st22" d="M92,70.4c-6,0.3-10,2.4-13.1,2.6c-3.1,0.3-3.7-1.8-0.5-5c3.1-3.1,8.4-5,14.2-2.4
								c5.8,2.6,5.2,6.8,3.1,6.3C93.6,71.4,92,70.4,92,70.4z"/>
							<path class="st19" d="M78.4,73.7c-1.8,0-2.4-0.8-2.6-1.3c-0.6-1.2,0.2-3,2.1-4.9c3.1-3.1,8.6-5.4,14.9-2.5
								c4.5,2.1,5.4,5,4.9,6.4c-0.3,0.9-1.2,1.4-2.2,1.2c-1.8-0.4-3.2-1.2-3.7-1.5c-3.4,0.2-6.1,0.9-8.5,1.6c-1.6,0.5-3,0.9-4.3,1
								C78.7,73.7,78.5,73.7,78.4,73.7z M87,65.1c-3.4,0-6.3,1.5-8.2,3.4c-1.6,1.6-2.1,2.8-1.9,3.3c0.2,0.4,0.9,0.5,1.8,0.5
								c1.2-0.1,2.5-0.5,4.1-0.9c2.4-0.7,5.3-1.5,9.1-1.7c0.2,0,0.3,0,0.4,0.1c0,0,1.5,1,3.5,1.5c0.3,0.1,0.4,0,0.5-0.3
								c0.3-0.8-0.4-3-4.1-4.7C90.4,65.5,88.6,65.1,87,65.1z"/>
						</g>
						<g>
							<path class="st9" d="M96.7,81.9c-4.1-2.3-9.2-4.7-14.2-2.9c-5,1.8-4.7,4.5-2.6,5.5s4.2,3.1,10.5,2.4
								C96.7,86.1,99.1,83.2,96.7,81.9z"/>
							<path class="st19" d="M87.8,87.8c-3.7,0-5.7-1.2-7.2-2c-0.4-0.2-0.7-0.4-1-0.6c-1.2-0.6-1.9-1.6-1.8-2.7
								c0.1-0.9,0.7-2.7,4.5-4.1c5-1.8,10,0.3,14.7,2.9l0,0c0.9,0.5,1.4,1.3,1.2,2.2c-0.4,1.9-3.4,3.5-7.8,4.1
								C89.5,87.7,88.6,87.8,87.8,87.8z M86.2,79.1c-1.2,0-2.3,0.2-3.5,0.6c-2.2,0.8-3.5,1.9-3.6,2.9c0,0.8,0.7,1.2,1,1.4
								c0.4,0.2,0.7,0.4,1.1,0.6c1.8,1,4,2.3,9,1.7c4.2-0.5,6.4-2,6.6-2.9c0-0.1,0.1-0.4-0.5-0.7C93.3,80.8,89.8,79.1,86.2,79.1z"/>
						</g>
						<path class="st19" d="M86.1,78.8c3.3-0.4,6.4,0.9,9.1,2.7c0.3,1.6-0.4,3.3-3.7,4.3C86.1,87.4,85,82.1,86.1,78.8z"/>
						<path class="st19" d="M112.4,117c-1.6,0-3.4-0.5-5.3-1.7c-2.1-1.4-3.8-1.2-5.3-1c-1.4,0.2-2.9,0.3-4.1-1.3
							c-0.5-0.8-0.7-1.6-0.4-2.6c0.8-2.4,4.4-4.7,6.7-5.6c1.1-0.4,1.1-1.1,0.9-3c-0.1-1.2-0.3-2.8,0.2-4.4c0.8-2.8,0.6-7.7,0.5-10.7
							c0-0.8,0-1.5,0-2c0-0.4,0.3-0.7,0.7-0.7c0.4,0,0.7,0.3,0.7,0.7c0,0.5,0,1.1,0,1.9c0.1,3.2,0.3,8.1-0.6,11.1
							c-0.4,1.4-0.3,2.7-0.1,3.9c0.2,1.8,0.4,3.7-1.9,4.5c-2.1,0.8-5.3,2.8-5.9,4.7c-0.2,0.5-0.1,0.9,0.2,1.3
							c0.6,0.9,1.3,0.8,2.8,0.7c1.6-0.2,3.7-0.4,6.2,1.2c4,2.6,7.3,1.3,8.5-0.1c1-1.2,3.3-1.3,5.5-1.4c1.2-0.1,2.5-0.1,3-0.4
							c0.3-0.1,0.3-0.5,0.3-0.7c-0.1-1-1.4-3.4-6.1-5.1c-0.4-0.1-0.6-0.5-0.4-0.9c0.1-0.4,0.5-0.6,0.9-0.4c5,1.8,6.9,4.5,7,6.3
							c0.1,0.9-0.3,1.7-1,2c-0.8,0.4-2.1,0.5-3.5,0.5c-1.7,0.1-3.9,0.2-4.5,0.9C116.6,116,114.8,117,112.4,117z"/>
						<g>
							<path class="st16" d="M105.1,126.7c0,0-8.4-1-4.5,5c3.9,6,11.8,5.5,18.1,2.9c6.3-2.6,6.8-7.3,2.4-8.4
								C116.7,125.1,105.1,126.7,105.1,126.7z"/>
							<path class="st19" d="M110.3,137.1c-4,0-7.8-1.4-10.1-5c-1.2-1.9-1.5-3.4-0.8-4.5c1.2-2,5-1.7,5.8-1.6
								c1.2-0.2,11.8-1.5,16.2-0.5c2,0.5,3.3,1.7,3.4,3.4c0.2,2.4-2,4.8-5.7,6.4C116.3,136.4,113.2,137.1,110.3,137.1z M103.9,127.3
								c-1.2,0-2.8,0.2-3.4,1c-0.5,0.8,0.2,2,0.8,3c3.7,5.7,11.3,5.1,17.2,2.6c3.5-1.5,5-3.5,4.8-5c-0.1-1-1-1.8-2.4-2.1
								c-4.3-1-15.6,0.5-15.7,0.5c-0.1,0-0.1,0-0.2,0C104.8,127.4,104.3,127.3,103.9,127.3z"/>
						</g>
						<path class="st19" d="M85.6,180.9c0,0-0.1,0-0.1,0c-0.4-0.1-0.6-0.4-0.5-0.8c1.5-7.1-3.6-38.2-3.7-38.5
							c-0.1-0.4,0.2-0.7,0.6-0.8c0.4-0.1,0.7,0.2,0.8,0.6c0.2,1.3,5.2,31.7,3.7,39C86.2,180.7,85.9,180.9,85.6,180.9z"/>
						<path class="st19" d="M137.1,168.3c-0.3,0-0.6-0.2-0.7-0.6c-0.5-3.2-0.5-24.1-0.5-25c0-0.4,0.3-0.7,0.7-0.7
							c0.4,0,0.7,0.3,0.7,0.7c0,0.2,0,21.7,0.5,24.8c0.1,0.4-0.2,0.7-0.6,0.8C137.2,168.3,137.2,168.3,137.1,168.3z"/>
						<g>
							<path class="st16" d="M107.2,182.5c3,2.2-22-12.3-24.9-13.1c-2.9-0.8-3.7,7.1-3.7,7.1s5.2,5.5,9.2,12.3
								c3.9,6.8,13.1,24.6,13.6,26.7c0.5,2.1,0.8-3.1,1.6-11.5C103.8,195.6,106.2,181.8,107.2,182.5z"/>
							<path class="st19" d="M101.7,216.7c-0.6,0-0.8-0.7-0.9-1c-0.5-2-9.7-19.8-13.6-26.6c-3.8-6.7-9-12.1-9.1-12.2
								c-0.1-0.1-0.2-0.3-0.2-0.5c0.1-0.6,0.6-5.9,2.7-7.4c0.5-0.4,1.2-0.5,1.8-0.3c1.5,0.4,8,4,16.3,8.6c3.4,1.9,6.8,3.8,8.2,4.5
								c0.2,0,0.5,0,0.6,0.2c0.2,0.1,0.8,0.6,0.4,1.2c-0.2,0.2-0.3,0.4-0.8,0.3c-1,2.2-2.8,12.8-3.6,20.7c-0.2,1.8-0.3,3.5-0.4,5
								C102.7,216.4,102.6,216.7,101.7,216.7L101.7,216.7z M79.4,176.3c1,1.1,5.6,6.2,9,12.2c3.2,5.5,10.7,19.9,13,25.2
								c0.1-1.3,0.3-3,0.4-4.7c0.1-1.5,0.3-3.2,0.4-5c0.2-2.3,2-17,3.7-21.1c-1.3-0.7-3.7-1.9-7.9-4.3c-6.1-3.4-14.5-8.1-16-8.5
								c-0.2-0.1-0.4,0-0.6,0.1C80.4,171,79.6,174.2,79.4,176.3z"/>
						</g>
						<g>
							<path class="st16" d="M119.6,184.1c3.1-1.6,16.5-15.5,17.8-20.2c0,0,2.9,0.8,5.5,1.3s6.3,0,2.9,6.6
								c-3.4,6.6-13.6,38.3-13.1,40.4c0.5,2.1-6.8-13.9-8.4-19.7C122.7,186.7,119.6,184.1,119.6,184.1z"/>
							<path class="st19" d="M132.6,213.1c-0.5,0-1.1-0.9-4.3-8.3c-1.1-2.5-3.8-8.7-4.7-12.1c-1.5-5.5-4.5-8-4.5-8
								c-0.2-0.2-0.3-0.4-0.2-0.6c0-0.2,0.2-0.4,0.4-0.5c2.9-1.4,16.2-15.1,17.5-19.7c0.1-0.4,0.5-0.6,0.9-0.5c0,0,2.9,0.8,5.5,1.3
								c0.3,0.1,0.7,0.1,1,0.2c1.3,0.2,2.9,0.4,3.5,1.7c0.6,1.2,0.2,3-1.2,5.7c-3.5,6.7-13.3,37.7-13,39.9c0.2,0.8-0.4,1-0.5,1
								C132.8,213,132.7,213.1,132.6,213.1z M120.7,184.2c1.1,1.1,3.1,3.7,4.3,8.1c1.2,4.3,5.4,13.8,7.3,17.8
								c1.6-8,10.2-33.4,12.9-38.6c1.4-2.8,1.4-3.9,1.2-4.4c-0.3-0.6-1.4-0.8-2.5-0.9c-0.4-0.1-0.7-0.1-1.1-0.2
								c-1.9-0.4-3.9-0.9-4.9-1.2C135.7,169.8,124.6,181.4,120.7,184.2z"/>
						</g>
						<path class="st19" d="M63.5,185.9c-0.2,0-0.4-0.1-0.6-0.3c-0.2-0.3-0.2-0.7,0.2-1c0.4-0.3,10.4-7.4,15.4-8.8
							c0.4-0.1,0.8,0.1,0.9,0.5c0.1,0.4-0.1,0.8-0.5,0.9c-4.8,1.3-14.9,8.5-15,8.5C63.8,185.8,63.6,185.9,63.5,185.9z"/>
						<path class="st19" d="M164.1,173.5c-2.4,0-15.3-4-16.7-4.5c-0.4-0.1-0.6-0.5-0.5-0.9c0.1-0.4,0.5-0.6,0.9-0.5
							c3.9,1.2,14.5,4.4,16.3,4.4c0.4,0,0.7,0.3,0.7,0.7S164.5,173.5,164.1,173.5z"/>
						<path class="st19" d="M118,205.8c-0.3,0-0.6-0.3-0.7-0.6c0-0.1-0.8-6-3.9-13.5c-3-7.1-6.4-8.5-6.4-8.5
							c-0.4-0.1-0.5-0.5-0.4-0.9c0.1-0.4,0.5-0.5,0.9-0.4c0.2,0.1,4,1.5,7.2,9.3c1.2,3,2.1,5.7,2.7,7.9c-0.1-2.2-0.2-4.7-0.6-7
							c-1.1-6.4,2.3-8.5,2.4-8.6c0.3-0.2,0.8-0.1,1,0.3c0.2,0.3,0.1,0.8-0.3,1c-0.1,0.1-2.7,1.7-1.8,7.1c1.1,6,0.6,13,0.5,13.3
							C118.7,205.5,118.4,205.8,118,205.8L118,205.8z"/>
						<path class="st19" d="M114.8,179c-0.1,0-0.1,0-0.2,0c-0.4-0.1-0.6-0.5-0.5-0.9c2.1-7.2,4.2-22.3,4.2-22.4
							c0.1-0.4,0.4-0.6,0.8-0.6c0.4,0.1,0.6,0.4,0.6,0.8c0,0.2-2.1,15.3-4.2,22.6C115.4,178.8,115.1,179,114.8,179z"/>
						<g>
							<path class="st16" d="M97,128c4.7-1.9,5.5-2.4,8.4-3.4c2.9-1,5.8-1,8.9-0.8c3.1,0.3,7.9,2.4,10,2.4c2.1,0,6,1.3-1,2.1
								C116.1,129.1,94.4,129.1,97,128z"/>
							<path class="st19" d="M106.9,129.5c-5.6,0-10.5-0.3-10.7-1.2c0-0.2-0.1-0.7,0.6-1c2.1-0.8,3.4-1.4,4.5-1.8
								c1.4-0.6,2.3-1,3.9-1.6c3.1-1.1,6.3-1.1,9.2-0.8c1.7,0.1,3.7,0.7,5.6,1.3c1.7,0.5,3.3,1,4.3,1c0,0,3.6,0.1,3.7,1.6
								c0.1,1-1.2,1.5-4.7,1.9C122.1,129.1,114,129.5,106.9,129.5z M99.1,127.9c5,0.4,18.4,0.3,24-0.3c1.5-0.2,2.3-0.3,2.8-0.5
								c-0.5-0.1-1.1-0.2-1.7-0.2c-1.1,0-2.8-0.5-4.7-1.1c-1.8-0.5-3.8-1.2-5.3-1.3c-3.2-0.3-5.9-0.2-8.6,0.7
								c-1.6,0.6-2.5,1-3.9,1.5C101.1,127.1,100.2,127.5,99.1,127.9z"/>
						</g>
						<ellipse class="st9" cx="93.3" cy="83.9" rx="2" ry="1.7"/>
						<ellipse class="st9" cx="130.6" cy="83.5" rx="2" ry="1.7"/>
					</g>
				</g>
				<path class="st19" d="M79.6,48.5c-0.2,0-0.5-0.1-0.6-0.3c-0.2-0.3-0.1-0.8,0.2-1c0.4-0.2,9.3-5.5,17.5-5
					c3.5,0.2,5.6,0.6,7.2,0.9c2.1,0.4,3.5,0.7,6.8,0.2c1.8-0.3,3.4-0.5,5-0.8c3.5-0.6,6.3-1.1,9.1-0.9c3.9,0.2,6.9,1.1,7,1.1
					c0.4,0.1,0.6,0.5,0.5,0.9c-0.1,0.4-0.5,0.6-0.9,0.5c0,0-3-0.8-6.7-1c-2.6-0.1-5.3,0.3-8.8,0.9c-1.5,0.3-3.2,0.5-5,0.8
					c-3.5,0.5-5.1,0.2-7.3-0.2c-1.6-0.3-3.6-0.7-7-0.9C88.8,43.1,80,48.3,80,48.4C79.8,48.5,79.7,48.5,79.6,48.5z"/>
				<path class="st19" d="M80.7,43.1c-0.3,0-0.6-0.2-0.7-0.6c-0.1-0.4,0.2-0.7,0.6-0.8c0,0,3.7-0.7,8.9-2.3c6-1.9,10.2-1.4,12.6-0.6
					c0.5,0.1,1,0.3,1.5,0.5c2.8,1,6.6,2.3,10,1c0.4-0.1,0.8,0,0.9,0.4c0.1,0.4,0,0.8-0.4,0.9c-3.8,1.5-8.1,0-11-1
					c-0.5-0.2-1-0.4-1.5-0.5c-2.3-0.7-6.2-1.2-11.8,0.6c-5.3,1.7-8.9,2.4-9.1,2.4C80.8,43.1,80.7,43.1,80.7,43.1z"/>
				<path class="st19" d="M88.8,90.3c-1,0-1.8-0.1-2.6-0.2c-4.2-0.9-5.9-2.5-5.9-2.5c-0.3-0.3-0.3-0.7,0-1c0.3-0.3,0.7-0.3,1,0
					c0,0,1.5,1.4,5.2,2.2c4.2,0.9,11.4-1.2,11.9-2.4c0.1-0.4,0.5-0.6,0.9-0.4c0.4,0.1,0.6,0.5,0.4,0.9C99,88.8,93.2,90.3,88.8,90.3z
					"/>
				<path class="st19" d="M118.4,86.4c0-0.3,0.4-0.4,0.7-0.3c0.3,0,0.5,0.2,0.6,0.5c0,0,0.9,2.2,5.8,2.7c3.6,0.4,6.9-0.9,8.5-2.3
					c0.6-0.6,0.8-0.9,0.8-1c0-0.2-0.1-0.3-0.1-0.3c-0.2-0.2-0.8-0.1-1-0.1c-0.4,0.1-0.7-0.2-0.8-0.5c-0.1-0.4,0.2-0.7,0.5-0.8
					c0.1,0,1.4-0.3,2.2,0.4c0.3,0.2,0.6,0.7,0.6,1.4c0,0.8-0.7,1.6-1.2,2.1c-1.9,1.7-5.6,3.1-9.6,2.7c-3.2-0.4-5-1.4-5.9-2.2
					C118.6,87.7,118.4,87,118.4,86.4z"/>
			</g>
			<use xlink:href="#SVGID_27_"  style="overflow:visible;fill:none;stroke:#F1748A;stroke-width:4;stroke-miterlimit:10;"/>
		</g>
	</g>
</g>
<g id="Layer_2" class="st39">
</g>
</svg>
