<?xml version="1.0" encoding="utf-8"?>
<!-- Generator: Adobe Illustrator 24.3.0, SVG Export Plug-In . SVG Version: 6.00 Build 0)  -->
<svg version="1.1" id="Layer_1" xmlns="http://www.w3.org/2000/svg" xmlns:xlink="http://www.w3.org/1999/xlink" x="0px" y="0px"
	 viewBox="0 0 352 84.8" style="enable-background:new 0 0 352 84.8;" xml:space="preserve">
<style type="text/css">
	.st0{fill:#00BDFF;}
	.st1{fill:#FFFFFF;}
	.st2{fill:#8B34F3;}
	.st3{fill:#EC4796;}
	.st4{fill:#FFA630;}
	.st5{fill:#ED4462;}
	.st6{fill:#E87F1C;}
	.st7{fill:#00AAE4;}
	.st8{fill:#DC2380;}
	.st9{fill:#4F3088;}
	.st10{fill:#1F1C1C;}
</style>
<g>
	<g>
		<g id="Rectángulo_redondeado_2_copia">
			<g>
				<path class="st6" d="M80.7,26.7l-10.2-8.9c-0.6-0.5-1.4-0.4-1.9,0.1L19.8,73.6c-0.5,0.6-0.4,1.4,0.1,1.9l10.2,8.9
					c0.6,0.5,1.4,0.4,1.9-0.1l48.8-55.7C81.3,28,81.2,27.2,80.7,26.7z"/>
			</g>
		</g>
		<g id="Rectángulo_redondeado_1_copia">
			<g>
				<path class="st7" d="M83.8,50.3l-54.7-48c-0.6-0.5-1.4-0.4-1.9,0.1l-9.6,11c-0.5,0.6-0.4,1.4,0.1,1.9l54.7,48
					c0.6,0.5,1.4,0.4,1.9-0.1l9.6-11C84.5,51.6,84.4,50.8,83.8,50.3z"/>
			</g>
		</g>
		<g id="Rectángulo_redondeado_2">
			<g>
				<path class="st8" d="M63.9,12l-11-9.7c-0.6-0.5-1.4-0.4-1.9,0.1L2.3,58.2c-0.5,0.6-0.4,1.4,0.1,1.9l11,9.7
					c0.6,0.5,1.4,0.4,1.9-0.1l48.8-55.7C64.5,13.4,64.5,12.5,63.9,12z"/>
			</g>
		</g>
		<g id="Rectángulo_redondeado_1">
			<g>
				<path class="st9" d="M66,70.6l-54.7-48c-0.6-0.5-1.4-0.4-1.9,0.1L0.3,33.1c-0.5,0.6-0.4,1.4,0.1,1.9l54.7,48
					c0.6,0.5,1.4,0.4,1.9-0.1l9.1-10.4C66.7,71.9,66.6,71.1,66,70.6z"/>
			</g>
		</g>
		<g id="Rectángulo_redondeado_2_copia_2">
			<g>
				<path class="st6" d="M55.5,55.6l-10.2-8.9c-0.6-0.5-1.4-0.4-1.9,0.1L19.9,73.6c-0.5,0.6-0.4,1.4,0.1,1.9l10.2,8.9
					c0.6,0.5,1.4,0.4,1.9-0.1l23.5-26.9C56.1,56.9,56,56,55.5,55.6z"/>
			</g>
		</g>
		<g>
			<path class="st10" d="M180.3,81.1c1,0,1.8-0.2,2.5-0.6c0.7-0.4,1.3-0.9,1.7-1.6c0.4-0.7,0.8-1.4,1-2.3c0.2-0.9,0.3-1.8,0.3-2.7
				v-0.5h2.8v0.5c0,1.5-0.2,2.8-0.5,4.1c-0.4,1.3-0.9,2.4-1.6,3.3c-0.7,0.9-1.6,1.7-2.6,2.2c-1,0.5-2.2,0.8-3.6,0.8
				c-2.6,0-4.7-1-6.1-3c-1.5-2-2.2-4.9-2.2-8.8v-6.4c0-3.7,0.7-6.6,2.2-8.7c1.5-2.1,3.5-3.1,6.1-3.1c1.4,0,2.6,0.3,3.6,0.8
				c1,0.5,1.9,1.3,2.6,2.2c0.7,0.9,1.2,2.1,1.6,3.3c0.4,1.3,0.5,2.6,0.5,4.1v0.5h-2.8v-0.5c0-0.9-0.1-1.8-0.4-2.7
				c-0.2-0.9-0.5-1.7-1-2.3c-0.4-0.7-1-1.2-1.7-1.6c-0.7-0.4-1.5-0.6-2.5-0.6c-1.8,0-3.2,0.8-4.1,2.4c-0.9,1.6-1.4,3.7-1.4,6.4v5.9
				c0,2.8,0.5,5,1.4,6.5C177.1,80.4,178.4,81.1,180.3,81.1z"/>
			<path class="st10" d="M189.9,66.1c0-3.7,0.7-6.6,2.2-8.7c1.5-2.1,3.5-3.1,6.1-3.1c2.6,0,4.7,1,6.1,3.1c1.5,2.1,2.2,5,2.2,8.7v6.4
				c0,3.8-0.7,6.8-2.2,8.8c-1.5,2-3.5,3-6.1,3c-2.6,0-4.7-1-6.1-3c-1.5-2-2.2-4.9-2.2-8.8V66.1z M198.2,81.1c1.8,0,3.2-0.8,4.1-2.3
				c0.9-1.5,1.4-3.7,1.4-6.5v-5.9c0-2.6-0.5-4.8-1.4-6.4c-0.9-1.6-2.3-2.4-4.1-2.4s-3.2,0.8-4.1,2.4c-0.9,1.6-1.4,3.7-1.4,6.4v5.9
				c0,2.8,0.5,5,1.4,6.5C195,80.4,196.4,81.1,198.2,81.1z"/>
			<path class="st10" d="M223.7,83.8h-2.8v-9.6c0-0.7-0.1-1.3-0.4-1.6c-0.3-0.4-0.7-0.6-1.4-0.6h-7.4v11.9h-2.8V54.9h8.5
				c1.2,0,2.3,0.2,3.2,0.6c0.9,0.4,1.7,1,2.3,1.7c0.6,0.7,1,1.5,1.4,2.5c0.3,0.9,0.5,1.9,0.5,3V64c0,1.1-0.2,2.1-0.7,3.2
				c-0.5,1.1-1.2,1.9-2.3,2.5v0.5c0.7,0.1,1.2,0.5,1.6,1c0.4,0.5,0.6,1.3,0.6,2.2V83.8z M211.7,68.7h5.3c1.6,0,2.8-0.4,3.6-1.3
				c0.8-0.8,1.2-2.1,1.2-3.7V63c0-1.5-0.4-2.6-1.2-3.5c-0.8-0.9-2-1.3-3.6-1.3h-5.3V68.7z"/>
			<path class="st10" d="M241.8,83.8H239v-9.6c0-0.7-0.1-1.3-0.4-1.6c-0.3-0.4-0.7-0.6-1.4-0.6h-7.4v11.9h-2.8V54.9h8.5
				c1.2,0,2.3,0.2,3.2,0.6c0.9,0.4,1.7,1,2.3,1.7c0.6,0.7,1,1.5,1.4,2.5c0.3,0.9,0.5,1.9,0.5,3V64c0,1.1-0.2,2.1-0.7,3.2
				c-0.5,1.1-1.2,1.9-2.3,2.5v0.5c0.7,0.1,1.2,0.5,1.6,1c0.4,0.5,0.6,1.3,0.6,2.2V83.8z M229.8,68.7h5.3c1.6,0,2.8-0.4,3.6-1.3
				c0.8-0.8,1.2-2.1,1.2-3.7V63c0-1.5-0.4-2.6-1.2-3.5c-0.8-0.9-2-1.3-3.6-1.3h-5.3V68.7z"/>
			<path class="st10" d="M247.2,54.9V74c0,2.3,0.4,4.1,1.3,5.3c0.9,1.2,2.2,1.8,3.9,1.8c1.7,0,3.1-0.6,3.9-1.8
				c0.9-1.2,1.3-3,1.3-5.3V54.9h2.8V74c0,3.3-0.7,5.9-2.2,7.7c-1.4,1.8-3.4,2.6-6,2.6c-2.5,0-4.5-0.9-6-2.6
				c-1.4-1.8-2.2-4.3-2.2-7.7V54.9H247.2z"/>
			<path class="st10" d="M266,71.9v11.9h-2.8V54.9h8.5c1.2,0,2.3,0.2,3.2,0.6c0.9,0.4,1.7,1,2.3,1.7c0.6,0.7,1,1.5,1.4,2.5
				c0.3,0.9,0.5,1.9,0.5,3V64c0,1-0.2,2-0.5,3c-0.3,1-0.8,1.8-1.4,2.5c-0.6,0.7-1.4,1.3-2.3,1.7c-0.9,0.4-2,0.6-3.2,0.6H266z
				 M266,68.7h5.3c3.2,0,4.7-1.6,4.7-4.9V63c0-1.5-0.4-2.6-1.2-3.5c-0.8-0.9-2-1.3-3.6-1.3H266V68.7z"/>
			<path class="st10" d="M288.8,81.1c1,0,1.8-0.2,2.5-0.6c0.7-0.4,1.3-0.9,1.7-1.6c0.4-0.7,0.8-1.4,1-2.3c0.2-0.9,0.3-1.8,0.3-2.7
				v-0.5h2.8v0.5c0,1.5-0.2,2.8-0.5,4.1c-0.4,1.3-0.9,2.4-1.6,3.3c-0.7,0.9-1.6,1.7-2.6,2.2c-1,0.5-2.2,0.8-3.6,0.8
				c-2.6,0-4.7-1-6.1-3c-1.5-2-2.2-4.9-2.2-8.8v-6.4c0-3.7,0.7-6.6,2.2-8.7c1.5-2.1,3.5-3.1,6.1-3.1c1.4,0,2.6,0.3,3.6,0.8
				c1,0.5,1.9,1.3,2.6,2.2c0.7,0.9,1.2,2.1,1.6,3.3c0.4,1.3,0.5,2.6,0.5,4.1v0.5h-2.8v-0.5c0-0.9-0.1-1.8-0.4-2.7
				c-0.2-0.9-0.5-1.7-1-2.3c-0.4-0.7-1-1.2-1.7-1.6c-0.7-0.4-1.5-0.6-2.5-0.6c-1.8,0-3.2,0.8-4.1,2.4c-0.9,1.6-1.4,3.7-1.4,6.4v5.9
				c0,2.8,0.5,5,1.4,6.5C285.6,80.4,287,81.1,288.8,81.1z"/>
			<path class="st10" d="M299.3,54.9h15v3.2h-6.1v22.4h6.1v3.2h-15v-3.2h6.1V58.2h-6.1V54.9z"/>
			<path class="st10" d="M316.5,66.1c0-3.7,0.7-6.6,2.2-8.7c1.5-2.1,3.5-3.1,6.1-3.1c2.6,0,4.7,1,6.1,3.1c1.5,2.1,2.2,5,2.2,8.7v6.4
				c0,3.8-0.7,6.8-2.2,8.8c-1.5,2-3.5,3-6.1,3c-2.6,0-4.7-1-6.1-3c-1.5-2-2.2-4.9-2.2-8.8V66.1z M324.9,81.1c1.8,0,3.2-0.8,4.1-2.3
				c0.9-1.5,1.4-3.7,1.4-6.5v-5.9c0-2.6-0.5-4.8-1.4-6.4c-0.9-1.6-2.3-2.4-4.1-2.4s-3.2,0.8-4.1,2.4c-0.9,1.6-1.4,3.7-1.4,6.4v5.9
				c0,2.8,0.5,5,1.4,6.5C321.7,80.4,323.1,81.1,324.9,81.1z"/>
			<path class="st10" d="M347.6,82.3h0.4V54.9h2.8v28.8h-5.7l-6.8-27.3h-0.4v27.3h-2.8V54.9h5.7L347.6,82.3z"/>
		</g>
		<g>
			<path class="st10" d="M96.9,28.3v15.8H89V2.3h16.4c2.2,0,4,0.3,5.6,1s2.9,1.6,4,2.7c1.1,1.1,1.9,2.4,2.4,3.9
				c0.5,1.5,0.8,2.9,0.8,4.5v1.4c0,1.6-0.3,3.1-0.8,4.6c-0.5,1.5-1.3,2.8-2.4,4c-1.1,1.2-2.4,2.1-4,2.8s-3.5,1.1-5.6,1.1H96.9z
				 M96.9,20.8h7.7c1.8,0,3.1-0.5,4.2-1.4c1-1,1.5-2.2,1.5-3.7v-0.7c0-1.5-0.5-2.7-1.5-3.7s-2.4-1.4-4.2-1.4h-7.7V20.8z"/>
			<path class="st10" d="M151.4,29.7c0,2.5-0.4,4.7-1.3,6.5c-0.8,1.9-2,3.5-3.4,4.8c-1.4,1.3-3.1,2.3-4.9,3c-1.9,0.7-3.8,1-5.8,1
				c-2,0-4-0.3-5.8-1c-1.9-0.7-3.5-1.7-4.9-3c-1.4-1.3-2.6-2.9-3.4-4.8c-0.8-1.9-1.3-4.1-1.3-6.5v-0.7c0-2.4,0.4-4.6,1.3-6.5
				c0.8-1.9,2-3.5,3.4-4.8c1.4-1.3,3.1-2.3,4.9-3c1.9-0.7,3.8-1,5.8-1c2,0,4,0.3,5.8,1c1.9,0.7,3.5,1.7,4.9,3
				c1.4,1.3,2.6,2.9,3.4,4.8c0.8,1.9,1.3,4.1,1.3,6.5V29.7z M136,37.8c1.1,0,2.1-0.2,3.1-0.5c1-0.4,1.8-0.9,2.5-1.6
				c0.7-0.7,1.3-1.5,1.7-2.5c0.4-1,0.6-2.1,0.6-3.3v-1.2c0-1.2-0.2-2.3-0.6-3.3c-0.4-1-1-1.8-1.7-2.5c-0.7-0.7-1.6-1.2-2.5-1.6
				c-1-0.4-2-0.5-3.1-0.5c-1.1,0-2.1,0.2-3,0.5c-1,0.4-1.8,0.9-2.5,1.6c-0.7,0.7-1.3,1.5-1.7,2.5c-0.4,1-0.6,2.1-0.6,3.3v1.2
				c0,1.2,0.2,2.3,0.6,3.3c0.4,1,1,1.8,1.7,2.5c0.7,0.7,1.6,1.2,2.5,1.6C133.9,37.6,134.9,37.8,136,37.8z"/>
			<path class="st10" d="M155.2,36.9h10.4V9.4h-10V2.3h17.6v34.7h9.7v7.2h-27.6V36.9z"/>
			<path class="st10" d="M188.9,36.9h10V21.6h-9.3v-7.2h16.9v22.5h8.6v7.2h-26.2V36.9z M202.8,1.9h8l-5,8.1h-6.1L202.8,1.9z"/>
			<path class="st10" d="M220.5,14.5h8.8V2.3h7.5v12.2h10.7v7.2h-10.7v13.5c0,1.2,0.5,1.8,1.6,1.8h8v7.2h-12.6
				c-1.4,0-2.5-0.4-3.3-1.3c-0.9-0.9-1.3-2-1.3-3.3V21.6h-8.8V14.5z"/>
			<path class="st10" d="M254.9,36.9h10V21.6h-9.3v-7.2h16.9v22.5h8.6v7.2h-26.2V36.9z M274.3,5.7c0,0.8-0.1,1.5-0.4,2.2
				c-0.3,0.7-0.7,1.3-1.2,1.8c-0.5,0.5-1.1,0.9-1.8,1.2c-0.7,0.3-1.4,0.4-2.2,0.4c-0.8,0-1.5-0.1-2.2-0.4c-0.7-0.3-1.3-0.7-1.8-1.2
				c-0.5-0.5-0.9-1.1-1.2-1.8c-0.3-0.7-0.4-1.4-0.4-2.2s0.1-1.5,0.4-2.2c0.3-0.7,0.7-1.3,1.2-1.8c0.5-0.5,1.1-0.9,1.8-1.2
				c0.7-0.3,1.4-0.4,2.2-0.4c0.8,0,1.5,0.1,2.2,0.4c0.7,0.3,1.3,0.7,1.8,1.2c0.5,0.5,0.9,1.1,1.2,1.8C274.2,4.1,274.3,4.9,274.3,5.7
				z"/>
			<path class="st10" d="M316.3,33.2c-0.7,3.5-2.3,6.3-4.8,8.5c-2.5,2.2-5.9,3.2-10.1,3.2c-2.2,0-4.2-0.3-6.1-1
				c-1.9-0.7-3.5-1.7-4.9-2.9c-1.4-1.3-2.5-2.8-3.3-4.7c-0.8-1.9-1.2-4-1.2-6.4v-0.7c0-2.4,0.4-4.5,1.2-6.5c0.8-1.9,1.9-3.5,3.3-4.9
				c1.4-1.4,3.1-2.4,5-3.1c1.9-0.7,3.9-1.1,6.1-1.1c4.1,0,7.5,1.1,10.1,3.2c2.6,2.2,4.2,5,4.9,8.5l-7.4,1.9c-0.2-1.8-1-3.3-2.3-4.5
				c-1.3-1.3-3.1-1.9-5.4-1.9c-1.1,0-2.1,0.2-3,0.6c-1,0.4-1.8,1-2.5,1.7c-0.7,0.7-1.3,1.6-1.7,2.7c-0.4,1.1-0.6,2.2-0.6,3.6v0.4
				c0,1.3,0.2,2.5,0.6,3.5c0.4,1,1,1.9,1.7,2.5c0.7,0.7,1.6,1.2,2.5,1.5c1,0.3,2,0.5,3,0.5c2.3,0,4.1-0.6,5.3-1.7
				c1.2-1.2,2-2.7,2.4-4.7L316.3,33.2z"/>
			<path class="st10" d="M339.6,39.8c-0.8,1.9-1.9,3.2-3.4,4c-1.4,0.8-3.1,1.2-5,1.2c-1.8,0-3.5-0.3-5.1-1c-1.6-0.7-3-1.7-4.2-3
				c-1.2-1.3-2.1-2.9-2.8-4.8c-0.7-1.9-1-4-1-6.4v-1c0-2.4,0.3-4.5,1-6.3c0.7-1.9,1.6-3.5,2.8-4.8c1.2-1.3,2.5-2.3,4-3
				c1.5-0.7,3.2-1,4.9-1c2.1,0,3.8,0.4,5.1,1.1c1.3,0.7,2.3,1.8,3.1,3.3h1.1v-3.6h7.5v20.7c0,1.2,0.5,1.8,1.6,1.8h1.1v7.2h-5.1
				c-1.4,0-2.5-0.4-3.3-1.2c-0.9-0.8-1.3-1.8-1.3-3.1H339.6z M332.9,37.8c2.2,0,3.9-0.7,5.3-2.2c1.3-1.5,2-3.4,2-5.9v-0.7
				c0-2.5-0.7-4.5-2-5.9c-1.3-1.5-3.1-2.2-5.3-2.2c-2.2,0-3.9,0.7-5.3,2.2c-1.3,1.5-2,3.4-2,5.9v0.7c0,2.5,0.7,4.5,2,5.9
				C328.9,37.1,330.7,37.8,332.9,37.8z"/>
		</g>
		<g id="Rectángulo_1">
			<g>
				<polygon class="st7" points="172,54.5 171.4,60.5 351.3,84.2 352,78.2 				"/>
			</g>
		</g>
	</g>
	<g>
		<g>
			<path class="st10" d="M90.5,54.7h16.8l3.1,29.5H99.8v-9.5h-2.1v9.5H87.3L90.5,54.7z M96.2,67l0.6,1.5l4.7-2l-0.6-1.5L96.2,67z"/>
			<path class="st10" d="M110.8,54.7h9.5l3.8,11.9l0.6-0.1l-0.5-2.4c-0.4-1.9-0.9-4.1-0.9-6.2v-3.2h10.5v29.5h-9.5l-3.8-11.9
				l-0.6,0.1l0.5,2.4c0.4,1.9,0.9,4.2,0.9,6.2v3.2h-10.5V54.7z"/>
			<path class="st10" d="M155.5,64h-5.2v20.2h-10.5V64h-5.2v-9.4h20.9V64z"/>
			<path class="st10" d="M156.3,54.7h10.5v29.5h-10.5V54.7z"/>
		</g>
	</g>
</g>
</svg>
