<?xml version="1.0" encoding="utf-8"?>
<!-- Generator: Adobe Illustrator 24.3.0, SVG Export Plug-In . SVG Version: 6.00 Build 0)  -->
<svg version="1.1" id="Layer_1" xmlns="http://www.w3.org/2000/svg" xmlns:xlink="http://www.w3.org/1999/xlink" x="0px" y="0px"
	 viewBox="0 0 280.7 197.9" style="enable-background:new 0 0 280.7 197.9;" xml:space="preserve">
<style type="text/css">
	.st0{fill:#ED4462;}
	.st1{fill:#A479AF;}
</style>
<g>
	<g>
		<path class="st0" d="M33.8,48.1h51.8l9.7,91.1H62.6v-29.3h-6.3v29.3H24.1L33.8,48.1z M51.4,86.3l2,4.6l14.5-6.2l-2-4.6L51.4,86.3z
			"/>
		<path class="st0" d="M96.5,48.1h29.4l11.7,36.7l2-0.4l-1.6-7.4c-1.2-6-2.8-12.8-2.8-19v-9.8h32.6v91.1h-29.4l-11.7-36.7l-2,0.4
			l1.6,7.4c1.2,6,2.8,12.8,2.8,19v9.8H96.5V48.1z"/>
		<path class="st0" d="M234.6,77h-16v62.2H186V77h-15.9V48.1h64.5V77z"/>
		<path class="st0" d="M237.1,48.1h32.6v91.1h-32.6V48.1z"/>
	</g>
	<g>
		<path d="M21.5,167.5c2.3-11.9,6.7-18.4,13.1-20c5.1-1.1,10.6,0.6,12.8,3.8c2.3,3.2,1.4,7-1.4,7c-2.3,0-5.1-1.3-5.1-2.4
			c0-0.5-0.8-2.4-1.1-2.4c0,0-0.6,0.2-1.1,0.5c-5,1.6-6.4,11.1-6.9,13c-2,8.9-0.8,19.4,2.5,23.2c1.4,1.6,2.8,1.4,6.7-1.6
			c6.5-5.7,9.8-1.4,10.3-0.9c0.3,7.1-10.6,10.6-15.1,10.3c-12.4,0.1-14-10.3-15.1-15.4C20.6,179.6,20.9,170.5,21.5,167.5z"/>
		<path d="M56.6,151.5c0-0.2,0.4-0.6,0.7-0.9c0.7-0.6,0.7-0.6,2.4-0.4c2.4,0,4.2,0.9,6.2,2.6c7.1,5.8,8.4,14.2,8.3,18.5
			c-0.3,10-5.2,14.2-9,15.9c-4.5,1.7-8.3,0.6-10.4-0.4c-7.2-3-6.5-18-5.7-21.1c2.4-9.4,5-11.4,6.7-12.9
			C56.1,152.3,56.6,151.7,56.6,151.5z M63.7,159.5c-0.5-1.3-1.4-2.6-1.9-3c-0.5-0.6-0.7-0.9-1-0.9c-7.4,5.3-6.4,20.6-3.6,25.4
			c0.7,1.1,1.7,2.3,1.9,2.3c1.2,0.2,3.8-1.9,5.2-3.8C67.9,173.7,67.7,166.4,63.7,159.5z"/>
		<path d="M76.3,157.1c-0.3-9.9-0.3-9.9,0.5-10.6c1.6-1.2,3.9-0.2,4.4,0c0.5,0.5,0.9,0.7,2.4,0.2c3.2-0.9,7.3-0.2,8.9,0.5
			c2.8,1.5,4.5,3.6,4.2,7.1c-0.7,8.1-6.9,11.2-7.4,11.7c-1.3,1-1.3,1-0.8,2c0.3,0.5,1.6,2.5,2.6,4.5c1.8,3.8,4.3,7.1,5,7.8
			c1.6,1.8,1.8,2.6,1.5,3.3c-2.9,2.6-5.5,1-7.6-1c-1.8-1.8-2.3-2.6-3.7-4.8c-0.8-1.8-1.6-3.3-1.8-3.5c-0.3-0.2-0.3,1.2-0.3,6
			c0.3,4.6,0,6.6,0,7.1c-0.8,1.5-3.2,1.8-5.5,1.1c-2.1-1-2.1-0.8-2.3-11.7C76.6,171.3,76.3,162.5,76.3,157.1z M86.3,159.7
			c2.8-2.7,4.1-5.8,3.3-8.1c-1.1-1.4-3.6-0.7-5.2-0.2c-1.3,0.5-1.3,0.5-1.1,1.5c0,0.7,0.6,8.8,0.8,8.8
			C84.2,161.7,85.2,160.7,86.3,159.7z"/>
		<path d="M102.3,156.7c-0.2-8.6-0.2-8.6,0.4-9.3c1.4-1,3.4-0.2,3.9,0c0.4,0.4,0.8,0.6,2.1,0.2c2.8-0.7,6.4-0.2,7.8,0.4
			c2.5,1.3,4,3.1,3.7,6.2c-0.6,7.1-6,9.8-6.4,10.2c-1.2,0.9-1.1,0.9-0.7,1.8c0.2,0.4,1.4,2.2,2.3,3.9c1.6,3.3,3.7,6.2,4.4,6.9
			c1.4,1.5,1.5,2.3,1.3,2.9c-2.5,2.3-4.8,0.9-6.6-0.9c-1.6-1.5-2-2.2-3.2-4.2c-0.7-1.5-1.4-2.9-1.6-3.1c-0.2-0.2-0.2,1.1-0.2,5.3
			c0.2,4,0,5.7,0,6.2c-0.7,1.3-2.8,1.6-4.8,1c-1.8-0.9-1.8-0.7-2-10.2C102.5,169.1,102.3,161.4,102.3,156.7z M111,158.9
			c2.5-2.4,3.6-5.1,2.9-7.1c-1-1.2-3.1-0.6-4.5-0.2c-1.2,0.4-1.2,0.4-0.9,1.3c0,0.6,0.5,7.7,0.7,7.7
			C109.1,160.7,110,159.8,111,158.9z"/>
		<path d="M139.7,148.5c-0.5-1-0.3-2,0.8-2.8c5.7-1.5,7.2,1.8,7.4,2.8c1.1,2.6,1.6,14.9,0.8,20.8c-1.4,14.1-6.4,17-9.1,18.3
			c-9.1,2.2-11.5-3-12.5-4.9c-1.9-3.6-2.6-9-2.6-16.7c0-10.3,1.3-17.9,3.5-18.7c1.6-0.5,4,0,5,1c0.8,0.8,0.8,3.3,0.3,7.4
			c-0.5,5.7-0.8,11.6-0.6,15.5c0.5,5.7,1.8,10.8,2.6,10.5c1.1-0.2,3.7-6.1,4.5-10.5C141.5,163.4,141.3,151.3,139.7,148.5z"/>
		<path d="M158.3,145.9c0.3,0.2,1,0.2,2,0c3.3-0.7,6.7-0.2,9.2,0.7c5.2,2.9,5.6,8.8,3.5,14.5c-4.3,7.4-11.7,9.7-11.7,9.9
			c0,1,2.7,14.5,1.2,16.6c-4.1,1.6-5.7-0.5-6-0.7c-0.8-0.7-1.4-4.6-2.5-11.6c-0.3-3.8-0.5-6.3-0.5-14.7c0-5.8-0.3-10.6-0.3-11.1
			s1.2-2.2,1.2-2.4c0.3-1,0.8-1.5,2.3-1.2C157.5,145.9,158.3,145.9,158.3,145.9z M167.5,154.6c0.3-1.9-0.3-3.4-1-4.1
			c-0.8-0.5-2-0.5-4.3,0c-1.5,0.2-1.4,0.2-1.7,2.9c0,3.6,0.3,10.6,0.5,10.6C161.1,164,166.4,161.4,167.5,154.6z"/>
		<path d="M176,163.3c1.8-9.3,5.2-14.3,10.2-15.6c3.9-0.9,8.2,0.5,10,3c1.8,2.5,1.1,5.4-1.1,5.4c-1.8,0-3.9-1-3.9-1.9
			c0-0.4-0.6-1.9-0.9-1.9c0,0-0.5,0.2-0.9,0.4c-3.9,1.2-5,8.6-5.4,10.1c-1.5,6.9-0.6,15.1,1.9,18.1c1.1,1.2,2.2,1.1,5.2-1.2
			c5.1-4.4,7.6-1.1,8.1-0.7c0.2,5.6-8.3,8.2-11.8,8c-9.7,0.1-10.9-8-11.8-12C175.3,172.7,175.5,165.6,176,163.3z"/>
		<path d="M201.1,151.7c-0.3-5.6,0-6.1,1-6.3c1.8-0.2,3.5,0,4.5,1c0.8,1,1.3,3.2,2.1,10.7c0.5,4.6,1,8.8,2.8,26.4
			c0.9,4.1-1.5,4.9-3.3,4.9c-2.5-0.2-4.3-1.2-4.6-3.4C203.1,181.5,201.4,157.5,201.1,151.7z"/>
		<path d="M223.5,153.8c0-0.2,0.4-0.6,0.7-0.8c0.8-0.6,0.8-0.6,2.5-0.4c2.5,0,4.4,0.9,6.6,2.4c7.5,5.5,8.9,13.3,8.8,17.3
			c-0.3,9.4-5.5,13.3-9.6,14.9c-4.7,1.6-8.8,0.6-11-0.4c-7.6-2.8-6.9-16.9-6-19.8c2.5-8.8,5.3-10.7,7.1-12.1
			C223,154.6,223.5,154,223.5,153.8z M217.9,148.8c0.6-0.7,1.1-0.9,8.1-3.8c5.3-2.2,5.4-2.2,7-2.3c1.6-0.1,3.1,1.5,2,2.8
			c-0.6,0.5-11.1,6.6-16.6,4.3C217.8,149.4,217.6,149.2,217.9,148.8z M231,161.3c-0.5-1.2-1.5-2.4-2-2.8c-0.5-0.6-0.8-0.8-1-0.8
			c-7.9,5-6.7,19.3-3.8,23.8c0.7,1.1,1.8,2.2,2,2.2c1.3,0.2,4-1.8,5.5-3.6C235.5,174.6,235.2,167.8,231,161.3z"/>
		<path d="M260.7,167.7c-1-21.5-1-20.7,0.5-21.5c4.3-0.9,5.3,1,5.5,1.5c0.3,0.5,1.8,30.5,1.8,32.5c0.5,5.8,0.5,6-0.5,6.8
			c-1,0.8-2.8,0.8-4.8,0c-2.8-1.3-11.7-13.3-12.5-14.4c0.3,1.5,0.7,14.9,0.4,15.9c-0.3,1.5-0.7,2.1-2.5,2.1
			c-1.8,0.2-3.8-0.5-4.3-1.8c-0.3-0.5-0.5-3.1-0.8-15.2c-0.3-22.6-0.3-21,0.3-21.8c0.5-0.5,1-0.5,1.8-0.5c2,0,3.8,1.2,4,3.5
			c0,0.8,0.4,1.8,1.2,3c0.5,1,9.8,18.7,10.1,18.5C261,176.4,261,172.5,260.7,167.7z"/>
	</g>
	<g>
		<g>
			<path class="st0" d="M3.1,180.5c35.8-1.8,71.6-3.6,107.4-5.4c35.6-1.9,71.2-3.8,106.8-5.7c20.1-1.1,40.2-2.2,60.2-3.4
				c1.7-0.1,3.1-1.4,3.1-3.1c0-1.6-1.4-3.2-3.1-3.1c-35.8,2-71.5,4-107.3,5.9c-35.6,1.9-71.2,3.8-106.8,5.6c-20.1,1-40.2,2-60.3,3
				c-1.7,0.1-3.1,1.4-3.1,3.1C0,179,1.4,180.6,3.1,180.5L3.1,180.5z"/>
		</g>
	</g>
	<g>
		<path class="st1" d="M105,14.1c-0.4-9.1-0.4-9.1,0.7-9.7c2.3-1.1,5.5-0.2,6.2,0c0.7,0.4,1.2,0.6,3.3,0.2
			c4.5-0.8,10.2-0.2,12.4,0.4c4,1.4,6.3,3.3,5.9,6.5c-1,7.4-9.6,10.3-10.3,10.7c-1.9,0.9-1.8,0.9-1.1,1.8c0.4,0.4,2.3,2.3,3.6,4.1
			c2.6,3.5,6,6.5,7,7.2c2.2,1.6,2.5,2.4,2.1,3.1c-4.1,2.4-7.7,0.9-10.6-0.9c-2.6-1.6-3.3-2.3-5.1-4.4c-1.1-1.6-2.2-3-2.6-3.2
			c-0.4-0.2-0.4,1.1-0.4,5.5c0.4,4.2,0,6,0,6.5c-1.1,1.4-4.5,1.7-7.8,1c-2.9-0.9-2.9-0.7-3.3-10.7C105.4,27.1,105,19,105,14.1z
			 M118.9,16.4c4-2.5,5.7-5.4,4.7-7.4c-1.6-1.3-5-0.7-7.2-0.2c-1.9,0.4-1.9,0.4-1.5,1.4c0,0.7,0.8,8.1,1.1,8.1
			C116,18.3,117.4,17.4,118.9,16.4z"/>
		<path class="st1" d="M143.3,6c1.9-0.6,9.5-1.6,17.4-2.5c6.5-0.4,8.2-0.4,10.5,0.6c2.6,1.3,1,3,0.3,3.1c-9.1,0.6-19.9,1.7-19.9,1.7
			c-0.4,0-0.4,6.9-0.7,8.5c0,2.5,0,2.9,0.4,2.9c0.4,0.2,7.5-1.1,8.5-1.1c4,0,6.6,1.7,5.6,3.1c-0.6,0.8-6.9,2.1-13.1,2.9
			c-1.7,0.2-1.7,0.2-1.7,3.3c0.4,3.5,0.7,5.2,1.7,6.6c1,1.7,0.7,1.7,5.9-1c2.6-1.2,4.3-1.7,7.2-1.1s3.9,1.8,2.6,3.5
			c-1,1.2-4.6,3.4-6.9,4c-19.2,5.6-21-6.6-21.2-9.6c-0.7-6.9,1.9-21.8,2.3-22.6c0.4-0.2,0.4-0.6,0-0.8C141.7,7.3,142.4,6.4,143.3,6z
			"/>
		<path class="st1" d="M178.7,1.1c0.4-0.4,1.2-1,2.3-1.1c2.1,0,5.6,1.1,6.2,1.6c0,0.2,1.4,0.4,2.8,0.6c24.4,3.2,22.4,16.8,22.2,19.5
			c-0.3,3.9-2.6,7.5-5.5,10.7c-4,4.4-13.6,8.2-16.2,9c-6.7,2-11.7-1.4-11.8-2.7c0-0.2-0.1-0.9-0.4-1.4c-0.9-1.2-1.2-15.8-1-16.5
			c-0.4-1.9,0.5-12.9,0.5-14.5c0.2-0.9,0.2-1.1-0.4-1.9c-1.5-1.3-1.3-2.2,0.2-2.5C178.4,1.7,178.7,1.3,178.7,1.1z M201.7,21
			c1.7-5.3-1-10.1-7.3-13.1c-1.1-0.6-2.4-1-3.8-1.1c-2.4-0.5-2.4-0.6-2.2,0.2c-1.2,16.7-0.3,24.8,0.2,26.6
			C199.6,29.7,201.4,22.3,201.7,21z"/>
	</g>
</g>
</svg>
