<?xml version="1.0" standalone="no"?>
<!DOCTYPE svg PUBLIC "-//W3C//DTD SVG 20010904//EN"
 "http://www.w3.org/TR/2001/REC-SVG-20010904/DTD/svg10.dtd">
<svg version="1.0" xmlns="http://www.w3.org/2000/svg"
 width="866.000000pt" height="844.000000pt" viewBox="0 0 866.000000 844.000000"
 preserveAspectRatio="xMidYMid meet">

<g transform="translate(0.000000,844.000000) scale(0.100000,-0.100000)"
fill="#000000" stroke="none">
<path d="M0 4220 l0 -4220 1213 0 1212 0 -152 75 c-84 41 -153 80 -153 86 0 5
-5 7 -10 4 -6 -3 -10 2 -10 12 0 19 -48 123 -60 133 -18 13 -17 62 2 79 19 18
19 19 0 23 -15 4 -19 13 -17 44 3 45 25 57 47 25 8 -11 26 -22 40 -25 15 -2
68 -25 119 -50 50 -25 97 -46 104 -46 6 0 18 -12 26 -26 17 -32 53 -47 91 -39
17 4 35 2 44 -6 8 -7 35 -11 59 -11 39 2 43 0 38 -18 -4 -14 0 -20 12 -20 10
0 15 6 13 17 -3 18 35 63 54 63 6 0 20 -7 30 -17 15 -14 22 -14 42 -4 20 11
28 10 51 -5 16 -11 42 -17 65 -16 25 2 39 -2 43 -11 3 -9 21 -14 47 -14 36 0
41 2 38 21 -1 11 1 26 5 33 4 6 3 23 -3 38 -8 20 -7 27 5 31 8 4 21 4 28 1 7
-3 21 1 31 8 10 8 24 11 31 9 7 -3 15 2 19 11 3 9 10 14 15 11 10 -7 37 16 43
36 4 10 10 10 31 1 15 -7 32 -10 39 -8 7 3 18 -5 23 -17 13 -29 32 -34 40 -9
9 28 42 37 65 16 27 -25 60 -11 60 25 0 15 -7 30 -15 34 -23 8 -18 24 8 25 12
0 38 1 57 1 19 0 43 3 52 6 17 5 17 8 -1 42 -14 27 -16 43 -10 55 7 11 6 24
-1 38 -25 45 4 31 53 -26 84 -98 135 -147 147 -140 7 4 6 13 -2 27 -7 11 -17
28 -23 37 -5 9 -21 31 -34 49 -17 25 -21 36 -12 45 6 6 11 19 11 29 0 19 29
25 45 9 6 -5 30 -11 54 -14 39 -5 46 -2 74 26 24 27 29 28 25 11 -6 -23 33
-57 40 -36 2 7 19 1 43 -15 45 -30 59 -25 35 12 -27 40 -7 30 84 -46 150 -124
246 -184 293 -181 52 4 170 75 323 194 57 44 194 188 194 203 0 3 25 37 56 73
76 92 84 102 84 107 0 2 11 15 25 29 26 26 34 59 13 50 -7 -2 -26 -26 -41 -52
-15 -26 -49 -70 -75 -97 -26 -28 -54 -61 -63 -74 -18 -29 -45 -23 -58 10 -5
16 -10 19 -15 10 -12 -18 -36 6 -36 35 0 17 -8 28 -25 34 -38 15 -33 41 8 35
24 -3 39 2 61 19 34 28 30 56 -9 56 -32 0 -32 14 1 29 23 10 28 9 41 -9 21
-30 32 -25 45 24 6 25 16 42 20 40 5 -3 15 0 23 6 9 8 15 8 15 2 0 -6 16 -6
48 2 44 12 47 14 50 49 2 28 -1 37 -12 37 -9 0 -16 -9 -16 -20 0 -11 -7 -20
-15 -20 -9 0 -15 9 -15 25 0 22 9 30 33 26 4 -1 25 -2 47 -3 22 -1 45 -7 51
-15 14 -16 4 -59 -22 -91 -10 -14 -19 -29 -19 -34 0 -12 41 37 83 100 45 65
55 78 100 122 29 29 34 39 22 43 -19 8 -20 36 0 43 8 3 17 21 21 39 3 19 12
36 19 39 10 3 12 16 8 40 -6 41 13 50 35 16 7 -12 17 -18 22 -15 15 9 12 51
-5 65 -8 7 -15 18 -15 24 1 16 36 56 50 56 9 0 11 16 7 59 -4 49 -2 61 14 75
21 18 17 36 -7 36 -17 0 -17 0 1 36 11 24 12 37 3 66 -9 31 -8 41 6 63 9 14
21 23 26 20 5 -3 5 7 0 24 -8 28 -7 29 11 18 14 -8 19 -20 16 -35 -3 -15 2
-26 13 -32 26 -14 30 -3 14 35 -18 43 -18 85 -1 85 8 0 17 -3 21 -7 3 -4 23
-8 43 -10 46 -4 50 -8 65 -71 19 -78 41 -78 33 1 -4 34 -8 68 -11 75 -2 7 3
15 11 18 22 9 8 23 -15 17 -22 -6 -70 30 -70 53 0 6 -9 14 -20 17 -14 4 -20
14 -20 34 l0 28 19 -29 c12 -17 29 -30 43 -31 13 -1 33 -5 46 -9 26 -9 31 10
6 28 -9 7 -17 24 -17 39 -2 21 -7 27 -22 25 -12 -2 -20 3 -20 12 0 10 12 16
33 18 24 3 32 8 32 23 0 16 -3 18 -19 9 -13 -7 -22 -7 -26 0 -3 5 -1 10 4 10
6 0 11 9 11 21 0 15 4 19 16 15 9 -3 20 -6 25 -6 5 0 9 -12 9 -26 0 -16 5 -24
12 -22 8 3 11 20 10 46 -4 42 11 82 29 82 6 0 17 7 26 15 12 12 14 33 10 102
-3 51 -10 89 -16 91 -6 2 -16 13 -22 24 -9 17 -9 20 3 15 10 -3 14 2 13 16 -1
12 -9 24 -19 25 -13 3 -15 7 -5 18 9 11 8 14 -4 14 -22 0 -30 62 -9 77 14 12
13 13 -5 13 -12 0 -24 4 -27 8 -8 13 40 36 58 29 18 -7 20 -3 6 22 -15 28 10
57 37 43 11 -6 41 -18 66 -27 25 -8 77 -33 114 -54 146 -82 223 -121 240 -121
35 0 209 -49 281 -79 41 -17 110 -58 155 -92 92 -69 214 -130 309 -154 89 -23
141 -41 196 -69 65 -33 193 -84 281 -112 129 -42 133 -45 344 -274 43 -47 87
-105 99 -130 12 -25 34 -64 50 -87 15 -23 28 -45 28 -48 0 -12 -127 -201 -203
-303 -457 -613 -1051 -1093 -1742 -1408 l-140 -64 1403 0 1402 0 0 4220 0
4220 -4330 0 -4330 0 0 -4220z m4654 3171 c5 -8 83 -22 116 -21 76 2 82 1 115
-29 20 -17 47 -34 62 -37 15 -4 38 -17 52 -30 14 -12 36 -31 49 -42 12 -11 22
-24 22 -31 0 -6 4 -11 9 -11 5 0 13 -9 16 -21 4 -11 28 -53 55 -93 107 -162
185 -338 209 -471 18 -105 19 -116 9 -158 -6 -23 -10 -94 -9 -157 1 -106 4
-122 37 -210 44 -117 54 -156 44 -167 -11 -11 -16 -90 -7 -99 11 -11 8 -26 -3
-19 -6 4 -10 -11 -9 -37 0 -33 2 -38 9 -23 7 16 9 17 9 3 1 -9 -3 -20 -9 -23
-6 -4 -2 -14 8 -25 23 -25 39 -114 47 -250 3 -58 8 -137 11 -176 8 -83 -22
-319 -43 -339 -7 -8 -13 -25 -13 -39 0 -13 -11 -37 -23 -53 -32 -37 -45 -81
-39 -122 3 -21 1 -32 -5 -28 -6 4 -8 -3 -6 -17 4 -18 0 -26 -15 -30 -34 -11
-46 -33 -34 -61 9 -19 8 -31 -3 -52 -9 -18 -11 -31 -5 -37 13 -13 13 -63 0
-71 -5 -3 -10 -15 -10 -26 0 -10 -4 -19 -10 -19 -5 0 -25 -34 -45 -75 -27 -55
-42 -75 -56 -75 -14 0 -19 -7 -19 -26 0 -19 -7 -28 -30 -37 -24 -9 -28 -15
-24 -34 5 -18 3 -22 -10 -17 -9 3 -27 3 -40 0 -18 -4 -23 -11 -19 -26 3 -11 9
-20 14 -20 12 0 12 -37 0 -45 -5 -3 -12 -1 -16 5 -11 18 -25 11 -25 -13 0 -31
-19 -50 -37 -36 -10 9 -13 8 -13 -5 0 -9 -2 -16 -5 -16 -2 0 -43 38 -91 86
-48 47 -100 92 -116 100 -15 7 -42 21 -58 30 -17 8 -47 15 -68 14 -71 -3 -82
0 -123 38 -66 61 -66 64 -4 127 30 31 55 65 55 75 0 16 -9 18 -72 17 -40 0
-88 3 -106 8 -26 6 -38 3 -66 -19 -40 -30 -49 -32 -66 -11 -7 8 -25 15 -40 15
-35 0 -72 43 -69 80 1 14 -1 41 -5 61 -5 23 -3 45 4 59 8 15 8 25 1 34 -6 7
-10 75 -10 172 1 87 -4 188 -10 224 -20 120 -8 241 34 350 21 54 22 55 59 52
22 -2 56 -17 83 -35 25 -18 52 -36 61 -42 27 -17 40 -38 46 -77 4 -21 10 -38
14 -39 31 -3 46 -12 76 -45 20 -21 38 -51 41 -66 8 -34 173 -188 203 -188 18
0 36 40 23 53 -20 20 -12 46 17 53 15 3 36 10 47 14 84 37 148 60 167 60 31 0
68 27 68 49 0 9 15 28 33 42 24 18 42 23 73 21 37 -3 44 0 63 27 20 28 93 71
120 71 6 0 11 6 11 13 0 6 11 25 25 41 26 31 29 38 18 49 -3 4 -8 64 -9 135
-4 181 -2 168 -16 154 -7 -7 -17 -8 -30 -1 -12 6 -18 6 -18 -1 0 -17 -22 -12
-95 23 -86 41 -147 53 -165 32 -7 -9 -29 -15 -51 -15 -22 0 -65 -9 -96 -20
-32 -11 -76 -20 -99 -20 -23 0 -70 -9 -104 -20 -34 -11 -79 -20 -99 -20 -20 0
-42 -5 -47 -10 -6 -6 -52 -11 -103 -13 -71 -3 -97 0 -108 11 -11 12 -19 12
-39 3 -14 -6 -35 -9 -47 -6 -12 4 -33 2 -47 -3 l-24 -9 22 -12 c23 -12 29 -35
12 -46 -19 -12 -81 24 -93 55 -12 31 -37 41 -37 15 0 -8 -9 -19 -21 -25 -17
-10 -26 -6 -60 29 -37 39 -49 45 -75 42 -6 -1 -30 17 -53 39 -22 22 -45 40
-50 40 -5 0 -11 12 -13 28 -2 19 -9 28 -25 30 -15 2 -23 11 -25 30 -2 17 -14
34 -34 47 -18 11 -38 35 -47 53 -15 33 -10 41 11 20 10 -10 15 -10 21 0 5 8
11 13 15 13 18 -3 29 0 23 5 -10 10 12 44 28 44 26 0 26 19 0 81 -13 34 -22
65 -19 70 7 12 34 11 34 -1 0 -5 8 -10 17 -10 9 0 14 3 10 6 -3 3 -2 16 3 28
9 24 -8 55 -26 49 -11 -4 -24 26 -24 57 0 10 3 11 11 3 14 -14 39 -6 39 12 0
7 -7 16 -16 19 -11 4 -15 15 -12 35 4 25 0 31 -19 36 -26 6 -33 45 -7 45 13 0
12 5 -5 26 -12 15 -21 33 -21 40 0 7 -8 19 -18 26 -13 9 -21 32 -26 74 -7 66
-1 94 20 94 8 0 14 9 14 19 0 11 9 26 21 35 16 11 19 18 11 32 -8 14 -4 23 16
44 18 18 27 38 27 62 1 26 10 45 33 68 18 17 32 38 32 45 0 8 9 16 19 20 20 6
57 54 53 67 -3 12 84 50 105 47 33 -5 61 11 73 42 10 23 18 29 32 26 12 -3 23
2 30 13 11 16 16 17 42 6 32 -13 114 -10 130 5 5 4 17 4 27 -2 28 -15 59 -2
114 46 40 36 57 45 87 45 20 0 39 -4 42 -9z m1118 -1611 c21 -19 21 -20 2 -20
-11 0 -46 -26 -78 -57 -33 -32 -61 -53 -63 -47 -2 6 3 31 12 55 9 24 17 50 19
57 7 36 75 43 108 12z m-52 -318 l0 -106 35 40 c40 45 42 41 16 -24 -40 -102
-62 -183 -86 -327 -33 -194 -50 -259 -77 -295 -12 -17 -24 -30 -26 -30 -6 0 9
123 16 135 10 16 1 79 -13 95 -19 23 -45 77 -45 95 0 9 7 23 16 32 8 9 13 22
10 30 -3 8 2 40 12 71 14 46 18 87 16 207 -1 83 3 158 8 168 5 9 20 17 33 17
13 0 30 6 37 14 11 12 15 12 31 -1 14 -13 17 -34 17 -121z m104 55 c-4 -26
-11 -47 -16 -47 -6 0 -7 7 -4 16 3 9 6 34 6 57 0 27 3 38 10 31 6 -6 7 -30 4
-57z m-971 -88 c-17 -17 -37 -1 -22 17 8 10 15 12 23 4 7 -7 7 -13 -1 -21z
m105 -71 c-2 -13 -13 -27 -26 -33 -12 -5 -25 -18 -28 -27 -6 -19 -19 -24 -28
-10 -6 10 63 92 76 92 5 0 8 -10 6 -22z m757 -2355 c3 -9 3 -18 0 -22 -9 -8
-40 14 -43 32 -4 20 34 11 43 -10z m-32 -190 c3 -16 2 -32 -3 -37 -11 -11 -33
31 -26 50 9 23 23 16 29 -13z m-3 -103 c0 -11 -4 -20 -10 -20 -5 0 -10 2 -10
4 0 2 -3 11 -6 20 -4 11 -1 16 10 16 9 0 16 -8 16 -20z m15 -110 c3 -5 -3 -10
-14 -10 -12 0 -21 5 -21 10 0 6 6 10 14 10 8 0 18 -4 21 -10z m-47 -32 c-6
-18 -28 -21 -28 -4 0 9 7 16 16 16 9 0 14 -5 12 -12z m9 -95 c2 -6 -3 -13 -12
-16 -10 -5 -15 0 -15 14 0 21 21 22 27 2z m-4771 -245 c11 -97 15 -180 19
-473 3 -148 9 -336 15 -418 12 -183 13 -284 1 -292 -13 -7 -191 191 -318 355
-100 128 -215 295 -281 406 -29 50 -29 51 -11 75 16 20 20 22 29 9 5 -8 10
-20 10 -27 0 -7 7 -10 15 -7 18 7 20 55 3 72 -9 9 -7 12 10 12 19 0 22 5 20
33 -3 32 1 35 34 22 13 -5 19 0 24 22 8 34 23 55 35 47 9 -5 58 23 72 41 4 5
5 25 3 44 l-5 34 30 -29 c29 -27 31 -28 44 -11 10 14 17 16 41 7 15 -6 34 -20
42 -31 7 -10 18 -17 23 -13 7 4 5 12 -3 22 -35 43 -42 71 -26 104 l15 32 36
-39 36 -39 16 39 c13 29 19 35 26 24 7 -11 9 -11 9 4 0 9 -5 17 -12 17 -6 0
-3 6 7 14 11 8 23 12 26 10 4 -2 10 -32 15 -66z m-86 17 c0 -8 -2 -15 -4 -15
-2 0 -6 7 -10 15 -3 8 -1 15 4 15 6 0 10 -7 10 -15z m4700 -15 c0 -11 -7 -20
-15 -20 -15 0 -21 21 -8 33 12 13 23 7 23 -13z m-4443 -318 c15 -15 29 -36 30
-47 15 -126 73 -426 85 -439 4 -6 8 -20 8 -33 0 -39 54 -260 75 -308 8 -17 10
-34 5 -40 -6 -7 1 -30 16 -62 14 -27 27 -74 30 -103 2 -29 11 -61 19 -70 8 -9
15 -26 15 -37 0 -11 9 -28 20 -38 11 -10 20 -25 20 -34 0 -9 7 -29 16 -46 34
-65 24 -66 -54 -6 -42 33 -123 100 -179 150 -87 77 -102 95 -107 128 -4 21 -6
128 -6 238 0 110 -1 223 -4 250 -2 28 -8 129 -11 225 -4 96 -11 182 -15 190
-11 23 -12 110 0 110 5 0 22 -12 37 -28z m4161 -391 c-12 -20 -33 -18 -42 5
-4 10 3 14 24 14 27 0 29 -2 18 -19z m-58 -181 c0 -5 -5 -10 -11 -10 -5 0 -7
5 -4 10 3 6 8 10 11 10 2 0 4 -4 4 -10z m-265 -139 c3 -5 1 -12 -5 -16 -5 -3
-10 1 -10 9 0 18 6 21 15 7z m-57 -45 c3 -12 -1 -17 -10 -14 -7 3 -15 13 -16
22 -3 12 1 17 10 14 7 -3 15 -13 16 -22z m-92 -291 c3 -14 10 -25 15 -25 5 0
9 -7 9 -15 0 -8 -4 -15 -10 -15 -5 0 -10 4 -10 8 0 5 -9 18 -21 30 -11 12 -17
27 -14 32 11 17 24 11 31 -15z m-142 -56 c11 -10 30 -24 40 -32 11 -8 16 -19
12 -25 -11 -17 -29 -15 -22 3 3 9 0 15 -7 15 -8 0 -31 16 -53 36 -32 29 -35
35 -15 29 13 -4 33 -15 45 -26z m76 -14 c0 -8 -4 -15 -10 -15 -5 0 -10 7 -10
15 0 8 5 15 10 15 6 0 10 -7 10 -15z m10 -29 c0 -3 -4 -8 -10 -11 -5 -3 -10
-1 -10 4 0 6 5 11 10 11 6 0 10 -2 10 -4z m-760 -20 c0 -3 -4 -8 -10 -11 -5
-3 -10 -1 -10 4 0 6 5 11 10 11 6 0 10 -2 10 -4z"/>
<path d="M5561 5044 c0 -11 3 -14 6 -6 3 7 2 16 -1 19 -3 4 -6 -2 -5 -13z"/>
<path d="M5605 4979 c-4 -12 -2 -26 4 -32 8 -8 11 -2 11 21 0 37 -6 41 -15 11z"/>
<path d="M482 1950 c0 -14 2 -19 5 -12 2 6 2 18 0 25 -3 6 -5 1 -5 -13z"/>
<path d="M580 1590 c0 -9 9 -23 20 -33 25 -21 25 -9 0 23 -13 17 -20 20 -20
10z"/>
<path d="M627 1524 c-8 -8 23 -64 35 -64 4 0 8 -7 8 -15 0 -8 9 -24 20 -35 11
-11 20 -16 20 -10 0 16 -76 130 -83 124z"/>
<path d="M810 1180 c0 -5 5 -10 11 -10 5 0 7 5 4 10 -3 6 -8 10 -11 10 -2 0
-4 -4 -4 -10z"/>
<path d="M5750 2930 c0 -6 4 -18 9 -28 5 -9 12 -26 16 -36 11 -37 16 -7 5 33
-10 36 -30 57 -30 31z"/>
<path d="M5665 2320 c-8 -13 4 -32 16 -25 12 8 12 35 0 35 -6 0 -13 -4 -16
-10z"/>
<path d="M5716 2185 c4 -8 11 -15 16 -15 6 0 5 6 -2 15 -7 8 -14 15 -16 15 -2
0 -1 -7 2 -15z"/>
<path d="M5540 2071 c0 -17 5 -33 10 -36 6 -3 11 -23 11 -43 l2 -37 6 40 c3
22 3 42 -1 43 -5 2 -8 17 -8 33 0 16 -4 29 -10 29 -5 0 -10 -13 -10 -29z"/>
<path d="M5477 1983 c-10 -17 -4 -63 9 -74 11 -9 14 -7 14 12 0 13 3 34 6 47
5 16 2 22 -9 22 -9 0 -18 -3 -20 -7z"/>
<path d="M5645 1940 c3 -5 8 -10 11 -10 2 0 4 5 4 10 0 6 -5 10 -11 10 -5 0
-7 -4 -4 -10z"/>
<path d="M5640 1880 c-13 -8 -12 -10 3 -10 9 0 17 5 17 10 0 12 -1 12 -20 0z"/>
<path d="M4307 413 c-4 -3 -7 -11 -7 -17 0 -6 5 -5 12 2 6 6 9 14 7 17 -3 3
-9 2 -12 -2z"/>
</g>
</svg>
