<?xml version="1.0" encoding="utf-8"?>
<!-- Generator: Adobe Illustrator 24.3.0, SVG Export Plug-In . SVG Version: 6.00 Build 0)  -->
<svg version="1.1" xmlns="http://www.w3.org/2000/svg" xmlns:xlink="http://www.w3.org/1999/xlink" x="0px" y="0px"
	 viewBox="0 0 224.1 247.9" style="enable-background:new 0 0 224.1 247.9;" xml:space="preserve">
<style type="text/css">
	.st0{clip-path:url(#SVGID_2_);}
	.st1{clip-path:url(#SVGID_4_);fill:#1A1B2F;}
	.st2{clip-path:url(#SVGID_6_);}
	.st3{clip-path:url(#SVGID_8_);fill:#F1748A;}
	.st4{fill:#F1748A;}
	.st5{fill:#FDD56F;}
	.st6{fill:#EC4796;}
	.st7{clip-path:url(#SVGID_10_);}
	.st8{clip-path:url(#SVGID_12_);fill:#F1748A;}
	.st9{fill:#FFFFFF;}
	.st10{fill:none;stroke:#EC4796;stroke-width:2;stroke-miterlimit:10;}
	.st11{fill:none;stroke:#F1748A;stroke-width:2;stroke-miterlimit:10;}
	.st12{fill:none;stroke:#FFFFFF;stroke-width:1.9929;stroke-miterlimit:10;}
	.st13{fill:none;stroke:#1A1B2F;stroke-width:2.2288;stroke-miterlimit:10;}
	.st14{fill:#1A1B2F;}
	.st15{clip-path:url(#SVGID_14_);}
	.st16{fill:#FFD1C2;}
	.st17{fill:#D69241;}
	.st18{fill:#6CBFAD;}
	.st19{fill:#1C2021;}
	.st20{fill:#F78271;}
	.st21{clip-path:url(#SVGID_16_);}
	.st22{fill:#853C2B;}
	.st23{clip-path:url(#SVGID_18_);}
	.st24{fill:#FECA9A;}
	.st25{clip-path:url(#SVGID_20_);}
	.st26{fill:none;stroke:#1C2021;stroke-width:3.8694;stroke-miterlimit:10;}
	.st27{clip-path:url(#SVGID_22_);}
	.st28{clip-path:url(#SVGID_24_);}
	.st29{clip-path:url(#SVGID_26_);}
	.st30{clip-path:url(#SVGID_28_);}
	.st31{clip-path:url(#SVGID_30_);}
	.st32{clip-path:url(#SVGID_32_);}
	.st33{clip-path:url(#SVGID_34_);}
	.st34{clip-path:url(#SVGID_36_);fill:#FDD56F;}
	.st35{fill:none;stroke:#1C2021;stroke-width:5.7091;stroke-miterlimit:10;}
	.st36{fill:#ED4462;}
	.st37{fill:#00BDFF;}
	.st38{fill:#FFA630;}
	.st39{display:none;}
	.st40{display:inline;fill:#606060;}
</style>
<g id="Layer_1">
	<g>
		<g>
			<defs>
				<circle id="SVGID_23_" cx="-103.9" cy="-86" r="110"/>
			</defs>
			<use xlink:href="#SVGID_23_"  style="overflow:visible;fill:#FFFFFF;"/>
			<clipPath id="SVGID_2_">
				<use xlink:href="#SVGID_23_"  style="overflow:visible;"/>
			</clipPath>
			<use xlink:href="#SVGID_23_"  style="overflow:visible;fill:none;stroke:#F1748A;stroke-width:4;stroke-miterlimit:10;"/>
		</g>
	</g>
	<g>
		<g>
			<defs>
				<circle id="SVGID_29_" cx="112" cy="112" r="110"/>
			</defs>
			<use xlink:href="#SVGID_29_"  style="overflow:visible;fill:#FFFFFF;"/>
			<clipPath id="SVGID_4_">
				<use xlink:href="#SVGID_29_"  style="overflow:visible;"/>
			</clipPath>
			<g style="clip-path:url(#SVGID_4_);">
				<g>
					<path class="st24" d="M85.9,122.5c0,0,2.6,18.9-1.7,31.2c-4.3,12.2,21.3,18.7,21.3,18.7l17.2,32.1l9.9-29.6l14-21.9
						c0,0-3.7-1.9-4.9-13.1C140.3,128.7,85.9,122.5,85.9,122.5z"/>
					<path class="st9" d="M113.2,166.5c-5.8-0.6-21.2-6.4-30.1-12.9l-48.2,15.2l14.3,78.2c15.3,4.5,138.4-10.7,139.9-14.2
						c1.5-3.4,6.2-22.8,6.2-32.2c0-5.5-1.7-36.7-1.7-36.7c-8.4-7.9-38.1-9-45-8.8L135.5,168C129.8,171.5,119.4,167.2,113.2,166.5z"
						/>
					<path class="st24" d="M89.4,24.5c0,0-18.7,4.9-18.7,26.2S72,76.3,72,76.3s-8.8-10.5-8.6-1.9S68.8,93,74.6,99.3
						c5.8,6.2,7.9,10.7,8.4,15.5c0.4,4.7,5.4,13.3,5.4,13.3l34.8,1.1c0,0,22.1-4.3,20.6-5.2c-1.5-0.9-0.6-13.3,0-17.2
						c0.6-3.9,4.3-0.2,7.3-7.3c3-7.1,12.5-31.4,8.6-32.2c-3.9-0.9-7.9,3.2-7.9,3.2s4-18.2,1.2-22.7c-2.8-4.5-8.3-26.9-25.7-28
						C109.9,18.7,89.4,24.5,89.4,24.5z"/>
					<path class="st19" d="M146.3,101.5l-0.1,0c-0.4-0.1-0.6-0.4-0.6-0.8c0-0.1,0.5-3.2,4.5-7c3.6-3.4,4.7-9.2,2.5-12.4
						c-3.9-5.5-1.9-10.9-1.8-11.1c0.1-0.4,0.5-0.5,0.9-0.4c0.4,0.1,0.5,0.5,0.4,0.9c-0.1,0.2-1.8,4.9,1.6,9.8
						c2.7,3.8,1.5,10.3-2.7,14.2c-3.6,3.4-4.1,6.2-4.1,6.2C146.9,101.2,146.6,101.5,146.3,101.5z"/>
					<path class="st19" d="M143.7,118.1c0,0-0.1,0-0.1,0c-0.4-0.1-0.6-0.4-0.5-0.8c0-0.2,0.1-1.2,0.1-2.2c0.1-3.4,0.3-9,1.5-11.3
						c1.4-2.9,3.8-15.8,3.8-15.9c0.1-0.4,0.4-0.6,0.8-0.6c0.4,0.1,0.6,0.4,0.6,0.8c-0.1,0.5-2.4,13.2-3.9,16.3
						c-1,2.1-1.2,7.7-1.3,10.7c0,1.4-0.1,2.1-0.1,2.4C144.3,117.9,144,118.1,143.7,118.1z"/>
					<path class="st19" d="M76.7,93.2c-0.2,0-0.3-0.1-0.4-0.2c-7.4-6.1-5.8-9.2-3.7-13.4c0.2-0.5,0.5-0.9,0.7-1.4
						c2.3-4.7,2.3-10.6,2.3-10.7c0-0.4,0.3-0.7,0.7-0.7c0.4,0,0.7,0.3,0.7,0.7c0,0.3,0,6.2-2.4,11.3c-0.2,0.5-0.5,1-0.7,1.5
						c-2,4-3.2,6.2,3.3,11.6c0.3,0.2,0.3,0.7,0.1,1C77.1,93.1,76.9,93.2,76.7,93.2z"/>
					<path class="st19" d="M83.7,121.6c0,0-0.1,0-0.1,0c-0.4-0.1-0.6-0.4-0.6-0.8c0.3-1.6-0.5-5.2-1.6-10.3
						c-0.5-2.5-1.2-5.4-1.8-8.6c-1.9-9.8-2.1-12.9-2.2-13c0-0.4,0.3-0.7,0.6-0.7c0.4,0,0.7,0.3,0.7,0.6c0,0,0.2,3.1,2.1,12.8
						c0.6,3.2,1.3,6.1,1.8,8.6c1.2,5.4,2,8.9,1.6,10.8C84.4,121.3,84.1,121.6,83.7,121.6z"/>
					<path class="st19" d="M114.4,105.6c-1.9,0-2.9-0.9-4.2-2c-0.8-0.7-1.7-1.4-2.9-2.1c-2.3-1.3-3.9-0.5-5.5,0.2
						c-0.9,0.4-1.7,0.8-2.6,0.8c-1,0-1.7-0.5-2-1.2c-0.5-1.3,0.2-3.3,1.7-4.9c0.9-0.9,1.8-2.3,3.1-4.2c1.6-2.4,3.8-5.8,7.2-9.9
						c5.6-6.8,1.9-13.1,1.9-13.2c-0.2-0.3-0.1-0.8,0.2-1c0.3-0.2,0.8-0.1,1,0.2c0,0.1,4.3,7.2-2,14.8c-3.4,4.1-5.5,7.4-7.1,9.8
						c-1.3,2-2.2,3.4-3.2,4.4c-1.3,1.3-1.7,2.7-1.4,3.4c0,0.1,0.2,0.4,0.7,0.4c0.6,0,1.2-0.3,2-0.6c1.6-0.7,3.9-1.7,6.7-0.1
						c1.4,0.8,2.4,1.6,3.2,2.3c1.5,1.3,2.3,2,4.5,1.5c1.8-0.4,3.2-1.5,4.5-2.5c1.3-1,2.6-2,4.1-2c1.2,0,2.6,0.6,3.9,1.3
						c1.1,0.5,2.5,1.2,3,1c0,0,0.1-0.1,0.2-0.3c0.6-1.7-1.6-4.2-3.5-6.4l-1.3-1.5c-3.4-4-6.2-7.5-6.2-9.2c0-0.4,0.3-0.7,0.7-0.7
						c0.4,0,0.7,0.3,0.7,0.7c0,1.4,4,6.1,5.9,8.3l1.3,1.5c2.3,2.6,4.7,5.4,3.8,7.8c-0.2,0.7-0.7,1-1,1.1c-1.1,0.5-2.5-0.2-4.1-1
						c-1.2-0.6-2.4-1.1-3.3-1.1c-1,0-2,0.8-3.2,1.7c-1.4,1.1-2.9,2.3-5,2.8C115.3,105.6,114.8,105.6,114.4,105.6z"/>
					<path class="st19" d="M82,111c-1.2,0-1.9-1.3-2.9-3.1c-0.7-1.3-1.5-2.8-2.8-4.2c-2.4-2.7-8.1-9.9-10.9-17.4
						c-2.6-7.2-4.4-12.5-3-14.6c0.4-0.6,0.9-0.9,1.7-0.9c3.5-0.2,7.7,6,8.2,6.8c0.2,0.3,0.1,0.8-0.2,1c-0.3,0.2-0.8,0.1-1-0.2
						c-1.6-2.4-4.9-6.2-6.9-6.1c-0.4,0-0.5,0.2-0.6,0.3c-1.1,1.7,1.4,8.7,3.1,13.4c2.7,7.3,8.3,14.3,10.6,17
						c1.3,1.5,2.2,3.2,2.9,4.5c0.6,1.1,1.3,2.4,1.7,2.4c0.4,0,0.7,0.3,0.7,0.7C82.7,110.7,82.4,111,82,111z"/>
					<path class="st19" d="M146.5,104.8c-0.3,0-0.5-0.1-0.6-0.4c-0.2-0.3,0-0.8,0.3-0.9c3.6-1.8,4.6-2.7,5.6-6.9
						c0.9-3.7,2.8-8.2,4.3-11.7l0.7-1.7c2-4.8,4.4-12.9,3.5-15.1c-0.1-0.3-0.3-0.3-0.3-0.4c-1.7-0.7-5,3.2-6.3,5.1
						c-0.2,0.3-0.6,0.4-1,0.2c-0.3-0.2-0.4-0.6-0.2-1c0.5-0.7,4.7-6.9,7.9-5.6c0.3,0.1,0.8,0.4,1.1,1.1c1.6,3.7-3.4,16-3.5,16.1
						l-0.7,1.7c-1.5,3.5-3.3,7.9-4.2,11.5c-1.1,4.6-2.4,5.8-6.4,7.8C146.7,104.8,146.6,104.8,146.5,104.8z"/>
					<g>
						<path class="st9" d="M102,71.9c-4.7-2.2-12.2-3.4-15.9,0.6s10.1,3.7,12.9,2.2C101.8,73.1,103.3,72.5,102,71.9z"/>
						<path class="st19" d="M91.7,76.7c-3.1,0-6.1-0.5-6.7-2.2c-0.2-0.5-0.4-1.6,0.7-2.9c4-4.5,12.1-2.9,16.5-0.8
							c0.2,0.1,0.9,0.4,0.9,1.4c0,1.1-0.8,1.6-2.9,2.7l-1,0.6C98.2,76.2,94.9,76.7,91.7,76.7z M93.3,70.8c-2.7,0-5.2,0.7-6.8,2.5
							c-0.3,0.3-0.3,0.5-0.3,0.5c0.7,1.2,10,1.3,12.6-0.1l1-0.6c0.4-0.2,0.9-0.5,1.2-0.7C98.6,71.4,95.9,70.8,93.3,70.8z"/>
					</g>
					<path class="st19" d="M93.4,69.7c0,0-3.4,5.9,1.1,5.9C99,75.6,97.5,69.3,93.4,69.7z"/>
					<path class="st19" d="M93,67.4c6.7-0.3,10.1-0.6,12.9,0.9s3.9-0.4,1.7-3.4c-2.1-3-9-4.5-15-4.1c-6,0.4-5.2-0.4-10.7,3.9
						c-5.6,4.3-3.9,8.4-1.7,6.4S88.5,67.6,93,67.4z"/>
					<path class="st19" d="M113,67c-0.2,0-0.3-0.1-0.5-0.2c-2.6-2.4-1.1-8.6-1.1-8.8c0.1-0.4,0.5-0.6,0.8-0.5
						c0.4,0.1,0.6,0.5,0.5,0.8c-0.4,1.6-1,5.9,0.7,7.5c0.3,0.3,0.3,0.7,0,1C113.3,66.9,113.2,67,113,67z"/>
					<path class="st19" d="M115.8,67.4c-0.3,0-0.5-0.1-0.6-0.4c-1-2.1-1.3-3.8-0.8-5c0.4-1,1.1-1.3,1.2-1.3c0.4-0.1,0.8,0,0.9,0.4
						c0.1,0.4,0,0.7-0.4,0.9c-0.5,0.2-1,1.5,0.4,4.4c0.2,0.3,0,0.8-0.3,0.9C116,67.4,115.9,67.4,115.8,67.4z"/>
					<path class="st19" d="M120.1,67.2c0,0-0.9-4.1,6.9-6.4s10.1-2.6,14.4,0.6c4.3,3.2,7.9,9.2,6.2,9.2s-5.4-4.1-9.7-4.1
						c-4.3,0-6.7,0-10.5,1.3C123.5,69.1,119.8,70.2,120.1,67.2z"/>
					<g>
						<path class="st9" d="M123.9,72.2c-1.1-0.4,8.1-3.6,13.3-2.5c4,0.9,1.1,5.3-4.7,6.2C126.7,76.8,125.9,73,123.9,72.2z"/>
						<path class="st19" d="M130.8,77c-3.1,0-4.6-1.6-5.7-2.7c-0.5-0.5-0.9-1-1.4-1.2c-0.4-0.1-0.7-0.8-0.6-1.3
							c0.3-2.1,10.3-4,14.2-3.2c2.2,0.5,2.5,1.9,2.4,2.7c0,2.5-3.1,4.8-7.2,5.5C131.9,77,131.4,77,130.8,77z M125.5,72.2
							c0.1,0.1,0.3,0.3,0.4,0.5c1.3,1.3,2.7,2.8,6.5,2.2c3-0.5,5.2-1.9,5.8-3.1c0.1-0.2,0.1-0.4,0.1-0.4c0-0.1-0.3-0.5-1.3-0.7
							C133.6,69.9,128,71.3,125.5,72.2z"/>
					</g>
					<path class="st19" d="M128,70.9c0,0-1.5,5.9,3.2,4.3C136,73.7,132.1,67.5,128,70.9z"/>
					<path class="st19" d="M89.6,113.5c0,0-0.9,0.3-1.3,0.4c-0.6,0.2-1,0.5-1.3,1c-0.3,0.5-0.4,1.2-0.2,1.7c0,0.1,0.1,0.2,0.1,0.3
						c-0.4,0.1-0.9,0.4-1.4,1c-2.1,2.4-3,14.2-0.9,17.2c0.2,0.3,0.4,0.7,0.7,1.1c-0.4,0.2-0.7,0.5-1,0.8c-1,0.9-1.2,2.4-0.7,3.6
						c0.5,1.1,1.6,2,2.8,2.1c0.8,0.1,1.5,0,2.1-0.2c-0.3,1.2-0.5,2.5,0.2,3.6c0.5,0.8,1.2,1.3,2,1.6c-0.9,1.8-1.1,3.7,0.3,5.2
						c0.9,0.9,1.9,1.3,3,1.3c0,0.1,0,0.1,0,0.2c0.1,1.4,1,2.9,2.2,3.6c1.4,0.7,2.5,0.7,3.6,0.2c0.3,0.5,0.7,1,1.2,1.3
						c2.2,1.5,4.7,0.4,6.3-1.4c0,2.5,1.4,4.8,4.2,5.2c2,0.3,3.9-0.7,4.8-2.3c1.8,0.4,3.6,0.1,5-1.4c0.6,1.6,2.5,2,4.2,2
						c1.9,0,3.7,0,5.1-1.4c0.2-0.2,0.4-0.5,0.6-0.7c0.2,0,0.4,0.1,0.6,0.1c1.9,0.1,3.9-1.3,4.3-3.2c0.9-0.2,1.7-0.7,2.4-1.3
						c0.7-0.6,1.1-1.4,1.3-2.2c1.1-0.4,2.1-1.1,2.7-2.1c0.9-1.5,0.8-3.5-0.5-4.8c-0.4-0.4-0.9-0.7-1.4-0.8c0.1-0.2,0.1-0.4,0.2-0.5
						c2.2-0.1,4.4-1.1,5.6-3.2c1.2-2.2,0.7-4.6-0.6-6.1c1.7-1.2,3.2-13.7,2.3-15.9c-0.8-1.9-2.7-2.5-4.6-2.6c-0.3,0-0.6,0.1-0.9,0.2
						c-0.2-0.4-0.5-0.8-0.8-1.1c0.7-0.7,0.9-1.8,0.4-2.7c-0.1-0.1-0.1-0.3-0.2-0.4c-0.5-1.1-2.1-1.4-3.1-0.8c-0.1,0-0.1,0.1-0.2,0.1
						c0.3-1.3-0.4-2.8-2.1-2.8c-0.2,0-0.4,0-0.5,0.1c-1.9-2.9-3.7-6-5.5-6.8c0,0-4.1-3.4-7.3-1.9c-3.2,1.5-5.2,5.2-8.8,4.5
						c-3.7-0.6-5.6-5.2-8.8-4.9c-3.2,0.2-4.5,1.9-4.5,1.9s-3,0.6-6.7,6.4c-0.7,1-1.2,1.8-1.7,2.3C90.4,109.4,89.6,113.5,89.6,113.5z
						"/>
					<g>
						<path class="st20" d="M102.9,117.7c0,0-3.9,3.4,5.6,5.6s18.7-1.9,19.3-2.6c0.6-0.6,4.9-4.7-2.1-5.8
							C118.5,113.8,104.8,115.3,102.9,117.7z"/>
						<path class="st19" d="M114.1,124.5c-1.9,0-3.8-0.2-5.8-0.6c-4.2-0.9-6.4-2.2-6.8-4c-0.4-1.4,0.7-2.5,0.9-2.8
							c2.3-2.6,16.2-4.1,23.4-3c2.6,0.4,4.1,1.2,4.5,2.5c0.4,1.3-0.2,2.7-1.9,4.4C127.7,121.7,121.5,124.5,114.1,124.5z
							 M103.3,118.2c0,0-0.7,0.7-0.5,1.4c0.2,0.7,1.2,1.9,5.8,3c8.8,2,17.8-1.7,18.7-2.4c1.7-1.7,1.7-2.6,1.6-3
							c-0.2-0.7-1.4-1.3-3.4-1.6C118,114.4,105,116.2,103.3,118.2L103.3,118.2z"/>
					</g>
					<g>
						<path class="st20" d="M100.1,115.1c4.6-0.5,8.8-2.8,12.5-3c3.7-0.2,10.5,0.6,14,1.1c3.4,0.4,7.5-2.1,6.7-0.2
							c-0.9,1.9-4.3,3.2-12,3.4c-7.7,0.2-10.3-0.2-14,0.2C103.5,117,95.8,115.5,100.1,115.1z"/>
						<path class="st19" d="M105.7,117.3c-2.8,0-6.8-0.6-7.5-1.4l-0.2-0.3l0.1-0.5c0.2-0.5,0.8-0.7,1.8-0.7c2.2-0.2,4.4-0.9,6.5-1.6
							c2.1-0.7,4.1-1.3,6-1.4c3.7-0.2,10.7,0.7,14.1,1.1c1.5,0.2,3.2-0.3,4.4-0.6c1.4-0.4,2.2-0.6,2.7,0c0.3,0.3,0.3,0.8,0.1,1.3
							c-1.1,2.4-5.1,3.6-12.7,3.9c-3.5,0.1-5.9,0.1-7.9,0c-2.3,0-4-0.1-6,0.2C106.8,117.3,106.3,117.3,105.7,117.3z M101.5,115.6
							c1.7,0.3,4,0.5,5.6,0.3c2.1-0.2,3.8-0.2,6.2-0.2c2,0,4.4,0.1,7.9,0c7.7-0.2,10.4-1.5,11.2-2.7c-0.3,0.1-0.7,0.2-1,0.2
							c-1.4,0.4-3.2,0.8-4.9,0.6c-3.3-0.4-10.2-1.3-13.8-1.1c-1.7,0.1-3.6,0.7-5.6,1.4C105.2,114.7,103.4,115.3,101.5,115.6z"/>
					</g>
					<path class="st19" d="M85.2,156.4c0,0-0.1,0-0.1,0c-0.4-0.1-0.6-0.4-0.6-0.8c0,0,0.9-4.6,1.5-9.4c0.6-4.8-0.2-9.4-0.2-9.5
						c-0.1-0.4,0.2-0.7,0.6-0.8c0.4-0.1,0.7,0.2,0.8,0.6c0,0.2,0.9,4.9,0.2,9.9c-0.6,4.9-1.5,9.4-1.5,9.5
						C85.9,156.1,85.6,156.4,85.2,156.4z"/>
					<path class="st19" d="M144.5,151c-0.2,0-0.4-0.1-0.5-0.2c-1.9-2.1-1.5-9.2-1.5-10c0-0.4,0.3-0.7,0.7-0.7c0.4,0,0.7,0.4,0.7,0.7
						c-0.2,2.8,0,7.7,1.1,9c0.3,0.3,0.2,0.7-0.1,1C144.9,151,144.7,151,144.5,151z"/>
					<g>
						<path class="st9" d="M79.2,156.1c-0.2-4.9,2.4-9.9,4.7-10.7c0,0-3.7,3-0.2,7.5c3.4,4.5,4.7,4.1,8.6,6.7
							c3.9,2.6,7.9,5.2,12,5.8c4.1,0.6,8.8,0.6,10.7,1.9"/>
						<path class="st19" d="M120.8,168.3c0.7,0.5,9.1,2.2,10.3,1.8c1.2-0.5,3-2.5,4.3-4.1s3.1-1.5,1.7,0.5c-1.4,2-1.4,2.5-4.6,4.7
							c-3.1,2.2-15.1-2.4-17.8-3.3c-1.4-0.5-3.8-1.1-6.5-1.3c-1.3-0.1-2.6-0.3-3.9-0.5c-4.2-0.7-8.2-3.2-12.3-5.9
							c-1.1-0.8-2-1.2-2.9-1.7c-2-1.1-3.4-1.8-5.9-5.1c-1.3-1.7-1.7-3.1-1.6-4.4c-1,1.9-2.3,3.3-2.2,6L78,155
							c-0.2-5.4,3.1-9.3,5.7-10.2c0.3-0.1,0.7,0,0.8,0.3c0.2,0.3,0.1,0.7-0.2,0.9c-0.1,0.1-3.1,2.7-0.1,6.6c2.3,3,3.6,3.7,5.5,4.8
							c0.8,0.5,1.8,1,3,1.8c4,2.6,7.9,5.1,11.8,5.7c1.3,0.2,2.6,0.3,3.8,0.5c3.1,0.3,4.7,0.8,6.4,1.2
							C117,166.9,120,167.9,120.8,168.3z"/>
					</g>
					<g>
						<path class="st9" d="M136,166.4c4.3-5.2,9.9-11.2,9.5-16.8c0,0,5.6,0.9,6,2.6"/>
						<path class="st19" d="M135.4,166l1.2-1.4c4-4.7,8.5-10,8.1-14.8c0-0.2,0.1-0.4,0.2-0.6c0.2-0.1,0.4-0.2,0.6-0.2
							c1.4,0.2,6.1,1.1,6.6,3.1c0,0,0.8,3.7,0.3,4.1s-2.5,1.7-1.9,0.1c0.6-1.6,1.1-2.1,0.2-3.9c-0.3-0.6-2.4-1.5-4.6-1.9
							c-0.1,5.1-4.5,10.3-8.4,14.9l-1.2,1.4C136.1,167.4,134.2,167.4,135.4,166z"/>
					</g>
					<path class="st19" d="M76.9,156.3c0,0-0.4,0-1.6,0.1c-3.2,0.3-11.8,1.7-22.7,7.9c-10.4,5.9-17.4,4.7-17.7,4.6
						c-0.4-0.1-0.6-0.4-0.6-0.8c0.1-0.4,0.4-0.6,0.8-0.6c0.1,0,6.8,1.2,16.7-4.4c10.7-6,19.2-7.6,23.3-8c1.6-0.2,2.4-0.1,2.8,0.4
						L76.9,156.3z"/>
					<path class="st19" d="M76.4,156.4c-0.2,0-0.5-0.1-0.6-0.3c-0.2-0.3-0.1-0.8,0.2-1l2.4-1.5c0.3-0.2,0.8-0.1,1,0.2
						c0.2,0.3,0.1,0.8-0.2,1l-2.4,1.5C76.7,156.3,76.6,156.4,76.4,156.4z"/>
					<path class="st19" d="M151.2,157.2c-0.4-0.5-0.8-0.9-0.7-1.4c0.1-0.3,0.3-0.6,0.7-0.7c1.7-0.7,6.1,0.1,6.6,0.2
						c0,0,7.6,0.7,15,1.9c1.8,0.3,3.7,0.6,5.7,0.9c6.3,1,12.9,2.1,15.2,2.9c0.4,0.1,0.6,0.5,0.4,0.9c-0.1,0.4-0.5,0.6-0.9,0.4
						c-2.2-0.8-8.7-1.9-15-2.9c-2-0.3-3.9-0.6-5.7-1c-7.4-1.3-14.9-1.9-15-1.9c-1.6-0.3-4.2-0.6-5.4-0.4l0,0.1L151.2,157.2z"/>
					<path class="st9" d="M97.2,71.1c-1.2,0-1.2,3.2,0,3.2C98.5,74.3,98.5,71.1,97.2,71.1z"/>
					<path class="st9" d="M132.7,71.1c-1.2,0-1.2,3.2,0,3.2C134,74.3,134,71.1,132.7,71.1z"/>
				</g>
				<path class="st26" d="M72.3,77.5c0,0-2.3-20.1,1.8-34.4s15.8-23.5,39.6-23.5s38.8,10.5,40.2,29.4c1.3,18.8,0.1,22.1,0.1,22.1"/>
				<path class="st19" d="M150.4,91.4l-2-1.4c0,0-7.7,23.5-10,25.9c-5.4,6,8,6.4,8,6.4s2.1-4.2,1.1-5.9c-1-1.7,1.3-1.5,0.6-3.9
					c-0.7-2.4,1.4-2.4,0.9-4.2s1.5-5.2,0.8-6.5S149.7,92.1,150.4,91.4z"/>
				<path class="st19" d="M77.3,89.2l2-1.4c0,0,7.7,23.5,10,25.9c5.4,6-4.7,10.7-4.7,10.7s-5.3-8.5-4.3-10.2c1-1.7-1.3-1.5-0.6-3.9
					c0.7-2.4-1.4-2.4-0.9-4.2c0.5-1.8-1.5-5.2-0.8-6.5S78,89.9,77.3,89.2z"/>
				<g>
					<g>
						<path class="st19" d="M81.8,35.8c1.7,0,1.7-2.6,0-2.6C80.2,33.2,80.2,35.8,81.8,35.8L81.8,35.8z"/>
					</g>
				</g>
				<g>
					<g>
						<path class="st19" d="M85,33.7c1.7,0,1.7-2.6,0-2.6C83.4,31.1,83.3,33.7,85,33.7L85,33.7z"/>
					</g>
				</g>
				<g>
					<g>
						<path class="st19" d="M77.9,41.4c1.7,0,1.7-2.6,0-2.6C76.2,38.9,76.2,41.4,77.9,41.4L77.9,41.4z"/>
					</g>
				</g>
				<g>
					<g>
						<path class="st19" d="M76.5,50.7c1.7,0,1.7-2.6,0-2.6C74.8,48.1,74.8,50.7,76.5,50.7L76.5,50.7z"/>
					</g>
				</g>
				<g>
					<g>
						<path class="st19" d="M73.3,62.8c1.7,0,1.7-2.6,0-2.6C71.6,60.2,71.6,62.8,73.3,62.8L73.3,62.8z"/>
					</g>
				</g>
				<g>
					<g>
						<path class="st19" d="M74.1,57.6c1.7,0,1.7-2.6,0-2.6C72.4,55,72.4,57.6,74.1,57.6L74.1,57.6z"/>
					</g>
				</g>
				<g>
					<g>
						<path class="st19" d="M73.8,59.9c1.7,0,1.7-2.6,0-2.6C72.1,57.4,72.1,59.9,73.8,59.9L73.8,59.9z"/>
					</g>
				</g>
				<g>
					<g>
						<path class="st19" d="M75,56.5c1.7,0,1.7-2.6,0-2.6C73.4,53.9,73.4,56.5,75,56.5L75,56.5z"/>
					</g>
				</g>
				<g>
					<g>
						<path class="st19" d="M75.4,54.4c1.7,0,1.7-2.6,0-2.6C73.7,51.8,73.7,54.4,75.4,54.4L75.4,54.4z"/>
					</g>
				</g>
				<g>
					<g>
						<path class="st19" d="M73.9,55c1.7,0,1.7-2.6,0-2.6C72.3,52.5,72.3,55,73.9,55L73.9,55z"/>
					</g>
				</g>
				<g>
					<g>
						<path class="st19" d="M74.6,52.2c1.7,0,1.7-2.6,0-2.6C72.9,49.6,72.9,52.2,74.6,52.2L74.6,52.2z"/>
					</g>
				</g>
				<g>
					<g>
						<path class="st19" d="M75.8,53c1.7,0,1.7-2.6,0-2.6C74.2,50.4,74.2,53,75.8,53L75.8,53z"/>
					</g>
				</g>
				<g>
					<g>
						<path class="st19" d="M78.2,49.2c1.7,0,1.7-2.6,0-2.6C76.6,46.6,76.5,49.2,78.2,49.2L78.2,49.2z"/>
					</g>
				</g>
				<g>
					<g>
						<path class="st19" d="M76.5,48.1c1.7,0,1.7-2.6,0-2.6C74.8,45.5,74.8,48.1,76.5,48.1L76.5,48.1z"/>
					</g>
				</g>
				<g>
					<g>
						<path class="st19" d="M77.6,44.6c1.7,0,1.7-2.6,0-2.6C75.9,42,75.9,44.6,77.6,44.6L77.6,44.6z"/>
					</g>
				</g>
				<g>
					<g>
						<path class="st19" d="M77.9,47c1.7,0,1.7-2.6,0-2.6C76.2,44.4,76.2,47,77.9,47L77.9,47z"/>
					</g>
				</g>
				<g>
					<g>
						<path class="st19" d="M79.8,45.1c1.7,0,1.7-2.6,0-2.6C78.1,42.5,78.1,45.1,79.8,45.1L79.8,45.1z"/>
					</g>
				</g>
				<g>
					<g>
						<path class="st19" d="M76.2,45.6c1.7,0,1.7-2.6,0-2.6C74.5,43,74.5,45.6,76.2,45.6L76.2,45.6z"/>
					</g>
				</g>
				<g>
					<g>
						<path class="st19" d="M75,49.7c1.7,0,1.7-2.6,0-2.6C73.4,47.1,73.4,49.7,75,49.7L75,49.7z"/>
					</g>
				</g>
				<g>
					<g>
						<path class="st19" d="M79.8,42.6c1.7,0,1.7-2.6,0-2.6C78.1,40,78.1,42.6,79.8,42.6L79.8,42.6z"/>
					</g>
				</g>
				<g>
					<g>
						<path class="st19" d="M79.9,38.6c1.7,0,1.7-2.6,0-2.6C78.3,36,78.3,38.6,79.9,38.6L79.9,38.6z"/>
					</g>
				</g>
				<g>
					<g>
						<path class="st19" d="M78.4,39.2c1.7,0,1.7-2.6,0-2.6C76.7,36.7,76.7,39.2,78.4,39.2L78.4,39.2z"/>
					</g>
				</g>
				<g>
					<g>
						<path class="st19" d="M80.9,39.9c1.7,0,1.7-2.6,0-2.6C79.2,37.3,79.2,39.9,80.9,39.9L80.9,39.9z"/>
					</g>
				</g>
				<g>
					<g>
						<path class="st19" d="M83.7,37.8c1.7,0,1.7-2.6,0-2.6C82.1,35.2,82.1,37.8,83.7,37.8L83.7,37.8z"/>
					</g>
				</g>
				<g>
					<g>
						<path class="st19" d="M88.3,30.4c1.7,0,1.7-2.6,0-2.6C86.7,27.8,86.7,30.4,88.3,30.4L88.3,30.4z"/>
					</g>
				</g>
				<g>
					<g>
						<path class="st19" d="M90.7,27.4c1.7,0,1.7-2.6,0-2.6C89,24.8,89,27.4,90.7,27.4L90.7,27.4z"/>
					</g>
				</g>
				<g>
					<g>
						<path class="st19" d="M105.6,24.8c1.7,0,1.7-2.6,0-2.6C103.9,22.3,103.9,24.8,105.6,24.8L105.6,24.8z"/>
					</g>
				</g>
				<g>
					<g>
						<path class="st19" d="M109.4,26.1c1.7,0,1.7-2.6,0-2.6C107.7,23.5,107.7,26.1,109.4,26.1L109.4,26.1z"/>
					</g>
				</g>
				<g>
					<g>
						<path class="st19" d="M113.2,27.2c1.7,0,1.7-2.6,0-2.6C111.5,24.6,111.5,27.2,113.2,27.2L113.2,27.2z"/>
					</g>
				</g>
				<g>
					<g>
						<path class="st19" d="M117,26.1c1.7,0,1.7-2.6,0-2.6C115.3,23.5,115.3,26.1,117,26.1L117,26.1z"/>
					</g>
				</g>
				<g>
					<g>
						<path class="st19" d="M120.9,24.5c1.7,0,1.7-2.6,0-2.6C119.3,21.9,119.2,24.5,120.9,24.5L120.9,24.5z"/>
					</g>
				</g>
				<g>
					<g>
						<path class="st19" d="M124.1,24.2c1.7,0,1.7-2.6,0-2.6C122.4,21.6,122.4,24.2,124.1,24.2L124.1,24.2z"/>
					</g>
				</g>
				<g>
					<g>
						<path class="st19" d="M134,26.9c1.7,0,1.7-2.6,0-2.6C132.4,24.3,132.4,26.9,134,26.9L134,26.9z"/>
					</g>
				</g>
				<g>
					<g>
						<path class="st19" d="M136.7,28.3c1.7,0,1.7-2.6,0-2.6C135.1,25.7,135.1,28.3,136.7,28.3L136.7,28.3z"/>
					</g>
				</g>
				<g>
					<g>
						<path class="st19" d="M140.7,30.8c1.7,0,1.7-2.6,0-2.6C139,28.3,139,30.8,140.7,30.8L140.7,30.8z"/>
					</g>
				</g>
				<g>
					<g>
						<path class="st19" d="M144.2,34.6c1.7,0,1.7-2.6,0-2.6C142.5,32.1,142.5,34.6,144.2,34.6L144.2,34.6z"/>
					</g>
				</g>
				<g>
					<g>
						<path class="st19" d="M147,37.8c1.7,0,1.7-2.6,0-2.6C145.3,35.2,145.3,37.8,147,37.8L147,37.8z"/>
					</g>
				</g>
				<g>
					<g>
						<path class="st19" d="M147.2,43.3c1.7,0,1.7-2.6,0-2.6C145.5,40.8,145.5,43.3,147.2,43.3L147.2,43.3z"/>
					</g>
				</g>
				<g>
					<g>
						<path class="st19" d="M147.2,46.8c1.7,0,1.7-2.6,0-2.6C145.5,44.2,145.5,46.8,147.2,46.8L147.2,46.8z"/>
					</g>
				</g>
				<g>
					<g>
						<path class="st19" d="M148.1,52.4c1.7,0,1.7-2.6,0-2.6C146.5,49.8,146.4,52.4,148.1,52.4L148.1,52.4z"/>
					</g>
				</g>
				<g>
					<g>
						<path class="st19" d="M149.2,56.6c1.7,0,1.7-2.6,0-2.6C147.6,54,147.6,56.6,149.2,56.6L149.2,56.6z"/>
					</g>
				</g>
				<g>
					<g>
						<path class="st19" d="M150.6,60.1c1.7,0,1.7-2.6,0-2.6C149,57.5,149,60.1,150.6,60.1L150.6,60.1z"/>
					</g>
				</g>
				<g>
					<g>
						<path class="st19" d="M151,64.9c1.7,0,1.7-2.6,0-2.6C149.3,62.3,149.3,64.9,151,64.9L151,64.9z"/>
					</g>
				</g>
				<g>
					<g>
						<path class="st19" d="M151.6,68.3c1.7,0,1.7-2.6,0-2.6C149.9,65.8,149.9,68.3,151.6,68.3L151.6,68.3z"/>
					</g>
				</g>
				<g>
					<g>
						<path class="st19" d="M152.4,66c1.7,0,1.7-2.6,0-2.6C150.7,63.4,150.7,66,152.4,66L152.4,66z"/>
					</g>
				</g>
				<g>
					<g>
						<path class="st19" d="M152.1,62.5c1.7,0,1.7-2.6,0-2.6C150.4,59.9,150.4,62.5,152.1,62.5L152.1,62.5z"/>
					</g>
				</g>
				<g>
					<g>
						<path class="st19" d="M152.4,59.5c1.7,0,1.7-2.6,0-2.6C150.7,56.9,150.7,59.5,152.4,59.5L152.4,59.5z"/>
					</g>
				</g>
				<g>
					<g>
						<path class="st19" d="M150.8,57.6c1.7,0,1.7-2.6,0-2.6C149.1,55,149.1,57.6,150.8,57.6L150.8,57.6z"/>
					</g>
				</g>
				<g>
					<g>
						<path class="st19" d="M152.5,54.7c1.7,0,1.7-2.6,0-2.6C150.9,52.1,150.9,54.7,152.5,54.7L152.5,54.7z"/>
					</g>
				</g>
				<g>
					<g>
						<path class="st19" d="M150,54.3c1.7,0,1.7-2.6,0-2.6C148.3,51.7,148.3,54.3,150,54.3L150,54.3z"/>
					</g>
				</g>
				<g>
					<g>
						<path class="st19" d="M151.7,51.7c1.7,0,1.7-2.6,0-2.6C150.1,49.1,150.1,51.7,151.7,51.7L151.7,51.7z"/>
					</g>
				</g>
				<g>
					<g>
						<path class="st19" d="M149.2,50.6c1.7,0,1.7-2.6,0-2.6C147.6,48,147.6,50.6,149.2,50.6L149.2,50.6z"/>
					</g>
				</g>
				<g>
					<g>
						<path class="st19" d="M149.5,48.1c1.7,0,1.7-2.6,0-2.6C147.9,45.5,147.9,48.1,149.5,48.1L149.5,48.1z"/>
					</g>
				</g>
				<g>
					<g>
						<path class="st19" d="M151.4,49.5c1.7,0,1.7-2.6,0-2.6C149.8,46.9,149.8,49.5,151.4,49.5L151.4,49.5z"/>
					</g>
				</g>
				<g>
					<g>
						<path class="st19" d="M151.6,46.2c1.7,0,1.7-2.6,0-2.6C149.9,43.6,149.9,46.2,151.6,46.2L151.6,46.2z"/>
					</g>
				</g>
				<g>
					<g>
						<path class="st19" d="M149.1,44.8c1.7,0,1.7-2.6,0-2.6C147.4,42.2,147.4,44.8,149.1,44.8L149.1,44.8z"/>
					</g>
				</g>
				<g>
					<g>
						<path class="st19" d="M147.2,40c1.7,0,1.7-2.6,0-2.6C145.5,37.4,145.5,40,147.2,40L147.2,40z"/>
					</g>
				</g>
				<g>
					<g>
						<path class="st19" d="M149.2,41.9c1.7,0,1.7-2.6,0-2.6C147.6,39.3,147.6,41.9,149.2,41.9L149.2,41.9z"/>
					</g>
				</g>
				<g>
					<g>
						<path class="st19" d="M150.5,43.5c1.7,0,1.7-2.6,0-2.6C148.8,40.9,148.8,43.5,150.5,43.5L150.5,43.5z"/>
					</g>
				</g>
				<g>
					<g>
						<path class="st19" d="M145.9,35.4c1.7,0,1.7-2.6,0-2.6C144.2,32.9,144.2,35.4,145.9,35.4L145.9,35.4z"/>
					</g>
				</g>
				<g>
					<g>
						<path class="st19" d="M143.1,31.3c1.7,0,1.7-2.6,0-2.6C141.4,28.7,141.4,31.3,143.1,31.3L143.1,31.3z"/>
					</g>
				</g>
				<g>
					<g>
						<path class="st19" d="M139.3,28.5c1.7,0,1.7-2.6,0-2.6C137.6,25.9,137.6,28.5,139.3,28.5L139.3,28.5z"/>
					</g>
				</g>
				<g>
					<g>
						<path class="st19" d="M148.7,39.2c1.7,0,1.7-2.6,0-2.6C147.1,36.7,147.1,39.2,148.7,39.2L148.7,39.2z"/>
					</g>
				</g>
				<g>
					<g>
						<path class="st19" d="M118.1,23.4c1.7,0,1.7-2.6,0-2.6C116.4,20.8,116.4,23.4,118.1,23.4L118.1,23.4z"/>
					</g>
				</g>
				<g>
					<g>
						<path class="st19" d="M115.5,24.7c1.7,0,1.7-2.6,0-2.6C113.9,22.1,113.9,24.7,115.5,24.7L115.5,24.7z"/>
					</g>
				</g>
				<g>
					<g>
						<path class="st19" d="M112.8,25.2c1.7,0,1.7-2.6,0-2.6C111.2,22.6,111.2,25.2,112.8,25.2L112.8,25.2z"/>
					</g>
				</g>
				<g>
					<g>
						<path class="st19" d="M110,24.5c1.7,0,1.7-2.6,0-2.6C108.3,21.9,108.3,24.5,110,24.5L110,24.5z"/>
					</g>
				</g>
				<g>
					<g>
						<path class="st19" d="M107.3,23.4c1.7,0,1.7-2.6,0-2.6C105.6,20.8,105.6,23.4,107.3,23.4L107.3,23.4z"/>
					</g>
				</g>
				<g>
					<g>
						<path class="st19" d="M110.9,23.1c1.7,0,1.7-2.6,0-2.6C109.3,20.5,109.3,23.1,110.9,23.1L110.9,23.1z"/>
					</g>
				</g>
				<g>
					<g>
						<path class="st19" d="M113.8,23.1c1.7,0,1.7-2.6,0-2.6C112.1,20.5,112.1,23.1,113.8,23.1L113.8,23.1z"/>
					</g>
				</g>
				<g>
					<g>
						<path class="st19" d="M115.7,22.8c1.7,0,1.7-2.6,0-2.6C114,20.2,114,22.8,115.7,22.8L115.7,22.8z"/>
					</g>
				</g>
				<g>
					<g>
						<path class="st19" d="M103.4,24c1.7,0,1.7-2.6,0-2.6C101.7,21.5,101.7,24,103.4,24L103.4,24z"/>
					</g>
				</g>
				<g>
					<g>
						<path class="st19" d="M88.2,28.3c1.7,0,1.7-2.6,0-2.6C86.5,25.7,86.5,28.3,88.2,28.3L88.2,28.3z"/>
					</g>
				</g>
				<g>
					<g>
						<path class="st19" d="M86,31.2c1.7,0,1.7-2.6,0-2.6C84.3,28.6,84.3,31.2,86,31.2L86,31.2z"/>
					</g>
				</g>
				<g>
					<g>
						<path class="st19" d="M83,32.7c1.7,0,1.7-2.6,0-2.6C81.3,30.2,81.3,32.7,83,32.7L83,32.7z"/>
					</g>
				</g>
				<g>
					<g>
						<path class="st19" d="M83.6,35.1c1.7,0,1.7-2.6,0-2.6C81.9,32.5,81.9,35.1,83.6,35.1L83.6,35.1z"/>
					</g>
				</g>
			</g>
			<use xlink:href="#SVGID_29_"  style="overflow:visible;fill:none;stroke:#F1748A;stroke-width:4;stroke-miterlimit:10;"/>
		</g>
	</g>
</g>
<g id="Layer_2" class="st39">
</g>
</svg>
