<?xml version="1.0" encoding="utf-8"?>
<!-- Generator: Adobe Illustrator 24.3.0, SVG Export Plug-In . SVG Version: 6.00 Build 0)  -->
<svg version="1.1" xmlns="http://www.w3.org/2000/svg" xmlns:xlink="http://www.w3.org/1999/xlink" x="0px" y="0px"
	 viewBox="0 0 123.3 177.7" style="enable-background:new 0 0 123.3 177.7;" xml:space="preserve">
<style type="text/css">
	.st0{clip-path:url(#SVGID_2_);}
	.st1{clip-path:url(#SVGID_4_);fill:#1A1B2F;}
	.st2{clip-path:url(#SVGID_6_);}
	.st3{clip-path:url(#SVGID_8_);fill:#F1748A;}
	.st4{fill:#F1748A;}
	.st5{fill:#FDD56F;}
	.st6{fill:#EC4796;}
	.st7{clip-path:url(#SVGID_10_);}
	.st8{clip-path:url(#SVGID_12_);fill:#F1748A;}
	.st9{fill:#FFFFFF;}
	.st10{fill:none;stroke:#EC4796;stroke-width:2;stroke-miterlimit:10;}
	.st11{fill:none;stroke:#F1748A;stroke-width:2;stroke-miterlimit:10;}
	.st12{fill:none;stroke:#FFFFFF;stroke-width:1.9929;stroke-miterlimit:10;}
	.st13{fill:none;stroke:#1A1B2F;stroke-width:2.2288;stroke-miterlimit:10;}
	.st14{fill:#1A1B2F;}
	.st15{clip-path:url(#SVGID_14_);}
	.st16{fill:#FFD1C2;}
	.st17{fill:#D69241;}
	.st18{fill:#6CBFAD;}
	.st19{fill:#1C2021;}
	.st20{fill:#F78271;}
	.st21{clip-path:url(#SVGID_16_);}
	.st22{fill:#853C2B;}
	.st23{clip-path:url(#SVGID_18_);}
	.st24{fill:#FECA9A;}
	.st25{clip-path:url(#SVGID_20_);}
	.st26{fill:none;stroke:#1C2021;stroke-width:3.8694;stroke-miterlimit:10;}
	.st27{clip-path:url(#SVGID_22_);}
	.st28{clip-path:url(#SVGID_24_);}
	.st29{clip-path:url(#SVGID_26_);}
	.st30{clip-path:url(#SVGID_28_);}
	.st31{clip-path:url(#SVGID_30_);}
	.st32{clip-path:url(#SVGID_32_);}
	.st33{clip-path:url(#SVGID_34_);}
	.st34{clip-path:url(#SVGID_36_);fill:#FDD56F;}
	.st35{fill:none;stroke:#1C2021;stroke-width:5.7091;stroke-miterlimit:10;}
	.st36{fill:#ED4462;}
	.st37{fill:#00BDFF;}
	.st38{fill:#FFA630;}
	.st39{display:none;}
	.st40{display:inline;fill:#606060;}
</style>
<g id="Layer_1">
	<g>
		<g>
			<path class="st24" d="M39.5,81.6c0,0,2,14.5-1.3,23.9c-3.3,9.4,16.3,14.3,16.3,14.3l13.2,24.6l7.6-22.6L85.9,105
				c0,0-2.8-1.5-3.8-10C81.1,86.4,39.5,81.6,39.5,81.6z"/>
			<path class="st9" d="M60.4,115.4c-4.5-0.5-16.3-4.9-23-9.9L0.4,117.2l11,59.9c11.7,3.5,106-8.2,107.1-10.9
				c1.2-2.6,4.8-17.4,4.8-24.7c0-4.2-1.3-28.1-1.3-28.1c-6.4-6.1-29.2-6.9-34.5-6.8l-10,9.9C73.1,119.2,65.2,115.9,60.4,115.4z"/>
			<path class="st24" d="M42.2,6.6c0,0-14.3,3.8-14.3,20.1s1,19.6,1,19.6s-6.7-8.1-6.6-1.5s4.1,14.3,8.6,19.1s6.1,8.2,6.4,11.8
				c0.3,3.6,4.1,10.2,4.1,10.2l26.7,0.8c0,0,16.9-3.3,15.8-3.9c-1.2-0.7-0.5-10.2,0-13.2c0.5-3,3.3-0.2,5.6-5.6
				c2.3-5.4,9.5-24,6.6-24.7c-3-0.7-6.1,2.5-6.1,2.5s3.1-13.9,0.9-17.4C88.7,20.9,84.5,3.8,71.2,3S42.2,6.6,42.2,6.6z"/>
			<path class="st19" d="M85.7,65.5L85.7,65.5c-0.4-0.1-0.6-0.3-0.5-0.6c0-0.1,0.4-2.4,3.5-5.3c2.8-2.6,3.6-7,1.9-9.5
				c-3-4.2-1.4-8.3-1.4-8.5c0.1-0.3,0.4-0.4,0.7-0.3c0.3,0.1,0.4,0.4,0.3,0.7c-0.1,0.2-1.4,3.7,1.2,7.5c2.1,2.9,1.1,7.9-2,10.9
				c-2.8,2.6-3.1,4.7-3.1,4.7C86.2,65.3,86,65.5,85.7,65.5z"/>
			<path class="st19" d="M83.8,78.3c0,0-0.1,0-0.1,0c-0.3-0.1-0.5-0.3-0.4-0.6c0-0.2,0.1-0.9,0.1-1.7c0.1-2.6,0.2-6.9,1.1-8.7
				c1.1-2.2,2.9-12.1,2.9-12.2c0.1-0.3,0.3-0.5,0.6-0.4c0.3,0.1,0.5,0.3,0.4,0.6c-0.1,0.4-1.8,10.1-3,12.5c-0.8,1.6-0.9,5.9-1,8.2
				c0,1.1-0.1,1.6-0.1,1.8C84.2,78.1,84,78.3,83.8,78.3z"/>
			<path class="st19" d="M32.4,59.2c-0.1,0-0.2,0-0.3-0.1c-5.6-4.7-4.5-7-2.8-10.2c0.2-0.4,0.4-0.7,0.6-1.1c1.7-3.6,1.8-8.1,1.8-8.2
				c0-0.3,0.2-0.5,0.5-0.5s0.5,0.2,0.5,0.5c0,0.2,0,4.8-1.9,8.6c-0.2,0.4-0.4,0.8-0.6,1.1c-1.6,3.1-2.4,4.8,2.6,8.9
				c0.2,0.2,0.3,0.5,0.1,0.8C32.7,59.1,32.6,59.2,32.4,59.2z"/>
			<path class="st19" d="M37.8,80.9C37.8,80.9,37.8,80.9,37.8,80.9c-0.4-0.1-0.6-0.3-0.5-0.6c0.2-1.2-0.4-4-1.2-7.9
				c-0.4-1.9-0.9-4.1-1.4-6.6C33.2,58.3,33,56,33,55.9c0-0.3,0.2-0.6,0.5-0.6c0.3,0,0.6,0.2,0.6,0.5c0,0,0.2,2.4,1.6,9.8
				c0.5,2.5,1,4.6,1.4,6.6c0.9,4.1,1.5,6.8,1.3,8.3C38.3,80.8,38.1,80.9,37.8,80.9z"/>
			<path class="st19" d="M61.3,68.7c-1.4,0-2.3-0.7-3.2-1.5c-0.6-0.5-1.3-1.1-2.3-1.6c-1.7-1-3-0.4-4.2,0.1c-0.7,0.3-1.3,0.6-2,0.6
				c-0.7,0-1.3-0.3-1.6-1c-0.4-1,0.1-2.5,1.3-3.7c0.7-0.7,1.4-1.7,2.3-3.2c1.2-1.9,2.9-4.4,5.5-7.6c4.3-5.2,1.5-10,1.4-10.1
				c-0.2-0.3-0.1-0.6,0.2-0.7c0.3-0.2,0.6-0.1,0.7,0.2c0,0.1,3.3,5.5-1.5,11.3c-2.6,3.1-4.2,5.7-5.5,7.5c-1,1.5-1.7,2.6-2.5,3.4
				c-1,1-1.3,2.1-1.1,2.6c0,0.1,0.1,0.3,0.6,0.3c0.4,0,0.9-0.2,1.5-0.5c1.2-0.6,3-1.3,5.2-0.1c1.1,0.6,1.8,1.2,2.4,1.8
				c1.1,1,1.8,1.5,3.4,1.1c1.4-0.3,2.4-1.1,3.4-1.9c1-0.8,2-1.6,3.1-1.6c0.9,0,2,0.5,3,1c0.8,0.4,1.9,0.9,2.3,0.7c0,0,0.1,0,0.2-0.2
				c0.5-1.3-1.2-3.2-2.7-4.9l-1-1.1c-2.6-3.1-4.8-5.7-4.8-7.1c0-0.3,0.2-0.5,0.5-0.5c0.3,0,0.5,0.2,0.5,0.5c0,1.1,3.1,4.7,4.5,6.4
				l1,1.1c1.8,2,3.6,4.1,2.9,6c-0.2,0.5-0.5,0.7-0.8,0.8c-0.8,0.3-1.9-0.2-3.2-0.8c-0.9-0.4-1.8-0.9-2.5-0.9c-0.8,0-1.6,0.6-2.4,1.3
				c-1,0.8-2.2,1.8-3.9,2.1C62,68.7,61.7,68.7,61.3,68.7z"/>
			<path class="st19" d="M36.5,72.9c-0.9,0-1.5-1-2.2-2.4c-0.5-1-1.2-2.2-2.1-3.2c-1.8-2.1-6.2-7.5-8.3-13.3
				c-2-5.5-3.3-9.6-2.3-11.2c0.3-0.4,0.7-0.7,1.3-0.7c2.7-0.2,5.9,4.6,6.2,5.2c0.2,0.2,0.1,0.6-0.2,0.7c-0.2,0.2-0.6,0.1-0.7-0.2
				c-1.2-1.9-3.8-4.8-5.3-4.7c-0.3,0-0.4,0.1-0.5,0.2c-0.8,1.3,1.1,6.7,2.4,10.2c2,5.6,6.4,11,8.1,13c1,1.2,1.7,2.4,2.2,3.4
				c0.4,0.8,1,1.8,1.3,1.8c0.3,0,0.5,0.2,0.5,0.5C37.1,72.6,36.8,72.9,36.5,72.9z"/>
			<path class="st19" d="M85.9,68.1c-0.2,0-0.4-0.1-0.5-0.3c-0.1-0.3,0-0.6,0.2-0.7c2.8-1.4,3.5-2.1,4.3-5.2c0.7-2.9,2.1-6.3,3.3-9
				l0.5-1.3c1.5-3.7,3.4-9.9,2.7-11.5c-0.1-0.2-0.2-0.3-0.2-0.3c-1.3-0.5-3.8,2.4-4.8,3.9c-0.2,0.2-0.5,0.3-0.7,0.1
				c-0.2-0.2-0.3-0.5-0.1-0.7c0.4-0.5,3.6-5.3,6.1-4.3c0.3,0.1,0.6,0.3,0.8,0.8c1.2,2.8-2.6,12.3-2.7,12.4l-0.5,1.3
				c-1.1,2.7-2.5,6.1-3.2,8.8c-0.9,3.5-1.8,4.4-4.9,5.9C86.1,68.1,86,68.1,85.9,68.1z"/>
			<g>
				<path class="st9" d="M51.8,42.9c-3.6-1.7-9.4-2.6-12.2,0.5c-2.8,3.1,7.7,2.9,9.9,1.7C51.7,43.8,52.8,43.3,51.8,42.9z"/>
				<path class="st19" d="M43.9,46.6c-2.4,0-4.7-0.4-5.2-1.7c-0.2-0.4-0.3-1.2,0.6-2.2c3.1-3.4,9.3-2.2,12.7-0.6
					c0.2,0.1,0.7,0.3,0.7,1.1c0,0.9-0.6,1.2-2.2,2.1l-0.8,0.4C48.9,46.1,46.4,46.6,43.9,46.6z M45.2,42.1c-2.1,0-4,0.6-5.2,1.9
					c-0.2,0.3-0.3,0.4-0.3,0.4c0.6,0.9,7.7,1,9.6-0.1l0.8-0.4c0.3-0.2,0.7-0.4,0.9-0.5C49.2,42.5,47.1,42.1,45.2,42.1z"/>
			</g>
			<path class="st19" d="M45.3,41.2c0,0-2.6,4.5,0.8,4.5S48.4,40.9,45.3,41.2z"/>
			<path class="st19" d="M44.9,39.4c5.1-0.2,7.7-0.5,9.9,0.7s3-0.3,1.3-2.6c-1.6-2.3-6.9-3.5-11.5-3.1s-3.9-0.3-8.2,3
				c-4.3,3.3-3,6.4-1.3,4.9S41.5,39.6,44.9,39.4z"/>
			<path class="st19" d="M60.2,39.1c-0.1,0-0.3,0-0.4-0.1c-2-1.8-0.9-6.6-0.8-6.8c0.1-0.3,0.4-0.5,0.6-0.4c0.3,0.1,0.5,0.4,0.4,0.6
				c-0.3,1.2-0.8,4.6,0.5,5.7c0.2,0.2,0.2,0.5,0,0.8C60.5,39.1,60.4,39.1,60.2,39.1z"/>
			<path class="st19" d="M62.4,39.5c-0.2,0-0.4-0.1-0.5-0.3c-0.8-1.6-1-2.9-0.6-3.8c0.3-0.7,0.8-1,0.9-1c0.3-0.1,0.6,0,0.7,0.3
				c0.1,0.3,0,0.6-0.3,0.7c-0.4,0.2-0.8,1.1,0.3,3.4c0.1,0.3,0,0.6-0.3,0.7C62.5,39.5,62.4,39.5,62.4,39.5z"/>
			<path class="st19" d="M65.7,39.3c0,0-0.7-3.1,5.3-4.9c5.9-1.8,7.7-2,11,0.5c3.3,2.5,6.1,7.1,4.8,7.1s-4.1-3.1-7.4-3.1
				c-3.3,0-5.1,0-8.1,1C68.3,40.7,65.5,41.6,65.7,39.3z"/>
			<g>
				<path class="st9" d="M68.6,43.1c-0.8-0.3,6.2-2.8,10.2-1.9c3.1,0.7,0.8,4-3.6,4.8C70.8,46.7,70.1,43.7,68.6,43.1z"/>
				<path class="st19" d="M73.9,46.8c-2.4,0-3.5-1.2-4.4-2.1c-0.4-0.4-0.7-0.7-1.1-0.9c-0.3-0.1-0.5-0.6-0.4-1
					c0.2-1.6,7.9-3.1,10.9-2.4c1.7,0.4,1.9,1.5,1.9,2.1c0,1.9-2.4,3.7-5.5,4.2C74.8,46.8,74.3,46.8,73.9,46.8z M69.8,43.1
					c0.1,0.1,0.2,0.2,0.3,0.4c1,1,2.1,2.2,5,1.7c2.3-0.4,4-1.5,4.5-2.4c0.1-0.2,0.1-0.3,0.1-0.3c0-0.1-0.2-0.4-1-0.5
					C76,41.3,71.7,42.4,69.8,43.1z"/>
			</g>
			<path class="st19" d="M71.7,42.1c0,0-1.2,4.5,2.5,3.3C77.8,44.3,74.9,39.5,71.7,42.1z"/>
			<path class="st19" d="M42.4,74.8c0,0-0.7,0.2-1,0.3c-0.4,0.1-0.8,0.4-1,0.8c-0.2,0.4-0.3,0.9-0.2,1.3c0,0.1,0.1,0.2,0.1,0.2
				c-0.3,0.1-0.7,0.3-1.1,0.8c-1.6,1.8-2.3,10.8-0.7,13.1c0.2,0.2,0.3,0.5,0.5,0.9c-0.3,0.2-0.5,0.4-0.8,0.6c-0.7,0.7-1,1.8-0.6,2.7
				c0.4,0.9,1.2,1.5,2.2,1.6c0.6,0.1,1.1,0,1.6-0.2c-0.3,0.9-0.4,1.9,0.2,2.7c0.4,0.6,0.9,1,1.6,1.2c-0.7,1.4-0.9,2.8,0.3,4
				c0.7,0.7,1.5,1,2.3,1c0,0.1,0,0.1,0,0.2c0.1,1.1,0.7,2.2,1.7,2.8c1,0.6,1.9,0.5,2.8,0.1c0.2,0.4,0.5,0.8,0.9,1
				c1.7,1.2,3.6,0.3,4.8-1.1c0,1.9,1.1,3.6,3.2,4c1.5,0.2,3-0.6,3.7-1.8c1.4,0.3,2.8,0.1,3.8-1.1c0.5,1.2,1.9,1.5,3.2,1.6
				c1.4,0,2.8,0,3.9-1.1c0.2-0.2,0.3-0.4,0.4-0.5c0.2,0,0.3,0.1,0.5,0.1c1.5,0.1,3-1,3.3-2.4c0.7-0.1,1.3-0.5,1.9-1
				c0.5-0.4,0.9-1,1-1.7c0.8-0.3,1.6-0.8,2-1.6c0.7-1.2,0.6-2.7-0.4-3.7c-0.3-0.3-0.7-0.5-1-0.6c0.1-0.1,0.1-0.3,0.1-0.4
				c1.7,0,3.4-0.9,4.3-2.5c0.9-1.6,0.6-3.5-0.5-4.7c1.3-0.9,2.5-10.5,1.8-12.2c-0.6-1.5-2.1-1.9-3.5-2c-0.2,0-0.5,0-0.7,0.1
				c-0.2-0.3-0.4-0.6-0.6-0.9c0.5-0.6,0.7-1.4,0.3-2.1c-0.1-0.1-0.1-0.2-0.2-0.3c-0.4-0.8-1.6-1.1-2.4-0.6c0,0-0.1,0.1-0.1,0.1
				c0.2-1-0.3-2.2-1.6-2.2c-0.1,0-0.3,0-0.4,0c-1.4-2.2-2.9-4.6-4.2-5.2c0,0-3.1-2.6-5.6-1.5c-2.5,1.2-3.9,3.9-6.7,3.5
				c-2.8-0.5-4.3-3.9-6.7-3.8c-2.5,0.2-3.5,1.5-3.5,1.5s-2.3,0.5-5.1,4.9c-0.5,0.8-0.9,1.4-1.3,1.8C43,71.6,42.4,74.8,42.4,74.8z"/>
			<g>
				<path class="st20" d="M52.5,77.9c0,0-3,2.6,4.3,4.3s14.3-1.5,14.8-2c0.5-0.5,3.8-3.6-1.6-4.4C64.5,75,54,76.1,52.5,77.9z"/>
				<path class="st19" d="M61.1,83.2c-1.4,0-2.9-0.1-4.4-0.5c-3.2-0.7-4.9-1.7-5.2-3.1c-0.3-1.1,0.5-1.9,0.7-2.1
					c1.7-2,12.4-3.1,17.9-2.3c2,0.3,3.1,0.9,3.4,1.9c0.3,1-0.2,2.1-1.5,3.4C71.5,81,66.8,83.2,61.1,83.2z M52.9,78.3
					c0,0-0.5,0.5-0.4,1.1c0.1,0.5,0.9,1.5,4.4,2.3c6.8,1.5,13.6-1.3,14.3-1.8c1.3-1.3,1.3-2,1.2-2.3c-0.2-0.6-1.1-1-2.6-1.2
					C64.1,75.4,54.1,76.8,52.9,78.3L52.9,78.3z"/>
			</g>
			<g>
				<path class="st20" d="M50.4,76c3.5-0.4,6.7-2.1,9.5-2.3c2.8-0.2,8.1,0.5,10.7,0.8c2.6,0.3,5.8-1.6,5.1-0.2
					c-0.7,1.5-3.3,2.5-9.2,2.6c-5.9,0.2-7.9-0.2-10.7,0.2C53,77.4,47.1,76.3,50.4,76z"/>
				<path class="st19" d="M54.7,77.7c-2.1,0-5.2-0.4-5.7-1.1l-0.2-0.2l0.1-0.4c0.2-0.4,0.6-0.5,1.4-0.6c1.7-0.2,3.4-0.7,5-1.2
					c1.6-0.5,3.1-1,4.6-1.1c2.9-0.2,8.2,0.5,10.8,0.8c1.1,0.1,2.4-0.2,3.4-0.4c1.1-0.3,1.7-0.5,2.1,0c0.2,0.3,0.2,0.6,0,1
					c-0.8,1.9-3.9,2.8-9.7,3c-2.7,0.1-4.6,0-6.1,0c-1.8,0-3.1,0-4.6,0.1C55.5,77.7,55.1,77.7,54.7,77.7z M51.4,76.3
					c1.3,0.2,3,0.4,4.3,0.2c1.6-0.2,2.9-0.2,4.7-0.1c1.5,0,3.4,0,6,0c5.9-0.2,8-1.2,8.6-2.1c-0.2,0-0.5,0.1-0.7,0.2
					c-1,0.3-2.5,0.6-3.8,0.5c-2.5-0.3-7.9-1-10.6-0.8c-1.3,0.1-2.8,0.5-4.3,1C54.3,75.7,52.9,76.1,51.4,76.3z"/>
			</g>
			<path class="st19" d="M39,107.6c0,0-0.1,0-0.1,0c-0.3-0.1-0.5-0.3-0.4-0.6c0,0,0.7-3.5,1.1-7.2c0.5-3.7-0.2-7.2-0.2-7.2
				c-0.1-0.3,0.1-0.6,0.4-0.6c0.3,0,0.6,0.1,0.6,0.4c0,0.2,0.7,3.7,0.2,7.6c-0.5,3.8-1.2,7.2-1.2,7.3
				C39.5,107.4,39.3,107.6,39,107.6z"/>
			<path class="st19" d="M84.4,103.5c-0.1,0-0.3-0.1-0.4-0.2c-1.4-1.6-1.2-7-1.1-7.6c0-0.3,0.2-0.6,0.6-0.5c0.3,0,0.5,0.3,0.5,0.6
				c-0.1,2.1,0,5.9,0.9,6.9c0.2,0.2,0.2,0.6,0,0.8C84.7,103.4,84.5,103.5,84.4,103.5z"/>
			<g>
				<path class="st9" d="M34.4,107.4c-0.2-3.8,1.8-7.6,3.6-8.2c0,0-2.8,2.3-0.2,5.8c2.6,3.5,3.6,3.1,6.6,5.1c3,2,6.1,3.9,9.2,4.4
					c3.1,0.5,6.7,0.5,8.2,1.5"/>
				<path class="st19" d="M66.2,116.8c0.6,0.4,7,1.7,7.9,1.3c0.9-0.4,2.3-1.9,3.3-3.1c1-1.2,2.3-1.1,1.3,0.4s-1.1,1.9-3.5,3.6
					c-2.4,1.7-11.6-1.8-13.6-2.6c-1-0.4-2.9-0.8-5-1c-1-0.1-2-0.2-3-0.4c-3.2-0.5-6.3-2.4-9.4-4.5c-0.9-0.6-1.6-1-2.2-1.3
					c-1.5-0.8-2.6-1.4-4.5-3.9c-1-1.3-1.3-2.4-1.2-3.4c-0.8,1.4-1.8,2.5-1.7,4.6l-1.1,0c-0.2-4.1,2.4-7.1,4.4-7.8
					c0.2-0.1,0.5,0,0.6,0.2c0.1,0.2,0.1,0.5-0.1,0.7c-0.1,0.1-2.4,2-0.1,5c1.8,2.3,2.7,2.9,4.2,3.6c0.6,0.3,1.4,0.7,2.3,1.3
					c3,2,6,3.9,9,4.4c1,0.2,2,0.3,2.9,0.4c2.3,0.2,3.6,0.6,4.9,0.9C63.3,115.6,65.6,116.4,66.2,116.8z"/>
			</g>
			<g>
				<path class="st9" d="M77.8,115.3c3.3-3.9,7.6-8.6,7.2-12.8c0,0,4.3,0.7,4.6,2"/>
				<path class="st19" d="M77.4,114.9l0.9-1.1c3-3.6,6.5-7.7,6.2-11.4c0-0.2,0.1-0.3,0.2-0.4c0.1-0.1,0.3-0.2,0.4-0.1
					c1.1,0.2,4.7,0.8,5,2.4c0,0,0.6,2.8,0.3,3.1s-1.9,1.3-1.5,0.1c0.4-1.2,0.9-1.6,0.2-3c-0.2-0.5-1.9-1.1-3.5-1.5
					c-0.1,3.9-3.5,7.9-6.5,11.4l-0.9,1.1C78,116.1,76.5,116,77.4,114.9z"/>
			</g>
			<path class="st19" d="M32.6,107.5c0,0-0.3,0-1.2,0.1c-2.4,0.2-9,1.3-17.4,6c-8,4.5-13.3,3.6-13.5,3.5c-0.3-0.1-0.5-0.3-0.4-0.6
				c0.1-0.3,0.3-0.5,0.6-0.4c0.1,0,5.2,0.9,12.8-3.4c8.2-4.6,14.7-5.8,17.8-6.2c1.2-0.1,1.8-0.1,2.2,0.3L32.6,107.5z"/>
			<path class="st19" d="M32.3,107.6c-0.2,0-0.3-0.1-0.5-0.2c-0.2-0.2-0.1-0.6,0.2-0.7l1.8-1.2c0.2-0.2,0.6-0.1,0.7,0.2
				c0.2,0.2,0.1,0.6-0.2,0.7l-1.8,1.2C32.4,107.6,32.4,107.6,32.3,107.6z"/>
			<path class="st19" d="M89.5,108.2c-0.3-0.4-0.6-0.7-0.5-1.1c0.1-0.2,0.2-0.4,0.5-0.6c1.3-0.5,4.7,0.1,5.1,0.1
				c0,0,5.8,0.5,11.5,1.5c1.4,0.2,2.9,0.5,4.4,0.7c4.9,0.8,9.9,1.6,11.7,2.3c0.3,0.1,0.4,0.4,0.3,0.7c-0.1,0.3-0.4,0.4-0.7,0.3
				c-1.7-0.6-6.7-1.4-11.5-2.2c-1.5-0.2-3-0.5-4.4-0.7c-5.7-1-11.4-1.5-11.5-1.5c-1.2-0.2-3.2-0.5-4.2-0.3l0,0L89.5,108.2z"/>
			<path class="st9" d="M48.2,42.2c-1,0-1,2.5,0,2.5C49.1,44.7,49.1,42.2,48.2,42.2z"/>
			<path class="st9" d="M75.4,42.2c-1,0-1,2.5,0,2.5C76.3,44.7,76.3,42.2,75.4,42.2z"/>
		</g>
		<path class="st35" d="M29.1,47.2c0,0-1.7-15.4,1.3-26.3s12.1-18,30.3-18s29.7,8.1,30.8,22.5c1,14.4,0.1,16.9,0.1,16.9"/>
		<path class="st19" d="M88.9,57.8l-1.5-1c0,0-5.9,18-7.6,19.9c-4.1,4.6,6.1,4.9,6.1,4.9s1.6-3.2,0.8-4.5c-0.8-1.3,1-1.1,0.4-3
			c-0.5-1.8,1.1-1.8,0.7-3.2c-0.4-1.4,1.1-4,0.6-5S88.3,58.3,88.9,57.8z"/>
		<path class="st19" d="M32.9,56.2l1.5-1c0,0,5.9,18,7.6,19.9c4.1,4.6-3.6,8.2-3.6,8.2s-4.1-6.5-3.3-7.8s-1-1.1-0.4-3
			c0.5-1.8-1.1-1.8-0.7-3.2c0.4-1.4-1.1-4-0.6-5C33.9,63.3,33.4,56.7,32.9,56.2z"/>
		<g>
			<g>
				<path class="st19" d="M36.4,16.1c1,0,1.9-0.9,1.9-1.9c0-1-0.8-1.9-1.9-1.9c-1,0-1.9,0.9-1.9,1.9C34.5,15.2,35.3,16.1,36.4,16.1
					L36.4,16.1z"/>
			</g>
		</g>
		<g>
			<g>
				<path class="st19" d="M38.8,14.5c1,0,1.9-0.9,1.9-1.9c0-1-0.8-1.9-1.9-1.9c-1,0-1.9,0.9-1.9,1.9C37,13.7,37.8,14.5,38.8,14.5
					L38.8,14.5z"/>
			</g>
		</g>
		<g>
			<g>
				<path class="st19" d="M33.4,20.5c1,0,1.9-0.9,1.9-1.9c0-1-0.8-1.9-1.9-1.9c-1,0-1.9,0.9-1.9,1.9C31.5,19.6,32.3,20.5,33.4,20.5
					L33.4,20.5z"/>
			</g>
		</g>
		<g>
			<g>
				<path class="st19" d="M32.3,27.6c1,0,1.9-0.9,1.9-1.9c0-1-0.8-1.9-1.9-1.9c-1,0-1.9,0.9-1.9,1.9C30.4,26.7,31.2,27.6,32.3,27.6
					L32.3,27.6z"/>
			</g>
		</g>
		<g>
			<g>
				<path class="st19" d="M29.9,36.8c1,0,1.9-0.9,1.9-1.9c0-1-0.8-1.9-1.9-1.9c-1,0-1.9,0.9-1.9,1.9C28,36,28.8,36.8,29.9,36.8
					L29.9,36.8z"/>
			</g>
		</g>
		<g>
			<g>
				<path class="st19" d="M30.5,32.8c1,0,1.9-0.9,1.9-1.9c0-1-0.8-1.9-1.9-1.9c-1,0-1.9,0.9-1.9,1.9C28.6,32,29.4,32.8,30.5,32.8
					L30.5,32.8z"/>
			</g>
		</g>
		<g>
			<g>
				<path class="st19" d="M30.2,34.6c1,0,1.9-0.9,1.9-1.9c0-1-0.8-1.9-1.9-1.9c-1,0-1.9,0.9-1.9,1.9C28.4,33.8,29.2,34.6,30.2,34.6
					L30.2,34.6z"/>
			</g>
		</g>
		<g>
			<g>
				<path class="st19" d="M31.2,32c1,0,1.9-0.9,1.9-1.9c0-1-0.8-1.9-1.9-1.9c-1,0-1.9,0.9-1.9,1.9C29.3,31.1,30.1,32,31.2,32
					L31.2,32z"/>
			</g>
		</g>
		<g>
			<g>
				<path class="st19" d="M31.4,30.4c1,0,1.9-0.9,1.9-1.9c0-1-0.8-1.9-1.9-1.9c-1,0-1.9,0.9-1.9,1.9C29.6,29.5,30.4,30.4,31.4,30.4
					L31.4,30.4z"/>
			</g>
		</g>
		<g>
			<g>
				<path class="st19" d="M30.3,30.9c1,0,1.9-0.9,1.9-1.9c0-1-0.8-1.9-1.9-1.9c-1,0-1.9,0.9-1.9,1.9C28.5,30,29.3,30.9,30.3,30.9
					L30.3,30.9z"/>
			</g>
		</g>
		<g>
			<g>
				<path class="st19" d="M30.8,28.7c1,0,1.9-0.9,1.9-1.9c0-1-0.8-1.9-1.9-1.9c-1,0-1.9,0.9-1.9,1.9C29,27.8,29.8,28.7,30.8,28.7
					L30.8,28.7z"/>
			</g>
		</g>
		<g>
			<g>
				<path class="st19" d="M31.8,29.3c1,0,1.9-0.9,1.9-1.9c0-1-0.8-1.9-1.9-1.9c-1,0-1.9,0.9-1.9,1.9C29.9,28.4,30.7,29.3,31.8,29.3
					L31.8,29.3z"/>
			</g>
		</g>
		<g>
			<g>
				<path class="st19" d="M33.6,26.4c1,0,1.9-0.9,1.9-1.9c0-1-0.8-1.9-1.9-1.9c-1,0-1.9,0.9-1.9,1.9C31.8,25.5,32.5,26.4,33.6,26.4
					L33.6,26.4z"/>
			</g>
		</g>
		<g>
			<g>
				<path class="st19" d="M32.3,25.6c1,0,1.9-0.9,1.9-1.9c0-1-0.8-1.9-1.9-1.9c-1,0-1.9,0.9-1.9,1.9C30.4,24.7,31.2,25.6,32.3,25.6
					L32.3,25.6z"/>
			</g>
		</g>
		<g>
			<g>
				<path class="st19" d="M33.1,22.9c1,0,1.9-0.9,1.9-1.9c0-1-0.8-1.9-1.9-1.9c-1,0-1.9,0.9-1.9,1.9C31.3,22,32.1,22.9,33.1,22.9
					L33.1,22.9z"/>
			</g>
		</g>
		<g>
			<g>
				<path class="st19" d="M33.4,24.7c1,0,1.9-0.9,1.9-1.9c0-1-0.8-1.9-1.9-1.9c-1,0-1.9,0.9-1.9,1.9C31.5,23.8,32.3,24.7,33.4,24.7
					L33.4,24.7z"/>
			</g>
		</g>
		<g>
			<g>
				<path class="st19" d="M34.8,23.3c1,0,1.9-0.9,1.9-1.9c0-1-0.8-1.9-1.9-1.9c-1,0-1.9,0.9-1.9,1.9C33,22.4,33.8,23.3,34.8,23.3
					L34.8,23.3z"/>
			</g>
		</g>
		<g>
			<g>
				<path class="st19" d="M32,23.6c1,0,1.9-0.9,1.9-1.9c0-1-0.8-1.9-1.9-1.9c-1,0-1.9,0.9-1.9,1.9C30.2,22.8,31,23.6,32,23.6
					L32,23.6z"/>
			</g>
		</g>
		<g>
			<g>
				<path class="st19" d="M31.2,26.8c1,0,1.9-0.9,1.9-1.9c0-1-0.8-1.9-1.9-1.9c-1,0-1.9,0.9-1.9,1.9C29.3,25.9,30.1,26.8,31.2,26.8
					L31.2,26.8z"/>
			</g>
		</g>
		<g>
			<g>
				<path class="st19" d="M34.8,21.3c1,0,1.9-0.9,1.9-1.9c0-1-0.8-1.9-1.9-1.9c-1,0-1.9,0.9-1.9,1.9C33,20.5,33.8,21.3,34.8,21.3
					L34.8,21.3z"/>
			</g>
		</g>
		<g>
			<g>
				<path class="st19" d="M34.9,18.3c1,0,1.9-0.9,1.9-1.9c0-1-0.8-1.9-1.9-1.9c-1,0-1.9,0.9-1.9,1.9C33.1,17.4,33.9,18.3,34.9,18.3
					L34.9,18.3z"/>
			</g>
		</g>
		<g>
			<g>
				<path class="st19" d="M33.7,18.8c1,0,1.9-0.9,1.9-1.9c0-1-0.8-1.9-1.9-1.9c-1,0-1.9,0.9-1.9,1.9C31.9,17.9,32.7,18.8,33.7,18.8
					L33.7,18.8z"/>
			</g>
		</g>
		<g>
			<g>
				<path class="st19" d="M35.7,19.3c1,0,1.9-0.9,1.9-1.9c0-1-0.8-1.9-1.9-1.9c-1,0-1.9,0.9-1.9,1.9C33.8,18.4,34.6,19.3,35.7,19.3
					L35.7,19.3z"/>
			</g>
		</g>
		<g>
			<g>
				<path class="st19" d="M37.8,17.7c1,0,1.9-0.9,1.9-1.9c0-1-0.8-1.9-1.9-1.9c-1,0-1.9,0.9-1.9,1.9C36,16.8,36.8,17.7,37.8,17.7
					L37.8,17.7z"/>
			</g>
		</g>
		<g>
			<g>
				<path class="st19" d="M41.4,12c1,0,1.9-0.9,1.9-1.9c0-1-0.8-1.9-1.9-1.9c-1,0-1.9,0.9-1.9,1.9C39.5,11.1,40.3,12,41.4,12
					L41.4,12z"/>
			</g>
		</g>
		<g>
			<g>
				<path class="st19" d="M43.2,9.7c1,0,1.9-0.9,1.9-1.9c0-1-0.8-1.9-1.9-1.9c-1,0-1.9,0.9-1.9,1.9C41.3,8.8,42.1,9.7,43.2,9.7
					L43.2,9.7z"/>
			</g>
		</g>
		<g>
			<g>
				<path class="st19" d="M54.6,7.8c1,0,1.9-0.9,1.9-1.9c0-1-0.8-1.9-1.9-1.9c-1,0-1.9,0.9-1.9,1.9C52.7,6.9,53.5,7.8,54.6,7.8
					L54.6,7.8z"/>
			</g>
		</g>
		<g>
			<g>
				<path class="st19" d="M57.5,8.7c1,0,1.9-0.9,1.9-1.9c0-1-0.8-1.9-1.9-1.9c-1,0-1.9,0.9-1.9,1.9C55.6,7.9,56.4,8.7,57.5,8.7
					L57.5,8.7z"/>
			</g>
		</g>
		<g>
			<g>
				<path class="st19" d="M60.4,9.6c1,0,1.9-0.9,1.9-1.9c0-1-0.8-1.9-1.9-1.9c-1,0-1.9,0.9-1.9,1.9C58.5,8.7,59.3,9.6,60.4,9.6
					L60.4,9.6z"/>
			</g>
		</g>
		<g>
			<g>
				<path class="st19" d="M63.3,8.7c1,0,1.9-0.9,1.9-1.9c0-1-0.8-1.9-1.9-1.9c-1,0-1.9,0.9-1.9,1.9C61.4,7.9,62.2,8.7,63.3,8.7
					L63.3,8.7z"/>
			</g>
		</g>
		<g>
			<g>
				<path class="st19" d="M66.3,7.5c1,0,1.9-0.9,1.9-1.9c0-1-0.8-1.9-1.9-1.9c-1,0-1.9,0.9-1.9,1.9C64.5,6.6,65.2,7.5,66.3,7.5
					L66.3,7.5z"/>
			</g>
		</g>
		<g>
			<g>
				<path class="st19" d="M68.7,7.3c1,0,1.9-0.9,1.9-1.9c0-1-0.8-1.9-1.9-1.9c-1,0-1.9,0.9-1.9,1.9C66.9,6.4,67.7,7.3,68.7,7.3
					L68.7,7.3z"/>
			</g>
		</g>
		<g>
			<g>
				<path class="st19" d="M76.4,9.3c1,0,1.9-0.9,1.9-1.9c0-1-0.8-1.9-1.9-1.9c-1,0-1.9,0.9-1.9,1.9C74.5,8.5,75.3,9.3,76.4,9.3
					L76.4,9.3z"/>
			</g>
		</g>
		<g>
			<g>
				<path class="st19" d="M78.4,10.4c1,0,1.9-0.9,1.9-1.9c0-1-0.8-1.9-1.9-1.9c-1,0-1.9,0.9-1.9,1.9C76.6,9.6,77.4,10.4,78.4,10.4
					L78.4,10.4z"/>
			</g>
		</g>
		<g>
			<g>
				<path class="st19" d="M81.5,12.4c1,0,1.9-0.9,1.9-1.9c0-1-0.8-1.9-1.9-1.9c-1,0-1.9,0.9-1.9,1.9C79.6,11.5,80.4,12.4,81.5,12.4
					L81.5,12.4z"/>
			</g>
		</g>
		<g>
			<g>
				<path class="st19" d="M84.1,15.3c1,0,1.9-0.9,1.9-1.9c0-1-0.8-1.9-1.9-1.9c-1,0-1.9,0.9-1.9,1.9C82.3,14.4,83.1,15.3,84.1,15.3
					L84.1,15.3z"/>
			</g>
		</g>
		<g>
			<g>
				<path class="st19" d="M86.3,17.7c1,0,1.9-0.9,1.9-1.9c0-1-0.8-1.9-1.9-1.9c-1,0-1.9,0.9-1.9,1.9C84.4,16.8,85.2,17.7,86.3,17.7
					L86.3,17.7z"/>
			</g>
		</g>
		<g>
			<g>
				<path class="st19" d="M86.4,21.9c1,0,1.9-0.9,1.9-1.9c0-1-0.8-1.9-1.9-1.9c-1,0-1.9,0.9-1.9,1.9C84.6,21.1,85.4,21.9,86.4,21.9
					L86.4,21.9z"/>
			</g>
		</g>
		<g>
			<g>
				<path class="st19" d="M86.4,24.6c1,0,1.9-0.9,1.9-1.9c0-1-0.8-1.9-1.9-1.9c-1,0-1.9,0.9-1.9,1.9C84.6,23.7,85.4,24.6,86.4,24.6
					L86.4,24.6z"/>
			</g>
		</g>
		<g>
			<g>
				<path class="st19" d="M87.1,28.8c1,0,1.9-0.9,1.9-1.9c0-1-0.8-1.9-1.9-1.9c-1,0-1.9,0.9-1.9,1.9C85.3,28,86.1,28.8,87.1,28.8
					L87.1,28.8z"/>
			</g>
		</g>
		<g>
			<g>
				<path class="st19" d="M88,32.1c1,0,1.9-0.9,1.9-1.9c0-1-0.8-1.9-1.9-1.9c-1,0-1.9,0.9-1.9,1.9C86.1,31.2,86.9,32.1,88,32.1
					L88,32.1z"/>
			</g>
		</g>
		<g>
			<g>
				<path class="st19" d="M89.1,34.8c1,0,1.9-0.9,1.9-1.9c0-1-0.8-1.9-1.9-1.9c-1,0-1.9,0.9-1.9,1.9C87.2,33.9,88,34.8,89.1,34.8
					L89.1,34.8z"/>
			</g>
		</g>
		<g>
			<g>
				<path class="st19" d="M89.3,38.4c1,0,1.9-0.9,1.9-1.9c0-1-0.8-1.9-1.9-1.9c-1,0-1.9,0.9-1.9,1.9C87.5,37.5,88.3,38.4,89.3,38.4
					L89.3,38.4z"/>
			</g>
		</g>
		<g>
			<g>
				<path class="st19" d="M89.8,41.1c1,0,1.9-0.9,1.9-1.9c0-1-0.8-1.9-1.9-1.9c-1,0-1.9,0.9-1.9,1.9C88,40.2,88.7,41.1,89.8,41.1
					L89.8,41.1z"/>
			</g>
		</g>
		<g>
			<g>
				<path class="st19" d="M90.4,39.3c1,0,1.9-0.9,1.9-1.9c0-1-0.8-1.9-1.9-1.9c-1,0-1.9,0.9-1.9,1.9C88.6,38.4,89.4,39.3,90.4,39.3
					L90.4,39.3z"/>
			</g>
		</g>
		<g>
			<g>
				<path class="st19" d="M90.2,36.6c1,0,1.9-0.9,1.9-1.9c0-1-0.8-1.9-1.9-1.9c-1,0-1.9,0.9-1.9,1.9C88.3,35.7,89.1,36.6,90.2,36.6
					L90.2,36.6z"/>
			</g>
		</g>
		<g>
			<g>
				<path class="st19" d="M90.4,34.3c1,0,1.9-0.9,1.9-1.9c0-1-0.8-1.9-1.9-1.9c-1,0-1.9,0.9-1.9,1.9C88.6,33.4,89.4,34.3,90.4,34.3
					L90.4,34.3z"/>
			</g>
		</g>
		<g>
			<g>
				<path class="st19" d="M89.2,32.8c1,0,1.9-0.9,1.9-1.9c0-1-0.8-1.9-1.9-1.9c-1,0-1.9,0.9-1.9,1.9C87.4,32,88.1,32.8,89.2,32.8
					L89.2,32.8z"/>
			</g>
		</g>
		<g>
			<g>
				<path class="st19" d="M90.5,30.7c1,0,1.9-0.9,1.9-1.9c0-1-0.8-1.9-1.9-1.9c-1,0-1.9,0.9-1.9,1.9C88.7,29.8,89.5,30.7,90.5,30.7
					L90.5,30.7z"/>
			</g>
		</g>
		<g>
			<g>
				<path class="st19" d="M88.6,30.3c1,0,1.9-0.9,1.9-1.9c0-1-0.8-1.9-1.9-1.9c-1,0-1.9,0.9-1.9,1.9C86.7,29.4,87.5,30.3,88.6,30.3
					L88.6,30.3z"/>
			</g>
		</g>
		<g>
			<g>
				<path class="st19" d="M89.9,28.3c1,0,1.9-0.9,1.9-1.9c0-1-0.8-1.9-1.9-1.9c-1,0-1.9,0.9-1.9,1.9C88.1,27.5,88.9,28.3,89.9,28.3
					L89.9,28.3z"/>
			</g>
		</g>
		<g>
			<g>
				<path class="st19" d="M88,27.5c1,0,1.9-0.9,1.9-1.9c0-1-0.8-1.9-1.9-1.9c-1,0-1.9,0.9-1.9,1.9C86.1,26.6,86.9,27.5,88,27.5
					L88,27.5z"/>
			</g>
		</g>
		<g>
			<g>
				<path class="st19" d="M88.2,25.6c1,0,1.9-0.9,1.9-1.9c0-1-0.8-1.9-1.9-1.9c-1,0-1.9,0.9-1.9,1.9C86.4,24.7,87.2,25.6,88.2,25.6
					L88.2,25.6z"/>
			</g>
		</g>
		<g>
			<g>
				<path class="st19" d="M89.7,26.7c1,0,1.9-0.9,1.9-1.9c0-1-0.8-1.9-1.9-1.9c-1,0-1.9,0.9-1.9,1.9C87.8,25.8,88.6,26.7,89.7,26.7
					L89.7,26.7z"/>
			</g>
		</g>
		<g>
			<g>
				<path class="st19" d="M89.8,24.1c1,0,1.9-0.9,1.9-1.9c0-1-0.8-1.9-1.9-1.9c-1,0-1.9,0.9-1.9,1.9C88,23.2,88.7,24.1,89.8,24.1
					L89.8,24.1z"/>
			</g>
		</g>
		<g>
			<g>
				<path class="st19" d="M87.9,23c1,0,1.9-0.9,1.9-1.9c0-1-0.8-1.9-1.9-1.9c-1,0-1.9,0.9-1.9,1.9C86,22.1,86.8,23,87.9,23L87.9,23z
					"/>
			</g>
		</g>
		<g>
			<g>
				<path class="st19" d="M86.4,19.4c1,0,1.9-0.9,1.9-1.9c0-1-0.8-1.9-1.9-1.9c-1,0-1.9,0.9-1.9,1.9C84.6,18.5,85.4,19.4,86.4,19.4
					L86.4,19.4z"/>
			</g>
		</g>
		<g>
			<g>
				<path class="st19" d="M88,20.8c1,0,1.9-0.9,1.9-1.9c0-1-0.8-1.9-1.9-1.9c-1,0-1.9,0.9-1.9,1.9C86.1,20,86.9,20.8,88,20.8
					L88,20.8z"/>
			</g>
		</g>
		<g>
			<g>
				<path class="st19" d="M89,22.1c1,0,1.9-0.9,1.9-1.9c0-1-0.8-1.9-1.9-1.9c-1,0-1.9,0.9-1.9,1.9C87.1,21.2,87.9,22.1,89,22.1
					L89,22.1z"/>
			</g>
		</g>
		<g>
			<g>
				<path class="st19" d="M85.5,15.9c1,0,1.9-0.9,1.9-1.9c0-1-0.8-1.9-1.9-1.9c-1,0-1.9,0.9-1.9,1.9C83.6,15,84.4,15.9,85.5,15.9
					L85.5,15.9z"/>
			</g>
		</g>
		<g>
			<g>
				<path class="st19" d="M83.3,12.7c1,0,1.9-0.9,1.9-1.9c0-1-0.8-1.9-1.9-1.9c-1,0-1.9,0.9-1.9,1.9C81.4,11.9,82.2,12.7,83.3,12.7
					L83.3,12.7z"/>
			</g>
		</g>
		<g>
			<g>
				<path class="st19" d="M80.4,10.5c1,0,1.9-0.9,1.9-1.9c0-1-0.8-1.9-1.9-1.9c-1,0-1.9,0.9-1.9,1.9C78.5,9.7,79.3,10.5,80.4,10.5
					L80.4,10.5z"/>
			</g>
		</g>
		<g>
			<g>
				<path class="st19" d="M87.6,18.8c1,0,1.9-0.9,1.9-1.9c0-1-0.8-1.9-1.9-1.9c-1,0-1.9,0.9-1.9,1.9C85.8,17.9,86.6,18.8,87.6,18.8
					L87.6,18.8z"/>
			</g>
		</g>
		<g>
			<g>
				<path class="st19" d="M64.1,6.7c1,0,1.9-0.9,1.9-1.9c0-1-0.8-1.9-1.9-1.9c-1,0-1.9,0.9-1.9,1.9C62.3,5.8,63.1,6.7,64.1,6.7
					L64.1,6.7z"/>
			</g>
		</g>
		<g>
			<g>
				<path class="st19" d="M62.2,7.6c1,0,1.9-0.9,1.9-1.9c0-1-0.8-1.9-1.9-1.9c-1,0-1.9,0.9-1.9,1.9C60.3,6.8,61.1,7.6,62.2,7.6
					L62.2,7.6z"/>
			</g>
		</g>
		<g>
			<g>
				<path class="st19" d="M60.1,8c1,0,1.9-0.9,1.9-1.9c0-1-0.8-1.9-1.9-1.9c-1,0-1.9,0.9-1.9,1.9C58.3,7.1,59.1,8,60.1,8L60.1,8z"/>
			</g>
		</g>
		<g>
			<g>
				<path class="st19" d="M58,7.5c1,0,1.9-0.9,1.9-1.9c0-1-0.8-1.9-1.9-1.9c-1,0-1.9,0.9-1.9,1.9C56.1,6.6,56.9,7.5,58,7.5L58,7.5z"
					/>
			</g>
		</g>
		<g>
			<g>
				<path class="st19" d="M55.9,6.7c1,0,1.9-0.9,1.9-1.9c0-1-0.8-1.9-1.9-1.9c-1,0-1.9,0.9-1.9,1.9C54,5.8,54.8,6.7,55.9,6.7
					L55.9,6.7z"/>
			</g>
		</g>
		<g>
			<g>
				<path class="st19" d="M58.7,6.4c1,0,1.9-0.9,1.9-1.9c0-1-0.8-1.9-1.9-1.9c-1,0-1.9,0.9-1.9,1.9C56.8,5.6,57.6,6.4,58.7,6.4
					L58.7,6.4z"/>
			</g>
		</g>
		<g>
			<g>
				<path class="st19" d="M60.9,6.4c1,0,1.9-0.9,1.9-1.9c0-1-0.8-1.9-1.9-1.9c-1,0-1.9,0.9-1.9,1.9C59,5.6,59.8,6.4,60.9,6.4
					L60.9,6.4z"/>
			</g>
		</g>
		<g>
			<g>
				<path class="st19" d="M62.3,6.2c1,0,1.9-0.9,1.9-1.9c0-1-0.8-1.9-1.9-1.9c-1,0-1.9,0.9-1.9,1.9C60.5,5.3,61.3,6.2,62.3,6.2
					L62.3,6.2z"/>
			</g>
		</g>
		<g>
			<g>
				<path class="st19" d="M52.9,7.2c1,0,1.9-0.9,1.9-1.9c0-1-0.8-1.9-1.9-1.9c-1,0-1.9,0.9-1.9,1.9C51,6.3,51.8,7.2,52.9,7.2
					L52.9,7.2z"/>
			</g>
		</g>
		<g>
			<g>
				<path class="st19" d="M41.2,10.4c1,0,1.9-0.9,1.9-1.9c0-1-0.8-1.9-1.9-1.9c-1,0-1.9,0.9-1.9,1.9C39.4,9.6,40.2,10.4,41.2,10.4
					L41.2,10.4z"/>
			</g>
		</g>
		<g>
			<g>
				<path class="st19" d="M39.5,12.6c1,0,1.9-0.9,1.9-1.9c0-1-0.8-1.9-1.9-1.9c-1,0-1.9,0.9-1.9,1.9C37.7,11.7,38.5,12.6,39.5,12.6
					L39.5,12.6z"/>
			</g>
		</g>
		<g>
			<g>
				<path class="st19" d="M37.2,13.8c1,0,1.9-0.9,1.9-1.9c0-1-0.8-1.9-1.9-1.9c-1,0-1.9,0.9-1.9,1.9C35.4,12.9,36.2,13.8,37.2,13.8
					L37.2,13.8z"/>
			</g>
		</g>
		<g>
			<g>
				<path class="st19" d="M37.7,15.6c1,0,1.9-0.9,1.9-1.9c0-1-0.8-1.9-1.9-1.9c-1,0-1.9,0.9-1.9,1.9C35.9,14.8,36.7,15.6,37.7,15.6
					L37.7,15.6z"/>
			</g>
		</g>
	</g>
</g>
<g id="Layer_2" class="st39">
</g>
</svg>
