<?xml version="1.0" standalone="no"?>
<!DOCTYPE svg PUBLIC "-//W3C//DTD SVG 20010904//EN"
 "http://www.w3.org/TR/2001/REC-SVG-20010904/DTD/svg10.dtd">
<svg version="1.0" xmlns="http://www.w3.org/2000/svg"
 width="668.000000pt" height="580.000000pt" viewBox="0 0 668.000000 580.000000"
 preserveAspectRatio="xMidYMid meet">

<g transform="translate(0.000000,580.000000) scale(0.100000,-0.100000)"
fill="#000000" stroke="none">
<path d="M6220 5758 c22 -23 40 -46 40 -51 0 -5 32 -44 70 -86 39 -43 70 -81
70 -85 0 -4 17 -28 38 -52 20 -25 36 -49 35 -54 -1 -4 12 -23 28 -41 17 -19
35 -43 40 -54 14 -29 31 -56 59 -95 30 -42 45 -65 64 -105 14 -27 15 3 16 318
l0 347 -250 0 -251 0 41 -42z"/>
<path d="M2715 4264 c-15 -15 -15 -18 -1 -32 14 -14 14 -17 0 -27 -24 -17 39
-32 186 -44 69 -5 133 -13 143 -16 25 -10 21 6 -14 48 -19 24 -39 37 -54 37
-13 0 -30 6 -38 14 -36 36 -192 50 -222 20z"/>
<path d="M4192 4248 c6 -18 28 -21 28 -4 0 9 -7 16 -16 16 -9 0 -14 -5 -12
-12z"/>
<path d="M3880 4243 c-33 -12 -166 -76 -180 -87 -8 -7 -34 -18 -56 -24 -23 -7
-45 -19 -48 -28 -6 -16 -6 -16 52 1 12 3 22 10 22 15 0 5 12 7 28 6 15 -2 34
0 43 5 9 4 83 10 165 13 170 6 244 14 244 27 0 6 9 5 21 -1 25 -14 31 -10 16
10 -22 28 -71 54 -107 57 -105 8 -187 10 -200 6z"/>
<path d="M2380 4230 c0 -5 5 -10 10 -10 6 0 10 5 10 10 0 6 -4 10 -10 10 -5 0
-10 -4 -10 -10z"/>
<path d="M2426 4191 c-3 -5 0 -11 7 -14 20 -7 117 5 111 14 -7 12 -111 12
-118 0z"/>
<path d="M2300 4139 c0 -5 5 -7 10 -4 6 3 10 8 10 11 0 2 -4 4 -10 4 -5 0 -10
-5 -10 -11z"/>
<path d="M2247 4099 c-8 -13 -17 -41 -20 -62 -5 -32 -3 -38 10 -35 9 2 17 10
19 18 1 8 8 30 15 47 17 43 -1 68 -24 32z"/>
<path d="M2576 4095 c-22 -6 -42 -17 -44 -23 -2 -7 -14 -12 -27 -12 -12 0 -25
-7 -28 -15 -7 -18 -126 -105 -144 -105 -7 0 -13 -7 -13 -15 0 -11 11 -15 40
-15 36 0 40 -2 40 -26 0 -24 3 -25 28 -18 15 4 39 8 54 8 23 1 26 4 21 24 -4
18 -1 22 18 22 13 0 31 4 39 10 10 6 24 3 45 -10 34 -21 119 -27 170 -13 23 7
33 18 43 51 10 28 20 42 31 42 23 0 71 -44 71 -65 0 -30 88 -47 112 -22 9 11
21 11 51 4 36 -9 41 -8 57 13 19 25 16 52 -6 71 -8 6 -14 18 -14 26 0 11 -5
13 -17 8 -44 -19 -74 -16 -137 14 -36 17 -85 36 -108 42 -63 16 -236 19 -282
4z"/>
<path d="M3540 4054 c0 -8 5 -12 10 -9 6 3 10 10 10 16 0 5 -4 9 -10 9 -5 0
-10 -7 -10 -16z"/>
<path d="M3734 4044 c-41 -16 -62 -20 -75 -14 -34 19 -52 12 -46 -16 3 -18 -2
-33 -14 -45 -28 -28 -24 -55 11 -69 16 -7 38 -10 49 -7 11 2 38 -6 62 -20 l43
-24 37 41 c21 23 42 39 47 36 5 -3 15 -19 22 -36 18 -43 51 -48 94 -14 19 15
40 38 47 51 17 32 33 23 37 -20 2 -20 6 -37 10 -37 15 0 30 16 37 38 9 32 46
25 63 -10 7 -16 19 -28 26 -28 7 0 21 -9 31 -20 24 -26 55 -26 55 0 0 31 -22
69 -44 76 -21 7 -76 43 -87 56 -10 15 -105 38 -156 38 -44 0 -52 3 -55 21 -3
18 -11 21 -70 23 -52 3 -79 -2 -124 -20z"/>
<path d="M3342 4030 c-88 -4 -106 -8 -118 -24 -18 -25 -18 -31 1 -49 8 -9 11
-17 6 -19 -5 -2 -13 -15 -16 -30 -6 -22 -4 -28 9 -28 9 0 16 4 16 9 0 5 9 11
20 14 23 6 27 37 5 37 -19 0 -19 11 -1 36 12 16 28 19 101 21 48 1 90 4 92 7
3 2 1 10 -4 18 -6 10 -32 12 -111 8z"/>
<path d="M1822 3998 c-16 -16 -15 -33 2 -47 7 -6 11 -22 9 -36 -4 -19 0 -25
20 -30 13 -4 38 -5 53 -4 62 6 180 -26 187 -51 4 -17 115 -75 125 -65 3 3 7
13 8 23 1 9 5 27 9 39 7 22 6 22 -59 16 -62 -6 -66 -5 -75 18 -21 53 -47 69
-116 69 -45 0 -65 4 -66 13 -1 6 -2 19 -3 27 0 8 -11 16 -23 18 -13 2 -23 8
-23 13 0 13 -34 11 -48 -3z"/>
<path d="M2104 3964 c-9 -34 1 -41 69 -46 53 -4 60 -3 74 19 22 33 9 41 -70
48 -65 5 -67 4 -73 -21z"/>
<path d="M3495 3980 c3 -5 13 -10 21 -10 8 0 12 5 9 10 -3 6 -13 10 -21 10 -8
0 -12 -4 -9 -10z"/>
<path d="M3508 3933 c-2 -23 -7 -27 -25 -25 -23 3 -33 -21 -14 -32 13 -9 61
41 61 64 0 30 -18 24 -22 -7z"/>
<path d="M4597 3903 c-12 -11 -8 -23 8 -23 8 0 15 7 15 15 0 16 -12 20 -23 8z"/>
<path d="M2207 3894 c-8 -8 1 -24 14 -24 5 0 9 7 9 15 0 15 -12 20 -23 9z"/>
<path d="M4510 3890 c0 -5 4 -10 9 -10 6 0 13 5 16 10 3 6 -1 10 -9 10 -9 0
-16 -4 -16 -10z"/>
<path d="M1625 3850 c-4 -6 -7 -43 -7 -82 0 -70 12 -96 37 -80 5 3 18 8 28 9
27 4 87 53 87 70 0 17 -68 83 -84 83 -6 0 -21 3 -32 6 -12 3 -25 1 -29 -6z"/>
<path d="M2345 3850 c-3 -5 1 -10 9 -10 9 0 16 5 16 10 0 6 -4 10 -9 10 -6 0
-13 -4 -16 -10z"/>
<path d="M4676 3841 c-15 -24 27 -62 47 -42 15 15 3 46 -20 49 -11 2 -24 -1
-27 -7z"/>
<path d="M3525 3790 c-9 -15 3 -60 16 -60 18 0 21 29 6 50 -10 14 -17 18 -22
10z"/>
<path d="M2610 3770 c-6 -11 -21 -20 -35 -20 -13 0 -27 -4 -30 -10 -9 -14 21
-12 110 6 42 9 82 13 89 11 18 -7 40 8 32 22 -4 6 -38 11 -81 11 -64 0 -76 -3
-85 -20z"/>
<path d="M3183 3759 c-2 -20 2 -29 10 -26 17 5 22 57 5 57 -7 0 -14 -13 -15
-31z"/>
<path d="M2675 3710 c3 -5 19 -10 36 -10 16 0 29 5 29 10 0 6 -16 10 -36 10
-21 0 -33 -4 -29 -10z"/>
<path d="M2272 3575 c3 -28 13 -33 22 -9 10 25 7 34 -9 34 -10 0 -14 -9 -13
-25z"/>
<path d="M1823 3560 c-44 -20 -58 -52 -28 -64 17 -6 21 -45 5 -47 -5 -1 -14
-2 -20 -3 -5 0 -10 -5 -9 -11 0 -5 -10 -13 -23 -16 -19 -4 -23 -11 -20 -38 4
-48 44 -115 71 -119 13 -2 27 0 31 5 9 8 -8 87 -24 111 -12 20 1 26 19 9 36
-36 85 24 85 104 0 20 -9 45 -23 61 l-22 28 -42 -20z"/>
<path d="M1640 3490 c0 -8 -3 -26 -6 -40 -5 -24 -4 -24 11 4 12 20 14 31 6 39
-8 8 -11 7 -11 -3z"/>
<path d="M2963 3468 c-13 -6 -23 -15 -23 -20 0 -5 -17 -27 -37 -51 -21 -23
-49 -58 -63 -77 -30 -43 -101 -182 -96 -187 6 -6 66 26 66 36 0 15 75 83 106
96 28 11 32 19 38 66 4 29 16 70 27 93 28 59 26 65 -18 44z"/>
<path d="M4674 3412 c-16 -9 -20 -40 -11 -74 10 -37 20 -35 43 7 14 27 16 39
8 52 -13 20 -25 25 -40 15z"/>
<path d="M3740 3340 c0 -29 41 -110 73 -145 20 -22 37 -45 37 -50 0 -13 59
-85 70 -85 15 0 -13 85 -36 111 -13 14 -24 29 -24 33 0 19 -91 146 -105 146
-8 0 -15 -4 -15 -10z"/>
<path d="M3110 3259 c-73 -10 -110 -25 -110 -43 0 -29 58 -83 102 -94 59 -15
121 -26 135 -23 6 1 14 -3 18 -9 3 -5 15 -10 26 -10 10 0 19 -6 19 -14 0 -19
25 -27 39 -13 8 8 16 5 31 -8 20 -18 22 -18 69 5 27 12 59 20 70 17 12 -3 24
0 27 5 4 7 10 4 16 -6 13 -23 24 -20 74 16 78 56 68 114 -30 166 -38 20 -63
21 -51 1 4 -5 -4 -9 -17 -9 -13 -1 -76 -2 -140 -4 -104 -3 -119 -1 -134 15
-19 21 -50 22 -144 8z"/>
<path d="M2655 3050 c3 -5 10 -10 16 -10 5 0 9 5 9 10 0 6 -7 10 -16 10 -8 0
-12 -4 -9 -10z"/>
<path d="M2558 2939 c-21 -12 -24 -39 -4 -39 7 0 19 7 26 15 17 21 1 37 -22
24z"/>
<path d="M2692 2923 c-13 -15 -25 -39 -28 -53 -3 -14 -9 -33 -15 -42 -13 -25
-11 -102 3 -116 20 -20 42 -14 91 24 42 33 51 36 88 30 23 -4 51 -13 62 -21
12 -8 31 -15 42 -15 28 0 85 -21 115 -42 39 -28 47 -21 12 11 -17 17 -32 32
-32 35 0 10 92 6 135 -5 22 -5 115 -14 206 -19 165 -8 227 -21 198 -42 -9 -6
-1 -7 26 -2 66 12 220 8 254 -6 43 -17 91 2 91 37 0 13 7 31 15 40 19 18 15
37 -8 41 -11 2 -19 -6 -23 -22 -7 -31 -18 -32 -43 -7 -27 27 -85 35 -123 17
-24 -12 -54 -15 -133 -11 -56 2 -114 9 -128 14 -17 7 -57 7 -116 0 -87 -10
-92 -9 -183 22 -67 23 -109 32 -148 31 -58 -2 -75 4 -75 27 0 19 -78 41 -147
41 -52 0 -58 2 -70 27 -18 37 -39 39 -66 6z"/>
<path d="M2872 2705 c6 -14 14 -25 17 -25 4 0 8 11 9 25 1 19 -3 25 -18 25
-17 0 -18 -3 -8 -25z"/>
<path d="M2974 2616 c-4 -9 -5 -18 -3 -19 38 -23 101 -50 169 -72 47 -15 91
-32 98 -38 15 -12 155 -10 215 3 92 19 121 29 140 49 12 11 18 24 14 28 -5 4
-74 11 -155 15 -160 9 -401 32 -444 43 -21 6 -29 3 -34 -9z"/>
<path d="M1 1985 c-1 -501 1 -578 16 -639 14 -59 15 -76 4 -120 -14 -55 -26
-206 -17 -206 3 0 33 20 67 45 34 25 65 45 69 45 10 0 27 -22 90 -115 25 -36
64 -93 87 -125 49 -68 53 -89 21 -109 -13 -8 -33 -20 -45 -28 -21 -14 -24 -10
-91 86 l-69 100 -46 -32 c-26 -18 -47 -36 -47 -40 0 -5 20 -39 45 -76 25 -37
45 -70 45 -74 0 -4 -19 -21 -42 -38 l-43 -30 -22 28 -23 28 0 -187 c0 -104 3
-188 6 -188 3 0 95 89 206 197 110 109 207 198 215 198 9 0 29 -17 46 -37 l30
-38 -17 -137 c-9 -76 -22 -173 -28 -216 -6 -43 -9 -80 -7 -82 3 -2 59 50 127
116 l122 120 33 -25 c19 -14 40 -37 47 -51 14 -25 11 -29 -150 -190 l-165
-165 191 0 191 0 31 44 c18 24 32 48 32 53 0 4 -24 24 -53 43 -80 54 -79 51
-49 98 34 53 48 58 86 29 17 -13 67 -48 111 -79 204 -141 240 -167 237 -177
-1 -8 200 -11 675 -10 629 0 740 5 573 23 -63 7 -296 63 -353 85 -15 6 -32 23
-37 37 -7 17 -8 150 -5 373 7 380 7 597 4 916 -2 164 1 223 13 270 9 33 21 94
28 135 13 83 34 146 57 172 8 9 13 23 11 29 -5 16 -65 -43 -105 -103 -39 -58
-232 -202 -373 -279 -24 -13 -67 -38 -94 -56 -46 -30 -114 -52 -231 -74 -27
-6 -68 -15 -90 -20 -22 -5 -80 -16 -130 -24 -80 -12 -173 -31 -385 -80 -72
-16 -157 -42 -240 -74 l-55 -21 -19 22 c-57 70 -196 328 -261 483 -20 50 -43
104 -50 120 -22 51 -83 246 -105 335 -12 47 -26 97 -31 111 -6 15 -17 60 -24
100 -12 66 -13 11 -14 -496z"/>
<path d="M2274 2466 c-4 -10 -3 -21 3 -25 9 -6 33 -78 33 -100 0 -6 -8 -11
-19 -11 -10 0 -26 -11 -34 -24 -15 -22 -15 -25 3 -41 15 -14 19 -30 19 -75 -1
-32 3 -66 9 -76 6 -11 7 -27 1 -41 -5 -13 -5 -23 0 -23 5 0 11 7 15 15 7 18
46 20 46 2 0 -7 -7 -22 -15 -34 -18 -25 -5 -39 23 -24 13 7 22 7 30 -1 9 -9
12 -6 12 12 0 18 3 21 12 12 8 -8 8 -15 -1 -26 -7 -8 -11 -36 -9 -68 3 -46 6
-53 25 -56 21 -3 23 0 21 38 -2 55 15 71 45 42 13 -12 33 -22 45 -22 11 0 27
-9 35 -20 9 -13 20 -18 31 -14 19 7 76 -49 76 -76 0 -14 9 -20 33 -23 30 -4
30 -4 -7 -5 -26 -1 -43 3 -51 15 -7 9 -19 14 -29 10 -20 -8 -21 -27 -1 -27 8
0 15 -7 15 -15 0 -13 18 -20 43 -16 4 0 7 -3 7 -9 0 -5 9 -10 19 -10 14 0 18
-5 14 -19 -6 -23 -34 -36 -43 -21 -11 17 -40 0 -40 -24 0 -12 -5 -27 -11 -33
-7 -7 -9 -19 -6 -27 5 -13 12 -14 34 -5 29 11 75 6 130 -14 30 -10 35 -8 62
18 19 19 41 31 63 32 18 1 47 3 63 5 25 2 31 -1 33 -19 3 -17 13 -25 45 -33
23 -6 49 -15 59 -20 12 -7 23 -3 42 15 14 13 26 30 26 38 0 23 49 37 143 39
74 1 92 -2 115 -19 23 -18 27 -27 27 -74 0 -62 13 -71 66 -44 29 16 33 16 41
1 6 -11 17 -14 34 -10 20 5 26 2 31 -15 6 -24 31 -28 39 -6 4 8 14 15 24 15
10 0 23 7 30 15 7 8 19 15 26 15 8 0 22 8 33 18 10 9 52 46 95 81 42 35 76 68
76 73 0 4 20 29 45 55 25 25 45 51 45 58 0 7 6 17 13 23 34 29 149 293 151
347 1 28 8 45 24 58 22 19 32 77 12 77 -5 0 -10 -4 -10 -10 0 -5 -7 -10 -16
-10 -9 0 -18 -9 -21 -19 -3 -11 -15 -22 -26 -25 -31 -9 -61 -37 -78 -71 -13
-28 -19 -30 -69 -31 -70 -1 -123 -15 -180 -47 -25 -14 -74 -42 -110 -61 -88
-49 -104 -59 -113 -74 -11 -16 -94 -13 -131 5 -17 9 -38 12 -55 8 l-26 -7 23
-11 c12 -5 22 -16 22 -24 0 -13 -23 -18 -72 -14 -14 1 -35 -5 -46 -15 -16 -13
-18 -22 -11 -53 16 -69 12 -71 -70 -34 -26 12 -38 13 -55 4 -25 -14 -92 -9
-108 7 -17 17 40 35 90 28 63 -8 91 1 86 27 -6 33 -34 49 -72 42 -44 -8 -101
12 -112 39 -7 16 -9 17 -9 4 -1 -9 -10 -19 -21 -23 -42 -13 -150 22 -150 49 0
8 -19 18 -44 25 -27 6 -50 20 -59 35 -9 13 -26 27 -37 31 -12 4 -25 17 -30 29
-6 17 -19 25 -50 29 -30 4 -50 14 -70 37 -16 18 -36 30 -47 29 -10 -2 -23 0
-29 3 -6 4 -41 9 -77 10 -53 2 -68 7 -73 20 -3 10 -15 20 -28 24 -14 3 -22 14
-24 30 -2 26 -39 122 -53 138 -5 5 -11 2 -15 -8z m56 -341 c0 -8 -7 -15 -15
-15 -16 0 -20 12 -8 23 11 12 23 8 23 -8z m1117 -282 c5 -13 -65 -39 -75 -28
-10 10 38 46 56 43 9 -2 17 -8 19 -15z m-187 -43 c0 -19 -11 -26 -23 -14 -8 8
3 34 14 34 5 0 9 -9 9 -20z m117 -16 c-9 -9 -27 6 -27 22 0 13 2 13 16 -1 9
-9 14 -18 11 -21z m-526 -46 c10 -37 -3 -53 -29 -37 -17 10 -18 17 -10 41 12
34 29 32 39 -4z"/>
<path d="M4275 2390 c-3 -5 -1 -10 4 -10 6 0 11 5 11 10 0 6 -2 10 -4 10 -3 0
-8 -4 -11 -10z"/>
<path d="M2231 2224 c0 -11 3 -14 6 -6 3 7 2 16 -1 19 -3 4 -6 -2 -5 -13z"/>
<path d="M3216 2001 c-18 -7 -18 -8 -2 -14 10 -4 24 -1 32 8 17 17 4 19 -30 6z"/>
<path d="M3340 2000 c0 -5 11 -10 24 -10 14 0 28 5 31 10 4 6 -7 10 -24 10
-17 0 -31 -4 -31 -10z"/>
<path d="M4307 1805 c3 -38 14 -90 24 -114 11 -24 19 -59 19 -78 0 -20 18 -75
40 -125 30 -66 46 -120 61 -210 11 -67 23 -126 26 -131 3 -4 11 0 18 10 7 10
15 16 17 13 24 -29 52 -128 88 -311 5 -25 18 -84 29 -130 11 -46 25 -122 31
-169 6 -47 21 -125 33 -175 30 -126 30 -254 0 -314 -13 -25 -23 -51 -23 -58 0
-11 182 -13 1005 -13 l1005 0 0 468 0 467 -43 23 c-24 12 -88 51 -143 85 -99
61 -271 150 -349 180 -22 9 -85 28 -140 43 -55 15 -138 46 -185 70 -228 113
-379 156 -595 169 -149 8 -334 45 -406 80 -30 14 -83 34 -119 44 -183 52 -253
89 -332 174 l-66 72 5 -70z"/>
<path d="M4146 1678 c-8 -13 -22 -49 -32 -80 -9 -31 -28 -69 -41 -84 -12 -15
-23 -33 -23 -41 0 -41 96 69 119 136 22 67 7 115 -23 69z"/>
<path d="M2410 1581 c0 -5 5 -13 10 -16 6 -3 10 -2 10 4 0 5 -4 13 -10 16 -5
3 -10 2 -10 -4z"/>
<path d="M2435 1550 c-2 -3 12 -19 31 -36 19 -16 48 -41 64 -56 37 -33 70 -52
70 -39 0 11 -67 71 -80 71 -17 0 -50 34 -50 51 0 15 -27 22 -35 9z"/>
<path d="M3570 1470 c0 -5 5 -10 10 -10 6 0 10 5 10 10 0 6 -4 10 -10 10 -5 0
-10 -4 -10 -10z"/>
<path d="M3318 1323 c7 -3 16 -2 19 1 4 3 -2 6 -13 5 -11 0 -14 -3 -6 -6z"/>
<path d="M3396 1075 c-3 -8 -18 -15 -33 -15 -15 0 -35 -5 -43 -11 -11 -7 3 -9
50 -4 35 3 66 8 69 10 5 6 -19 35 -29 35 -4 0 -10 -7 -14 -15z"/>
<path d="M3668 456 c-33 -41 -35 -56 -10 -56 25 0 65 44 60 66 -5 29 -22 26
-50 -10z"/>
<path d="M215 320 c-66 -66 -124 -120 -129 -120 -6 0 -27 17 -48 37 l-38 37 0
-137 0 -137 144 0 144 0 5 43 c3 23 10 89 16 147 6 58 16 136 22 173 6 38 9
70 7 72 -2 3 -58 -50 -123 -115z"/>
<path d="M3322 320 c-22 -9 -22 -10 -5 -36 l17 -26 18 22 c30 36 14 57 -30 40z"/>
<path d="M4015 147 c-22 -7 -49 -19 -59 -29 -12 -11 -29 -16 -44 -13 -13 2
-31 0 -40 -5 -10 -5 -44 -14 -77 -20 -33 -7 -91 -18 -130 -26 -38 -8 -113 -21
-165 -29 -52 -9 -99 -17 -105 -19 -5 -3 181 -5 415 -5 382 0 421 1 385 14 -22
8 -52 15 -67 15 -15 0 -35 8 -45 19 -10 10 -32 22 -50 25 -39 9 -55 26 -42 46
8 13 11 13 23 -2 16 -22 26 -23 26 -2 0 8 4 13 8 10 4 -2 8 4 8 15 0 10 0 18
-1 18 0 -1 -18 -6 -40 -12z"/>
</g>
</svg>
