<?xml version="1.0" encoding="utf-8"?>
<!-- Generator: Adobe Illustrator 24.3.0, SVG Export Plug-In . SVG Version: 6.00 Build 0)  -->
<svg version="1.1" id="Layer_1" xmlns="http://www.w3.org/2000/svg" xmlns:xlink="http://www.w3.org/1999/xlink" x="0px" y="0px"
	 viewBox="0 0 254.6 86.5" style="enable-background:new 0 0 254.6 86.5;" xml:space="preserve">
<style type="text/css">
	.st0{fill:#00BDFF;}
	.st1{fill:#FFFFFF;}
	.st2{fill:#8B34F3;}
	.st3{fill:#EC4796;}
	.st4{fill:#FFA630;}
	.st5{fill:#ED4462;}
</style>
<g>
	<g>
		<g>
			<path class="st0" d="M159.8,0h20.8l3.9,36.6h-13.1V24.9h-2.5v11.8h-12.9L159.8,0z M166.8,15.4l0.8,1.9l5.8-2.5l-0.8-1.9
				L166.8,15.4z"/>
			<path class="st0" d="M185,0h11.8l4.7,14.8l0.8-0.2l-0.6-3c-0.5-2.4-1.1-5.1-1.1-7.6V0h13.1v36.6h-11.8l-4.7-14.8l-0.8,0.2l0.6,3
				c0.5,2.4,1.1,5.2,1.1,7.7v4H185V0z"/>
			<path class="st0" d="M240.1,11.6h-6.1v25H221v-25h-6V0h25.2V11.6z"/>
			<path class="st0" d="M241.5,0h13.1v36.6h-13.1V0z"/>
		</g>
		<g>
			<path d="M159.9,85.7c-0.4-2.1-0.7-4.9-0.7-7.5V67c0-1.1-0.4-1.9-1.3-1.9h-1.3v20.7H151V37.6h7.3c2.8,0,6.4,1.4,6.4,7.6v12.3
				c0,2.3-1.1,3.7-2.6,5c1.5,1.3,2.7,2.7,2.7,5v10.2c0,3.1,0.4,5.7,0.8,8.1H159.9z M159.1,45.3c0-1.4-0.4-1.9-1-1.9h-1.4v16.2h1.4
				c0.7,0,1-0.5,1-1.9V45.3z"/>
			<path d="M173.9,86.3c-3.9,0-6.8-3.4-6.8-8.2V37.6h5.4v40.9c0,1.1,0.5,1.7,1.4,1.7c1,0,1.5-0.7,1.5-1.7V37.6h5.1v40.5
				C180.5,83,177.8,86.3,173.9,86.3z"/>
			<path d="M108.9,86.3c-3.9,0-6.9-3.4-6.9-8.2V45.3c0-4.9,3-8.2,6.9-8.2c3.9,0,6.9,3.4,6.9,8.2v11.4l-5.5-1.6V44.9
				c0-1.1-0.5-1.7-1.4-1.7s-1.4,0.7-1.4,1.7v33.7c0,1.1,0.5,1.7,1.4,1.7s1.4-0.7,1.4-1.7V68.3h5.5v9.9
				C115.8,83,112.8,86.3,108.9,86.3z"/>
			<path d="M125.2,86.3c-3.9,0-7.2-3.4-7.2-8.2V45.3c0-4.9,3.2-8.2,7.2-8.2c3.9,0,7.2,3.4,7.2,8.2v32.8
				C132.3,83,129.1,86.3,125.2,86.3z M126.6,44.9c0-1.1-0.5-1.7-1.4-1.7c-1,0-1.5,0.7-1.5,1.7v33.7c0,1.1,0.5,1.7,1.5,1.7
				c0.9,0,1.4-0.7,1.4-1.7V44.9z"/>
			<path d="M143.7,85.7c-0.4-2.1-0.7-4.9-0.7-7.5V67c0-1.1-0.4-1.9-1.3-1.9h-1.3v20.7h-5.7V37.6h7.3c2.8,0,6.4,1.4,6.4,7.6v12.3
				c0,2.3-1.1,3.7-2.6,5c1.5,1.3,2.7,2.7,2.7,5v10.2c0,3.1,0.4,5.7,0.8,8.1H143.7z M142.9,45.3c0-1.4-0.4-1.9-1-1.9h-1.4v16.2h1.4
				c0.7,0,1-0.5,1-1.9V45.3z"/>
			<path d="M190.2,65.7h-1.6v20.1H183V37.6h7.3c2.8,0,6.4,1.4,6.4,7.6v12.9C196.6,64.2,193.1,65.7,190.2,65.7z M191.1,45.3
				c0-1.4-0.4-1.9-1-1.9h-1.4v16.5h1.4c0.7,0,1-0.5,1-1.9V45.3z"/>
			<path d="M205,86.5c-3.9,0-6.9-3.4-6.9-8.2V45.4c0-4.9,3-8.2,6.9-8.2s6.9,3.4,6.9,8.2v11.4l-5.5-1.6V45c0-1.1-0.5-1.7-1.4-1.7
				s-1.4,0.7-1.4,1.7v33.7c0,1.1,0.5,1.7,1.4,1.7s1.4-0.7,1.4-1.7V68.4h5.5v9.9C211.9,83.1,208.9,86.5,205,86.5z"/>
			<path d="M214.4,85.9V37.8h5.7v48.1H214.4z"/>
			<path d="M229.8,37.2c-3.9,0-7.2,3.4-7.2,8.2v32.8c0,4.9,3.2,8.2,7.2,8.2c3.9,0,7.2-3.4,7.2-8.2V45.4
				C237,40.5,233.7,37.2,229.8,37.2z M231.3,78.7c0,1.1-0.5,1.7-1.4,1.7c-1,0-1.5-0.7-1.5-1.7V45c0-1.1,0.5-1.7,1.5-1.7
				c0.9,0,1.4,0.7,1.4,1.7V78.7z"/>
			<polygon points="234.1,32.7 225.8,36.6 225.9,34.4 234.1,30.5 			"/>
			<path d="M249.9,85.9l-5.8-26.3v26.3h-4.7V37.8h5.7l4.8,26.7V37.8h4.6v48.1H249.9z"/>
		</g>
		<polygon class="st0" points="254.5,85.9 249.9,85.9 102,43.5 102,37 254.5,80.7 		"/>
	</g>
	<polygon class="st0" points="154.3,26.2 0,26.2 2,9.8 156,9.8 	"/>
	<g>
		<path class="st1" d="M11.7,17.1c0-0.1,0-0.2,0-0.3c0-0.2,0-0.4-0.1-0.5s-0.2-0.3-0.3-0.4s-0.3-0.2-0.5-0.2c-0.2,0-0.4-0.1-0.5-0.1
			c-0.2,0-0.4,0-0.7,0.1c-0.2,0.1-0.4,0.1-0.6,0.2c-0.2,0.1-0.3,0.2-0.4,0.4c-0.1,0.2-0.2,0.3-0.2,0.5c0,0.2,0,0.4,0.1,0.5
			c0.1,0.1,0.2,0.2,0.3,0.3c0.1,0.1,0.3,0.2,0.5,0.2C9.7,17.9,10,18,10.3,18c0.6,0.1,1.1,0.3,1.4,0.6c0.3,0.3,0.4,0.7,0.4,1.2
			c0,0.4-0.1,0.7-0.2,1c-0.1,0.3-0.3,0.5-0.6,0.7c-0.3,0.2-0.6,0.3-0.9,0.4c-0.3,0.1-0.7,0.2-1.1,0.2c-0.4,0-0.7,0-1-0.1
			c-0.3-0.1-0.5-0.2-0.7-0.4S7.2,21.2,7.1,21c-0.1-0.2-0.1-0.5-0.1-0.8c0-0.2,0-0.4,0.1-0.6L7,19.3h0.8l-0.1,0.2
			c0,0.2-0.1,0.4-0.1,0.6c0,0.4,0.1,0.8,0.4,1c0.3,0.2,0.7,0.3,1.2,0.3c0.2,0,0.5,0,0.7-0.1s0.4-0.2,0.6-0.3
			c0.2-0.1,0.3-0.3,0.4-0.5c0.1-0.2,0.2-0.4,0.2-0.6c0-0.2,0-0.3-0.1-0.5c-0.1-0.1-0.2-0.2-0.3-0.3c-0.1-0.1-0.3-0.2-0.5-0.2
			c-0.2-0.1-0.5-0.1-0.7-0.2c-0.3,0-0.5-0.1-0.8-0.2c-0.2-0.1-0.4-0.2-0.6-0.3C8,18,7.9,17.9,7.8,17.7S7.7,17.2,7.7,17
			c0-0.3,0.1-0.6,0.2-0.9c0.1-0.3,0.3-0.5,0.6-0.7C8.7,15.2,9,15.1,9.3,15s0.7-0.1,1.1-0.1c0.3,0,0.7,0,0.9,0.1
			c0.3,0.1,0.5,0.2,0.7,0.4s0.3,0.3,0.4,0.6c0.1,0.2,0.2,0.4,0.2,0.7c0,0.1,0,0.1,0,0.2c0,0.1,0,0.1,0,0.2l-0.1,0.4h-0.8L11.7,17.1z
			"/>
		<path class="st1" d="M15.7,15h4v0.8h-3.3l-0.5,2.3h3.1v0.8h-3.2l-0.5,2.4h3.2V22h-4.2L15.7,15z"/>
		<path class="st1" d="M23.5,21.3c0.3,0,0.5,0,0.8-0.1c0.2-0.1,0.4-0.2,0.6-0.4s0.3-0.3,0.4-0.6c0.1-0.2,0.2-0.5,0.3-0.7l0-0.1h0.8
			l0,0.1c-0.1,0.4-0.2,0.8-0.4,1.1c-0.2,0.3-0.3,0.6-0.6,0.8s-0.5,0.4-0.8,0.5c-0.3,0.1-0.7,0.2-1.1,0.2c-0.3,0-0.6,0-0.9-0.1
			s-0.5-0.2-0.6-0.4c-0.2-0.2-0.3-0.4-0.4-0.6c-0.1-0.2-0.1-0.5-0.1-0.8c0-0.1,0-0.3,0-0.4c0-0.2,0-0.3,0.1-0.5l0.3-1.6
			c0.2-1,0.6-1.7,1-2.2c0.5-0.5,1.2-0.7,2-0.7c0.3,0,0.6,0,0.9,0.1c0.2,0.1,0.5,0.2,0.6,0.4c0.2,0.2,0.3,0.4,0.4,0.6
			c0.1,0.2,0.1,0.5,0.1,0.7c0,0.2,0,0.4-0.1,0.7l0,0.1h-0.8l0-0.1c0-0.1,0.1-0.2,0.1-0.3s0-0.2,0-0.3c0-0.4-0.1-0.6-0.3-0.8
			c-0.2-0.2-0.5-0.3-1-0.3c-0.3,0-0.5,0.1-0.7,0.2c-0.2,0.1-0.4,0.3-0.6,0.4c-0.2,0.2-0.3,0.4-0.4,0.7c-0.1,0.3-0.2,0.6-0.3,0.9
			l-0.3,1.4c0,0.2-0.1,0.3-0.1,0.4c0,0.1,0,0.3,0,0.4c0,0.4,0.1,0.8,0.3,1S23.1,21.3,23.5,21.3z"/>
		<path class="st1" d="M32.7,22h-0.8l0.5-2.4c0-0.1,0-0.1,0-0.2c0-0.1,0-0.2-0.1-0.3c-0.1-0.1-0.2-0.1-0.3-0.1h-2.2L29.1,22h-0.8
			l1.5-7h2.4c0.6,0,1.1,0.2,1.4,0.5c0.3,0.3,0.5,0.7,0.5,1.3c0,0.4-0.1,0.8-0.4,1.1s-0.6,0.6-1,0.7v0.1c0.2,0,0.3,0.1,0.4,0.2
			s0.1,0.2,0.1,0.4c0,0.1,0,0.1,0,0.2L32.7,22z M29.9,18.3h1.5c0.2,0,0.5,0,0.7-0.1c0.2-0.1,0.4-0.2,0.6-0.3s0.3-0.3,0.4-0.5
			c0.1-0.2,0.1-0.4,0.1-0.6c0-0.3-0.1-0.6-0.3-0.8c-0.2-0.2-0.5-0.3-0.9-0.3h-1.5L29.9,18.3z"/>
		<path class="st1" d="M37.1,15h4v0.8h-3.3l-0.5,2.3h3.1v0.8h-3.2l-0.5,2.4h3.2V22h-4.2L37.1,15z"/>
		<path class="st1" d="M43.5,15h5.1v0.8h-2L45.2,22h-0.8l1.3-6.3h-2.2V15z"/>
		<path class="st1" d="M53.9,20.2H51L50.2,22h-1l3.5-7h1.6l0.5,7H54L53.9,20.2z M51.4,19.5h2.4l-0.3-4.1h-0.1L51.4,19.5z"/>
		<path class="st1" d="M61.3,22h-0.8l0.5-2.4c0-0.1,0-0.1,0-0.2c0-0.1,0-0.2-0.1-0.3c-0.1-0.1-0.2-0.1-0.3-0.1h-2.2L57.7,22h-0.8
			l1.5-7h2.4c0.6,0,1.1,0.2,1.4,0.5c0.3,0.3,0.5,0.7,0.5,1.3c0,0.4-0.1,0.8-0.4,1.1s-0.6,0.6-1,0.7v0.1c0.2,0,0.3,0.1,0.4,0.2
			s0.1,0.2,0.1,0.4c0,0.1,0,0.1,0,0.2L61.3,22z M58.5,18.3h1.5c0.2,0,0.5,0,0.7-0.1s0.4-0.2,0.6-0.3s0.3-0.3,0.4-0.5
			c0.1-0.2,0.1-0.4,0.1-0.6c0-0.3-0.1-0.6-0.3-0.8c-0.2-0.2-0.5-0.3-0.9-0.3h-1.5L58.5,18.3z"/>
		<path class="st1" d="M65.4,15h4.3v0.8H68l-1.2,5.5h1.8V22h-4.3v-0.8H66l1.2-5.5h-1.8V15z M69.3,13L69.3,13l-1,1.2h-0.8l0.9-1.2
			H69.3z"/>
		<path class="st1" d="M75.3,20.2h-2.8L71.7,22h-1l3.5-7h1.6l0.5,7h-0.9L75.3,20.2z M72.9,19.5h2.4L75,15.3h-0.1L72.9,19.5z"/>
		<path class="st1" d="M87.2,15h4v0.8h-3.3l-0.5,2.3h3.1v0.8h-3.2l-0.5,2.4h3.2V22h-4.2L87.2,15z"/>
		<path class="st1" d="M98.9,15.7h-0.7l-0.9,4.2c-0.1,0.3-0.2,0.7-0.3,0.9c-0.1,0.3-0.3,0.5-0.5,0.7c-0.2,0.2-0.4,0.3-0.7,0.4
			c-0.3,0.1-0.6,0.2-1,0.2c-0.6,0-1-0.2-1.4-0.5c-0.3-0.3-0.5-0.7-0.5-1.2c0-0.2,0-0.4,0.1-0.6l0.1-0.5h0.8l-0.1,0.5
			c0,0.2-0.1,0.3-0.1,0.5c0,0.6,0.4,1,1.1,1c0.5,0,0.8-0.1,1.1-0.4s0.4-0.6,0.5-1.1l0.9-4.1h-0.8V15h2.3V15.7z"/>
		<path class="st1" d="M101.5,15h4v0.8h-3.3l-0.5,2.3h3.1v0.8h-3.2l-0.5,2.4h3.2V22H100L101.5,15z"/>
		<path class="st1" d="M109.4,21.3c0.3,0,0.5,0,0.8-0.1c0.2-0.1,0.4-0.2,0.6-0.4s0.3-0.3,0.4-0.6c0.1-0.2,0.2-0.5,0.3-0.7l0-0.1h0.8
			l0,0.1c-0.1,0.4-0.2,0.8-0.4,1.1c-0.2,0.3-0.3,0.6-0.6,0.8s-0.5,0.4-0.8,0.5c-0.3,0.1-0.7,0.2-1.1,0.2c-0.3,0-0.6,0-0.9-0.1
			s-0.5-0.2-0.6-0.4c-0.2-0.2-0.3-0.4-0.4-0.6c-0.1-0.2-0.1-0.5-0.1-0.8c0-0.1,0-0.3,0-0.4c0-0.2,0-0.3,0.1-0.5l0.3-1.6
			c0.2-1,0.6-1.7,1-2.2c0.5-0.5,1.2-0.7,2-0.7c0.3,0,0.6,0,0.9,0.1c0.2,0.1,0.5,0.2,0.6,0.4c0.2,0.2,0.3,0.4,0.4,0.6
			c0.1,0.2,0.1,0.5,0.1,0.7c0,0.2,0,0.4-0.1,0.7l0,0.1h-0.8l0-0.1c0-0.1,0.1-0.2,0.1-0.3s0-0.2,0-0.3c0-0.4-0.1-0.6-0.3-0.8
			c-0.2-0.2-0.5-0.3-1-0.3c-0.3,0-0.5,0.1-0.7,0.2c-0.2,0.1-0.4,0.3-0.6,0.4c-0.2,0.2-0.3,0.4-0.4,0.7c-0.1,0.3-0.2,0.6-0.3,0.9
			l-0.3,1.4c0,0.2-0.1,0.3-0.1,0.4c0,0.1,0,0.3,0,0.4c0,0.4,0.1,0.8,0.3,1S109,21.3,109.4,21.3z"/>
		<path class="st1" d="M116.3,15l-1,4.7c0,0.1,0,0.2-0.1,0.3s0,0.2,0,0.3c0,0.8,0.4,1.2,1.2,1.2c0.5,0,0.9-0.1,1.2-0.4
			s0.5-0.7,0.7-1.3l1-4.7h0.8l-1,4.7c-0.2,0.8-0.5,1.5-1,1.9c-0.5,0.4-1.1,0.6-1.9,0.6c-0.3,0-0.6,0-0.8-0.1
			c-0.2-0.1-0.4-0.2-0.6-0.4c-0.2-0.2-0.3-0.4-0.4-0.6c-0.1-0.2-0.1-0.5-0.1-0.8c0-0.1,0-0.2,0-0.3s0-0.2,0.1-0.4l1-4.6H116.3z"/>
		<path class="st1" d="M122.3,15h5.1v0.8h-2L124,22h-0.8l1.3-6.3h-2.2V15z"/>
		<path class="st1" d="M129.9,15h4.3v0.8h-1.7l-1.2,5.5h1.7V22h-4.3v-0.8h1.7l1.2-5.5h-1.7V15z"/>
		<path class="st1" d="M136.6,15h0.8l0.3,6.7h0.1L141,15h1l-3.4,7h-1.6L136.6,15z"/>
		<path class="st1" d="M146.9,20.2h-2.8l-0.9,1.7h-1l3.5-7h1.6l0.5,7H147L146.9,20.2z M144.5,19.5h2.4l-0.3-4.1h-0.1L144.5,19.5z"/>
	</g>
</g>
</svg>
