<?xml version="1.0" encoding="utf-8"?>
<!-- Generator: Adobe Illustrator 24.3.0, SVG Export Plug-In . SVG Version: 6.00 Build 0)  -->
<svg version="1.1" xmlns="http://www.w3.org/2000/svg" xmlns:xlink="http://www.w3.org/1999/xlink" x="0px" y="0px"
	 viewBox="0 0 250.4 85.1" style="enable-background:new 0 0 250.4 85.1;" xml:space="preserve">
<style type="text/css">
	.st0{clip-path:url(#SVGID_2_);}
	.st1{clip-path:url(#SVGID_4_);fill:#1A1B2F;}
	.st2{clip-path:url(#SVGID_6_);}
	.st3{clip-path:url(#SVGID_8_);fill:#F1748A;}
	.st4{fill:#F1748A;}
	.st5{fill:#FDD56F;}
	.st6{fill:#EC4796;}
	.st7{clip-path:url(#SVGID_10_);}
	.st8{clip-path:url(#SVGID_12_);fill:#F1748A;}
	.st9{fill:#FFFFFF;}
	.st10{fill:none;stroke:#EC4796;stroke-width:2;stroke-miterlimit:10;}
	.st11{fill:none;stroke:#F1748A;stroke-width:2;stroke-miterlimit:10;}
	.st12{fill:none;stroke:#FFFFFF;stroke-width:1.9929;stroke-miterlimit:10;}
	.st13{fill:none;stroke:#1A1B2F;stroke-width:2.2288;stroke-miterlimit:10;}
	.st14{fill:#1A1B2F;}
	.st15{clip-path:url(#SVGID_14_);}
	.st16{fill:#FFD1C2;}
	.st17{fill:#D69241;}
	.st18{fill:#6CBFAD;}
	.st19{fill:#1C2021;}
	.st20{fill:#F78271;}
	.st21{clip-path:url(#SVGID_16_);}
	.st22{fill:#853C2B;}
	.st23{clip-path:url(#SVGID_18_);}
	.st24{fill:#FECA9A;}
	.st25{clip-path:url(#SVGID_20_);}
	.st26{fill:none;stroke:#1C2021;stroke-width:3.8694;stroke-miterlimit:10;}
	.st27{clip-path:url(#SVGID_22_);}
	.st28{clip-path:url(#SVGID_24_);}
	.st29{clip-path:url(#SVGID_26_);}
	.st30{clip-path:url(#SVGID_28_);}
	.st31{clip-path:url(#SVGID_30_);}
	.st32{clip-path:url(#SVGID_32_);}
	.st33{clip-path:url(#SVGID_34_);}
	.st34{clip-path:url(#SVGID_36_);fill:#FDD56F;}
	.st35{fill:none;stroke:#1C2021;stroke-width:5.7091;stroke-miterlimit:10;}
	.st36{fill:#ED4462;}
	.st37{fill:#00BDFF;}
	.st38{fill:#FFA630;}
	.st39{font-family:'SpaceMono-Italic';}
	.st40{font-size:9.8875px;}
	.st41{display:none;}
	.st42{display:inline;fill:#606060;}
</style>
<g id="Layer_1">
	<g>
		<g>
			<g>
				<path class="st37" d="M157.1,0h20.5l3.8,36h-12.9V24.5H166V36h-12.7L157.1,0z M164.1,15.1l0.8,1.8l5.8-2.4l-0.8-1.8L164.1,15.1z
					"/>
				<path class="st37" d="M181.9,0h11.6l4.6,14.5l0.8-0.2l-0.6-2.9c-0.5-2.4-1.1-5.1-1.1-7.5V0h12.9v36h-11.6l-4.6-14.5l-0.8,0.2
					l0.6,2.9c0.5,2.4,1.1,5.1,1.1,7.5V36h-12.9V0z"/>
				<path class="st37" d="M236.2,11.4h-6V36h-12.9V11.4h-5.9V0h24.7V11.4z"/>
				<path class="st37" d="M237.5,0h12.9v36h-12.9V0z"/>
			</g>
			<g>
				<path d="M157.3,84.3c-0.4-2.1-0.7-4.8-0.7-7.3V65.9c0-1.1-0.4-1.9-1.2-1.9h-1.3v20.3h-5.6V37h7.2c2.8,0,6.3,1.4,6.3,7.5v12.1
					c0,2.2-1.1,3.7-2.5,4.9c1.5,1.2,2.7,2.7,2.7,4.9v10.1c0,3,0.4,5.6,0.8,7.9H157.3z M156.5,44.6c0-1.4-0.4-1.9-1-1.9h-1.4v15.9
					h1.4c0.7,0,1-0.5,1-1.9V44.6z"/>
				<path d="M171,84.9c-3.8,0-6.7-3.3-6.7-8.1V37h5.3v40.2c0,1.1,0.5,1.7,1.4,1.7c0.9,0,1.5-0.7,1.5-1.7V37h5v39.8
					C177.5,81.6,174.9,84.9,171,84.9z"/>
				<path d="M107.1,84.9c-3.8,0-6.8-3.3-6.8-8.1V44.5c0-4.8,3-8.1,6.8-8.1c3.8,0,6.8,3.3,6.8,8.1v11.2l-5.4-1.5V44.1
					c0-1.1-0.5-1.7-1.4-1.7c-0.9,0-1.4,0.6-1.4,1.7v33.1c0,1.1,0.5,1.7,1.4,1.7c0.9,0,1.4-0.7,1.4-1.7V67.1h5.4v9.7
					C113.9,81.6,111,84.9,107.1,84.9z"/>
				<path d="M123.1,84.9c-3.8,0-7-3.3-7-8.1V44.5c0-4.8,3.2-8.1,7-8.1c3.8,0,7,3.3,7,8.1v32.3C130.2,81.6,127,84.9,123.1,84.9z
					 M124.6,44.1c0-1.1-0.5-1.7-1.4-1.7c-0.9,0-1.5,0.6-1.5,1.7v33.1c0,1.1,0.5,1.7,1.5,1.7c0.9,0,1.4-0.7,1.4-1.7V44.1z"/>
				<path d="M141.4,84.3c-0.4-2.1-0.7-4.8-0.7-7.3V65.9c0-1.1-0.4-1.9-1.2-1.9h-1.3v20.3h-5.6V37h7.2c2.8,0,6.3,1.4,6.3,7.5v12.1
					c0,2.2-1.1,3.7-2.5,4.9c1.5,1.2,2.7,2.7,2.7,4.9v10.1c0,3,0.4,5.6,0.8,7.9H141.4z M140.5,44.6c0-1.4-0.4-1.9-1-1.9h-1.4v15.9
					h1.4c0.7,0,1-0.5,1-1.9V44.6z"/>
				<path d="M187.1,64.6h-1.6v19.8H180V37h7.2c2.8,0,6.3,1.4,6.3,7.5v12.7C193.4,63.2,189.9,64.6,187.1,64.6z M187.9,44.6
					c0-1.4-0.4-1.9-1-1.9h-1.4v16.2h1.4c0.7,0,1-0.5,1-1.9V44.6z"/>
				<path d="M201.6,85.1c-3.8,0-6.8-3.3-6.8-8.1V44.7c0-4.8,3-8.1,6.8-8.1c3.8,0,6.8,3.3,6.8,8.1v11.2l-5.4-1.5V44.2
					c0-1.1-0.5-1.7-1.4-1.7c-0.9,0-1.4,0.6-1.4,1.7v33.1c0,1.1,0.5,1.7,1.4,1.7c0.9,0,1.4-0.7,1.4-1.7V67.3h5.4V77
					C208.4,81.7,205.4,85.1,201.6,85.1z"/>
				<path d="M210.9,84.5V37.2h5.6v47.3H210.9z"/>
				<path d="M226.1,36.6c-3.8,0-7,3.3-7,8.1V77c0,4.8,3.2,8.1,7,8.1c3.8,0,7-3.3,7-8.1V44.7C233.1,39.9,229.9,36.6,226.1,36.6z
					 M227.5,77.4c0,1.1-0.5,1.7-1.4,1.7c-0.9,0-1.5-0.7-1.5-1.7V44.2c0-1.1,0.5-1.7,1.5-1.7c0.9,0,1.4,0.6,1.4,1.7V77.4z"/>
				<polygon points="230.2,32.2 222.2,36 222.2,33.9 230.2,30 				"/>
				<path d="M245.8,84.5l-5.7-25.8v25.8h-4.6V37.2h5.6l4.7,26.3V37.2h4.6v47.3H245.8z"/>
			</g>
			<polygon class="st37" points="250.4,84.5 245.8,84.5 100.3,42.8 100.3,36.4 250.4,79.4 			"/>
		</g>
		<polygon class="st37" points="151.8,25.8 0,25.8 2,9.6 153.5,9.6 		"/>
		<text transform="matrix(1 0 0 1 6.6092 21.6309)" class="st9 st39 st40">SECRETARÍA EJECUTIVA</text>
	</g>
</g>
<g id="Layer_2" class="st41">
</g>
</svg>
