<?xml version="1.0" encoding="utf-8"?>
<!-- Generator: Adobe Illustrator 24.3.0, SVG Export Plug-In . SVG Version: 6.00 Build 0)  -->
<svg version="1.1" id="Layer_1" xmlns="http://www.w3.org/2000/svg" xmlns:xlink="http://www.w3.org/1999/xlink" x="0px" y="0px"
	 viewBox="0 0 250.4 85.1" style="enable-background:new 0 0 250.4 85.1;" xml:space="preserve">
<style type="text/css">
	.st0{fill:#00BDFF;}
	.st1{enable-background:new    ;}
	.st2{fill:#FFFFFF;}
	.st3{display:none;}
</style>
<g id="Layer_1_1_">
	<g>
		<g>
			<g>
				<path class="st0" d="M157.1,0h20.5l3.8,36h-12.9V24.5H166V36h-12.7L157.1,0z M164.1,15.1l0.8,1.8l5.8-2.4l-0.8-1.8L164.1,15.1z"
					/>
				<path class="st0" d="M181.9,0h11.6l4.6,14.5l0.8-0.2l-0.6-2.9c-0.5-2.4-1.1-5.1-1.1-7.5V0h12.9v36h-11.6l-4.6-14.5l-0.8,0.2
					l0.6,2.9c0.5,2.4,1.1,5.1,1.1,7.5V36h-12.9V0z"/>
				<path class="st0" d="M236.2,11.4h-6V36h-12.9V11.4h-5.9V0h24.7L236.2,11.4L236.2,11.4z"/>
				<path class="st0" d="M237.5,0h12.9v36h-12.9V0z"/>
			</g>
			<g>
				<path d="M157.3,84.3c-0.4-2.1-0.7-4.8-0.7-7.3V65.9c0-1.1-0.4-1.9-1.2-1.9h-1.3v20.3h-5.6V37h7.2c2.8,0,6.3,1.4,6.3,7.5v12.1
					c0,2.2-1.1,3.7-2.5,4.9c1.5,1.2,2.7,2.7,2.7,4.9v10.1c0,3,0.4,5.6,0.8,7.9L157.3,84.3L157.3,84.3z M156.5,44.6
					c0-1.4-0.4-1.9-1-1.9h-1.4v15.9h1.4c0.7,0,1-0.5,1-1.9V44.6z"/>
				<path d="M171,84.9c-3.8,0-6.7-3.3-6.7-8.1V37h5.3v40.2c0,1.1,0.5,1.7,1.4,1.7s1.5-0.7,1.5-1.7V37h5v39.8
					C177.5,81.6,174.9,84.9,171,84.9z"/>
				<path d="M107.1,84.9c-3.8,0-6.8-3.3-6.8-8.1V44.5c0-4.8,3-8.1,6.8-8.1s6.8,3.3,6.8,8.1v11.2l-5.4-1.5V44.1
					c0-1.1-0.5-1.7-1.4-1.7s-1.4,0.6-1.4,1.7v33.1c0,1.1,0.5,1.7,1.4,1.7s1.4-0.7,1.4-1.7V67.1h5.4v9.7
					C113.9,81.6,111,84.9,107.1,84.9z"/>
				<path d="M123.1,84.9c-3.8,0-7-3.3-7-8.1V44.5c0-4.8,3.2-8.1,7-8.1s7,3.3,7,8.1v32.3C130.2,81.6,127,84.9,123.1,84.9z
					 M124.6,44.1c0-1.1-0.5-1.7-1.4-1.7s-1.5,0.6-1.5,1.7v33.1c0,1.1,0.5,1.7,1.5,1.7c0.9,0,1.4-0.7,1.4-1.7V44.1z"/>
				<path d="M141.4,84.3c-0.4-2.1-0.7-4.8-0.7-7.3V65.9c0-1.1-0.4-1.9-1.2-1.9h-1.3v20.3h-5.6V37h7.2c2.8,0,6.3,1.4,6.3,7.5v12.1
					c0,2.2-1.1,3.7-2.5,4.9c1.5,1.2,2.7,2.7,2.7,4.9v10.1c0,3,0.4,5.6,0.8,7.9L141.4,84.3L141.4,84.3z M140.5,44.6
					c0-1.4-0.4-1.9-1-1.9h-1.4v15.9h1.4c0.7,0,1-0.5,1-1.9V44.6z"/>
				<path d="M187.1,64.6h-1.6v19.8H180V37h7.2c2.8,0,6.3,1.4,6.3,7.5v12.7C193.4,63.2,189.9,64.6,187.1,64.6z M187.9,44.6
					c0-1.4-0.4-1.9-1-1.9h-1.4v16.2h1.4c0.7,0,1-0.5,1-1.9V44.6z"/>
				<path d="M201.6,85.1c-3.8,0-6.8-3.3-6.8-8.1V44.7c0-4.8,3-8.1,6.8-8.1s6.8,3.3,6.8,8.1v11.2l-5.4-1.5V44.2
					c0-1.1-0.5-1.7-1.4-1.7s-1.4,0.6-1.4,1.7v33.1c0,1.1,0.5,1.7,1.4,1.7s1.4-0.7,1.4-1.7v-10h5.4V77
					C208.4,81.7,205.4,85.1,201.6,85.1z"/>
				<path d="M210.9,84.5V37.2h5.6v47.3H210.9z"/>
				<path d="M226.1,36.6c-3.8,0-7,3.3-7,8.1V77c0,4.8,3.2,8.1,7,8.1s7-3.3,7-8.1V44.7C233.1,39.9,229.9,36.6,226.1,36.6z
					 M227.5,77.4c0,1.1-0.5,1.7-1.4,1.7s-1.5-0.7-1.5-1.7V44.2c0-1.1,0.5-1.7,1.5-1.7c0.9,0,1.4,0.6,1.4,1.7V77.4z"/>
				<polygon points="230.2,32.2 222.2,36 222.2,33.9 230.2,30 				"/>
				<path d="M245.8,84.5l-5.7-25.8v25.8h-4.6V37.2h5.6l4.7,26.3V37.2h4.6v47.3H245.8z"/>
			</g>
			<polygon class="st0" points="250.4,84.5 245.8,84.5 100.3,42.8 100.3,36.4 250.4,79.4 			"/>
		</g>
		<polygon class="st0" points="151.8,25.8 0,25.8 2,9.6 153.5,9.6 		"/>
		<g class="st1">
			<path class="st2" d="M11.5,16.8c0-0.1,0-0.2,0-0.3c0-0.2,0-0.4-0.1-0.5c-0.1-0.1-0.2-0.3-0.3-0.4c-0.1-0.1-0.3-0.2-0.4-0.2
				c-0.2,0-0.3-0.1-0.5-0.1c-0.2,0-0.4,0-0.6,0.1c-0.2,0.1-0.4,0.1-0.6,0.2c-0.2,0.1-0.3,0.2-0.4,0.4c-0.1,0.1-0.2,0.3-0.2,0.5
				c0,0.2,0,0.4,0.1,0.5s0.2,0.2,0.3,0.3c0.1,0.1,0.3,0.2,0.5,0.2s0.4,0.1,0.7,0.2c0.6,0.1,1.1,0.3,1.3,0.6c0.3,0.3,0.4,0.7,0.4,1.2
				c0,0.4-0.1,0.7-0.2,1c-0.1,0.3-0.3,0.5-0.6,0.7s-0.5,0.3-0.9,0.4s-0.7,0.1-1.1,0.1c-0.4,0-0.7,0-1-0.1s-0.5-0.2-0.7-0.4
				c-0.2-0.2-0.3-0.4-0.4-0.6c-0.1-0.2-0.1-0.5-0.1-0.8c0-0.2,0-0.4,0.1-0.6l0.1-0.3h0.8l0,0.2c0,0.2-0.1,0.4-0.1,0.5
				c0,0.4,0.1,0.8,0.4,1S8.7,21,9.2,21c0.2,0,0.5,0,0.7-0.1c0.2-0.1,0.4-0.2,0.6-0.3c0.2-0.1,0.3-0.3,0.4-0.4
				c0.1-0.2,0.2-0.4,0.2-0.6c0-0.2,0-0.3-0.1-0.5c-0.1-0.1-0.1-0.2-0.3-0.3c-0.1-0.1-0.3-0.2-0.5-0.2c-0.2-0.1-0.4-0.1-0.7-0.2
				c-0.3,0-0.5-0.1-0.8-0.2S8.2,18,8.1,17.9c-0.2-0.1-0.3-0.3-0.4-0.5S7.6,17,7.6,16.7c0-0.3,0.1-0.6,0.2-0.9
				c0.1-0.3,0.3-0.5,0.6-0.7c0.2-0.2,0.5-0.3,0.9-0.4s0.7-0.1,1.1-0.1c0.3,0,0.6,0,0.9,0.1c0.3,0.1,0.5,0.2,0.7,0.4s0.3,0.3,0.4,0.6
				c0.1,0.2,0.1,0.4,0.1,0.7c0,0.1,0,0.1,0,0.2c0,0.1,0,0.1,0,0.2l-0.1,0.4h-0.8L11.5,16.8z"/>
			<path class="st2" d="M14.4,14.7h3.9v0.8h-3.2l-0.5,2.3h3v0.8h-3.2l-0.5,2.3h3.1v0.8h-4.1L14.4,14.7z"/>
			<path class="st2" d="M21.2,21c0.3,0,0.5,0,0.7-0.1c0.2-0.1,0.4-0.2,0.5-0.4c0.2-0.2,0.3-0.3,0.4-0.5s0.2-0.5,0.3-0.7l0-0.1H24
				l0,0.1c-0.1,0.4-0.2,0.8-0.4,1.1c-0.1,0.3-0.3,0.6-0.6,0.8c-0.2,0.2-0.5,0.4-0.8,0.5c-0.3,0.1-0.7,0.2-1.1,0.2
				c-0.3,0-0.6,0-0.9-0.1c-0.2-0.1-0.4-0.2-0.6-0.4c-0.2-0.2-0.3-0.4-0.4-0.6c-0.1-0.2-0.1-0.5-0.1-0.8c0-0.1,0-0.3,0-0.4
				c0-0.2,0-0.3,0.1-0.5l0.3-1.5c0.2-0.9,0.5-1.6,1-2.1s1.1-0.7,1.9-0.7c0.3,0,0.6,0,0.8,0.1c0.2,0.1,0.5,0.2,0.6,0.4
				c0.2,0.2,0.3,0.4,0.4,0.6s0.1,0.5,0.1,0.7c0,0.2,0,0.4-0.1,0.7l0,0.1h-0.8l0-0.1c0-0.1,0.1-0.2,0.1-0.3c0-0.1,0-0.2,0-0.3
				c0-0.3-0.1-0.6-0.3-0.8c-0.2-0.2-0.5-0.3-1-0.3c-0.3,0-0.5,0.1-0.7,0.2c-0.2,0.1-0.4,0.3-0.6,0.4s-0.3,0.4-0.4,0.7
				c-0.1,0.3-0.2,0.5-0.3,0.9L20,18.9c0,0.2-0.1,0.3-0.1,0.4s0,0.3,0,0.4c0,0.4,0.1,0.8,0.3,1S20.7,21,21.2,21z"/>
			<path class="st2" d="M29.2,21.6h-0.8l0.5-2.3c0-0.1,0-0.1,0-0.2c0-0.1,0-0.2-0.1-0.3c-0.1-0.1-0.2-0.1-0.3-0.1h-2.2l-0.6,2.8
				h-0.8l1.5-6.9h2.3c0.6,0,1,0.1,1.4,0.4c0.3,0.3,0.5,0.7,0.5,1.2c0,0.4-0.1,0.8-0.3,1.1c-0.2,0.3-0.5,0.6-0.9,0.7v0.1
				c0.2,0,0.3,0.1,0.4,0.2c0.1,0.1,0.1,0.2,0.1,0.4c0,0.1,0,0.1,0,0.2L29.2,21.6z M26.4,18H28c0.2,0,0.5,0,0.7-0.1s0.4-0.2,0.5-0.3
				c0.2-0.1,0.3-0.3,0.4-0.5c0.1-0.2,0.1-0.4,0.1-0.6c0-0.3-0.1-0.6-0.3-0.8c-0.2-0.2-0.5-0.3-0.9-0.3H27L26.4,18z"/>
			<path class="st2" d="M32.6,14.7h3.9v0.8h-3.2l-0.5,2.3h3v0.8h-3.2l-0.5,2.3h3.1v0.8h-4.1L32.6,14.7z"/>
			<path class="st2" d="M37.9,14.7h5v0.8h-2l-1.3,6.2h-0.8l1.3-6.2h-2.1V14.7z"/>
			<path class="st2" d="M47.1,19.9h-2.8l-0.8,1.7h-0.9l3.4-6.9h1.6l0.5,6.9h-0.8L47.1,19.9z M44.7,19.1H47l-0.3-4.1h-0.1L44.7,19.1z
				"/>
			<path class="st2" d="M53.4,21.6h-0.8l0.5-2.3c0-0.1,0-0.1,0-0.2c0-0.1,0-0.2-0.1-0.3c-0.1-0.1-0.2-0.1-0.3-0.1h-2.2l-0.6,2.8H49
				l1.5-6.9h2.3c0.6,0,1,0.1,1.4,0.4c0.3,0.3,0.5,0.7,0.5,1.2c0,0.4-0.1,0.8-0.3,1.1c-0.2,0.3-0.5,0.6-0.9,0.7v0.1
				c0.2,0,0.3,0.1,0.4,0.2c0.1,0.1,0.1,0.2,0.1,0.4c0,0.1,0,0.1,0,0.2L53.4,21.6z M50.6,18h1.5c0.2,0,0.5,0,0.7-0.1s0.4-0.2,0.5-0.3
				c0.2-0.1,0.3-0.3,0.4-0.5c0.1-0.2,0.1-0.4,0.1-0.6c0-0.3-0.1-0.6-0.3-0.8c-0.2-0.2-0.5-0.3-0.9-0.3h-1.5L50.6,18z"/>
			<path class="st2" d="M56.5,14.7h4.3v0.8H59l-1.1,5.4h1.7v0.8h-4.3v-0.8h1.7l1.1-5.4h-1.7V14.7z M60.3,12.8L60.3,12.8l-1,1.2h-0.8
				l0.9-1.2H60.3z"/>
			<path class="st2" d="M65.2,19.9h-2.8l-0.8,1.7h-0.9l3.4-6.9h1.6l0.5,6.9h-0.8L65.2,19.9z M62.8,19.1h2.4l-0.3-4.1h-0.1L62.8,19.1
				z"/>
			<path class="st2" d="M74.9,14.7h3.9v0.8h-3.2l-0.5,2.3h3v0.8h-3.2l-0.5,2.3h3.1v0.8h-4.1L74.9,14.7z"/>
			<path class="st2" d="M85.4,15.5h-0.7l-0.9,4.1c-0.1,0.3-0.2,0.6-0.3,0.9c-0.1,0.3-0.3,0.5-0.5,0.7c-0.2,0.2-0.4,0.3-0.7,0.4
				s-0.6,0.1-1,0.1c-0.6,0-1-0.2-1.4-0.5c-0.3-0.3-0.5-0.7-0.5-1.2c0-0.2,0-0.4,0.1-0.5l0.1-0.5h0.8l-0.1,0.5c0,0.2-0.1,0.3-0.1,0.5
				c0,0.6,0.4,0.9,1.1,0.9c0.5,0,0.8-0.1,1.1-0.4s0.4-0.6,0.5-1l0.9-4.1h-0.8v-0.8h2.3V15.5z"/>
			<path class="st2" d="M87,14.7h3.9v0.8h-3.2l-0.5,2.3h3v0.8H87l-0.5,2.3h3.1v0.8h-4.1L87,14.7z"/>
			<path class="st2" d="M93.8,21c0.3,0,0.5,0,0.7-0.1c0.2-0.1,0.4-0.2,0.5-0.4c0.2-0.2,0.3-0.3,0.4-0.5s0.2-0.5,0.3-0.7l0-0.1h0.8
				l0,0.1c-0.1,0.4-0.2,0.8-0.4,1.1c-0.1,0.3-0.3,0.6-0.6,0.8c-0.2,0.2-0.5,0.4-0.8,0.5c-0.3,0.1-0.7,0.2-1.1,0.2
				c-0.3,0-0.6,0-0.9-0.1c-0.2-0.1-0.4-0.2-0.6-0.4c-0.2-0.2-0.3-0.4-0.4-0.6c-0.1-0.2-0.1-0.5-0.1-0.8c0-0.1,0-0.3,0-0.4
				c0-0.2,0-0.3,0.1-0.5l0.3-1.5c0.2-0.9,0.5-1.6,1-2.1s1.1-0.7,1.9-0.7c0.3,0,0.6,0,0.8,0.1c0.2,0.1,0.5,0.2,0.6,0.4
				c0.2,0.2,0.3,0.4,0.4,0.6s0.1,0.5,0.1,0.7c0,0.2,0,0.4-0.1,0.7l0,0.1h-0.8l0-0.1c0-0.1,0.1-0.2,0.1-0.3c0-0.1,0-0.2,0-0.3
				c0-0.3-0.1-0.6-0.3-0.8c-0.2-0.2-0.5-0.3-1-0.3c-0.3,0-0.5,0.1-0.7,0.2c-0.2,0.1-0.4,0.3-0.6,0.4s-0.3,0.4-0.4,0.7
				c-0.1,0.3-0.2,0.5-0.3,0.9l-0.3,1.4c0,0.2-0.1,0.3-0.1,0.4s0,0.3,0,0.4c0,0.4,0.1,0.8,0.3,1S93.3,21,93.8,21z"/>
			<path class="st2" d="M99.6,14.7l-1,4.6c0,0.1,0,0.2,0,0.3c0,0.1,0,0.2,0,0.3c0,0.8,0.4,1.1,1.2,1.1c0.5,0,0.9-0.1,1.2-0.4
				c0.3-0.3,0.5-0.7,0.7-1.3l1-4.6h0.8l-1,4.6c-0.2,0.8-0.5,1.4-0.9,1.9c-0.5,0.4-1.1,0.6-1.9,0.6c-0.3,0-0.5,0-0.8-0.1
				s-0.4-0.2-0.6-0.4c-0.2-0.2-0.3-0.3-0.4-0.6c-0.1-0.2-0.1-0.5-0.1-0.8c0-0.1,0-0.2,0-0.3c0-0.1,0-0.2,0.1-0.4l1-4.5H99.6z"/>
			<path class="st2" d="M104.4,14.7h5v0.8h-2l-1.3,6.2h-0.8l1.3-6.2h-2.1V14.7z"/>
			<path class="st2" d="M110.9,14.7h4.3v0.8h-1.7l-1.1,5.4h1.7v0.8h-4.3v-0.8h1.7l1.1-5.4h-1.7V14.7z"/>
			<path class="st2" d="M116.5,14.7h0.8l0.3,6.6h0.1l3.1-6.6h0.9l-3.3,6.9h-1.6L116.5,14.7z"/>
			<path class="st2" d="M125.7,19.9h-2.8l-0.8,1.7h-0.9l3.4-6.9h1.6l0.5,6.9h-0.8L125.7,19.9z M123.3,19.1h2.4l-0.3-4.1h-0.1
				L123.3,19.1z"/>
		</g>
	</g>
</g>
<g id="Layer_2_1_" class="st3">
</g>
</svg>
