<?xml version="1.0" encoding="utf-8"?>
<!-- Generator: Adobe Illustrator 24.3.0, SVG Export Plug-In . SVG Version: 6.00 Build 0)  -->
<svg version="1.1" id="Layer_1" xmlns="http://www.w3.org/2000/svg" xmlns:xlink="http://www.w3.org/1999/xlink" x="0px" y="0px"
	 viewBox="0 0 218.9 86.5" style="enable-background:new 0 0 218.9 86.5;" xml:space="preserve">
<style type="text/css">
	.st0{fill:#00BDFF;}
	.st1{fill:#FFFFFF;}
	.st2{fill:#8B34F3;}
	.st3{fill:#EC4796;}
	.st4{fill:#FFA630;}
	.st5{fill:#ED4462;}
</style>
<g>
	<polygon class="st5" points="118.6,26.2 0,26.2 2,9.8 120.4,9.8 	"/>
	<g>
		<path class="st1" d="M11.9,17.1c0-0.1,0-0.2,0-0.3c0-0.2,0-0.4-0.1-0.5c-0.1-0.1-0.2-0.3-0.3-0.4c-0.1-0.1-0.3-0.2-0.5-0.2
			s-0.4-0.1-0.5-0.1c-0.2,0-0.4,0-0.7,0.1c-0.2,0.1-0.4,0.1-0.6,0.2C9.1,16,9,16.2,8.9,16.3s-0.2,0.3-0.2,0.5c0,0.2,0,0.4,0.1,0.5
			c0.1,0.1,0.2,0.2,0.3,0.3c0.1,0.1,0.3,0.2,0.5,0.2c0.2,0.1,0.5,0.1,0.7,0.2c0.6,0.1,1.1,0.3,1.4,0.6c0.3,0.3,0.4,0.7,0.4,1.2
			c0,0.4-0.1,0.7-0.2,1c-0.1,0.3-0.3,0.5-0.6,0.7c-0.3,0.2-0.6,0.3-0.9,0.4c-0.3,0.1-0.7,0.2-1.1,0.2c-0.4,0-0.7,0-1-0.1
			c-0.3-0.1-0.5-0.2-0.7-0.4c-0.2-0.2-0.3-0.4-0.4-0.6c-0.1-0.2-0.1-0.5-0.1-0.8c0-0.2,0-0.4,0.1-0.6l0.1-0.3h0.8l0,0.2
			C8,19.7,8,19.9,8,20c0,0.4,0.1,0.8,0.4,1c0.3,0.2,0.7,0.3,1.2,0.3c0.2,0,0.5,0,0.7-0.1s0.4-0.2,0.6-0.3s0.3-0.3,0.4-0.5
			c0.1-0.2,0.2-0.4,0.2-0.6c0-0.2,0-0.3-0.1-0.5c-0.1-0.1-0.1-0.2-0.3-0.3s-0.3-0.2-0.5-0.2c-0.2-0.1-0.5-0.1-0.7-0.2
			c-0.3,0-0.5-0.1-0.8-0.2c-0.2-0.1-0.4-0.2-0.6-0.3S8.1,17.9,8,17.7c-0.1-0.2-0.1-0.4-0.1-0.7c0-0.3,0.1-0.6,0.2-0.9
			c0.1-0.3,0.3-0.5,0.6-0.7c0.2-0.2,0.5-0.3,0.9-0.4c0.3-0.1,0.7-0.1,1.1-0.1c0.3,0,0.7,0,0.9,0.1s0.5,0.2,0.7,0.4s0.3,0.3,0.4,0.6
			c0.1,0.2,0.2,0.4,0.2,0.7c0,0.1,0,0.1,0,0.2c0,0.1,0,0.1,0,0.2l-0.1,0.4h-0.8L11.9,17.1z"/>
		<path class="st1" d="M15.5,15h4.3v0.8h-1.7L17,21.2h1.7V22h-4.3v-0.8h1.7l1.2-5.5h-1.7V15z"/>
		<path class="st1" d="M26.2,17.1c0-0.1,0-0.2,0-0.3c0-0.2,0-0.4-0.1-0.5c-0.1-0.1-0.2-0.3-0.3-0.4c-0.1-0.1-0.3-0.2-0.5-0.2
			s-0.4-0.1-0.5-0.1c-0.2,0-0.4,0-0.7,0.1c-0.2,0.1-0.4,0.1-0.6,0.2c-0.2,0.1-0.3,0.2-0.4,0.4S23,16.6,23,16.8c0,0.2,0,0.4,0.1,0.5
			c0.1,0.1,0.2,0.2,0.3,0.3c0.1,0.1,0.3,0.2,0.5,0.2c0.2,0.1,0.5,0.1,0.7,0.2c0.6,0.1,1.1,0.3,1.4,0.6c0.3,0.3,0.4,0.7,0.4,1.2
			c0,0.4-0.1,0.7-0.2,1c-0.1,0.3-0.3,0.5-0.6,0.7c-0.3,0.2-0.6,0.3-0.9,0.4c-0.3,0.1-0.7,0.2-1.1,0.2c-0.4,0-0.7,0-1-0.1
			c-0.3-0.1-0.5-0.2-0.7-0.4c-0.2-0.2-0.3-0.4-0.4-0.6c-0.1-0.2-0.1-0.5-0.1-0.8c0-0.2,0-0.4,0.1-0.6l0.1-0.3h0.8l0,0.2
			c0,0.2-0.1,0.4-0.1,0.6c0,0.4,0.1,0.8,0.4,1c0.3,0.2,0.7,0.3,1.2,0.3c0.2,0,0.5,0,0.7-0.1s0.4-0.2,0.6-0.3s0.3-0.3,0.4-0.5
			c0.1-0.2,0.2-0.4,0.2-0.6c0-0.2,0-0.3-0.1-0.5c-0.1-0.1-0.1-0.2-0.3-0.3s-0.3-0.2-0.5-0.2c-0.2-0.1-0.5-0.1-0.7-0.2
			c-0.3,0-0.5-0.1-0.8-0.2c-0.2-0.1-0.4-0.2-0.6-0.3s-0.3-0.3-0.4-0.5c-0.1-0.2-0.1-0.4-0.1-0.7c0-0.3,0.1-0.6,0.2-0.9
			c0.1-0.3,0.3-0.5,0.6-0.7c0.2-0.2,0.5-0.3,0.9-0.4c0.3-0.1,0.7-0.1,1.1-0.1c0.3,0,0.7,0,0.9,0.1s0.5,0.2,0.7,0.4s0.3,0.3,0.4,0.6
			c0.1,0.2,0.2,0.4,0.2,0.7c0,0.1,0,0.1,0,0.2c0,0.1,0,0.1,0,0.2L27,17.3h-0.8L26.2,17.1z"/>
		<path class="st1" d="M29.4,15h5.1v0.8h-2L31.1,22h-0.8l1.3-6.3h-2.2V15z"/>
		<path class="st1" d="M37.3,15h4v0.8H38l-0.5,2.3h3.1v0.8h-3.2l-0.5,2.4H40V22h-4.2L37.3,15z"/>
		<path class="st1" d="M44,15h1.6L45,21.6h0.1l2.2-6.7H49l-1.5,7h-0.8l1.4-6.7H48L45.8,22h-1.5l0.6-6.7h-0.1L43.3,22h-0.8L44,15z"/>
		<path class="st1" d="M54,20.2h-2.8L50.4,22h-1l3.5-7h1.6l0.5,7h-0.9L54,20.2z M51.6,19.5H54l-0.3-4.1h-0.1L51.6,19.5z"/>
		<path class="st1" d="M65.9,15h4v0.8h-3.3l-0.5,2.3h3.1v0.8h-3.2l-0.5,2.4h3.2V22h-4.2L65.9,15z"/>
		<path class="st1" d="M76.3,17.1c0-0.1,0-0.2,0-0.3c0-0.2,0-0.4-0.1-0.5c-0.1-0.1-0.2-0.3-0.3-0.4c-0.1-0.1-0.3-0.2-0.5-0.2
			s-0.4-0.1-0.5-0.1c-0.2,0-0.4,0-0.7,0.1c-0.2,0.1-0.4,0.1-0.6,0.2c-0.2,0.1-0.3,0.2-0.4,0.4s-0.2,0.3-0.2,0.5c0,0.2,0,0.4,0.1,0.5
			c0.1,0.1,0.2,0.2,0.3,0.3c0.1,0.1,0.3,0.2,0.5,0.2c0.2,0.1,0.5,0.1,0.7,0.2c0.6,0.1,1.1,0.3,1.4,0.6c0.3,0.3,0.4,0.7,0.4,1.2
			c0,0.4-0.1,0.7-0.2,1c-0.1,0.3-0.3,0.5-0.6,0.7c-0.3,0.2-0.6,0.3-0.9,0.4c-0.3,0.1-0.7,0.2-1.1,0.2c-0.4,0-0.7,0-1-0.1
			c-0.3-0.1-0.5-0.2-0.7-0.4c-0.2-0.2-0.3-0.4-0.4-0.6c-0.1-0.2-0.1-0.5-0.1-0.8c0-0.2,0-0.4,0.1-0.6l0.1-0.3h0.8l0,0.2
			c0,0.2-0.1,0.4-0.1,0.6c0,0.4,0.1,0.8,0.4,1c0.3,0.2,0.7,0.3,1.2,0.3c0.2,0,0.5,0,0.7-0.1s0.4-0.2,0.6-0.3s0.3-0.3,0.4-0.5
			c0.1-0.2,0.2-0.4,0.2-0.6c0-0.2,0-0.3-0.1-0.5c-0.1-0.1-0.1-0.2-0.3-0.3s-0.3-0.2-0.5-0.2c-0.2-0.1-0.5-0.1-0.7-0.2
			c-0.3,0-0.5-0.1-0.8-0.2c-0.2-0.1-0.4-0.2-0.6-0.3s-0.3-0.3-0.4-0.5c-0.1-0.2-0.1-0.4-0.1-0.7c0-0.3,0.1-0.6,0.2-0.9
			c0.1-0.3,0.3-0.5,0.6-0.7c0.2-0.2,0.5-0.3,0.9-0.4c0.3-0.1,0.7-0.1,1.1-0.1c0.3,0,0.7,0,0.9,0.1s0.5,0.2,0.7,0.4s0.3,0.3,0.4,0.6
			c0.1,0.2,0.2,0.4,0.2,0.7c0,0.1,0,0.1,0,0.2c0,0.1,0,0.1,0,0.2l-0.1,0.4h-0.8L76.3,17.1z"/>
		<path class="st1" d="M79.5,15h5.1v0.8h-2L81.2,22h-0.8l1.3-6.3h-2.2V15z"/>
		<path class="st1" d="M89.8,20.2H87L86.1,22h-1l3.5-7h1.6l0.5,7h-0.9L89.8,20.2z M87.4,19.5h2.4l-0.3-4.1h-0.1L87.4,19.5z"/>
		<path class="st1" d="M93.8,15h5.1v0.8h-2L95.5,22h-0.8l1.3-6.3h-2.2V15z"/>
		<path class="st1" d="M104.1,20.2h-2.8l-0.9,1.7h-1l3.5-7h1.6l0.5,7h-0.9L104.1,20.2z M101.7,19.5h2.4l-0.3-4.1h-0.1L101.7,19.5z"
			/>
		<path class="st1" d="M108.8,15h0.8l-1.3,6.3h3.6V22h-4.6L108.8,15z"/>
	</g>
	<g>
		<path class="st5" d="M124.1,0h20.8l3.9,36.6h-13.1V24.9h-2.5v11.8h-12.9L124.1,0z M131.2,15.4l0.8,1.9l5.8-2.5l-0.8-1.9
			L131.2,15.4z"/>
		<path class="st5" d="M149.3,0h11.8l4.7,14.8l0.8-0.2l-0.6-3c-0.5-2.4-1.1-5.1-1.1-7.6V0H178v36.6h-11.8l-4.7-14.8l-0.8,0.2l0.6,3
			c0.5,2.4,1.1,5.2,1.1,7.7v4h-13.1V0z"/>
		<path class="st5" d="M204.9,11.6h-6.4v25h-13.1v-25h-6.4V0h25.9V11.6z"/>
		<path class="st5" d="M205.8,0h13.1v36.6h-13.1V0z"/>
	</g>
	<g>
		<path class="st1" d="M124.3,85.7c-0.4-2.1-0.7-4.9-0.7-7.5V67c0-1.1-0.4-1.9-1.3-1.9H121v20.7h-5.7V37.6h7.3
			c2.8,0,6.4,1.4,6.4,7.6v12.3c0,2.3-1.1,3.7-2.6,5c1.5,1.3,2.7,2.7,2.7,5v10.2c0,3.1,0.4,5.7,0.8,8.1H124.3z M123.5,45.3
			c0-1.4-0.4-1.9-1-1.9H121v16.2h1.4c0.7,0,1-0.5,1-1.9V45.3z"/>
		<path class="st1" d="M138.2,86.3c-3.9,0-6.8-3.4-6.8-8.2V37.6h5.4v40.9c0,1.1,0.5,1.7,1.4,1.7c1,0,1.5-0.7,1.5-1.7V37.6h5.1v40.5
			C144.9,83,142.2,86.3,138.2,86.3z"/>
		<path class="st1" d="M73.3,86.3c-3.9,0-6.9-3.4-6.9-8.2V45.3c0-4.9,3-8.2,6.9-8.2c3.9,0,6.9,3.4,6.9,8.2v11.4l-5.5-1.6V44.9
			c0-1.1-0.5-1.7-1.4-1.7s-1.4,0.7-1.4,1.7v33.7c0,1.1,0.5,1.7,1.4,1.7s1.4-0.7,1.4-1.7V68.3h5.5v9.9C80.2,83,77.2,86.3,73.3,86.3z"
			/>
		<path class="st1" d="M89.6,86.3c-3.9,0-7.2-3.4-7.2-8.2V45.3c0-4.9,3.2-8.2,7.2-8.2c3.9,0,7.2,3.4,7.2,8.2v32.8
			C96.7,83,93.5,86.3,89.6,86.3z M91,44.9c0-1.1-0.5-1.7-1.4-1.7c-1,0-1.5,0.7-1.5,1.7v33.7c0,1.1,0.5,1.7,1.5,1.7
			c0.9,0,1.4-0.7,1.4-1.7V44.9z"/>
		<path class="st1" d="M108.1,85.7c-0.4-2.1-0.7-4.9-0.7-7.5V67c0-1.1-0.4-1.9-1.3-1.9h-1.3v20.7h-5.7V37.6h7.3
			c2.8,0,6.4,1.4,6.4,7.6v12.3c0,2.3-1.1,3.7-2.6,5c1.5,1.3,2.7,2.7,2.7,5v10.2c0,3.1,0.4,5.7,0.8,8.1H108.1z M107.2,45.3
			c0-1.4-0.4-1.9-1-1.9h-1.4v16.2h1.4c0.7,0,1-0.5,1-1.9V45.3z"/>
		<path class="st1" d="M154.6,65.7H153v20.1h-5.7V37.6h7.3c2.8,0,6.4,1.4,6.4,7.6v12.9C161,64.2,157.4,65.7,154.6,65.7z M155.4,45.3
			c0-1.4-0.4-1.9-1-1.9H153v16.5h1.4c0.7,0,1-0.5,1-1.9V45.3z"/>
		<path class="st1" d="M169.3,86.5c-3.9,0-6.9-3.4-6.9-8.2V45.4c0-4.9,3-8.2,6.9-8.2s6.9,3.4,6.9,8.2v11.4l-5.5-1.6V45
			c0-1.1-0.5-1.7-1.4-1.7s-1.4,0.7-1.4,1.7v33.7c0,1.1,0.5,1.7,1.4,1.7s1.4-0.7,1.4-1.7V68.4h5.5v9.9
			C176.2,83.1,173.2,86.5,169.3,86.5z"/>
		<path class="st1" d="M178.8,85.9V37.8h5.7v48.1H178.8z"/>
		<path class="st1" d="M194.2,37.2c-3.9,0-7.2,3.4-7.2,8.2v32.8c0,4.9,3.2,8.2,7.2,8.2c3.9,0,7.2-3.4,7.2-8.2V45.4
			C201.4,40.5,198.1,37.2,194.2,37.2z M195.7,78.7c0,1.1-0.5,1.7-1.4,1.7c-1,0-1.5-0.7-1.5-1.7V45c0-1.1,0.5-1.7,1.5-1.7
			c0.9,0,1.4,0.7,1.4,1.7V78.7z"/>
		<polygon class="st1" points="198.4,32.7 190.2,36.6 190.2,34.4 198.4,30.5 		"/>
		<path class="st1" d="M214.2,85.9l-5.8-26.3v26.3h-4.7V37.8h5.7l4.8,26.7V37.8h4.6v48.1H214.2z"/>
	</g>
	<polygon class="st5" points="218.9,85.9 214.2,85.9 66.4,43.5 66.3,37 218.9,80.7 	"/>
</g>
</svg>
