<?xml version="1.0" encoding="utf-8"?>
<!-- Generator: Adobe Illustrator 24.3.0, SVG Export Plug-In . SVG Version: 6.00 Build 0)  -->
<svg version="1.1" xmlns="http://www.w3.org/2000/svg" xmlns:xlink="http://www.w3.org/1999/xlink" x="0px" y="0px"
	 viewBox="0 0 234 84.9" style="enable-background:new 0 0 234 84.9;" xml:space="preserve">
<style type="text/css">
	.st0{clip-path:url(#SVGID_2_);}
	.st1{clip-path:url(#SVGID_4_);fill:#1A1B2F;}
	.st2{clip-path:url(#SVGID_6_);}
	.st3{clip-path:url(#SVGID_8_);fill:#F1748A;}
	.st4{fill:#F1748A;}
	.st5{fill:#FDD56F;}
	.st6{fill:#EC4796;}
	.st7{clip-path:url(#SVGID_10_);}
	.st8{clip-path:url(#SVGID_12_);fill:#F1748A;}
	.st9{fill:#FFFFFF;}
	.st10{fill:none;stroke:#EC4796;stroke-width:2;stroke-miterlimit:10;}
	.st11{fill:none;stroke:#F1748A;stroke-width:2;stroke-miterlimit:10;}
	.st12{fill:none;stroke:#FFFFFF;stroke-width:1.9929;stroke-miterlimit:10;}
	.st13{fill:none;stroke:#1A1B2F;stroke-width:2.2288;stroke-miterlimit:10;}
	.st14{fill:#1A1B2F;}
	.st15{clip-path:url(#SVGID_14_);}
	.st16{fill:#FFD1C2;}
	.st17{fill:#D69241;}
	.st18{fill:#6CBFAD;}
	.st19{fill:#1C2021;}
	.st20{fill:#F78271;}
	.st21{clip-path:url(#SVGID_16_);}
	.st22{fill:#853C2B;}
	.st23{clip-path:url(#SVGID_18_);}
	.st24{fill:#FECA9A;}
	.st25{clip-path:url(#SVGID_20_);}
	.st26{fill:none;stroke:#1C2021;stroke-width:3.8694;stroke-miterlimit:10;}
	.st27{clip-path:url(#SVGID_22_);}
	.st28{clip-path:url(#SVGID_24_);}
	.st29{clip-path:url(#SVGID_26_);}
	.st30{clip-path:url(#SVGID_28_);}
	.st31{clip-path:url(#SVGID_30_);}
	.st32{clip-path:url(#SVGID_32_);}
	.st33{clip-path:url(#SVGID_34_);}
	.st34{clip-path:url(#SVGID_36_);fill:#FDD56F;}
	.st35{fill:none;stroke:#1C2021;stroke-width:5.7091;stroke-miterlimit:10;}
	.st36{fill:#ED4462;}
	.st37{fill:#00BDFF;}
	.st38{fill:#FFA630;}
	.st39{font-family:'SpaceMono-Italic';}
	.st40{font-size:9.8676px;}
	.st41{letter-spacing:0.9;}
	.st42{display:none;}
	.st43{display:inline;fill:#606060;}
</style>
<g id="Layer_1">
	<g>
		<polygon class="st36" points="126.8,25.8 0,25.8 2.1,9.6 128.7,9.6 		"/>
		<text transform="matrix(1.0888 0 0 1 7.3414 21.583)" class="st9 st39 st40 st41">SISTEMA ESTATAL</text>
		<g>
			<path class="st36" d="M132.7,0h22.2l4.2,36h-14V24.4h-2.7V36h-13.8L132.7,0z M140.2,15.1l0.8,1.8l6.2-2.4l-0.8-1.8L140.2,15.1z"
				/>
			<path class="st36" d="M159.6,0h12.6l5,14.5l0.8-0.2l-0.7-2.9c-0.5-2.3-1.2-5.1-1.2-7.5V0h14v36h-12.6l-5-14.5l-0.8,0.2l0.7,2.9
				c0.5,2.3,1.2,5.1,1.2,7.5V36h-14V0z"/>
			<path class="st36" d="M219,11.4h-6.9V36h-14V11.4h-6.8V0H219V11.4z"/>
			<path class="st36" d="M220,0h14v36h-14V0z"/>
		</g>
		<g>
			<path class="st9" d="M132.8,84.2c-0.4-2.1-0.8-4.8-0.8-7.3V65.8c0-1.1-0.4-1.9-1.3-1.9h-1.4v20.3h-6V37h7.8c3,0,6.8,1.4,6.8,7.4
				v12c0,2.2-1.2,3.7-2.8,4.9c1.6,1.2,2.9,2.7,2.9,4.9v10c0,3,0.4,5.6,0.8,7.9H132.8z M131.9,44.5c0-1.4-0.4-1.9-1.1-1.9h-1.5v15.9
				h1.5c0.7,0,1.1-0.5,1.1-1.9V44.5z"/>
			<path class="st9" d="M147.8,84.8c-4.2,0-7.3-3.3-7.3-8.1V37h5.7v40.1c0,1.1,0.6,1.7,1.5,1.7c1,0,1.6-0.7,1.6-1.7V37h5.5v39.7
				C154.8,81.5,151.9,84.8,147.8,84.8z"/>
			<path class="st9" d="M78.3,84.8c-4.2,0-7.4-3.3-7.4-8.1V44.5c0-4.8,3.2-8.1,7.4-8.1c4.2,0,7.4,3.3,7.4,8.1v11.2l-5.8-1.5V44
				c0-1.1-0.6-1.7-1.5-1.7c-1,0-1.5,0.6-1.5,1.7v33.1c0,1.1,0.6,1.7,1.5,1.7c1,0,1.5-0.7,1.5-1.7V67h5.8v9.7
				C85.7,81.5,82.5,84.8,78.3,84.8z"/>
			<path class="st9" d="M95.7,84.8c-4.2,0-7.6-3.3-7.6-8.1V44.5c0-4.8,3.5-8.1,7.6-8.1c4.2,0,7.6,3.3,7.6,8.1v32.2
				C103.4,81.5,99.9,84.8,95.7,84.8z M97.3,44c0-1.1-0.6-1.7-1.5-1.7c-1,0-1.6,0.6-1.6,1.7v33.1c0,1.1,0.6,1.7,1.6,1.7
				c1,0,1.5-0.7,1.5-1.7V44z"/>
			<path class="st9" d="M115.5,84.2c-0.4-2.1-0.8-4.8-0.8-7.3V65.8c0-1.1-0.4-1.9-1.3-1.9H112v20.3h-6V37h7.8c3,0,6.8,1.4,6.8,7.4
				v12c0,2.2-1.2,3.7-2.8,4.9c1.6,1.2,2.9,2.7,2.9,4.9v10c0,3,0.4,5.6,0.8,7.9H115.5z M114.6,44.5c0-1.4-0.4-1.9-1.1-1.9H112v15.9
				h1.5c0.7,0,1.1-0.5,1.1-1.9V44.5z"/>
			<path class="st9" d="M165.2,64.5h-1.7v19.7h-6V37h7.8c3,0,6.8,1.4,6.8,7.4v12.7C172,63,168.2,64.5,165.2,64.5z M166.1,44.5
				c0-1.4-0.4-1.9-1.1-1.9h-1.5v16.2h1.5c0.7,0,1.1-0.5,1.1-1.9V44.5z"/>
			<path class="st9" d="M181,84.9c-4.2,0-7.4-3.3-7.4-8.1V44.6c0-4.8,3.2-8.1,7.4-8.1c4.2,0,7.4,3.3,7.4,8.1v11.2l-5.8-1.5V44.2
				c0-1.1-0.6-1.7-1.5-1.7s-1.5,0.6-1.5,1.7v33.1c0,1.1,0.6,1.7,1.5,1.7s1.5-0.7,1.5-1.7V67.1h5.8v9.7
				C188.4,81.6,185.1,84.9,181,84.9z"/>
			<path class="st9" d="M191.1,84.3V37.1h6v47.2H191.1z"/>
			<path class="st9" d="M207.6,36.5c-4.2,0-7.6,3.3-7.6,8.1v32.2c0,4.8,3.5,8.1,7.6,8.1c4.2,0,7.6-3.3,7.6-8.1V44.6
				C215.2,39.8,211.7,36.5,207.6,36.5z M209.1,77.2c0,1.1-0.6,1.7-1.5,1.7c-1,0-1.6-0.6-1.6-1.7V44.2c0-1.1,0.6-1.7,1.6-1.7
				c1,0,1.5,0.6,1.5,1.7V77.2z"/>
			<polygon class="st9" points="212.1,32.1 203.3,36 203.3,33.8 212.1,29.9 			"/>
			<path class="st9" d="M229,84.3l-6.2-25.8v25.8h-5V37.1h6.1l5.1,26.2V37.1h4.9v47.2H229z"/>
		</g>
		<polygon class="st36" points="234,84.3 229,84.3 70.9,42.7 70.9,36.4 234,79.2 		"/>
	</g>
</g>
<g id="Layer_2" class="st42">
</g>
</svg>
