<?xml version="1.0" encoding="utf-8"?>
<!-- Generator: Adobe Illustrator 24.3.0, SVG Export Plug-In . SVG Version: 6.00 Build 0)  -->
<svg version="1.1" id="Layer_1" xmlns="http://www.w3.org/2000/svg" xmlns:xlink="http://www.w3.org/1999/xlink" x="0px" y="0px"
	 viewBox="0 0 234 84.9" style="enable-background:new 0 0 234 84.9;" xml:space="preserve">
<style type="text/css">
	.st0{fill:#ED4462;}
	.st1{enable-background:new    ;}
	.st2{fill:#FFFFFF;}
	.st3{display:none;}
</style>
<g id="Layer_1_1_">
	<g>
		<polygon class="st0" points="126.8,25.8 0,25.8 2.1,9.6 128.7,9.6 		"/>
		<g class="st1">
			<path class="st2" d="M12.7,16.8c0-0.1,0-0.2,0-0.3c0-0.2,0-0.4-0.1-0.5c-0.1-0.1-0.2-0.3-0.3-0.4c-0.1-0.1-0.3-0.2-0.5-0.2
				s-0.4-0.1-0.6-0.1c-0.2,0-0.5,0-0.7,0.1c-0.2,0.1-0.4,0.1-0.6,0.2c-0.2,0.1-0.3,0.2-0.4,0.4c-0.1,0.1-0.2,0.3-0.2,0.5
				c0,0.2,0,0.4,0.1,0.5c0.1,0.1,0.2,0.2,0.4,0.3c0.2,0.1,0.3,0.2,0.6,0.2c0.2,0.1,0.5,0.1,0.8,0.2c0.7,0.1,1.1,0.3,1.5,0.6
				c0.3,0.3,0.5,0.7,0.5,1.2c0,0.4-0.1,0.7-0.2,1c-0.2,0.3-0.4,0.5-0.6,0.7c-0.3,0.2-0.6,0.3-1,0.4c-0.4,0.1-0.8,0.1-1.2,0.1
				c-0.4,0-0.8,0-1.1-0.1c-0.3-0.1-0.6-0.2-0.8-0.4C8,21,7.8,20.8,7.7,20.6s-0.2-0.5-0.2-0.8c0-0.2,0-0.4,0.1-0.6l0.1-0.3h0.9
				l-0.1,0.2c0,0.2-0.1,0.4-0.1,0.5c0,0.4,0.1,0.8,0.4,1c0.3,0.2,0.7,0.3,1.2,0.3c0.3,0,0.5,0,0.7-0.1c0.2-0.1,0.5-0.2,0.6-0.3
				c0.2-0.1,0.3-0.3,0.4-0.4c0.1-0.2,0.2-0.4,0.2-0.6c0-0.2,0-0.3-0.1-0.5c-0.1-0.1-0.2-0.2-0.3-0.3c-0.1-0.1-0.3-0.2-0.5-0.2
				c-0.2-0.1-0.5-0.1-0.8-0.2c-0.3,0-0.6-0.1-0.8-0.2S9.1,18,8.9,17.8c-0.2-0.1-0.3-0.3-0.4-0.5c-0.1-0.2-0.2-0.4-0.2-0.7
				c0-0.3,0.1-0.6,0.2-0.9s0.4-0.5,0.6-0.7c0.3-0.2,0.6-0.3,0.9-0.4s0.7-0.1,1.1-0.1c0.4,0,0.7,0,1,0.1c0.3,0.1,0.5,0.2,0.7,0.4
				c0.2,0.2,0.4,0.3,0.5,0.6c0.1,0.2,0.2,0.4,0.2,0.7c0,0.1,0,0.1,0,0.2c0,0.1,0,0.1,0,0.2L13.5,17h-0.9L12.7,16.8z"/>
			<path class="st2" d="M16.5,14.7h4.6v0.8h-1.9L18,20.8h1.9v0.8h-4.6v-0.8h1.9l1.2-5.4h-1.9V14.7z"/>
			<path class="st2" d="M27.8,16.8c0-0.1,0-0.2,0-0.3c0-0.2,0-0.4-0.1-0.5c-0.1-0.1-0.2-0.3-0.3-0.4c-0.1-0.1-0.3-0.2-0.5-0.2
				s-0.4-0.1-0.6-0.1c-0.2,0-0.5,0-0.7,0.1c-0.2,0.1-0.4,0.1-0.6,0.2c-0.2,0.1-0.3,0.2-0.4,0.4c-0.1,0.1-0.2,0.3-0.2,0.5
				c0,0.2,0,0.4,0.1,0.5c0.1,0.1,0.2,0.2,0.4,0.3c0.2,0.1,0.3,0.2,0.6,0.2c0.2,0.1,0.5,0.1,0.8,0.2c0.7,0.1,1.1,0.3,1.5,0.6
				c0.3,0.3,0.5,0.7,0.5,1.2c0,0.4-0.1,0.7-0.2,1c-0.2,0.3-0.4,0.5-0.6,0.7c-0.3,0.2-0.6,0.3-1,0.4c-0.4,0.1-0.8,0.1-1.2,0.1
				c-0.4,0-0.8,0-1.1-0.1c-0.3-0.1-0.6-0.2-0.8-0.4c-0.2-0.2-0.4-0.4-0.5-0.6s-0.2-0.5-0.2-0.8c0-0.2,0-0.4,0.1-0.6l0.1-0.3h0.9
				l-0.1,0.2c0,0.2-0.1,0.4-0.1,0.5c0,0.4,0.1,0.8,0.4,1c0.3,0.2,0.7,0.3,1.2,0.3c0.3,0,0.5,0,0.7-0.1c0.2-0.1,0.5-0.2,0.6-0.3
				c0.2-0.1,0.3-0.3,0.4-0.4c0.1-0.2,0.2-0.4,0.2-0.6c0-0.2,0-0.3-0.1-0.5c-0.1-0.1-0.2-0.2-0.3-0.3c-0.1-0.1-0.3-0.2-0.5-0.2
				c-0.2-0.1-0.5-0.1-0.8-0.2c-0.3,0-0.6-0.1-0.8-0.2S24.2,18,24,17.8c-0.2-0.1-0.3-0.3-0.4-0.5c-0.1-0.2-0.2-0.4-0.2-0.7
				c0-0.3,0.1-0.6,0.2-0.9s0.4-0.5,0.6-0.7c0.3-0.2,0.6-0.3,0.9-0.4s0.7-0.1,1.1-0.1c0.4,0,0.7,0,1,0.1c0.3,0.1,0.5,0.2,0.7,0.4
				c0.2,0.2,0.4,0.3,0.5,0.6c0.1,0.2,0.2,0.4,0.2,0.7c0,0.1,0,0.1,0,0.2c0,0.1,0,0.1,0,0.2L28.6,17h-0.9L27.8,16.8z"/>
			<path class="st2" d="M31.1,14.7h5.4v0.8h-2.2l-1.4,6.1H32l1.4-6.1h-2.3V14.7z"/>
			<path class="st2" d="M39.5,14.7h4.2v0.8h-3.5l-0.5,2.3h3.3v0.8h-3.5l-0.5,2.3h3.4v0.8h-4.5L39.5,14.7z"/>
			<path class="st2" d="M46.5,14.7h1.7l-0.6,6.6h0.1l2.4-6.6h1.8l-1.6,6.9h-0.8l1.5-6.6h-0.1l-2.4,6.6h-1.7l0.6-6.6h-0.1l-1.5,6.6
				h-0.8L46.5,14.7z"/>
			<path class="st2" d="M57.2,19.9h-3l-0.9,1.7h-1l3.7-6.9h1.7l0.5,6.9h-0.9L57.2,19.9z M54.5,19.1h2.6L56.8,15h-0.1L54.5,19.1z"/>
			<path class="st2" d="M69.7,14.7h4.2v0.8h-3.5l-0.5,2.3h3.3v0.8h-3.5l-0.5,2.3h3.4v0.8h-4.5L69.7,14.7z"/>
			<path class="st2" d="M80.7,16.8c0-0.1,0-0.2,0-0.3c0-0.2,0-0.4-0.1-0.5c-0.1-0.1-0.2-0.3-0.3-0.4c-0.1-0.1-0.3-0.2-0.5-0.2
				s-0.4-0.1-0.6-0.1c-0.2,0-0.5,0-0.7,0.1c-0.2,0.1-0.4,0.1-0.6,0.2c-0.2,0.1-0.3,0.2-0.4,0.4c-0.1,0.1-0.2,0.3-0.2,0.5
				c0,0.2,0,0.4,0.1,0.5c0.1,0.1,0.2,0.2,0.4,0.3c0.2,0.1,0.3,0.2,0.6,0.2c0.2,0.1,0.5,0.1,0.8,0.2c0.7,0.1,1.1,0.3,1.5,0.6
				c0.3,0.3,0.5,0.7,0.5,1.2c0,0.4-0.1,0.7-0.2,1c-0.2,0.3-0.4,0.5-0.6,0.7c-0.3,0.2-0.6,0.3-1,0.4c-0.4,0.1-0.8,0.1-1.2,0.1
				c-0.4,0-0.8,0-1.1-0.1c-0.3-0.1-0.6-0.2-0.8-0.4c-0.2-0.2-0.4-0.4-0.5-0.6s-0.2-0.5-0.2-0.8c0-0.2,0-0.4,0.1-0.6l0.1-0.3h0.9
				l-0.1,0.2c0,0.2-0.1,0.4-0.1,0.5c0,0.4,0.1,0.8,0.4,1c0.3,0.2,0.7,0.3,1.2,0.3c0.3,0,0.5,0,0.7-0.1c0.2-0.1,0.5-0.2,0.6-0.3
				c0.2-0.1,0.3-0.3,0.4-0.4c0.1-0.2,0.2-0.4,0.2-0.6c0-0.2,0-0.3-0.1-0.5c-0.1-0.1-0.2-0.2-0.3-0.3c-0.1-0.1-0.3-0.2-0.5-0.2
				c-0.2-0.1-0.5-0.1-0.8-0.2c-0.3,0-0.6-0.1-0.8-0.2s-0.5-0.2-0.6-0.3c-0.2-0.1-0.3-0.3-0.4-0.5c-0.1-0.2-0.2-0.4-0.2-0.7
				c0-0.3,0.1-0.6,0.2-0.9s0.4-0.5,0.6-0.7c0.3-0.2,0.6-0.3,0.9-0.4s0.7-0.1,1.1-0.1c0.4,0,0.7,0,1,0.1c0.3,0.1,0.5,0.2,0.7,0.4
				c0.2,0.2,0.4,0.3,0.5,0.6c0.1,0.2,0.2,0.4,0.2,0.7c0,0.1,0,0.1,0,0.2c0,0.1,0,0.1,0,0.2L81.5,17h-0.9L80.7,16.8z"/>
			<path class="st2" d="M84,14.7h5.4v0.8h-2.2l-1.4,6.1h-0.9l1.4-6.1H84V14.7z"/>
			<path class="st2" d="M94.9,19.9h-3L91,21.6h-1l3.7-6.9h1.7l0.5,6.9H95L94.9,19.9z M92.3,19.1h2.6L94.6,15h-0.1L92.3,19.1z"/>
			<path class="st2" d="M99.1,14.7h5.4v0.8h-2.2l-1.4,6.1H100l1.4-6.1h-2.3V14.7z"/>
			<path class="st2" d="M110,19.9h-3l-0.9,1.7h-1l3.7-6.9h1.7l0.5,6.9h-0.9L110,19.9z M107.4,19.1h2.6l-0.3-4.1h-0.1L107.4,19.1z"/>
			<path class="st2" d="M114.9,14.7h0.9l-1.4,6.1h3.9v0.8h-5L114.9,14.7z"/>
		</g>
		<g>
			<path class="st0" d="M132.7,0h22.2l4.2,36h-14V24.4h-2.7V36h-13.8L132.7,0z M140.2,15.1l0.8,1.8l6.2-2.4l-0.8-1.8L140.2,15.1z"/>
			<path class="st0" d="M159.6,0h12.6l5,14.5l0.8-0.2l-0.7-2.9c-0.5-2.3-1.2-5.1-1.2-7.5V0h14v36h-12.6l-5-14.5l-0.8,0.2l0.7,2.9
				c0.5,2.3,1.2,5.1,1.2,7.5V36h-14V0z"/>
			<path class="st0" d="M219,11.4h-6.9V36h-14V11.4h-6.8V0H219V11.4z"/>
			<path class="st0" d="M220,0h14v36h-14V0z"/>
		</g>
		<g>
			<path class="st2" d="M132.8,84.2c-0.4-2.1-0.8-4.8-0.8-7.3V65.8c0-1.1-0.4-1.9-1.3-1.9h-1.4v20.3h-6V37h7.8c3,0,6.8,1.4,6.8,7.4
				v12c0,2.2-1.2,3.7-2.8,4.9c1.6,1.2,2.9,2.7,2.9,4.9v10c0,3,0.4,5.6,0.8,7.9L132.8,84.2L132.8,84.2z M131.9,44.5
				c0-1.4-0.4-1.9-1.1-1.9h-1.5v15.9h1.5c0.7,0,1.1-0.5,1.1-1.9V44.5z"/>
			<path class="st2" d="M147.8,84.8c-4.2,0-7.3-3.3-7.3-8.1V37h5.7v40.1c0,1.1,0.6,1.7,1.5,1.7c1,0,1.6-0.7,1.6-1.7V37h5.5v39.7
				C154.8,81.5,151.9,84.8,147.8,84.8z"/>
			<path class="st2" d="M78.3,84.8c-4.2,0-7.4-3.3-7.4-8.1V44.5c0-4.8,3.2-8.1,7.4-8.1c4.2,0,7.4,3.3,7.4,8.1v11.2l-5.8-1.5V44
				c0-1.1-0.6-1.7-1.5-1.7c-1,0-1.5,0.6-1.5,1.7v33.1c0,1.1,0.6,1.7,1.5,1.7c1,0,1.5-0.7,1.5-1.7V67h5.8v9.7
				C85.7,81.5,82.5,84.8,78.3,84.8z"/>
			<path class="st2" d="M95.7,84.8c-4.2,0-7.6-3.3-7.6-8.1V44.5c0-4.8,3.5-8.1,7.6-8.1c4.2,0,7.6,3.3,7.6,8.1v32.2
				C103.4,81.5,99.9,84.8,95.7,84.8z M97.3,44c0-1.1-0.6-1.7-1.5-1.7c-1,0-1.6,0.6-1.6,1.7v33.1c0,1.1,0.6,1.7,1.6,1.7
				s1.5-0.7,1.5-1.7V44z"/>
			<path class="st2" d="M115.5,84.2c-0.4-2.1-0.8-4.8-0.8-7.3V65.8c0-1.1-0.4-1.9-1.3-1.9H112v20.3h-6V37h7.8c3,0,6.8,1.4,6.8,7.4
				v12c0,2.2-1.2,3.7-2.8,4.9c1.6,1.2,2.9,2.7,2.9,4.9v10c0,3,0.4,5.6,0.8,7.9L115.5,84.2L115.5,84.2z M114.6,44.5
				c0-1.4-0.4-1.9-1.1-1.9H112v15.9h1.5c0.7,0,1.1-0.5,1.1-1.9V44.5z"/>
			<path class="st2" d="M165.2,64.5h-1.7v19.7h-6V37h7.8c3,0,6.8,1.4,6.8,7.4v12.7C172,63,168.2,64.5,165.2,64.5z M166.1,44.5
				c0-1.4-0.4-1.9-1.1-1.9h-1.5v16.2h1.5c0.7,0,1.1-0.5,1.1-1.9V44.5z"/>
			<path class="st2" d="M181,84.9c-4.2,0-7.4-3.3-7.4-8.1V44.6c0-4.8,3.2-8.1,7.4-8.1s7.4,3.3,7.4,8.1v11.2l-5.8-1.5V44.2
				c0-1.1-0.6-1.7-1.5-1.7s-1.5,0.6-1.5,1.7v33.1c0,1.1,0.6,1.7,1.5,1.7s1.5-0.7,1.5-1.7V67.1h5.8v9.7
				C188.4,81.6,185.1,84.9,181,84.9z"/>
			<path class="st2" d="M191.1,84.3V37.1h6v47.2H191.1z"/>
			<path class="st2" d="M207.6,36.5c-4.2,0-7.6,3.3-7.6,8.1v32.2c0,4.8,3.5,8.1,7.6,8.1c4.2,0,7.6-3.3,7.6-8.1V44.6
				C215.2,39.8,211.7,36.5,207.6,36.5z M209.1,77.2c0,1.1-0.6,1.7-1.5,1.7c-1,0-1.6-0.6-1.6-1.7v-33c0-1.1,0.6-1.7,1.6-1.7
				s1.5,0.6,1.5,1.7V77.2z"/>
			<polygon class="st2" points="212.1,32.1 203.3,36 203.3,33.8 212.1,29.9 			"/>
			<path class="st2" d="M229,84.3l-6.2-25.8v25.8h-5V37.1h6.1l5.1,26.2V37.1h4.9v47.2H229z"/>
		</g>
		<polygon class="st0" points="234,84.3 229,84.3 70.9,42.7 70.9,36.4 234,79.2 		"/>
	</g>
</g>
</svg>
