<svg xmlns="http://www.w3.org/2000/svg" enable-background="new 0 0 512 512" viewBox="0 0 512 512"><circle cx="256" cy="256" r="256" fill="#4dae3f"/><path fill="#fff" d="M108.4,409.2l29.7-88.4c-12.6-22.2-19.2-47.5-19.2-73.2c0-82.2,66.8-149,149-149c82.2,0,149,66.8,149,149
				s-66.8,149-149,149c-23.8,0-47.4-5.7-68.4-16.6L108.4,409.2z M144,312.1c1,2,2.1,3.9,3.2,5.8l1.1,1.8l-25.2,74.9h0l25.2-74.9
				C146.8,317.3,145.4,314.7,144,312.1z M267.8,387.3C267.9,387.3,267.9,387.3,267.8,387.3c77.1,0,139.7-62.7,139.7-139.7
				C407.6,324.7,344.9,387.3,267.8,387.3C267.9,387.3,267.9,387.3,267.8,387.3z M267.9,117.3c-71.9,0-130.3,58.5-130.3,130.3
				c0,23.8,6.5,47,18.7,67.3l2.2,3.7l-20.7,61.5l63.6-20.4l3.5,2c19.2,10.6,41,16.2,63,16.2c71.9,0,130.3-58.5,130.3-130.3
				S339.8,117.3,267.9,117.3z"/><path fill="#fff" d="M344.2,281.5c-1.3-2.4-3.7-3.7-6.7-5.3l-1.9-1c-0.2-0.1-20.5-11.1-24.4-12.7c-2.9-1.2-8.8-3.6-13.6,3.1
			c-2,2.8-8.1,9.5-11.4,13.1l-0.4,0.4c-0.2,0-0.7-0.2-1.7-0.7c-0.6-0.3-1.5-0.8-2.6-1.3c-4.9-2.3-14-6.7-24.5-16.8
			c-9.4-9-15.7-20-18-24.3l-0.2-0.4l1.1-1.1c1.2-1.1,2.6-2.7,4-4.2c0.6-0.7,1.3-1.4,1.9-2.1c2-2.1,2.9-3.8,3.9-5.8l0.5-1
			c1.8-3.2,1.8-6.7,0.1-10.4c-0.5-1.1-3.9-10.4-6.4-17.2l-3.5-9.4c-3.1-8.4-7.6-9.4-11.5-9.3l-0.5,0c-0.9,0-1.9-0.1-2.9-0.2
			c-1.3-0.1-2.6-0.3-3.9-0.3c-2.2-0.1-8,0.3-13.2,5.5l-0.7,0.7c-4.1,4-13.6,13.4-14.3,31.7c-0.6,17.2,9.6,33.9,14,40.2l0.6,0.9
			c16.7,26.9,38.1,47.1,60.3,56.8c22.3,9.8,31.5,11.9,37,11.9c2.1,0,3.7-0.3,5.2-0.6c0.7-0.2,1.5-0.3,2.3-0.4
			c7.6-0.4,24.6-8.5,28.8-19C344.5,295.3,346.4,285.6,344.2,281.5z M333,298.9c-2.4,6-15.1,12.8-20.6,13.1c-1.4,0.1-2.5,0.3-3.7,0.5
			c-3.7,0.8-8.4,1.7-36.6-10.7c-20.4-8.9-40.3-27.8-56.1-53.2c-0.4-0.7-0.7-1.1-0.9-1.3c-3-4.4-12.9-19.8-12.3-34.6
			c0.5-14.6,7.9-21.9,11.5-25.4l0.8-0.8c2.4-2.5,5-2.7,6-2.7l0.2,0c1.1,0,2.2,0.2,3.3,0.3c1.2,0.1,2.4,0.2,3.5,0.3h1.1l0.7,0
			c0,0,0.8,0.5,1.8,3.2l3.4,9.4c3.6,9.9,6.1,16.5,6.7,17.8c0.6,1.4,0.4,1.7,0.2,2.1l-0.6,1c-0.9,1.7-1.4,2.6-2.6,3.9
			c-0.7,0.7-1.3,1.5-2,2.2c-1.2,1.3-2.3,2.6-3.3,3.5c-1.8,1.6-6.5,6-2.8,12.8c2.5,4.7,9.4,16.6,19.8,26.6
			c11.5,11.1,21.9,16.1,26.9,18.5c0.9,0.4,1.6,0.8,2.1,1c2,1.1,7.9,4.3,13.4-1.5c0.1-0.1,9.1-9.7,12.2-14l0.5-0.6
			c0.3,0.1,1,0.3,2.1,0.7c2.6,1.1,17.8,9.2,23.4,12.3l2,1.1c1,0.5,2.2,1.2,2.7,1.4C335.9,287.7,335.5,292.7,333,298.9z"/></svg>