<?xml version="1.0" standalone="no"?>
<!DOCTYPE svg PUBLIC "-//W3C//DTD SVG 20010904//EN"
 "http://www.w3.org/TR/2001/REC-SVG-20010904/DTD/svg10.dtd">
<svg version="1.0" xmlns="http://www.w3.org/2000/svg"
 width="290.000000pt" height="200.000000pt" viewBox="0 0 290.000000 200.000000"
 preserveAspectRatio="xMidYMid meet">

<g transform="translate(0.000000,200.000000) scale(0.100000,-0.100000)"
fill="#000000" stroke="none">
<path d="M7 1993 c-8 -7 -10 -1813 -3 -1813 3 0 16 4 30 10 14 5 26 6 26 1 0
-5 -14 -11 -30 -14 l-30 -6 0 -86 0 -85 103 0 102 0 38 103 c20 56 37 107 37
113 0 6 24 63 54 127 59 124 78 146 176 191 37 17 72 26 107 26 28 0 54 4 57
9 19 30 235 97 264 82 26 -14 60 19 93 90 17 36 34 59 41 57 7 -3 33 -49 58
-104 82 -182 116 -230 202 -290 43 -29 89 -56 102 -60 23 -5 63 -45 123 -121
l22 -28 1 54 c0 48 5 61 42 110 37 48 44 66 51 126 12 103 15 125 24 179 l8
48 57 -78 c47 -66 64 -82 105 -98 26 -10 55 -25 63 -32 8 -7 33 -16 55 -20
155 -28 372 -235 426 -407 l24 -77 232 0 233 0 -2 997 -3 998 -1441 3 c-792 1
-1444 -1 -1447 -5z m840 -205 c-3 -7 -5 -2 -5 12 0 14 2 19 5 13 2 -7 2 -19 0
-25z m641 -100 c6 -6 12 -20 12 -32 -1 -23 -25 -72 -34 -68 -3 1 -7 -1 -8 -5
-1 -5 7 -10 18 -11 10 -2 29 -14 41 -27 12 -13 36 -26 53 -30 28 -6 61 -47 49
-60 -3 -2 -32 3 -64 11 -90 24 -153 28 -173 13 -43 -35 -63 -41 -80 -25 -13
11 -22 12 -35 5 -12 -7 -22 -7 -31 1 -11 8 -14 7 -12 -7 1 -14 -11 -19 -54
-25 -30 -5 -66 -7 -80 -6 l-25 3 30 16 c17 9 43 23 59 32 16 9 35 29 42 46 8
19 23 33 38 37 34 8 33 21 -4 42 -49 28 -40 57 24 81 29 11 68 19 85 19 17 -1
35 2 39 6 9 10 93 -3 110 -16z m-84 -422 c18 -39 40 -77 49 -85 9 -7 17 -18
17 -24 0 -8 -3 -8 -11 0 -8 8 -20 7 -45 -3 -84 -35 -106 -11 -94 100 5 42 12
81 15 86 13 20 37 -6 69 -74z m266 -4 c0 -31 -32 -101 -52 -114 -27 -17 -71
-8 -105 22 -18 17 -38 30 -43 30 -6 0 -10 4 -10 9 0 5 24 11 53 14 66 5 131
30 135 51 6 27 22 18 22 -12z m-430 -89 c0 -7 -16 -31 -36 -53 -41 -45 -71
-51 -99 -20 -10 11 -15 20 -11 20 4 0 2 9 -4 19 -19 37 -5 46 75 46 53 0 75
-4 75 -12z m777 -449 c16 6 43 -9 43 -25 0 -4 -12 -9 -27 -11 -20 -2 -27 -8
-25 -21 2 -14 -3 -17 -30 -13 -55 7 -70 16 -64 40 3 11 6 27 6 34 0 9 5 10 19
3 20 -11 30 -4 46 34 8 17 10 15 13 -13 2 -26 7 -32 19 -28z m-110 14 c-3 -8
-6 -5 -6 6 -1 11 2 17 5 13 3 -3 4 -12 1 -19z"/>
<path d="M1314 1589 c-4 -7 1 -18 11 -26 27 -19 36 -16 26 9 -9 26 -26 34 -37
17z"/>
<path d="M1370 1590 c-11 -7 -12 -12 -3 -21 14 -14 46 -4 41 13 -6 16 -20 19
-38 8z"/>
<path d="M1806 425 c4 -8 8 -15 10 -15 2 0 4 7 4 15 0 8 -4 15 -10 15 -5 0 -7
-7 -4 -15z"/>
<path d="M1730 405 c-6 -15 -17 -24 -27 -23 -39 3 -52 -3 -71 -36 -20 -34 -20
-35 -2 -51 13 -12 18 -29 17 -53 -3 -54 18 -48 43 13 26 64 53 73 83 28 l18
-28 -6 40 c-21 132 -36 161 -55 110z"/>
<path d="M1217 400 c-30 -24 -45 -82 -39 -157 6 -84 45 -77 100 20 26 45 28
98 6 132 -20 30 -33 31 -67 5z"/>
<path d="M1965 10 c-3 -6 5 -10 19 -10 14 0 28 5 31 10 3 6 -5 10 -19 10 -14
0 -28 -4 -31 -10z"/>
<path d="M2075 10 c3 -5 10 -10 16 -10 5 0 9 5 9 10 0 6 -7 10 -16 10 -8 0
-12 -4 -9 -10z"/>
</g>
</svg>
